<?xml version="1.0" encoding="UTF-8"?>
<svg id="Layer_1" data-name="Layer 1" xmlns="http://www.w3.org/2000/svg" viewBox="0 0 19.56 19.56">
  <defs>
    <style>
      .cls-1 {
        fill: #fff;
      }

      .cls-2 {
        fill: #fdb716;
      }
    </style>
  </defs>
  <rect class="cls-2" width="19.56" height="19.56"/>
  <polygon class="cls-1" points="2.63 2.26 1.61 2.26 1.61 1.71 3.33 1.71 3.33 2.18 2.54 5.46 1.84 5.46 2.63 2.26"/>
  <path class="cls-1" d="m5.28,2.05l.1.59h-.19l.1-.59Zm-.14-.34l-.29,1.43h.25l.06-.33h.25l.06.33h.24l-.29-1.43h-.27Z"/>
  <polygon class="cls-1" points="5.81 1.71 5.81 3.14 6.07 3.14 6.07 2.49 6.33 2.49 6.33 2.3 6.07 2.3 6.07 1.89 6.4 1.89 6.4 1.71 5.81 1.71"/>
  <polygon class="cls-1" points="6.5 1.71 6.5 3.14 6.76 3.14 6.76 2.49 7.02 2.49 7.02 2.3 6.76 2.3 6.76 1.89 7.09 1.89 7.09 1.71 6.5 1.71"/>
  <g>
    <path class="cls-1" d="m7.58,3.16c-.15,0-.25-.04-.32-.12-.06-.08-.1-.2-.1-.35v-.53c0-.08,0-.14.02-.2.01-.06.04-.1.07-.14.03-.04.07-.07.13-.09.05-.02.12-.03.19-.03.15,0,.25.04.32.12.06.08.1.19.1.35v.53c0,.08,0,.14-.02.2-.01.06-.04.11-.07.15-.03.04-.07.07-.13.1-.05.02-.12.03-.19.03m-.06-.21s.04.01.06.01.05,0,.07-.01c.02,0,.03-.02.04-.03.01-.01.02-.03.03-.05,0-.02,0-.04.01-.06,0-.02,0-.04,0-.07v-.65s0-.06,0-.09c0-.02-.01-.05-.02-.07-.01-.02-.03-.04-.05-.04-.02-.01-.05-.02-.08-.02s-.06,0-.08.02c-.02,0-.04.02-.05.04,0,.02-.02.04-.02.07,0,.02,0,.05,0,.09v.65s0,.05,0,.07c0,.02,0,.04.01.06,0,.02.01.04.02.05.01.01.03.02.04.03"/>
    <path class="cls-1" d="m8.15,3.14v-1.43h.33c.08,0,.14,0,.2.02.05.01.1.03.14.06.04.03.07.07.09.12.02.05.03.11.03.18,0,.09-.01.16-.04.22-.03.06-.07.1-.13.12l.2.71h-.26l-.17-.65h-.12v.65h-.26Zm.26-.82h.06c.08,0,.13-.02.17-.05.03-.03.05-.09.05-.17s-.01-.13-.04-.16c-.03-.03-.08-.05-.15-.05h-.08v.43Z"/>
    <path class="cls-1" d="m9.09,3.14v-1.43h.33c.09,0,.16,0,.22.03.06.02.11.04.14.08.04.04.06.08.08.14.01.05.02.12.02.2v.52c0,.08,0,.15-.02.21-.01.06-.04.11-.07.14-.04.04-.08.07-.14.09-.06.02-.13.03-.21.03h-.34Zm.26-.18h.07s.05,0,.07,0c.02,0,.04-.01.05-.02.01,0,.02-.02.03-.03,0-.01.02-.03.02-.04,0-.01,0-.03.01-.05,0-.03,0-.04,0-.06,0-.02,0-.04,0-.08v-.52s0-.06,0-.08c0-.02,0-.04,0-.06,0-.02-.01-.04-.02-.05,0-.01-.02-.02-.03-.03-.01,0-.03-.02-.05-.02-.02,0-.05,0-.07,0h-.07v1.06Z"/>
  </g>
  <path class="cls-1" d="m10.37,2.05l.1.59h-.19l.1-.59Zm-.14-.34l-.29,1.43h.25l.06-.33h.25l.06.33h.24l-.29-1.43h-.27Z"/>
  <path class="cls-1" d="m10.9,3.14v-1.43h.35c.07,0,.12,0,.17.02.05.01.09.03.13.06.04.03.07.07.09.11.02.05.03.11.03.18,0,.18-.07.28-.21.3.08.02.15.05.19.11.04.06.06.14.06.24,0,.14-.03.24-.1.31-.07.07-.17.11-.3.11h-.41Zm.26-.85h.08c.08,0,.13-.02.16-.05.03-.03.04-.09.04-.17,0-.04,0-.07-.01-.1,0-.03-.02-.04-.05-.06-.02-.01-.05-.02-.07-.02-.03,0-.06,0-.11,0h-.04v.4Zm0,.66h.1c.08,0,.13-.02.16-.05.03-.04.04-.1.04-.18s-.02-.15-.05-.19c-.03-.04-.09-.06-.17-.06h-.08v.48Z"/>
  <polygon class="cls-1" points="11.85 1.71 11.85 3.14 12.45 3.14 12.45 2.96 12.11 2.96 12.11 1.71 11.85 1.71"/>
  <polygon class="cls-1" points="12.56 1.71 12.56 3.14 13.16 3.14 13.16 2.96 12.82 2.96 12.82 2.49 13.08 2.49 13.08 2.3 12.82 2.3 12.82 1.89 13.16 1.89 13.16 1.71 12.56 1.71"/>
  <path class="cls-1" d="m14.03,2.05l.1.59h-.19l.1-.59Zm-.14-.34l-.29,1.43h.25l.06-.33h.25l.06.33h.24l-.29-1.43h-.27Z"/>
  <polygon class="cls-1" points="15.09 1.71 15.09 2.52 14.73 1.71 14.56 1.71 14.56 3.14 14.78 3.14 14.78 2.29 15.13 3.14 15.3 3.14 15.3 1.71 15.09 1.71"/>
  <g>
    <path class="cls-1" d="m15.48,3.14v-1.43h.33c.09,0,.16,0,.22.03.06.02.11.04.14.08.04.04.06.08.08.14.01.05.02.12.02.2v.52c0,.08,0,.15-.02.21-.01.06-.04.11-.07.14-.04.04-.08.07-.14.09-.06.02-.13.03-.21.03h-.34Zm.26-.18h.07s.05,0,.07,0c.02,0,.04-.01.05-.02.01,0,.02-.02.03-.03,0-.01.02-.03.02-.04,0-.01,0-.03.01-.05,0-.03,0-.04,0-.06,0-.02,0-.04,0-.08v-.52s0-.06,0-.08c0-.02,0-.04,0-.06,0-.02-.01-.04-.02-.05,0-.01-.02-.02-.03-.03-.01,0-.03-.02-.05-.02-.02,0-.05,0-.07,0h-.07v1.06Z"/>
    <path class="cls-1" d="m5.31,5.5c-.06,0-.12,0-.16-.02-.05-.02-.09-.04-.12-.07-.03-.03-.06-.06-.07-.1-.02-.04-.03-.08-.04-.13,0-.05-.01-.1-.01-.16v-.5c0-.06,0-.12.01-.17,0-.05.02-.09.04-.13.02-.04.04-.07.07-.1.03-.03.07-.05.12-.06.05-.01.1-.02.16-.02.07,0,.13,0,.18.03.05.02.09.05.12.08.03.04.05.08.06.13.01.05.02.11.02.17v.12h-.25v-.12c0-.07,0-.12-.01-.14-.01-.05-.05-.07-.11-.08h-.01s-.04,0-.06,0c-.02,0-.03.01-.04.02-.01.01-.02.02-.03.04,0,.01-.01.03-.01.05,0,.02,0,.04,0,.06,0,.02,0,.04,0,.07v.61c0,.08,0,.14.03.18.02.04.06.05.11.05.02,0,.03,0,.05,0,.01,0,.03,0,.04-.02,0,0,.02-.02.02-.03,0-.01.01-.02.01-.03,0-.01,0-.03,0-.04s0-.04,0-.05,0-.03,0-.05v-.13h.25v.12c0,.05,0,.1-.01.14,0,.04-.02.08-.04.12-.02.04-.04.07-.07.09-.03.02-.07.04-.11.06-.04.01-.1.02-.16.02"/>
  </g>
  <polygon class="cls-1" points="5.84 4.05 5.84 5.48 6.45 5.48 6.45 5.3 6.1 5.3 6.1 4.05 5.84 4.05"/>
  <polygon class="cls-1" points="6.55 4.05 6.55 5.48 7.15 5.48 7.15 5.3 6.81 5.3 6.81 4.83 7.08 4.83 7.08 4.64 6.81 4.64 6.81 4.23 7.15 4.23 7.15 4.05 6.55 4.05"/>
  <path class="cls-1" d="m7.62,4.39l.1.59h-.19l.1-.59Zm-.14-.34l-.29,1.43h.25l.06-.33h.25l.06.33h.24l-.29-1.43h-.27Z"/>
  <polygon class="cls-1" points="8.68 4.05 8.68 4.86 8.33 4.05 8.15 4.05 8.15 5.48 8.37 5.48 8.37 4.63 8.73 5.48 8.9 5.48 8.9 4.05 8.68 4.05"/>
  <polygon class="cls-1" points="9.47 4.05 9.47 5.48 10.08 5.48 10.08 5.3 9.74 5.3 9.74 4.83 10 4.83 10 4.64 9.74 4.64 9.74 4.23 10.07 4.23 10.07 4.05 9.47 4.05"/>
  <polygon class="cls-1" points="10.72 4.05 10.72 4.86 10.37 4.05 10.19 4.05 10.19 5.48 10.41 5.48 10.41 4.63 10.77 5.48 10.94 5.48 10.94 4.05 10.72 4.05"/>
  <polygon class="cls-1" points="11.12 4.05 11.12 5.48 11.72 5.48 11.72 5.3 11.38 5.3 11.38 4.83 11.65 4.83 11.65 4.64 11.38 4.64 11.38 4.23 11.72 4.23 11.72 4.05 11.12 4.05"/>
  <g>
    <path class="cls-1" d="m11.84,5.48v-1.43h.33c.08,0,.14,0,.2.02.05.01.1.03.14.06.04.03.07.07.09.12.02.05.03.11.03.18,0,.09-.01.16-.04.22-.03.06-.07.1-.13.12l.2.71h-.26l-.17-.65h-.12v.65h-.26Zm.26-.82h.06c.08,0,.13-.02.17-.05.03-.03.05-.09.05-.17s-.01-.13-.04-.16c-.03-.03-.08-.05-.15-.05h-.08v.43Z"/>
    <path class="cls-1" d="m13.14,5.5c-.14,0-.23-.04-.29-.13-.06-.08-.09-.21-.09-.37v-.47c0-.08,0-.15.02-.21.01-.06.03-.11.07-.16.03-.04.07-.08.13-.1.05-.02.12-.03.2-.03.14,0,.24.03.31.1.06.07.09.17.09.32v.07h-.25v-.07s0-.06,0-.08c0-.02,0-.04,0-.06,0-.02-.01-.04-.02-.05,0-.01-.02-.02-.04-.03-.02,0-.04-.01-.07-.01-.02,0-.04,0-.05,0-.01,0-.03.01-.04.02-.01,0-.02.02-.03.03,0,.01-.01.03-.02.04,0,.01,0,.03,0,.05,0,.02,0,.04,0,.05v.64c0,.09,0,.15.03.19.02.04.06.06.12.06.03,0,.06,0,.08-.02.02-.01.04-.03.05-.05.01-.02.02-.05.03-.08,0-.03,0-.07,0-.11v-.12h-.15v-.17h.39v.73h-.17l-.02-.14c-.04.11-.12.16-.24.16"/>
  </g>
  <polygon class="cls-1" points="14.22 4.05 14.05 4.62 13.88 4.05 13.63 4.05 13.92 4.93 13.92 5.48 14.17 5.48 14.17 4.93 14.46 4.05 14.22 4.05"/>
  <g>
    <path class="cls-1" d="m9.83,9.58c-1.6,0-2.89,1.29-2.89,2.89s1.3,2.89,2.89,2.89,2.89-1.29,2.89-2.89-1.29-2.89-2.89-2.89m-.22,1.14c0-.1.1-.2.22-.2s.21.11.21.2v.99c0,.1-.1.2-.21.2s-.22-.11-.22-.2v-.99Zm.22,3.23c-.83,0-1.51-.67-1.51-1.5,0-.68.44-1.25,1.06-1.44v.56c-.32.16-.54.49-.54.88,0,.54.44.99.99.99s.98-.44.98-.99c0-.38-.22-.72-.54-.88v-.56c.61.19,1.06.76,1.06,1.44,0,.83-.67,1.5-1.5,1.5"/>
    <path class="cls-1" d="m6.51,12.44c0-.13-.12-.24-.22-.24h-1.27c-.11,0-.22.11-.22.24s.12.24.22.24h1.27c.11,0,.22-.11.22-.24"/>
    <path class="cls-1" d="m14.87,12.44c0-.13-.12-.24-.22-.24h-1.27c-.11,0-.22.11-.22.24s.12.24.22.24h1.27c.11,0,.22-.11.22-.24"/>
    <path class="cls-1" d="m9.84,17.48c.13,0,.24-.12.24-.22v-1.27c0-.11-.11-.22-.24-.22s-.24.12-.24.22v1.27c0,.11.11.22.24.22"/>
    <path class="cls-1" d="m14.21,14.94c.06-.11.02-.26-.08-.32l-1.1-.63c-.09-.05-.25-.02-.31.1-.07.11-.02.26.08.32l1.1.63c.09.05.25.02.31-.1"/>
    <path class="cls-1" d="m7.33,16.81c.11.07.26.02.32-.07l.63-1.1c.05-.09.02-.25-.1-.31-.11-.07-.26-.02-.32.08l-.63,1.1c-.05.09-.02.25.1.31"/>
    <path class="cls-1" d="m12.35,16.81c.11-.06.15-.22.09-.31l-.63-1.1c-.05-.09-.2-.14-.32-.07-.11.06-.15.22-.1.31l.63,1.1c.05.09.2.14.32.07"/>
    <path class="cls-1" d="m5.47,14.95c.06.11.22.15.31.1l1.1-.63c.09-.05.14-.2.08-.32-.06-.11-.22-.15-.31-.1l-1.1.63c-.09.05-.14.2-.07.32"/>
    <path class="cls-1" d="m9.84,9.12c.13,0,.24-.12.24-.22v-1.27c0-.11-.11-.22-.24-.22s-.24.12-.24.22v1.27c0,.11.11.22.24.22"/>
    <path class="cls-1" d="m6.95,10.79c.06-.11.02-.26-.08-.32l-1.1-.63c-.09-.05-.25-.02-.31.1-.07.11-.02.26.08.32l1.1.63c.09.05.25.02.31-.1"/>
    <path class="cls-1" d="m11.49,9.56c.11.07.26.02.32-.07l.63-1.1c.05-.09.02-.25-.1-.31-.11-.07-.26-.02-.32.08l-.63,1.1c-.05.09-.02.25.1.31"/>
    <path class="cls-1" d="m8.18,9.56c.11-.06.15-.22.09-.31l-.63-1.1c-.05-.09-.2-.14-.32-.07-.12.06-.15.22-.1.31l.63,1.1c.05.09.2.14.32.07"/>
    <path class="cls-1" d="m12.72,10.79c.06.11.22.15.31.1l1.1-.63c.09-.05.14-.2.08-.32-.07-.11-.22-.15-.31-.1l-1.1.63c-.09.05-.14.2-.07.32"/>
  </g>
</svg>