<?xml version="1.0" encoding="UTF-8"?>
<svg id="Layer_1" data-name="Layer 1" xmlns="http://www.w3.org/2000/svg" viewBox="0 0 19.56 19.56">
  <defs>
    <style>
      .cls-1 {
        fill: #fff;
      }

      .cls-2 {
        fill: #49783d;
      }
    </style>
  </defs>
  <rect class="cls-2" x=".01" y=".01" width="19.53" height="19.53" transform="translate(-.01 19.55) rotate(-89.92)"/>
  <g>
    <path class="cls-1" d="m1.74,2.45s-.13.06-.3.12c-.13.04-.21.07-.24.09v-.53c.1-.04.23-.1.38-.18.15-.08.26-.16.32-.23h.56v3.75h-.72v-3.01Z"/>
    <path class="cls-1" d="m3.06,5.23c-.16-.2-.24-.48-.24-.84v-.13h.71v.12c0,.19.03.33.07.41.04.08.12.12.24.12s.19-.04.23-.13c.04-.08.06-.22.06-.41s-.03-.35-.09-.45c-.06-.1-.17-.15-.32-.15,0,0-.05,0-.13,0v-.52h.12c.16,0,.27-.04.33-.13.06-.09.09-.23.09-.43,0-.16-.02-.28-.07-.36-.05-.08-.12-.12-.24-.12-.11,0-.18.04-.22.12-.04.08-.06.21-.06.37v.17h-.71v-.2c0-.33.09-.58.26-.76.17-.18.42-.27.74-.27s.57.09.75.26c.18.17.26.42.26.75,0,.22-.04.4-.13.54-.09.15-.2.24-.34.28.32.12.48.41.48.88,0,.36-.08.64-.24.85-.16.21-.42.31-.76.31s-.62-.1-.77-.3"/>
    <path class="cls-1" d="m6.72,3.16c-.06,0-.12,0-.16-.02-.05-.02-.09-.04-.12-.07-.03-.03-.06-.06-.07-.1-.02-.04-.03-.08-.04-.13,0-.05-.01-.1-.01-.16v-.5c0-.06,0-.12.01-.17,0-.05.02-.09.04-.13.02-.04.04-.07.07-.1.03-.03.07-.05.12-.06.05-.01.1-.02.16-.02.07,0,.13,0,.18.03.05.02.09.05.12.08.03.04.05.08.06.13.01.05.02.11.02.17v.12h-.25v-.12c0-.07,0-.12-.01-.14-.01-.05-.05-.07-.11-.08h-.01s-.04,0-.06,0c-.02,0-.03.01-.04.02-.01.01-.02.02-.03.04,0,.01-.01.03-.01.05,0,.02,0,.04,0,.06,0,.02,0,.04,0,.07v.61c0,.08,0,.14.03.18.02.04.06.05.11.05.02,0,.03,0,.05,0,.01,0,.03,0,.04-.02,0,0,.02-.02.02-.03,0-.01.01-.02.01-.04,0,0,0-.02,0-.04s0-.04,0-.05,0-.03,0-.05v-.13h.25v.12c0,.05,0,.1-.01.14,0,.04-.02.08-.04.12-.02.04-.04.07-.07.09-.03.02-.07.04-.11.06-.04.01-.1.02-.16.02"/>
  </g>
  <polygon class="cls-1" points="7.23 1.71 7.23 3.14 7.84 3.14 7.84 2.96 7.49 2.96 7.49 1.71 7.23 1.71"/>
  <rect class="cls-1" x="7.93" y="1.71" width=".26" height="1.43"/>
  <polygon class="cls-1" points="9.06 1.71 8.85 2.71 8.64 1.71 8.38 1.71 8.35 3.14 8.55 3.14 8.57 2.15 8.78 3.14 8.93 3.14 9.14 2.15 9.15 3.14 9.35 3.14 9.33 1.71 9.06 1.71"/>
  <path class="cls-1" d="m9.86,2.05l.1.59h-.19l.1-.59Zm-.14-.34l-.29,1.43h.25l.06-.33h.25l.06.33h.24l-.29-1.43h-.27Z"/>
  <polygon class="cls-1" points="10.22 1.71 10.22 1.9 10.46 1.9 10.46 3.14 10.73 3.14 10.73 1.9 10.96 1.9 10.96 1.71 10.22 1.71"/>
  <polygon class="cls-1" points="11.02 1.71 11.02 3.14 11.62 3.14 11.62 2.96 11.28 2.96 11.28 2.49 11.55 2.49 11.55 2.3 11.28 2.3 11.28 1.89 11.62 1.89 11.62 1.71 11.02 1.71"/>
  <path class="cls-1" d="m6.69,4.39l.1.59h-.19l.1-.59Zm-.14-.34l-.29,1.43h.25l.06-.33h.25l.06.33h.24l-.29-1.43h-.27Z"/>
  <path class="cls-1" d="m7.59,5.5c-.06,0-.12,0-.16-.02-.05-.02-.09-.04-.12-.07-.03-.03-.06-.06-.07-.1-.02-.04-.03-.08-.04-.13,0-.05-.01-.1-.01-.16v-.5c0-.06,0-.12.01-.17,0-.05.02-.09.04-.13.02-.04.04-.07.07-.1.03-.03.07-.05.12-.06.05-.01.1-.02.16-.02.07,0,.13,0,.18.03.05.02.09.05.12.08.03.04.05.08.06.13.01.05.02.11.02.17v.12h-.25v-.12c0-.07,0-.12-.01-.14-.01-.05-.05-.07-.11-.08h-.01s-.04,0-.06,0c-.02,0-.03.01-.04.02-.01.01-.02.02-.03.04,0,.01-.01.03-.01.05,0,.02,0,.04,0,.06,0,.02,0,.04,0,.07v.61c0,.08,0,.14.03.18.02.04.06.05.11.05.02,0,.03,0,.05,0,.01,0,.03,0,.04-.02,0,0,.02-.02.02-.03,0-.01.01-.02.01-.03,0-.01,0-.03,0-.04s0-.04,0-.05,0-.03,0-.05v-.13h.25v.12c0,.05,0,.1-.01.14,0,.04-.02.08-.04.12-.02.04-.04.07-.07.09-.03.02-.07.04-.11.06-.04.01-.1.02-.16.02"/>
  <polygon class="cls-1" points="8 4.05 8 4.24 8.24 4.24 8.24 5.48 8.5 5.48 8.5 4.24 8.73 4.24 8.73 4.05 8 4.05"/>
  <rect class="cls-1" x="8.8" y="4.05" width=".26" height="1.43"/>
  <path class="cls-1" d="m9.62,5.5c-.15,0-.25-.04-.32-.12-.06-.08-.1-.2-.1-.35v-.53c0-.08,0-.14.02-.2.01-.06.04-.1.07-.14.03-.04.07-.07.13-.09.05-.02.12-.03.19-.03.15,0,.25.04.32.12.06.08.1.19.1.35v.53c0,.08,0,.14-.02.2-.01.06-.04.11-.07.15-.03.04-.07.07-.13.1-.05.02-.12.03-.19.03m-.06-.21s.04.01.06.01.05,0,.07-.01c.02,0,.03-.02.04-.03.01-.01.02-.03.03-.05,0-.02,0-.04.01-.06,0-.02,0-.04,0-.07v-.65s0-.06,0-.09c0-.02-.01-.05-.02-.07-.01-.02-.03-.04-.05-.04-.02-.01-.05-.02-.08-.02s-.06,0-.08.02c-.02,0-.04.02-.05.04,0,.02-.02.04-.02.07,0,.02,0,.05,0,.09v.65s0,.05,0,.07c0,.02,0,.04.01.06,0,.02.01.04.02.05.01.01.03.02.04.03"/>
  <polygon class="cls-1" points="10.7 4.05 10.7 4.86 10.35 4.05 10.17 4.05 10.17 5.48 10.39 5.48 10.39 4.63 10.74 5.48 10.91 5.48 10.91 4.05 10.7 4.05"/>
  <path class="cls-1" d="m17.22,12.33c-.52-.73-2.87-3.65-7.24-3.65-4.37,0-6.73,2.9-7.25,3.63-.02.03-.04.06-.06.08.02.02.04.05.06.08.52.73,2.87,3.65,7.24,3.65,4.37,0,6.73-2.9,7.25-3.63.02-.03.04-.06.06-.08-.01-.02-.03-.05-.06-.08m-9.68-1.81c.04-.06.17-.22.19-.24.03-.04.1-.05.15-.06.05,0,.11.02.12.05,0,.04-.02.17-.04.19-.06.07-.23.16-.32.15-.07-.01-.1-.07-.08-.09m-.16.31s.01-.01.02-.02c.06-.06.17-.08.24-.09.08-.01.18.03.19.08.01.05-.19.14-.23.18-.1.1-.27.29-.37.32-.03,0-.06,0-.08,0,.06-.16.14-.31.23-.45m1.63,3.36c-.06.23-.13.32-.19.39-.06.07-.28.17-.42.16-.14,0-.16-.38-.16-.57,0-.07-.09.13-.14-.27-.03-.25-.19.03-.21-.14-.01-.17-.09-.14-.18-.24-.08-.1-.19.01-.31.06-.12.05-.07.08-.24.03,0,0,0,0,0,0-.15-.37-.24-.77-.24-1.19,0-.1,0-.2.02-.3,0,0,.01-.02.02-.03.16-.19.16-.24.16-.24l.18-.06s.28.04.5.12c.18.07.45.22.62.15.12-.05.21-.11.2-.21-.01-.12-.11-.15-.23-.07-.04.03-.13-.19-.21-.17-.07.01.09.25.03.26-.06.01-.18-.25-.2-.29-.02-.04-.12-.15-.2-.07-.18.17-.47.16-.53.2-.18.13-.23-.04-.22-.15,0-.03.01-.05.02-.07.06-.06.27-.09.34-.04.08.05.14-.01.17-.05.03-.03.02-.08,0-.12-.02-.04.04-.07.08-.09.04,0,.18-.1.23-.14.05-.03.34-.07.46,0,.13.06.24.01.3-.06.08-.09.18-.16.22-.18.04-.02-.11-.16-.23,0-.13.15-.19.17-.25.17s-.41-.09-.45-.2c-.04-.11.11-.19.24-.26.13-.06.49-.06.58-.08.18-.04.42-.13.54-.05.12.08-.5.22-.29.33.07.04.4-.19.51-.24.26-.13-.25-.18-.19-.45.08-.31-.63-.19-.99-.17.47-.3,1.04-.48,1.64-.48,1.44,0,2.64,1,2.96,2.34,0,.07,0,.11-.01.14-.03.11-.24.2-.36.03-.03-.04-.16-.17-.16.04s.21.23,0,.36c-.19.13-.23.1-.32.13-.09.03-.18.25-.15.37.02.12.3.43.09.42-.05,0-.41-.25-.47-.41-.06-.17-.13-.33-.18-.46-.05-.13-.18-.16-.29-.09-.11.07.03.15-.05.31-.08.16-.13.3-.25.17-.3-.34-.73-.17-.8-.55-.04-.21-.21-.19-.36-.3s-.23-.18-.26-.1c-.02.07.46.46.5.56.05.15-.15.28-.29.31-.14.03-.21-.08-.35-.23-.14-.15-.2-.25-.21-.14-.01.17.13.41.28.51.12.08.26.11.22.24-.04.13,0,.06-.14.19-.14.14-.16.18-.15.37,0,.19-.04.2-.07.36-.03.16-.1.02-.16.25m3.27-1.21c.1,0,.26.13.2.19-.06.05-.21.03-.29-.03-.08-.06.05-.16.1-.16m-.13-.09s-.06-.04-.09-.12c-.03-.07.04-.12.1-.09.06.03.14.12.14.18s-.12.04-.16.03m-1.34,0c-.06.05-.21.03-.29-.03-.08-.06.05-.16.09-.16.1,0,.26.13.2.19m-1.25.6c-.04.07-.16.58-.23.52-.08-.06.03-.6.05-.63.12-.22.38-.21.18.11m.41,1.99c-.3,0-.58-.04-.86-.12-.04-.03-.06-.09-.04-.15.1-.24.38-.34.6-.36.49-.05,1.14.32,1.25.26.1-.06.31-.33.62-.32.21,0,.21.04.28.07-.51.39-1.15.62-1.85.62m2.15-.88s-.06-.02-.1-.03c-.17-.09-.15.05-.23.02-.08-.03.09-.22-.15-.06-.24.16-.18-.02-.29-.3-.11-.27.12-.58.32-.65.26-.1.43-.12.55-.15.37-.09.44-.31.51-.18.01.03.03.05.04.07.02.04.05.12.05.2-.16.41-.4.77-.7,1.07m.84-1.54c-.08-.02-.42-.5-.15-.81.04-.05-.09-.2-.05-.21.15-.01.23.08.27.21,0,.06,0,.12,0,.18,0,.21-.02.42-.06.62"/>
</svg>