<?xml version="1.0" encoding="UTF-8"?>
<svg id="Layer_1" data-name="Layer 1" xmlns="http://www.w3.org/2000/svg" viewBox="0 0 19.56 19.56">
  <defs>
    <style>
      .cls-1 {
        fill: #fff;
      }

      .cls-2 {
        fill: #00add8;
      }
    </style>
  </defs>
  <rect class="cls-2" width="19.56" height="19.56"/>
  <g>
    <path class="cls-1" d="m1.83,5.17c-.17-.22-.25-.52-.25-.9v-1.33c0-.41.07-.72.22-.95.15-.22.41-.34.78-.34.33,0,.57.08.72.24.15.16.22.4.23.71v.07s-.68,0-.68,0c0-.17-.02-.29-.05-.36-.03-.07-.1-.1-.21-.1-.08,0-.14.02-.18.07-.04.05-.07.12-.09.23s-.03.26-.03.46v.38c.04-.07.11-.12.19-.16.09-.04.19-.06.31-.06.28,0,.48.1.6.29s.19.46.19.79c0,.41-.08.73-.23.96-.15.23-.41.34-.77.34-.34,0-.6-.11-.76-.33m.99-.35c.04-.1.06-.27.06-.49,0-.16,0-.28-.01-.36,0-.09-.04-.16-.08-.21-.04-.05-.11-.08-.19-.08-.06,0-.12.02-.17.05s-.09.07-.12.12v.6c0,.36.1.53.3.53.11,0,.18-.05.22-.16"/>
    <path class="cls-1" d="m5.56,3.16c-.06,0-.12,0-.16-.02-.05-.02-.09-.04-.12-.07-.03-.03-.06-.06-.07-.1-.02-.04-.03-.08-.04-.13,0-.05-.01-.1-.01-.16v-.5c0-.06,0-.12.01-.17,0-.05.02-.09.04-.13.02-.04.04-.07.07-.1.03-.03.07-.05.12-.06.05-.01.1-.02.16-.02.07,0,.13,0,.18.03.05.02.09.05.12.08.03.04.05.08.06.13.01.05.02.11.02.17v.12h-.25v-.12c0-.07,0-.12-.01-.14-.01-.05-.05-.07-.11-.08h-.01s-.04,0-.06,0c-.02,0-.03.01-.04.02-.01.01-.02.02-.03.04,0,.01-.01.03-.01.05,0,.02,0,.04,0,.06,0,.02,0,.04,0,.07v.61c0,.08.01.14.03.18.02.04.06.05.11.05.02,0,.03,0,.05,0,.01,0,.03,0,.04-.02,0,0,.02-.02.02-.03,0-.01.01-.02.01-.03,0-.01,0-.03,0-.04s0-.04,0-.05,0-.03,0-.05v-.13h.25v.12c0,.05,0,.1-.01.14,0,.04-.02.08-.04.12-.02.04-.04.07-.07.09-.03.02-.07.04-.11.06-.05.01-.1.02-.16.02"/>
  </g>
  <polygon class="cls-1" points="6.11 1.71 6.11 3.14 6.72 3.14 6.72 2.96 6.38 2.96 6.38 1.71 6.11 1.71"/>
  <polygon class="cls-1" points="6.85 1.71 6.85 3.14 7.45 3.14 7.45 2.96 7.11 2.96 7.11 2.49 7.38 2.49 7.38 2.3 7.11 2.3 7.11 1.89 7.45 1.89 7.45 1.71 6.85 1.71"/>
  <path class="cls-1" d="m7.95,2.05l.1.59h-.19l.1-.59Zm-.14-.34l-.29,1.43h.25l.06-.33h.25l.06.33h.24l-.29-1.43h-.27Z"/>
  <polygon class="cls-1" points="9.03 1.71 9.03 2.52 8.68 1.71 8.5 1.71 8.5 3.14 8.72 3.14 8.72 2.29 9.08 3.14 9.25 3.14 9.25 1.71 9.03 1.71"/>
  <polygon class="cls-1" points="10.03 3.14 9.83 1.71 10.05 1.71 10.17 2.63 10.32 1.71 10.49 1.71 10.65 2.63 10.77 1.71 10.98 1.71 10.78 3.14 10.57 3.14 10.41 2.18 10.25 3.14 10.03 3.14"/>
  <path class="cls-1" d="m11.45,2.05l.1.59h-.19l.1-.59Zm-.14-.34l-.29,1.43h.25l.06-.33h.25l.06.33h.24l-.29-1.43h-.27Z"/>
  <polygon class="cls-1" points="11.86 1.71 11.86 1.9 12.09 1.9 12.09 3.14 12.36 3.14 12.36 1.9 12.59 1.9 12.59 1.71 11.86 1.71"/>
  <polygon class="cls-1" points="12.69 1.71 12.69 3.14 13.3 3.14 13.3 2.96 12.95 2.96 12.95 2.49 13.22 2.49 13.22 2.3 12.95 2.3 12.95 1.89 13.29 1.89 13.29 1.71 12.69 1.71"/>
  <path class="cls-1" d="m13.44,3.14v-1.43h.33c.08,0,.14,0,.2.02.05.01.1.03.14.06.04.03.07.07.09.12.02.05.03.11.03.18,0,.09-.01.16-.04.22-.03.06-.07.1-.13.12l.2.71h-.26l-.17-.65h-.12v.65h-.26Zm.26-.82h.06c.08,0,.13-.02.16-.05.03-.03.05-.09.05-.17s-.01-.13-.04-.16c-.03-.03-.08-.05-.15-.05h-.08v.43Z"/>
  <path class="cls-1" d="m5.53,4.39l.1.59h-.19l.1-.59Zm-.14-.34l-.29,1.43h.25l.06-.33h.25l.06.33h.24l-.29-1.43h-.27Z"/>
  <polygon class="cls-1" points="6.61 4.05 6.61 4.86 6.26 4.05 6.08 4.05 6.08 5.48 6.3 5.48 6.3 4.63 6.66 5.48 6.83 5.48 6.83 4.05 6.61 4.05"/>
  <g>
    <path class="cls-1" d="m7.03,5.48v-1.43h.33c.09,0,.16,0,.22.03.06.02.11.04.14.08.04.04.06.08.08.14.01.05.02.12.02.2v.52c0,.08,0,.15-.02.21-.01.06-.04.11-.07.14-.03.04-.08.07-.14.09-.06.02-.13.03-.21.03h-.34Zm.26-.18h.07s.05,0,.07,0c.02,0,.04-.01.05-.02.01,0,.02-.02.03-.03,0-.01.02-.03.02-.04,0-.01,0-.03.01-.05,0-.03,0-.04,0-.06,0-.02,0-.04,0-.08v-.52s0-.06,0-.08c0-.02,0-.04,0-.06,0-.02-.01-.04-.02-.05,0-.01-.02-.02-.03-.03-.01,0-.03-.02-.05-.02-.02,0-.05,0-.07,0h-.07v1.06Z"/>
    <path class="cls-1" d="m8.79,5.5c-.25,0-.39-.15-.4-.44l.23-.05c0,.19.06.28.16.28.04,0,.07-.01.09-.04.02-.02.03-.06.03-.1s0-.08-.02-.11c-.01-.03-.03-.06-.05-.08-.02-.02-.05-.05-.08-.08l-.19-.16c-.06-.05-.1-.1-.12-.15s-.04-.12-.04-.2c0-.11.03-.2.1-.26.07-.06.15-.09.27-.09.05,0,.1,0,.14.02.04.01.07.03.1.05.03.02.05.05.07.09.02.03.03.07.04.11,0,.04.01.08.02.12l-.22.04s0-.05,0-.07c0-.02,0-.04-.01-.07,0-.02-.01-.04-.03-.05,0-.01-.02-.02-.04-.03-.02,0-.04-.01-.06,0-.04,0-.07.01-.09.04-.02.02-.03.05-.03.09,0,.05,0,.08.03.11.02.03.05.06.08.1l.19.16s.06.06.08.08.04.06.07.09c.02.03.04.07.05.11s.02.08.02.13c0,.1-.03.19-.1.25-.07.07-.15.1-.26.1"/>
  </g>
  <path class="cls-1" d="m9.64,4.39l.1.59h-.19l.1-.59Zm-.14-.34l-.29,1.43h.25l.06-.33h.25l.06.33h.24l-.29-1.43h-.27Z"/>
  <polygon class="cls-1" points="10.73 4.05 10.73 4.86 10.38 4.05 10.2 4.05 10.2 5.48 10.42 5.48 10.42 4.63 10.78 5.48 10.95 5.48 10.95 4.05 10.73 4.05"/>
  <rect class="cls-1" x="11.16" y="4.05" width=".26" height="1.43"/>
  <polygon class="cls-1" points="11.53 4.05 11.53 4.24 11.77 4.24 11.77 5.48 12.03 5.48 12.03 4.24 12.26 4.24 12.26 4.05 11.53 4.05"/>
  <path class="cls-1" d="m12.71,4.39l.1.59h-.19l.1-.59Zm-.14-.34l-.29,1.43h.25l.06-.33h.25l.06.33h.24l-.29-1.43h-.27Z"/>
  <polygon class="cls-1" points="13.12 4.05 13.12 4.24 13.36 4.24 13.36 5.48 13.62 5.48 13.62 4.24 13.85 4.24 13.85 4.05 13.12 4.05"/>
  <rect class="cls-1" x="13.97" y="4.05" width=".26" height="1.43"/>
  <path class="cls-1" d="m14.83,5.5c-.15,0-.25-.04-.32-.12-.06-.08-.1-.2-.1-.35v-.53c0-.08,0-.14.02-.2.01-.06.04-.1.07-.14.03-.04.07-.07.13-.09.05-.02.12-.03.19-.03.15,0,.25.04.32.12.06.08.1.19.1.35v.53c0,.08,0,.14-.02.2-.01.06-.04.11-.07.15-.03.04-.07.07-.13.1-.05.02-.12.03-.19.03m-.06-.21s.04.01.06.01.05,0,.07-.01c.02,0,.03-.02.04-.03.01-.01.02-.03.03-.05,0-.02,0-.04.01-.06,0-.02,0-.04,0-.07v-.65s0-.06,0-.09c0-.02-.01-.05-.02-.07-.01-.02-.03-.04-.04-.04-.02-.01-.05-.02-.08-.02s-.06,0-.08.02c-.02,0-.04.02-.04.04,0,.02-.02.04-.02.07,0,.02,0,.05,0,.09v.65s0,.05,0,.07c0,.02,0,.04.01.06,0,.02.01.04.02.05.01.01.03.02.04.03"/>
  <polygon class="cls-1" points="15.95 4.05 15.95 4.86 15.6 4.05 15.42 4.05 15.42 5.48 15.64 5.48 15.64 4.63 16 5.48 16.17 5.48 16.17 4.05 15.95 4.05"/>
  <path class="cls-1" d="m13.46,7.94s-.04-.03-.06-.03h-7.16s-.05.01-.07.03c-.01.02-.02.04-.02.07l1.2,7.28s.04.07.08.07h1.48l.1,1.18h-.62s1.45,1.45,1.45,1.45l1.45-1.45h-.62l.1-1.18h1.5s.08-.03.08-.07l1.13-7.28s0-.05-.02-.07m-2.77,5.83s-.32.33-.86.3c-.53.04-.85-.3-.85-.3-.54-.54-.35-1.2-.16-1.55.12-.22.94-1.45,1.01-1.56h0s0,0,0,0h0s0,0,0,0c.07.11.89,1.34,1.01,1.56.19.34.38,1.01-.16,1.55m2.27-4.3c-.19-.08-.44-.05-.68.04-.89.36-1.49.49-2.43.2-.59-.18-1.14-.57-1.79-.33-.43.15-.83.3-1.32.3l-.28-1.45h6.7l-.2,1.24Z"/>
</svg>