<?xml version="1.0" encoding="UTF-8"?>
<svg id="Layer_1" data-name="Layer 1" xmlns="http://www.w3.org/2000/svg" viewBox="0 0 19.56 19.56">
  <defs>
    <style>
      .cls-1 {
        fill: #fff;
      }

      .cls-2 {
        fill: #ef4229;
      }
    </style>
  </defs>
  <rect class="cls-2" width="19.56" height="19.56"/>
  <g>
    <path class="cls-1" d="m1.97,5.38c-.14-.09-.24-.22-.29-.39-.05-.17-.08-.38-.08-.62h.69c0,.22.02.37.06.47.04.1.12.14.24.14.09,0,.16-.03.2-.09.04-.06.07-.15.08-.25,0-.11.02-.26.02-.46,0-.23-.02-.4-.06-.51-.04-.11-.13-.17-.26-.17-.17,0-.27.11-.32.34h-.62l.05-2.13h1.73v.61h-1.14l-.04.83c.04-.05.12-.1.22-.13.1-.04.22-.05.34-.05.26,0,.45.1.58.31.13.21.19.5.19.87,0,.3-.03.54-.08.74-.05.2-.15.35-.3.46-.15.11-.35.17-.63.17-.25,0-.45-.05-.59-.14"/>
    <path class="cls-1" d="m5.53,3.16c-.14,0-.23-.04-.29-.13-.06-.08-.09-.21-.09-.37v-.47c0-.08,0-.15.02-.21.01-.06.04-.11.07-.16s.07-.08.13-.1c.05-.02.12-.03.2-.03.14,0,.24.03.31.1.06.07.09.17.09.32v.07h-.25v-.07s0-.06,0-.08c0-.02,0-.04-.01-.06,0-.02-.01-.04-.02-.05,0-.01-.02-.02-.04-.03-.02,0-.04-.01-.07-.01-.02,0-.04,0-.05,0-.01,0-.03.01-.04.02-.01,0-.02.02-.03.03,0,.01-.01.03-.02.04,0,.01,0,.03,0,.05,0,.02,0,.04,0,.05v.64c0,.09,0,.15.03.19.02.04.06.06.12.06.03,0,.06,0,.08-.02.02-.01.04-.03.05-.05.01-.02.02-.05.03-.08,0-.03,0-.07,0-.11v-.12h-.15v-.17h.39v.73h-.17l-.02-.14c-.04.11-.12.16-.24.16"/>
  </g>
  <polygon class="cls-1" points="6.15 1.71 6.15 3.14 6.75 3.14 6.75 2.96 6.41 2.96 6.41 2.49 6.68 2.49 6.68 2.3 6.41 2.3 6.41 1.89 6.75 1.89 6.75 1.71 6.15 1.71"/>
  <polygon class="cls-1" points="7.42 1.71 7.42 2.52 7.07 1.71 6.89 1.71 6.89 3.14 7.11 3.14 7.11 2.29 7.47 3.14 7.64 3.14 7.64 1.71 7.42 1.71"/>
  <path class="cls-1" d="m7.85,3.14v-1.43h.33c.09,0,.16,0,.22.03.06.02.11.04.14.08.04.04.06.08.08.14.01.05.02.12.02.2v.52c0,.08,0,.15-.02.21-.01.06-.04.11-.07.14-.04.04-.08.07-.14.09-.06.02-.13.03-.21.03h-.34Zm.26-.18h.07s.05,0,.07,0c.02,0,.04-.01.05-.02.01,0,.02-.02.03-.03,0-.01.02-.03.02-.04,0-.01,0-.03.01-.05,0-.03,0-.04,0-.06,0-.02,0-.04,0-.08v-.52s0-.06,0-.08c0-.02,0-.04,0-.06,0-.02-.01-.04-.02-.05,0-.01-.02-.02-.03-.03-.01,0-.03-.02-.05-.02-.02,0-.05,0-.07,0h-.07v1.06Z"/>
  <polygon class="cls-1" points="8.81 1.71 8.81 3.14 9.42 3.14 9.42 2.96 9.08 2.96 9.08 2.49 9.34 2.49 9.34 2.3 9.08 2.3 9.08 1.89 9.41 1.89 9.41 1.71 8.81 1.71"/>
  <path class="cls-1" d="m9.56,3.14v-1.43h.33c.08,0,.14,0,.2.02.05.01.1.03.14.06.04.03.07.07.09.12.02.05.03.11.03.18,0,.09-.01.16-.04.22-.03.06-.07.1-.13.12l.2.71h-.26l-.17-.65h-.12v.65h-.26Zm.26-.82h.06c.08,0,.13-.02.16-.05.03-.03.05-.09.05-.17s-.01-.13-.04-.16c-.03-.03-.08-.05-.15-.05h-.08v.43Z"/>
  <polygon class="cls-1" points="5.17 4.05 5.17 5.48 5.77 5.48 5.77 5.3 5.43 5.3 5.43 4.83 5.7 4.83 5.7 4.64 5.43 4.64 5.43 4.23 5.77 4.23 5.77 4.05 5.17 4.05"/>
  <g>
    <path class="cls-1" d="m6.61,5.77s-.09-.06-.14-.11c-.05-.05-.1-.11-.13-.16,0,0-.02,0-.03,0-.15,0-.25-.04-.32-.12-.06-.08-.1-.2-.1-.35v-.53c0-.08,0-.14.02-.2.01-.06.04-.1.07-.14.03-.04.07-.07.13-.09.05-.02.12-.03.19-.03.15,0,.25.04.32.12.06.08.1.19.1.35v.53c0,.22-.07.37-.2.43.06.07.1.11.14.14l-.05.18Zm-.37-.47s.04.01.06.01.05,0,.07-.01c.02,0,.03-.02.04-.03.01-.01.02-.03.03-.05,0-.02,0-.04.01-.06,0-.02,0-.04,0-.07v-.65s0-.06,0-.09c0-.02-.01-.05-.02-.07-.01-.02-.03-.04-.04-.04-.02-.01-.05-.02-.08-.02s-.06,0-.08.02c-.02,0-.04.02-.05.04,0,.02-.02.04-.02.07,0,.02,0,.05,0,.09v.65s0,.05,0,.07c0,.02,0,.04.01.06,0,.02.01.04.02.05.01.01.03.02.04.03"/>
    <path class="cls-1" d="m7.29,5.5c-.06,0-.12,0-.17-.02-.05-.01-.09-.04-.12-.06-.03-.03-.05-.06-.07-.1-.02-.04-.03-.09-.04-.14,0-.05-.01-.11-.01-.17v-.95h.25v.98s0,.06,0,.09c0,.02,0,.05.01.07,0,.03.01.05.02.06.01.02.03.03.04.04.02.01.04.02.07.02s.05,0,.07-.02c.02,0,.03-.02.04-.04,0-.01.02-.04.02-.06s0-.05.01-.07c0-.02,0-.05,0-.09v-.98h.25v.95c0,.06,0,.12-.01.17s-.02.1-.04.14c-.02.04-.04.08-.07.1-.03.03-.07.05-.12.06s-.1.02-.16.02"/>
  </g>
  <path class="cls-1" d="m8.24,4.39l.1.59h-.19l.1-.59Zm-.14-.34l-.29,1.43h.25l.06-.33h.25l.06.33h.24l-.29-1.43h-.27Z"/>
  <polygon class="cls-1" points="8.8 4.05 8.8 5.48 9.4 5.48 9.4 5.3 9.06 5.3 9.06 4.05 8.8 4.05"/>
  <rect class="cls-1" x="9.54" y="4.05" width=".26" height="1.43"/>
  <polygon class="cls-1" points="9.91 4.05 9.91 4.24 10.15 4.24 10.15 5.48 10.41 5.48 10.41 4.24 10.64 4.24 10.64 4.05 9.91 4.05"/>
  <polygon class="cls-1" points="11.25 4.05 11.08 4.62 10.9 4.05 10.66 4.05 10.95 4.94 10.95 5.48 11.2 5.48 11.2 4.94 11.49 4.05 11.25 4.05"/>
  <g>
    <path class="cls-1" d="m14.34,7.43h-2.45s-.03.01-.03.03v.82s.01.03.03.03h.98l-1.09,1.09c-.55-.43-1.23-.69-1.98-.69-1.77,0-3.21,1.44-3.21,3.21,0,1.63,1.22,2.98,2.8,3.19v.94h-.97s-.03.01-.03.03v.87s.01.03.03.03h.97v.92s.01.03.03.03h.87s.03-.01.03-.03v-.92h.97s.03-.01.03-.03v-.87s-.01-.03-.03-.03h-.97v-.96c1.52-.25,2.69-1.58,2.69-3.17,0-.69-.22-1.32-.59-1.85l1.07-1.07v.91s.01.03.03.03h.82s.03-.01.03-.03v-2.45s-.01-.03-.03-.03m-4.54,6.86c-1.31,0-2.37-1.06-2.37-2.37s1.06-2.36,2.37-2.36,2.37,1.06,2.37,2.36-1.06,2.37-2.37,2.37"/>
    <path class="cls-1" d="m11.24,10.95h-2.87s-.03.01-.03.03v.69s.01.03.03.03h2.87s.03-.01.03-.03v-.69s-.01-.03-.03-.03"/>
    <path class="cls-1" d="m11.24,12.19h-2.87s-.03.01-.03.03v.7s.01.03.03.03h2.87s.03-.01.03-.03v-.7s-.01-.03-.03-.03"/>
  </g>
</svg>