<?xml version="1.0" encoding="UTF-8"?>
<svg id="Layer_1" data-name="Layer 1" xmlns="http://www.w3.org/2000/svg" viewBox="0 0 19.56 19.56">
  <defs>
    <style>
      .cls-1 {
        fill: #e01d83;
      }

      .cls-2 {
        fill: #fff;
      }
    </style>
  </defs>
  <rect class="cls-1" width="19.56" height="19.56"/>
  <g>
    <path class="cls-2" d="m1.71,2.45s-.13.06-.3.12c-.13.04-.21.07-.24.09v-.53c.1-.04.23-.1.38-.18.15-.08.26-.16.32-.23h.56v3.75h-.72v-3.01Z"/>
    <path class="cls-2" d="m3.06,5.23c-.17-.2-.26-.46-.26-.79v-1.68c0-.34.08-.61.25-.81.17-.2.42-.29.75-.29s.58.1.75.29c.17.2.25.46.25.81v1.68c0,.33-.09.59-.26.79-.17.2-.42.3-.74.3s-.58-.1-.75-.29m1.02-.8v-1.65c0-.14-.02-.25-.05-.35-.04-.09-.11-.14-.22-.14-.12,0-.19.04-.23.14-.03.09-.05.21-.05.35v1.65c0,.31.09.47.28.47s.27-.16.27-.47"/>
    <path class="cls-2" d="m6.28,3.14v-1.43h.33c.08,0,.14,0,.2.02.05.01.1.03.14.06.04.03.07.07.09.12.02.05.03.11.03.18,0,.09-.01.16-.04.22-.03.06-.07.1-.13.12l.2.71h-.26l-.17-.65h-.12v.65h-.26Zm.26-.82h.06c.08,0,.13-.02.16-.05.03-.03.05-.09.05-.17s-.01-.13-.04-.16c-.03-.03-.08-.05-.15-.05h-.08v.43Z"/>
  </g>
  <polygon class="cls-2" points="7.22 1.71 7.22 3.14 7.82 3.14 7.82 2.96 7.48 2.96 7.48 2.49 7.74 2.49 7.74 2.3 7.48 2.3 7.48 1.89 7.82 1.89 7.82 1.71 7.22 1.71"/>
  <g>
    <path class="cls-2" d="m7.92,3.14v-1.43h.33c.09,0,.16,0,.22.03.06.02.11.04.14.08.04.04.06.08.08.14.01.05.02.12.02.2v.52c0,.08,0,.15-.02.21-.01.06-.04.11-.07.14-.04.04-.08.07-.14.09-.06.02-.13.03-.21.03h-.34Zm.26-.18h.07s.05,0,.07,0c.02,0,.04-.01.05-.02.01,0,.02-.02.03-.03,0-.01.02-.03.02-.04,0-.01,0-.03.01-.05,0-.03,0-.04,0-.06,0-.02,0-.04,0-.08v-.52s0-.06,0-.08c0-.02,0-.04,0-.06,0-.02-.01-.04-.02-.05,0-.01-.02-.02-.03-.03-.01-.01-.03-.02-.05-.02-.02,0-.05,0-.07,0h-.07v1.06Z"/>
    <path class="cls-2" d="m9.25,3.16c-.06,0-.12,0-.17-.02-.05-.01-.09-.04-.12-.06-.03-.03-.05-.06-.07-.1-.02-.04-.03-.09-.04-.14,0-.05-.01-.11-.01-.17v-.95h.25v.98s0,.06,0,.09c0,.02,0,.05.01.07,0,.03.01.05.02.06.01.02.03.03.04.04.02.01.04.02.07.02s.05,0,.07-.02c.02,0,.03-.02.04-.04,0-.01.02-.04.02-.06s0-.05.01-.07c0-.02,0-.05,0-.09v-.98h.25v.95c0,.06,0,.12-.01.17s-.02.1-.04.14c-.02.04-.04.08-.07.1-.03.03-.07.05-.12.06s-.1.02-.16.02"/>
    <path class="cls-2" d="m10.19,3.16c-.06,0-.12,0-.16-.02-.05-.02-.09-.04-.12-.07-.03-.03-.06-.06-.07-.1-.02-.04-.03-.08-.04-.13,0-.05-.01-.1-.01-.16v-.5c0-.06,0-.12.01-.17,0-.05.02-.09.04-.13.02-.04.04-.07.07-.1.03-.03.07-.05.12-.06.05-.01.1-.02.16-.02.07,0,.13,0,.18.03.05.02.09.05.12.08.03.04.05.08.06.13.01.05.02.11.02.17v.12h-.25v-.12c0-.07,0-.12-.01-.14-.01-.05-.05-.07-.11-.08h-.01s-.04,0-.06,0c-.02,0-.03.01-.04.02-.01.01-.02.02-.03.04,0,.01-.01.03-.01.05,0,.02,0,.04,0,.06,0,.02,0,.04,0,.07v.61c0,.08,0,.14.03.18.02.04.06.05.11.05.02,0,.03,0,.05,0,.01,0,.03,0,.04-.02,0,0,.02-.02.02-.03,0-.01.01-.02.01-.03,0-.01,0-.03,0-.04s0-.04,0-.05,0-.03,0-.05v-.13h.25v.12c0,.05,0,.1-.01.14,0,.04-.02.08-.04.12-.02.04-.04.07-.07.09-.03.02-.07.04-.11.06-.04.01-.1.02-.16.02"/>
  </g>
  <polygon class="cls-2" points="10.71 1.71 10.71 3.14 11.32 3.14 11.32 2.96 10.97 2.96 10.97 2.49 11.24 2.49 11.24 2.3 10.97 2.3 10.97 1.89 11.31 1.89 11.31 1.71 10.71 1.71"/>
  <path class="cls-2" d="m11.42,3.14v-1.43h.33c.09,0,.16,0,.22.03.06.02.11.04.14.08.04.04.06.08.08.14.01.05.02.12.02.2v.52c0,.08,0,.15-.02.21-.01.06-.04.11-.07.14-.04.04-.08.07-.14.09-.06.02-.13.03-.21.03h-.34Zm.26-.18h.07s.05,0,.07,0c.02,0,.04-.01.05-.02.01,0,.02-.02.03-.03,0-.01.02-.03.02-.04,0-.01,0-.03.01-.05,0-.03,0-.04,0-.06,0-.02,0-.04,0-.08v-.52s0-.06,0-.08c0-.02,0-.04,0-.06,0-.02-.01-.04-.02-.05,0-.01-.02-.02-.03-.03-.01-.01-.03-.02-.05-.02-.02,0-.05,0-.07,0h-.07v1.06Z"/>
  <rect class="cls-2" x="6.29" y="4.05" width=".26" height="1.43"/>
  <polygon class="cls-2" points="7.25 4.05 7.25 4.86 6.9 4.05 6.72 4.05 6.72 5.48 6.94 5.48 6.94 4.63 7.3 5.48 7.47 5.48 7.47 4.05 7.25 4.05"/>
  <polygon class="cls-2" points="7.63 4.05 7.63 5.48 8.24 5.48 8.24 5.3 7.9 5.3 7.9 4.83 8.16 4.83 8.16 4.64 7.9 4.64 7.9 4.23 8.23 4.23 8.23 4.05 7.63 4.05"/>
  <g>
    <path class="cls-2" d="m9.04,5.77s-.09-.06-.14-.11c-.05-.05-.1-.11-.13-.16,0,0-.02,0-.03,0-.15,0-.25-.04-.32-.12-.06-.08-.1-.2-.1-.35v-.53c0-.08,0-.14.02-.2.01-.06.04-.1.07-.14.03-.04.07-.07.13-.09.05-.02.12-.03.19-.03.15,0,.25.04.32.12.06.08.1.19.1.35v.53c0,.22-.07.37-.2.43.06.07.1.11.14.14l-.05.18Zm-.37-.47s.04.01.06.01.05,0,.07-.01c.02,0,.03-.02.04-.03.01-.01.02-.03.03-.05,0-.02,0-.04.01-.06,0-.02,0-.04,0-.07v-.65s0-.06,0-.09c0-.02-.01-.05-.02-.07-.01-.02-.03-.04-.04-.04-.02,0-.05-.02-.08-.02s-.06,0-.08.02c-.02,0-.04.02-.05.04,0,.02-.02.04-.02.07,0,.02,0,.05,0,.09v.65s0,.05,0,.07c0,.02,0,.04.01.06,0,.02.01.04.02.05.01.01.03.02.04.03"/>
    <path class="cls-2" d="m9.68,5.5c-.06,0-.12,0-.17-.02-.05-.01-.09-.04-.12-.06-.03-.03-.05-.06-.07-.1-.02-.04-.03-.09-.04-.14,0-.05-.01-.11-.01-.17v-.95h.25v.98s0,.06,0,.09c0,.02,0,.05.01.07,0,.03.01.05.02.06.01.02.03.03.04.04.02.01.04.02.07.02s.05,0,.07-.02c.02,0,.03-.02.04-.04,0-.01.02-.04.02-.06s0-.05.01-.07c0-.02,0-.05,0-.09v-.98h.25v.95c0,.06,0,.12-.01.17s-.02.1-.04.14c-.02.04-.04.08-.07.1-.03.03-.07.05-.12.06s-.1.02-.16.02"/>
  </g>
  <path class="cls-2" d="m10.59,4.39l.1.59h-.19l.1-.59Zm-.14-.34l-.29,1.43h.25l.06-.33h.25l.06.33h.24l-.29-1.43h-.27Z"/>
  <polygon class="cls-2" points="11.11 4.05 11.11 5.48 11.72 5.48 11.72 5.3 11.38 5.3 11.38 4.05 11.11 4.05"/>
  <rect class="cls-2" x="11.82" y="4.05" width=".26" height="1.43"/>
  <polygon class="cls-2" points="12.15 4.05 12.15 4.24 12.39 4.24 12.39 5.48 12.65 5.48 12.65 4.24 12.88 4.24 12.88 4.05 12.15 4.05"/>
  <rect class="cls-2" x="12.96" y="4.05" width=".26" height="1.43"/>
  <polygon class="cls-2" points="13.39 4.05 13.39 5.48 13.99 5.48 13.99 5.3 13.65 5.3 13.65 4.83 13.92 4.83 13.92 4.64 13.65 4.64 13.65 4.23 13.99 4.23 13.99 4.05 13.39 4.05"/>
  <g>
    <path class="cls-2" d="m14.46,5.5c-.25,0-.39-.15-.4-.44l.23-.05c0,.19.06.28.16.28.04,0,.07-.01.09-.04.02-.02.03-.06.03-.1s0-.08-.02-.11c-.01-.03-.03-.06-.05-.08s-.05-.05-.08-.08l-.19-.16c-.06-.05-.1-.1-.12-.15-.03-.05-.04-.12-.04-.2,0-.11.03-.2.1-.26.07-.06.15-.09.27-.09.05,0,.1,0,.14.02.04.01.07.03.1.05.03.02.05.05.07.09.02.03.03.07.04.11,0,.04.01.08.02.12l-.22.04s0-.05,0-.07c0-.02,0-.04-.01-.07,0-.02-.01-.04-.03-.05,0-.01-.02-.02-.04-.03-.02,0-.04-.01-.06,0-.04,0-.07.02-.09.04-.02.02-.03.05-.03.09,0,.05,0,.08.03.11.02.03.05.06.08.1l.19.16s.06.06.08.08c.02.03.04.06.07.09.02.03.04.07.05.11s.02.08.02.13c0,.1-.03.19-.1.25-.07.07-.15.1-.26.1"/>
    <path class="cls-2" d="m11.65,12.9h-3.62s-.04.02-.04.04v1.09s.02.04.04.04h3.62s.04-.02.04-.04v-1.09s-.02-.04-.04-.04"/>
    <path class="cls-2" d="m11.65,10.58h-3.62s-.04.02-.04.04v1.09s.02.04.04.04h3.62s.04-.02.04-.04v-1.09s-.02-.04-.04-.04"/>
    <path class="cls-2" d="m11.6,8.94l-1.74-1.74s-.03-.01-.04,0l-1.74,1.74s0,.05.02.05h3.47s.04-.03.02-.05"/>
    <path class="cls-2" d="m13.23,14.09l1.74-1.74s.01-.03,0-.04l-1.74-1.74s-.05,0-.05.02v3.47s.03.04.05.02"/>
    <path class="cls-2" d="m8.08,15.72l1.74,1.74s.03.01.04,0l1.74-1.74s0-.05-.02-.05h-3.47s-.04.03-.02.05"/>
    <path class="cls-2" d="m6.45,10.57l-1.74,1.74s-.01.03,0,.04l1.74,1.74s.05,0,.05-.02v-3.47s-.03-.04-.05-.02"/>
  </g>
</svg>