<?xml version="1.0" encoding="UTF-8"?>
<svg id="Layer_1" data-name="Layer 1" xmlns="http://www.w3.org/2000/svg" viewBox="0 0 19.56 19.56">
  <defs>
    <style>
      .cls-1 {
        fill: #fff;
      }

      .cls-2 {
        fill: #2e9a47;
      }
    </style>
  </defs>
  <rect class="cls-2" width="19.56" height="19.56"/>
  <g>
    <path class="cls-1" d="m1.79,5.23c-.16-.2-.24-.48-.24-.84v-.13h.71v.12c0,.19.03.33.07.41.04.08.12.12.24.12s.19-.04.23-.13c.04-.08.06-.22.06-.41s-.03-.35-.09-.45c-.06-.1-.17-.15-.32-.15,0,0-.05,0-.13,0v-.52h.12c.16,0,.27-.04.33-.13.06-.09.09-.23.09-.43,0-.16-.02-.28-.07-.36-.05-.08-.12-.12-.24-.12-.11,0-.18.04-.22.12-.04.08-.06.21-.06.37v.17h-.71v-.2c0-.33.09-.58.26-.76.17-.18.42-.27.74-.27s.57.09.75.26c.18.17.26.42.26.75,0,.22-.04.4-.13.54-.09.15-.2.24-.34.28.32.12.48.41.48.88,0,.36-.08.64-.24.85-.16.21-.42.31-.76.31s-.62-.1-.77-.3"/>
    <path class="cls-1" d="m5.53,3.16c-.14,0-.23-.04-.29-.13-.06-.08-.09-.21-.09-.37v-.47c0-.08,0-.15.02-.21.01-.06.03-.11.07-.16.03-.04.07-.08.13-.1.05-.02.12-.03.2-.03.14,0,.24.03.31.1.06.07.09.17.09.32v.07h-.25v-.07s0-.06,0-.08c0-.02,0-.04-.01-.06,0-.02-.01-.04-.02-.05,0-.01-.02-.02-.04-.03-.02,0-.04-.01-.07-.01-.02,0-.04,0-.05,0-.01,0-.03.01-.04.02-.01,0-.02.02-.03.03,0,.01-.01.03-.02.04,0,.01,0,.03,0,.05,0,.02,0,.04,0,.05v.64c0,.09.01.15.03.19.02.04.06.06.12.06.03,0,.06,0,.08-.02.02-.01.04-.03.05-.05.01-.02.02-.05.03-.08,0-.03,0-.07,0-.11v-.12h-.15v-.17h.39v.73h-.17l-.02-.14c-.04.11-.12.16-.24.16"/>
    <path class="cls-1" d="m6.54,3.16c-.15,0-.25-.04-.32-.12-.06-.08-.1-.2-.1-.35v-.53c0-.08,0-.14.02-.2.01-.06.04-.1.07-.14.03-.04.07-.07.13-.09.05-.02.12-.03.19-.03.15,0,.25.04.32.12s.1.19.1.35v.53c0,.08,0,.14-.02.2-.01.06-.04.11-.07.15-.03.04-.07.07-.13.1-.05.02-.12.03-.19.03m-.06-.21s.04.01.06.01.05,0,.07-.01c.02,0,.03-.02.04-.03.01-.01.02-.03.03-.05,0-.02,0-.04.01-.06,0-.02,0-.04,0-.07v-.65s0-.06,0-.09c0-.02-.01-.05-.02-.07-.01-.02-.03-.04-.05-.04-.02-.01-.05-.02-.08-.02s-.06,0-.08.02c-.02,0-.04.02-.05.04,0,.02-.02.04-.02.07,0,.02,0,.05,0,.09v.65s0,.05,0,.07c0,.02,0,.04.01.06,0,.02.01.04.02.05.01.01.03.02.04.03"/>
    <path class="cls-1" d="m7.52,3.16c-.15,0-.25-.04-.32-.12-.06-.08-.1-.2-.1-.35v-.53c0-.08,0-.14.02-.2.01-.06.04-.1.07-.14.03-.04.07-.07.13-.09.05-.02.12-.03.19-.03.15,0,.25.04.32.12s.1.19.1.35v.53c0,.08,0,.14-.02.2-.01.06-.04.11-.07.15-.03.04-.07.07-.13.1-.05.02-.12.03-.19.03m-.06-.21s.04.01.06.01.05,0,.07-.01c.02,0,.03-.02.04-.03.01-.01.02-.03.03-.05,0-.02,0-.04.01-.06,0-.02,0-.04,0-.07v-.65s0-.06,0-.09c0-.02-.01-.05-.02-.07-.01-.02-.03-.04-.05-.04-.02-.01-.05-.02-.08-.02s-.06,0-.08.02c-.02,0-.04.02-.05.04,0,.02-.02.04-.02.07,0,.02,0,.05,0,.09v.65s0,.05,0,.07c0,.02,0,.04.01.06,0,.02.01.04.02.05.01.01.03.02.04.03"/>
    <path class="cls-1" d="m8.12,3.14v-1.43h.33c.09,0,.16,0,.22.03.06.02.11.04.14.08.04.04.06.08.08.14.01.05.02.12.02.2v.52c0,.08,0,.15-.02.21-.01.06-.04.11-.07.14-.03.04-.08.07-.14.09-.06.02-.13.03-.21.03h-.34Zm.26-.18h.07s.05,0,.07,0c.02,0,.03-.01.05-.02.01,0,.02-.02.03-.03,0-.01.02-.03.02-.04,0-.01,0-.03.01-.05,0-.03,0-.04,0-.06,0-.02,0-.04,0-.08v-.52s0-.06,0-.08c0-.02,0-.04,0-.06,0-.02-.01-.04-.02-.05,0-.01-.02-.02-.03-.03-.01,0-.03-.02-.05-.02-.02,0-.05,0-.07,0h-.07v1.06Z"/>
  </g>
  <polygon class="cls-1" points="10.07 1.71 10.07 2.31 9.77 2.31 9.77 1.71 9.51 1.71 9.51 3.14 9.77 3.14 9.77 2.49 10.07 2.49 10.07 3.14 10.33 3.14 10.33 1.71 10.07 1.71"/>
  <polygon class="cls-1" points="10.53 1.71 10.53 3.14 11.14 3.14 11.14 2.96 10.79 2.96 10.79 2.49 11.06 2.49 11.06 2.3 10.79 2.3 10.79 1.89 11.13 1.89 11.13 1.71 10.53 1.71"/>
  <path class="cls-1" d="m11.63,2.05l.1.59h-.19l.1-.59Zm-.14-.34l-.29,1.43h.25l.06-.33h.25l.06.33h.24l-.29-1.43h-.27Z"/>
  <polygon class="cls-1" points="12.19 1.71 12.19 3.14 12.79 3.14 12.79 2.96 12.45 2.96 12.45 1.71 12.19 1.71"/>
  <polygon class="cls-1" points="12.79 1.71 12.79 1.9 13.03 1.9 13.03 3.14 13.29 3.14 13.29 1.9 13.52 1.9 13.52 1.71 12.79 1.71"/>
  <polygon class="cls-1" points="14.18 1.71 14.18 2.31 13.89 2.31 13.89 1.71 13.63 1.71 13.63 3.14 13.89 3.14 13.89 2.49 14.18 2.49 14.18 3.14 14.44 3.14 14.44 1.71 14.18 1.71"/>
  <path class="cls-1" d="m5.53,4.39l.1.59h-.19l.1-.59Zm-.14-.34l-.29,1.43h.25l.06-.33h.25l.06.33h.24l-.29-1.43h-.27Z"/>
  <polygon class="cls-1" points="6.61 4.05 6.61 4.86 6.26 4.05 6.08 4.05 6.08 5.48 6.3 5.48 6.3 4.63 6.66 5.48 6.83 5.48 6.83 4.05 6.61 4.05"/>
  <path class="cls-1" d="m7.03,5.48v-1.43h.33c.09,0,.16,0,.22.03.06.02.11.04.14.08.04.04.06.08.08.14.01.05.02.12.02.2v.52c0,.08,0,.15-.02.21-.01.06-.04.11-.07.14-.03.04-.08.07-.14.09-.06.02-.13.03-.21.03h-.34Zm.26-.18h.07s.05,0,.07,0c.02,0,.03-.01.05-.02.01,0,.02-.02.03-.03,0-.01.02-.03.02-.04,0-.01,0-.03.01-.05,0-.03,0-.04,0-.06,0-.02,0-.04,0-.08v-.52s0-.06,0-.08c0-.02,0-.04,0-.06,0-.02-.01-.04-.02-.05,0-.01-.02-.02-.03-.03-.01,0-.03-.02-.05-.02-.02,0-.05,0-.07,0h-.07v1.06Z"/>
  <polygon class="cls-1" points="8.58 5.48 8.38 4.05 8.6 4.05 8.71 4.97 8.87 4.05 9.04 4.05 9.2 4.97 9.32 4.05 9.53 4.05 9.33 5.48 9.12 5.48 8.96 4.52 8.8 5.48 8.58 5.48"/>
  <polygon class="cls-1" points="9.69 4.05 9.69 5.48 10.29 5.48 10.29 5.3 9.95 5.3 9.95 4.83 10.22 4.83 10.22 4.64 9.95 4.64 9.95 4.23 10.29 4.23 10.29 4.05 9.69 4.05"/>
  <polygon class="cls-1" points="10.43 4.05 10.43 5.48 11.04 5.48 11.04 5.3 10.69 5.3 10.69 4.05 10.43 4.05"/>
  <polygon class="cls-1" points="11.17 4.05 11.17 5.48 11.77 5.48 11.77 5.3 11.43 5.3 11.43 4.05 11.17 4.05"/>
  <rect class="cls-1" x="11.89" y="4.83" width=".43" height=".17"/>
  <path class="cls-1" d="m12.51,5.48v-1.43h.35c.07,0,.12,0,.17.02.05.01.09.03.13.06.04.03.07.07.09.11.02.05.03.11.03.18,0,.18-.07.28-.21.3.08.02.15.05.19.11.04.06.06.14.06.25,0,.13-.03.24-.1.31-.07.07-.17.11-.3.11h-.41Zm.26-.85h.08c.08,0,.13-.02.16-.05.03-.03.04-.09.04-.17,0-.04,0-.07-.01-.1,0-.03-.03-.04-.05-.06-.02-.01-.05-.02-.07-.02-.03,0-.06,0-.11,0h-.04v.4Zm0,.66h.1c.08,0,.13-.02.16-.05.03-.04.04-.1.04-.18s-.02-.15-.05-.19-.09-.06-.17-.06h-.08v.48Z"/>
  <polygon class="cls-1" points="13.49 4.05 13.49 5.48 14.09 5.48 14.09 5.3 13.75 5.3 13.75 4.83 14.02 4.83 14.02 4.64 13.75 4.64 13.75 4.23 14.09 4.23 14.09 4.05 13.49 4.05"/>
  <rect class="cls-1" x="14.24" y="4.05" width=".26" height="1.43"/>
  <polygon class="cls-1" points="15.24 4.05 15.24 4.86 14.89 4.05 14.71 4.05 14.71 5.48 14.93 5.48 14.93 4.63 15.28 5.48 15.46 5.48 15.46 4.05 15.24 4.05"/>
  <g>
    <path class="cls-1" d="m16.02,5.5c-.14,0-.23-.04-.29-.13-.06-.08-.09-.21-.09-.37v-.47c0-.08,0-.15.02-.21.01-.06.03-.11.07-.16.03-.04.07-.08.13-.1.05-.02.12-.03.2-.03.14,0,.24.03.31.1.06.07.09.17.09.32v.07h-.25v-.07s0-.06,0-.08c0-.02,0-.04,0-.06,0-.02-.01-.04-.02-.05,0-.01-.02-.02-.04-.03-.02,0-.04-.01-.07-.01-.02,0-.04,0-.05,0-.01,0-.03.01-.04.02-.01,0-.02.02-.03.03,0,.01-.01.03-.02.04,0,.01,0,.03,0,.05,0,.02,0,.04,0,.05v.64c0,.09,0,.15.03.19.02.04.06.06.12.06.03,0,.06,0,.08-.02.02-.01.04-.03.05-.05.01-.02.02-.05.03-.08,0-.03,0-.07,0-.11v-.12h-.15v-.17h.39v.73h-.17l-.02-.14c-.04.11-.12.16-.24.16"/>
    <path class="cls-1" d="m16.46,12.29c0-.56-.36-1.01-.9-1.01-.27,0-.6.3-.77.48-.18-.18-.48-.48-.75-.48-.54,0-.92.45-.92,1.01,0,.28.11.53.29.71l1.38,1.39,1.38-1.38h0c.18-.18.29-.43.29-.71"/>
    <path class="cls-1" d="m10.57,16.66h-.01c-.1,0-.19-.08-.21-.19l-.7-4.09-1.07,1.97c-.05.09-.14.13-.24.12s-.17-.09-.19-.19l-.45-3.16-.83,1.86c-.04.08-.12.13-.21.13h-3.21c-.13,0-.23-.1-.23-.23s.1-.23.23-.23h3.07l1.09-2.44c.04-.09.14-.15.24-.13.1.01.18.09.19.19l.47,3.26,1.05-1.95c.05-.09.14-.13.24-.12.1.02.17.09.19.19l.65,3.79,2.37-7.88c.03-.09.11-.15.2-.16.09,0,.18.04.22.13l1.25,2.59c.05.11,0,.25-.11.3-.11.05-.25,0-.3-.11l-1-2.06-2.48,8.25c-.03.1-.12.16-.22.16"/>
  </g>
</svg>