<?xml version="1.0" encoding="UTF-8"?>
<svg id="Layer_1" data-name="Layer 1" xmlns="http://www.w3.org/2000/svg" viewBox="0 0 49.05 31.04">
  <defs>
    <style>
      .cls-1 {
        fill: #404043;
      }

      .cls-2 {
        fill: #dd9727;
      }
    </style>
  </defs>
  <path class="cls-1" d="m26,17.14h2.32c.12,0,.19-.06.19-.19v-1.83c0-.12-.06-.19-.19-.19h-2.32c-.12,0-.19.06-.19.19v1.83c0,.12.06.19.19.19"/>
  <path class="cls-1" d="m29.41,24.23c-.06.21-.17.36-.33.47-.16.11-.39.17-.67.2-.29.03-.66.04-1.12.04h-3.69v-2.83c.49-.21,1.03-.4,1.64-.58.61-.17,1.23-.26,1.86-.26.47,0,.86.04,1.17.13.31.09.55.22.73.4s.31.4.38.66.11.56.11.9c0,.37-.03.67-.08.87m5.22.96c-.12-.17-.31-.26-.56-.26h-.41c-.44,0-.78-.09-1.02-.27-.24-.18-.38-.43-.4-.74,0-.06,0-.13.01-.2,0-.07,0-.14,0-.22,0-1.55-.4-2.69-1.2-3.42-.8-.73-1.95-1.1-3.46-1.1-.74,0-1.44.09-2.12.26-.67.17-1.3.39-1.87.66v-.58c0-.12-.06-.19-.19-.19h-2.27c-.12,0-.19.06-.19.19v11.71c.56-.16.86-.39,1.24-.75.42-.39.68-.79.94-1.3.26-.52.4-1.14.44-1.86.21.02.43.04.66.06.22.01.46.02.69.02h3.44c.89,0,1.6-.08,2.14-.23.54-.15.95-.47,1.24-.96.22.47.53.79.92.95.39.16.86.24,1.4.24.5,0,.75-.38.75-1.14,0-.4-.06-.69-.19-.86"/>
  <path class="cls-1" d="m35.51,31c-.12,0-.19-.06-.19-.19v-1.83c0-.12.06-.19.19-.19h2.32c.12,0,.19.06.19.19v1.83c0,.12-.06.19-.19.19h-2.32Zm2.25-4.76c-.21.39-.51.64-.88.76-.38.12-.9.18-1.57.18h-1.5c-.25,0-.44-.04-.56-.12-.12-.08-.19-.26-.19-.53,0-.16.01-.34.04-.52.03-.19.07-.36.13-.52.06-.16.14-.3.24-.4s.22-.16.38-.16h.62c.39,0,.63-.11.74-.33.11-.22.16-.61.16-1.17v-3.93c0-.1.09-.16.27-.17.18-.01.34-.02.48-.02h1.72c.12,0,.19.06.19.19v4.42c.03.31.16.56.4.74.24.18.58.27,1.02.27h.43c.25,0,.44.09.56.26.12.17.19.46.19.86,0,.76-.25,1.14-.75,1.14s-.89-.06-1.24-.17c-.35-.11-.64-.37-.88-.77"/>
  <path class="cls-1" d="m41.58,17.41c-.12,0-.19-.06-.19-.19v-1.84c0-.12.06-.19.19-.19h2.32c.12,0,.19.06.19.19v1.84c0,.12-.06.19-.19.19h-2.32Zm-1.72,9.77c-.25,0-.44-.04-.56-.13-.12-.09-.19-.26-.19-.52,0-.15.02-.32.05-.51.03-.19.07-.36.13-.52.06-.16.13-.3.23-.41.09-.11.21-.17.35-.17h.65c.31,0,.54-.07.68-.21.14-.14.21-.4.21-.78v-4.44c0-.12.06-.19.19-.19h2.28c.12,0,.19.06.19.19v5.34c0,.81-.17,1.41-.51,1.79-.34.38-.9.57-1.69.57h-2.02Z"/>
  <path class="cls-1" d="m46.62,14.31h2.25c.1,0,.18.08.18.18v12.36c0,.1-.08.19-.19.19h-2.25c-.1,0-.19-.08-.19-.19v-12.36c0-.1.08-.19.19-.19Z"/>
  <path class="cls-1" d="m7.51,15.26l-3.28-3.28c-1.04-1.04-1.61-2.41-1.61-3.88s.57-2.84,1.61-3.88c1.04-1.04,2.41-1.61,3.88-1.61s3.09.53,4.81,2.53c1.72-2.01,3.34-2.53,4.8-2.53s2.84.57,3.88,1.61c1.04,1.04,1.61,2.41,1.61,3.88,0,1.06-.3,2.07-.86,2.95l1.88,1.88c1.04-1.39,1.6-3.06,1.6-4.83,0-2.17-.84-4.2-2.37-5.73-1.53-1.53-3.57-2.37-5.73-2.37-1.75,0-3.42.55-4.8,1.58-1.38-1.02-3.05-1.58-4.81-1.58C5.94,0,3.9.84,2.37,2.37S0,5.94,0,8.11s.84,4.2,2.37,5.73l3.28,3.28,1.85-1.85Z"/>
  <polygon class="cls-1" points="21.16 29.01 17.93 29.46 14.26 25.79 16.1 23.95 21.16 29.01"/>
  <path class="cls-1" d="m23.38,28.34s-.59,2.7-2.43,2.7-3.72-2.27-3.72-2.27l2.44-1.24s.92.92,1.1,1.1c.19,0,.18-.3.18-.3h2.43Z"/>
  <path class="cls-2" d="m20.98,12.59l-.05.05-1.08,1.08-1.31,1.3-2.72,2.72-2.93,2.93-2.83-2.83-1.85,1.85,4.68,4.68,4.4-4.39,3.58-3.58h0c1.19-1.06,1.04-2.79.09-3.8"/>
</svg>