<?xml version="1.0" encoding="UTF-8"?>
<svg id="Layer_1" data-name="Layer 1" xmlns="http://www.w3.org/2000/svg" viewBox="0 0 50.01 27.01">
  <defs>
    <style>
      .cls-1 {
        fill: #fbb042;
      }

      .cls-2 {
        fill: #97bce0;
      }

      .cls-3 {
        fill: #066d6a;
      }

      .cls-4 {
        fill: #aac338;
      }

      .cls-5 {
        fill: #9a9c9d;
      }
    </style>
  </defs>
  <path class="cls-4" d="m44.85,5.83s-.03,0-.04,0c-.01,0-.31-.09-.64-.34-.3-.24-.67-.67-.75-1.39-.09-.76.16-1.34.38-1.85.17-.41.33-.76.28-1.13,0-.04.02-.08.05-.11.04-.02.08-.02.12,0,.01,0,.35.23.7.61.47.51.76,1.08.82,1.65.09.83-.15,1.47-.37,1.87-.24.43-.5.66-.51.67-.02.01-.04.02-.06.03"/>
  <path class="cls-1" d="m46.59,5.62c-.09.01-.18.02-.27.02-.07,0-.13-.04-.16-.1-.78-2.26.7-3.42,1.89-4.35.48-.38.94-.74,1.16-1.11.02-.04.07-.07.12-.08.05,0,.1.02.13.05.02.02.4.47.52,1.59.04.36,0,.82-.13,1.25-.15.54-.41,1.04-.75,1.44-.31.37-.68.66-1.11.88-.42.21-.89.34-1.41.4"/>
  <path class="cls-2" d="m43.45,6.01c-1.43.16-2.54-.05-3.31-.62-.69-.52-1.11-1.35-1.23-2.45-.14-1.28.29-1.84.3-1.86.03-.04.09-.07.15-.06s.1.05.12.1c.14.38.7.71,1.34,1.1.6.36,1.28.77,1.82,1.34.63.66.94,1.42.95,2.3,0,.08-.06.15-.14.15"/>
  <path class="cls-3" d="m10.98,18.05c.45,0,.85-.1,1.18-.29.33-.19.61-.44.82-.75.21-.31.37-.66.47-1.05.1-.39.15-.78.15-1.19s-.05-.79-.15-1.18c-.1-.39-.26-.74-.47-1.05-.21-.3-.49-.55-.82-.74-.33-.19-.73-.29-1.18-.29s-.85.1-1.18.29c-.33.19-.61.44-.82.74-.21.3-.37.65-.47,1.05-.1.39-.15.79-.15,1.18s.05.8.15,1.19c.1.39.26.74.47,1.05.21.31.49.56.82.75.33.19.73.29,1.18.29m0,1.61c-.74,0-1.4-.12-1.98-.37-.58-.24-1.07-.58-1.46-1.01-.4-.43-.7-.94-.91-1.54-.21-.6-.31-1.25-.31-1.97s.1-1.35.31-1.95c.21-.6.51-1.11.91-1.54.4-.43.89-.76,1.46-1.01.58-.24,1.24-.37,1.98-.37s1.4.12,1.98.37c.58.24,1.07.58,1.47,1.01.4.43.7.94.91,1.54.21.6.31,1.24.31,1.95s-.11,1.37-.31,1.97c-.21.6-.51,1.11-.91,1.54-.4.43-.89.77-1.47,1.01-.58.24-1.24.37-1.98.37"/>
  <path class="cls-3" d="m3.75,11.99c.41-.2.81-.26,1.4-.26.52,0,1.02-.22,1.09-.93.08-.7-.44-1.09-.44-1.09-.08.15-1,.27-1.29.36-.29.09-.63.27-1.07.58-.68.48-1.18,1.32-1.18,1.32,0,0,.14-1.6-.85-1.94-.9-.32-1.42.15-1.42.15,0,0,.15.24.15.67v7.14c0,1.35.47,1.65,1.12,1.68.84.04,1.12-.21,1.12-.21,0,0-.16-.32-.16-.99v-3.33c0-.45.05-.86.14-1.25.09-.39.3-.9.52-1.2.22-.3.5-.54.86-.72"/>
  <path class="cls-3" d="m29.93,11.08c0-1.01-.33-1.57-1.2-1.57s-1.05.37-1.05.37c.12.14.28.39.28,1.24v4.8c0,.77-.23,2.25-1.53,2.25-.92,0-1.72-.44-1.72-1.36v-5.74c0-1.17-.23-1.38-1.1-1.43-.87-.05-1.27.28-1.27.28.07.1.26.36.26,1.19v4.83c0,.98-.61,2.26-1.9,2.26-.82,0-1.36-.59-1.36-1.24v-6.01c0-.9-.61-1.29-1.18-1.34-.57-.05-1.26.28-1.26.28,0,0,.26.41.26,1.02v5.93c0,1.42,1.39,2.78,3.22,2.78,2.35,0,3.16-1.48,3.16-1.48,0,0,1.04,1.5,2.87,1.5,2.03,0,3.51-1.4,3.51-2.8v-5.76Z"/>
  <path class="cls-3" d="m47.67,15.61c-.02.12-.04.24-.07.35-.1.39-.26.74-.46,1.05-.21.31-.48.56-.8.75-.33.19-.72.29-1.17.29s-.82-.09-1.14-.27c-.32-.18-.59-.42-.79-.72-.21-.3-.36-.64-.47-1.02-.1-.38-.15-.77-.15-1.16,0-.42.04-.82.13-1.22.09-.4.24-.76.45-1.07.21-.32.48-.57.8-.77.33-.2.73-.3,1.21-.3.79,0,1.41.29,1.87.86.31.39.5.88.6,1.47v1.76Zm2.32,3.75s-.03-.06-.05-.09c-.08-.13-.21-.35-.21-.87V7.5c0-.6-.46-.97-1.21-.97s-1,.26-1.07.42l-.02.04.03.03c.1.09.21.27.21.56v3.79h-.02c-.15-.25-.35-.47-.58-.65-.23-.18-.49-.34-.76-.46-.28-.12-.56-.21-.86-.26-.3-.05-.59-.08-.88-.08-.5,0-.99.09-1.48.28-.48.19-.91.47-1.29.87-.38.39-.68.89-.9,1.5-.23.61-.34,1.33-.34,2.16,0,.69.09,1.34.27,1.94.18.6.45,1.12.8,1.56.36.44.81.79,1.35,1.05.54.26,1.18.39,1.9.39.58,0,1.14-.12,1.66-.35.48-.22.86-.57,1.13-1.04.05.58.26,1.31,1.04,1.43.13.02.26.03.38.03h0c.54,0,.81-.2.88-.31l.02-.03v-.03Z"/>
  <path class="cls-3" d="m37.05,14.61v1.21c0,.44-.01.77-.04.91-.15.86-1.01,1.55-1.92,1.55h-.02c-.21,0-.39-.02-.56-.05-.18-.04-.35-.1-.49-.19-.15-.09-.26-.22-.35-.38v-.02c-.05-.09-.18-.32-.18-.61,0-.34.09-.66.18-.84.3-.57.62-.83,1.35-1.12.62-.25,1.27-.36,1.62-.42.08-.01.16-.03.19-.04h.21Zm2.14,4.13c-.05-.39-.07-.78-.07-1.4v-4.92c0-.75-.11-1.05-.32-1.34-.22-.3-.5-.54-.83-.71-.34-.17-.73-.29-1.15-.35-.95-.13-1.82-.12-2.62.05-.39.08-.79.24-1.21.5-.36.22-.65.62-.86.95-.2.32-.33.72-.38,1.19v.05s.05.01.05.01c.09.02.25.05.44.05.34,0,.69-.08,1.04-.22.14-.06.31-.21.49-.37.16-.15.34-.31.54-.44.43-.28.93-.36,1.13-.36s.41.01.59.04c.19.03.37.09.51.18.15.09.27.23.36.39.09.17.14.38.14.67v.03c0,.12.02.32-.11.59-.16.33-.63.46-.72.48h-.03c-.26.08-.57.13-.91.16-.29.03-.51.06-.87.11l-.15.02c-.51.07-1.37.41-1.88.83-.42.34-.64.76-.67.8-.15.28-.3.86-.3,1.37,0,.36.1.78.27,1.16.14.31.33.56.58.76.25.2.54.35.87.45.33.1.7.15,1.09.15.63,0,1.09-.07,1.49-.23.71-.28,1.21-.92,1.42-1.24.02.35.11,1.03.4,1.34.21.21.48.31.82.31.6,0,.9-.15,1.03-.24l.04-.03-.02-.05c-.08-.16-.18-.41-.22-.75"/>
  <path class="cls-5" d="m5.56,23.39s.01-.04.04-.04h1.72s.04.01.04.04v.27s-.01.04-.04.04h-1.36s-.02,0-.02.02v.87s0,.03.02.03h1.16s.04.01.04.04v.26s-.01.04-.04.04h-1.16s-.02,0-.02.03v1.17s-.02.04-.04.04h-.29s-.04-.01-.04-.04v-2.78Z"/>
  <path class="cls-5" d="m7.94,26.21s-.04-.01-.04-.04v-1.93s.01-.04.04-.04h.27s.04.01.04.04v1.93s-.01.04-.04.04h-.27Zm0-2.47s-.04-.01-.04-.04v-.31s.01-.04.04-.04h.29s.04.01.04.04v.31s-.01.04-.04.04h-.29Z"/>
  <path class="cls-5" d="m10.25,26.21s-.04-.01-.04-.04v-1.18c0-.16-.04-.29-.11-.38-.07-.09-.19-.13-.34-.13-.14,0-.25.04-.34.13-.08.09-.13.21-.13.36v1.2s-.01.04-.04.04h-.27s-.04-.01-.04-.04v-1.93s.01-.04.04-.04h.27s.04.01.04.04v.18h0c.05-.08.12-.14.21-.19.1-.05.21-.08.35-.08.22,0,.39.07.51.21.12.14.18.32.18.55v1.26s-.01.04-.04.04h-.27Z"/>
  <path class="cls-5" d="m11.88,25.95c.16,0,.29-.03.38-.1.09-.07.14-.17.14-.29v-.22s0-.02-.02-.02h-.41c-.18,0-.31.03-.38.08-.08.05-.12.14-.12.25,0,.1.04.18.11.24.07.05.18.08.31.08m.56.26s-.04-.01-.04-.04v-.18h0c-.05.08-.12.14-.22.19-.1.05-.23.08-.38.08-.1,0-.18-.01-.27-.04-.08-.03-.15-.06-.21-.11-.06-.05-.11-.11-.14-.19-.04-.08-.05-.16-.05-.27,0-.21.07-.37.21-.47.14-.1.33-.15.58-.15h.46s.02,0,.02-.03v-.15c0-.14-.03-.24-.1-.3-.07-.06-.2-.09-.38-.09-.11,0-.21.01-.29.04-.08.03-.14.06-.2.1-.03.02-.05.02-.06,0l-.11-.19s0-.04,0-.06c.08-.06.17-.11.29-.14.12-.04.25-.05.4-.05.29,0,.49.05.61.16.12.11.18.28.18.53v1.33s-.01.04-.04.04h-.24Z"/>
  <path class="cls-5" d="m14.72,26.21s-.04-.01-.04-.04v-1.18c0-.16-.04-.29-.11-.38-.07-.09-.19-.13-.34-.13-.14,0-.25.04-.34.13-.08.09-.13.21-.13.36v1.2s-.01.04-.04.04h-.27s-.04-.01-.04-.04v-1.93s.01-.04.04-.04h.27s.04.01.04.04v.18h0c.05-.08.12-.14.21-.19.1-.05.21-.08.35-.08.22,0,.39.07.51.21.12.14.18.32.18.55v1.26s-.01.04-.04.04h-.27Z"/>
  <path class="cls-5" d="m15.57,25.2c0-.11,0-.21.02-.29.01-.08.03-.15.05-.22.06-.18.15-.31.29-.4.14-.09.31-.14.5-.14.15,0,.29.03.41.09.12.06.21.14.28.25.01.02.01.04-.01.06l-.18.15s-.04.02-.06,0c-.06-.07-.12-.13-.18-.16-.06-.04-.15-.06-.25-.06-.11,0-.2.03-.28.08-.08.05-.13.13-.17.24-.02.05-.03.11-.04.18,0,.06,0,.14,0,.23s0,.17,0,.23c0,.07.02.13.04.18.03.11.09.19.17.24.08.05.17.08.28.08.1,0,.18-.02.25-.06.07-.04.13-.09.18-.16.02-.02.04-.02.06,0l.18.15s.03.04.01.06c-.07.11-.17.19-.28.25-.12.06-.25.09-.41.09-.19,0-.36-.05-.5-.14-.14-.09-.24-.23-.29-.4-.02-.06-.04-.13-.05-.22-.01-.08-.02-.18-.02-.3"/>
  <path class="cls-5" d="m17.72,26.21s-.04-.01-.04-.04v-1.93s.01-.04.04-.04h.27s.04.01.04.04v1.93s-.01.04-.04.04h-.27Zm0-2.47s-.04-.01-.04-.04v-.31s.01-.04.04-.04h.29s.04.01.04.04v.31s-.01.04-.04.04h-.29Z"/>
  <path class="cls-5" d="m19.38,25.95c.16,0,.29-.03.38-.1.09-.07.14-.17.14-.29v-.22s0-.02-.02-.02h-.41c-.18,0-.31.03-.38.08-.08.05-.12.14-.12.25,0,.1.04.18.11.24.07.05.18.08.31.08m.56.26s-.04-.01-.04-.04v-.18h0c-.05.08-.12.14-.22.19-.1.05-.23.08-.38.08-.1,0-.18-.01-.27-.04-.08-.03-.15-.06-.21-.11-.06-.05-.11-.11-.14-.19-.04-.08-.05-.16-.05-.27,0-.21.07-.37.21-.47.14-.1.33-.15.58-.15h.46s.02,0,.02-.03v-.15c0-.14-.03-.24-.1-.3-.07-.06-.2-.09-.38-.09-.11,0-.21.01-.29.04-.08.03-.14.06-.2.1-.03.02-.05.02-.06,0l-.11-.19s0-.04,0-.06c.08-.06.17-.11.29-.14.12-.04.25-.05.4-.05.29,0,.49.05.61.16.12.11.18.28.18.53v1.33s-.01.04-.04.04h-.24Z"/>
  <path class="cls-5" d="m21.39,26.23c-.18,0-.3-.04-.38-.13-.07-.09-.11-.22-.11-.4v-2.31s.01-.04.04-.04h.27s.04.01.04.04v2.29c0,.08.02.14.05.18.03.03.08.05.15.05h.08s.04.01.04.04v.24s-.01.04-.04.04h-.14Z"/>
  <path class="cls-5" d="m23.09,23.39s.01-.04.04-.04h.27s.06.01.07.04l.86,1.93h.01l.84-1.93s.03-.04.07-.04h.27s.04.01.04.04v2.78s-.01.04-.04.04h-.27s-.04-.01-.04-.04v-1.99h-.01l-.71,1.57s-.04.05-.07.05h-.17s-.07-.02-.08-.05l-.71-1.57h-.01v1.99s-.01.04-.04.04h-.27s-.04-.01-.04-.04v-2.78Z"/>
  <path class="cls-5" d="m26.92,25.95c.16,0,.29-.03.38-.1.09-.07.14-.17.14-.29v-.22s0-.02-.02-.02h-.41c-.18,0-.31.03-.38.08-.08.05-.12.14-.12.25,0,.1.04.18.11.24.07.05.18.08.31.08m.56.26s-.04-.01-.04-.04v-.18h0c-.05.08-.12.14-.22.19-.1.05-.23.08-.38.08-.1,0-.18-.01-.27-.04-.08-.03-.15-.06-.21-.11-.06-.05-.11-.11-.14-.19-.04-.08-.05-.16-.05-.27,0-.21.07-.37.21-.47.14-.1.33-.15.58-.15h.46s.02,0,.02-.03v-.15c0-.14-.03-.24-.1-.3-.07-.06-.2-.09-.38-.09-.11,0-.21.01-.29.04-.08.03-.14.06-.2.1-.03.02-.05.02-.06,0l-.11-.19s0-.04,0-.06c.08-.06.17-.11.29-.14.12-.04.25-.05.4-.05.29,0,.49.05.61.16.12.11.18.28.18.53v1.33s-.01.04-.04.04h-.24Z"/>
  <path class="cls-5" d="m29.75,26.21s-.04-.01-.04-.04v-1.18c0-.16-.04-.29-.11-.38-.07-.09-.19-.13-.34-.13-.14,0-.25.04-.34.13-.09.09-.13.21-.13.36v1.2s-.01.04-.04.04h-.27s-.04-.01-.04-.04v-1.93s.01-.04.04-.04h.27s.04.01.04.04v.18h0c.05-.08.12-.14.22-.19.09-.05.21-.08.35-.08.22,0,.39.07.51.21.12.14.18.32.18.55v1.26s-.01.04-.04.04h-.27Z"/>
  <path class="cls-5" d="m31.39,25.95c.16,0,.29-.03.38-.1.09-.07.14-.17.14-.29v-.22s0-.02-.02-.02h-.41c-.18,0-.31.03-.38.08-.08.05-.12.14-.12.25,0,.1.04.18.11.24.07.05.18.08.31.08m.56.26s-.04-.01-.04-.04v-.18h0c-.05.08-.12.14-.22.19-.1.05-.22.08-.38.08-.1,0-.18-.01-.27-.04-.08-.03-.15-.06-.21-.11-.06-.05-.11-.11-.14-.19-.04-.08-.05-.16-.05-.27,0-.21.07-.37.21-.47.14-.1.33-.15.58-.15h.46s.02,0,.02-.03v-.15c0-.14-.03-.24-.1-.3-.07-.06-.2-.09-.38-.09-.11,0-.21.01-.29.04-.08.03-.14.06-.2.1-.03.02-.04.02-.06,0l-.11-.19s0-.04,0-.06c.08-.06.17-.11.29-.14.11-.04.25-.05.4-.05.29,0,.49.05.61.16.12.11.18.28.18.53v1.33s-.01.04-.04.04h-.24Z"/>
  <path class="cls-5" d="m33.62,25.86c.22,0,.36-.1.43-.3.02-.05.03-.11.04-.17,0-.06.01-.14.01-.22s0-.16-.01-.22c0-.06-.02-.12-.04-.17-.07-.2-.21-.3-.43-.3s-.36.1-.43.3c-.02.05-.03.11-.04.17,0,.06-.01.13-.01.22,0,.16.02.29.05.39.07.2.21.3.43.3m-.05,1.16c-.14,0-.28-.03-.41-.08-.13-.06-.23-.13-.29-.22-.02-.02-.02-.04,0-.06l.17-.17s.04-.02.06,0c.07.06.14.11.22.15.07.04.16.05.26.05.17,0,.29-.04.38-.13.09-.09.13-.23.13-.41v-.24h0c-.05.08-.12.15-.2.2-.09.05-.21.08-.36.08-.17,0-.31-.04-.43-.12-.11-.08-.2-.2-.25-.36-.03-.08-.04-.15-.05-.23-.01-.08-.01-.18-.01-.3s0-.22.01-.3c0-.08.03-.16.05-.23.05-.16.13-.28.25-.36.11-.08.26-.12.43-.12.15,0,.27.03.36.08.09.05.16.12.2.2h0v-.19s.01-.04.04-.04h.27s.04.01.04.04v1.88c0,.29-.08.51-.22.66-.15.15-.37.23-.65.23"/>
  <path class="cls-5" d="m36.34,25.02s.02,0,.02-.03c0-.09,0-.17-.03-.22-.03-.1-.09-.18-.17-.23-.08-.05-.18-.08-.29-.08s-.21.03-.29.08c-.08.06-.14.13-.17.23-.02.06-.03.13-.03.22,0,.02,0,.03.02.03h.93Zm-.45,1.23c-.21,0-.38-.05-.52-.14-.14-.09-.24-.23-.29-.41-.02-.06-.04-.14-.05-.21-.01-.08-.02-.18-.02-.3s0-.22.01-.3c.01-.08.03-.15.05-.21.06-.18.15-.31.29-.4.14-.09.3-.14.5-.14s.36.05.5.14c.14.09.24.23.29.4.01.03.02.07.03.1,0,.04.01.07.02.12,0,.04.01.1.01.15,0,.06,0,.12,0,.2,0,.03-.02.04-.05.04h-1.28s-.02,0-.02.02c0,.06,0,.1,0,.14,0,.04.01.07.03.11.04.12.1.2.19.26.09.06.19.09.32.09s.22-.02.31-.06c.08-.04.15-.1.21-.16.02-.02.04-.02.06,0l.17.15s.02.04,0,.06c-.08.1-.19.18-.32.25-.13.07-.29.1-.46.1"/>
  <path class="cls-5" d="m39.87,26.21s-.04-.01-.04-.04v-1.18c0-.16-.04-.29-.11-.38-.07-.09-.19-.13-.34-.13-.14,0-.25.04-.33.13-.09.09-.13.21-.13.36v1.2s-.01.04-.04.04h-.27s-.04-.01-.04-.04v-1.18c0-.16-.04-.29-.11-.38-.07-.09-.19-.13-.34-.13-.14,0-.25.04-.33.13-.09.09-.13.21-.13.36v1.2s-.01.04-.04.04h-.27s-.04-.01-.04-.04v-1.93s.01-.04.04-.04h.27s.04.01.04.04v.18h0c.05-.08.12-.14.22-.19.09-.05.21-.08.35-.08s.26.03.35.08c.1.05.18.13.23.23h0c.07-.1.16-.18.26-.23.11-.06.24-.08.39-.08.24,0,.41.07.54.21s.18.32.18.55v1.26s-.01.04-.04.04h-.27Z"/>
  <path class="cls-5" d="m42.04,25.02s.02,0,.02-.03c0-.09,0-.17-.03-.22-.03-.1-.09-.18-.17-.23-.08-.05-.18-.08-.29-.08s-.21.03-.29.08c-.08.06-.14.13-.17.23-.02.06-.03.13-.03.22,0,.02,0,.03.02.03h.93Zm-.45,1.23c-.21,0-.38-.05-.52-.14-.14-.09-.24-.23-.29-.41-.02-.06-.04-.14-.05-.21-.01-.08-.02-.18-.02-.3s0-.22.01-.3c.01-.08.03-.15.05-.21.06-.18.15-.31.29-.4.14-.09.3-.14.5-.14s.36.05.5.14c.14.09.24.23.29.4.01.03.02.07.03.1,0,.04.01.07.02.12,0,.04.01.1.01.15,0,.06,0,.12,0,.2,0,.03-.02.04-.05.04h-1.28s-.02,0-.02.02c0,.06,0,.1,0,.14,0,.04.01.07.02.11.04.12.1.2.19.26.09.06.19.09.32.09s.22-.02.31-.06c.08-.04.15-.1.21-.16.02-.02.04-.02.06,0l.17.15s.02.04,0,.06c-.08.1-.19.18-.32.25-.13.07-.29.1-.46.1"/>
  <path class="cls-5" d="m44.31,26.21s-.04-.01-.04-.04v-1.18c0-.16-.04-.29-.11-.38-.07-.09-.19-.13-.34-.13-.14,0-.25.04-.34.13-.09.09-.13.21-.13.36v1.2s-.01.04-.04.04h-.27s-.04-.01-.04-.04v-1.93s.01-.04.04-.04h.27s.04.01.04.04v.18h0c.05-.08.12-.14.22-.19.09-.05.21-.08.35-.08.22,0,.39.07.51.21.12.14.18.32.18.55v1.26s-.01.04-.04.04h-.27Z"/>
  <path class="cls-5" d="m45.87,26.23c-.2,0-.34-.05-.42-.14-.08-.09-.12-.24-.12-.43v-1.15s0-.03-.03-.03h-.17s-.04-.01-.04-.04v-.2s.01-.04.04-.04h.17s.03,0,.03-.02v-.57s.01-.04.04-.04h.27s.04.01.04.04v.57s0,.02.03.02h.32s.04.01.04.04v.2s-.01.04-.04.04h-.32s-.03,0-.03.03v1.14c0,.1.02.17.06.2.04.04.11.05.2.05h.09s.04.01.04.04v.24s-.01.04-.04.04h-.16Z"/>
</svg>