<?xml version="1.0" encoding="UTF-8"?>
<svg id="Layer_1" data-name="Layer 1" xmlns="http://www.w3.org/2000/svg" viewBox="0 0 26.65 38.71">
  <defs>
    <style>
      .cls-1 {
        fill: #bd872c;
      }

      .cls-2 {
        fill: #434244;
      }
    </style>
  </defs>
  <path class="cls-2" d="m1.82,38.71h0c2.14,0,3.88-1.74,3.88-3.88V13.75h0c-2.14,0-3.88,1.74-3.88,3.88v21.08Z"/>
  <path class="cls-2" d="m16.01,17.63v13.01H7.05c0-2.14,1.74-3.88,3.88-3.88h1.19v-13h0c2.14,0,3.88,1.74,3.88,3.88"/>
  <path class="cls-2" d="m26.65,13.75v16.86h-5.39c-2.14,0-3.88-1.74-3.88-3.88V0h0c2.14,0,3.88,1.74,3.88,3.88v22.84h1.11c.13,0,.26,0,.39.02v-9.12c0-2.14,1.74-3.88,3.88-3.88h0Z"/>
  <path class="cls-2" d="m26.52,34.52c0,1.03-.83,1.86-1.86,1.86s-1.86-.83-1.86-1.86.83-1.86,1.86-1.86,1.86.83,1.86,1.86"/>
  <path class="cls-1" d="m.63,10.76s.01.03.03.03h.76c.18,0,.31-.05.41-.14.09-.09.14-.22.14-.37s-.05-.27-.14-.36c-.09-.09-.23-.14-.41-.14h-.76s-.03.01-.03.03v.95Zm.76-1.53c.16,0,.29-.04.38-.13.09-.09.14-.2.14-.34s-.05-.26-.14-.35c-.09-.09-.22-.13-.38-.13h-.73s-.03.01-.03.03v.89s.01.03.03.03h.73Zm-1.39-1.46s.02-.05.05-.05h1.35c.38,0,.67.09.85.26.18.18.28.41.28.7,0,.21-.04.37-.13.49-.08.12-.18.22-.3.28h0c.06.03.11.07.17.11.06.05.11.1.15.17.05.07.08.15.12.24.03.09.04.19.04.3,0,.36-.11.63-.33.8-.22.17-.52.26-.92.26H.05s-.05-.02-.05-.05v-3.52Z"/>
  <path class="cls-1" d="m4.93,10.02l-.48-1.41h-.02l-.48,1.41h.98Zm-.79-2.26s.03-.05.07-.05h.49s.06.02.07.05l1.23,3.52s0,.05-.04.05h-.52s-.06-.02-.07-.05l-.24-.7h-1.37l-.24.7s-.03.05-.07.05h-.52s-.05-.02-.04-.05l1.24-3.52Z"/>
  <path class="cls-1" d="m7.12,10.74s.01.03.03.03h.54c.2,0,.37-.04.49-.11.12-.07.21-.19.26-.35.01-.02.02-.05.03-.09,0-.04.01-.09.02-.14,0-.06.01-.13.01-.22,0-.09,0-.2,0-.33s0-.24,0-.33c0-.09,0-.16-.01-.22,0-.06-.01-.11-.02-.14,0-.03-.02-.07-.03-.09-.05-.16-.14-.28-.26-.35-.12-.07-.29-.11-.49-.11h-.54s-.03.01-.03.03v2.43Zm-.63-2.98s.02-.05.05-.05h1.3c.63,0,1.04.27,1.21.81.01.05.03.1.04.15.01.05.02.11.03.19,0,.07.02.17.02.28,0,.11,0,.24,0,.4s0,.29,0,.4c0,.11,0,.2-.02.28,0,.08-.02.14-.03.19-.01.05-.02.1-.04.15-.17.54-.58.81-1.21.81h-1.3s-.05-.02-.05-.05v-3.53Z"/>
  <path class="cls-1" d="m9.88,7.71h.52s.05.02.05.05v3.52s-.02.05-.05.05h-.52s-.05-.02-.05-.05v-3.52s.02-.05.05-.05Z"/>
  <path class="cls-1" d="m12.69,9.3c.17,0,.3-.05.4-.14.1-.09.15-.22.15-.37s-.05-.28-.15-.38c-.1-.09-.24-.14-.4-.14h-.77s-.03.01-.03.03v.96s.01.03.03.03h.77Zm.62,2.04s-.07-.02-.08-.05l-.69-1.41h-.62s-.03.01-.03.03v1.38s-.02.05-.05.05h-.52s-.05-.02-.05-.05v-3.53s.02-.05.05-.05h1.4c.17,0,.32.03.46.08.14.05.26.13.36.22.1.09.18.21.24.34.06.13.09.28.09.44,0,.24-.06.45-.19.62-.12.17-.29.3-.5.38l.76,1.48s.01.03,0,.05c0,.01-.02.02-.04.02h-.59Z"/>
</svg>