<?xml version="1.0" encoding="UTF-8"?>
<svg id="Layer_1" data-name="Layer 1" xmlns="http://www.w3.org/2000/svg" viewBox="0 0 36.58 35.72">
  <defs>
    <style>
      .cls-1 {
        fill: #84c992;
      }

      .cls-2 {
        fill: none;
        stroke: #fff;
        stroke-width: .75px;
      }
    </style>
  </defs>
  <path class="cls-1" d="m18.29,35.72c10.1,0,18.29-7.99,18.29-17.86S28.39,0,18.29,0,0,8,0,17.86s8.19,17.86,18.29,17.86"/>
  <path class="cls-2" d="m8.74,30.09v-2.3s.15-.95-.75-1.9c-.9-.95-1.87-2.22-1.87-2.22,0,0-.6-.95-.6-3.97v-3.73s.12-1.25.99-1.25.96,1.09.96,1.09l-.03,2.43"/>
  <path class="cls-2" d="m10.19,23.93l-2.24-2.14s-.77-.85,0-1.67c.77-.82,1.79.28,1.79.28l3.3,3.4s1.15.75,1.18,2.9v3.21"/>
  <path class="cls-2" d="m27.83,30.09v-2.3s-.15-.95.75-1.9c.9-.95,1.87-2.22,1.87-2.22,0,0,.6-.95.6-3.97v-3.73s-.12-1.25-.99-1.25-.96,1.09-.96,1.09l.03,2.43"/>
  <path class="cls-2" d="m26.39,23.93l2.24-2.14s.77-.85,0-1.67c-.77-.82-1.79.28-1.79.28l-3.3,3.4s-1.15.75-1.18,2.9v3.21"/>
  <path class="cls-2" d="m12.71,9.12c.93,0,1.68-.69,1.68-1.55s-.75-1.56-1.68-1.56-1.68.7-1.68,1.56.75,1.55,1.68,1.55Z"/>
  <path class="cls-2" d="m18.35,10.85c.93,0,1.68-.7,1.68-1.56s-.75-1.56-1.68-1.56-1.68.7-1.68,1.56.75,1.56,1.68,1.56Z"/>
  <path class="cls-2" d="m23.66,9.12c.93,0,1.68-.69,1.68-1.55s-.75-1.56-1.68-1.56-1.68.7-1.68,1.56.75,1.55,1.68,1.55Z"/>
  <path class="cls-2" d="m15.24,11.81s-5.01-2.76-5.66,1.68v4.17h3.3"/>
  <path class="cls-2" d="m21.46,11.81s4.76-2.85,5.65,1.68v4.17h-3.29"/>
  <path class="cls-2" d="m16.04,19.31h-1.03v-3.13c0-1.48,0-2.09.55-2.8,1.11-1.43,5.66-2.2,5.94,1.83v4h-3.26"/>
</svg>