<?xml version="1.0" encoding="UTF-8"?>
<svg id="Layer_1" data-name="Layer 1" xmlns="http://www.w3.org/2000/svg" viewBox="0 0 36.58 35.72">
  <defs>
    <style>
      .cls-1 {
        fill: #087db6;
      }

      .cls-2 {
        fill: none;
        stroke: #fff;
        stroke-width: .81px;
      }
    </style>
  </defs>
  <path class="cls-1" d="m18.29,35.72c10.1,0,18.29-7.99,18.29-17.86S28.39,0,18.29,0,0,8,0,17.86s8.19,17.86,18.29,17.86"/>
  <path class="cls-2" d="m6.93,23.09l4.15-4.29-2.47-2.26s-.73-1.02.11-1.81c.84-.79,1.85,0,1.85,0l-.9-1.05s-.79-1.1,0-1.78c.79-.68,1.74-.22,2.08.17,0,0-1.54-1.47-.56-2.48.98-1.02,2.19.17,2.19.17,0,0-.48-1.02.28-1.81.76-.79,1.88,0,1.88,0l2.24,2.14s1.26,1.13.48,2.26c-.79,1.13-1.57.4-1.57.4,0,0,.34.9-.31,1.64-.65.73-1.32.42-1.32.42,0,0,.28.99-.5,1.67-.79.68-1.35.34-1.35.34,0,0,.11,1.07-.67,1.7,0,0-.62.45-1.35.25"/>
  <line class="cls-2" x1="10.21" y1="14.52" x2="13.19" y2="16.97"/>
  <line class="cls-2" x1="11.37" y1="11.8" x2="15" y2="14.88"/>
  <line class="cls-2" x1="13.19" y1="9.59" x2="16.81" y2="12.82"/>
  <path class="cls-2" d="m17.71,10.05l2.05-1.81s.93-.45,1.71.23c.79.68.56,1.64.34,1.92-.23.28,1.24-1.91,2.52-.51,1.23,1.34-.17,2.33-.17,2.33,0,0,1.18-1.2,2.36-.13,1.18,1.07.17,2.03.17,2.03,0,0,1.69,0,1.97,1.64,0,0,.25.62-.95,1.92-1.21,1.3-5.27,5.31-5.27,5.31,0,0-1.68,1.58-3.42,1.44,0,0-.72-.03-2.01,1.33-1.3,1.36-3.61,3.84-3.61,3.84"/>
  <path class="cls-2" d="m15.98,8.44s-.73-3.17.89-3.2c1.62-.03,2.29,2.41,3.52,2.81"/>
  <line class="cls-2" x1="26.21" y1="19.27" x2="29.89" y2="23.26"/>
  <path class="cls-2" d="m16.75,25.95s1.8.28,2.92-.22l4.99,5.28"/>
  <line class="cls-2" x1="20.05" y1="12.17" x2="21.93" y2="10.22"/>
  <line class="cls-2" x1="22.69" y1="13.73" x2="24.57" y2="11.78"/>
  <line class="cls-2" x1="24.81" y1="16.06" x2="26.69" y2="14.11"/>
</svg>