<?xml version="1.0" encoding="UTF-8"?>
<svg id="Layer_1" data-name="Layer 1" xmlns="http://www.w3.org/2000/svg" viewBox="0 0 32.63 39.75">
  <defs>
    <style>
      .cls-1 {
        fill: #0dab8e;
      }

      .cls-2 {
        fill: #1680c4;
      }

      .cls-3 {
        fill: #1a3c6c;
      }

      .cls-4 {
        fill: #0d8280;
      }

      .cls-5 {
        fill: #254084;
      }

      .cls-6 {
        fill: #292f6f;
      }
    </style>
  </defs>
  <path class="cls-3" d="m15.58,20.59c.8,0,1.61.02,2.41,0,.48-.02.91.3,1.42.17.14-.04.42.18.37.48-1.44-.38-2.92-.49-4.4-.44.03-.11.1-.17.2-.21"/>
  <path class="cls-3" d="m14.53,16.67c.37-.19.78-.05,1.15-.17.53,0,1.05,0,1.58.01.14.02.29.05.43.07.3.17.62.04.92.08,1.06.2,2.12.35,3.13.75.32.13.67.21.89.52-.11.04-.22.07-.32.11-.34-.35-.84-.53-1.23-.58-.79-.1-1.51-.43-2.3-.52-.39-.04-.78-.2-1.2-.17-1.02-.03-2.04.1-3.05-.11"/>
  <path class="cls-5" d="m3.83,26.41c-.46-.61-.91-1.24-1.38-1.84-.21-.26-.2-.45-.02-.72,1.18-1.74,2.62-3.21,4.33-4.42.35-.21.7-.43,1.05-.64.28-.07.53-.2.72-.42.71-.16,1.35-.52,2.03-.77.52-.08.99-.27,1.46-.51.28-.2.66,0,.94-.23.53-.07,1.06-.13,1.58-.2,1.01.21,2.03.08,3.05.11-.3.69-.76,1.29-1.13,1.94-.35.6-.83,1.14-.87,1.88-.1.04-.17.11-.2.21-.14.01-.3,0-.32.21-.11.01-.22.02-.32.03-.97-.07-1.83.38-2.72.66-1,.31-1.93.79-2.77,1.43-.1.03-.17.1-.21.2-.03.02-.06.03-.09.03-.15-.03-.19.08-.23.19-.04.03-.08.06-.12.1-.09,0-.17.02-.19.12h0c-.1.04-.17.1-.21.2h-.01c-.14.04-.23.12-.26.26h0c-.21.08-.34.22-.42.42h0c-.07,0-.1.04-.09.11h0c-.14.04-.22.14-.25.28h0c-.1.04-.17.11-.2.22-.56.72-1.03,1.5-1.49,2.3-.33.57-.45-.13-.68-.17-.03-.04-.05-.08-.08-.11h-.01s-.07-.07-.1-.1h0c0-.07-.04-.1-.1-.1h0c-.06-.22-.2-.36-.42-.43-.03-.04-.07-.08-.1-.12-.04-.03-.07-.06-.11-.08"/>
  <path class="cls-2" d="m10.55,17.61c-.68.26-1.32.61-2.03.77-.45-.02-.86.14-1.27.3-1.72.43-3.48.48-5.25.46-.07,0-.14,0-.21,0-.44-.09-.89.03-1.34-.12-.24-.08-.31-.18-.36-.41-.1-.5-.09-1-.11-1.5,0-.71,0-1.42,0-2.13.09-.48.45-.48.78-.39.2.06.4.06.59.07.19.3.48.2.75.18.62.02,1.25.13,1.86-.06.15,0,.29-.02.43-.03,1.47-.07,2.79-.63,4.12-1.2.88-.38,1.62-1,2.4-1.54.1-.04.21-.07.31-.11,1.5.57,3.01,1.12,4.64,1.18,0,.04.01.08.02.12-.19.23-.38.46-.57.7-.03.03-.06.07-.09.1h-.01s-.06.08-.09.11v.02s-.07.06-.1.09h-.01c-.18.04-.28.15-.31.33h0s-.07.07-.1.1h0s-.06.07-.1.1l-.02.02-.08.08-.02.03-.09.09c-.98.71-1.97,1.43-2.95,2.14-.25.2-.72.07-.82.52"/>
  <path class="cls-4" d="m15.07,21.01c.01-.21.17-.19.32-.21,1.49-.05,2.96.06,4.4.44.03,0,.06,0,.09.01,0,.06,0,.12,0,.18-.57,1.09-1.02,2.21-1.15,3.44-.03.27-.2.53-.08.82-.01.04-.02.08-.03.12-.17.16-.09.36-.09.55,0,1.56,0,10.92,0,12.48,0,.32-.03.62-.21.89-.04,0-.08.01-.13.02-.5-.22-1.03-.09-1.54-.08-.67,0-1.35-.12-2.02.06-.17.03-.33.03-.48-.06l-.03-.04c0-.06,0-.12,0-.18.09-.12.1-.23,0-.35,0-.14,0-.27,0-.41.09-.11.09-.23,0-.34v-10.54c.11-.72.14-1.43-.01-2.15.03-.24.05-.48.08-.73,0-.11,0-.21,0-.32.25-.5.29-1.05.37-1.58.1-.7.51-1.31.5-2.03"/>
  <path class="cls-2" d="m18.85,8.07s0,.08,0,.11c-.11.18-.3.34-.2.6-.06.15-.2.14-.32.15-.26-.04-.51-.1-.77-.1-1.08.02-2.13-.19-3.19-.32-.22-.03-.28-.17-.36-.33.07-.17.23-.31.2-.52.01-.03.02-.07.02-.1.5-1.08.8-2.21.85-3.41.09-.02.17-.07.17-.17,0-.65.11-1.3-.07-1.94-.06-.33.07-.7-.22-.97-.01-.16.02-.34-.05-.47-.21-.41.07-.52.35-.54.89-.04,1.78-.11,2.66.07-.04.02-.08.04-.11.06.03.01.05.03.08.03.71.08,1.57-.05,1.58,1.09,0,.02.05.04.08.06.02.12.03.23.05.35,0,.88,0,1.76,0,2.65-.05,1.28-.48,2.48-.75,3.72"/>
  <path class="cls-5" d="m19.88,21.43c0-.06,0-.12,0-.18.24-.4.46-.82.72-1.2.5-.73,1.08-1.39,1.72-2.01.11-.04.22-.08.32-.11.07-.04.14-.07.21-.11,1.72.81,3.37,1.74,4.8,3.03.03.03.06.06.09.09.02.02.04.04.06.06.1.22.25.38.48.46h0c0,.07.03.11.1.11h0c0,.07.03.1.1.11h0s.06.08.09.11l.02.02s.06.06.08.09v.02c0,.09.03.16.13.18.12.1.22.2.31.33.41.58.85,1.13,1.28,1.7,0,.03,0,.06.03.08-.42.76-1.01,1.41-1.51,2.11-.22.14-.52.21-.47.57l-.02.02c-.06,0-.1.02-.09.09l-.02.02c-.07-.01-.1.02-.09.09,0,0-.02.02-.02.02-.07,0-.1.02-.09.09h-.01c-.06.01-.1.04-.1.11h0c-.11.02-.22.05-.23.2-.14.11-.28.23-.42.34-.07-.08-.15-.16-.22-.24-.23-.44-.26-1.01-.78-1.27-.02-.04-.04-.08-.06-.11.04-.17-.05-.26-.19-.33-.02-.17-.1-.31-.23-.41-.03-.11-.12-.15-.21-.19-.04-.04-.07-.08-.11-.12-.09-.18-.22-.33-.4-.43-.18-.25-.39-.47-.65-.64-.04-.03-.07-.07-.11-.1-.03-.1-.12-.11-.2-.13h0c-.22-.31-.57-.49-.85-.73h0c-.99-.65-2.02-1.22-3.17-1.57-.1-.08-.19-.16-.32-.14"/>
  <path class="cls-4" d="m27.03,15.48c-.44,0-.83.12-1.16.43-.4.18-.84.27-1.15.62-.08.02-.18,0-.21.11-.59.34-1.25.58-1.66,1.18-.07.04-.14.07-.21.11-.22-.3-.57-.39-.89-.52-1-.4-2.07-.56-3.13-.75-.12-.2-.5.03-.52-.33.18-.27.36-.55.55-.82.03-.02.06-.04.09-.05.62-.52,1.25-1.02,1.85-1.55.46-.4,1.07-.62,1.41-1.17.04,0,.07,0,.11,0,.35-.1.7-.21,1-.42.64-.3,1.33-.47,1.94-.83.34-.11.71-.13,1.03-.31.25-.06.49-.11.74-.17.47-.11.97-.07,1.4-.35.06,0,.12-.01.18-.01.04.04.08.04.11,0,.21,0,.43-.02.64-.03.84,0,1.68,0,2.52,0,.36.46.43,1.03.56,1.58.23.91.44,1.83.38,2.78-.07.04-.14.08-.21.11-.19-.2-.44-.05-.65-.12-.26-.17-.54-.1-.82-.07-.14,0-.28,0-.42,0-.22-.03-.44-.1-.64.07-.97.04-1.92.22-2.85.53"/>
  <path class="cls-1" d="m25.06,11.48c-.61.36-1.31.53-1.95.83-.42-.06-.83-.1-1,.42-.04,0-.07,0-.11,0-.11-.02-.19-.09-.33-.06-1.05.17-2.06.53-3.14.5-.7,0-1.4,0-2.1,0-.17-.04-.34-.03-.51.02,0-.04-.01-.08-.02-.12.14-.13.31-.24.42-.39.68-.93,1.31-1.9,1.82-2.95.13-.26.21-.52.19-.81.13,0,.26,0,.32-.15.82-.07,1.64-.21,2.42-.49,1.68-.6,3.32-1.31,4.58-2.63.48-.51.98-.99,1.5-1.46.07,0,.14.02.21.02.81.53,1.4,1.28,1.99,2.04.1.12.15.28.33.31.13.02.21.09.22.23.24.43.17.79-.22,1.11-.24.19-.43.45-.64.68-.04.04-.07.07-.11.11h0s-.07.07-.1.1l.02.02-.02-.02s-.07.07-.11.1h0s-.07.07-.1.11c0,0,0,0,0,0-.03.03-.07.07-.1.1h0s-.07.07-.11.11c-.04.03-.07.07-.11.1h0c-.16.03-.3.09-.36.26h-.02c-.06,0-.1.03-.1.1h0s-.08.06-.12.09c-.55.43-1.21.69-1.73,1.18-.35.09-.65.27-.88.55"/>
  <path class="cls-6" d="m22.32,18.04c-.64.61-1.22,1.28-1.72,2.01-.26.38-.48.8-.72,1.2-.03,0-.06,0-.1,0,.05-.3-.23-.52-.37-.48-.51.13-.94-.19-1.42-.17-.8.03-1.61,0-2.41,0,.04-.74.53-1.28.87-1.88.37-.65.83-1.25,1.13-1.94.41-.03.81.13,1.2.17.79.08,1.51.42,2.3.52.39.05.89.23,1.23.58"/>
  <path class="cls-1" d="m3.69,5.84l.02-.11c.92-.96,1.8-1.97,2.96-2.66.22-.13.3-.04.44.08.37.35.61.8.92,1.19,1.12,1.43,2.6,2.4,4.11,3.32.54.33,1.19.33,1.74.6.02.47-.29.78-.53,1.12-.62.9-1.35,1.71-2.1,2.49-.1.04-.21.07-.31.11-.33-.21-.64-.46-1.05-.52-.06-.01-.12-.02-.18-.03-.6-.41-1.18-.85-1.8-1.23-.29-.18-.59-.35-.85-.58-1.17-1.05-2.33-2.11-3.24-3.42-.09-.12-.13-.24-.14-.38"/>
  <path class="cls-4" d="m11.26,11.89c.75-.79,1.48-1.59,2.1-2.49.24-.34.54-.66.53-1.12.04-.04.08-.07.12-.11.08.16.14.3.36.33,1.06.13,2.11.34,3.19.32.26,0,.51.07.77.1.03.29-.06.55-.19.81-.51,1.05-1.13,2.02-1.82,2.95-.11.15-.28.26-.42.39-1.63-.06-3.13-.61-4.64-1.18"/>
</svg>