<?xml version="1.0" encoding="UTF-8"?>
<svg id="Layer_1" data-name="Layer 1" xmlns="http://www.w3.org/2000/svg" viewBox="0 0 116.22 32.36">
  <defs>
    <style>
      .cls-1 {
        fill: #fdb716;
      }

      .cls-2 {
        fill: #f89623;
      }

      .cls-3 {
        fill: #2cb676;
      }

      .cls-4 {
        fill: #1c8386;
      }
    </style>
  </defs>
  <polygon class="cls-4" points="45.57 9.7 46.37 9.7 46.37 11.79 48.81 11.79 48.81 9.7 49.61 9.7 49.61 14.75 48.81 14.75 48.81 12.53 46.37 12.53 46.37 14.75 45.57 14.75 45.57 9.7"/>
  <path class="cls-4" d="m53.92,14.65c-.53.1-1.06.16-1.6.18-.98,0-1.57-.39-1.57-1.34v-2.25h.8v2.1c0,.56.29.71.81.71.25,0,.5-.03.75-.07v-2.75h.8l.02,3.42Z"/>
  <path class="cls-4" d="m60.11,12.48v2.27h-.8v-2.12c0-.43-.15-.72-.73-.72-.23,0-.46.08-.66.2.03.14.04.29.04.43v2.22h-.8v-2.12c0-.52-.29-.72-.75-.72-.21,0-.43.03-.63.08v2.75h-.8v-3.43c.49-.1.98-.16,1.47-.18.38-.02.75.09,1.06.3.34-.2.72-.3,1.11-.3.9,0,1.5.37,1.5,1.34"/>
  <path class="cls-4" d="m62.5,14.09c.25,0,.5-.03.75-.08v-.83c-.25-.04-.5-.06-.75-.07-.59,0-.86.16-.86.5s.27.48.86.48m1.55-1.61v2.1c-.51.14-1.03.21-1.56.22-1.08,0-1.67-.42-1.67-1.2s.56-1.16,1.59-1.16c.28,0,.57.02.85.06v-.02c0-.42-.32-.67-.96-.67-.41,0-.82.08-1.2.23l.19-.73c.38-.14.79-.21,1.19-.2.93,0,1.58.4,1.58,1.37"/>
  <path class="cls-4" d="m65.04,11.31c.53-.1,1.06-.15,1.59-.17.86,0,1.57.3,1.57,1.34v2.28h-.8v-2.12c0-.53-.3-.72-.81-.72-.25,0-.5.03-.75.07v2.77h-.8v-3.44Z"/>
  <path class="cls-4" d="m71.24,12.02h1.21c.57,0,.93-.29.93-.81s-.36-.75-.93-.75h-1.21v1.56Zm.93.7h-.93v2.04h-.8v-5.05h1.94c1.26,0,1.79.61,1.79,1.47.03.72-.48,1.35-1.19,1.48l1.32,2.1h-.88l-1.26-2.03Z"/>
  <path class="cls-4" d="m75.4,12.58h1.92c-.05-.48-.4-.77-.95-.77-.48-.04-.9.3-.97.77h0Zm2.7.68h-2.7c.08.53.56.91,1.09.86.38,0,.75-.08,1.09-.26l.34.62c-.46.23-.97.35-1.48.34-.96.06-1.8-.67-1.86-1.63,0-.08,0-.15,0-.23,0-1.12.73-1.86,1.82-1.86,1.03,0,1.71.71,1.71,1.78v.38Z"/>
  <path class="cls-4" d="m78.42,14.52l.21-.63c.38.16.79.25,1.2.25.5,0,.82-.07.82-.37s-.12-.33-.71-.48l-.32-.08c-.77-.2-1.11-.54-1.11-1.11,0-.62.52-1,1.4-1,.48-.01.96.09,1.39.3l-.22.63c-.34-.16-.7-.24-1.08-.25-.42,0-.66.08-.66.32s.2.31.68.44l.25.07c.81.21,1.15.56,1.15,1.12,0,.73-.51,1.1-1.53,1.1-.51,0-1.01-.1-1.48-.3"/>
  <path class="cls-4" d="m83.75,14.09c.6.02,1.1-.45,1.11-1.04,0-.02,0-.04,0-.07.02-.6-.45-1.11-1.05-1.13-.02,0-.04,0-.06,0-.6-.01-1.09.46-1.11,1.06,0,.02,0,.04,0,.07-.02.59.45,1.09,1.04,1.11.02,0,.04,0,.06,0m-1.92-1.11h0c-.01-1.02.8-1.86,1.82-1.87.03,0,.06,0,.09,0,1.02-.04,1.88.76,1.92,1.78,0,.03,0,.06,0,.09,0,1.07-.82,1.84-1.92,1.85-1.01.04-1.87-.74-1.91-1.75,0-.03,0-.06,0-.09"/>
  <path class="cls-4" d="m89.56,14.65c-.53.1-1.06.16-1.6.18-.98,0-1.57-.39-1.57-1.34v-2.25h.8v2.1c0,.56.29.71.81.71.25,0,.5-.03.75-.07v-2.75h.8l.02,3.42Z"/>
  <path class="cls-4" d="m90.54,11.4c.45-.11.92-.17,1.38-.17h.64v.75h-.54c-.23,0-.46.02-.68.08v2.7h-.8v-3.36Z"/>
  <path class="cls-4" d="m92.97,12.96h0c-.04-.98.72-1.81,1.7-1.85.06,0,.12,0,.18,0,.41,0,.82.08,1.2.25l-.31.68c-.27-.13-.58-.2-.88-.2-.57-.03-1.05.4-1.08.96,0,.05,0,.1,0,.15-.05.57.37,1.06.94,1.11.05,0,.1,0,.15,0,.31.01.61-.06.88-.19l.31.68c-.38.18-.79.26-1.21.26-1.15.01-1.87-.71-1.88-1.85"/>
  <path class="cls-4" d="m97.18,12.58h1.92c-.05-.48-.4-.77-.94-.77-.48-.04-.9.3-.97.77m2.7.68h-2.7c.08.53.56.91,1.1.86.38,0,.75-.08,1.09-.26l.34.62c-.46.23-.97.35-1.48.34-.96.06-1.8-.67-1.86-1.63,0-.08,0-.15,0-.23,0-1.12.73-1.86,1.82-1.86,1.03,0,1.71.71,1.71,1.78v.38Z"/>
  <path class="cls-4" d="m100.2,14.52l.21-.63c.38.16.78.25,1.19.25.5,0,.82-.07.82-.37s-.12-.33-.71-.48l-.32-.08c-.76-.2-1.11-.54-1.11-1.11,0-.62.52-1,1.4-1,.48-.01.96.09,1.39.3l-.22.63c-.34-.16-.7-.24-1.08-.25-.42,0-.67.08-.67.32s.2.31.68.44l.25.07c.82.21,1.15.56,1.15,1.12,0,.73-.5,1.1-1.53,1.1-.51,0-1.01-.1-1.48-.3"/>
  <path class="cls-4" d="m106.38,14.09c.25,0,.5-.03.75-.08v-.83c-.25-.04-.5-.07-.75-.07-.59,0-.86.16-.86.5s.27.48.86.48m1.55-1.61v2.1c-.51.14-1.03.21-1.56.22-1.08,0-1.67-.42-1.67-1.2s.56-1.16,1.59-1.16c.28,0,.56.02.84.06v-.02c0-.42-.32-.67-.96-.67-.41,0-.82.08-1.2.23l.19-.73c.38-.14.79-.21,1.19-.2.93,0,1.58.4,1.58,1.37"/>
  <path class="cls-4" d="m108.92,11.31c.53-.1,1.06-.15,1.59-.17.86,0,1.57.3,1.57,1.34v2.28h-.8v-2.12c0-.53-.3-.72-.81-.72-.25,0-.5.03-.75.07v2.77h-.8v-3.44Z"/>
  <path class="cls-4" d="m115.42,14.09v-2.13c-.22-.05-.44-.08-.66-.08-.75,0-1.16.46-1.16,1.12h0c0,.71.45,1.15,1.16,1.15.22,0,.44-.02.65-.05m.8-4.39v4.92c-.47.15-.95.24-1.44.25-1.22,0-1.95-.71-1.95-1.86s.77-1.85,1.95-1.85c.21,0,.43.02.64.05v-1.5l.8-.02Z"/>
  <path class="cls-4" d="m45.35,22.31l.31-.66c.43.28.92.42,1.43.42.72,0,1.13-.3,1.13-.75,0-.38-.27-.57-1-.79l-.43-.13c-.9-.25-1.29-.7-1.29-1.45h0c0-.82.65-1.36,1.75-1.36.59-.01,1.17.14,1.68.43l-.32.67c-.41-.26-.88-.39-1.36-.39-.65,0-.95.26-.95.62,0,.44.25.59.78.75.13.05.32.1.46.13,1.06.3,1.5.75,1.5,1.49h0c0,.93-.73,1.48-1.9,1.48-.62.02-1.24-.14-1.78-.45"/>
  <path class="cls-4" d="m51.55,22.04c.6.02,1.1-.45,1.11-1.04,0-.02,0-.04,0-.06.02-.6-.45-1.1-1.05-1.13-.02,0-.04,0-.06,0-.6-.02-1.09.46-1.11,1.05,0,.02,0,.05,0,.07-.02.59.45,1.09,1.04,1.11h.07m-1.92-1.11h0c-.01-1.02.8-1.86,1.82-1.87.03,0,.06,0,.09,0,1.02-.04,1.88.76,1.92,1.78,0,.03,0,.06,0,.09,0,1.07-.82,1.84-1.92,1.85-1.01.04-1.87-.75-1.91-1.76,0-.03,0-.06,0-.09"/>
  <path class="cls-4" d="m53.91,20.93h0c.01-1.11.76-1.85,1.89-1.85.41,0,.83.08,1.2.25l-.31.68c-.28-.13-.58-.2-.88-.19-.57-.03-1.05.4-1.08.96,0,.05,0,.1,0,.15-.04.57.38,1.06.94,1.1.05,0,.1,0,.15,0,.31,0,.61-.06.88-.19l.31.68c-.38.18-.79.27-1.21.26-1.15,0-1.87-.71-1.88-1.85"/>
  <path class="cls-4" d="m57.66,19.19h.8v3.52h-.8v-3.52Zm-.09-.93c0-.25.22-.45.47-.44.01,0,.02,0,.03,0,.25-.02.46.17.48.42.02.25-.17.46-.41.48-.02,0-.04,0-.07,0-.25.02-.48-.16-.5-.41,0-.01,0-.03,0-.04"/>
  <path class="cls-4" d="m60.86,22.05c.25,0,.5-.03.75-.08v-.83c-.25-.04-.5-.06-.75-.07-.59,0-.86.15-.86.48s.28.5.86.5m1.56-1.62v2.1c-.51.14-1.03.21-1.56.22-1.08,0-1.67-.42-1.67-1.19s.56-1.16,1.59-1.16c.28,0,.56.03.85.06v-.02c0-.42-.32-.67-.96-.67-.41,0-.82.08-1.2.23l.19-.73c.38-.14.79-.21,1.19-.2.93,0,1.58.4,1.58,1.36"/>
  <rect class="cls-4" x="63.4" y="17.65" width=".8" height="5.05"/>
  <path class="cls-4" d="m69.83,20.15c0-1.11-.66-1.75-1.81-1.75h-.79v3.55h.79c1.15,0,1.81-.65,1.81-1.8h0Zm.87,0h0c0,1.56-1.08,2.55-2.78,2.55h-1.48v-5.04h1.48c1.71,0,2.78.96,2.78,2.5"/>
  <path class="cls-4" d="m71.97,20.53h1.92c-.05-.48-.4-.77-.95-.77-.48-.04-.9.3-.97.77m2.7.68h-2.7c.08.53.56.91,1.1.87.38,0,.75-.08,1.09-.26l.34.62c-.46.23-.97.35-1.48.34-.96.06-1.8-.67-1.86-1.63,0-.07,0-.15,0-.22,0-1.11.73-1.86,1.82-1.86,1.03,0,1.7.71,1.7,1.77v.37Z"/>
  <polygon class="cls-4" points="78.45 19.18 77.26 22.7 76.21 22.7 74.99 19.18 75.84 19.18 76.74 21.97 77.61 19.18 78.45 19.18"/>
  <path class="cls-4" d="m79.59,20.53h1.92c-.05-.48-.4-.77-.95-.77-.48-.04-.9.3-.97.77m2.7.68h-2.7c.08.53.56.91,1.1.87.38,0,.75-.08,1.09-.26l.34.62c-.46.23-.97.35-1.48.34-.96.07-1.8-.66-1.86-1.63,0-.07,0-.15,0-.22,0-1.11.73-1.86,1.82-1.86,1.03,0,1.71.71,1.71,1.77v.37Z"/>
  <rect class="cls-4" x="83.02" y="17.65" width=".8" height="5.05"/>
  <path class="cls-4" d="m86.46,22.04c.59.03,1.1-.43,1.12-1.03,0-.03,0-.05,0-.08.02-.6-.45-1.1-1.05-1.13-.02,0-.04,0-.06,0-.6-.03-1.11.43-1.13,1.03,0,.03,0,.06,0,.09-.02.59.45,1.09,1.05,1.11h.08Zm-1.92-1.11h0c-.01-1.02.8-1.86,1.82-1.87.03,0,.06,0,.09,0,1.02-.04,1.88.76,1.92,1.78,0,.03,0,.06,0,.09,0,1.07-.82,1.84-1.92,1.85-1.01.04-1.87-.75-1.91-1.76,0-.03,0-.06,0-.09"/>
  <path class="cls-4" d="m91.69,20.95c0-.66-.41-1.12-1.16-1.12-.22,0-.44.03-.66.08v2.13c.22.04.43.06.65.05.72,0,1.16-.43,1.16-1.13h0Zm.77,0h0c0,1.15-.73,1.86-1.95,1.86-.21,0-.43-.02-.64-.06v1.31h-.8v-4.79h.15c.42-.11.85-.18,1.28-.18,1.18,0,1.95.68,1.95,1.85"/>
  <path class="cls-4" d="m98.31,20.43v2.27h-.8v-2.12c0-.43-.15-.71-.73-.71-.23,0-.46.07-.66.19.03.14.04.29.04.43v2.21h-.81v-2.12c0-.52-.29-.71-.75-.71-.21,0-.43.03-.63.08v2.75h-.8v-3.43c.49-.1.98-.16,1.47-.18.38-.02.75.09,1.06.3.34-.19.72-.3,1.11-.3.91,0,1.5.38,1.5,1.34"/>
  <path class="cls-4" d="m99.88,20.53h1.92c-.05-.48-.4-.77-.94-.77-.48-.04-.9.3-.97.77h0Zm2.7.68h-2.7c.08.53.56.91,1.1.87.38,0,.75-.08,1.09-.26l.34.62c-.46.23-.97.35-1.48.34-.96.06-1.8-.67-1.86-1.63,0-.07,0-.15,0-.22,0-1.11.73-1.86,1.82-1.86,1.03,0,1.71.71,1.71,1.77v.37Z"/>
  <path class="cls-4" d="m103.33,19.26c.53-.1,1.06-.15,1.59-.17.86,0,1.57.31,1.57,1.34v2.28h-.8v-2.12c0-.53-.3-.71-.81-.71-.25,0-.5.03-.75.08v2.76h-.8v-3.44Z"/>
  <path class="cls-4" d="m107.82,21.58v-1.68h-.64v-.73h.64v-1.27h.79v1.27h1.33v.72h-1.33v1.44c0,.48.23.62.7.62h.64v.73h-.93c-.9,0-1.2-.36-1.2-1.11"/>
  <path class="cls-4" d="m28.68,18.97l-8.6-2.79,10.11,16.18c.6-4.52.08-9.11-1.51-13.39m-13.49-10.61c.17.02.33.05.5.08.76-1.39,1.64-2.71,2.63-3.95-2.51-1.96-5.34-3.48-8.36-4.5l5.22,8.36Z"/>
  <path class="cls-2" d="m14.58,12.74C18.3,6.78,23.16,2.42,30.19,0l-10.11,16.18-10.11,16.18c-.9-7.38.88-13.65,4.61-19.62"/>
  <path class="cls-3" d="m29.4,13.15l-9.33,3.03,20.08,6.52c-2.82-3.95-6.5-7.22-10.75-9.56h0ZM0,9.66l10.75,3.5c1.14-.63,2.31-1.2,3.51-1.72.15-.38.32-.76.5-1.14.29-.64.6-1.25.93-1.85-5.25-.89-10.64-.47-15.7,1.21"/>
  <path class="cls-1" d="m24.96,8.37l-4.88,7.82,20.08-6.52c-4.89-1.63-10.1-2.07-15.19-1.3M0,22.7l11.47-3.73c.42-1.12.9-2.22,1.44-3.29.33-1.45.78-2.87,1.35-4.25-5.69,2.43-10.45,5.99-14.26,11.26"/>
</svg>