<?xml version="1.0" encoding="UTF-8"?>
<svg id="Layer_1" data-name="Layer 1" xmlns="http://www.w3.org/2000/svg" xmlns:xlink="http://www.w3.org/1999/xlink" viewBox="0 0 116.11 49.03">
  <defs>
    <style>
      .cls-1 {
        fill: #909294;
      }

      .cls-2, .cls-3 {
        fill: none;
      }

      .cls-3 {
        clip-path: url(#clippath);
      }

      .cls-4 {
        fill: url(#linear-gradient);
      }
    </style>
    <clipPath id="clippath">
      <path class="cls-2" d="m95.72,12.78v2.77h-3.4s-3.62-.41-3.62,3.62v3.22h-3.3s-3.49-.48-3.49,3.54v4.02c0,1.31,1.14,9.41,9.47,10.07h2.16c7.4-.6,8.85-7.44,9.08-9.65v-7.78h-3.67s-3.09.09-3.09,3.62v3.53s.22,3.62-3.31,3.62-3.75-3.13-3.75-3.13v-7.63h3.53s3.4-.18,3.4-3.53v-3.22h3.75s2.78-.35,3.14-3.28v-3.52h-3.89s-.04,0-.11,0c-.54,0-2.89.21-2.89,3.75"/>
    </clipPath>
    <linearGradient id="linear-gradient" x1="-188.48" y1="474.96" x2="-187.48" y2="474.96" gradientTransform="translate(-5709.32 -14633.03) rotate(-180) scale(30.86 -30.86)" gradientUnits="userSpaceOnUse">
      <stop offset="0" stop-color="#85c55b"/>
      <stop offset=".12" stop-color="#5ec077"/>
      <stop offset=".29" stop-color="#2bba9c"/>
      <stop offset=".42" stop-color="#0bb7b4"/>
      <stop offset=".49" stop-color="#00b6bd"/>
      <stop offset=".58" stop-color="#00b1bc"/>
      <stop offset=".68" stop-color="#03a2b9"/>
      <stop offset=".79" stop-color="#088bb5"/>
      <stop offset=".82" stop-color="#0a84b4"/>
      <stop offset="1" stop-color="#0a84b4"/>
    </linearGradient>
  </defs>
  <g>
    <path class="cls-1" d="m3.47,23.03h-.86v-.88h.86v.88Zm-1.47,0h-.86v-.88h.86v.88Zm.64,2.47v-1.15h-.79c-.61,0-.98.49-.98,1.22,0,.61.34,1.13.86,1.13.57,0,.91-.54.91-1.21m2.33,2.52h-.94c-.68,0-1.23-.47-1.41-1.17-.27.39-.61.59-1,.59-1,0-1.61-.76-1.61-1.86,0-1.18.62-1.92,1.61-1.92h1.93v2.5c0,.62.29.95.87.95h.55v.9Z"/>
    <path class="cls-1" d="m7.02,29.75h-.86v-.88h.86v.88Zm1.3-1.73h-3.6v-.9h.83c.26,0,.44-.09.53-.27.06-.12.09-.32.09-.6v-1.82h.86v1.77c0,.47-.06.77-.19.91h1.47v.9Zm-2.78,1.73h-.86v-.88h.86v.88Z"/>
    <path class="cls-1" d="m12.48,28.02h-4.32v-.9h1.13c-.12-.26-.17-.54-.17-.83,0-.53.16-.98.5-1.35.34-.37.77-.55,1.29-.55.69,0,1.27.38,1.53,1.02l-.75.36c-.13-.4-.41-.61-.82-.61-.29,0-.51.12-.66.35-.14.2-.21.46-.21.77,0,.35.09.63.28.84h2.2v.9Z"/>
    <path class="cls-1" d="m15.58,28.02h-1.02c-.42,0-.74-.13-.97-.41-.21-.25-.31-.59-.31-1.03v-3.65h.87v3.3c0,.39.08.64.25.76.12.09.34.13.67.13h.52v.9Z"/>
    <path class="cls-1" d="m18.72,26.88c0-.28-.07-.52-.21-.72-.16-.21-.39-.32-.66-.32s-.48.1-.63.32c-.13.18-.2.42-.2.69,0,.57.34,1.04.88,1.04.26,0,.48-.1.62-.3.13-.18.2-.42.2-.7m1.68,1.14h-1.12c-.34.46-.8.69-1.41.69s-1.06-.23-1.4-.69h-1.19v-.9h.84c0-.09,0-.17,0-.26,0-.53.16-.96.48-1.3.33-.34.75-.51,1.27-.51s.94.17,1.26.53c.32.36.48.79.48,1.32v.23h.78v.9Z"/>
    <path class="cls-1" d="m22.43,23.7h-.86v-.88h.86v.88Zm1.31,4.32h-3.6v-.9h.81c.26,0,.43-.09.52-.27.06-.12.09-.32.09-.6v-1.82h.87v1.77c0,.47-.06.77-.19.91h1.5v.9Zm-2.79-4.32h-.86v-.88h.86v.88Z"/>
    <path class="cls-1" d="m26.76,29.75h-.86v-.88h.86v.88Zm2.19-2.29v.55h-5.49v-.9h4.55c0-.49-.13-.91-.41-1.26-.32-.4-.77-.6-1.34-.6-.19,0-.41.05-.65.15-.28.12-.51.28-.7.5-.09-.17-.23-.39-.42-.7.24-.23.51-.42.83-.56.34-.15.69-.22,1.03-.22.58,0,1.08.14,1.5.43.74.5,1.11,1.36,1.11,2.6"/>
    <path class="cls-1" d="m33.46,22.92v3.85c0,.75-.53,1.24-1.37,1.24h-2.33v-.9h1.19l-.98-3.63h.92l.98,3.63c.24,0,.41-.05.53-.17.15-.15.22-.4.22-.76v-3.26h.85Z"/>
  </g>
  <rect class="cls-1" x="34.28" y="22.92" width=".87" height="5.1"/>
  <g>
    <path class="cls-1" d="m40.98,23.03h-.86v-.88h.86v.88Zm-1.47,0h-.86v-.88h.86v.88Zm.64,2.47v-1.15h-.79c-.61,0-.98.49-.98,1.22,0,.61.34,1.13.86,1.13.57,0,.91-.54.91-1.21m2.33,2.52h-.94c-.68,0-1.23-.47-1.41-1.17-.27.39-.61.59-1,.59-1,0-1.61-.76-1.61-1.86,0-1.18.62-1.92,1.61-1.92h1.93v2.5c0,.62.29.95.87.95h.55v.9Z"/>
    <path class="cls-1" d="m44.53,29.75h-.86v-.88h.86v.88Zm1.3-1.73h-3.6v-.9h.83c.26,0,.44-.09.53-.27.06-.12.09-.32.09-.6v-1.82h.87v1.77c0,.47-.06.77-.2.91h1.47v.9Zm-2.78,1.73h-.86v-.88h.86v.88Z"/>
    <path class="cls-1" d="m49.04,26.88c0-.28-.07-.52-.21-.72-.16-.21-.39-.32-.66-.32s-.48.1-.63.32c-.13.18-.2.42-.2.69,0,.57.34,1.04.88,1.04.26,0,.48-.1.62-.3.13-.18.2-.42.2-.7m1.68,1.14h-1.12c-.34.46-.8.69-1.41.69s-1.06-.23-1.4-.69h-1.19v-.9h.84c0-.09,0-.17,0-.26,0-.53.16-.96.48-1.3.33-.34.75-.51,1.27-.51s.94.17,1.26.53c.32.36.48.79.48,1.32v.23h.78v.9Z"/>
    <path class="cls-1" d="m52.76,23.71h-.86v-.88h.86v.88Zm1.31,4.31h-3.6v-.9h.81c.26,0,.43-.09.52-.27.06-.12.09-.32.09-.6v-1.82h.86v1.77c0,.46-.06.77-.19.91h1.5v.9Z"/>
    <path class="cls-1" d="m56.11,23.7h-.86v-.88h.86v.88Zm1.31,4.32h-3.6v-.9h.81c.26,0,.43-.09.52-.27.06-.12.09-.32.09-.6v-1.82h.86v1.77c0,.47-.06.77-.19.91h1.5v.9Zm-2.79-4.32h-.86v-.88h.86v.88Z"/>
    <path class="cls-1" d="m59.4,26.59c0,.96-.44,1.43-1.31,1.43h-.92v-.9h.74c.29,0,.47-.09.55-.26.04-.1.06-.29.06-.57v-3.36h.87v3.66Z"/>
  </g>
  <rect class="cls-1" x="60.2" y="22.92" width=".87" height="5.1"/>
  <g>
    <path class="cls-1" d="m67.7,24.95h-1.94v-.53h.42c-.05-.12-.08-.25-.08-.39,0-.5.35-.89.84-.89.34,0,.58.16.72.47l-.37.25c-.05-.17-.16-.25-.33-.25-.23,0-.35.15-.35.45,0,.15.04.27.11.35h.98v.53Zm3.61,3.07h-5.4c-1.65,0-2.48-.74-2.48-2.23v-1.35h.87v1.35c0,.51.15.88.44,1.08.23.17.59.25,1.07.25h2.65c.26,0,.44-.09.52-.27.06-.12.09-.32.09-.6v-3.32h.87v3.28c0,.46-.06.77-.19.92h1.55v.9Z"/>
    <path class="cls-1" d="m73.31,23.71h-.86v-.88h.86v.88Zm1.31,4.31h-3.6v-.9h.81c.26,0,.43-.09.52-.27.06-.12.09-.32.09-.6v-1.82h.87v1.77c0,.46-.06.77-.19.91h1.5v.9Z"/>
    <path class="cls-1" d="m76.58,29.74h-.85v-.88h.85v.88Zm0-3.16c0,.96-.44,1.43-1.3,1.43h-.84v-.9h.66c.29,0,.47-.09.55-.26.04-.1.06-.29.06-.57v-1.86h.87v2.16Z"/>
    <path class="cls-1" d="m2.14,33.6c0-.08-.02-.15-.07-.2-.05-.05-.11-.09-.19-.12-.08-.03-.17-.06-.27-.08-.1-.02-.21-.04-.32-.06-.15-.03-.29-.06-.42-.1-.13-.04-.25-.09-.35-.16-.1-.07-.18-.15-.24-.26-.06-.1-.09-.24-.09-.39,0-.17.03-.32.1-.45.07-.13.16-.23.28-.32.12-.08.26-.15.42-.19.16-.04.34-.06.54-.06s.4.02.6.05c.2.03.38.08.52.13v.51c-.19-.07-.38-.12-.56-.15-.18-.03-.35-.05-.5-.05-.23,0-.4.04-.52.11-.12.07-.18.18-.18.32,0,.08.02.15.06.21.04.05.1.1.16.13.07.04.15.06.24.08.09.02.18.04.29.06.16.03.31.06.46.1.14.04.27.09.39.16.11.07.2.16.27.27.07.11.1.25.1.42s-.04.33-.11.46-.18.23-.32.32c-.14.08-.31.15-.5.19-.2.04-.41.06-.64.06-.2,0-.4-.02-.6-.05-.2-.04-.36-.08-.49-.15v-.51c.19.07.37.12.54.15.18.03.36.05.54.05.11,0,.21,0,.32-.02.11-.02.2-.04.28-.08.08-.04.15-.09.2-.15.05-.07.08-.14.08-.24"/>
    <path class="cls-1" d="m6.39,32.9c0-.2-.03-.37-.08-.52-.06-.15-.13-.27-.23-.37-.1-.1-.22-.17-.35-.22-.14-.05-.29-.07-.45-.07s-.31.02-.45.07c-.14.05-.26.12-.35.22-.1.1-.18.22-.23.37-.06.15-.09.32-.09.52s.03.37.09.52c.06.15.13.27.23.37.1.1.22.17.35.22.14.05.29.07.45.07s.31-.03.45-.07c.14-.05.25-.12.35-.22.1-.1.18-.22.23-.37.06-.15.08-.32.08-.52m.71,0c0,.25-.04.48-.12.69-.08.21-.2.39-.36.54-.16.15-.35.27-.57.35-.23.08-.49.12-.77.12s-.55-.04-.78-.12c-.23-.08-.42-.2-.57-.35-.16-.15-.28-.33-.36-.54-.08-.21-.12-.44-.12-.69s.04-.48.12-.69c.08-.21.2-.39.36-.54.16-.15.35-.27.57-.35.23-.08.49-.12.78-.12s.55.04.77.12c.23.08.42.2.57.35.16.15.27.33.36.54.08.21.12.44.12.69"/>
    <path class="cls-1" d="m9.65,31.71c-.19,0-.36.03-.52.08-.16.05-.29.13-.41.24-.11.1-.2.23-.26.38-.06.15-.1.32-.1.52s.03.36.09.51c.06.15.14.27.25.37.11.1.24.17.4.22.16.05.33.07.53.07.14,0,.29,0,.43-.03.15-.02.29-.05.41-.09v.52c-.13.03-.27.06-.42.08-.15.02-.31.03-.47.03-.32,0-.6-.04-.84-.12-.24-.08-.44-.19-.6-.34-.16-.14-.28-.32-.36-.52-.08-.2-.12-.43-.12-.67s.04-.48.13-.7c.09-.21.21-.4.38-.56.16-.16.37-.28.61-.37.25-.09.52-.14.84-.14.16,0,.31.01.45.03.14.02.27.04.38.08v.51c-.15-.04-.29-.07-.42-.09-.13-.02-.26-.02-.38-.02"/>
  </g>
  <rect class="cls-1" x="11.19" y="31.26" width=".69" height="3.28"/>
  <path class="cls-1" d="m14.21,32.05c-.13.34-.25.63-.35.86l-.13.29h.97l-.13-.29c-.1-.23-.22-.52-.35-.86h0Zm.71,1.65h-1.41l-.37.84h-.73l1.49-3.28h.63l1.49,3.28h-.73l-.37-.84Z"/>
  <polygon class="cls-1" points="17.23 31.26 17.23 34.04 18.99 34.04 18.99 34.54 16.55 34.54 16.55 31.26 17.23 31.26"/>
  <path class="cls-1" d="m21.79,34.04c.4,0,.72-.05.94-.14.2-.09.35-.21.45-.38.1-.16.15-.38.15-.63,0-.13-.02-.25-.05-.36-.03-.11-.08-.2-.15-.29-.06-.08-.14-.15-.23-.22-.09-.06-.19-.11-.31-.15-.11-.04-.23-.06-.36-.08-.13-.02-.28-.02-.44-.02h-.3v2.27h.28Zm-.97.5v-3.28h.99c.09,0,.18,0,.27,0,.09,0,.18.01.26.02.09,0,.17.02.25.04.08.01.15.03.22.05.2.05.38.13.53.23.15.1.28.21.39.34.1.13.18.27.24.43.05.16.08.33.08.52s-.02.34-.07.5c-.04.15-.11.3-.2.42-.09.13-.21.24-.35.34-.14.1-.3.18-.49.24-.16.05-.34.09-.54.12-.2.03-.43.04-.68.04h-.89Z"/>
  <polygon class="cls-1" points="25.46 34.04 27.31 34.04 27.31 34.54 24.77 34.54 24.77 31.26 27.2 31.26 27.2 31.77 25.46 31.77 25.46 32.61 26.96 32.61 26.96 33.12 25.46 33.12 25.46 34.04"/>
  <path class="cls-1" d="m29.43,33.74c.07-.18.12-.3.15-.38s.1-.23.19-.47l.7-1.63h.73l-1.47,3.28h-.62l-1.47-3.28h.73l.69,1.63c.1.24.17.39.2.47.03.08.08.2.15.38h.01Z"/>
  <polygon class="cls-1" points="32.39 34.04 34.23 34.04 34.23 34.54 31.7 34.54 31.7 31.26 34.13 31.26 34.13 31.77 32.39 31.77 32.39 32.61 33.88 32.61 33.88 33.12 32.39 33.12 32.39 34.04"/>
  <polygon class="cls-1" points="35.65 31.26 35.65 34.04 37.4 34.04 37.4 34.54 34.96 34.54 34.96 31.26 35.65 31.26"/>
  <g>
    <path class="cls-1" d="m40.6,32.9c0-.2-.03-.37-.08-.52-.06-.15-.13-.27-.23-.37-.1-.1-.22-.17-.35-.22-.14-.05-.29-.07-.45-.07s-.31.02-.45.07c-.14.05-.26.12-.35.22-.1.1-.18.22-.23.37-.06.15-.09.32-.09.52s.03.37.09.52c.06.15.13.27.23.37.1.1.22.17.35.22.14.05.29.07.45.07s.31-.03.45-.07c.14-.05.25-.12.35-.22.1-.1.18-.22.23-.37.06-.15.08-.32.08-.52m.71,0c0,.25-.04.48-.12.69-.08.21-.2.39-.36.54-.16.15-.35.27-.57.35-.23.08-.49.12-.77.12s-.55-.04-.78-.12c-.23-.08-.42-.2-.57-.35-.16-.15-.28-.33-.36-.54-.08-.21-.12-.44-.12-.69s.04-.48.12-.69c.08-.21.2-.39.36-.54.16-.15.35-.27.57-.35.23-.08.49-.12.78-.12s.55.04.77.12c.23.08.42.2.57.35.16.15.27.33.36.54.08.21.12.44.12.69"/>
    <path class="cls-1" d="m42.73,32.76s.09,0,.15.01c.06,0,.12,0,.19,0,.18,0,.34-.01.47-.04.13-.03.23-.06.3-.11.08-.05.13-.1.17-.17.03-.07.05-.14.05-.22,0-.1-.03-.18-.07-.25-.05-.07-.14-.12-.26-.17-.07-.02-.15-.03-.24-.04-.1-.01-.21-.01-.35-.01h-.39v.99Zm.35.52c-.06,0-.12,0-.18,0-.06,0-.12,0-.17,0v1.28h-.69v-3.28h1.08c.18,0,.34,0,.47.02s.26.04.36.06c.26.07.45.18.59.33.14.15.21.34.21.57,0,.16-.04.3-.11.43-.07.13-.18.23-.33.32-.14.09-.32.16-.53.2-.21.05-.45.07-.71.07"/>
    <path class="cls-1" d="m47.42,33.66c.08-.26.18-.53.31-.83l.65-1.57h.96v3.28h-.69v-1.66c0-.24.01-.53.03-.85h-.03c-.03.09-.07.2-.11.31-.04.11-.09.23-.13.34l-.78,1.85h-.44l-.78-1.85c-.05-.11-.09-.23-.13-.34-.04-.12-.08-.22-.11-.31h-.03c.02.3.04.58.04.85v1.66h-.69v-3.28h.96l.65,1.56c.11.26.21.54.31.84h.02Z"/>
  </g>
  <polygon class="cls-1" points="50.92 34.04 52.77 34.04 52.77 34.54 50.24 34.54 50.24 31.26 52.67 31.26 52.67 31.77 50.92 31.77 50.92 32.61 52.42 32.61 52.42 33.12 50.92 33.12 50.92 34.04"/>
  <path class="cls-1" d="m55.45,32.79c.27.34.49.63.66.89h.02c-.02-.43-.03-.74-.03-.93v-1.49h.69v3.28h-.72l-1.22-1.51c-.21-.26-.44-.57-.67-.91h-.02c.02.4.03.71.03.93v1.48h-.69v-3.28h.72l1.23,1.52Z"/>
  <polygon class="cls-1" points="59.21 34.54 58.52 34.54 58.52 31.77 57.31 31.77 57.31 31.26 60.42 31.26 60.42 31.77 59.21 31.77 59.21 34.54"/>
  <g>
    <path class="cls-1" d="m62.82,33.12v.93h.45c.12,0,.22,0,.31,0,.09,0,.16-.02.22-.03.1-.02.18-.04.24-.07.06-.03.11-.06.15-.1.04-.04.07-.08.08-.13.02-.05.03-.1.03-.15,0-.09-.03-.17-.09-.24-.06-.07-.15-.12-.27-.15-.05-.01-.12-.02-.19-.03-.07,0-.17-.01-.28-.01h-.65Zm.62-.5c.19,0,.33-.02.42-.05.1-.04.18-.09.22-.16.04-.07.07-.14.07-.22s-.03-.16-.08-.23c-.05-.07-.14-.12-.26-.15-.05-.01-.11-.02-.18-.03-.07,0-.15,0-.25,0h-.56v.85h.62Zm1.41-.48c0,.14-.04.27-.11.39-.07.12-.19.22-.36.29h0c.09.04.18.07.26.12.08.04.14.09.2.15.06.06.1.13.13.2.03.08.05.16.05.25,0,.08-.01.17-.04.26-.03.09-.08.18-.15.27-.07.09-.17.16-.29.24-.12.07-.27.13-.46.17-.05,0-.1.02-.15.03-.06,0-.12.01-.18.02-.07,0-.14,0-.23.01-.08,0-.17,0-.28,0h-1.09v-3.28h1.3c.28,0,.5.02.67.07.13.04.24.08.33.14.09.06.17.12.23.19.06.07.1.15.13.23.03.08.04.16.04.24"/>
    <path class="cls-1" d="m67.15,32.05c-.13.34-.25.63-.35.86l-.13.29h.97l-.13-.29c-.1-.23-.22-.52-.35-.86h0Zm.71,1.65h-1.41l-.37.84h-.73l1.49-3.28h.63l1.49,3.28h-.73l-.37-.84Z"/>
    <path class="cls-1" d="m71.44,32.79c.27.34.49.63.66.89h.02c-.02-.43-.03-.74-.03-.93v-1.49h.69v3.28h-.72l-1.22-1.51c-.21-.26-.44-.57-.67-.91h-.02c.02.4.03.71.03.93v1.48h-.69v-3.28h.72l1.23,1.52Z"/>
  </g>
  <polygon class="cls-1" points="73.67 34.54 73.67 31.26 74.35 31.26 74.35 32.76 74.37 32.76 75.78 31.26 76.63 31.26 75.07 32.89 76.76 34.54 75.88 34.54 74.37 33.06 74.35 33.06 74.35 34.54 73.67 34.54"/>
  <g class="cls-3">
    <rect class="cls-4" x="73.66" y="7.76" width="37.2" height="33.51" transform="translate(24.55 91.8) rotate(-59.7)"/>
  </g>
</svg>