<?xml version="1.0" encoding="UTF-8"?>
<svg id="Layer_1" data-name="Layer 1" xmlns="http://www.w3.org/2000/svg" xmlns:xlink="http://www.w3.org/1999/xlink" viewBox="0 0 91 30.41">
  <defs>
    <style>
      .cls-1, .cls-2 {
        fill: none;
      }

      .cls-2 {
        clip-path: url(#clippath);
      }

      .cls-3 {
        fill: #010101;
      }
    </style>
    <clipPath id="clippath">
      <rect class="cls-1" width="71.21" height="30.41"/>
    </clipPath>
  </defs>
  <path class="cls-3" d="m84.5,19.76l2.66-6.31v6.31h-2.66Zm-2.42,2.4h5.09v3.05h2.59v-3.05h1.25v-2.4h-1.25v-11.35h-2.88l-4.8,11.35v2.4Zm-4.03-7.49c-.26.61-.58,1.17-.97,1.68-.39.51-.81,1-1.26,1.45s-.87.94-1.26,1.46c-.39.52-.72,1.09-.97,1.72-.26.62-.38,1.34-.38,2.16v2.06h7.63v-2.4h-4.99c-.02-.08-.02-.2-.02-.36,0-.46.13-.91.38-1.33s.58-.86.97-1.31.82-.92,1.27-1.42c.46-.5.88-1.04,1.27-1.62.39-.58.72-1.23.97-1.94.26-.71.38-1.51.38-2.39,0-1.36-.33-2.4-1-3.13-.66-.73-1.64-1.09-2.94-1.09s-2.28.36-2.94,1.09c-.66.73-1,1.77-1,3.13v1.63h2.5v-1.8c0-.61.12-1.04.37-1.28s.58-.37,1-.37.75.13,1,.4.37.77.37,1.52c0,.82-.13,1.53-.38,2.14"/>
  <g class="cls-2">
    <path class="cls-3" d="m18.78,0l-.37.26-.56.38-1.04.72-1.95,1.34-.09.07-.19.13-.09.07h0c-.97.78-1.21,2.16-.52,3.19.49.74,1,1.49,1.49,2.21l.09.16-1.33.91-1.61-.12v-.18s.12-1.88.12-1.88v-.09l.04-.62v-.09c.08-1.28-.91-2.4-2.2-2.5l-.43-.04c-1.39-.12-2.92-.24-4.19-.34l-.45-.04-.03.45c-.09,1.46-.16,2.75-.25,4.25v.34c-.09,1.25.84,2.34,2.09,2.5h.08c.88.07,1.77.14,2.68.22h.17s-.04.57-.04.57h.01l-.08,1.04-1.09,1.17-.15-.13-.05-.05-1.44-1.28-.05-.04-.48-.42c-.96-.86-2.47-.8-3.36.12-.91.95-1.81,1.9-2.72,2.83l-.47.49L0,15.92l.35.3.49.45c.99.88,1.97,1.75,2.96,2.63l.05.04h.01c.96.8,2.43.74,3.29-.17.61-.65,1.23-1.29,1.85-1.92l.04-.05.07-.07.31.28.89.8.24,1.59h-.05s-.13.04-.13.04l-1.97.34-.71.12c-1.28.22-2.16,1.42-1.97,2.69l.07.42.33,2.21.19,1.24.11.66.07.45.45-.08.67-.12,1.11-.18.13-.03,2.33-.41.33-.05c.72-.13,1.31-.55,1.67-1.13.27-.45.39-1,.31-1.55v-.07s-.03-.05-.03-.05v-.09s-.07-.3-.07-.3l-.03-.13-.31-1.98-.03-.17,1.59-.25,1.39.79h-.01s-.08.16-.08.16l-.16.28-.83,1.45h-.01s-.33.61-.33.61c0,.01-.01.01-.01.03-.61,1.11-.23,2.53.87,3.17l.36.21h.01c1.2.71,2.4,1.41,3.6,2.11l.4.24.23-.4c.32-.55.64-1.12.96-1.67l1.16-2.04h.01s.16-.29.16-.29h.01s.01-.03.01-.03c.61-1.11.23-2.53-.88-3.17h-.03s-.16-.1-.16-.1h-.01s-.36-.22-.36-.22l-1.75-1.03-.16-.09.8-1.4,1.49-.58.07.17.12.29.64,1.54.27.65c.49,1.18,1.85,1.79,3.08,1.33,1.48-.55,3.01-1.12,4.33-1.61.15-.05.27-.11.43-.16-.05-.15-.11-.28-.16-.42-.59-1.43-1.16-2.8-1.68-4.08l-.07-.18c-.48-1.17-1.84-1.78-3.04-1.34h-.01s-.01.01-.01.01c-.84.32-1.68.63-2.52.93l-.17.05-.61-1.49.48-1.52c.96.28,1.96.57,2.79.82h.03c1.21.29,2.28-.32,2.76-1.11.08-.14.15-.29.19-.43l.13-.39.69-2.13.39-1.19.21-.64.15-.43-.44-.13-.65-.18-1.23-.35-.37-.12-1.4-.41-.49-.15-.28-.08h-.04c-1.24-.38-2.57.3-2.97,1.53l-.07.2-.15.42-.61,1.91-.05.17-1.56-.46-.91-1.32.15-.1,1.63-1.15.59-.41c.29-.21.55-.47.71-.76.44-.76.43-1.73-.08-2.5l-.24-.36-1.25-1.86-.71-1.04-.37-.55L18.78,0Zm-.24,1.24h0l.12.19.71,1.03,1.25,1.86.24.35c.32.49.32,1.09.05,1.57-.05.09-.12.18-.19.26-.08.08-.16.16-.25.22l-.59.41-1.63,1.15-.51.36-.36.25-.52.36-.2.14-1.99,1.37-.07.04h-.08c-.67-.05-1.32-.11-1.99-.15l.03-.42,1.76.13h.16s.13-.08.13-.08l1.16-.79.67-.46h.01s.35-.25.35-.25l1.08-.75c.77-.54,1.48-1.03,2.35-1.63.23-.21.32-.34.39-.55.08-.28.09-.61-.07-.86-.08-.15-.19-.29-.27-.41l-1.25-1.86-.32-.47-.25-.38-.37.26-.48.33c-.73.51-1.48,1.03-2.23,1.54-.05.04-.08.07-.11.1-.15.13-.25.32-.31.53-.07.25-.04.58.13.84.49.74,1,1.47,1.49,2.21l.08.13-.35.24-.09-.13c-.49-.74-1-1.47-1.49-2.21-.45-.67-.27-1.58.39-2.04l.09-.07.19-.13.11-.07,1.84-1.28,1.04-.73.13-.16Zm-.35,1.84l.07.09,1.25,1.87.21.32c.09.12.07.18.03.24-.01.01-.04.04-.07.05-.87.59-1.56,1.08-2.33,1.62l-.07-.1c-.49-.74-1-1.47-1.49-2.2-.04-.07-.04-.09-.03-.15s.05-.1.09-.13c.73-.51,1.47-1.03,2.2-1.53l.13-.08Zm-.12.57l-.08.05c-.53.37-1.07.74-1.61,1.12-.07.04-.08.12-.03.18.4.59.79,1.17,1.15,1.71.43-.29.85-.59,1.28-.88.09-.07.17-.13.27-.18l.13-.09c.07-.04.08-.12.03-.18l-.13-.21-.96-1.42-.04-.09Zm-11.71.86c1.17.09,2.51.21,3.73.32l.43.03c.8.07,1.41.76,1.37,1.57h0s-.03.63-.03.63v.09l-.12,1.88v.08s-.05.62-.05.62l-.03.43-.12,1.91-.09,1.36v.08l-.05.05-1.35,1.44-.32-.28,1.2-1.28.11-.12v-.16s.16-2.18.16-2.18l.03-.43h-.01l.04-.7c.01-.18.01-.26.03-.34v-.08c0-.05.01-.09.01-.18.05-.88.11-1.84.16-2.83.04-.58-.41-1.08-.99-1.13-.89-.08-1.79-.15-2.68-.22l-.59-.05-.45-.04-.03.46-.04.59-.13,2.33v.34c-.04.54.33,1.01.87,1.11.25.04.49.05.77.08.61.05,1.43.12,2.17.17l-.03.42h-.16c-.88-.09-1.73-.16-2.6-.22h-.08c-.81-.07-1.43-.78-1.37-1.58l.03-.34c.07-1.34.13-2.53.21-3.81m1.23,1.41h.13c.89.08,1.79.14,2.68.22.11.01.17.08.17.2-.05.98-.11,1.94-.16,2.8-.72-.05-1.43-.12-2.15-.17-.15-.01-.29-.03-.44-.04h-.01l-.21-.03c-.11-.01-.17-.09-.16-.2l.03-.33.13-2.34v-.12Zm.39.45v.09l-.11,1.71v.25c-.01.08.04.15.11.15h.16c.11.01.21.04.33.04.52.04,1.04.09,1.56.13.04-.65.08-1.34.12-2.05,0-.09-.04-.15-.12-.15-.65-.05-1.31-.11-1.96-.16h-.09Zm16.26,1.07h.13c.09,0,.2.03.29.05l.36.11,2.27.66.37.1.85.25.2.05-.07.2-.39,1.19-.69,2.12-.13.41c-.03.09-.07.18-.12.26-.04.05-.08.11-.12.17-.33.38-.93.68-1.64.53-.84-.25-1.87-.54-2.85-.83-.12-.04-.23-.07-.35-.11l-.43-.12-.4-.12-.43-.13-2.32-.68-.08-.03-.04-.07-1.12-1.63.35-.24.99,1.43.09.13.15.04,1.32.4.81.22.41.13.41.12.44.13.07.03.49.14,1.92.57c.23.07.45.13.69.2.49.14,1.01-.08,1.25-.5v-.03c.12-.25.13-.34.21-.55h0v-.03l.69-2.13.17-.55.15-.43-.44-.12-.07-.03-.49-.15-2.28-.66-.13-.04-.16-.05h-.04c-.56-.17-1.16.13-1.35.68l-.07.2-.13.42-.63,1.91-.04.13-.41-.12.05-.15.63-1.91.13-.42.07-.2c.2-.58.8-.97,1.43-.97m.03,1.29h0s.04,0,.05.01l.33.09.12.04,1.65.49.51.15.12.04-.04.1-.69,2.11h0c-.07.21-.11.37-.15.45-.01.01-.01.03-.03.04-.04.04-.11.05-.19.04-.23-.07-.44-.13-.67-.2l-1.41-.41-.49-.14-.13-.04.04-.12.63-1.91.13-.42.07-.2s.03-.07.05-.09c0-.01.04-.03.09-.03m.23.49c-.05,0-.11.03-.12.1-.21.68-.43,1.34-.61,1.96.51.14,1,.28,1.51.42.11.03.21.05.32.09l.15.04c.07.03.15-.01.17-.09l.07-.24.51-1.63.03-.09-.08-.03c-.63-.17-1.27-.36-1.89-.53-.01-.01-.03-.01-.04-.01m-7.69,1.16l1.11,1.61.13.18.09.13.15.04.23.07,1.47.43.41.12c-.19.62-.39,1.24-.59,1.86l-.07.22-.05.14.05.15.09.22c.24.6.49,1.21.75,1.8l-1.84.71-.21.08-.15.05-.08.15-.12.2-.97,1.7-1.71-.97-.2-.12-.13-.08-.15.03-.23.04-1.95.32-.29-1.94-.04-.22-.03-.16-.12-.11-.17-.16-1.13-1.01-.29-.26-.04-.04,1.35-1.44.16-.17.11-.12v-.16s.03-.24.03-.24l.09-1.36.04-.59c.65.05,1.31.09,1.97.14h.24s.16.03.16.03l.13-.09.19-.13,1.29-.88.32-.17Zm-.25,1.32l-.21.14-.8.55-.16.11h-.01l-.11.08-.13.11h-.17s-.13-.03-.13-.03h-.2c-.41-.04-.81-.08-1.23-.11v.04l-.07.95v.22s-.03.2-.03.2v.15s-.03.16-.03.16l-.11.12-.09.1-.13.15-.84.9.28.25.28.25.05.05.29.26.15.13.11.09.12.12.03.16.03.13.03.2.19,1.2,1.21-.2.2-.03h.12s.17-.04.17-.04l.15.09.11.07h.01l.17.09.04.03,1.03.58.6-1.05.11-.17.07-.12.08-.15.16-.07.13-.05.19-.08,1.15-.43c-.16-.38-.31-.75-.47-1.13l-.08-.18-.05-.12-.07-.16.05-.17v-.03s.11-.29.11-.29c.12-.38.24-.78.36-1.16l-.23-.07-.95-.28-.11-.04-.08-.03h-.01l-.12-.03-.17-.05-.11-.15-.08-.12-.12-.17-.21-.3-.45-.68Zm-11.2.78s.08,0,.12.01c.31.04.61.16.85.38l.53.48.05.05,1.44,1.28.05.04.16.15.45.41.13.12,1.31,1.16h.01s1.13,1.03,1.13,1.03l.05.05v.08s.31,1.96.31,1.96l-.41.07-.27-1.73-.03-.16-.12-.1-1.65-1.48-.32-.29-.43-.37-.23-.22c-.76-.67-1.61-1.43-2.45-2.18-.44-.38-1.12-.37-1.52.05l-.29.3-1.56,1.63-.4.42-.32.33.35.3.44.38.05.04,1.71,1.51.25.22.05.04h.04c.44.34,1.05.29,1.44-.1.57-.61,1.28-1.33,1.96-2.03l.32.29-.11.11-.05.04c-.6.62-1.2,1.25-1.8,1.87-.56.58-1.51.62-2.11.08l-.05-.04c-.97-.87-1.95-1.72-2.91-2.59l-.16-.15.15-.16c.91-.95,1.81-1.88,2.72-2.83.08-.08.16-.16.25-.21.03-.03.07-.04.09-.05.21-.13.48-.18.75-.18m15.92.76l.4.12-.52,1.66-.05.14.07.14.83,2.04.17.4.16.39.17.42c.09.22.21.51.31.75.31.74.61,1.5.93,2.28.21.54.84.8,1.39.61,1.03-.38,1.95-.72,3.07-1.13.15-.07.31-.12.43-.17l-.19-.43c-.4-.99-.8-1.95-1.24-3-.21-.54-.84-.8-1.39-.61h-.01c-.8.3-1.73.65-2.64.99l-.16-.4.15-.05c.05-.03.12-.04.17-.07.77-.29,1.55-.58,2.32-.86h.03c.76-.29,1.61.08,1.93.82h0c.49,1.21,1.03,2.52,1.59,3.86-1.23.46-2.57.96-3.91,1.45-.76.29-1.63-.09-1.93-.84l-.27-.66-.75-1.83-.23-.58-.16-.41-.16-.38-.17-.42-.12-.28c-.27-.65-.53-1.29-.8-1.93l-.03-.07.03-.08c.2-.62.39-1.25.59-1.87m-15.95.54h0s.08.03.12.05c.72.64,1.44,1.28,2.11,1.88-.67.7-1.36,1.42-1.93,2.03-.07.06-.17.08-.27,0l-.05-.05-.2-.18-1.76-1.57-.05-.04-.05-.05.08-.09,1.57-1.62.29-.3.03-.03s.08-.04.12-.03m.01.54s-.07.01-.09.04c-.45.46-.91.93-1.36,1.4l-.07.07.07.07,1.28,1.15.19.17c.07.05.15.05.19,0l.11-.11c.08-.08.16-.16.23-.24.36-.37.72-.75,1.08-1.12-.48-.43-1-.9-1.53-1.38-.01-.03-.05-.04-.08-.04m20.88,3.33c.07,0,.13.04.17.13.37.92.72,1.75,1.07,2.61-.92.34-1.75.66-2.64.99-.09.04-.2,0-.24-.12-.36-.88-.73-1.79-1.07-2.61.91-.33,1.83-.67,2.63-.97,0,0,.01,0,0,0,.04-.03.05-.03.08-.03m-.17.51s-.04,0-.05.01l-.24.08-1.63.59-.09.04.03.08c.24.61.48,1.2.72,1.8.03.07.09.11.17.07.68-.25,1.35-.49,1.95-.71-.19-.47-.39-.96-.57-1.43-.04-.11-.08-.2-.12-.3l-.05-.14s-.05-.08-.11-.08m-5.11.04h0l.16.4-1.64.63-.15.05-.08.13-.89,1.55-.2.36h-.01s-.21.39-.21.39l-.44.76-.11.18-.19.33-.11.2-.87,1.53h0s-.33.61-.33.61h-.01s-.01.03-.01.03c-.27.5-.09,1.12.4,1.41h.01s.35.22.35.22h.01s1.92,1.15,1.92,1.15l.51.29h.01s.03.01.03.01l.37.17.2-.36c.09-.17.19-.34.29-.51l1.16-2.04h.01s.16-.29.16-.29h0s.01-.03.01-.03c.27-.5.09-1.12-.4-1.41h-.01s-.16-.11-.16-.11h-.01s-.36-.22-.36-.22l-1.75-1.03-.13-.08.21-.37.13.08,1.75,1.03.39.22h.01s.01.01.01.01l.16.09c.69.41.93,1.32.53,2.02h-.01s-.16.29-.16.29l-1.16,2.04c-.24.42-.49.86-.73,1.28-1.07-.63-2.15-1.26-3.21-1.9h-.01s-.33-.21-.33-.21c-.69-.41-.92-1.3-.53-2v-.03s.35-.59.35-.59h.01s.81-1.45.81-1.45l.16-.28.31-.54.23-.38.21-.37.21-.39,1.2-2.08.04-.07.07-.03,1.83-.71Zm-5.93,1.83l.07.04,1.72.99-.21.37-1.52-.87-.13-.08-.16.03-2.19.36-.44.07h0s-.41.09-.41.09h0s-.45.07-.45.07l-.44.08-.15.03-1.97.34-.71.12c-.57.11-.97.65-.89,1.21l.07.42.33,2.21.08.57.07.45.45-.08.44-.08.13-.03,2.33-.41.35-.07c.32-.05.6-.25.75-.51h.01s.01-.03.01-.03c.11-.21.13-.41.12-.62v-.03h-.01s-.01-.09-.01-.09l-.03-.13-.05-.3-.03-.13-.31-1.97-.03-.13.41-.07.03.15.28,1.86v.13s.05.3.05.3l.03.13.04.21c.05.34-.03.68-.2.96-.21.37-.59.63-1.04.71l-.33.05-2.2.38-.13.03-1.25.22-.21.04-.03-.21-.19-1.24-.33-2.21-.07-.42c-.09-.59.2-1.17.69-1.48.16-.1.35-.17.55-.21l.71-.12,1.83-.32,2.53-.42,1.92-.3.13-.05Zm-4.03,2v.12s.31,1.84.31,1.84l.03.13.04.3.03.13.03.18c0,.08-.03.15-.03.15-.01.01-.01.03-.03.04-.03.03-.05.04-.11.05l-.35.07-2.19.38-.13.03-.13.03v-.12s-.37-2.24-.37-2.24l-.07-.42c-.01-.08.01-.15.08-.18.03-.01.05-.03.08-.03l.69-.12,1.75-.3.37-.04Zm-.36.45h-.09c-.64.12-1.29.24-1.93.34-.08.01-.12.07-.11.16.11.71.2,1.4.31,2.03.52-.09,1.03-.17,1.55-.26.11-.01.21-.04.32-.05l.15-.03c.07-.01.12-.08.11-.16l-.04-.24-.25-1.69v-.1Zm7.44.83h0l.11.07,1.75,1.03.39.22h.03s.16.11.16.11c.08.05.12.15.07.25h-.01s-.16.29-.16.29l-1.16,2.04s-.05.08-.07.12l-.11-.07-1.95-1.15h-.03s-.35-.22-.35-.22c-.09-.05-.12-.15-.05-.25h.01s.33-.61.33-.61l.87-1.53.12-.2.05-.11Zm.13.57l-.04.08-.84,1.5-.12.21c-.04.08-.01.14.04.18l.13.08c.09.05.19.12.28.16.45.26.91.53,1.36.78.32-.57.65-1.17,1-1.79.04-.08.03-.15-.04-.18-.56-.33-1.13-.66-1.69-.97l-.08-.04Z"/>
    <path class="cls-3" d="m36.34,20.95c0,2.78,1.41,4.32,4.08,4.32s4.08-1.54,4.08-4.32v-5.62h-3.95v2.45h1.36v3.36c0,1.11-.47,1.67-1.41,1.67s-1.41-.57-1.41-1.67v-9.39c0-1.13.47-1.7,1.41-1.7s1.41.57,1.41,1.7v1.65h2.59v-1.47c0-2.78-1.41-4.32-4.08-4.32s-4.08,1.54-4.08,4.32v9.03Z"/>
    <path class="cls-3" d="m49.83,25.27c2.68,0,4.12-1.54,4.12-4.37,0-1.08-.23-2.02-.67-2.82-.43-.82-1.21-1.71-2.36-2.7-.92-.79-1.55-1.45-1.89-1.96-.35-.51-.52-1.11-.52-1.71,0-1.11.47-1.65,1.39-1.65s1.37.57,1.37,1.7v.88h2.59v-.71c0-2.78-1.37-4.32-3.97-4.32s-4.08,1.54-4.08,4.27c0,1,.23,1.9.67,2.7.47.82,1.27,1.7,2.39,2.67.92.79,1.55,1.45,1.87,1.99.35.54.52,1.16.52,1.87,0,1.16-.47,1.71-1.44,1.71s-1.41-.57-1.41-1.67v-1.17h-2.59v.99c0,2.75,1.37,4.31,4.03,4.31"/>
    <path class="cls-3" d="m64.04,25.02l-2.84-17.18h-3.71l-2.83,17.18h2.53l.47-3.36h3.16l.47,3.36h2.75Zm-4.8-14.35l1.24,8.67h-2.47l1.23-8.67Z"/>
    <polygon class="cls-3" points="65.5 12.52 65.5 8.52 66.28 8.52 66.28 7.85 63.98 7.85 63.98 8.52 64.76 8.52 64.76 12.52 65.5 12.52"/>
    <polygon class="cls-3" points="67.29 12.52 67.29 8.98 67.85 12.52 68.48 12.52 69.04 8.98 69.04 12.52 69.74 12.52 69.74 7.85 68.69 7.85 68.2 11.23 67.7 7.85 66.65 7.85 66.65 12.52 67.29 12.52"/>
    <path class="cls-3" d="m72.59,24.51v-1.31c0-.92.16-1.8.47-2.64.31-.84.7-1.57,1.16-2.2.46-.62.91-1.24,1.36-1.85.45-.61.83-1.28,1.14-2.01.31-.73.47-1.48.47-2.25v-1.27c0-.29-.09-.53-.27-.71-.18-.18-.42-.27-.71-.27s-.53.09-.71.27c-.18.18-.27.42-.27.71v2.15h-2.63v-1.97c0-1.09.33-1.97.98-2.63.66-.66,1.53-.98,2.63-.98s1.95.33,2.62,1,1,1.54,1,2.61v1.31c0,.82-.12,1.59-.36,2.33-.24.74-.56,1.39-.95,1.95-.39.56-.78,1.11-1.15,1.65-.38.54-.75,1.13-1.12,1.77-.37.64-.63,1.27-.79,1.9h4.38v2.45h-7.22Z"/>
    <path class="cls-3" d="m86.08,24.84c-1.08,0-1.95-.33-2.62-1s-1-1.54-1-2.62v-1.97h2.63v2.15c0,.29.09.53.27.71.18.18.42.27.71.27s.53-.09.71-.27c.18-.18.27-.42.27-.71v-3c0-.29-.09-.53-.27-.71-.18-.18-.42-.27-.71-.27h-1.18v-2.45h1.18c.29,0,.53-.09.71-.27.18-.18.27-.42.27-.71v-3c0-.29-.09-.53-.27-.71-.18-.18-.42-.27-.71-.27s-.53.09-.71.27c-.18.18-.27.42-.27.71v2.15h-2.63v-1.97c0-1.1.33-1.97.99-2.63.66-.66,1.53-.98,2.63-.98s1.95.33,2.62,1,1,1.54,1,2.62v2.41c0,1.08-.34,1.96-1.01,2.63.67.67,1.01,1.55,1.01,2.63v2.41c0,1.1-.33,1.97-.99,2.63-.66.66-1.53.98-2.63.98"/>
  </g>
</svg>