<?xml version="1.0" encoding="UTF-8"?>
<svg id="Layer_1" data-name="Layer 1" xmlns="http://www.w3.org/2000/svg" viewBox="0 0 9.87 9.64">
  <defs>
    <style>
      .cls-1 {
        fill: #f5f6f6;
      }

      .cls-2 {
        fill: #a971b0;
      }
    </style>
  </defs>
  <path class="cls-2" d="m4.56,7.26c.2,0,.38-.09.53-.28.22-.27.43-.55.65-.82.37-.47.73-.95,1.09-1.43.26-.34.52-.67.78-1.01.14-.19.18-.4.06-.61-.2-.35-.67-.38-.93-.06-.07.09-.13.18-.2.27-.31.4-.62.8-.92,1.19-.23.3-.46.6-.69.9-.12.16-.26.31-.38.48-.02.03-.05.07-.1.04-.1-.07-.2-.14-.3-.21-.4-.29-.8-.58-1.21-.85-.2-.13-.42-.15-.63-.03-.34.2-.36.67-.03.91.36.27.74.53,1.11.78.29.2.58.39.85.59.1.08.22.12.34.13M4.94,0c.09,0,.18,0,.26,0,.2,0,.4.03.6.05.24.03.46.1.69.16.2.06.39.14.58.23.63.3,1.18.71,1.64,1.23.27.3.49.64.67.99.11.21.2.42.28.64.07.18.12.37.15.57.03.2.07.39.07.6,0,.24,0,.47,0,.71,0,.14-.02.27-.04.41-.03.23-.1.46-.17.69-.11.36-.27.7-.47,1.02-.15.24-.32.47-.51.69-.36.4-.77.74-1.24,1.01-.3.18-.62.31-.95.42-.16.05-.33.09-.5.13-.28.06-.57.09-.86.09-.16,0-.32,0-.48,0-.17,0-.34-.02-.51-.04-.19-.02-.37-.08-.55-.12-.3-.07-.58-.19-.86-.32-.29-.14-.56-.3-.82-.5-.31-.24-.59-.51-.85-.8-.2-.24-.37-.5-.52-.77-.14-.24-.24-.5-.34-.76-.06-.16-.09-.32-.13-.48-.05-.23-.09-.46-.09-.69,0-.21,0-.42,0-.63,0-.16.01-.32.04-.47.03-.24.1-.46.17-.69.11-.34.26-.67.44-.98.16-.27.34-.51.55-.75.34-.39.74-.71,1.19-.98.29-.17.61-.31.93-.42.18-.06.37-.11.56-.15C4.22.01,4.58,0,4.94,0"/>
  <path class="cls-1" d="m4.56,7.26c-.12,0-.23-.05-.34-.13-.28-.21-.57-.4-.85-.59-.37-.26-.75-.51-1.11-.78-.33-.24-.31-.71.03-.91.21-.12.43-.11.63.03.41.28.82.56,1.21.85.1.07.2.14.3.21.06.04.08,0,.1-.04.11-.17.25-.32.38-.48.23-.3.46-.6.69-.9.31-.4.61-.8.92-1.19.07-.09.13-.18.2-.27.26-.32.74-.29.93.06.12.21.08.42-.06.61-.26.34-.52.67-.78,1.01-.37.47-.73.95-1.09,1.43-.21.28-.43.55-.65.82-.14.18-.32.28-.52.28"/>
</svg>