<?xml version="1.0" encoding="utf-8"?>
<!-- Generator: Adobe Illustrator 27.3.1, SVG Export Plug-In . SVG Version: 6.00 Build 0)  -->
<svg version="1.1" id="Layer_1" xmlns="http://www.w3.org/2000/svg" xmlns:xlink="http://www.w3.org/1999/xlink" x="0px" y="0px"
	 viewBox="0 0 16 16" style="enable-background:new 0 0 16 16;" xml:space="preserve">
<path d="M9.5,1.5C9.5,2.3,8.8,3,8,3S6.5,2.3,6.5,1.5S7.2,0,8,0S9.5,0.7,9.5,1.5 M6,5.5L1.5,5.1C1.2,5,1,4.8,1,4.5C1,4.2,1.3,4,1.5,4
	h12.9C14.8,4,15,4.2,15,4.5c0,0.3-0.2,0.5-0.5,0.5L10,5.5V9l0.5,6.4c0,0.3-0.2,0.6-0.5,0.6c-0.3,0-0.5-0.1-0.6-0.4L8.2,10
	c-0.1-0.3-0.4-0.3-0.5,0l-1.2,5.6C6.5,15.9,6.2,16.1,6,16c-0.3-0.1-0.4-0.3-0.4-0.6L6,9V5.5z"/>
</svg>
