<?xml version="1.0" encoding="utf-8"?>
<!-- Generator: Adobe Illustrator 25.4.1, SVG Export Plug-In . SVG Version: 6.00 Build 0)  -->
<svg version="1.1" id="Layer_1" xmlns="http://www.w3.org/2000/svg" xmlns:xlink="http://www.w3.org/1999/xlink" x="0px" y="0px"
	 viewBox="0 0 512 512" style="enable-background:new 0 0 512 512;" xml:space="preserve">
<style type="text/css">
	.st0{stroke:#000000;stroke-width:5;stroke-miterlimit:10;}
	.st1{stroke:#000000;stroke-width:10;stroke-miterlimit:10;}
</style>
<path class="st0" d="M480.5,135.9c0-2.1-0.4-4.2-1.2-6.1c0-0.5,0-1,0-1.4l0,0l-40.8-81.6c-3.1-7.8-10.7-13-19.2-12.9h-347
	c-9.6-0.3-18.1,6.2-20.4,15.5L31.5,131c-0.1,0.7-0.1,1.4,0,2c-0.1,1-0.1,1.9,0,2.9v326.5c0,11.3,9.1,20.4,20.4,20.4h408.2
	c11.3,0,20.4-9.1,20.4-20.4V135.9L480.5,135.9z M88.3,74.7h318.4l20.4,40.8h-349L88.3,74.7z M439.7,442.1H72.4V156.4h367.4V442.1z"
	/>
<path class="st1" d="M244.8,397.8c6.8,4.5,15.6,4.5,22.5,0l61.2-40.8c9.9-5.3,13.7-17.7,8.3-27.6c-5.3-9.9-17.7-13.7-27.6-8.3
	c-1.1,0.6-2.2,1.3-3.2,2.1l-29.6,20.4V217.6c0-11.3-9.1-20.4-20.4-20.4c-11.3,0-20.4,9.1-20.4,20.4v125.1L206,322.3
	c-9.9-5.3-22.3-1.6-27.6,8.3c-4.6,8.7-2.5,19.4,5.2,25.5L244.8,397.8z"/>
</svg>
