<svg xmlns="http://www.w3.org/2000/svg" viewBox="0 0 22.11 20.71"><defs><style>.cls-1{fill:#49439b;}.cls-2{fill:#fbd14b;}.cls-3{fill:#6b5da9;}.cls-4{fill:#8bcaef;}.cls-5{fill:#58b9db;}.cls-6{fill:#333080;}.cls-7{fill:#fff;}</style></defs><g id="Layer_2" data-name="Layer 2"><g id="Layer_1-2" data-name="Layer 1"><path class="cls-1" d="M.46,9.48,0,8.71V8.43l.43-.7A2.42,2.42,0,0,1,1,7.06,11.08,11.08,0,0,1,2.19,5.93,13.25,13.25,0,0,1,4.58,4.41a10.85,10.85,0,0,1,3-1,.57.57,0,0,1,.26,0c0,.12-.07.11-.13.12a8.2,8.2,0,0,0-1.07.32,9.67,9.67,0,0,0-2.6,1.56A10.26,10.26,0,0,0,1.85,8a3.49,3.49,0,0,0-.2.44A.78.78,0,0,0,1.77,9a7.74,7.74,0,0,0,1.16,1.58A10.68,10.68,0,0,0,5.1,12.47a8,8,0,0,0,2.4,1.07.32.32,0,0,1,.19.07c0,.06,0,.07-.07.09a6.9,6.9,0,0,1-1.33-.3A12.3,12.3,0,0,1,2,11.06,9,9,0,0,1,.55,9.62S.46,9.54.46,9.48"/><path class="cls-2" d="M.46,9.48c.08.09.18.19.26.29A12.92,12.92,0,0,0,5.24,13a9.35,9.35,0,0,0,2.39.68,1.23,1.23,0,0,1,.47,0,9.39,9.39,0,0,0,3.34-.32,12.39,12.39,0,0,0,4.61-2.56,9.75,9.75,0,0,0,1.28-1.29s.07-.11.15-.1a8.43,8.43,0,0,1-2,4.73A8.32,8.32,0,0,1,10.6,17,8.38,8.38,0,0,1,3.34,15,8.34,8.34,0,0,1,.54,10.2C.49,10,.46,9.74.42,9.52c0,0,0,0,0,0"/><path class="cls-2" d="M7.87,3.45a10,10,0,0,0-3.2,1A12.67,12.67,0,0,0,.75,7.35c-.11.12-.21.25-.32.38a8.44,8.44,0,0,1,5-6.95A8.11,8.11,0,0,1,9.35,0,8.55,8.55,0,0,1,17.18,6.2c.14.5.2,1,.3,1.53-.07,0-.1,0-.14-.08s-.27-.31-.4-.46A12.07,12.07,0,0,0,14.6,5.25a12.07,12.07,0,0,0-2.85-1.37,9.8,9.8,0,0,0-3.48-.44c-.14,0-.27.07-.4,0"/><path class="cls-3" d="M7.87,3.45c.38,0,.76-.06,1.15-.06a10.17,10.17,0,0,1,5.06,1.48A12.63,12.63,0,0,1,17.3,7.52l.18.21.36.6a.46.46,0,0,1,0,.48l-.36.6a11.7,11.7,0,0,1-1.65,1.65,11.92,11.92,0,0,1-5.18,2.53,8.51,8.51,0,0,1-3,.07s0-.05,0-.05a7.27,7.27,0,0,1-1.85-.7A10.86,10.86,0,0,1,3.9,11.63a10.34,10.34,0,0,1-2-2.22,5.07,5.07,0,0,1-.32-.61A.87.87,0,0,1,1.8,8,7.76,7.76,0,0,1,3,6.44,10.54,10.54,0,0,1,5.5,4.38,7.54,7.54,0,0,1,7.78,3.5l.09,0"/><path class="cls-4" d="M9.84,4.05a4.1,4.1,0,0,1,2,.92,4.48,4.48,0,0,1,1.73,3.84A4.58,4.58,0,0,1,10,13.08H9.84a2.07,2.07,0,0,1-1-.26,4.57,4.57,0,0,1-2.66-3.3,4.51,4.51,0,0,1,.9-3.84A4.64,4.64,0,0,1,9.38,4.12a1,1,0,0,1,.46-.07"/><path class="cls-5" d="M9.84,4.05a4.62,4.62,0,0,0,0,9,3.73,3.73,0,0,1-1.41.07,2.91,2.91,0,0,1-1.27-.28A4.62,4.62,0,0,1,5,11a4.67,4.67,0,0,1,.34-5.42A4.63,4.63,0,0,1,7.8,4.05,1.62,1.62,0,0,1,8.42,4a4,4,0,0,1,1.42.07"/><path class="cls-1" d="M8.42,4a4.62,4.62,0,0,0-.37,9.13,2.32,2.32,0,0,0,.38.05,4.52,4.52,0,0,1-.64,0,4.57,4.57,0,0,1-2.08-.87A4.44,4.44,0,0,1,4,9.55a4.55,4.55,0,0,1-.1-1.16,4.42,4.42,0,0,1,1-2.71A4.52,4.52,0,0,1,7.55,4.05,6.38,6.38,0,0,1,8.42,4"/><path class="cls-6" d="M11.19,8.4a2.29,2.29,0,0,1-4.55.5,2.19,2.19,0,0,1,1-2.23,2.21,2.21,0,0,1,2.43-.07l.15.08c0,.1-.06.14-.11.19a.88.88,0,0,0-.21,1,1,1,0,0,0,.84.61c.15,0,.29-.08.45,0"/><path class="cls-7" d="M11.19,8.4a1,1,0,0,1-1.39-1,1.09,1.09,0,0,1,.42-.77,3.47,3.47,0,0,1,.46-.13,1,1,0,0,1,1,.67,1,1,0,0,1-.52,1.18"/><path d="M14.79,16.5a10.67,10.67,0,0,0,2.43-2.68l1.29,1.12c.82.71,1.64,1.41,2.45,2.13a3.44,3.44,0,0,1,1,1,1.79,1.79,0,0,1-.43,2.14,1.75,1.75,0,0,1-2.32,0c-.73-.61-1.45-1.25-2.17-1.88s-1.35-1.15-2-1.73l-.2-.18"/></g></g></svg>