<svg xmlns="http://www.w3.org/2000/svg" viewBox="0 0 9.64 9.64"><defs><style>.cls-1{fill:#089246;}.cls-2{fill:#f5f5f5;}</style></defs><g id="Layer_2" data-name="Layer 2"><g id="Layer_1-2" data-name="Layer 1"><path class="cls-1" d="M4.45,7.26A.7.7,0,0,0,5,7l.63-.82c.36-.48.71-1,1.07-1.43l.75-1a.51.51,0,0,0,.06-.61.54.54,0,0,0-.91-.06l-.2.27-.9,1.19-.68.91c-.12.16-.25.31-.36.48s0,.07-.1,0-.2-.13-.3-.21c-.38-.29-.78-.57-1.18-.85a.55.55,0,1,0-.65.88c.36.27.72.53,1.09.78s.56.39.83.6a.62.62,0,0,0,.33.13M4.82,0h.26a3.93,3.93,0,0,1,.59.06,3.84,3.84,0,0,1,.67.16A3.88,3.88,0,0,1,6.9.45,4.77,4.77,0,0,1,8.5,1.67a5.33,5.33,0,0,1,.66,1,5.24,5.24,0,0,1,.27.65,3.56,3.56,0,0,1,.15.56,4.07,4.07,0,0,1,.06.6c0,.23,0,.47,0,.7a1.84,1.84,0,0,1,0,.41,4.18,4.18,0,0,1-.16.7A4.69,4.69,0,0,1,9,7.3a5.49,5.49,0,0,1-.5.69A5.12,5.12,0,0,1,7.27,9a5.19,5.19,0,0,1-.93.42l-.48.13A4,4,0,0,1,5,9.64H4.56a2.74,2.74,0,0,1-.5,0,3.49,3.49,0,0,1-.54-.12,4.27,4.27,0,0,1-.84-.32,4.4,4.4,0,0,1-.8-.49,5.3,5.3,0,0,1-.83-.81,5,5,0,0,1-.5-.76,4.6,4.6,0,0,1-.33-.76,4.27,4.27,0,0,1-.13-.48A4.06,4.06,0,0,1,0,5.16C0,5,0,4.74,0,4.53a2.42,2.42,0,0,1,0-.47A3.85,3.85,0,0,1,.2,3.37a4.32,4.32,0,0,1,.44-1,4.41,4.41,0,0,1,.53-.75,4.87,4.87,0,0,1,1.16-1A4.45,4.45,0,0,1,3.24.24c.18-.06.36-.1.54-.15a4.07,4.07,0,0,1,1-.09"/><path class="cls-2" d="M4.45,7.25a.54.54,0,0,1-.33-.12c-.27-.21-.55-.4-.83-.6S2.56,6,2.2,5.75a.55.55,0,1,1,.65-.88c.4.28.8.56,1.18.85l.3.21s.08,0,.1,0,.24-.32.36-.49l.68-.9.9-1.19.2-.27a.54.54,0,0,1,.91.06.51.51,0,0,1-.06.61l-.75,1C6.31,5.2,6,5.68,5.6,6.16L5,7a.64.64,0,0,1-.52.27"/></g></g></svg>