<?xml version="1.0" encoding="utf-8"?>
<!-- Generator: Adobe Illustrator 25.4.1, SVG Export Plug-In . SVG Version: 6.00 Build 0)  -->
<svg version="1.1" id="Layer_1" xmlns="http://www.w3.org/2000/svg" xmlns:xlink="http://www.w3.org/1999/xlink" x="0px" y="0px"
	 viewBox="0 0 448.5 169.7" style="enable-background:new 0 0 448.5 169.7;" xml:space="preserve">
<style type="text/css">
	.st0{fill:#E8F4E8;}
	.st1{fill:none;}
	.st2{fill:#DCD7EB;}
	.st3{fill:#744294;}
	.st4{fill:#FFFFFF;}
	.st5{fill:#F9F1E1;}
	.st6{fill:#DBB027;}
	.st7{fill:#4D4D4F;}
	.st8{fill:#A970AF;}
	.st9{fill:#E7DAEC;}
	.st10{fill:#B48E2E;}
	.st11{fill:#E9DDC4;}
	.st12{fill:#D4A628;}
	.st13{fill:url(#SVGID_1_);}
	.st14{fill:url(#SVGID_00000026861944376304074840000000735635027949024402_);}
	.st15{fill:url(#SVGID_00000137834645501851676090000010612036181078495619_);}
	.st16{fill:url(#SVGID_00000077323783858443960370000012420971354811941525_);}
	
	
	*{
        -webkit-animation-play-state: paused;
                animation-play-state: paused;
    }

    .play-svg-anim *{
        -webkit-animation-play-state: running;
                animation-play-state: running;
    }
	
	
	
	#icon
	{
    opacity: 0;
    animation-fill-mode: forwards;
    animation-iteration-count: 1;
    animation-name: zoom;
    animation-duration: 3s;
   animation-delay: 0s;
	transform-origin: 224.65px 28.5px;
}
	#title
	{
    opacity: 0;
    animation-fill-mode: forwards;
    animation-iteration-count: 1;
    animation-name: zoom;
    animation-duration: 3s;
   animation-delay: 0.5s;
	transform-origin: 225.85px 74.7px;
}
	
	#bx1,#bx2,#bx3,#bx4,#bx5
	{
    opacity: 0;
    animation-fill-mode: forwards;
    animation-iteration-count: 1;
    animation-name: zoom;
    animation-duration: 3s;

}

#bx1 {animation-delay: 1s; transform-origin: 187.5px 88.1px;}
#bx2 {animation-delay: 2s; transform-origin: 209.9px 88.1px;}
#bx3 {animation-delay: 3s; transform-origin: 224.75px 88.1px;}
#bx4 {animation-delay: 2s; transform-origin: 246.5px 88.1px;}
#bx5 {animation-delay: 1s; transform-origin: 268.1px 88.1px;}

	


@keyframes zoom {
    0% {
        transform: scale(0, 0);
        opacity: 1;
    }

    100% {
        transform: scale(1, 1);
        opacity: 1;
    }
}

	
</style>
<g>
	<polygon class="st0" points="13,130.6 160.7,86.5 160.7,66.3 13,66 	"/>
	<rect x="4" y="58" class="st1" width="165.8" height="73.6"/>
</g>
<g>
	<polygon class="st0" points="435.8,130.6 289.8,86.3 289.8,66 435.8,66 	"/>
	<rect x="280.8" y="58" class="st1" width="164" height="73.6"/>
</g>
<g id="bx4">
	<polygon class="st2" points="246.5,88.1 265.9,88.1 350.5,131 269.6,131 	"/>
	<rect x="269.5" y="131" class="st3" width="81" height="27"/>
	<g>
		<path class="st4" d="M334.7,141.7v-5.2l-1,0.5v4.6H334.7z M330.6,141.7c0.5,0,0.9-0.1,1.2-0.4c0.3-0.3,0.5-0.7,0.5-1.2v-3.5
			l-1,0.5v3c0,0.3-0.1,0.4-0.2,0.5c-0.1,0.1-0.3,0.2-0.5,0.2h-0.5v1H330.6z M329.4,140.6c-0.1-0.1-0.1-0.2-0.1-0.4v-2l-1,0.5v1.5
			c0,0.2,0,0.4-0.1,0.4c-0.1,0.1-0.2,0.1-0.4,0.1H327v1h0.8c0.4,0,0.7-0.1,1-0.3c0.3,0.2,0.6,0.3,1,0.3h0.8v-1h-0.7
			C329.6,140.8,329.5,140.7,329.4,140.6z M329.5,137c0-0.2,0-0.3-0.1-0.4c-0.1-0.1-0.2-0.1-0.4-0.1c-0.2,0-0.3,0-0.4,0.1
			c-0.1,0.1-0.1,0.2-0.1,0.4c0,0.2,0,0.3,0.1,0.4c0.1,0.1,0.2,0.1,0.4,0.1C329.3,137.5,329.5,137.3,329.5,137z M328.3,137
			c0-0.2,0-0.3-0.1-0.4c-0.1-0.1-0.2-0.1-0.4-0.1s-0.3,0-0.4,0.1c-0.1,0.1-0.1,0.2-0.1,0.4c0,0.2,0,0.3,0.1,0.4
			c0.1,0.1,0.2,0.1,0.4,0.1C328.1,137.5,328.3,137.3,328.3,137z M326.3,140.6c-0.1-0.1-0.1-0.2-0.1-0.4v-2l-1,0.5v1.5
			c0,0.2,0,0.4-0.1,0.4c-0.1,0.1-0.2,0.1-0.4,0.1h-0.7v1h0.8c0.4,0,0.7-0.1,1-0.3c0.3,0.2,0.6,0.3,1,0.3h0.8v-1h-0.7
			C326.6,140.8,326.4,140.7,326.3,140.6z M326,136.8c0-0.2,0-0.3-0.1-0.4c-0.1-0.1-0.2-0.1-0.4-0.1c-0.2,0-0.3,0-0.4,0.1
			c-0.1,0.1-0.1,0.2-0.1,0.4c0,0.2,0,0.3,0.1,0.4c0.1,0.1,0.2,0.1,0.4,0.1C325.8,137.4,326,137.2,326,136.8z M319.2,140.8v-0.2
			c0.2-0.5,0.5-0.9,0.8-1.1c0.3-0.3,0.7-0.4,1.1-0.4c0.3,0,0.5,0.1,0.7,0.3c0.2,0.2,0.3,0.5,0.3,0.8v0.2c0,0.2,0,0.4-0.1,0.4
			c-0.1,0.1-0.2,0.1-0.3,0.1H319.2z M323.1,140.2v-0.2c0-0.5-0.2-1-0.5-1.4c-0.4-0.4-0.9-0.7-1.5-0.7c-0.7,0-1.3,0.3-1.9,0.8v-2.3
			l-1,0.5v3.4l-0.1,0.3h-1.4v1h5c0.4,0,0.7-0.1,0.9-0.3c0.2,0.2,0.6,0.3,0.9,0.3h0.8v-1h-0.7C323.3,140.8,323.1,140.6,323.1,140.2z
			 M321.6,136.8c0-0.2,0-0.3-0.1-0.4c-0.1-0.1-0.2-0.1-0.4-0.1c-0.2,0-0.3,0-0.4,0.1c-0.1,0.1-0.1,0.2-0.1,0.4c0,0.2,0,0.3,0.1,0.4
			c0.1,0.1,0.2,0.1,0.4,0.1C321.4,137.4,321.6,137.2,321.6,136.8z M315.1,143c0,0.2,0,0.3,0.1,0.4s0.2,0.1,0.4,0.1
			c0.3,0,0.5-0.2,0.5-0.5c0-0.2,0-0.3-0.1-0.4c-0.1-0.1-0.2-0.1-0.4-0.1C315.3,142.5,315.1,142.6,315.1,143z M313.9,143
			c0,0.2,0,0.3,0.1,0.4s0.2,0.1,0.4,0.1c0.3,0,0.5-0.2,0.5-0.5c0-0.2,0-0.3-0.1-0.4c-0.1-0.1-0.2-0.1-0.4-0.1
			C314,142.5,313.9,142.6,313.9,143z M316,140.6c-0.1-0.1-0.1-0.2-0.1-0.4v-2l-1,0.5v1.5c0,0.2,0,0.4-0.1,0.4
			c-0.1,0.1-0.2,0.1-0.4,0.1h-0.7v1h0.8c0.4,0,0.7-0.1,1-0.3c0.3,0.2,0.6,0.3,1,0.3h0.8v-1h-0.7C316.3,140.8,316.1,140.7,316,140.6z
			 M311.3,140.8c-0.4,0-0.6-0.3-0.6-0.9c0-0.3,0.1-0.5,0.2-0.6c0.1-0.2,0.3-0.2,0.5-0.2c0.3,0,0.4,0.2,0.4,0.5v0.8
			C311.8,140.6,311.6,140.8,311.3,140.8z M312.9,140.6c-0.1-0.1-0.1-0.2-0.1-0.4v-0.7c0-0.4-0.1-0.8-0.3-1c-0.3-0.3-0.6-0.5-1.1-0.5
			c-0.5,0-0.8,0.1-1.1,0.4c-0.3,0.3-0.5,0.8-0.5,1.4c0,0.3,0.1,0.6,0.2,0.9c-0.4,0-0.7,0.2-0.9,0.5c-0.2,0.3-0.3,0.6-0.3,1v2l1-0.5
			v-1.4c0-0.2,0-0.4,0.1-0.4c0.1-0.1,0.2-0.1,0.4-0.1h1.1c0.4,0,0.8-0.1,1-0.3c0.3,0.2,0.6,0.3,0.9,0.3h0.8v-1h-0.7
			C313.2,140.8,313,140.7,312.9,140.6z M304.9,140.5c-0.1,0.1-0.3,0.2-0.5,0.2c-0.4,0-0.6-0.3-0.6-0.8c0-0.3,0.1-0.5,0.2-0.6
			c0.1-0.2,0.3-0.2,0.5-0.2c0.3,0,0.5,0.2,0.5,0.5V140.5z M304,142.4c-0.3,0-0.6-0.1-0.9-0.2v0.9c0.3,0.2,0.6,0.3,1,0.3
			c0.5,0,1-0.2,1.3-0.5c0.3-0.4,0.5-0.9,0.5-1.5v-1.7c0-0.4-0.1-0.8-0.3-1c-0.3-0.3-0.6-0.5-1.1-0.5c-0.5,0-0.8,0.1-1.1,0.4
			c-0.3,0.3-0.5,0.8-0.5,1.4c0,0.4,0.1,0.8,0.4,1.1c0.3,0.4,0.7,0.6,1.2,0.6c0.2,0,0.3,0,0.5,0C304.8,142.1,304.5,142.4,304,142.4z
			 M301.7,138.2l-1,0.5v2.6c0,0.3-0.1,0.6-0.2,0.8c-0.2,0.2-0.4,0.3-0.7,0.3c-0.3,0-0.5-0.1-0.8-0.2v0.9c0.3,0.2,0.6,0.3,1,0.3
			c0.5,0,0.9-0.2,1.2-0.5c0.3-0.4,0.5-0.9,0.5-1.5V138.2z M298.3,141.7v-5.2l-1,0.5v4.6H298.3z M298.4,136.1l0.3-0.5h-0.8l-0.1-0.2
			c0-0.2,0.1-0.2,0.3-0.2c0.1,0,0.3,0.1,0.4,0.2v-0.5c-0.1-0.1-0.3-0.2-0.4-0.2c-0.2,0-0.3,0.1-0.5,0.2c-0.1,0.1-0.2,0.3-0.2,0.4
			c0,0.1,0,0.2,0.1,0.3h-0.2l-0.3,0.5H298.4z M294.8,140.2c0,0.2,0,0.4-0.1,0.4c-0.1,0.1-0.2,0.1-0.4,0.1h-0.5c-0.2,0-0.3,0-0.4-0.1
			c-0.1-0.1-0.1-0.2-0.1-0.4v-1.8l-1,0.5v1.3c0,0.2,0,0.4-0.1,0.4c-0.1,0.1-0.2,0.1-0.4,0.1H291c-0.2,0-0.3,0-0.4-0.1
			c-0.1-0.1-0.1-0.2-0.1-0.4v-1.6l-1,0.5v2.1c0,0.3-0.1,0.6-0.3,0.8c-0.2,0.2-0.5,0.3-0.9,0.3c-0.4,0-0.6-0.1-0.9-0.4
			c-0.2-0.3-0.3-0.6-0.3-1c0-0.4,0.1-0.8,0.3-1.1l-1,0.2c-0.2,0.3-0.3,0.7-0.3,1.1c0,0.5,0.2,1,0.5,1.4c0.4,0.5,1,0.8,1.7,0.8
			c0.5,0,1-0.1,1.4-0.4c0.4-0.3,0.7-0.7,0.8-1.2c0.2,0,0.3,0.1,0.5,0.1h0.8c0.4,0,0.7-0.1,0.9-0.3c0.3,0.2,0.6,0.3,1,0.3h0.8
			c0.4,0,0.8-0.1,1-0.4c0.3-0.3,0.4-0.6,0.4-1.1v-2.1l-1,0.5V140.2z"/>
		<path class="st4" d="M333.7,150.7v-5.2l-1,0.5v4.6H333.7z M329.6,150.7c0.5,0,0.9-0.1,1.2-0.4c0.3-0.3,0.5-0.7,0.5-1.2v-3.5
			l-1,0.5v3c0,0.3-0.1,0.4-0.2,0.5c-0.1,0.1-0.3,0.2-0.5,0.2h-0.5v1H329.6z M326,148.9c0-0.6,0.2-1,0.6-1c0.4,0,0.6,0.3,0.6,1
			c0,0.7-0.2,1-0.6,1C326.2,149.9,326,149.6,326,148.9z M328.4,149.6c-0.1-0.1-0.1-0.2-0.1-0.4V149c0-0.5-0.1-1-0.4-1.3
			c-0.3-0.4-0.7-0.6-1.2-0.6c-0.5,0-0.9,0.2-1.1,0.5c-0.3,0.3-0.5,0.8-0.5,1.5v0.2c0,0.2,0,0.4-0.1,0.4c-0.1,0.1-0.2,0.1-0.4,0.1
			h-0.7v1h0.8c0.4,0,0.7-0.1,1-0.3c0.3,0.3,0.7,0.5,1.1,0.5c0.5,0,0.8-0.2,1.1-0.5c0.2,0.2,0.6,0.3,0.9,0.3h0.8v-1h-0.7
			C328.6,149.8,328.5,149.7,328.4,149.6z M324.2,150.7v-1h-0.7c-0.2,0-0.3,0-0.4-0.1c-0.1-0.1-0.1-0.2-0.1-0.4v-3.6l-1,0.5v3.1
			c0,0.4,0.1,0.8,0.3,1c0.3,0.3,0.6,0.5,1.1,0.5H324.2z M320.5,145.6l-1,0.5v4c0,0.4-0.1,0.7-0.3,0.9c-0.2,0.2-0.5,0.3-0.9,0.3
			c-0.4,0-0.7-0.1-0.9-0.3c-0.2-0.2-0.3-0.5-0.3-0.9c0-0.4,0.1-0.8,0.3-1.2l-1,0.2c-0.2,0.3-0.3,0.7-0.3,1.1c0,0.5,0.2,1,0.5,1.4
			c0.4,0.5,1,0.8,1.8,0.8c0.6,0,1.2-0.2,1.6-0.5c0.5-0.4,0.7-1,0.7-1.6V145.6z M312.8,150.7v-5.2l-1,0.5v4.6H312.8z M308.7,150.7
			c0.5,0,0.9-0.1,1.2-0.4c0.3-0.3,0.5-0.7,0.5-1.2v-3.5l-1,0.5v3c0,0.3-0.1,0.4-0.2,0.5c-0.1,0.1-0.3,0.2-0.5,0.2h-0.5v1H308.7z
			 M306.5,151.6c-0.1,0.1-0.1,0.2-0.1,0.4c0,0.2,0,0.3,0.1,0.4c0.1,0.1,0.2,0.1,0.4,0.1c0.3,0,0.5-0.2,0.5-0.5c0-0.2,0-0.3-0.1-0.4
			c-0.1-0.1-0.2-0.1-0.4-0.1S306.6,151.5,306.5,151.6z M307.5,149.6c-0.1-0.1-0.1-0.2-0.1-0.4v-2l-1,0.5v1.5c0,0.2,0,0.4-0.1,0.4
			c-0.1,0.1-0.2,0.1-0.4,0.1h-0.7v1h0.8c0.4,0,0.7-0.1,1-0.3c0.3,0.2,0.6,0.3,1,0.3h0.8v-1h-0.7
			C307.7,149.8,307.6,149.7,307.5,149.6z M297.3,150.7c0.4,0,0.7-0.1,1-0.4c0.3,0.2,0.6,0.4,1,0.4h0.8c0.4,0,0.7-0.1,0.9-0.4
			c0.3,0.2,0.6,0.4,1,0.4h0.8c0.4,0,0.7-0.1,1-0.4c0.3,0.3,0.6,0.4,1.1,0.4h0.8v-1h-0.7c-0.2,0-0.4-0.1-0.5-0.2
			c-0.1-0.1-0.2-0.3-0.2-0.5v-1.9l-1,0.5v1.5c0,0.2,0,0.4-0.1,0.4c-0.1,0.1-0.2,0.1-0.4,0.1H302c-0.2,0-0.3,0-0.4-0.1
			c-0.1-0.1-0.1-0.2-0.1-0.4v-1.8l-1,0.5v1.3c0,0.2,0,0.4-0.1,0.4c-0.1,0.1-0.2,0.1-0.4,0.1h-0.5c-0.2,0-0.3,0-0.4-0.1
			c-0.1-0.1-0.1-0.2-0.1-0.4v-1.6l-1,0.5v1.1c0,0.2,0,0.4-0.1,0.4c-0.1,0.1-0.2,0.1-0.4,0.1h-0.8v1H297.3z M302,146
			c0-0.2,0-0.3-0.1-0.4c-0.1-0.1-0.2-0.1-0.4-0.1s-0.3,0-0.4,0.1c-0.1,0.1-0.1,0.2-0.1,0.4c0,0.2,0,0.3,0.1,0.4
			c0.1,0.1,0.2,0.1,0.4,0.1C301.9,146.5,302,146.3,302,146z M300.8,146c0-0.2,0-0.3-0.1-0.4c-0.1-0.1-0.2-0.1-0.4-0.1
			c-0.2,0-0.3,0-0.4,0.1c-0.1,0.1-0.1,0.2-0.1,0.4c0,0.2,0,0.3,0.1,0.4c0.1,0.1,0.2,0.1,0.4,0.1C300.6,146.5,300.8,146.3,300.8,146z
			 M301.4,144.8c0-0.3-0.2-0.5-0.5-0.5c-0.3,0-0.5,0.2-0.5,0.5c0,0.3,0.2,0.5,0.5,0.5C301.2,145.3,301.4,145.1,301.4,144.8z
			 M295.7,149.6c-0.1-0.1-0.1-0.2-0.1-0.4v-2l0,0v0l-0.3,0.2l-0.7,0.3v2.6c0,0.3-0.1,0.6-0.2,0.8c-0.2,0.2-0.4,0.3-0.7,0.3
			c-0.3,0-0.5-0.1-0.8-0.2v0.9c0.3,0.2,0.6,0.3,1,0.3c0.4,0,0.8-0.1,1.1-0.4c0.3-0.3,0.5-0.7,0.6-1.2c0.2,0,0.3,0.1,0.5,0.1h0.8v-1
			h-0.7C295.9,149.8,295.8,149.7,295.7,149.6z M290.9,153.5c0-0.2,0-0.3-0.1-0.4c-0.1-0.1-0.2-0.1-0.4-0.1c-0.4,0-0.5,0.2-0.5,0.5
			c0,0.2,0,0.3,0.1,0.4c0.1,0.1,0.2,0.1,0.4,0.1C290.7,154,290.9,153.9,290.9,153.5z M289.7,153.5c0-0.2,0-0.3-0.1-0.4
			c-0.1-0.1-0.2-0.1-0.4-0.1s-0.3,0-0.4,0.1c-0.1,0.1-0.1,0.2-0.1,0.4c0,0.2,0,0.3,0.1,0.4c0.1,0.1,0.2,0.1,0.4,0.1
			C289.5,154,289.7,153.9,289.7,153.5z M291.8,147.7c-0.3-0.4-0.7-0.6-1.3-0.6c-0.3,0-0.6,0.1-0.9,0.3c-0.3,0.3-0.5,0.6-0.5,1.1
			c0,0.4,0.1,0.7,0.4,1c0.2,0.2,0.5,0.3,1,0.5c0.3,0.1,0.5,0.2,0.6,0.3c0.1,0.1,0.1,0.2,0.1,0.3c0,0.2-0.1,0.4-0.3,0.5
			c-0.3,0.2-0.7,0.2-1.2,0.2c-0.5,0-0.9-0.1-1.2-0.4c-0.3-0.2-0.4-0.6-0.4-1c0-0.4,0.1-0.8,0.3-1.1l-1,0.2c-0.2,0.3-0.3,0.7-0.3,1.1
			c0,0.5,0.2,1,0.5,1.4c0.4,0.5,1.1,0.8,2,0.8c0.7,0,1.3-0.1,1.7-0.4c0.5-0.3,0.8-0.8,0.8-1.3c0-0.4-0.1-0.6-0.4-0.8
			c-0.1-0.1-0.4-0.2-0.8-0.4c-0.4-0.1-0.6-0.3-0.7-0.4c-0.1-0.1-0.2-0.3-0.2-0.4c0-0.2,0.1-0.3,0.2-0.4c0.1-0.1,0.2-0.1,0.4-0.1
			c0.4,0,0.7,0.2,1.1,0.5V147.7z"/>
	</g>
</g>
<g id="bx5">
	<polygon class="st5" points="289.7,88.1 423.4,130.4 425.6,131.3 422.5,131 354.8,131 268.1,88.1 	"/>
	<path class="st6" d="M354.8,131v27h67.5c7.5,0,13.5-6,13.5-13.5s-6-13.5-13.5-13.5H354.8z"/>
	<g>
		<path class="st4" d="M405.1,140c0-0.2,0-0.3,0.1-0.4c0.1-0.1,0.2-0.1,0.4-0.1c0.2,0,0.3,0,0.4,0.1c0.1,0.1,0.1,0.2,0.1,0.4
			c0,0.3-0.2,0.6-0.5,0.7C405.3,140.6,405.1,140.4,405.1,140z M407.5,140.7c-0.1,0.1-0.2,0.1-0.4,0.1h-0.4c0.1-0.2,0.1-0.4,0.1-0.6
			c0-0.3-0.1-0.5-0.2-0.8c-0.1-0.2-0.3-0.4-0.6-0.4c0.2-0.1,0.3-0.1,0.6-0.1c0.3,0,0.6,0.1,0.8,0.3c0.2,0.2,0.3,0.5,0.3,0.8v0.3
			C407.6,140.4,407.6,140.6,407.5,140.7z M404.4,140.1c0,0.2,0,0.5,0.1,0.6h-0.8v1h1.4c0.2,0,0.3,0,0.5-0.1c0.2,0.1,0.3,0.1,0.5,0.1
			h1c0.4,0,0.8-0.1,1-0.4c0.3-0.3,0.5-0.7,0.5-1.1v-0.4c0-0.6-0.2-1.1-0.5-1.4c-0.4-0.4-0.9-0.6-1.5-0.6c-0.5,0-0.9,0.1-1.2,0.4
			c-0.3,0.3-0.6,0.6-0.7,1.1C404.5,139.5,404.4,139.8,404.4,140.1z M402.1,143c0,0.2,0,0.3,0.1,0.4s0.2,0.1,0.4,0.1
			c0.3,0,0.5-0.2,0.5-0.5c0-0.2,0-0.3-0.1-0.4c-0.1-0.1-0.2-0.1-0.4-0.1C402.3,142.5,402.1,142.6,402.1,143z M400.9,143
			c0,0.2,0,0.3,0.1,0.4c0.1,0.1,0.2,0.1,0.4,0.1c0.3,0,0.5-0.2,0.5-0.5c0-0.2,0-0.3-0.1-0.4c-0.1-0.1-0.2-0.1-0.4-0.1
			C401.1,142.5,400.9,142.6,400.9,143z M403.1,140.6c-0.1-0.1-0.1-0.2-0.1-0.4v-2l-1,0.5v1.5c0,0.2,0,0.4-0.1,0.4
			c-0.1,0.1-0.2,0.1-0.4,0.1h-0.7v1h0.8c0.4,0,0.7-0.1,1-0.3c0.3,0.2,0.6,0.3,1,0.3h0.8v-1h-0.7
			C403.3,140.8,403.1,140.7,403.1,140.6z M400,140.6c-0.1-0.1-0.1-0.2-0.1-0.4v0c0-0.7-0.3-1.2-0.8-1.6c-0.3-0.2-0.7-0.3-1.1-0.4
			l1.5-1.6h-1l-1.6,1.8v1c0.3-0.1,0.6-0.2,0.9-0.2c0.4,0,0.6,0.1,0.9,0.3c0.2,0.2,0.3,0.4,0.3,0.7v0c0,0.4-0.2,0.6-0.6,0.6h-2.2v1
			h2.3c0.4,0,0.7-0.1,1-0.3c0.3,0.2,0.6,0.3,1,0.3h0.7v-1h-0.6C400.3,140.8,400.1,140.7,400,140.6z M395.5,140.6
			c-0.1-0.1-0.1-0.2-0.1-0.4v-2l0,0v-1.6l-1,0.5v3c0,0.3-0.1,0.4-0.2,0.5c-0.1,0.1-0.3,0.2-0.5,0.2h-0.5v1h0.6
			c0.4,0,0.8-0.1,1.1-0.4c0.3,0.2,0.6,0.4,1,0.4h0.8v-1h-0.7C395.7,140.8,395.6,140.7,395.5,140.6z M391.4,140.2c0,0.1,0,0.2,0,0.2
			c-0.1,0.1-0.3,0.2-0.5,0.2c-0.2,0-0.3-0.1-0.4-0.2c-0.1-0.1-0.2-0.3-0.2-0.6c0-0.2,0.1-0.4,0.2-0.6c0.1-0.1,0.3-0.2,0.4-0.2
			s0.3,0.1,0.5,0.2V140.2z M392.5,140.6c-0.1-0.1-0.1-0.2-0.1-0.4v-2.7l-1,0.5v0.2c-0.2-0.1-0.3-0.1-0.5-0.1c-0.4,0-0.7,0.1-1,0.4
			c-0.3,0.3-0.5,0.8-0.5,1.3c0,0.4,0.1,0.8,0.4,1.1c0.3,0.4,0.7,0.6,1.2,0.6c0.3,0,0.6-0.1,0.8-0.3c0.3,0.3,0.7,0.5,1.2,0.5h0.8v-1
			h-0.7C392.7,140.8,392.6,140.7,392.5,140.6z M392.1,136.7c0-0.2,0-0.3-0.1-0.4c-0.1-0.1-0.2-0.1-0.4-0.1c-0.4,0-0.5,0.2-0.5,0.5
			c0,0.2,0,0.3,0.1,0.4c0.1,0.1,0.2,0.1,0.4,0.1C391.9,137.2,392.1,137,392.1,136.7z M390.9,136.7c0-0.2,0-0.3-0.1-0.4
			c-0.1-0.1-0.2-0.1-0.4-0.1c-0.4,0-0.5,0.2-0.5,0.5c0,0.2,0,0.3,0.1,0.4c0.1,0.1,0.2,0.1,0.4,0.1
			C390.7,137.2,390.9,137,390.9,136.7z"/>
		<path class="st4" d="M410.6,150.7v-5.2l-1,0.5v4.6H410.6z M406.5,150.7c0.5,0,0.9-0.1,1.2-0.4c0.3-0.3,0.5-0.7,0.5-1.2v-3.5
			l-1,0.5v3c0,0.3-0.1,0.4-0.2,0.5c-0.1,0.1-0.3,0.2-0.5,0.2h-0.5v1H406.5z M398.2,150.7c0.4,0,0.7-0.1,1-0.4c0.3,0.2,0.6,0.4,1,0.4
			h0.8c0.4,0,0.7-0.1,0.9-0.4c0.3,0.2,0.6,0.4,1,0.4h0.8c0.4,0,0.7-0.1,1-0.4c0.3,0.3,0.6,0.4,1.1,0.4h0.8v-1h-0.7
			c-0.2,0-0.4-0.1-0.5-0.2c-0.1-0.1-0.2-0.3-0.2-0.5v-1.9l-1,0.5v1.5c0,0.2,0,0.4-0.1,0.4c-0.1,0.1-0.2,0.1-0.4,0.1h-0.5
			c-0.2,0-0.3,0-0.4-0.1c-0.1-0.1-0.1-0.2-0.1-0.4v-1.8l-1,0.5v1.3c0,0.2,0,0.4-0.1,0.4c-0.1,0.1-0.2,0.1-0.4,0.1h-0.5
			c-0.2,0-0.3,0-0.4-0.1c-0.1-0.1-0.1-0.2-0.1-0.4v-1.6l-1,0.5v1.1c0,0.2,0,0.4-0.1,0.4c-0.1,0.1-0.2,0.1-0.4,0.1h-0.8v1H398.2z
			 M402.9,146c0-0.2,0-0.3-0.1-0.4c-0.1-0.1-0.2-0.1-0.4-0.1s-0.3,0-0.4,0.1c-0.1,0.1-0.1,0.2-0.1,0.4c0,0.2,0,0.3,0.1,0.4
			c0.1,0.1,0.2,0.1,0.4,0.1C402.7,146.5,402.9,146.3,402.9,146z M401.7,146c0-0.2,0-0.3-0.1-0.4c-0.1-0.1-0.2-0.1-0.4-0.1
			c-0.2,0-0.3,0-0.4,0.1c-0.1,0.1-0.1,0.2-0.1,0.4c0,0.2,0,0.3,0.1,0.4c0.1,0.1,0.2,0.1,0.4,0.1C401.5,146.5,401.7,146.3,401.7,146z
			 M402.2,144.8c0-0.3-0.2-0.5-0.5-0.5c-0.3,0-0.5,0.2-0.5,0.5c0,0.3,0.2,0.5,0.5,0.5C402.1,145.3,402.2,145.1,402.2,144.8z
			 M396.5,149.6c-0.1-0.1-0.1-0.2-0.1-0.4v-2l0,0v0l-0.3,0.2l-0.7,0.3v2.6c0,0.3-0.1,0.6-0.2,0.8c-0.2,0.2-0.4,0.3-0.7,0.3
			c-0.3,0-0.5-0.1-0.8-0.2v0.9c0.3,0.2,0.6,0.3,1,0.3c0.4,0,0.8-0.1,1.1-0.4c0.3-0.3,0.5-0.7,0.6-1.2c0.2,0,0.3,0.1,0.5,0.1h0.8v-1
			H397C396.8,149.8,396.6,149.7,396.5,149.6z M393.4,145.6h-1l-1.6,1.8v1c0.3-0.1,0.6-0.2,0.8-0.2c0.4,0,0.6,0.1,0.9,0.3
			c0.2,0.2,0.3,0.4,0.3,0.7v0c0,0.4-0.2,0.6-0.6,0.6H390v1h2.3c0.4,0,0.8-0.1,1-0.3c0.3-0.3,0.4-0.6,0.4-1.1v-0.1
			c0-0.7-0.3-1.2-0.8-1.6c-0.3-0.2-0.7-0.3-1.1-0.4L393.4,145.6z M388.2,149.2c0,0.1,0,0.2,0,0.2c-0.1,0.1-0.3,0.2-0.5,0.2
			c-0.2,0-0.3-0.1-0.4-0.2c-0.1-0.1-0.2-0.3-0.2-0.6c0-0.2,0.1-0.4,0.2-0.6c0.1-0.1,0.3-0.2,0.4-0.2s0.3,0.1,0.5,0.2V149.2z
			 M389.3,149.6c-0.1-0.1-0.1-0.2-0.1-0.4v-2.7l-1,0.5v0.2c-0.2-0.1-0.3-0.1-0.5-0.1c-0.4,0-0.7,0.1-1,0.4c-0.3,0.3-0.5,0.8-0.5,1.3
			c0,0.4,0.1,0.8,0.4,1.1c0.3,0.4,0.7,0.6,1.2,0.6c0.3,0,0.6-0.1,0.8-0.3c0.3,0.3,0.7,0.5,1.2,0.5h0.8v-1h-0.7
			C389.6,149.8,389.4,149.7,389.3,149.6z M388.9,145.7c0-0.2,0-0.3-0.1-0.4c-0.1-0.1-0.2-0.1-0.4-0.1c-0.4,0-0.5,0.2-0.5,0.5
			c0,0.2,0,0.3,0.1,0.4c0.1,0.1,0.2,0.1,0.4,0.1C388.8,146.2,388.9,146,388.9,145.7z M387.7,145.7c0-0.2,0-0.3-0.1-0.4
			c-0.1-0.1-0.2-0.1-0.4-0.1c-0.4,0-0.5,0.2-0.5,0.5c0,0.2,0,0.3,0.1,0.4c0.1,0.1,0.2,0.1,0.4,0.1
			C387.5,146.2,387.7,146,387.7,145.7z"/>
	</g>
</g>
<g id="title">
	<rect x="164.4" y="64.6" class="st7" width="122.9" height="20.2"/>
	<g>
		<path class="st4" d="M240.2,75.1c-0.1-0.1-0.1-0.3-0.1-0.5v-2.3l-1.1,0.6v1.7c0,0.2,0,0.4-0.1,0.5c-0.1,0.1-0.3,0.1-0.5,0.1h-0.8
			v1.1h0.9c0.4,0,0.8-0.1,1.1-0.4c0.3,0.2,0.7,0.4,1.1,0.4h0.9v-1.1h-0.8C240.4,75.2,240.3,75.2,240.2,75.1z M239.8,70.8
			c0-0.2-0.1-0.3-0.2-0.4c-0.1-0.1-0.2-0.2-0.4-0.2c-0.2,0-0.3,0.1-0.4,0.2c-0.1,0.1-0.2,0.2-0.2,0.4c0,0.2,0.1,0.3,0.2,0.4
			c0.1,0.1,0.3,0.2,0.4,0.2C239.6,71.4,239.8,71.2,239.8,70.8z M238,76.3v-1.1h-0.8c-0.2,0-0.4,0-0.5-0.1c-0.1-0.1-0.1-0.3-0.1-0.5
			v-4.1l-1.1,0.6v3.5c0,0.5,0.1,0.9,0.4,1.2c0.3,0.3,0.7,0.5,1.3,0.5H238z M232.1,76.3c0.5,0,0.9-0.1,1.2-0.4
			c0.3-0.3,0.5-0.7,0.5-1.3v-2.3l-1.1,0.6v1.7c0,0.2,0,0.4-0.1,0.5c-0.1,0.1-0.3,0.2-0.5,0.2h-2.9c-0.2,0-0.4,0-0.5-0.1
			s-0.1-0.3-0.1-0.5v-1.4l-1.1,0.6v0.9c0,0.5,0.1,0.9,0.4,1.2c0.3,0.3,0.7,0.5,1.2,0.5H232.1z M231.8,71.5c0-0.2-0.1-0.3-0.2-0.4
			c-0.1-0.1-0.2-0.2-0.4-0.2c-0.4,0-0.6,0.2-0.6,0.6c0,0.2,0.1,0.3,0.2,0.4c0.1,0.1,0.3,0.2,0.4,0.2
			C231.6,72.1,231.8,71.9,231.8,71.5z M230.4,71.5c0-0.2-0.1-0.3-0.2-0.4c-0.1-0.1-0.2-0.2-0.4-0.2s-0.3,0.1-0.4,0.2
			s-0.2,0.2-0.2,0.4c0,0.2,0.1,0.3,0.2,0.4c0.1,0.1,0.3,0.2,0.4,0.2C230.2,72.1,230.4,71.9,230.4,71.5z M223.6,76.3v-5.8l-1.1,0.6
			v5.2H223.6z M219,76.3c0.5,0,1-0.2,1.3-0.5c0.4-0.3,0.5-0.8,0.5-1.4v-3.9l-1.1,0.6v3.3c0,0.3-0.1,0.5-0.2,0.6
			c-0.1,0.1-0.3,0.2-0.6,0.2h-0.6v1.1H219z M217.6,75.1c-0.1-0.1-0.1-0.3-0.1-0.5v-2.3l-1.1,0.6v1.7c0,0.2,0,0.4-0.1,0.5
			c-0.1,0.1-0.3,0.1-0.5,0.1h-0.8v1.1h0.9c0.4,0,0.8-0.1,1.1-0.4c0.3,0.2,0.7,0.4,1.1,0.4h0.9v-1.1h-0.8
			C217.8,75.2,217.7,75.2,217.6,75.1z M217.7,70.9c0-0.2-0.1-0.3-0.2-0.4c-0.1-0.1-0.2-0.2-0.4-0.2c-0.2,0-0.3,0.1-0.4,0.2
			c-0.1,0.1-0.2,0.2-0.2,0.4c0,0.2,0.1,0.3,0.2,0.4c0.1,0.1,0.3,0.2,0.4,0.2C217.5,71.5,217.7,71.3,217.7,70.9z M216.3,70.9
			c0-0.2-0.1-0.3-0.2-0.4c-0.1-0.1-0.2-0.2-0.4-0.2c-0.2,0-0.3,0.1-0.4,0.2c-0.1,0.1-0.2,0.2-0.2,0.4c0,0.2,0.1,0.3,0.2,0.4
			c0.1,0.1,0.3,0.2,0.4,0.2C216.1,71.5,216.3,71.3,216.3,70.9z M206.1,76.3c0.4,0,0.8-0.1,1.1-0.4c0.3,0.3,0.6,0.4,1.1,0.4h0.9
			c0.4,0,0.8-0.1,1-0.4c0.3,0.3,0.6,0.4,1.1,0.4h0.9c0.5,0,0.8-0.1,1.1-0.4c0.3,0.3,0.7,0.4,1.2,0.4h0.9v-1.1h-0.8
			c-0.3,0-0.5-0.1-0.6-0.2c-0.1-0.1-0.2-0.3-0.2-0.6v-2.1l-1.1,0.6v1.7c0,0.2,0,0.4-0.1,0.5c-0.1,0.1-0.3,0.1-0.5,0.1h-0.6
			c-0.2,0-0.4,0-0.5-0.1s-0.1-0.3-0.1-0.5v-2l-1.1,0.6v1.4c0,0.2,0,0.4-0.1,0.5c-0.1,0.1-0.3,0.1-0.5,0.1h-0.6c-0.2,0-0.4,0-0.5-0.1
			c-0.1-0.1-0.1-0.3-0.1-0.5v-1.8l-1.1,0.6v1.2c0,0.2,0,0.4-0.1,0.5s-0.3,0.1-0.5,0.1h-1v1.1H206.1z M211.5,70.9
			c0-0.2-0.1-0.3-0.2-0.4c-0.1-0.1-0.2-0.2-0.4-0.2s-0.3,0.1-0.4,0.2c-0.1,0.1-0.2,0.2-0.2,0.4c0,0.2,0.1,0.3,0.2,0.4
			c0.1,0.1,0.3,0.2,0.4,0.2C211.3,71.5,211.5,71.3,211.5,70.9z M210.1,70.9c0-0.2-0.1-0.3-0.2-0.4c-0.1-0.1-0.2-0.2-0.4-0.2
			c-0.2,0-0.3,0.1-0.4,0.2c-0.1,0.1-0.2,0.2-0.2,0.4c0,0.2,0.1,0.3,0.2,0.4c0.1,0.1,0.3,0.2,0.4,0.2
			C209.9,71.5,210.1,71.3,210.1,70.9z M210.7,69.7c0-0.4-0.2-0.5-0.5-0.5c-0.4,0-0.5,0.2-0.5,0.5c0,0.4,0.2,0.5,0.5,0.5
			C210.5,70.2,210.7,70,210.7,69.7z M201.2,73.7c0.3-0.3,0.6-0.5,1-0.5c0.3,0,0.7,0.2,1,0.5c-0.2,0.4-0.5,0.7-1,1.1
			C201.7,74.5,201.4,74.1,201.2,73.7z M204.5,74v-0.5c-0.3-0.4-0.6-0.7-1-1c-0.4-0.2-0.8-0.4-1.3-0.4c-0.4,0-0.9,0.1-1.3,0.4
			c-0.4,0.2-0.8,0.6-1,1V74l0.2,0.2c0.2,0.2,0.4,0.4,0.5,0.5c0.2,0.2,0.4,0.3,0.7,0.5h-2.4v1.1h2.6c0.3,0,0.6-0.1,0.9-0.2
			c0.3,0.2,0.6,0.2,0.9,0.2h2.6l0-1.1h-2.5C203.6,74.9,204.1,74.5,204.5,74z M202.7,70.8c0-0.2-0.1-0.3-0.2-0.4
			c-0.1-0.1-0.2-0.2-0.4-0.2c-0.2,0-0.3,0.1-0.4,0.2c-0.1,0.1-0.2,0.2-0.2,0.4c0,0.2,0.1,0.3,0.2,0.4c0.1,0.1,0.3,0.2,0.4,0.2
			C202.5,71.4,202.7,71.2,202.7,70.8z M196.9,77.7c0,0.2,0.1,0.3,0.2,0.4c0.1,0.1,0.3,0.2,0.4,0.2c0.4,0,0.6-0.2,0.6-0.6
			c0-0.2-0.1-0.3-0.2-0.4c-0.1-0.1-0.2-0.2-0.4-0.2C197.1,77.1,196.9,77.3,196.9,77.7z M195.5,77.7c0,0.2,0.1,0.3,0.2,0.4
			c0.1,0.1,0.3,0.2,0.4,0.2c0.4,0,0.6-0.2,0.6-0.6c0-0.2-0.1-0.3-0.2-0.4c-0.1-0.1-0.2-0.2-0.4-0.2
			C195.7,77.1,195.5,77.3,195.5,77.7z M197.9,75.1c-0.1-0.1-0.1-0.3-0.1-0.5v-2.3l-1.1,0.6v1.7c0,0.2,0,0.4-0.1,0.5
			c-0.1,0.1-0.3,0.1-0.5,0.1h-0.8v1.1h0.9c0.4,0,0.8-0.1,1.1-0.4c0.3,0.2,0.7,0.4,1.1,0.4h0.9v-1.1h-0.8
			C198.2,75.2,198,75.2,197.9,75.1z M194.5,75.1c-0.1-0.1-0.1-0.3-0.1-0.5v-2.3l0,0v-1.8l-1.1,0.6v3.3c0,0.3-0.1,0.5-0.2,0.6
			c-0.1,0.1-0.3,0.2-0.6,0.2h-0.6v1.1h0.6c0.5,0,0.9-0.1,1.2-0.4c0.3,0.3,0.7,0.4,1.1,0.4h0.9v-1.1H195
			C194.7,75.2,194.6,75.2,194.5,75.1z M190.1,77.7c0,0.2,0.1,0.3,0.2,0.4c0.1,0.1,0.3,0.2,0.4,0.2c0.4,0,0.6-0.2,0.6-0.6
			c0-0.2-0.1-0.3-0.2-0.4c-0.1-0.1-0.2-0.2-0.4-0.2C190.2,77.1,190.1,77.3,190.1,77.7z M188.7,77.7c0,0.2,0.1,0.3,0.2,0.4
			c0.1,0.1,0.3,0.2,0.4,0.2c0.4,0,0.6-0.2,0.6-0.6c0-0.2-0.1-0.3-0.2-0.4c-0.1-0.1-0.2-0.2-0.4-0.2
			C188.9,77.1,188.7,77.3,188.7,77.7z M191.1,75.1c-0.1-0.1-0.1-0.3-0.1-0.5v-2.3l-1.1,0.6v1.7c0,0.2,0,0.4-0.1,0.5
			c-0.1,0.1-0.3,0.1-0.5,0.1h-0.8v1.1h0.9c0.4,0,0.8-0.1,1.1-0.4c0.3,0.2,0.7,0.4,1.1,0.4h0.9v-1.1h-0.8
			C191.4,75.2,191.2,75.2,191.1,75.1z M186.4,74.6c0,0.1,0,0.2,0,0.2c-0.1,0.2-0.3,0.2-0.5,0.2c-0.2,0-0.4-0.1-0.5-0.2
			c-0.1-0.2-0.2-0.4-0.2-0.6c0-0.3,0.1-0.5,0.2-0.6c0.1-0.2,0.3-0.2,0.5-0.2s0.4,0.1,0.5,0.2V74.6z M187.6,75.1
			c-0.1-0.1-0.1-0.3-0.1-0.5v-3l-1.1,0.6v0.2c-0.2-0.1-0.4-0.1-0.6-0.1c-0.4,0-0.8,0.2-1.1,0.5c-0.4,0.4-0.6,0.9-0.6,1.4
			c0,0.5,0.1,0.9,0.4,1.2c0.3,0.4,0.8,0.6,1.3,0.6c0.4,0,0.7-0.1,0.9-0.3c0.3,0.4,0.7,0.6,1.3,0.6h0.9v-1.1h-0.8
			C187.9,75.2,187.7,75.2,187.6,75.1z M187.2,70.6c0-0.2-0.1-0.3-0.2-0.4c-0.1-0.1-0.2-0.2-0.4-0.2c-0.4,0-0.6,0.2-0.6,0.6
			c0,0.2,0.1,0.3,0.2,0.4c0.1,0.1,0.3,0.2,0.4,0.2C187,71.2,187.2,71,187.2,70.6z M185.8,70.6c0-0.2-0.1-0.3-0.2-0.4
			c-0.1-0.1-0.2-0.2-0.4-0.2c-0.4,0-0.6,0.2-0.6,0.6c0,0.2,0.1,0.3,0.2,0.4c0.1,0.1,0.3,0.2,0.4,0.2C185.6,71.2,185.8,71,185.8,70.6
			z"/>
		<path class="st4" d="M243.8,68.8c0,0.1,0,0.1-0.1,0.1c-0.1,0-0.1,0-0.1-0.1V68l-0.6,0.4v0.5c0,0.1,0,0.1-0.1,0.1
			c-0.1,0-0.2,0-0.2-0.1v-0.7l-0.6,0.4v0.4c0,0.2,0.1,0.4,0.2,0.5c0.1,0.1,0.3,0.2,0.6,0.2c0.2,0,0.3,0,0.5-0.1
			c0.1,0.1,0.3,0.1,0.5,0.1c0.2,0,0.4-0.1,0.6-0.2c0.1-0.1,0.2-0.3,0.2-0.5v-0.9l-0.6,0.4V68.8z"/>
		<path class="st4" d="M245.3,75.1c-0.1-0.1-0.1-0.3-0.1-0.5v0c0-0.8-0.3-1.4-0.9-1.8c-0.3-0.2-0.7-0.4-1.2-0.4l1.6-1.8h-1.1l-1.8,2
			v1.1c0.3-0.1,0.7-0.2,1-0.2c0.4,0,0.7,0.1,1,0.3c0.2,0.2,0.4,0.5,0.4,0.8v0.1c0,0.4-0.2,0.6-0.6,0.6h-2.5v1.1h2.6
			c0.4,0,0.8-0.1,1.1-0.4c0.3,0.2,0.6,0.4,1.1,0.4h0.8v-1.1h-0.7C245.6,75.2,245.4,75.2,245.3,75.1z"/>
		<polygon class="st4" points="250.1,70.5 250.5,69.7 248.2,70.1 247.8,71 		"/>
		<path class="st4" d="M248.5,74.3c0-0.7,0.2-1.1,0.7-1.1c0.5,0,0.7,0.4,0.7,1.1c0,0.7-0.2,1.1-0.7,1.1
			C248.8,75.4,248.5,75,248.5,74.3z M251.2,75.1c-0.1-0.1-0.1-0.3-0.1-0.5v-0.3c0-0.6-0.1-1.1-0.4-1.5c-0.3-0.4-0.8-0.7-1.4-0.7
			c-0.5,0-1,0.2-1.3,0.5c-0.4,0.4-0.5,0.9-0.5,1.6v0.3c0,0.2,0,0.4-0.1,0.5c-0.1,0.1-0.3,0.1-0.5,0.1H246v1.1h0.9
			c0.4,0,0.8-0.1,1.1-0.3c0.3,0.3,0.7,0.5,1.3,0.5c0.5,0,1-0.2,1.3-0.5c0.3,0.2,0.6,0.3,1.1,0.3h0.9v-1.1h-0.8
			C251.5,75.2,251.3,75.2,251.2,75.1z"/>
		<path class="st4" d="M255.6,69.5c0-0.2,0.1-0.2,0.2-0.2c0.1,0,0.2,0.1,0.2,0.2c0,0.1-0.1,0.2-0.2,0.3
			C255.6,69.8,255.6,69.7,255.6,69.5z M255.8,70.6c0.2,0,0.4-0.2,0.6-0.3c0.2-0.2,0.2-0.4,0.2-0.7c0-0.3-0.1-0.5-0.2-0.7
			c-0.2-0.2-0.4-0.3-0.6-0.3c-0.2,0-0.4,0.1-0.6,0.3c-0.2,0.2-0.2,0.4-0.2,0.7c0,0.2,0,0.3,0.1,0.5l-1,0.2l-0.4,0.7L255.8,70.6z"/>
		<path class="st4" d="M263.1,76.3v-5.8l-1.1,0.6v5.2H263.1z M258.6,76.3c0.5,0,1-0.2,1.3-0.5c0.4-0.3,0.5-0.8,0.5-1.4v-3.9
			l-1.1,0.6v3.3c0,0.3-0.1,0.5-0.2,0.6c-0.1,0.1-0.3,0.2-0.6,0.2h-0.6v1.1H258.6z M254.5,74.3c0-0.7,0.2-1.1,0.7-1.1
			c0.5,0,0.7,0.4,0.7,1.1c0,0.7-0.2,1.1-0.7,1.1C254.7,75.4,254.5,75,254.5,74.3z M257.2,75.1c-0.1-0.1-0.1-0.3-0.1-0.5v-0.3
			c0-0.6-0.1-1.1-0.4-1.5c-0.3-0.4-0.8-0.7-1.4-0.7c-0.5,0-1,0.2-1.3,0.5c-0.4,0.4-0.5,0.9-0.5,1.6v0.3c0,0.2,0,0.4-0.1,0.5
			c-0.1,0.1-0.3,0.1-0.5,0.1h-0.8v1.1h0.9c0.4,0,0.8-0.1,1.1-0.3c0.3,0.3,0.7,0.5,1.3,0.5c0.5,0,1-0.2,1.3-0.5
			c0.3,0.2,0.6,0.3,1.1,0.3h0.9v-1.1h-0.8C257.4,75.2,257.3,75.2,257.2,75.1z"/>
	</g>
</g>
<g id="bx3">
	<rect x="184.3" y="131" class="st8" width="81" height="27"/>
	<polygon class="st9" points="184.2,131 211.3,88.1 244.7,88.1 265.2,131 	"/>
	<g>
		<path class="st4" d="M238,147v-5.2l-1,0.5v4.6H238z M233.9,147c0.5,0,0.9-0.1,1.2-0.4c0.3-0.3,0.5-0.7,0.5-1.2v-3.5l-1,0.5v3
			c0,0.3-0.1,0.4-0.2,0.5c-0.1,0.1-0.3,0.2-0.5,0.2h-0.5v1H233.9z M232.1,145.8c0.1-0.1,0.3-0.3,0.3-0.4V145c-0.3-0.6-0.7-1-1-1.3
			c-0.4-0.3-0.8-0.5-1.2-0.5c-0.6,0-1.1,0.2-1.5,0.7v0.9c0.5-0.5,1-0.7,1.4-0.7c0.5,0,1,0.3,1.3,1c-0.6,0.6-1.3,0.8-2.2,0.8H228v1
			h1.2c0.9,0,1.6-0.2,2.3-0.6c0.2,0.2,0.5,0.4,0.7,0.5c0.3,0.1,0.6,0.1,1,0.1h0.7v-1h-0.7C232.7,146,232.4,145.9,232.1,145.8z
			 M226.5,146c-0.2,0-0.3,0-0.4,0c-0.5-0.1-0.7-0.3-0.7-0.9c0-0.6,0.2-0.9,0.6-0.9c0.3,0,0.5,0.2,0.5,0.5V146z M227.5,146v-1.2
			c0-0.4-0.1-0.8-0.3-1c-0.3-0.3-0.6-0.5-1.1-0.5c-0.5,0-0.8,0.1-1.1,0.4c-0.3,0.3-0.5,0.8-0.5,1.4c0,0.4,0.1,0.8,0.4,1.1
			c0.3,0.4,0.7,0.6,1.3,0.6c0,0,0.1,0,0.2,0c0.1,0,0.2,0,0.2,0c0,0.2-0.1,0.3-0.3,0.4c-0.2,0.1-0.4,0.2-0.6,0.2
			c-0.3,0-0.6-0.1-0.9-0.2v0.9c0.3,0.2,0.6,0.3,1,0.3c0.4,0,0.8-0.1,1.1-0.4c0.4-0.3,0.6-0.7,0.6-1.2h1v-1H227.5z M223,141.8h-1
			l-1.6,1.8v1c0.3-0.1,0.6-0.2,0.8-0.2c0.4,0,0.6,0.1,0.9,0.3c0.2,0.2,0.3,0.4,0.3,0.7v0c0,0.4-0.2,0.6-0.6,0.6h-2.2v1h2.3
			c0.4,0,0.8-0.1,1-0.3c0.3-0.3,0.4-0.6,0.4-1.1v-0.1c0-0.7-0.3-1.2-0.8-1.6c-0.3-0.2-0.7-0.3-1.1-0.4L223,141.8z M216.7,145.2
			c0-0.6,0.2-1,0.6-1c0.4,0,0.6,0.3,0.6,1c0,0.7-0.2,1-0.6,1C216.9,146.1,216.7,145.8,216.7,145.2z M219,145.9
			c-0.1-0.1-0.1-0.2-0.1-0.4v-0.2c0-0.5-0.1-1-0.4-1.3c-0.3-0.4-0.7-0.6-1.2-0.6c-0.5,0-0.9,0.2-1.1,0.5c-0.3,0.3-0.5,0.8-0.5,1.5
			v0.2c0,0.2,0,0.4-0.1,0.4c-0.1,0.1-0.2,0.1-0.4,0.1h-0.7v1h0.8c0.4,0,0.7-0.1,1-0.3c0.3,0.3,0.7,0.5,1.1,0.5
			c0.5,0,0.8-0.2,1.1-0.5c0.2,0.2,0.6,0.3,0.9,0.3h0.8v-1h-0.7C219.3,146,219.1,145.9,219,145.9z M212.6,145.5c0,0.1,0,0.2,0,0.2
			c-0.1,0.1-0.3,0.2-0.5,0.2c-0.2,0-0.3-0.1-0.4-0.2c-0.1-0.1-0.2-0.3-0.2-0.6c0-0.2,0.1-0.4,0.2-0.6c0.1-0.1,0.3-0.2,0.4-0.2
			c0.2,0,0.3,0.1,0.5,0.2V145.5z M213.7,145.9c-0.1-0.1-0.1-0.2-0.1-0.4v-2.7l-1,0.5v0.2c-0.2-0.1-0.3-0.1-0.5-0.1
			c-0.4,0-0.7,0.1-1,0.4c-0.3,0.3-0.5,0.8-0.5,1.3c0,0.4,0.1,0.8,0.4,1.1c0.3,0.4,0.7,0.6,1.2,0.6c0.3,0,0.6-0.1,0.8-0.3
			c0.3,0.3,0.7,0.5,1.2,0.5h0.8v-1h-0.7C213.9,146,213.8,145.9,213.7,145.9z M213.3,141.9c0-0.2,0-0.3-0.1-0.4
			c-0.1-0.1-0.2-0.1-0.4-0.1c-0.4,0-0.5,0.2-0.5,0.5c0,0.2,0,0.3,0.1,0.4c0.1,0.1,0.2,0.1,0.4,0.1
			C213.1,142.4,213.3,142.3,213.3,141.9z M212.1,141.9c0-0.2,0-0.3-0.1-0.4c-0.1-0.1-0.2-0.1-0.4-0.1c-0.4,0-0.5,0.2-0.5,0.5
			c0,0.2,0,0.3,0.1,0.4s0.2,0.1,0.4,0.1C211.9,142.4,212.1,142.3,212.1,141.9z"/>
	</g>
</g>
<g id="bx2">
	<rect x="98.3" y="131" class="st10" width="81" height="27"/>
	<polygon class="st11" points="209.9,88.1 189.8,88.1 98.3,131 179.3,131 	"/>
	<g>
		<path class="st4" d="M162.1,139.5c0-0.4,0.1-0.5,0.4-0.5c0.4,0,0.6,0.3,0.6,0.9c0,0.6-0.2,0.9-0.6,0.9c-0.3,0-0.5-0.1-0.5-0.4
			V139.5z M161.1,140.2c0,0.2,0,0.4-0.1,0.4c-0.1,0.1-0.2,0.1-0.4,0.1h-0.7v1h0.8c0.4,0,0.7-0.1,0.9-0.3c0.3,0.2,0.6,0.3,1,0.3
			c0.4,0,0.8-0.1,1.1-0.4c0.3-0.3,0.5-0.8,0.5-1.4c0-0.5-0.1-0.9-0.4-1.3c-0.3-0.4-0.7-0.6-1.2-0.6c-0.4,0-0.7,0.1-1,0.4
			c-0.3,0.3-0.4,0.6-0.4,1.1V140.2z M158.3,140.8c-0.2,0-0.3,0-0.4,0c-0.5-0.1-0.7-0.3-0.7-0.9c0-0.6,0.2-0.9,0.6-0.9
			c0.3,0,0.5,0.2,0.5,0.5V140.8z M159.3,140.8v-1.2c0-0.4-0.1-0.8-0.3-1c-0.3-0.3-0.6-0.5-1.1-0.5c-0.5,0-0.8,0.1-1.1,0.4
			c-0.3,0.3-0.5,0.8-0.5,1.4c0,0.4,0.1,0.8,0.4,1.1c0.3,0.4,0.7,0.6,1.3,0.6c0,0,0.1,0,0.2,0c0.1,0,0.2,0,0.2,0
			c0,0.2-0.1,0.3-0.3,0.4c-0.2,0.1-0.4,0.2-0.6,0.2c-0.3,0-0.6-0.1-0.9-0.2v0.9c0.3,0.2,0.6,0.3,1,0.3c0.4,0,0.8-0.1,1.1-0.4
			c0.4-0.3,0.6-0.7,0.6-1.2h1v-1H159.3z M157.8,136.8l-0.1-0.2c0-0.2,0.1-0.2,0.3-0.2c0.1,0,0.3,0.1,0.4,0.2V136
			c-0.1-0.1-0.3-0.2-0.4-0.2c-0.2,0-0.3,0.1-0.5,0.2c-0.1,0.1-0.2,0.3-0.2,0.4c0,0.1,0,0.2,0.1,0.3h-0.2l-0.3,0.5h1.5l0.3-0.5H157.8
			z M148.2,141.7c0.4,0,0.7-0.1,1-0.4c0.3,0.2,0.6,0.4,1,0.4h0.8c0.4,0,0.7-0.1,0.9-0.4c0.3,0.2,0.6,0.4,1,0.4h0.8
			c0.4,0,0.7-0.1,1-0.4c0.3-0.3,0.4-0.6,0.4-1.1v-2.1l-1,0.5v1.5c0,0.2,0,0.4-0.1,0.4c-0.1,0.1-0.2,0.1-0.4,0.1H153
			c-0.2,0-0.3,0-0.4-0.1c-0.1-0.1-0.1-0.2-0.1-0.4v-1.8l-1,0.5v1.3c0,0.2,0,0.4-0.1,0.4c-0.1,0.1-0.2,0.1-0.4,0.1h-0.5
			c-0.2,0-0.3,0-0.4-0.1c-0.1-0.1-0.1-0.2-0.1-0.4v-1.6l-1,0.5v1.1c0,0.2,0,0.4-0.1,0.4c-0.1,0.1-0.2,0.1-0.4,0.1h-0.8v1H148.2z
			 M153,137c0-0.2,0-0.3-0.1-0.4c-0.1-0.1-0.2-0.1-0.4-0.1c-0.2,0-0.3,0-0.4,0.1c-0.1,0.1-0.1,0.2-0.1,0.4c0,0.2,0,0.3,0.1,0.4
			c0.1,0.1,0.2,0.1,0.4,0.1C152.8,137.5,153,137.3,153,137z M151.7,137c0-0.2,0-0.3-0.1-0.4c-0.1-0.1-0.2-0.1-0.4-0.1
			c-0.2,0-0.3,0-0.4,0.1c-0.1,0.1-0.1,0.2-0.1,0.4c0,0.2,0,0.3,0.1,0.4c0.1,0.1,0.2,0.1,0.4,0.1C151.6,137.5,151.7,137.3,151.7,137z
			 M152.3,135.8c0-0.3-0.2-0.5-0.5-0.5c-0.3,0-0.5,0.2-0.5,0.5c0,0.3,0.2,0.5,0.5,0.5C152.1,136.3,152.3,136.1,152.3,135.8z
			 M146.6,140.6c-0.1-0.1-0.1-0.2-0.1-0.4v-2l0,0v0l-0.3,0.2l-0.7,0.3v2.6c0,0.3-0.1,0.6-0.2,0.8c-0.2,0.2-0.4,0.3-0.7,0.3
			c-0.3,0-0.5-0.1-0.8-0.2v0.9c0.3,0.2,0.6,0.3,1,0.3c0.4,0,0.8-0.1,1.1-0.4c0.3-0.3,0.5-0.7,0.6-1.2c0.2,0,0.3,0.1,0.5,0.1h0.8v-1
			H147C146.8,140.8,146.7,140.7,146.6,140.6z M143.1,141.7v-5.2l-1,0.5v4.6H143.1z M139.2,141.7c0.4,0,0.8-0.1,1-0.4
			c0.3-0.3,0.5-0.7,0.5-1.1v-2.1l-1,0.5v1.5c0,0.2,0,0.4-0.1,0.4c-0.1,0.1-0.2,0.1-0.4,0.1h-2.6c-0.2,0-0.3,0-0.4-0.1
			c-0.1-0.1-0.1-0.2-0.1-0.5v-1.3l-1,0.5v0.8c0,0.4,0.1,0.8,0.3,1c0.3,0.3,0.6,0.5,1.1,0.5H139.2z M138.8,137.5c0-0.2,0-0.3-0.1-0.4
			c-0.1-0.1-0.2-0.1-0.4-0.1c-0.4,0-0.5,0.2-0.5,0.5c0,0.2,0,0.3,0.1,0.4s0.2,0.1,0.4,0.1C138.6,138,138.8,137.8,138.8,137.5z
			 M137.6,137.5c0-0.2,0-0.3-0.1-0.4c-0.1-0.1-0.2-0.1-0.4-0.1c-0.2,0-0.3,0-0.4,0.1s-0.1,0.2-0.1,0.4c0,0.2,0,0.3,0.1,0.4
			c0.1,0.1,0.2,0.1,0.4,0.1C137.4,138,137.6,137.8,137.6,137.5z M131.5,141.7v-5.2l-1,0.5v4.6H131.5z M128.1,140.1
			c0,0.3-0.1,0.4-0.2,0.5c-0.1,0.1-0.3,0.2-0.5,0.2H127v-3.2l-1,0.5v2.6h-1.1l-0.5,1h3c0.5,0,0.9-0.1,1.2-0.4
			c0.3-0.3,0.5-0.7,0.5-1.2v-3.5l-1,0.5V140.1z M126.6,136.7l-0.1-0.2c0-0.2,0.1-0.2,0.3-0.2c0.1,0,0.3,0.1,0.4,0.2v-0.5
			c-0.1-0.1-0.3-0.2-0.4-0.2c-0.2,0-0.3,0.1-0.5,0.2c-0.1,0.1-0.2,0.3-0.2,0.4c0,0.1,0,0.2,0.1,0.3h-0.2l-0.3,0.5h1.5l0.3-0.5H126.6
			z M122.5,141.7c0.8,0,1.2-0.5,1.2-1.4c0-0.9-0.5-1.7-1.4-2.2l-0.5,0.8c0.6,0.3,0.8,0.8,0.8,1.4c0,0.3-0.1,0.5-0.4,0.5H121l-0.5,1
			H122.5z M119.7,141.7v-5.2l-1,0.5v4.6H119.7z M115.8,141.7c0.8,0,1.4-0.2,1.8-0.5l0-0.9c-0.4,0.3-0.9,0.5-1.6,0.5l-0.1,0l-0.2,0
			c-0.2-0.2-0.3-0.5-0.3-0.9c0-0.2,0.1-0.4,0.2-0.6c0.1-0.1,0.3-0.2,0.5-0.2c0.4,0,0.7,0.2,1.1,0.6v-0.9c-0.3-0.4-0.7-0.6-1.2-0.6
			c-0.5,0-0.8,0.1-1.1,0.4c-0.3,0.3-0.5,0.8-0.5,1.3c0,0.3,0.1,0.7,0.3,1c-0.3,0.1-0.5,0.2-0.7,0.3v1
			C114.4,141.9,115.1,141.7,115.8,141.7z"/>
		<path class="st4" d="M174.9,150.7v-5.2l-1,0.5v4.6H174.9z M170.8,150.7c0.5,0,0.9-0.1,1.2-0.4c0.3-0.3,0.5-0.7,0.5-1.2v-3.5
			l-1,0.5v3c0,0.3-0.1,0.4-0.2,0.5c-0.1,0.1-0.3,0.2-0.5,0.2h-0.5v1H170.8z M169.6,149.6c-0.1-0.1-0.1-0.2-0.1-0.4v-2l0,0v0
			l-0.3,0.2l-0.7,0.3v2.6c0,0.3-0.1,0.6-0.2,0.8c-0.2,0.2-0.4,0.3-0.7,0.3c-0.3,0-0.5-0.1-0.8-0.2v0.9c0.3,0.2,0.6,0.3,1,0.3
			c0.4,0,0.8-0.1,1.1-0.4c0.3-0.3,0.5-0.7,0.6-1.2c0.2,0,0.3,0.1,0.5,0.1h0.8v-1H170C169.8,149.8,169.7,149.7,169.6,149.6z
			 M165.2,150.7c0.4,0,0.8-0.1,1-0.4c0.3-0.3,0.4-0.7,0.4-1.1v-2.1l-1,0.5v1.5c0,0.2,0,0.4-0.1,0.4c-0.1,0.1-0.2,0.1-0.4,0.1h-0.7v1
			H165.2z M166.5,146.2l0.2-0.5H166l-0.1-0.2c0-0.2,0.1-0.2,0.3-0.2c0.1,0,0.3,0.1,0.4,0.2V145c-0.1-0.1-0.3-0.2-0.4-0.2
			c-0.2,0-0.3,0.1-0.5,0.2c-0.1,0.1-0.2,0.3-0.2,0.4c0,0.1,0,0.2,0.1,0.3h-0.2l-0.2,0.5H166.5z M162.7,152c0,0.2,0,0.3,0.1,0.4
			c0.1,0.1,0.2,0.1,0.4,0.1c0.3,0,0.5-0.2,0.5-0.5c0-0.2,0-0.3-0.1-0.4c-0.1-0.1-0.2-0.1-0.4-0.1C162.9,151.5,162.7,151.6,162.7,152
			z M161.5,152c0,0.2,0,0.3,0.1,0.4c0.1,0.1,0.2,0.1,0.4,0.1c0.3,0,0.5-0.2,0.5-0.5c0-0.2,0-0.3-0.1-0.4c-0.1-0.1-0.2-0.1-0.4-0.1
			C161.7,151.5,161.5,151.6,161.5,152z M163.7,149.6c-0.1-0.1-0.1-0.2-0.1-0.4v-2l-1,0.5v1.5c0,0.2,0,0.4-0.1,0.4
			c-0.1,0.1-0.2,0.1-0.4,0.1h-0.7v1h0.8c0.4,0,0.7-0.1,1-0.3c0.3,0.2,0.6,0.3,1,0.3h0.8v-1h-0.7
			C163.9,149.8,163.7,149.7,163.7,149.6z M153.5,150.7c0.4,0,0.7-0.1,1-0.4c0.3,0.2,0.6,0.4,1,0.4h0.8c0.4,0,0.7-0.1,0.9-0.4
			c0.3,0.2,0.6,0.4,1,0.4h0.8c0.4,0,0.7-0.1,1-0.4c0.3,0.3,0.6,0.4,1.1,0.4h0.8v-1H161c-0.2,0-0.4-0.1-0.5-0.2
			c-0.1-0.1-0.2-0.3-0.2-0.5v-1.9l-1,0.5v1.5c0,0.2,0,0.4-0.1,0.4c-0.1,0.1-0.2,0.1-0.4,0.1h-0.5c-0.2,0-0.3,0-0.4-0.1
			c-0.1-0.1-0.1-0.2-0.1-0.4v-1.8l-1,0.5v1.3c0,0.2,0,0.4-0.1,0.4c-0.1,0.1-0.2,0.1-0.4,0.1h-0.5c-0.2,0-0.3,0-0.4-0.1
			c-0.1-0.1-0.1-0.2-0.1-0.4v-1.6l-1,0.5v1.1c0,0.2,0,0.4-0.1,0.4c-0.1,0.1-0.2,0.1-0.4,0.1h-0.8v1H153.5z M150.9,152
			c0,0.2,0,0.3,0.1,0.4c0.1,0.1,0.2,0.1,0.4,0.1c0.3,0,0.5-0.2,0.5-0.5c0-0.2,0-0.3-0.1-0.4c-0.1-0.1-0.2-0.1-0.4-0.1
			C151.1,151.5,150.9,151.6,150.9,152z M149.7,152c0,0.2,0,0.3,0.1,0.4c0.1,0.1,0.2,0.1,0.4,0.1c0.3,0,0.5-0.2,0.5-0.5
			c0-0.2,0-0.3-0.1-0.4c-0.1-0.1-0.2-0.1-0.4-0.1C149.9,151.5,149.7,151.6,149.7,152z M151.9,149.6c-0.1-0.1-0.1-0.2-0.1-0.4v-2
			l-1,0.5v1.5c0,0.2,0,0.4-0.1,0.4c-0.1,0.1-0.2,0.1-0.4,0.1h-0.7v1h0.8c0.4,0,0.7-0.1,1-0.3c0.3,0.2,0.6,0.3,1,0.3h0.8v-1h-0.7
			C152.1,149.8,151.9,149.7,151.9,149.6z M147.6,149.2c0,0.1,0,0.2,0,0.2c-0.1,0.1-0.3,0.2-0.5,0.2c-0.2,0-0.3-0.1-0.4-0.2
			c-0.1-0.1-0.2-0.3-0.2-0.6c0-0.2,0.1-0.4,0.2-0.6c0.1-0.1,0.3-0.2,0.4-0.2c0.2,0,0.3,0.1,0.5,0.2V149.2z M148.8,149.6
			c-0.1-0.1-0.1-0.2-0.1-0.4v-2.7l-1,0.5v0.2c-0.2-0.1-0.3-0.1-0.5-0.1c-0.4,0-0.7,0.1-1,0.4c-0.3,0.3-0.5,0.8-0.5,1.3
			c0,0.4,0.1,0.8,0.4,1.1c0.3,0.4,0.7,0.6,1.2,0.6c0.3,0,0.6-0.1,0.8-0.3c0.3,0.3,0.7,0.5,1.2,0.5h0.8v-1h-0.7
			C149,149.8,148.9,149.7,148.8,149.6z M148.4,145.7c0-0.2,0-0.3-0.1-0.4c-0.1-0.1-0.2-0.1-0.4-0.1c-0.4,0-0.5,0.2-0.5,0.5
			c0,0.2,0,0.3,0.1,0.4c0.1,0.1,0.2,0.1,0.4,0.1C148.2,146.2,148.4,146,148.4,145.7z M147.1,145.7c0-0.2,0-0.3-0.1-0.4
			c-0.1-0.1-0.2-0.1-0.4-0.1c-0.4,0-0.5,0.2-0.5,0.5c0,0.2,0,0.3,0.1,0.4c0.1,0.1,0.2,0.1,0.4,0.1C147,146.2,147.1,146,147.1,145.7z
			 M141.8,149.5c-0.1,0.1-0.3,0.2-0.5,0.2c-0.4,0-0.6-0.3-0.6-0.8c0-0.3,0.1-0.5,0.2-0.6c0.1-0.2,0.3-0.2,0.5-0.2
			c0.3,0,0.5,0.2,0.5,0.5V149.5z M140.9,151.4c-0.3,0-0.6-0.1-0.9-0.2v0.9c0.3,0.2,0.6,0.3,1,0.3c0.5,0,1-0.2,1.3-0.5
			c0.3-0.4,0.5-0.9,0.5-1.5v-1.7c0-0.4-0.1-0.8-0.3-1c-0.3-0.3-0.6-0.5-1.1-0.5c-0.5,0-0.8,0.1-1.1,0.4c-0.3,0.3-0.5,0.8-0.5,1.4
			c0,0.4,0.1,0.8,0.4,1.1c0.3,0.4,0.7,0.6,1.2,0.6c0.2,0,0.3,0,0.5,0C141.7,151.1,141.4,151.4,140.9,151.4z M138.6,152.9l0.3-0.5
			h-0.8l-0.1-0.2c0-0.2,0.1-0.2,0.3-0.2c0.1,0,0.3,0.1,0.4,0.2v-0.5c-0.1-0.1-0.3-0.2-0.4-0.2c-0.2,0-0.3,0.1-0.5,0.2
			c-0.1,0.1-0.2,0.3-0.2,0.4c0,0.1,0,0.2,0.1,0.3h-0.2l-0.3,0.5H138.6z M138.5,150.7v-5.2l-1,0.5v4.6H138.5z M135,150.7
			c0.8,0,1.2-0.5,1.2-1.4c0-0.9-0.5-1.7-1.4-2.2l-0.5,0.8c0.6,0.3,0.8,0.8,0.8,1.4c0,0.3-0.1,0.5-0.4,0.5h-1.3l-0.5,1H135z
			 M132.3,150.7v-5.2l-1,0.5v4.6H132.3z M129.8,147.2l-1,0.5v2.6c0,0.3-0.1,0.6-0.2,0.8c-0.2,0.2-0.4,0.3-0.7,0.3
			c-0.3,0-0.5-0.1-0.8-0.2v0.9c0.3,0.2,0.6,0.3,1,0.3c0.5,0,0.9-0.2,1.2-0.5c0.3-0.4,0.5-0.9,0.5-1.5V147.2z M124.9,149.1
			c0-0.5,0.2-0.9,0.6-1.1c0.4,0.2,0.6,0.6,0.6,1.1c0,0.4-0.2,0.7-0.6,0.7h-0.1C125.1,149.8,124.9,149.5,124.9,149.1z M125.6,150.7
			c0.4,0,0.8-0.1,1.1-0.4c0.3-0.3,0.5-0.7,0.5-1.2c0-0.5-0.1-0.9-0.4-1.2c-0.3-0.4-0.7-0.7-1.2-0.9c-0.5,0.2-0.9,0.4-1.2,0.8
			c-0.3,0.4-0.4,0.8-0.4,1.3c0,0.5,0.1,0.8,0.4,1.1C124.6,150.6,125,150.7,125.6,150.7L125.6,150.7z M126.6,145.7
			c0-0.2,0-0.3-0.1-0.4c-0.1-0.1-0.2-0.1-0.4-0.1c-0.2,0-0.3,0-0.4,0.1s-0.1,0.2-0.1,0.4c0,0.2,0,0.3,0.1,0.4
			c0.1,0.1,0.2,0.1,0.4,0.1C126.5,146.2,126.6,146,126.6,145.7z M125.4,145.7c0-0.2,0-0.3-0.1-0.4c-0.1-0.1-0.2-0.1-0.4-0.1
			c-0.4,0-0.5,0.2-0.5,0.5c0,0.2,0,0.3,0.1,0.4s0.2,0.1,0.4,0.1C125.2,146.2,125.4,146,125.4,145.7z M120.7,150.7v-5.2l-1,0.5v4.6
			H120.7z M117.2,149.1c0,0.3-0.1,0.4-0.2,0.5c-0.1,0.1-0.3,0.2-0.5,0.2h-0.4v-3.2l-1,0.5v2.6h-1.1l-0.5,1h3c0.5,0,0.9-0.1,1.2-0.4
			c0.3-0.3,0.5-0.7,0.5-1.2v-3.5l-1,0.5V149.1z M115.8,145.7l-0.1-0.2c0-0.2,0.1-0.2,0.3-0.2c0.1,0,0.3,0.1,0.4,0.2v-0.5
			c-0.1-0.1-0.3-0.2-0.4-0.2c-0.2,0-0.3,0.1-0.5,0.2c-0.1,0.1-0.2,0.3-0.2,0.4c0,0.1,0,0.2,0.1,0.3h-0.2l-0.3,0.5h1.5l0.3-0.5H115.8
			z M111.7,150.7c0.8,0,1.2-0.5,1.2-1.4c0-0.9-0.5-1.7-1.4-2.2l-0.5,0.8c0.6,0.3,0.8,0.8,0.8,1.4c0,0.3-0.1,0.5-0.4,0.5h-1.3l-0.5,1
			H111.7z M108.9,150.7v-5.2l-1,0.5v4.6H108.9z M104.9,150.7c0.8,0,1.4-0.2,1.8-0.5l0-0.9c-0.4,0.3-0.9,0.5-1.6,0.5l-0.1,0l-0.2,0
			c-0.2-0.2-0.3-0.5-0.3-0.9c0-0.2,0.1-0.4,0.2-0.6c0.1-0.1,0.3-0.2,0.5-0.2c0.4,0,0.7,0.2,1.1,0.6v-0.9c-0.3-0.4-0.7-0.6-1.2-0.6
			c-0.5,0-0.8,0.1-1.1,0.4c-0.3,0.3-0.5,0.8-0.5,1.3c0,0.3,0.1,0.7,0.3,1c-0.3,0.1-0.5,0.2-0.7,0.3v1
			C103.6,150.9,104.2,150.7,104.9,150.7z"/>
	</g>
</g>
<g id="bx1">
	<path class="st6" d="M26.5,131C19,131,13,137,13,144.5S19,158,26.5,158H94v-27H26.5z"/>
	<polygon class="st5" points="163.7,88.1 24.5,131.1 94,131 187.5,88.1 	"/>
	<g>
		<path class="st4" d="M66.1,141.7v-5.2l-1,0.5v4.6H66.1z M62,141.7c0.5,0,0.9-0.1,1.2-0.4c0.3-0.3,0.5-0.7,0.5-1.2v-3.5l-1,0.5v3
			c0,0.3-0.1,0.4-0.2,0.5c-0.1,0.1-0.3,0.2-0.5,0.2h-0.5v1H62z M57.9,139.4c0.3-0.3,0.6-0.4,0.8-0.4c0.3,0,0.6,0.1,0.9,0.4
			c-0.2,0.3-0.5,0.6-0.9,1C58.4,140.1,58.2,139.8,57.9,139.4z M60.9,139.7v-0.4c-0.2-0.4-0.6-0.7-0.9-0.9c-0.4-0.2-0.8-0.3-1.1-0.3
			c-0.4,0-0.8,0.1-1.1,0.3c-0.4,0.2-0.7,0.5-0.9,0.9v0.5l0.1,0.2c0.2,0.2,0.3,0.4,0.4,0.4c0.2,0.1,0.4,0.3,0.6,0.5h-2.2v1h2.3
			c0.3,0,0.5-0.1,0.8-0.2c0.2,0.1,0.5,0.2,0.8,0.2h2.3l0-1h-2.2C60.1,140.5,60.5,140.1,60.9,139.7z M55.1,140.6
			c-0.1-0.1-0.1-0.2-0.1-0.4v-3.6l-1,0.5v3c0,0.3-0.1,0.4-0.2,0.5c-0.1,0.1-0.3,0.2-0.5,0.2h-0.4v-3.2l-1,0.5v2.6h-1.1l-0.5,1h3
			c0.4,0,0.8-0.1,1.1-0.4c0.3,0.2,0.6,0.4,1,0.4h0.8v-1h-0.7C55.3,140.8,55.2,140.7,55.1,140.6z M47.5,139.5c0-0.4,0.1-0.5,0.4-0.5
			c0.4,0,0.6,0.3,0.6,0.9c0,0.6-0.2,0.9-0.6,0.9c-0.3,0-0.5-0.1-0.5-0.4V139.5z M46.5,140.2c0,0.2,0,0.4-0.1,0.4
			c-0.1,0.1-0.2,0.1-0.4,0.1h-0.7v1H46c0.4,0,0.7-0.1,0.9-0.3c0.3,0.2,0.6,0.3,1,0.3c0.4,0,0.8-0.1,1.1-0.4c0.3-0.3,0.5-0.8,0.5-1.4
			c0-0.5-0.1-0.9-0.4-1.3c-0.3-0.4-0.7-0.6-1.2-0.6c-0.4,0-0.7,0.1-1,0.4c-0.3,0.3-0.4,0.6-0.4,1.1V140.2z M43.4,140.2
			c0,0.1,0,0.2,0,0.2c-0.1,0.1-0.3,0.2-0.5,0.2c-0.2,0-0.3-0.1-0.4-0.2c-0.1-0.1-0.2-0.3-0.2-0.6c0-0.2,0.1-0.4,0.2-0.6
			c0.1-0.1,0.3-0.2,0.4-0.2c0.2,0,0.3,0.1,0.5,0.2V140.2z M44.5,140.6c-0.1-0.1-0.1-0.2-0.1-0.4v-2.7l-1,0.5v0.2
			c-0.2-0.1-0.3-0.1-0.5-0.1c-0.4,0-0.7,0.1-1,0.4c-0.3,0.3-0.5,0.8-0.5,1.3c0,0.4,0.1,0.8,0.4,1.1c0.3,0.4,0.7,0.6,1.2,0.6
			c0.3,0,0.6-0.1,0.8-0.3c0.3,0.3,0.7,0.5,1.2,0.5h0.8v-1H45C44.8,140.8,44.6,140.7,44.5,140.6z M44.1,136.7c0-0.2,0-0.3-0.1-0.4
			c-0.1-0.1-0.2-0.1-0.4-0.1c-0.4,0-0.5,0.2-0.5,0.5c0,0.2,0,0.3,0.1,0.4s0.2,0.1,0.4,0.1C44,137.2,44.1,137,44.1,136.7z
			 M42.9,136.7c0-0.2,0-0.3-0.1-0.4c-0.1-0.1-0.2-0.1-0.4-0.1c-0.4,0-0.5,0.2-0.5,0.5c0,0.2,0,0.3,0.1,0.4s0.2,0.1,0.4,0.1
			C42.7,137.2,42.9,137,42.9,136.7z"/>
		<path class="st4" d="M66.7,150.7v-5.2l-1,0.5v4.6H66.7z M62.6,150.7c0.5,0,0.9-0.1,1.2-0.4c0.3-0.3,0.5-0.7,0.5-1.2v-3.5l-1,0.5v3
			c0,0.3-0.1,0.4-0.2,0.5c-0.1,0.1-0.3,0.2-0.5,0.2H62v1H62.6z M61.4,149.6c-0.1-0.1-0.1-0.2-0.1-0.4v-2l-1,0.5v1.5
			c0,0.2,0,0.4-0.1,0.4c-0.1,0.1-0.2,0.1-0.4,0.1h-0.7v1h0.8c0.4,0,0.7-0.1,1-0.3c0.3,0.2,0.6,0.3,1,0.3h0.8v-1h-0.7
			C61.6,149.8,61.4,149.7,61.4,149.6z M61.4,146c0-0.2,0-0.3-0.1-0.4c-0.1-0.1-0.2-0.1-0.4-0.1c-0.2,0-0.3,0-0.4,0.1
			c-0.1,0.1-0.1,0.2-0.1,0.4c0,0.2,0,0.3,0.1,0.4c0.1,0.1,0.2,0.1,0.4,0.1C61.3,146.5,61.4,146.3,61.4,146z M60.2,146
			c0-0.2,0-0.3-0.1-0.4c-0.1-0.1-0.2-0.1-0.4-0.1c-0.2,0-0.3,0-0.4,0.1c-0.1,0.1-0.1,0.2-0.1,0.4c0,0.2,0,0.3,0.1,0.4
			c0.1,0.1,0.2,0.1,0.4,0.1C60,146.5,60.2,146.3,60.2,146z M56.1,151.6c-0.1,0.1-0.1,0.2-0.1,0.4c0,0.2,0,0.3,0.1,0.4
			s0.2,0.1,0.4,0.1c0.3,0,0.5-0.2,0.5-0.5c0-0.2,0-0.3-0.1-0.4c-0.1-0.1-0.2-0.1-0.4-0.1C56.4,151.5,56.2,151.5,56.1,151.6z
			 M57.7,149.6c0.1-0.1,0.3-0.3,0.3-0.4v-0.4c-0.3-0.6-0.7-1-1-1.3c-0.4-0.3-0.8-0.5-1.2-0.5c-0.6,0-1.1,0.2-1.5,0.7v0.9
			c0.5-0.5,1-0.7,1.4-0.7c0.5,0,1,0.3,1.3,1c-0.6,0.6-1.3,0.8-2.2,0.8h-1.2v1h1.2c0.9,0,1.6-0.2,2.3-0.6c0.2,0.2,0.5,0.4,0.7,0.5
			c0.3,0.1,0.6,0.1,1,0.1h0.7v-1h-0.7C58.3,149.8,57.9,149.7,57.7,149.6z M54,150.7v-1h-0.7c-0.2,0-0.3,0-0.4-0.1
			c-0.1-0.1-0.1-0.2-0.1-0.4v-3.6l-1,0.5v3.1c0,0.4,0.1,0.8,0.3,1c0.3,0.3,0.6,0.5,1.1,0.5H54z M50.3,147.2l-1,0.5v2.6
			c0,0.3-0.1,0.6-0.2,0.8c-0.2,0.2-0.4,0.3-0.7,0.3c-0.3,0-0.5-0.1-0.8-0.2v0.9c0.3,0.2,0.6,0.3,1,0.3c0.5,0,0.9-0.2,1.2-0.5
			c0.3-0.4,0.5-0.9,0.5-1.5V147.2z M46.8,152c0-0.2,0-0.3-0.1-0.4c-0.1-0.1-0.2-0.1-0.4-0.1c-0.4,0-0.5,0.2-0.5,0.5
			c0,0.2,0,0.3,0.1,0.4s0.2,0.1,0.4,0.1C46.6,152.5,46.8,152.3,46.8,152z M45.5,152c0-0.2,0-0.3-0.1-0.4c-0.1-0.1-0.2-0.1-0.4-0.1
			c-0.4,0-0.5,0.2-0.5,0.5c0,0.2,0,0.3,0.1,0.4s0.2,0.1,0.4,0.1C45.4,152.5,45.5,152.3,45.5,152z M45.4,150.7c0.4,0,0.8-0.1,1-0.4
			c0.3-0.3,0.4-0.7,0.4-1.1v-2.1l-1,0.5v1.5c0,0.2,0,0.4-0.1,0.4c-0.1,0.1-0.2,0.1-0.4,0.1h-0.7v1H45.4z M42.8,149.2
			c0,0.1,0,0.2,0,0.2c-0.1,0.1-0.3,0.2-0.5,0.2c-0.2,0-0.3-0.1-0.4-0.2c-0.1-0.1-0.2-0.3-0.2-0.6c0-0.2,0.1-0.4,0.2-0.6
			c0.1-0.1,0.3-0.2,0.4-0.2c0.2,0,0.3,0.1,0.5,0.2V149.2z M43.9,149.6c-0.1-0.1-0.1-0.2-0.1-0.4v-2.7l-1,0.5v0.2
			c-0.2-0.1-0.3-0.1-0.5-0.1c-0.4,0-0.7,0.1-1,0.4c-0.3,0.3-0.5,0.8-0.5,1.3c0,0.4,0.1,0.8,0.4,1.1c0.3,0.4,0.7,0.6,1.2,0.6
			c0.3,0,0.6-0.1,0.8-0.3c0.3,0.3,0.7,0.5,1.2,0.5h0.8v-1h-0.7C44.2,149.8,44,149.7,43.9,149.6z M43.5,145.7c0-0.2,0-0.3-0.1-0.4
			c-0.1-0.1-0.2-0.1-0.4-0.1c-0.4,0-0.5,0.2-0.5,0.5c0,0.2,0,0.3,0.1,0.4c0.1,0.1,0.2,0.1,0.4,0.1C43.4,146.2,43.5,146,43.5,145.7z
			 M42.3,145.7c0-0.2,0-0.3-0.1-0.4c-0.1-0.1-0.2-0.1-0.4-0.1c-0.4,0-0.5,0.2-0.5,0.5c0,0.2,0,0.3,0.1,0.4c0.1,0.1,0.2,0.1,0.4,0.1
			C42.1,146.2,42.3,146,42.3,145.7z"/>
	</g>
</g>
<g id="icon">
	<path d="M173.8,21.8h3.7c1.9,0,2.8,0.1,3.6,0.5c0.5,0.3,1,0.7,1.4,1.2c0.6,0.9,0.9,1.9,0.9,3.3c0,2.1-0.9,3.8-2.3,4.5
		c-0.9,0.4-1.6,0.6-3.5,0.6h-3.9V21.8H173.8z M177.6,30c1.4,0,1.9-0.1,2.4-0.3c0.3-0.1,0.5-0.4,0.7-0.6c0.4-0.6,0.6-1.3,0.6-2.2
		c0-1.5-0.5-2.5-1.4-2.9c-0.5-0.2-0.8-0.2-1.9-0.2h-2V30H177.6z"/>
	<path d="M199.5,31.9c-2.9,0-5.1-2.1-5.1-5s2.1-5,5.1-5c2.9,0,5.1,2.1,5.1,5C204.5,29.8,202.4,31.9,199.5,31.9 M199.5,23.7
		c-1.7,0-2.9,1.3-2.9,3.2c0,1.9,1.2,3.2,2.9,3.2s2.9-1.3,2.9-3.2C202.3,25,201.2,23.7,199.5,23.7"/>
	<path d="M171.3,31.9c1,0,1.8-0.9,1.8-1.9h-5.8v-2.3h3.3c0.9,0,1.7-0.8,1.7-1.8h-5v-2.1h3.8c1,0,1.7-0.8,1.7-1.9h-7.7v10L171.3,31.9
		z"/>
	<path d="M163.6,24.1c-0.3-0.9-0.9-1.5-1.9-1.9c-0.6-0.3-1.3-0.4-2.2-0.4c-0.2,0-0.4,0-0.6,0c-2.1,0.2-3.4,1.2-3.4,2.9
		c0,1.5,0.9,2.4,2.8,2.8l1,0.2c1.9,0.4,2.3,0.5,2.3,1.2s-0.8,1.1-2,1.1c-0.8,0-1.5-0.2-1.9-0.7l0,0l-0.1-0.1l0,0
		c-0.6-0.7-1.7-0.7-2.4,0l0,0l0,0c0.3,1.2,1.1,2,2.3,2.3c0.6,0.2,1.2,0.3,2,0.3c0.2,0,0.4,0,0.6,0c2.3-0.2,3.7-1.3,3.7-3.1
		c0-0.8-0.2-1.4-0.7-1.9c-0.3-0.3-0.6-0.5-1-0.6c-0.5-0.2-0.8-0.3-2.1-0.5c-2.2-0.4-2.4-0.6-2.4-1.2s0.7-1,1.8-1
		c0.7,0,1.3,0.2,1.6,0.5l0,0l0,0l0,0C161.9,24.8,162.9,24.8,163.6,24.1L163.6,24.1z"/>
	<path d="M191.3,29.3L191.3,29.3c-0.1,0.1-0.1,0.1-0.2,0.2c-0.4,0.4-1,0.5-1.7,0.5c-1.7,0-2.8-1.2-2.8-3.1s1.2-3.2,2.9-3.2
		c0.7,0,1.2,0.2,1.6,0.5l0,0c0.7,0.6,1.8,0.6,2.5-0.2l0,0c-0.3-0.7-0.9-1.2-1.5-1.6c-0.7-0.4-1.6-0.6-2.6-0.6c-0.2,0-0.5,0-0.7,0
		c-2.6,0.3-4.4,2.3-4.4,5c0,3,2,5,5,5c2,0,3.6-0.9,4.3-2.4l0,0C193.1,28.8,192,28.7,191.3,29.3"/>
	<polygon class="st12" points="158.6,39.7 156.4,39.7 156.4,37.6 155.3,37.6 155.3,42.8 156.4,42.8 156.4,40.5 158.6,40.5 
		158.6,42.8 159.7,42.8 159.7,37.6 158.6,37.6 	"/>
	<path class="st12" d="M165.9,41.5c-0.2,0.3-0.5,0.4-0.9,0.4c-0.8,0-1.2-0.6-1.2-1.7c0-0.6,0.1-1,0.3-1.3s0.5-0.5,0.9-0.5
		s0.6,0.1,0.8,0.4c0.2,0.3,0.3,0.8,0.3,1.3C166.2,40.8,166.1,41.2,165.9,41.5 M165,37.6c-0.7,0-1.2,0.2-1.6,0.7
		c-0.4,0.5-0.6,1.1-0.6,1.9c0,0.7,0.2,1.2,0.5,1.7c0.4,0.6,1,0.8,1.8,0.8c0.7,0,1.2-0.2,1.6-0.7c0.4-0.5,0.6-1.1,0.6-1.9
		c0-0.7-0.2-1.3-0.5-1.7C166.4,37.9,165.8,37.6,165,37.6"/>
	<polygon class="st12" points="172.1,37.6 171,37.6 171,42.8 174,42.8 174,41.9 172.1,41.9 	"/>
	<path class="st12" d="M179.4,42c-0.2,0-0.3,0-0.4,0v-3.4c0.1,0,0.2,0,0.4,0c0.4,0,0.8,0.1,1,0.4c0.3,0.3,0.5,0.8,0.5,1.4
		C180.9,41.4,180.4,42,179.4,42 M179.4,37.6c-0.7,0-1.1,0-1.4,0.1v5c0.3,0.1,0.8,0.1,1.3,0.1c0.8,0,1.5-0.2,1.9-0.6
		c0.5-0.5,0.8-1.1,0.8-2c0-0.7-0.2-1.3-0.6-1.7C180.9,37.9,180.3,37.6,179.4,37.6"/>
	<rect x="187" y="37.6" class="st12" width="1.1" height="5.2"/>
	<path class="st12" d="M196.2,41.2c-0.9-1.2-1.7-2.4-2.6-3.6h-0.9v5.2h1.1v-3.5c1.2,1.7,2.1,2.9,2.6,3.5h0.9v-5.2h-1.1V41.2z"/>
	<path class="st12" d="M202.7,39.9v0.9h0.9v1c-0.2,0.1-0.4,0.1-0.6,0.1c-0.4,0-0.6-0.1-0.9-0.4c-0.3-0.3-0.4-0.7-0.4-1.3
		c0-0.5,0.1-0.9,0.3-1.2s0.5-0.5,0.9-0.5s0.7,0.1,1.1,0.4l0.4-0.7c-0.5-0.4-1-0.6-1.6-0.6s-1.2,0.2-1.6,0.7
		c-0.4,0.5-0.7,1.1-0.7,1.9c0,0.6,0.1,1.2,0.4,1.6c0.4,0.6,1,0.9,1.8,0.9c0.6,0,1.2-0.2,1.8-0.5v-2.4L202.7,39.9L202.7,39.9z"/>
	<path class="st12" d="M221.3,25.2h6.7v6.7h-6.7V25.2z M221.3,18.4v-0.3c0-3.2-3.4-6.4-6.7-6.4v20.1h-0.3c-3.2,0-6.4,3.4-6.4,6.7
		H228v0.3c0,3.2,3.4,6.4,6.7,6.4v-20h0.3c3.2,0,6.4-3.4,6.4-6.7h-20.1L221.3,18.4L221.3,18.4z"/>
	
		<linearGradient id="SVGID_1_" gradientUnits="userSpaceOnUse" x1="-1621.6007" y1="-374.1147" x2="-1620.931" y2="-374.1147" gradientTransform="matrix(-20.13 0 0 -20.13 -32408.0605 -7508.978)">
		<stop  offset="0" style="stop-color:#D4A628"/>
		<stop  offset="0.8" style="stop-color:#D2A629"/>
		<stop  offset="0.8089" style="stop-color:#D0A529"/>
		<stop  offset="1" style="stop-color:#AC8827"/>
	</linearGradient>
	<rect x="221.3" y="18.6" class="st13" width="13.5" height="6.7"/>
	<path class="st1" d="M221.3,18.4v6.7H235c3.2,0,6.4-3.4,6.4-6.7C241.4,18.4,221.3,18.4,221.3,18.4z"/>
	
		<linearGradient id="SVGID_00000066508738067022237770000012662687293773343152_" gradientUnits="userSpaceOnUse" x1="-1602.9879" y1="-244.8492" x2="-1602.3289" y2="-244.8492" gradientTransform="matrix(0 -20.13 20.13 0 5160.1636 -32229.7266)">
		<stop  offset="0" style="stop-color:#D4A628"/>
		<stop  offset="0.8" style="stop-color:#D2A629"/>
		<stop  offset="0.8089" style="stop-color:#D0A529"/>
		<stop  offset="1" style="stop-color:#AC8827"/>
	</linearGradient>
	
		<rect x="228" y="25.2" style="fill:url(#SVGID_00000066508738067022237770000012662687293773343152_);" width="6.7" height="13.2"/>
	<path class="st1" d="M228,25.2V39c0,3.2,3.4,6.4,6.7,6.4V25.2H228z"/>
	
		<linearGradient id="SVGID_00000099637768221648905300000014581208942750710685_" gradientUnits="userSpaceOnUse" x1="-1473.7314" y1="-263.4525" x2="-1473.0697" y2="-263.4525" gradientTransform="matrix(20.13 0 0 20.13 29880.9141 5338.4976)">
		<stop  offset="0" style="stop-color:#D4A628"/>
		<stop  offset="0.8" style="stop-color:#D2A629"/>
		<stop  offset="0.8089" style="stop-color:#D0A529"/>
		<stop  offset="1" style="stop-color:#AC8827"/>
	</linearGradient>
	
		<rect x="214.7" y="31.9" style="fill:url(#SVGID_00000099637768221648905300000014581208942750710685_);" width="13.3" height="6.6"/>
	<path class="st1" d="M214.2,31.9c-3.2,0-6.4,3.4-6.4,6.7H228v-6.7C228,31.9,214.2,31.9,214.2,31.9z"/>
	
		<linearGradient id="SVGID_00000109740111953398504500000007807829154859134099_" gradientUnits="userSpaceOnUse" x1="-1492.3365" y1="-392.7105" x2="-1491.6738" y2="-392.7105" gradientTransform="matrix(0 20.13 -20.13 0 -7687.312 30059.248)">
		<stop  offset="0" style="stop-color:#D4A628"/>
		<stop  offset="0.8" style="stop-color:#D2A629"/>
		<stop  offset="0.8089" style="stop-color:#D0A529"/>
		<stop  offset="1" style="stop-color:#AC8827"/>
	</linearGradient>
	
		<rect x="214.6" y="18.5" style="fill:url(#SVGID_00000109740111953398504500000007807829154859134099_);" width="6.7" height="13.3"/>
	<path class="st1" d="M214.6,31.9h6.7V18.1c0-3.2-3.4-6.4-6.7-6.4V31.9z"/>
	<path class="st12" d="M245.7,38.5c0.3,0,0.5-0.2,0.5-0.5c0-0.2,0-0.3-0.1-0.4c-0.1-0.1-0.2-0.1-0.4-0.1c-0.3,0-0.5,0.2-0.5,0.5
		c0,0.2,0,0.3,0.1,0.4C245.4,38.4,245.6,38.5,245.7,38.5"/>
	<path class="st12" d="M246.9,38.5c0.3,0,0.5-0.2,0.5-0.5c0-0.2,0-0.3-0.1-0.4c-0.1-0.1-0.2-0.1-0.4-0.1c-0.3,0-0.5,0.2-0.5,0.5
		c0,0.2,0,0.3,0.1,0.4C246.6,38.4,246.7,38.5,246.9,38.5"/>
	<path class="st12" d="M268.9,38.5c0.3,0,0.5-0.2,0.5-0.5c0-0.2,0-0.3-0.1-0.4c-0.1-0.1-0.2-0.1-0.4-0.1c-0.2,0-0.3,0-0.4,0.1
		s-0.1,0.2-0.1,0.4s0,0.3,0.1,0.4C268.6,38.4,268.7,38.5,268.9,38.5"/>
	<path class="st12" d="M269.9,41.3c0,0.2,0,0.4-0.1,0.4c-0.1,0.1-0.2,0.1-0.4,0.1H267c0.2-0.5,0.5-0.9,0.8-1.2s0.7-0.5,1.1-0.5
		c0.3,0,0.5,0.1,0.7,0.3s0.3,0.4,0.3,0.7V41.3z M246.2,41.7c-0.2,0-0.3-0.1-0.4-0.2c-0.1-0.1-0.2-0.3-0.2-0.5s0.1-0.4,0.2-0.5
		c0.1-0.1,0.2-0.2,0.4-0.2s0.3,0.1,0.5,0.2v0.9c0,0.1,0,0.2,0,0.2C246.6,41.7,246.4,41.7,246.2,41.7 M274.9,41.3
		c0,0.2,0,0.3-0.1,0.4c-0.1,0.1-0.2,0.1-0.4,0.1h-0.2h-0.5h-0.4h-0.5h0.1h-0.5H272h-0.7c-0.4,0-0.5-0.2-0.5-0.5v-0.2
		c0-0.5-0.2-1-0.5-1.3c-0.4-0.4-0.8-0.6-1.4-0.6c-0.7,0-1.3,0.3-1.8,0.8s-0.8,1.1-1.1,1.8c-0.3,0-0.4-0.2-0.4-0.5v-1.5l-1,0.5v1
		c0,0.2,0,0.3-0.1,0.4c-0.1,0.1-0.2,0.1-0.4,0.1h-0.7H263h-0.5h-0.4h-0.5h-0.4h-0.5h-0.4h-0.5h-0.4h-0.5h-0.4H258h-0.4h-0.5h-0.4
		h-0.5H256h-0.5h-0.4h-0.5h-0.4h-0.5h-0.4h-0.5h-0.4H252h-0.4h-0.5h-0.4h-0.5h-0.4h-0.5h-0.4h-0.7c-0.2,0-0.3,0-0.4-0.1
		c-0.1-0.1-0.1-0.2-0.1-0.4v-2.5l-1,0.5v0.2c-0.2-0.1-0.3-0.1-0.5-0.1c-0.4,0-0.7,0.1-1,0.4c-0.3,0.3-0.5,0.7-0.5,1.2
		c0,0.4,0.1,0.8,0.3,1c0.3,0.4,0.7,0.5,1.1,0.5c0.3,0,0.6-0.1,0.8-0.3c0.3,0.3,0.6,0.5,1.1,0.5h0.8h0.4h0.5h0.4h0.5h0.4h0.5h0.4h0.5
		h0.4h0.5h0.4h0.5h0.4h0.5h0.4h0.5h0.4h0.5h0.4h0.5h0.4h0.5h0.4h0.5h0.4h0.5h0.4h0.5h0.4h0.5h0.4h0.5h0.4h0.8c0.4,0,0.7-0.1,0.9-0.3
		c0.2,0.2,0.6,0.3,0.9,0.3h3.3c0.4,0,0.7-0.1,0.9-0.3c0.2,0.2,0.6,0.3,0.9,0.3h0.8h0.4h0.5h-0.1h0.5h0.4h0.5h0.3
		c0.4,0,0.7-0.1,1-0.3c0.3-0.3,0.4-0.6,0.4-1.1v-2l-1,0.5L274.9,41.3L274.9,41.3z"/>
	<path class="st12" d="M274.8,43.4c-0.2,0-0.3,0-0.4,0.1s-0.1,0.2-0.1,0.4s0,0.3,0.1,0.4c0.1,0.1,0.2,0.1,0.4,0.1
		c0.3,0,0.5-0.2,0.5-0.5c0-0.2,0-0.3-0.1-0.4C275.1,43.5,274.9,43.4,274.8,43.4"/>
	<path class="st12" d="M286.8,38.5c0.3,0,0.5-0.2,0.5-0.5c0-0.2,0-0.3-0.1-0.4c-0.1-0.1-0.2-0.1-0.4-0.1c-0.3,0-0.5,0.2-0.5,0.5
		c0,0.2,0,0.3,0.1,0.4C286.6,38.4,286.7,38.5,286.8,38.5"/>
	<path class="st12" d="M288,38.5c0.3,0,0.5-0.2,0.5-0.5c0-0.2,0-0.3-0.1-0.4c-0.1-0.1-0.2-0.1-0.4-0.1c-0.3,0-0.5,0.2-0.5,0.5
		c0,0.2,0,0.3,0.1,0.4C287.7,38.4,287.9,38.5,288,38.5"/>
	<path class="st12" d="M287.8,41.4c-0.1,0.2-0.3,0.3-0.4,0.4c-0.2-0.1-0.3-0.2-0.4-0.4s-0.2-0.4-0.2-0.6c0-0.5,0.2-0.7,0.6-0.7
		c0.2,0,0.3,0.1,0.4,0.2c0.1,0.1,0.2,0.3,0.2,0.5C288,41,287.9,41.2,287.8,41.4 M291.4,41.2c0,0.2-0.1,0.4-0.1,0.5
		c-0.1,0.1-0.3,0.2-0.5,0.2l0,0h-0.5h-0.4h-1.2c0.2-0.3,0.3-0.6,0.3-0.9c0-0.4-0.1-0.8-0.3-1.1c-0.3-0.4-0.7-0.5-1.2-0.5
		c-0.4,0-0.8,0.1-1.1,0.4c-0.3,0.3-0.5,0.7-0.5,1.2c0,0.3,0.1,0.6,0.3,0.9H285h-0.4h-0.5h-0.4h-0.5h-0.4h-0.5h-0.4h-0.5H281h-0.5
		h-0.4h-0.5h-0.4h-0.5h-0.2c-0.2,0-0.3,0-0.4-0.1s-0.1-0.2-0.1-0.4v-3.7l-1,0.5v3.2c0,0.4,0.1,0.7,0.3,1c0.3,0.3,0.6,0.4,1.1,0.4
		h0.3h0.5h0.4h0.5h0.4h0.5h0.4h0.5h0.4h0.5h0.4h0.5h0.4h0.5h0.4h1.8c0.2,0,0.5,0,0.6-0.1c0.1,0,0.4,0.1,0.6,0.1h1.8h0.4h0.5h0.1
		c0.5,0,0.8-0.1,1.1-0.4c0.3-0.3,0.5-0.7,0.5-1.2v-3.6l-1,0.5L291.4,41.2L291.4,41.2z"/>
	<polygon class="st12" points="293,38.1 293,42.8 293.9,42.8 293.9,37.6 	"/>
	<path d="M284.5,30.6c0.2,0.3,0.5,0.6,0.8,0.9c0.3,0.2,0.8,0.4,1.3,0.4s1-0.1,1.4-0.3c0.4-0.2,0.8-0.5,1-1c0,0,0,0,0.1,0l0,0
		c0,0,0,0,0.1,0c0.2,0.3,0.5,0.6,0.8,0.9s0.8,0.4,1.4,0.4h2.7v-6l0,0v-0.6c0-1.1-1.1-2.1-2.2-2.2v1l0,0v5.5c0,0,0,0.1-0.1,0.1h-0.3
		c-0.7,0-1.2-0.2-1.5-0.6s-0.4-0.8-0.4-1.4V26l0,0v-0.8c0-1.1-1.1-2.1-2.3-2.2v1l0,0v4.5v0.6v0.4l0,0l0,0l0,0h-0.4
		c-0.7,0-1.2-0.2-1.5-0.6s-0.4-0.8-0.4-1.4v-1.9l0,0V25c0-1.1-1.1-2.1-2.2-2.2v3v2.5c0,0.3-0.1,0.6-0.2,0.8
		c-0.1,0.2-0.4,0.3-0.7,0.3h-1h-0.7c-0.6,0-1.2-0.2-1.5-0.6c-0.2-0.2-0.3-0.6-0.4-1c-0.2-3.1-3.4-6.2-6.4-6.2c-1,0-2,1-2,2.1h1.6
		l0,0h0.1c2.2,0,4.4,2.2,4.4,4.4l0,0v0.1c0,0.4-0.1,0.7-0.2,0.9c-0.1,0.2-0.4,0.3-0.7,0.3h-3.7h-0.8c-1,0-2.1,1.1-2.1,2.2h1.8l0,0
		h4.9c0.5,0,1-0.1,1.5-0.4c0.4-0.2,0.8-0.5,1-0.9c0,0,0,0,0.1,0l0,0l0,0c0.2,0.3,0.5,0.6,0.9,0.9c0.3,0.2,0.8,0.4,1.3,0.4
		c0.1,0,0.1,0,0.2,0h1.8c0.6,0,1.1-0.1,1.6-0.3c0.4-0.2,0.8-0.5,1-0.9C284.4,30.6,284.4,30.6,284.5,30.6L284.5,30.6"/>
	<path d="M252.8,29.6C252.8,29.6,252.8,29.7,252.8,29.6l-5,0.1c-0.3,0-0.5-0.1-0.7-0.4c-0.1-0.2-0.2-0.4-0.2-0.8v-0.1c0,0,0,0,0-0.1
		c0-2.1,2.1-4.3,4.2-4.3c0.1,0,0.3,0,0.4,0c0.3,0,0.7,0,0.9,0.2c0.2,0.1,0.3,0.5,0.3,0.8v4.6H252.8z M266.6,31.6
		c0.5-0.2,0.9-0.5,1.2-0.9c0.3-0.4,0.4-0.8,0.5-1.2v-0.1c0.1-0.5,0.1-0.9,0.1-1.3c0-0.1,0-0.2,0-0.3c-0.1-0.3-0.1-0.5-0.2-0.8
		s-0.3-0.6-0.5-0.8c-0.4-0.5-1-0.9-1.6-1.3c-0.1-0.1-0.2-0.1-0.3-0.2c-1-0.4-2.1-0.6-3.6-0.6h-2.5c0,0,0,0-0.1,0c0,0,0,0,0-0.1
		l3-2.6c0.5-0.4,0.7-1,0.8-1.7c0-0.6-0.1-1.1-0.4-1.4c-5.5,4.7-6.5,5.6-6.7,5.8v2.2h6.1c0.5,0,1.1,0,1.7,0.1s1.1,0.3,1.5,0.5
		c0.2,0.2,0.4,0.3,0.5,0.5c0.2,0.3,0.2,0.6,0.2,0.9c0,0.2,0,0.3-0.1,0.5c0,0.2-0.1,0.3-0.2,0.4l0,0c-0.1,0.2-0.4,0.4-0.7,0.4H255
		c0,0-0.1,0-0.1-0.1v-4.8c0-1.2-0.9-2.4-2.1-2.7c-0.5-0.1-1-0.2-1.4-0.2l0,0H251c-1.8,0-3.6,0.8-4.8,2.2c-0.5,0.5-0.7,1.1-1,1.9
		c-0.4,1.1-0.6,2.1-0.4,3.2c0.1,0.8,0.5,1.9,1.5,2.4c0.6,0.3,1.2,0.3,1.8,0.3h0.2h0.2h2.2c0,0,0.1,0,0.2,0c0.3,0,0.9,0,1.3,0
		c0.4,0,0.4,0,0.5,0l0,0l0,0l0,0l0,0l0,0l0,0c0,0.3-0.1,0.5-0.2,0.6c-0.2,0.3-0.4,0.5-0.7,0.7s-0.6,0.3-0.9,0.3
		c-0.3,0-0.6,0.1-1,0.1h-1.1H248c-1,0-2,1.1-2.1,2.1h2.8l0,0h1.1c0.7,0,1.3-0.1,1.9-0.2c0.6-0.2,1.2-0.4,1.6-0.8
		c0.5-0.3,0.8-0.8,1.1-1.3c0.2-0.4,0.4-0.9,0.4-1.5c0,0,0-0.1,0.1-0.1h7.8c0.2,0,0.4,0,0.6,0s0.4,0,0.6,0c0.1,0,0.2,0,0.3,0
		c0.1,0,0.2,0,0.2,0c0.1,0,0.3,0,0.4,0C265.5,31.8,266.1,31.8,266.6,31.6"/>
</g>
</svg>
