<?xml version="1.0" encoding="utf-8"?>
<!-- Generator: Adobe Illustrator 25.4.1, SVG Export Plug-In . SVG Version: 6.00 Build 0)  -->
<svg version="1.1" id="Layer_1" xmlns="http://www.w3.org/2000/svg" xmlns:xlink="http://www.w3.org/1999/xlink" x="0px" y="0px"
	 viewBox="0 0 817.5 200.4" style="enable-background:new 0 0 817.5 200.4;" xml:space="preserve">
<style type="text/css">
	.st0{fill:none;stroke:#6E609E;stroke-width:0.5;stroke-linecap:round;stroke-linejoin:round;}
	.st1{fill:none;stroke:#6E609E;stroke-width:0.5;stroke-linecap:round;stroke-linejoin:round;stroke-miterlimit:4.0001;}
	.st2{fill:none;}
	.st3{fill:none;stroke:#3D3184;stroke-width:0.53;}
	.st4{fill:none;stroke:#3D3184;stroke-width:1.059;stroke-linecap:round;stroke-linejoin:round;stroke-dasharray:0,2.19;}
	.st5{fill:none;stroke:#3D3184;stroke-width:1.059;stroke-linecap:round;stroke-linejoin:round;}
	.st6{fill:none;stroke:#3D3184;stroke-width:0.5;}
	.st7{fill:none;stroke:#3D3184;stroke-width:0.25;stroke-miterlimit:10;}
	.st8{fill:none;stroke:#3D3184;stroke-width:0.265;}
	.st9{fill:none;stroke:#3D3184;stroke-width:0.487;}
	.st10{fill:none;stroke:#3D3184;stroke-width:0.5;stroke-linecap:round;stroke-linejoin:round;}
	
	
		*{
        -webkit-animation-play-state: paused;
                animation-play-state: paused;
    }

    .play-svg-anim *{
        -webkit-animation-play-state: running;
                animation-play-state: running;
    }
	
	
	
	
	#b1,#b2,#b3,#b4,#b5,#b6,#b7,#b8,#b9
	{		transform: translateY(200px); opacity: 1;
		    animation-fill-mode: forwards; 
	        animation-iteration-count: 1;
            animation-name: down; 
			animation-duration: 5s; 
			
	}
	
	#b1{animation-delay: 1.2s;}
	#b2{animation-delay: 1.4s;}
	#b3{animation-delay: 1.6s;}
	#b4{animation-delay: 1.8s;}
	#b5{animation-delay: 2s;}
	#b6{animation-delay: 2.2s;}
	#b7{animation-delay: 2.4s;}
	#b8{animation-delay: 2.6s;}
	#b9{animation-delay: 2.8s;}
	
	
		#map,#box1,#box2
	{
	animation-name: zoom; 
	animation-duration: 3s; 
	transition-timing-function: ease-out; 
	opacity:0; animation-fill-mode: forwards;	
	
	}


	#map { animation-delay: 0s; transform-origin: 108.5499px 158px;}
	#box1 { animation-delay: 0.25s; transform-origin: 251.5px 125.75px;}
	#box2 { animation-delay: 1s; transform-origin: 251.5px 125.75px;}

		@keyframes down {
	0% {opacity: 1;}
  	20% {transform: translateY(200px);	opacity: 1; }
  	60% { transform: translateY(-3px); }
  	90% { transform: translateY(0px); }
  	100% { opacity: 1; transform: translateY(0px); }
	}
	
	
	@keyframes zoom {
	0% {
       transform: scale(0, 0);
		opacity:0;
    	}
    65% {
        transform: scale(1.05, 1.05);
		opacity:1;
    }
	  100% {
        transform: scale(1, 1);
		opacity:1;
    }
}
	
	
	
	#box3,#lns
	{
	opacity:0; 
	animation-name: show; 
	animation-duration: 1s; 
	transition-timing-function: ease-out; 
	animation-fill-mode: forwards;	
	animation-delay: 5.5s;
	}
	
	
	
		@keyframes show {
	0% {
		opacity:0;
    	}

	  100% {
		opacity:1;
    }
}
	
	
	
			#flight1
	{
	transform: translateX(600px);
	animation-name: move; 
	animation-duration: 20s; 
	animation-fill-mode: forwards;	
	animation-iteration-count: infinite;
	}
	

	@keyframes move {
  	0% {transform: translateX(800px);}
  	100% {transform: translateX(-400px); }
	}
	
	
				#flight2
	{
	transform: translateX(180px);
	animation-name: move2; 
	animation-duration: 15s; 
	animation-fill-mode: forwards;	
	animation-iteration-count: infinite;
	}
	

	@keyframes move2 {
  	0% {transform: translateX(180px);}
  	100% {transform: translateX(-800px); }
	}
	
	
	
	
</style>
<g id="b2">
	<polyline class="st0" points="216.5,192 192.3,192 192.3,200.7 	"/>
	<polyline class="st0" points="204.6,191.6 205.5,177.4 206.6,177.4 207.7,191.6 	"/>
	<path class="st0" d="M203.8,161.4c0,0,0-0.8,1.1-0.8s1.3,1,1.3,1s0.2-0.7,1.3-0.7s1.1,0.4,1.1,0.4"/>
	<line class="st0" x1="206" y1="174.6" x2="206" y2="161.4"/>
	<path class="st0" d="M206,176.9c0.6,0,1.1-0.5,1.1-1.1s-0.5-1.1-1.1-1.1s-1.1,0.5-1.1,1.1C204.8,176.4,205.3,176.9,206,176.9z"/>
	<path class="st0" d="M207.7,158.8c0,0-1.3,0.8-3.5,0l-1.7-6.2c0,0,1-2.2,3.4-2.2s3.4,2.1,3.4,2.1L207.7,158.8z"/>
	<line class="st0" x1="202.9" y1="152.5" x2="209.1" y2="152.6"/>
	<path class="st0" d="M205.8,149.8c0.4,0,0.8-0.3,0.8-0.8c0-0.4-0.3-0.8-0.8-0.8c-0.4,0-0.8,0.3-0.8,0.8
		C205.1,149.5,205.4,149.8,205.8,149.8z"/>
	<line class="st0" x1="206" y1="147.1" x2="206" y2="148.2"/>
	<polyline class="st0" points="175.2,190.4 175.2,140.3 197.4,140.3 197.4,191.7 	"/>
	<line class="st0" x1="175.5" y1="148.7" x2="196.9" y2="148.7"/>
	<rect x="183.2" y="153.5" class="st0" width="5.8" height="10.9"/>
	<line class="st0" x1="184.4" y1="155" x2="184.4" y2="155.6"/>
	<line class="st0" x1="184.4" y1="158.3" x2="184.4" y2="159"/>
	<line class="st0" x1="184.4" y1="161.8" x2="184.4" y2="162.5"/>
	<line class="st0" x1="186.1" y1="155" x2="186.1" y2="155.6"/>
	<line class="st0" x1="186.1" y1="158.3" x2="186.1" y2="159"/>
	<line class="st0" x1="186.1" y1="161.8" x2="186.1" y2="162.5"/>
	<line class="st0" x1="187.8" y1="155" x2="187.8" y2="155.6"/>
	<line class="st0" x1="187.8" y1="158.3" x2="187.8" y2="159"/>
	<line class="st0" x1="187.8" y1="161.8" x2="187.8" y2="162.5"/>
	<rect x="183.2" y="177.6" class="st0" width="5.8" height="10.9"/>
	<line class="st0" x1="184.4" y1="179.1" x2="184.4" y2="179.8"/>
	<line class="st0" x1="184.4" y1="182.5" x2="184.4" y2="183.2"/>
	<line class="st0" x1="184.4" y1="186" x2="184.4" y2="186.7"/>
	<line class="st0" x1="186.1" y1="179.1" x2="186.1" y2="179.8"/>
	<line class="st0" x1="186.1" y1="182.5" x2="186.1" y2="183.2"/>
	<line class="st0" x1="186.1" y1="186" x2="186.1" y2="186.7"/>
	<line class="st0" x1="187.8" y1="179.1" x2="187.8" y2="179.8"/>
	<line class="st0" x1="187.8" y1="182.5" x2="187.8" y2="183.2"/>
	<line class="st0" x1="187.8" y1="186" x2="187.8" y2="186.7"/>
</g>
<g id="b3">
	<path class="st0" d="M223.6,202.8c0,0,2.1-54,2.1-58.7c0-4.6-0.6-8.5-1.8-11.2"/>
	<path class="st0" d="M225.8,132.8c0,0,2.4,4.8,2.1,11.3c-0.3,6.6-2.2,58.7-2.2,58.7"/>
	<path class="st0" d="M234.9,202.6c0,0-2.2-57.1-2.4-59.8c-0.1-2.7,1.5-8.9,2.1-10.1"/>
	<path class="st0" d="M236.9,132.6c0,0-2.1,4.3-2.1,10.1s2.2,60.1,2.2,60.1"/>
	<line class="st0" x1="223.6" y1="144.2" x2="225.5" y2="144.2"/>
	<line class="st0" x1="234.9" y1="144.2" x2="236.8" y2="144.2"/>
	<rect x="220.8" y="129.5" class="st0" width="18.8" height="3.1"/>
	<path class="st0" d="M223.3,129.3"/>
	<path class="st0" d="M223.3,129.4v-1.8c0-5.8,6.6-7.5,6.6-7.5h0.4c0,0,6.6,1.8,6.6,7.5v1.8"/>
	<path class="st0" d="M229,120v-10.2c0,0,0.1-1,1.1-1s1.2,1.2,1.2,1.2v10.2"/>
	<line class="st0" x1="230.3" y1="98.1" x2="230.3" y2="108.5"/>
	<line class="st0" x1="230.4" y1="132.6" x2="230.4" y2="139.5"/>
	<path class="st0" d="M236.2,178.5c1.1-1.5,3-2.7,6.5-2.1c0,0-2.1-3.4-6.4-2.3c0,0,4.1-3.5,6.7,0.6c0,0,1-3.4,4-2.6
		c0,0-2.9,1.4-3.6,4.3c0,0,5-2.5,7.9,1.8c0,0-4.7-2.3-7.2-0.3c0,0,5.3,1.4,5,8c0,0-0.2-4.6-6.1-7.5c0,0-3.3,1.2-3.1,9.4
		c0,0-2.9-8.3,2.5-10.4c0,0-3.3,0.5-6.1,3.4"/>
	<line class="st0" x1="243" y1="178.6" x2="243" y2="200.5"/>
</g>
<g id="b7">
	<path class="st0" d="M491.6,200.3l12.9-10.4c0,0,1.3-1,1.3-4.6v-31"/>
	<path class="st0" d="M529.9,200.3l-12.8-10.4c0,0-1.3-1-1.3-4.6v-31"/>
	
		<ellipse transform="matrix(0.3827 -0.9239 0.9239 0.3827 182.1211 560.5468)" class="st1" cx="510.5" cy="144" rx="11.3" ry="11.3"/>
	<path class="st0" d="M520.9,132.4c0,0,5,4.2,4.9,11.6"/>
	<path class="st0" d="M495.1,144.7c0,0-0.7,4.6,5,10.8"/>
	<path class="st0" d="M495.3,140.2c0,0-0.2,1-0.2,1.7"/>
	<polyline class="st0" points="506.1,133.3 506.1,127.7 515.1,127.7 515.1,133.3 	"/>
	<polygon class="st0" points="506.1,125.4 506.1,122.3 508.3,122.3 508.3,119.9 512.9,119.9 512.9,122.4 514.9,122.4 514.9,125.3 	
		"/>
	<path class="st0" d="M509.4,138.7v9.3c0,0-0.1,1-0.7,1s-2.3-1.7-2.3-5.3s1.3-5.9,2.4-6C508.8,137.7,509.4,137.5,509.4,138.7z"/>
	<path class="st0" d="M511.9,138.7v9.3c0,0,0.1,1,0.7,1s2.3-1.7,2.3-5.3s-1.3-5.9-2.4-6C512.5,137.7,511.9,137.5,511.9,138.7z"/>
	<path class="st0" d="M504.6,138.7v9.7c0,0-0.1,1.1-0.7,1.1s-2.3-1.8-2.3-5.5c0-3.8,1.3-6.2,2.4-6.3
		C504,137.7,504.6,137.5,504.6,138.7z"/>
	<path class="st0" d="M516.4,138.7v9.7c0,0,0.1,1.1,0.7,1.1c0.6,0,2.3-1.8,2.3-5.5c0-3.8-1.3-6.2-2.4-6.3
		C517,137.7,516.4,137.5,516.4,138.7z"/>
</g>
<g id="b6">
	<polyline class="st0" points="421.3,200.1 421.3,115.8 425.2,93.3 444.8,93.3 448.6,116.2 448.6,200.1 	"/>
	<polyline class="st0" points="480.9,200.1 480.9,116 421.3,116 	"/>
	<line class="st0" x1="448.7" y1="128.8" x2="480.8" y2="128.8"/>
	<polyline class="st0" points="452.8,115.7 454.2,114 455.7,115.7 	"/>
	<polyline class="st0" points="457.9,115.7 459.4,114 460.9,115.7 	"/>
	<polyline class="st0" points="463.4,115.7 464.8,114 466.3,115.7 	"/>
	<polyline class="st0" points="469,115.7 470.4,114 471.9,115.7 	"/>
	<polyline class="st0" points="474.2,115.7 475.6,114 477.1,115.7 	"/>
	<polyline class="st0" points="479.3,115.7 480.8,114 482.3,115.7 481.2,115.7 	"/>
	<line class="st0" x1="454.2" y1="128.5" x2="454.2" y2="116.2"/>
	<line class="st0" x1="459.4" y1="128.5" x2="459.4" y2="116.2"/>
	<line class="st0" x1="464.8" y1="128.5" x2="464.8" y2="116.2"/>
	<line class="st0" x1="470.4" y1="128.5" x2="470.4" y2="116.2"/>
	<line class="st0" x1="475.7" y1="128.5" x2="475.7" y2="116.2"/>
	<line class="st0" x1="424.2" y1="112.7" x2="424.2" y2="115.6"/>
	<line class="st0" x1="426.9" y1="112.7" x2="426.9" y2="115.6"/>
	<line class="st0" x1="429.6" y1="112.7" x2="429.6" y2="115.6"/>
	<line class="st0" x1="432.3" y1="112.7" x2="432.3" y2="115.6"/>
	<line class="st0" x1="434.9" y1="112.7" x2="434.9" y2="115.6"/>
	<line class="st0" x1="437.6" y1="112.7" x2="437.6" y2="115.6"/>
	<line class="st0" x1="440.3" y1="112.7" x2="440.3" y2="115.6"/>
	<line class="st0" x1="443" y1="112.7" x2="443" y2="115.6"/>
	<line class="st0" x1="445.6" y1="112.7" x2="445.6" y2="115.6"/>
	<ellipse class="st0" cx="435.1" cy="104.2" rx="6.9" ry="5"/>
	<line class="st0" x1="427" y1="116" x2="421.5" y2="120.4"/>
	<line class="st0" x1="435" y1="116.1" x2="421.5" y2="126.8"/>
	<line class="st0" x1="443.5" y1="116.1" x2="421.5" y2="133.7"/>
	<line class="st0" x1="448.3" y1="119.2" x2="421.6" y2="140.1"/>
	<line class="st0" x1="448.4" y1="126.1" x2="421.5" y2="146.9"/>
	<line class="st0" x1="448.5" y1="132.5" x2="421.6" y2="153.6"/>
	<line class="st0" x1="448.5" y1="139.3" x2="421.6" y2="160.4"/>
	<line class="st0" x1="448.5" y1="146" x2="421.6" y2="167"/>
	<line class="st0" x1="448.5" y1="152.7" x2="421.6" y2="173.8"/>
	<line class="st0" x1="448.5" y1="159.1" x2="421.6" y2="180.2"/>
	<line class="st0" x1="448.5" y1="165.8" x2="421.6" y2="186.8"/>
	<line class="st0" x1="430.8" y1="186.7" x2="448.5" y2="172.6"/>
	<line class="st0" x1="421.5" y1="186.7" x2="448.4" y2="186.7"/>
	<line class="st0" x1="439.1" y1="186.6" x2="448.5" y2="179.3"/>
	<line class="st0" x1="452.7" y1="131.6" x2="452.7" y2="134.6"/>
	<line class="st0" x1="452.7" y1="136.5" x2="452.7" y2="139.5"/>
	<line class="st0" x1="452.7" y1="141.4" x2="452.7" y2="144.4"/>
	<line class="st0" x1="452.7" y1="146.3" x2="452.7" y2="149.3"/>
	<line class="st0" x1="452.7" y1="151.2" x2="452.7" y2="154.2"/>
	<line class="st0" x1="452.7" y1="156" x2="452.7" y2="159.1"/>
	<line class="st0" x1="452.7" y1="160.9" x2="452.7" y2="164"/>
	<line class="st0" x1="452.7" y1="165.8" x2="452.7" y2="168.9"/>
	<line class="st0" x1="452.7" y1="170.7" x2="452.7" y2="173.8"/>
	<line class="st0" x1="452.7" y1="175.6" x2="452.7" y2="178.6"/>
	<line class="st0" x1="452.7" y1="180.5" x2="452.7" y2="183.5"/>
	<line class="st0" x1="452.7" y1="185.4" x2="452.7" y2="188.4"/>
	<line class="st0" x1="452.7" y1="190.3" x2="452.7" y2="193.3"/>
	<line class="st0" x1="452.7" y1="195.2" x2="452.7" y2="198.2"/>
	<line class="st0" x1="463.2" y1="131.6" x2="463.2" y2="134.6"/>
	<line class="st0" x1="463.2" y1="136.5" x2="463.2" y2="139.5"/>
	<line class="st0" x1="463.2" y1="141.4" x2="463.2" y2="144.4"/>
	<line class="st0" x1="463.2" y1="146.3" x2="463.2" y2="149.3"/>
	<line class="st0" x1="463.2" y1="151.2" x2="463.2" y2="154.2"/>
	<line class="st0" x1="463.2" y1="156" x2="463.2" y2="159.1"/>
	<line class="st0" x1="463.2" y1="160.9" x2="463.2" y2="164"/>
	<line class="st0" x1="463.2" y1="165.8" x2="463.2" y2="168.9"/>
	<line class="st0" x1="463.2" y1="170.7" x2="463.2" y2="173.8"/>
	<line class="st0" x1="463.2" y1="175.6" x2="463.2" y2="178.6"/>
	<line class="st0" x1="463.2" y1="180.5" x2="463.2" y2="183.5"/>
	<line class="st0" x1="463.2" y1="185.4" x2="463.2" y2="188.4"/>
	<line class="st0" x1="463.2" y1="190.3" x2="463.2" y2="193.3"/>
	<line class="st0" x1="463.2" y1="195.2" x2="463.2" y2="198.2"/>
	<line class="st0" x1="473.6" y1="131.6" x2="473.6" y2="134.6"/>
	<line class="st0" x1="473.6" y1="136.5" x2="473.6" y2="139.5"/>
	<line class="st0" x1="473.6" y1="141.4" x2="473.6" y2="144.4"/>
	<line class="st0" x1="473.6" y1="146.3" x2="473.6" y2="149.3"/>
	<line class="st0" x1="473.6" y1="151.2" x2="473.6" y2="154.2"/>
	<line class="st0" x1="473.6" y1="156" x2="473.6" y2="159.1"/>
	<line class="st0" x1="473.6" y1="160.9" x2="473.6" y2="164"/>
	<line class="st0" x1="473.6" y1="165.8" x2="473.6" y2="168.9"/>
	<line class="st0" x1="473.6" y1="170.7" x2="473.6" y2="173.8"/>
	<line class="st0" x1="473.6" y1="175.6" x2="473.6" y2="178.6"/>
	<line class="st0" x1="473.6" y1="180.5" x2="473.6" y2="183.5"/>
	<line class="st0" x1="473.6" y1="185.4" x2="473.6" y2="188.4"/>
	<line class="st0" x1="473.6" y1="190.3" x2="473.6" y2="193.3"/>
	<line class="st0" x1="473.6" y1="195.2" x2="473.6" y2="198.2"/>
	<line class="st0" x1="456.5" y1="131.6" x2="456.5" y2="134.6"/>
	<line class="st0" x1="456.5" y1="136.5" x2="456.5" y2="139.5"/>
	<line class="st0" x1="456.5" y1="141.4" x2="456.5" y2="144.4"/>
	<line class="st0" x1="456.5" y1="146.3" x2="456.5" y2="149.3"/>
	<line class="st0" x1="456.5" y1="151.2" x2="456.5" y2="154.2"/>
	<line class="st0" x1="456.5" y1="156" x2="456.5" y2="159.1"/>
	<line class="st0" x1="456.5" y1="160.9" x2="456.5" y2="164"/>
	<line class="st0" x1="456.5" y1="165.8" x2="456.5" y2="168.9"/>
	<line class="st0" x1="456.5" y1="170.7" x2="456.5" y2="173.8"/>
	<line class="st0" x1="456.5" y1="175.6" x2="456.5" y2="178.6"/>
	<line class="st0" x1="456.5" y1="180.5" x2="456.5" y2="183.5"/>
	<line class="st0" x1="456.5" y1="185.4" x2="456.5" y2="188.4"/>
	<line class="st0" x1="456.5" y1="190.3" x2="456.5" y2="193.3"/>
	<line class="st0" x1="456.5" y1="195.2" x2="456.5" y2="198.2"/>
	<line class="st0" x1="467" y1="131.6" x2="467" y2="134.6"/>
	<line class="st0" x1="467" y1="136.5" x2="467" y2="139.5"/>
	<line class="st0" x1="467" y1="141.4" x2="467" y2="144.4"/>
	<line class="st0" x1="467" y1="146.3" x2="467" y2="149.3"/>
	<line class="st0" x1="467" y1="151.2" x2="467" y2="154.2"/>
	<line class="st0" x1="467" y1="156" x2="467" y2="159.1"/>
	<line class="st0" x1="467" y1="160.9" x2="467" y2="164"/>
	<line class="st0" x1="467" y1="165.8" x2="467" y2="168.9"/>
	<line class="st0" x1="467" y1="170.7" x2="467" y2="173.8"/>
	<line class="st0" x1="467" y1="175.6" x2="467" y2="178.6"/>
	<line class="st0" x1="467" y1="180.5" x2="467" y2="183.5"/>
	<line class="st0" x1="467" y1="185.4" x2="467" y2="188.4"/>
	<line class="st0" x1="467" y1="190.3" x2="467" y2="193.3"/>
	<line class="st0" x1="467" y1="195.2" x2="467" y2="198.2"/>
	<line class="st0" x1="477.4" y1="131.6" x2="477.4" y2="134.6"/>
	<line class="st0" x1="477.4" y1="136.5" x2="477.4" y2="139.5"/>
	<line class="st0" x1="477.4" y1="141.4" x2="477.4" y2="144.4"/>
	<line class="st0" x1="477.4" y1="146.3" x2="477.4" y2="149.3"/>
	<line class="st0" x1="477.4" y1="151.2" x2="477.4" y2="154.2"/>
	<line class="st0" x1="477.4" y1="156" x2="477.4" y2="159.1"/>
	<line class="st0" x1="477.4" y1="160.9" x2="477.4" y2="164"/>
	<line class="st0" x1="477.4" y1="165.8" x2="477.4" y2="168.9"/>
	<line class="st0" x1="477.4" y1="170.7" x2="477.4" y2="173.8"/>
	<line class="st0" x1="477.4" y1="175.6" x2="477.4" y2="178.6"/>
	<line class="st0" x1="477.4" y1="180.5" x2="477.4" y2="183.5"/>
	<line class="st0" x1="477.4" y1="185.4" x2="477.4" y2="188.4"/>
	<line class="st0" x1="477.4" y1="190.3" x2="477.4" y2="193.3"/>
	<line class="st0" x1="477.4" y1="195.2" x2="477.4" y2="198.2"/>
	<path class="st0" d="M490.1,183.2c0,0-3.3,1.2-3.1,9.4c0,0-2.9-8.3,2.5-10.4c0,0-4.7,0.8-7.6,5.3c0,0,0.1-7.6,7.9-6.4
		c0,0-2.1-3.4-6.4-2.3c0,0,4.1-3.5,6.7,0.6c0,0,1-3.4,4-2.6c0,0-2.9,1.4-3.6,4.3c0,0,5-2.5,8,1.8c0,0-4.7-2.3-7.2-0.3
		c0,0,5.3,1.4,5,8C496.2,190.7,496,186.1,490.1,183.2z"/>
	<line class="st0" x1="490.1" y1="183.4" x2="490.1" y2="200"/>
</g>
<g id="b4">
	<path class="st0" d="M312.5,200.2v-67.7c0,0,0-2.4-2.2-2.4H307v-14.6h3c0,0,2.4-0.2,2.4-2.5v-7.9"/>
	<path class="st0" d="M350.3,200.2v-67.7c0,0,0-2.4,2.2-2.4h3.3v-14.6h-3c0,0-2.4-0.2-2.4-2.5v-7.9"/>
	<path class="st0" d="M319.9,200.2v-67.7c0,0,0-2.4-1.9-2.4h-2.8v-14.6h2.6c0,0,2.1-0.2,2.1-2.5v-7.9"/>
	<path class="st0" d="M342.9,200.2v-67.7c0,0,0-2.4,1.9-2.4h2.8v-14.6H345c0,0-2.1-0.2-2.1-2.5v-7.9"/>
	<path class="st0" d="M327.9,200.2v-67.7c0,0,0-2.4-1.8-2.4h-2.7v-14.6h2.5c0,0,2-0.2,2-2.5v-7.9"/>
	<path class="st0" d="M334.9,200.2v-67.7c0,0,0-2.4,1.8-2.4h2.7v-14.6H337c0,0-2-0.2-2-2.5v-7.9"/>
	<line class="st0" x1="312.5" y1="107.2" x2="350.2" y2="107.2"/>
	<line class="st0" x1="314.6" y1="134.4" x2="318.3" y2="134.4"/>
	<line class="st0" x1="314.6" y1="137.6" x2="318.3" y2="137.6"/>
	<line class="st0" x1="314.6" y1="140.9" x2="318.3" y2="140.9"/>
	<line class="st0" x1="314.6" y1="144.1" x2="318.3" y2="144.1"/>
	<line class="st0" x1="314.6" y1="147.3" x2="318.3" y2="147.3"/>
	<line class="st0" x1="314.6" y1="150.6" x2="318.3" y2="150.6"/>
	<line class="st0" x1="314.6" y1="173.2" x2="318.3" y2="173.2"/>
	<line class="st0" x1="314.6" y1="153.8" x2="318.3" y2="153.8"/>
	<line class="st0" x1="314.6" y1="176.5" x2="318.3" y2="176.5"/>
	<line class="st0" x1="314.6" y1="157" x2="318.3" y2="157"/>
	<line class="st0" x1="314.6" y1="179.7" x2="318.3" y2="179.7"/>
	<line class="st0" x1="314.6" y1="160.3" x2="318.3" y2="160.3"/>
	<line class="st0" x1="314.6" y1="182.9" x2="318.3" y2="182.9"/>
	<line class="st0" x1="314.6" y1="163.5" x2="318.3" y2="163.5"/>
	<line class="st0" x1="314.6" y1="186.2" x2="318.3" y2="186.2"/>
	<line class="st0" x1="314.6" y1="166.8" x2="318.3" y2="166.8"/>
	<line class="st0" x1="314.6" y1="189.4" x2="318.3" y2="189.4"/>
	<line class="st0" x1="314.6" y1="170" x2="318.3" y2="170"/>
	<line class="st0" x1="314.6" y1="192.7" x2="318.3" y2="192.7"/>
	<line class="st0" x1="314.6" y1="195.9" x2="318.3" y2="195.9"/>
	<line class="st0" x1="322.2" y1="134.4" x2="325.8" y2="134.4"/>
	<line class="st0" x1="322.2" y1="137.6" x2="325.8" y2="137.6"/>
	<line class="st0" x1="322.2" y1="140.9" x2="325.8" y2="140.9"/>
	<line class="st0" x1="322.2" y1="144.1" x2="325.8" y2="144.1"/>
	<line class="st0" x1="322.2" y1="147.3" x2="325.8" y2="147.3"/>
	<line class="st0" x1="322.2" y1="150.6" x2="325.8" y2="150.6"/>
	<line class="st0" x1="322.2" y1="173.2" x2="325.8" y2="173.2"/>
	<line class="st0" x1="322.2" y1="153.8" x2="325.8" y2="153.8"/>
	<line class="st0" x1="322.2" y1="176.5" x2="325.8" y2="176.5"/>
	<line class="st0" x1="322.2" y1="157" x2="325.8" y2="157"/>
	<line class="st0" x1="322.2" y1="179.7" x2="325.8" y2="179.7"/>
	<line class="st0" x1="322.2" y1="160.3" x2="325.8" y2="160.3"/>
	<line class="st0" x1="322.2" y1="182.9" x2="325.8" y2="182.9"/>
	<line class="st0" x1="322.2" y1="163.5" x2="325.8" y2="163.5"/>
	<line class="st0" x1="322.2" y1="186.2" x2="325.8" y2="186.2"/>
	<line class="st0" x1="322.2" y1="166.8" x2="325.8" y2="166.8"/>
	<line class="st0" x1="322.2" y1="189.4" x2="325.8" y2="189.4"/>
	<line class="st0" x1="322.2" y1="170" x2="325.8" y2="170"/>
	<line class="st0" x1="322.2" y1="192.7" x2="325.8" y2="192.7"/>
	<line class="st0" x1="322.2" y1="195.9" x2="325.8" y2="195.9"/>
	<line class="st0" x1="329.6" y1="134.4" x2="333.3" y2="134.4"/>
	<line class="st0" x1="329.6" y1="137.6" x2="333.3" y2="137.6"/>
	<line class="st0" x1="329.6" y1="140.9" x2="333.3" y2="140.9"/>
	<line class="st0" x1="329.6" y1="144.1" x2="333.3" y2="144.1"/>
	<line class="st0" x1="329.6" y1="147.3" x2="333.3" y2="147.3"/>
	<line class="st0" x1="329.6" y1="150.6" x2="333.3" y2="150.6"/>
	<line class="st0" x1="329.6" y1="173.2" x2="333.3" y2="173.2"/>
	<line class="st0" x1="329.6" y1="153.8" x2="333.3" y2="153.8"/>
	<line class="st0" x1="329.6" y1="176.5" x2="333.3" y2="176.5"/>
	<line class="st0" x1="329.6" y1="157" x2="333.3" y2="157"/>
	<line class="st0" x1="329.6" y1="179.7" x2="333.3" y2="179.7"/>
	<line class="st0" x1="329.6" y1="160.3" x2="333.3" y2="160.3"/>
	<line class="st0" x1="329.6" y1="182.9" x2="333.3" y2="182.9"/>
	<line class="st0" x1="329.6" y1="163.5" x2="333.3" y2="163.5"/>
	<line class="st0" x1="329.6" y1="186.2" x2="333.3" y2="186.2"/>
	<line class="st0" x1="329.6" y1="166.8" x2="333.3" y2="166.8"/>
	<line class="st0" x1="329.6" y1="189.4" x2="333.3" y2="189.4"/>
	<line class="st0" x1="329.6" y1="170" x2="333.3" y2="170"/>
	<line class="st0" x1="329.6" y1="192.7" x2="333.3" y2="192.7"/>
	<line class="st0" x1="329.6" y1="195.9" x2="333.3" y2="195.9"/>
	<line class="st0" x1="337" y1="134.4" x2="340.7" y2="134.4"/>
	<line class="st0" x1="337" y1="137.6" x2="340.7" y2="137.6"/>
	<line class="st0" x1="337" y1="140.9" x2="340.7" y2="140.9"/>
	<line class="st0" x1="337" y1="144.1" x2="340.7" y2="144.1"/>
	<line class="st0" x1="337" y1="147.3" x2="340.7" y2="147.3"/>
	<line class="st0" x1="337" y1="150.6" x2="340.7" y2="150.6"/>
	<line class="st0" x1="337" y1="173.2" x2="340.7" y2="173.2"/>
	<line class="st0" x1="337" y1="153.8" x2="340.7" y2="153.8"/>
	<line class="st0" x1="337" y1="176.5" x2="340.7" y2="176.5"/>
	<line class="st0" x1="337" y1="157" x2="340.7" y2="157"/>
	<line class="st0" x1="337" y1="179.7" x2="340.7" y2="179.7"/>
	<line class="st0" x1="337" y1="160.3" x2="340.7" y2="160.3"/>
	<line class="st0" x1="337" y1="182.9" x2="340.7" y2="182.9"/>
	<line class="st0" x1="337" y1="163.5" x2="340.7" y2="163.5"/>
	<line class="st0" x1="337" y1="186.2" x2="340.7" y2="186.2"/>
	<line class="st0" x1="337" y1="166.8" x2="340.7" y2="166.8"/>
	<line class="st0" x1="337" y1="189.4" x2="340.7" y2="189.4"/>
	<line class="st0" x1="337" y1="170" x2="340.7" y2="170"/>
	<line class="st0" x1="337" y1="192.7" x2="340.7" y2="192.7"/>
	<line class="st0" x1="337" y1="195.9" x2="340.7" y2="195.9"/>
	<line class="st0" x1="344.6" y1="134.4" x2="348.3" y2="134.4"/>
	<line class="st0" x1="344.6" y1="137.6" x2="348.3" y2="137.6"/>
	<line class="st0" x1="344.6" y1="140.9" x2="348.3" y2="140.9"/>
	<line class="st0" x1="344.6" y1="144.1" x2="348.3" y2="144.1"/>
	<line class="st0" x1="344.6" y1="147.3" x2="348.3" y2="147.3"/>
	<line class="st0" x1="344.6" y1="150.6" x2="348.3" y2="150.6"/>
	<line class="st0" x1="344.6" y1="173.2" x2="348.3" y2="173.2"/>
	<line class="st0" x1="344.6" y1="153.8" x2="348.3" y2="153.8"/>
	<line class="st0" x1="344.6" y1="176.5" x2="348.3" y2="176.5"/>
	<line class="st0" x1="344.6" y1="157" x2="348.3" y2="157"/>
	<line class="st0" x1="344.6" y1="179.7" x2="348.3" y2="179.7"/>
	<line class="st0" x1="344.6" y1="160.3" x2="348.3" y2="160.3"/>
	<line class="st0" x1="344.6" y1="182.9" x2="348.3" y2="182.9"/>
	<line class="st0" x1="344.6" y1="163.5" x2="348.3" y2="163.5"/>
	<line class="st0" x1="344.6" y1="186.2" x2="348.3" y2="186.2"/>
	<line class="st0" x1="344.6" y1="166.8" x2="348.3" y2="166.8"/>
	<line class="st0" x1="344.6" y1="189.4" x2="348.3" y2="189.4"/>
	<line class="st0" x1="344.6" y1="170" x2="348.3" y2="170"/>
	<line class="st0" x1="344.6" y1="192.7" x2="348.3" y2="192.7"/>
	<line class="st0" x1="344.6" y1="195.9" x2="348.3" y2="195.9"/>
	<path class="st0" d="M351.5,176.6c1.4-0.5,3.3-0.6,4.7,1.7c0,0,1-3.4,4-2.6c0,0-2.9,1.4-3.5,4.3c0,0,5-2.5,7.9,1.8
		c0,0-4.6-2.3-7.2-0.3c0,0,5.3,1.4,5,8c0,0-0.2-4.6-6.1-7.5c0,0-3.3,1.2-3.1,9.4c0,0-2.9-8.3,2.4-10.4c0,0-2,0.3-4.2,1.8"/>
	<line class="st0" x1="356.3" y1="182.3" x2="356.3" y2="200.1"/>
	<path class="st0" d="M351.5,180.3c1.1-0.5,2.5-0.7,4.3-0.4c0,0-1.4-2.2-4.3-2.4"/>
	<path class="st0" d="M365,167.4c0,0-3.3,1.2-3.1,9.4c0,0-2.9-8.3,2.5-10.4c0,0-4.7,0.8-7.6,5.3c0,0,0.1-7.6,7.9-6.4
		c0,0-2.1-3.4-6.4-2.3c0,0,4.1-3.5,6.7,0.6c0,0,1-3.4,4-2.6c0,0-2.9,1.4-3.6,4.3c0,0,5-2.5,8,1.8c0,0-4.7-2.3-7.2-0.3
		c0,0,5.3,1.4,5,8C371.1,174.9,370.9,170.3,365,167.4z"/>
	<line class="st0" x1="365" y1="167.6" x2="365" y2="200.2"/>
</g>
<g id="b5">
	<polyline class="st0" points="379.7,200.1 379.7,188.9 411.9,188.9 411.9,200.1 	"/>
	<line class="st0" x1="414.4" y1="187" x2="379.7" y2="187"/>
	<path class="st0" d="M404.2,185.2h-24c0,0-1.6-8.8-1.6-31s4.8-63.7,12.6-84.5l12.9,3.7c0,0-6.5,40.8-6.5,61
		C397.5,154.5,402.9,179.8,404.2,185.2z"/>
	<path class="st0" d="M378.7,140.5c0,0-7.7-24.9-7.7-53.2s0.6-27.3,0.6-27.3h7.1"/>
	<path class="st0" d="M392.4,69.9c0,0,4.1-15.7,5.7-18.7h-18c0,0-2.9,16.8-2.9,35s3,38.7,3,38.7"/>
	<path class="st0" d="M398.1,121.2c0,0,1.1,28.4,11.4,47.9l-7.4,5.4"/>
	<line class="st0" x1="395" y1="99.4" x2="383.9" y2="99.4"/>
	<line class="st0" x1="393.5" y1="125.9" x2="380.3" y2="125.9"/>
	<line class="st0" x1="396.8" y1="151.6" x2="378.7" y2="151.6"/>
	<line class="st0" x1="394.3" y1="103.2" x2="383.4" y2="103.2"/>
	<line class="st0" x1="393.7" y1="129.5" x2="380" y2="129.5"/>
	<line class="st0" x1="397.3" y1="155.4" x2="378.7" y2="155.4"/>
	<line class="st0" x1="396.8" y1="81" x2="387.8" y2="81"/>
	<line class="st0" x1="393.6" y1="107.1" x2="382.7" y2="107.1"/>
	<line class="st0" x1="393.9" y1="133.2" x2="379.7" y2="133.2"/>
	<line class="st0" x1="398" y1="159.2" x2="378.7" y2="159.2"/>
	<line class="st0" x1="396.7" y1="84.9" x2="386.8" y2="84.9"/>
	<line class="st0" x1="393.6" y1="110.9" x2="382.3" y2="110.9"/>
	<line class="st0" x1="394.3" y1="136.9" x2="379.3" y2="136.9"/>
	<line class="st0" x1="398.8" y1="162.9" x2="378.7" y2="162.9"/>
	<line class="st0" x1="396.7" y1="88.6" x2="386.1" y2="88.6"/>
	<line class="st0" x1="393.2" y1="114.7" x2="381.6" y2="114.7"/>
	<line class="st0" x1="394.8" y1="140.5" x2="379.1" y2="140.5"/>
	<line class="st0" x1="400.4" y1="166.7" x2="378.8" y2="166.7"/>
	<line class="st0" x1="396.2" y1="92.3" x2="385.3" y2="92.3"/>
	<line class="st0" x1="393.1" y1="118.5" x2="381" y2="118.5"/>
	<line class="st0" x1="395.2" y1="144.2" x2="379" y2="144.2"/>
	<line class="st0" x1="401.1" y1="170.5" x2="379.1" y2="170.5"/>
	<line class="st0" x1="402.7" y1="177.9" x2="379.4" y2="177.9"/>
	<line class="st0" x1="395.5" y1="96.1" x2="384.6" y2="96.1"/>
	<line class="st0" x1="393.2" y1="122.3" x2="380.7" y2="122.3"/>
	<line class="st0" x1="395.9" y1="147.9" x2="378.8" y2="147.9"/>
	<line class="st0" x1="401.8" y1="174.3" x2="379.2" y2="174.3"/>
	<line class="st0" x1="403.4" y1="181.6" x2="379.7" y2="181.6"/>
	<line class="st0" x1="371.3" y1="81.8" x2="377.3" y2="81.8"/>
	<line class="st0" x1="371.1" y1="85.5" x2="377.3" y2="85.5"/>
	<line class="st0" x1="371.2" y1="89.1" x2="377.1" y2="89.1"/>
	<line class="st0" x1="371.2" y1="93.1" x2="377.1" y2="93.1"/>
	<line class="st0" x1="371.2" y1="96.7" x2="377.1" y2="96.7"/>
	<line class="st0" x1="371.6" y1="100.3" x2="377.5" y2="100.3"/>
	<line class="st0" x1="371.9" y1="104.1" x2="377.9" y2="104.1"/>
	<line class="st0" x1="372.3" y1="107.9" x2="378.3" y2="107.9"/>
	<line class="st0" x1="372.8" y1="111.6" x2="378.7" y2="111.6"/>
	<line class="st0" x1="373.4" y1="115.4" x2="378.9" y2="115.4"/>
	<line class="st0" x1="373.9" y1="118.9" x2="379.4" y2="118.9"/>
	<line class="st0" x1="374.6" y1="122.6" x2="379.9" y2="122.6"/>
	<line class="st0" x1="375.4" y1="126.5" x2="380" y2="126.5"/>
	<line class="st0" x1="376.1" y1="130" x2="379.7" y2="130"/>
	<line class="st0" x1="377" y1="133.8" x2="379.4" y2="133.8"/>
	<line class="st0" x1="378" y1="137.5" x2="379" y2="137.5"/>
	<path class="st0" d="M366.2,95.9c0,0,0,0.6,0.1,1.7"/>
	<path class="st0" d="M366.4,99.6c0.3,4.5,1.1,12.5,3,21.5"/>
	<line class="st0" x1="396.2" y1="72.5" x2="389.9" y2="72.5"/>
	<line class="st0" x1="396.7" y1="76.3" x2="388.8" y2="76.3"/>
	<line class="st0" x1="371.6" y1="62" x2="378.2" y2="62"/>
	<line class="st0" x1="371.3" y1="65.6" x2="378" y2="65.6"/>
	<line class="st0" x1="371.3" y1="69.5" x2="377.7" y2="69.5"/>
	<line class="st0" x1="371.3" y1="73.2" x2="377.7" y2="73.2"/>
	<line class="st0" x1="371.3" y1="76.9" x2="377.3" y2="76.9"/>
	<line class="st0" x1="365.7" y1="70.2" x2="365.7" y2="75.2"/>
</g>
<g id="b1">
	<path class="st0" d="M127.6,194.6c3.5,0.6,7.1,0.2,10.6-1.3c4.1-1.8,7.2-4.7,9.1-8.3"/>
	<path class="st0" d="M129.1,194.2c3,0.6,6.1,0.4,9-0.7"/>
	<path class="st0" d="M130.8,193.3c2.6,0.9,5.1,1,7.4,0c2.1-0.9,3.8-2.6,4.8-4.8"/>
	<path class="st0" d="M134.1,192.2c1.6,1.1,3,1.6,4.1,1.1c1-0.4,1.7-1.6,1.9-3.3"/>
	<line class="st0" x1="123.3" y1="158.5" x2="135.4" y2="187.6"/>
	<path class="st0" d="M140.2,186.8c-0.2-3.7-1.4-8.5-3.6-13.5c-4.2-9.6-10.2-16.2-13.6-14.7c-3.3,1.5-2.7,10.4,1.5,20
		c1.8,4.2,4,7.9,6.2,10.5"/>
	<path class="st0" d="M143.9,185.9c0.2-0.8,0.4-1.6,0.5-2.4c0.1-0.6,0.1-1.2,0.1-1.9c0.1-3.4-0.6-7.1-2.2-10.8
		c-4.2-9.6-12.8-15.1-19.2-12.3c-6.4,2.8-8.3,12.9-4.1,22.4c1.7,3.8,4,7,6.7,9.3"/>
	<path class="st0" d="M147,181.7c0.8-3.9,0.4-8.2-1.4-12.3c-4.2-9.6-14.2-14.5-22.5-10.9s-11.6,14.3-7.4,23.9
		c1.5,3.5,3.9,6.4,6.6,8.5"/>
	<path class="st0" d="M145.9,185.7c0.1-0.4,0.2-0.7,0.4-1.1"/>
	<path class="st0" d="M148.5,182.3c1.6-4.4,1.5-9.3-0.5-13.9c-4.2-9.6-15.3-14-24.9-9.8s-14,15.3-9.8,24.9c1.5,3.4,3.9,6.2,6.7,8.1"
		/>
	<path class="st0" d="M97.1,200.4v-1.2c0,0,0.1-2,2.3-2.7c2.2-0.6,48-11.2,48-11.2l-7.8-3.6c0,0,5.4-0.3,9.6,1.2
		c0,0,6.7-1.5,8.3-1.5s1.8,0.7,1.8,0.7l-8.3,3.3l39.2,9c0,0,1.5,0.3,2,1"/>
	<path class="st0" d="M178.4,200.4v-1.3c0,0-0.4-1.4-1.4-1.9c-1-0.6-27.8-11.1-27.8-11.1l-24.7,9.8c0,0-4.4,1.7-4.4,3v1.5"/>
	<line class="st0" x1="143.8" y1="200.5" x2="140.5" y2="192.4"/>
	<path class="st0" d="M116,164.2c0,0,2.9-0.2,8.6-2.4c5.7-2.2,8.7-4.3,8.7-4.3"/>
	<path class="st0" d="M112.1,172.8c0,0,1.9-0.3,3.6-1c1.6-0.6,17.2-6.9,20.1-8.2c2.9-1.3,5.2-2.4,5.5-3.2"/>
	<path class="st0" d="M113.1,182.4c0,0,1.8,0.2,3.1-0.5c1.3-0.6,27.6-11,29.2-11.8c1.6-0.8,2.4-1.8,2.4-1.8"/>
	<path class="st0" d="M118.8,190.6c0,0,20.7-7.5,21.7-8.2"/>
	<line class="st0" x1="143.6" y1="181.3" x2="149.4" y2="178.8"/>
	<path class="st0" d="M100.6,198.9h17.1c0,0,1.1-2.5,3.4-3.7s10.1-4.2,10.1-4.2s-23,5.4-26,6.1C102.4,197.8,100.6,198.9,100.6,198.9
		z"/>
	<path class="st0" d="M192,198.6h-10.9c0,0-1.3-2.4-3.2-3.3c-1.9-0.9-11.2-4.5-11.2-4.5s25,6.2,25.3,6.2"/>
	<path class="st0" d="M102.6,182.3c0,0-3.3,1.2-3.1,9.4c0,0-2.9-8.3,2.5-10.4c0,0-4.7,0.8-7.6,5.3c0,0,0.1-7.6,7.9-6.4
		c0,0-2.1-3.4-6.4-2.3c0,0,4.1-3.5,6.7,0.6c0,0,1-3.4,4-2.6c0,0-2.9,1.4-3.6,4.3c0,0,5-2.5,8,1.8c0,0-4.7-2.3-7.2-0.3
		c0,0,5.3,1.4,5,8C108.7,189.7,108.5,185.2,102.6,182.3z"/>
	<line class="st0" x1="102.6" y1="182.4" x2="102.6" y2="195.5"/>
	<rect x="69.4" y="169.4" class="st2" width="100" height="31.4"/>
	<rect x="70.2" y="169.4" class="st2" width="99.1" height="31.4"/>
</g>
<g id="flight1">
	<path class="st3" d="M106.6,93h-2.8h-4.7c0,0-8.3,0-4.5-3.2c0.2-0.1,2.8-2.4,5.7-2.2l32.3,0.2c0,0,0.6,1.6-2.8,3l-3.8,1.6
		c0,0-1.9,0.8-3.7,0.6h-3.5"/>
	<path class="st3" d="M95.2,89.5c0,0,1.5,0.2,2.5,0.2"/>
	<line class="st3" x1="99.2" y1="93" x2="99.2" y2="94.4"/>
	<line class="st3" x1="120.5" y1="93" x2="120.5" y2="94.4"/>
	<line class="st4" x1="104.8" y1="89" x2="121.2" y2="89"/>
	<path class="st5" d="M122.1,89L122.1,89 M102.8,89L102.8,89"/>
	<path class="st3" d="M124.9,87.7c0.1,0,8.1-4.3,8.1-4.3l2.9,0.2l-3.4,4"/>
	<path class="st3" d="M118.9,93c0,0-8.3-3.5-12.5,0C106.4,93,109.6,96.3,118.9,93z"/>
</g>
<g id="b8">
	<line class="st0" x1="547.1" y1="175.3" x2="547.1" y2="199.3"/>
	<path class="st0" d="M560.4,183.1c0,0-3.3,1.2-3.1,9.4c0,0-2.9-8.3,2.5-10.4c0,0-4.7,0.8-7.6,5.3c0,0,0.1-7.6,7.9-6.4
		c0,0-2.1-3.4-6.4-2.3c0,0,4.1-3.5,6.7,0.6c0,0,1-3.4,4-2.6c0,0-2.9,1.4-3.6,4.3c0,0,5-2.5,8,1.8c0,0-4.7-2.3-7.2-0.3
		c0,0,5.3,1.4,5,8C566.5,190.6,566.3,186,560.4,183.1z"/>
	<line class="st0" x1="560.4" y1="183.3" x2="560.4" y2="199.1"/>
	<path class="st0" d="M547.1,174.9c0,0-3.3,1.2-3.1,9.4c0,0-2.9-8.3,2.5-10.4c0,0-4.7,0.8-7.6,5.3c0,0,0.1-7.6,7.9-6.4
		c0,0-2.1-3.4-6.4-2.3c0,0,4.1-3.5,6.7,0.6c0,0,1-3.4,4-2.6c0,0-2.9,1.4-3.6,4.3c0,0,5-2.5,8,1.8c0,0-4.7-2.3-7.2-0.3
		c0,0,5.3,1.4,5,8C553.2,182.4,553,177.8,547.1,174.9z"/>
	<path class="st0" d="M573.6,199l0.9-1.9l0.7-1.2l2.4-0.6c0,0,2.4,0,2.4-2.4s4.5-98.8,4.5-98.8h-2.8v-2.4h3.1L588,29l1,33.3h1.6
		l-0.5,19.5l1.8,1.1l5.2,110.5c0,0,0,2,1.6,2h3.4v1.1h2.4v0.8h2.6v1.3"/>
	<path class="st0" d="M590.5,62.6c0,0-4.7,9.3-4.7,13.7c0,4.4,0.8,117.2,0.8,117.2"/>
	<line class="st0" x1="590.5" y1="193.7" x2="590.3" y2="82.1"/>
	<line class="st0" x1="580.5" y1="186.1" x2="586.2" y2="186.1"/>
	<line class="st0" x1="581.5" y1="169.4" x2="585.9" y2="169.4"/>
	<line class="st0" x1="582.4" y1="150.3" x2="585.9" y2="150.3"/>
	<line class="st0" x1="583.2" y1="131.5" x2="585.5" y2="131.5"/>
	<line class="st0" x1="584.2" y1="113.6" x2="585.5" y2="113.6"/>
	<line class="st0" x1="591.2" y1="186.1" x2="596" y2="186.1"/>
	<line class="st0" x1="590.9" y1="169.4" x2="595.4" y2="169.4"/>
	<line class="st0" x1="590.9" y1="150.3" x2="594.7" y2="150.3"/>
	<line class="st0" x1="590.9" y1="131.6" x2="593.8" y2="131.6"/>
	<line class="st0" x1="590.9" y1="113.7" x2="592.9" y2="113.7"/>
	<line class="st0" x1="580.5" y1="187.5" x2="586.2" y2="187.5"/>
	<line class="st0" x1="581.5" y1="170.8" x2="585.9" y2="170.8"/>
	<line class="st0" x1="582.4" y1="151.7" x2="585.9" y2="151.7"/>
	<line class="st0" x1="583.2" y1="132.9" x2="585.5" y2="132.9"/>
	<line class="st0" x1="584.2" y1="115" x2="585.5" y2="115"/>
	<line class="st0" x1="591.2" y1="187.5" x2="596" y2="187.5"/>
	<line class="st0" x1="590.9" y1="170.8" x2="595.4" y2="170.8"/>
	<line class="st0" x1="590.9" y1="151.7" x2="594.7" y2="151.7"/>
	<line class="st0" x1="590.9" y1="133" x2="593.8" y2="133"/>
	<line class="st0" x1="590.9" y1="115.1" x2="592.9" y2="115.1"/>
</g>
<g id="flight2">
	<path class="st3" d="M662.1,41.2h-2.8h-4.7c0,0-8.3,0-4.5-3.2c0.2-0.1,2.8-2.4,5.7-2.2L688,36c0,0,0.6,1.6-2.8,3l-3.8,1.6
		c0,0-1.9,0.8-3.7,0.6h-3.5"/>
	<path class="st3" d="M650.7,37.6c0,0,1.5,0.2,2.5,0.2"/>
	<line class="st3" x1="654.6" y1="41.2" x2="654.6" y2="42.6"/>
	<line class="st3" x1="675.9" y1="41.2" x2="675.9" y2="42.6"/>
	<line class="st4" x1="660.2" y1="37.2" x2="676.6" y2="37.2"/>
	<path class="st5" d="M677.5,37.2L677.5,37.2 M658.3,37.2L658.3,37.2"/>
	<path class="st3" d="M680.3,35.8c0.1,0,8.1-4.3,8.1-4.3l2.9,0.2l-3.4,4"/>
	<path class="st3" d="M674.3,41.2c0,0-8.3-3.5-12.5,0C661.8,41.2,665,44.5,674.3,41.2z"/>
</g>
<g id="lns">
	<path class="st6" d="M340.3,59.4c-0.1,0-0.2,0-0.3,0c-1,0.2-1.9,0.6-2.7,1c-1.1,0.5-2.1,1.1-3.2,1.6c-1.3,0.5-2.5,0.5-3.7-0.2
		c-0.8-0.5-1.7-1-2.6-1.4c-2-1-4.1-1.3-6.2-0.3c-0.8,0.4-1.5,0.9-2.3,1.3c-0.6,0.3-1.2,0.7-1.9,0.9c-1,0.3-2,0.1-2.9-0.4
		c-0.8-0.5-1.6-1-2.4-1.5c-1.8-1-3.7-1.3-5.7-0.4c-0.9,0.4-1.7,1-2.5,1.5c-1.5,1.1-3.1,1.3-4.8,0.5c-0.9-0.4-1.7-1-2.5-1.5
		c-2.4-1.4-4.8-1.5-7.2,0.1c-0.6,0.4-1.1,0.8-1.7,1.1c-1.2,0.7-2.4,0.9-3.7,0.3c-0.5-0.2-1-0.6-1.5-0.9c-0.8-0.4-1.5-0.9-2.3-1.3
		c-0.6-0.3-1.2-0.4-1.7-0.5v-0.1c-0.1,0-0.2,0-0.2,0c-0.8-0.1-1.5,0-2.3,0.2c-1.1,0.3-2,0.9-2.9,1.6c-1,0.7-2.1,1.1-3.2,1.1
		c-0.4-0.1-0.9-0.3-1.3-0.5c-0.8-0.5-1.7-1-2.6-1.4c-1.2-0.6-2.4-0.9-3.6-0.9h-0.1c0,0,0,0-0.1,0c-0.2,0-0.4,0-0.5,0s-0.2,0-0.3,0
		c-0.6,0.1-1.1,0.3-1.7,0.5c-0.8,0.4-1.5,0.9-2.3,1.3c-0.4,0.2-0.8,0.5-1.2,0.6c-0.7,0.3-1.4,0.4-2.1,0.4c-0.5-0.1-1-0.3-1.5-0.5
		c-0.8-0.5-1.6-1-2.4-1.5c-1-0.6-2-0.9-3-0.9c-0.2,0-0.4,0-0.6,0l0,0c-0.7,0-1.4,0.2-2.1,0.5c-0.9,0.4-1.7,1-2.5,1.5
		c-1.5,1.1-3.1,1.3-4.8,0.5c-0.9-0.4-1.7-1-2.5-1.5c-2.4-1.4-4.8-1.5-7.2,0.1c-0.6,0.4-1.1,0.8-1.7,1.1c-1.2,0.7-2.4,0.9-3.7,0.3
		c-0.5-0.2-1-0.6-1.5-0.9c-0.8-0.4-1.5-0.9-2.3-1.3c-1.4-0.6-2.8-0.7-4.3-0.3c-1.1,0.3-2,0.9-2.9,1.6c-1.8,1.3-3.9,1.5-5.9,0.3
		c-0.7-0.4-1.5-0.9-2.2-1.3c-0.8-0.5-1.7-0.8-2.7-0.8c-1.1,0-2.1,0.4-3,0.9c-1,0.5-1.9,1.1-2.9,1.6c-0.9,0.4-2,0.6-3,0.3
		c-1.1-0.3-2.2-0.8-3.2-1.4c-0.6-0.4-1.3-0.7-1.9-1.1c-0.5-0.2-1-0.4-1.6-0.3"/>
	<path class="st6" d="M320.6,64c-0.6,0.4-1.1,0.8-1.7,1.1c-1.2,0.7-2.4,0.9-3.7,0.3c-0.5-0.2-1-0.6-1.5-0.9
		c-0.8-0.4-1.5-0.9-2.3-1.3c-0.6-0.3-1.2-0.4-1.7-0.5v-0.1c-0.1,0-0.2,0-0.2,0c-0.8-0.1-1.5,0-2.3,0.2c-1.1,0.3-2,0.9-2.9,1.6
		c-1,0.7-2.1,1.1-3.2,1.1c-0.4-0.1-0.9-0.3-1.3-0.5c-0.8-0.5-1.7-1-2.6-1.4c-1.2-0.6-2.4-0.9-3.6-0.9h-0.1c0,0,0,0-0.1,0
		c-0.2,0-0.4,0-0.5,0s-0.2,0-0.3,0c-0.6,0.1-1.1,0.3-1.7,0.5c-0.8,0.4-1.5,0.9-2.3,1.3c-0.4,0.2-0.8,0.5-1.2,0.6
		c-0.7,0.3-1.4,0.4-2.1,0.4c-0.5-0.1-1-0.3-1.5-0.5c-0.8-0.5-1.6-1-2.4-1.5c-1-0.6-2-0.9-3-0.9c-0.2,0-0.4,0-0.6,0l0,0
		c-0.7,0-1.4,0.2-2.1,0.5c-0.9,0.4-1.7,1-2.5,1.5c-1.5,1.1-3.1,1.3-4.8,0.5c-0.9-0.4-1.7-1-2.5-1.5c-2.4-1.4-4.8-1.5-7.2,0.1
		c-0.6,0.4-1.1,0.8-1.7,1.1c-1.2,0.7-2.4,0.9-3.7,0.3c-0.5-0.2-1-0.6-1.5-0.9c-0.8-0.4-1.5-0.9-2.3-1.3c-1.4-0.6-2.8-0.7-4.3-0.3
		c-1.1,0.3-2,0.9-2.9,1.6"/>
	<path class="st6" d="M290.8,71.6c-0.6,0.4-1.1,0.8-1.7,1.1c-1.2,0.7-2.4,0.9-3.7,0.3c-0.5-0.2-1-0.6-1.5-0.9
		c-0.8-0.4-1.5-0.9-2.3-1.3c-0.6-0.3-1.2-0.4-1.7-0.5v-0.1c-0.1,0-0.2,0-0.2,0c-0.8-0.1-1.5,0-2.3,0.2c-1.1,0.3-2,0.9-2.9,1.6
		c-1,0.7-2.1,1.1-3.2,1.1c-0.4-0.1-0.9-0.3-1.3-0.5c-0.8-0.5-1.7-1-2.6-1.4c-1.2-0.6-2.4-0.9-3.6-0.9h-0.1c0,0,0,0-0.1,0
		c-0.2,0-0.4,0-0.5,0s-0.2,0-0.3,0c-0.6,0.1-1.1,0.3-1.7,0.5c-0.8,0.4-1.5,0.9-2.3,1.3c-0.4,0.2-0.8,0.5-1.2,0.6
		c-0.7,0.3-1.4,0.4-2.1,0.4c-0.5-0.1-1-0.3-1.5-0.5c-0.8-0.5-1.6-1-2.4-1.5c-1-0.6-2-0.9-3-0.9c-0.2,0-0.4,0-0.6,0l0,0
		c-0.7,0-1.4,0.2-2.1,0.5c-0.9,0.4-1.7,1-2.5,1.5c-1.5,1.1-3.1,1.3-4.8,0.5c-0.9-0.4-1.7-1-2.5-1.5c-2.4-1.4-4.8-1.5-7.2,0.1
		c-0.6,0.4-1.1,0.8-1.7,1.1c-1.2,0.7-2.4,0.9-3.7,0.3c-0.5-0.2-1-0.6-1.5-0.9c-0.8-0.4-1.5-0.9-2.3-1.3c-1.4-0.6-2.8-0.7-4.3-0.3"/>
	<path class="st7" d="M182.4,107.4c-3.8,0-3.8-3-7.6-3s-3.8,3-7.6,3s-3.8-3-7.6-3s-3.8,3-7.6,3s-3.8-3-7.6-3s-3.8,3-7.6,3
		s-3.8-3-7.6-3"/>
	<path class="st7" d="M211.6,112.4c-3.8,0-3.8-3-7.6-3s-3.8,3-7.6,3s-3.8-3-7.6-3s-3.8,3-7.6,3s-3.8-3-7.6-3s-3.8,3-7.6,3"/>
	<line class="st8" x1="131.3" y1="91.9" x2="173.7" y2="91.9"/>
	<line class="st8" x1="61" y1="78.5" x2="99.5" y2="78.5"/>
	<line class="st8" x1="124.6" y1="94.7" x2="141.1" y2="94.7"/>
	<path class="st6" d="M670.7,91.8c-0.5,0.4-0.9,0.8-1.4,1.1c-1,0.7-2,0.9-3.1,0.3c-0.4-0.2-0.8-0.6-1.3-0.9
		c-0.6-0.4-1.3-0.9-1.9-1.3c-0.5-0.2-1-0.4-1.4-0.5v-0.1c-0.1,0-0.1,0-0.2,0c-0.6-0.1-1.3,0-1.9,0.2c-0.9,0.3-1.7,0.9-2.4,1.6
		c-0.8,0.7-1.7,1.1-2.6,1.1c-0.4-0.1-0.7-0.3-1.1-0.5c-0.7-0.5-1.4-1-2.1-1.4c-1-0.6-2-0.9-2.9-0.9c0,0,0,0-0.1,0c0,0,0,0-0.1,0
		s-0.3,0-0.4,0c-0.1,0-0.1,0-0.2,0c-0.5,0.1-0.9,0.3-1.4,0.5c-0.7,0.4-1.2,0.9-1.9,1.3c-0.3,0.2-0.6,0.4-1,0.6
		c-0.6,0.3-1.1,0.4-1.7,0.4c-0.4-0.1-0.8-0.3-1.2-0.5c-0.7-0.5-1.3-1-2-1.5c-0.8-0.6-1.6-0.9-2.5-0.9c-0.2,0-0.3,0-0.5,0l0,0
		c-0.6,0-1.1,0.2-1.7,0.5c-0.7,0.4-1.4,1-2,1.5c-1.2,1.1-2.6,1.3-4,0.5c-0.7-0.4-1.4-1-2.1-1.5c-2-1.4-4-1.5-5.9,0.1
		c-0.5,0.4-0.9,0.8-1.4,1.1c-1,0.7-2,0.9-3.1,0.3c-0.4-0.2-0.8-0.6-1.3-0.9c-0.6-0.4-1.3-0.9-1.9-1.3c-1.1-0.6-2.3-0.7-3.5-0.3"/>
	<path class="st7" d="M737.8,55.6c-3.8,0-3.8-3-7.6-3s-3.8,3-7.6,3s-3.8-3-7.6-3s-3.8,3-7.6,3s-3.8-3-7.6-3s-3.8,3-7.6,3
		s-3.8-3-7.6-3"/>
	<path class="st7" d="M767.1,60.6c-3.8,0-3.8-3-7.6-3s-3.8,3-7.6,3s-3.8-3-7.6-3s-3.8,3-7.6,3s-3.8-3-7.6-3s-3.8,3-7.6,3"/>
	<line class="st8" x1="686.8" y1="40.1" x2="729.2" y2="40.1"/>
	<line class="st8" x1="616.4" y1="26.7" x2="654.9" y2="26.7"/>
	<line class="st8" x1="680" y1="42.9" x2="696.5" y2="42.9"/>
	<path class="st9" d="M491.6,73.9c0.1,0,0.1,0,0.1,0c0.5,0.1,0.9,0.3,1.3,0.6c0.5,0.3,1,0.6,1.6,0.9s1.2,0.3,1.8-0.1
		c0.4-0.3,0.8-0.6,1.3-0.8c1-0.6,2-0.8,3-0.2c0.4,0.2,0.7,0.5,1.1,0.8c0.3,0.2,0.6,0.4,0.9,0.5c0.5,0.2,1,0,1.4-0.2
		c0.4-0.3,0.8-0.6,1.2-0.9c0.9-0.6,1.8-0.7,2.8-0.3c0.4,0.2,0.8,0.6,1.2,0.9c0.7,0.6,1.5,0.8,2.4,0.3c0.4-0.2,0.8-0.6,1.2-0.9
		c1.2-0.8,2.3-0.9,3.5,0c0.3,0.2,0.5,0.4,0.8,0.7c0.6,0.4,1.2,0.5,1.8,0.2c0.3-0.1,0.5-0.3,0.7-0.5c0.4-0.3,0.7-0.5,1.1-0.7
		c0.3-0.1,0.6-0.2,0.9-0.3l0,0h0.1c0.4,0,0.7,0,1.1,0.1c0.5,0.2,1,0.5,1.4,0.9c0.5,0.4,1,0.6,1.6,0.6c0.2-0.1,0.4-0.2,0.7-0.3
		c0.4-0.3,0.8-0.6,1.3-0.8c0.6-0.4,1.2-0.5,1.7-0.5l0,0l0,0c0.1,0,0.2,0,0.3,0h0.1c0.3,0.1,0.6,0.2,0.8,0.3c0.4,0.2,0.7,0.5,1.1,0.8
		c0.2,0.1,0.4,0.3,0.6,0.4c0.3,0.2,0.7,0.3,1,0.2c0.2,0,0.5-0.2,0.7-0.3c0.4-0.3,0.8-0.6,1.2-0.9c0.5-0.3,1-0.5,1.5-0.5
		c0.1,0,0.2,0,0.3,0l0,0c0.3,0,0.7,0.1,1,0.3c0.4,0.2,0.8,0.6,1.2,0.9c0.7,0.6,1.5,0.8,2.4,0.3c0.4-0.2,0.8-0.6,1.2-0.9
		c1.2-0.8,2.3-0.9,3.5,0c0.3,0.2,0.5,0.4,0.8,0.7c0.6,0.4,1.2,0.5,1.8,0.2c0.3-0.1,0.5-0.3,0.7-0.5c0.4-0.3,0.7-0.5,1.1-0.7
		c0.7-0.4,1.4-0.4,2.1-0.2c0.5,0.2,1,0.5,1.4,0.9c0.9,0.8,1.9,0.9,2.9,0.2c0.4-0.3,0.7-0.5,1.1-0.8c0.4-0.3,0.8-0.5,1.3-0.5
		s1,0.2,1.5,0.5s0.9,0.7,1.4,0.9c0.5,0.3,1,0.3,1.5,0.2c0.6-0.2,1.1-0.5,1.6-0.8c0.3-0.2,0.6-0.4,0.9-0.6c0.2-0.1,0.5-0.2,0.8-0.2"
		/>
	<path class="st9" d="M516.6,76.8c0.3,0.2,0.5,0.4,0.8,0.7c0.6,0.4,1.2,0.5,1.8,0.2c0.3-0.1,0.5-0.3,0.7-0.5
		c0.4-0.3,0.7-0.5,1.1-0.7c0.3-0.1,0.6-0.2,0.9-0.3l0,0h0.1c0.4,0,0.7,0,1.1,0.1c0.5,0.2,1,0.5,1.4,0.9c0.5,0.4,1,0.6,1.6,0.6
		c0.2-0.1,0.4-0.2,0.6-0.3c0.4-0.3,0.8-0.6,1.3-0.8c0.6-0.4,1.2-0.5,1.7-0.5l0,0l0,0c0.1,0,0.2,0,0.3,0h0.1c0.3,0.1,0.6,0.2,0.8,0.3
		c0.4,0.2,0.7,0.5,1.1,0.8c0.2,0.1,0.4,0.3,0.6,0.4c0.3,0.2,0.7,0.3,1,0.2c0.2,0,0.5-0.2,0.7-0.3c0.4-0.3,0.8-0.6,1.2-0.9
		c0.5-0.3,1-0.5,1.5-0.5c0.1,0,0.2,0,0.3,0l0,0c0.3,0,0.7,0.1,1,0.3c0.4,0.2,0.8,0.6,1.2,0.9c0.7,0.6,1.5,0.8,2.3,0.3
		c0.4-0.2,0.8-0.6,1.2-0.9c1.2-0.8,2.3-0.9,3.5,0c0.3,0.2,0.5,0.4,0.8,0.7c0.6,0.4,1.2,0.5,1.8,0.2c0.3-0.1,0.5-0.3,0.7-0.5
		c0.4-0.3,0.7-0.5,1.1-0.7c0.7-0.4,1.4-0.4,2.1-0.2c0.5,0.2,1,0.5,1.4,0.9"/>
	<path class="st9" d="M531.1,81.7c0.3,0.2,0.5,0.4,0.8,0.7c0.6,0.4,1.2,0.5,1.8,0.2c0.3-0.1,0.5-0.3,0.7-0.5
		c0.4-0.3,0.7-0.5,1.1-0.7c0.3-0.1,0.6-0.2,0.9-0.3l0,0h0.1c0.4,0,0.7,0,1.1,0.1c0.5,0.2,1,0.5,1.4,0.9c0.5,0.4,1,0.6,1.6,0.6
		c0.2-0.1,0.4-0.2,0.6-0.3c0.4-0.3,0.8-0.6,1.3-0.8c0.6-0.4,1.2-0.5,1.7-0.5l0,0l0,0c0.1,0,0.2,0,0.3,0h0.1c0.3,0.1,0.6,0.2,0.8,0.3
		c0.4,0.2,0.7,0.5,1.1,0.8c0.2,0.1,0.4,0.3,0.6,0.4c0.3,0.2,0.7,0.3,1,0.2c0.2,0,0.5-0.2,0.7-0.3c0.4-0.3,0.8-0.6,1.2-0.9
		c0.5-0.3,1-0.5,1.5-0.5c0.1,0,0.2,0,0.3,0l0,0c0.3,0,0.7,0.1,1,0.3c0.4,0.2,0.8,0.6,1.2,0.9c0.7,0.6,1.5,0.8,2.4,0.3
		c0.4-0.2,0.8-0.6,1.2-0.9c1.2-0.8,2.3-0.9,3.5,0c0.3,0.2,0.5,0.4,0.8,0.7c0.6,0.4,1.2,0.5,1.8,0.2c0.3-0.1,0.5-0.3,0.7-0.5
		c0.4-0.3,0.7-0.5,1.1-0.7c0.7-0.4,1.4-0.4,2.1-0.2"/>
</g>
<rect x="-4.7" y="200" class="st10" width="830.5" height="11.7"/>
<g id="b9">
	<polyline class="st0" points="596.2,170 614.1,170 614.1,198.7 	"/>
	<polyline class="st0" points="626.8,198.9 626.8,169.6 647.6,169.6 647.6,198.9 	"/>
	<polyline class="st0" points="660.2,198.9 660.2,170.1 680.2,170.1 680.2,199 	"/>
	<path class="st0" d="M618.8,199v-10.6c0,0-0.1-6,4.1-6c0,0,3.1,0.7,3.7,4.3"/>
	<path class="st0" d="M631.5,199v-17c0,0,0.9-7.5,5.5-7.5s5.8,6.6,5.8,8v16.3"/>
	<path class="st0" d="M647.8,186.3c0,0,1-3.9,3.7-3.9s4,3.6,4,5.3v11.2"/>
	<line class="st0" x1="614.4" y1="173.1" x2="626.5" y2="173.1"/>
	<line class="st0" x1="647.8" y1="173.1" x2="659.8" y2="173.1"/>
	<line class="st0" x1="611.7" y1="188.4" x2="596.7" y2="188.4"/>
	<line class="st0" x1="611.7" y1="183.1" x2="597.2" y2="183.1"/>
	<line class="st0" x1="611.7" y1="178.4" x2="596.8" y2="178.4"/>
	<rect x="599.6" y="173.6" class="st0" width="1.8" height="2.6"/>
	<rect x="665.7" y="173.6" class="st0" width="1.8" height="2.6"/>
	<rect x="606.8" y="173.6" class="st0" width="1.8" height="2.6"/>
	<rect x="672.9" y="173.6" class="st0" width="1.8" height="2.6"/>
	<line class="st0" x1="662.2" y1="178.5" x2="677.9" y2="178.5"/>
	<line class="st0" x1="662.2" y1="183.5" x2="677.9" y2="183.5"/>
	<line class="st0" x1="662.2" y1="188.4" x2="677.9" y2="188.4"/>
	<line class="st0" x1="614.6" y1="189.8" x2="618.3" y2="189.8"/>
	<line class="st0" x1="648.1" y1="178.4" x2="659.7" y2="178.4"/>
	<line class="st0" x1="627.3" y1="189.8" x2="631" y2="189.8"/>
	<line class="st0" x1="643.5" y1="189.8" x2="647.2" y2="189.8"/>
	<line class="st0" x1="656.1" y1="189.8" x2="659.9" y2="189.8"/>
	<line class="st0" x1="615.4" y1="172.1" x2="615.4" y2="172.9"/>
	<line class="st0" x1="616.6" y1="173.9" x2="616.6" y2="174.6"/>
	<line class="st0" x1="649.6" y1="172.1" x2="649.6" y2="172.9"/>
	<line class="st0" x1="650.6" y1="173.9" x2="650.6" y2="174.6"/>
	<line class="st0" x1="661.1" y1="168.9" x2="661.1" y2="169.6"/>
	<line class="st0" x1="662.1" y1="170.6" x2="662.1" y2="171.3"/>
	<line class="st0" x1="672" y1="168.9" x2="672" y2="169.6"/>
	<line class="st0" x1="673" y1="170.6" x2="673" y2="171.3"/>
	<line class="st0" x1="618.4" y1="172.1" x2="618.4" y2="172.9"/>
	<line class="st0" x1="619.6" y1="173.9" x2="619.6" y2="174.6"/>
	<line class="st0" x1="652.3" y1="172.1" x2="652.3" y2="172.9"/>
	<line class="st0" x1="653.3" y1="173.9" x2="653.3" y2="174.6"/>
	<line class="st0" x1="663.8" y1="168.9" x2="663.8" y2="169.6"/>
	<line class="st0" x1="664.8" y1="170.6" x2="664.8" y2="171.3"/>
	<line class="st0" x1="674.7" y1="168.9" x2="674.7" y2="169.6"/>
	<line class="st0" x1="675.7" y1="170.6" x2="675.7" y2="171.3"/>
	<line class="st0" x1="621.4" y1="172.1" x2="621.4" y2="172.9"/>
	<line class="st0" x1="622.6" y1="173.9" x2="622.6" y2="174.6"/>
	<line class="st0" x1="655" y1="172.1" x2="655" y2="172.9"/>
	<line class="st0" x1="656" y1="173.9" x2="656" y2="174.6"/>
	<line class="st0" x1="666.5" y1="168.9" x2="666.5" y2="169.6"/>
	<line class="st0" x1="667.5" y1="170.6" x2="667.5" y2="171.3"/>
	<line class="st0" x1="677.4" y1="168.9" x2="677.4" y2="169.6"/>
	<line class="st0" x1="678.4" y1="170.6" x2="678.4" y2="171.3"/>
	<line class="st0" x1="624.4" y1="172.1" x2="624.4" y2="172.9"/>
	<line class="st0" x1="625.6" y1="173.9" x2="625.6" y2="174.6"/>
	<line class="st0" x1="657.7" y1="172.1" x2="657.7" y2="172.9"/>
	<line class="st0" x1="658.7" y1="173.9" x2="658.7" y2="174.6"/>
	<line class="st0" x1="669.3" y1="168.9" x2="669.3" y2="169.6"/>
	<line class="st0" x1="670.3" y1="170.6" x2="670.3" y2="171.3"/>
	<line class="st0" x1="680" y1="168.9" x2="680" y2="169.6"/>
	<line class="st0" x1="628.2" y1="169.9" x2="628.2" y2="171.5"/>
	<line class="st0" x1="630.2" y1="169.9" x2="630.2" y2="171.5"/>
	<line class="st0" x1="632.2" y1="169.9" x2="632.2" y2="171.5"/>
	<line class="st0" x1="634.2" y1="169.9" x2="634.2" y2="171.5"/>
	<line class="st0" x1="636.1" y1="169.9" x2="636.1" y2="171.5"/>
	<line class="st0" x1="638.1" y1="169.9" x2="638.1" y2="171.5"/>
	<line class="st0" x1="640.1" y1="169.9" x2="640.1" y2="171.5"/>
	<line class="st0" x1="642.1" y1="169.9" x2="642.1" y2="171.5"/>
	<line class="st0" x1="644.1" y1="169.9" x2="644.1" y2="171.5"/>
	<line class="st0" x1="646.1" y1="169.9" x2="646.1" y2="171.5"/>
	<path class="st0" d="M689.9,168.2c0,0-3.3,1.2-3.1,9.4c0,0-2.9-8.3,2.5-10.4c0,0-4.7,0.8-7.6,5.3c0,0,0.1-7.6,7.9-6.4
		c0,0-2.1-3.4-6.4-2.3c0,0,4.1-3.5,6.7,0.6c0,0,1-3.4,4-2.6c0,0-2.9,1.4-3.6,4.3c0,0,5-2.5,8,1.8c0,0-4.7-2.3-7.2-0.3
		c0,0,5.3,1.4,5,8C695.9,175.7,695.8,171.1,689.9,168.2z"/>
	<line class="st0" x1="689.9" y1="168.4" x2="689.9" y2="198.9"/>
	<path class="st0" d="M697,183c0,0-3.3,1.2-3.1,9.4c0,0-2.9-8.3,2.5-10.4c0,0-4.7,0.8-7.6,5.3c0,0,0.1-7.6,7.9-6.4
		c0,0-2.1-3.4-6.4-2.3c0,0,4.1-3.5,6.7,0.6c0,0,1-3.4,4-2.6c0,0-2.9,1.4-3.6,4.3c0,0,5-2.5,8,1.8c0,0-4.7-2.3-7.2-0.3
		c0,0,5.3,1.4,5,8C703.1,190.5,702.9,186,697,183z"/>
	<line class="st0" x1="697" y1="183.2" x2="697" y2="199.1"/>
	<line class="st0" x1="595.6" y1="169.5" x2="595.6" y2="200.1"/>
</g>
</svg>
