<?xml version="1.0" encoding="UTF-8"?>
<svg id="Layer_1" data-name="Layer 1" xmlns="http://www.w3.org/2000/svg" viewBox="0 0 22.11 20.71">
  <defs>
    <style>
      .cls-1 {
        fill: #fff;
      }

      .cls-2 {
        fill: #fcd24b;
      }

      .cls-3 {
        fill: #49459c;
      }

      .cls-4 {
        fill: #333180;
      }

      .cls-5 {
        fill: #6c5ea9;
      }

      .cls-6 {
        fill: #8dcaee;
      }

      .cls-7 {
        fill: #5abadb;
      }

      .cls-8 {
        fill: #010101;
      }
    </style>
  </defs>
  <path class="cls-3" d="m.46,9.48c-.15-.25-.3-.51-.46-.76v-.28c.14-.23.28-.47.43-.7.11-.27.33-.46.52-.67.38-.41.8-.78,1.24-1.12.75-.59,1.54-1.1,2.4-1.52.96-.47,1.97-.81,3.03-.98.09-.01.17-.03.26,0,.04.13-.07.11-.13.13-.36.09-.72.18-1.07.32-.95.38-1.81.91-2.59,1.56-.87.72-1.63,1.54-2.22,2.52-.09.14-.14.29-.2.44-.09.24.02.45.12.65.31.58.71,1.09,1.15,1.58.65.71,1.37,1.33,2.18,1.85.74.48,1.53.86,2.4,1.07.07.02.14.02.19.08,0,.05-.03.07-.07.08-.46-.04-.89-.16-1.33-.29-1.6-.47-3.01-1.3-4.3-2.35-.53-.43-1.03-.9-1.45-1.43-.04-.05-.08-.08-.09-.15"/>
  <path class="cls-2" d="m.46,9.48c.09.1.18.19.27.29,1.27,1.4,2.78,2.47,4.51,3.21.77.33,1.57.57,2.4.69.16-.04.31,0,.47.01,1.13.1,2.24,0,3.34-.32,1.73-.5,3.25-1.38,4.61-2.55.46-.39.89-.82,1.27-1.29.04-.05.07-.11.15-.1-.18,1.78-.85,3.36-2.01,4.72-1.29,1.51-2.92,2.48-4.87,2.84-2.72.51-5.16-.15-7.26-1.94-1.49-1.28-2.41-2.91-2.8-4.83-.05-.23-.08-.46-.11-.69,0-.01.02-.03.03-.04"/>
  <path class="cls-2" d="m7.87,3.45c-1.12.12-2.19.48-3.2.97-1.49.72-2.81,1.69-3.92,2.92-.11.12-.22.26-.33.38C.83,4.51,2.49,2.19,5.41.78,6.65.18,7.98-.05,9.35.01c3.76.18,6.86,2.75,7.83,6.19.14.5.2,1.02.3,1.54-.07,0-.1-.05-.14-.09-.13-.15-.27-.31-.4-.46-.69-.76-1.48-1.38-2.33-1.94-.89-.58-1.84-1.04-2.86-1.37-1.13-.37-2.3-.49-3.48-.43-.13,0-.26.06-.4,0"/>
  <path class="cls-5" d="m7.87,3.45c.38-.02.76-.06,1.15-.06,1.83,0,3.5.58,5.06,1.48,1.22.71,2.31,1.57,3.22,2.65.06.07.12.14.18.21.12.2.24.4.36.6.09.16.09.33,0,.48-.12.2-.24.4-.36.6-.5.6-1.04,1.16-1.65,1.65-1.53,1.24-3.23,2.14-5.18,2.53-1,.2-2.01.23-3.02.07,0-.02,0-.05-.02-.05-.65-.14-1.26-.39-1.85-.7-.67-.35-1.29-.79-1.86-1.28-.76-.65-1.43-1.38-1.97-2.22-.12-.19-.22-.4-.31-.6-.14-.32.03-.58.17-.84.32-.56.72-1.05,1.15-1.53.75-.82,1.6-1.51,2.55-2.06.71-.41,1.47-.72,2.28-.88.03,0,.06-.03.09-.05"/>
  <path class="cls-6" d="m9.84,4.05c.75.12,1.41.44,1.99.91,1.21.99,1.8,2.28,1.73,3.84-.1,2.11-1.6,3.82-3.6,4.27-.04,0-.08,0-.12.01-.35.02-.66-.12-.97-.27-1.43-.67-2.33-1.77-2.66-3.3-.3-1.41.02-2.7.9-3.84.59-.76,1.35-1.27,2.27-1.57.15-.05.3-.09.46-.07"/>
  <path class="cls-7" d="m9.84,4.05c-2.1.42-3.74,2.32-3.68,4.63.05,2.1,1.55,3.97,3.68,4.41-.47.13-.94.11-1.41.07-.45.02-.86-.11-1.27-.28-.91-.39-1.64-.99-2.16-1.84-.57-.92-.8-1.91-.68-2.99.1-.91.44-1.72,1.02-2.43.65-.79,1.47-1.32,2.46-1.57.2-.05.41-.11.62-.07.48-.04.95-.06,1.42.07"/>
  <path class="cls-3" d="m8.42,3.98c-1.82.16-3.48,1.6-3.95,3.42-.66,2.59.95,5.17,3.57,5.71.12.03.25.04.38.05-.21,0-.43.01-.64-.02-.77-.12-1.46-.4-2.08-.87-.92-.69-1.52-1.6-1.75-2.73-.08-.38-.12-.77-.1-1.16.03-1.01.37-1.92,1.01-2.71.7-.86,1.59-1.41,2.68-1.63.29-.06.58-.05.87-.07"/>
  <path class="cls-4" d="m11.19,8.4c.09,1.22-.81,2.32-1.98,2.45-1.29.13-2.4-.7-2.57-1.95-.12-.94.22-1.7,1-2.23.78-.52,1.6-.52,2.43-.07.05.03.1.06.15.09.01.09-.06.13-.11.19-.26.28-.34.61-.21.97.15.38.44.57.84.61.15.02.29-.08.45-.05"/>
  <path class="cls-1" d="m11.19,8.4c-.74.31-1.43-.26-1.39-.95.02-.32.19-.56.42-.77.15-.05.3-.11.46-.14.53-.07.93.32,1.03.67.14.49-.05.92-.52,1.18"/>
  <path class="cls-8" d="m14.79,16.5c.99-.77,1.77-1.66,2.44-2.68.44.39.86.76,1.29,1.12.82.71,1.65,1.41,2.46,2.13.35.31.75.59.97,1.03.37.78.15,1.66-.43,2.15-.71.59-1.65.6-2.32.04-.73-.62-1.45-1.25-2.17-1.88-.67-.58-1.35-1.16-2.02-1.74-.06-.05-.13-.11-.2-.18"/>
</svg>