<?xml version="1.0" encoding="UTF-8"?>
<svg id="Layer_1" data-name="Layer 1" xmlns="http://www.w3.org/2000/svg" viewBox="0 0 40.6 40.6">
  <defs>
    <style>
      .cls-1 {
        fill: none;
        stroke: #fff;
        stroke-linecap: round;
      }

      .cls-2 {
        fill: #462f7f;
      }
    </style>
  </defs>
  <g>
    <path class="cls-2" d="m20.3,40.6c11.21,0,20.3-9.09,20.3-20.3S31.51,0,20.3,0,0,9.09,0,20.3s9.09,20.3,20.3,20.3"/>
    <path class="cls-1" d="m1.03,24.92l9.09-3.18s2.34-.55,4.31.79l3.96.53,3.3.42s1.31-.05,1.83.86c.13.23.21.52.21.88,0,0-.07,1.42-2.19,1.42h-6.5"/>
    <path class="cls-1" d="m23.79,24.57l3.82-1.85s2.56-1.62,4.22,1.08l-10.77,6.69s-1.96,1.69-5.57.46l-3.77-1.08s-2.11-.92-5.57.15l-3.32,1.08"/>
  </g>
  <polygon class="cls-1" points="16.19 11.83 18.77 11.83 19.75 9.12 20.61 11.83 23.44 11.83 21.23 13.71 21.84 16.3 19.75 14.65 17.17 16.54 18.28 13.71 16.19 11.83"/>
  <polygon class="cls-1" points="6.43 14.06 9.01 14.06 10 11.35 10.86 14.06 13.68 14.06 11.47 15.94 12.09 18.53 10 16.88 7.42 18.77 8.52 15.94 6.43 14.06"/>
  <polygon class="cls-1" points="25.94 14.61 28.52 14.61 29.51 11.9 30.36 14.61 33.19 14.61 30.98 16.5 31.59 19.09 29.51 17.44 26.92 19.32 28.03 16.5 25.94 14.61"/>
</svg>