<?xml version="1.0" encoding="UTF-8"?>
<svg id="Layer_1" data-name="Layer 1" xmlns="http://www.w3.org/2000/svg" viewBox="0 0 40.6 40.6">
  <defs>
    <style>
      .cls-1 {
        fill: none;
        stroke: #fff;
      }

      .cls-2 {
        fill: #044e46;
      }
    </style>
  </defs>
  <g>
    <path class="cls-2" d="m20.3,40.6c11.21,0,20.3-9.09,20.3-20.3S31.51,0,20.3,0,0,9.09,0,20.3s9.09,20.3,20.3,20.3"/>
    <path class="cls-1" d="m6.54,30.93s.64.13,1.2-.18c.56-.31,1.59-1.17,3.13-.09,1.54,1.08,2.46.04,2.46.04,0,0,1.23-1.3,2.99.09,0,0,.87.9,2.38-.09,1.51-.99,3.13.09,3.13.09,0,0,1.12.67,2.24-.18,0,0,1.29-1.03,2.96.13,0,0,.98.85,2.4-.13,1.43-.99,2.41-.14,3.19.31.78.45,1.18.07,1.18.07"/>
    <path class="cls-1" d="m6.54,33.18s.64.14,1.2-.18c.56-.31,1.59-1.17,3.13-.09,1.54,1.08,2.46.04,2.46.04,0,0,1.23-1.3,2.99.09,0,0,.87.9,2.38-.09,1.51-.99,3.13.09,3.13.09,0,0,1.12.67,2.24-.18,0,0,1.29-1.03,2.96.13,0,0,.98.85,2.4-.13,1.43-.99,2.41-.14,3.19.31.78.45,1.18.07,1.18.07"/>
    <path class="cls-1" d="m12.5,31.21l-3.48-7.99c-.63-1.43.05-3.07,1.5-3.66l6.97-2.8c1.45-.58,3.81-.59,5.27-.02l6.95,2.73c1.46.57,2.17,2.21,1.59,3.67l-3.17,7.95"/>
  </g>
  <line class="cls-1" x1="20.34" y1="16.15" x2="20.34" y2="30.11"/>
  <g>
    <path class="cls-1" d="m20.28,14.03h-6.2c-.55,0-1,.45-1,1v3.41"/>
    <path class="cls-1" d="m19.61,14.03h6.19c.55,0,1,.45,1,1v3.41"/>
  </g>
  <rect class="cls-1" x="14.44" y="10.65" width="4.79" height="3.28"/>
  <rect class="cls-1" x="20.81" y="10.65" width="4.79" height="3.28"/>
  <rect class="cls-1" x="17.62" y="7.18" width="4.79" height="3.28"/>
  <g>
    <path class="cls-1" d="m23.3,21.69c.66,0,1.2-.53,1.2-1.18s-.54-1.18-1.2-1.18-1.2.53-1.2,1.18.54,1.18,1.2,1.18Z"/>
    <path class="cls-1" d="m17.77,21.69c.66,0,1.2-.53,1.2-1.18s-.54-1.18-1.2-1.18-1.2.53-1.2,1.18.54,1.18,1.2,1.18Z"/>
  </g>
</svg>