<?xml version="1.0" encoding="UTF-8"?>
<svg id="Layer_1" data-name="Layer 1" xmlns="http://www.w3.org/2000/svg" xmlns:xlink="http://www.w3.org/1999/xlink" viewBox="0 0 34.79 34.79">
  <defs>
    <style>
      .cls-1 {
        stroke: #fff;
        stroke-linecap: round;
      }

      .cls-1, .cls-2, .cls-3 {
        fill: none;
      }

      .cls-3 {
        clip-path: url(#clippath);
      }

      .cls-4 {
        fill: url(#linear-gradient);
      }
    </style>
    <clipPath id="clippath">
      <path class="cls-2" d="m0,17.4c0,9.61,7.79,17.39,17.39,17.39s17.39-7.79,17.39-17.39S27,0,17.39,0,0,7.79,0,17.4"/>
    </clipPath>
    <linearGradient id="linear-gradient" x1="96.02" y1="726.78" x2="97.02" y2="726.78" gradientTransform="translate(-3340.23 25300.63) scale(34.79 -34.79)" gradientUnits="userSpaceOnUse">
      <stop offset="0" stop-color="#3d3184"/>
      <stop offset="1" stop-color="#ab70af"/>
    </linearGradient>
  </defs>
  <g class="cls-3">
    <rect class="cls-4" x="0" y="0" width="34.79" height="34.79"/>
  </g>
  <line class="cls-1" x1="17.5" y1="11.49" x2="17.5" y2="25.77"/>
  <line class="cls-1" x1="14.04" y1="25.93" x2="20.86" y2="25.93"/>
  <path class="cls-1" d="m23.94,11.72l-3.2,7.4c-.3,1.26,1.02,3.17,3.2,3.07,2.48-.11,2.79-2.92,2.79-2.92l-2.79-7.55c-.96-2.11-2.79-1.71-2.79-1.71h-6.79c-2.53-.2-2.94,2.22-2.94,2.22l-3.35,6.84c.51,3.22,3.35,3.12,3.35,3.12,2.33,0,2.84-2.82,2.84-2.82l-2.84-7.14"/>
  <line class="cls-1" x1="8.17" y1="19.11" x2="14.17" y2="19.11"/>
  <line class="cls-1" x1="21.09" y1="19.11" x2="26.68" y2="19.11"/>
</svg>