<?xml version="1.0" encoding="UTF-8"?>
<svg id="Layer_1" data-name="Layer 1" xmlns="http://www.w3.org/2000/svg" xmlns:xlink="http://www.w3.org/1999/xlink" viewBox="0 0 34.79 34.79">
  <defs>
    <style>
      .cls-1 {
        stroke: #fff;
      }

      .cls-1, .cls-2, .cls-3 {
        fill: none;
      }

      .cls-3 {
        clip-path: url(#clippath);
      }

      .cls-4 {
        fill: url(#linear-gradient);
      }
    </style>
    <clipPath id="clippath">
      <path class="cls-2" d="m0,17.4c0,9.61,7.79,17.39,17.39,17.39s17.4-7.79,17.4-17.39S27,0,17.39,0,0,7.79,0,17.4"/>
    </clipPath>
    <linearGradient id="linear-gradient" x1="74.06" y1="736.87" x2="75.06" y2="736.87" gradientTransform="translate(-2576.5 25651.68) scale(34.79 -34.79)" gradientUnits="userSpaceOnUse">
      <stop offset="0" stop-color="#3d3184"/>
      <stop offset="1" stop-color="#626bb1"/>
    </linearGradient>
  </defs>
  <g class="cls-3">
    <rect class="cls-4" x="0" y="0" width="34.79" height="34.79"/>
  </g>
  <path class="cls-1" d="m10.2,30.26v-6.57l-2.19-2.6v-7.39s.55-3.83,3.55-3.83h9.02s4.51.14,4.78,4.93v4.38l2.46,4.79h-4.51l-.14,6.16"/>
  <path class="cls-1" d="m13.27,9.84c1.47,0,2.65-1.19,2.65-2.65s-1.19-2.65-2.65-2.65-2.65,1.19-2.65,2.65,1.19,2.65,2.65,2.65Z"/>
  <path class="cls-1" d="m20.05,9.84c1.47,0,2.65-1.19,2.65-2.65s-1.19-2.65-2.65-2.65-2.65,1.19-2.65,2.65,1.19,2.65,2.65,2.65Z"/>
  <path class="cls-1" d="m16.49,19.36c1.31,0,2.38-1.07,2.38-2.38s-1.07-2.38-2.38-2.38-2.38,1.07-2.38,2.38,1.07,2.38,2.38,2.38Z"/>
  <path class="cls-1" d="m13.49,30.74v-7.38s-.27-3.83,2.72-3.83,3,3.01,3,3.01l-.27,8.2"/>
  <polyline class="cls-1" points="19.21 9.87 16.78 12.19 16.78 14.92"/>
</svg>