<?xml version="1.0" encoding="UTF-8"?>
<svg id="Layer_1" data-name="Layer 1" xmlns="http://www.w3.org/2000/svg" viewBox="0 0 19.56 19.56">
  <defs>
    <style>
      .cls-1 {
        fill: #fff;
      }

      .cls-2 {
        fill: none;
        stroke: #fff;
        stroke-linecap: round;
        stroke-miterlimit: 10;
        stroke-width: .29px;
      }

      .cls-3 {
        fill: #e9202f;
      }
    </style>
  </defs>
  <rect class="cls-3" width="19.56" height="19.56"/>
  <path class="cls-1" d="m1.71,2.45s-.13.06-.3.12c-.13.04-.21.07-.24.09v-.53c.11-.04.23-.1.38-.18.15-.08.26-.16.32-.23h.56v3.75h-.72v-3.01Z"/>
  <polygon class="cls-1" points="4.53 1.71 4.53 2.52 4.18 1.71 4 1.71 4 3.14 4.22 3.14 4.22 2.29 4.57 3.14 4.74 3.14 4.74 1.71 4.53 1.71"/>
  <g>
    <path class="cls-1" d="m5.31,3.16c-.15,0-.25-.04-.32-.12-.06-.08-.1-.2-.1-.35v-.53c0-.08,0-.14.02-.2.01-.06.04-.1.07-.14.03-.04.08-.07.13-.09.05-.02.12-.03.19-.03.15,0,.25.04.32.12s.1.19.1.35v.53c0,.08,0,.14-.02.2-.02.06-.04.11-.07.15-.03.04-.08.07-.13.1-.05.02-.12.03-.19.03m-.06-.21s.04.01.06.01.05,0,.07-.01c.02,0,.03-.02.04-.03.01-.01.02-.03.03-.05,0-.02,0-.04.01-.06,0-.02,0-.04,0-.07v-.65s0-.06,0-.09c0-.02-.01-.05-.02-.07-.01-.02-.02-.04-.04-.04-.02-.01-.05-.02-.08-.02s-.06,0-.08.02c-.02,0-.04.02-.05.04,0,.02-.02.04-.02.07,0,.02,0,.05,0,.09v.65s0,.05,0,.07c0,.02,0,.04.01.06,0,.02.01.04.02.05.01.01.03.02.04.03"/>
    <path class="cls-1" d="m4,5.48v-1.43h.41c.24,0,.37.14.37.41,0,.13-.03.23-.1.29-.07.06-.16.09-.28.09h-.13v.64h-.26Zm.26-.82h.08c.07,0,.12-.01.15-.04.03-.03.04-.08.04-.16,0-.04,0-.08,0-.1,0-.02-.01-.05-.02-.07-.01-.02-.03-.03-.06-.04-.02,0-.06-.01-.1-.01h-.08v.42Z"/>
    <path class="cls-1" d="m5.29,5.5c-.15,0-.25-.04-.32-.12-.06-.08-.1-.2-.1-.35v-.53c0-.08,0-.14.02-.2.01-.06.04-.1.07-.14.03-.04.08-.07.13-.09.05-.02.12-.03.19-.03.15,0,.25.04.32.12s.1.19.1.35v.53c0,.08,0,.14-.02.2-.02.06-.04.11-.07.15-.03.04-.08.07-.13.1-.05.02-.12.03-.19.03m-.06-.21s.04.01.06.01.05,0,.07-.01c.02,0,.03-.02.04-.03.01-.01.02-.03.03-.05,0-.02,0-.04.01-.06,0-.02,0-.04,0-.07v-.65s0-.06,0-.09c0-.02-.01-.05-.02-.07-.01-.02-.03-.04-.05-.04-.02-.01-.05-.02-.08-.02s-.06,0-.08.02c-.02,0-.04.02-.05.04,0,.02-.02.04-.02.07,0,.02,0,.05,0,.09v.65s0,.05,0,.07c0,.02,0,.04.01.06,0,.02.01.04.02.05.01.01.03.02.04.03"/>
  </g>
  <polygon class="cls-1" points="6.42 4.05 6.24 5.04 6.06 4.05 5.82 4.05 6.11 5.48 6.37 5.48 6.66 4.05 6.42 4.05"/>
  <polygon class="cls-1" points="6.8 4.05 6.8 5.48 7.4 5.48 7.4 5.3 7.06 5.3 7.06 4.83 7.32 4.83 7.32 4.64 7.06 4.64 7.06 4.23 7.39 4.23 7.39 4.05 6.8 4.05"/>
  <path class="cls-1" d="m7.54,5.48v-1.43h.33c.08,0,.14,0,.2.02.05.01.1.03.14.06.04.03.07.07.09.12.02.05.03.11.03.18,0,.09-.01.16-.04.22-.03.06-.07.1-.13.12l.2.71h-.26l-.17-.65h-.12v.65h-.26Zm.26-.82h.06c.08,0,.13-.02.17-.05.03-.03.05-.09.05-.17s-.01-.13-.04-.16c-.03-.03-.08-.05-.15-.05h-.08v.43Z"/>
  <polygon class="cls-1" points="8.41 4.05 8.41 4.24 8.65 4.24 8.65 5.48 8.91 5.48 8.91 4.24 9.15 4.24 9.15 4.05 8.41 4.05"/>
  <polygon class="cls-1" points="9.75 4.05 9.58 4.62 9.4 4.05 9.16 4.05 9.45 4.93 9.45 5.48 9.7 5.48 9.7 4.93 9.99 4.05 9.75 4.05"/>
  <g>
    <path class="cls-1" d="m15.13,9.37c0-.3.24-.55.55-.55s.55.25.55.55-.24.55-.55.55-.55-.25-.55-.55"/>
    <path class="cls-1" d="m16.32,10.13c.37.03.66.35.66.73v1.51c0,.12-.09.21-.21.21s-.21-.1-.21-.21v-1.3s-.01-.11-.1-.11c-.06,0-.07.07-.08.11v3.9c0,.17-.14.31-.3.31s-.3-.14-.3-.31v-2.25s0-.09-.09-.09-.09.07-.09.09v2.25c0,.17-.14.31-.3.31s-.3-.14-.3-.31v-3.9s-.01-.11-.08-.11c-.09,0-.1.07-.1.11v1.3c0,.12-.1.21-.21.21s-.21-.1-.21-.21v-1.51c0-.38.29-.69.66-.73.01,0,.02,0,.04,0h1.19s.03,0,.04,0"/>
    <path class="cls-1" d="m11.88,9.66c0-.29-.23-.52-.52-.52s-.52.23-.52.52.23.52.52.52.52-.23.52-.52"/>
    <path class="cls-1" d="m10.32,10.83l-.43,1.4s-.08.26.14.32c.22.06.28-.19.28-.19l.35-1.17s.02-.09.09-.07c.07.02.04.12.04.12l-.6,2.19h.56v1.57c0,.15.12.27.27.27s.27-.12.27-.27v-1.57h.15v1.57c0,.15.12.27.27.27s.27-.12.27-.27v-1.57h.56l-.6-2.19s-.03-.1.04-.12c.07-.02.09.07.09.07l.35,1.17s.07.25.28.19c.22-.06.14-.32.14-.32l-.43-1.4s-.15-.4-.5-.4h-1.1c-.34,0-.49.4-.49.4"/>
    <path class="cls-1" d="m8.78,9.66c0-.29-.23-.52-.52-.52s-.52.23-.52.52.23.52.52.52.52-.23.52-.52"/>
    <path class="cls-1" d="m7.22,10.83l-.43,1.4s-.08.26.14.32c.22.06.28-.19.28-.19l.35-1.17s.02-.09.09-.07c.07.02.04.12.04.12l-.6,2.19h.56v1.57c0,.15.12.27.27.27s.27-.12.27-.27v-1.57h.15v1.57c0,.15.12.27.27.27s.27-.12.27-.27v-1.57h.56l-.6-2.19s-.03-.1.04-.12c.07-.02.09.07.09.07l.35,1.17s.07.25.28.19c.22-.06.14-.32.14-.32l-.43-1.4s-.15-.4-.49-.4h-1.1c-.34,0-.49.4-.49.4"/>
    <path class="cls-1" d="m13.62,12.56c.24,0,.43-.19.43-.43s-.19-.43-.43-.43-.43.19-.43.43.19.43.43.43"/>
    <path class="cls-1" d="m12.59,13.9c-.02.05-.04.16.06.2.12.05.18-.06.18-.06l.24-.75s.04-.05.04,0v1.76h0c0,.12.1.22.22.22s.22-.1.22-.22v-.69s-.01-.1.07-.1.07.1.07.1v.69c0,.12.1.22.22.22s.22-.1.22-.22v-1.76c0-.05.03-.01.03-.01l.18.51s.08.23.1.24c.08.04.18,0,.21-.09.02-.05.01-.11-.02-.16h0s-.27-.68-.31-.77c-.1-.28-.27-.28-.44-.29-.17,0-.27,0-.27,0,0,0-.11,0-.33,0-.22,0-.3.12-.54.76-.04.09-.15.39-.16.41h0Z"/>
    <path class="cls-1" d="m4.16,9.37c0-.3-.25-.55-.55-.55s-.55.25-.55.55.24.55.55.55.55-.25.55-.55"/>
    <path class="cls-1" d="m2.98,10.13c-.37.03-.66.35-.66.73v1.51c0,.12.1.21.21.21s.21-.1.21-.21v-1.3s.01-.11.1-.11c.06,0,.07.07.08.11v3.9c0,.17.13.31.3.31s.3-.14.3-.31v-2.25s0-.09.09-.09.09.07.09.09v2.25c0,.17.14.31.3.31s.3-.14.3-.31v-3.9s.01-.11.08-.11c.09,0,.1.07.1.11v1.3c0,.12.1.21.21.21s.21-.1.21-.21v-1.51c0-.38-.29-.69-.66-.73-.01,0-.02,0-.04,0h-1.19s-.03,0-.04,0"/>
  </g>
  <line class="cls-2" x1="2.47" y1="12.62" x2="2.04" y2="15.14"/>
  <g>
    <path class="cls-1" d="m5.17,12.33s-.08-.07-.13-.07c-.09,0-.16.07-.16.16,0,.02.01.07.01.07l.43.79s.03.05.03.1v1.69h0c0,.12.1.21.21.21s.21-.1.21-.21v-.67s-.01-.09.06-.09.06.09.06.09v.67c0,.12.1.21.21.21s.21-.1.21-.21v-1.69s.03-.1.03-.1l.4-.73s.05-.1.05-.13c0-.09-.07-.16-.16-.16-.06,0-.1.03-.13.07h0s-.21.37-.28.43c-.07.07-.13.06-.13.06h-.52s-.06,0-.13-.06c-.07-.07-.27-.42-.28-.43h0Z"/>
    <path class="cls-1" d="m5.85,12.56c.24,0,.43-.19.43-.43s-.19-.43-.43-.43-.43.19-.43.43.19.43.43.43"/>
  </g>
  <polygon class="cls-1" points="5.85 13.16 6.34 13.52 6.57 14.37 5.85 14.37 5.13 14.37 5.36 13.52 5.85 13.16"/>
</svg>