<?xml version="1.0" encoding="UTF-8"?>
<svg id="Layer_1" data-name="Layer 1" xmlns="http://www.w3.org/2000/svg" viewBox="0 0 19.56 19.56">
  <defs>
    <style>
      .cls-1 {
        fill: #fff;
      }

      .cls-2 {
        fill: #d1a02a;
      }
    </style>
  </defs>
  <rect class="cls-2" width="19.56" height="19.56"/>
  <path class="cls-1" d="m1.58,4.95l.91-1.4.05-.08c.12-.18.2-.32.26-.44.06-.12.08-.25.08-.39,0-.12-.02-.21-.07-.27-.05-.06-.11-.1-.2-.1-.13,0-.22.05-.27.15-.05.1-.07.24-.07.41v.17h-.69v-.18c0-.35.08-.63.25-.84s.42-.31.77-.31c.32,0,.57.08.74.26.17.17.25.41.25.73,0,.14-.02.28-.06.4-.04.13-.09.24-.15.34-.06.1-.15.24-.27.42l-.72,1.08h1.11v.56h-1.91v-.5Z"/>
  <polygon class="cls-1" points="5.14 1.71 5.14 1.89 5.51 1.89 5.13 2.97 5.13 3.14 5.77 3.14 5.77 2.96 5.37 2.96 5.77 1.84 5.77 1.71 5.14 1.71"/>
  <polygon class="cls-1" points="5.91 1.71 5.91 3.14 6.52 3.14 6.52 2.96 6.17 2.96 6.17 2.49 6.44 2.49 6.44 2.3 6.17 2.3 6.17 1.89 6.51 1.89 6.51 1.71 5.91 1.71"/>
  <g>
    <path class="cls-1" d="m6.66,3.14v-1.43h.33c.08,0,.14,0,.2.02.05.01.1.03.14.06.04.03.07.07.09.12.02.05.03.11.03.18,0,.09-.01.16-.04.22-.03.06-.07.1-.13.12l.2.71h-.26l-.17-.65h-.12v.65h-.26Zm.26-.82h.06c.08,0,.13-.02.17-.05.03-.03.05-.09.05-.17s-.01-.13-.04-.16c-.03-.03-.08-.05-.15-.05h-.08v.43Z"/>
    <path class="cls-1" d="m8.02,3.16c-.15,0-.25-.04-.32-.12-.06-.08-.1-.2-.1-.35v-.53c0-.08,0-.14.02-.2.01-.06.04-.1.07-.14.03-.04.08-.07.13-.09.05-.02.12-.03.19-.03.15,0,.25.04.32.12s.1.19.1.35v.53c0,.08,0,.14-.02.2-.02.06-.04.11-.07.15-.03.04-.08.07-.13.1-.05.02-.12.03-.19.03m-.06-.21s.04.01.06.01.05,0,.07-.01c.02,0,.03-.02.04-.03.01-.01.02-.03.03-.05,0-.02,0-.04.01-.06,0-.02,0-.04,0-.07v-.65s0-.06,0-.09c0-.02-.01-.05-.02-.07-.01-.02-.02-.04-.04-.04-.02-.01-.05-.02-.08-.02s-.06,0-.08.02c-.02,0-.04.02-.05.04,0,.02-.02.04-.02.07,0,.02,0,.05,0,.09v.65s0,.05,0,.07c0,.02,0,.04.01.06,0,.02.01.04.02.05.01.01.03.02.04.03"/>
  </g>
  <polygon class="cls-1" points="5.73 4.05 5.73 4.65 5.43 4.65 5.43 4.05 5.17 4.05 5.17 5.48 5.43 5.48 5.43 4.83 5.73 4.83 5.73 5.48 5.99 5.48 5.99 4.05 5.73 4.05"/>
  <path class="cls-1" d="m6.59,5.5c-.06,0-.12,0-.17-.02s-.09-.04-.12-.06c-.03-.03-.05-.06-.07-.1-.02-.04-.03-.09-.04-.14,0-.05-.01-.11-.01-.17v-.95h.25v.98s0,.06,0,.09c0,.02,0,.05.01.07,0,.03.01.05.02.06.01.02.03.03.04.04.02.01.04.02.07.02s.05,0,.07-.02c.02,0,.03-.02.04-.04,0-.01.02-.04.02-.06,0-.03.01-.05.01-.07,0-.02,0-.05,0-.09v-.98h.25v.95c0,.06,0,.12-.01.17,0,.05-.02.1-.04.14-.02.04-.04.08-.07.1-.03.03-.07.05-.12.06s-.1.02-.16.02"/>
  <polygon class="cls-1" points="7.71 4.05 7.71 4.86 7.36 4.05 7.18 4.05 7.18 5.48 7.4 5.48 7.4 4.63 7.76 5.48 7.93 5.48 7.93 4.05 7.71 4.05"/>
  <path class="cls-1" d="m8.49,5.5c-.14,0-.23-.04-.29-.13-.06-.08-.09-.21-.09-.37v-.47c0-.08,0-.15.02-.21.01-.06.03-.11.07-.16.03-.04.07-.08.13-.1.05-.02.12-.03.2-.03.14,0,.24.03.31.1.06.07.09.17.09.32v.07h-.25v-.07s0-.06,0-.08c0-.02,0-.04-.01-.06,0-.02-.01-.04-.02-.05-.01-.01-.02-.02-.04-.03-.02,0-.04-.01-.07-.01-.02,0-.04,0-.05,0-.02,0-.03.01-.04.02-.01,0-.02.02-.03.03,0,.01-.01.03-.02.04,0,.01,0,.03,0,.05,0,.02,0,.04,0,.05v.64c0,.09,0,.15.03.19.02.04.06.06.12.06.03,0,.06,0,.08-.02.02-.01.04-.03.05-.05.01-.02.02-.05.03-.08,0-.03,0-.07,0-.11v-.12h-.15v-.17h.39v.73h-.17l-.02-.14c-.04.11-.12.16-.24.16"/>
  <polygon class="cls-1" points="9.11 4.05 9.11 5.48 9.72 5.48 9.72 5.3 9.37 5.3 9.37 4.83 9.64 4.83 9.64 4.64 9.37 4.64 9.37 4.23 9.71 4.23 9.71 4.05 9.11 4.05"/>
  <g>
    <path class="cls-1" d="m9.86,5.48v-1.43h.33c.08,0,.14,0,.2.02.05.01.1.03.14.06.04.03.07.07.09.12.02.05.03.11.03.18,0,.09-.01.16-.04.22-.03.06-.07.1-.13.12l.2.71h-.26l-.17-.65h-.12v.65h-.26Zm.26-.82h.06c.08,0,.13-.02.17-.05.03-.03.05-.09.05-.17s-.01-.13-.04-.16c-.03-.03-.08-.05-.15-.05h-.08v.43Z"/>
    <path class="cls-1" d="m7.83,16.73v.28s0,0,0,0,0,0,0,0c0,.07.06.12.13.12,0,0,0,0,0,0s0,0,0,0h3.26s0,0,0,0,0,0,0,0c.07,0,.13-.06.13-.13h0v-.32c1.83-.6,3.21-2.09,3.51-3.9,0,0,0,0,0-.01,0,0,0-.01,0-.02,0-.07-.06-.13-.13-.13H4.36c-.07,0-.13.06-.13.13v.06c.32,1.83,1.74,3.32,3.61,3.9"/>
    <path class="cls-1" d="m11.35,8.21c-.04.06-1.05,1.51.02,2.67.49.54.45,1.01.31,1.33h.68c.14-.47.08-1.06-.48-1.67-.79-.86.01-2.02.02-2.04.09-.13.04-.3-.11-.38-.15-.08-.36-.04-.45.09"/>
    <path class="cls-1" d="m9.62,12.21h.68c.14-.47.08-1.06-.48-1.67-.79-.86,0-2.02.02-2.04.09-.13.04-.3-.11-.38-.15-.08-.36-.04-.45.09-.04.06-1.05,1.51.02,2.67.49.54.45,1.01.31,1.33"/>
    <path class="cls-1" d="m7.22,8.21c-.04.06-1.05,1.51.02,2.67.49.54.45,1.01.31,1.33h.68c.14-.47.08-1.06-.48-1.67-.79-.86.01-2.02.02-2.04.09-.13.04-.3-.11-.38-.15-.08-.36-.04-.45.09"/>
  </g>
</svg>