<?xml version="1.0" encoding="UTF-8"?>
<svg id="Layer_1" data-name="Layer 1" xmlns="http://www.w3.org/2000/svg" viewBox="0 0 19.56 19.56">
  <defs>
    <style>
      .cls-1 {
        fill: #fff;
      }

      .cls-2 {
        fill: #cd8c2a;
      }
    </style>
  </defs>
  <rect class="cls-2" width="19.56" height="19.56"/>
  <g>
    <path class="cls-1" d="m1.69,2.45s-.13.06-.3.12c-.13.04-.21.07-.24.09v-.53c.1-.04.23-.1.38-.18.15-.08.26-.16.32-.23h.56v3.75h-.72v-3.01Z"/>
    <path class="cls-1" d="m2.8,4.95l.91-1.4.05-.08c.12-.18.2-.32.26-.44.06-.12.08-.25.08-.39,0-.12-.02-.21-.07-.27-.05-.06-.11-.1-.2-.1-.13,0-.22.05-.27.15s-.07.24-.07.41v.17h-.69v-.18c0-.35.08-.63.25-.84.16-.21.42-.31.77-.31.32,0,.57.08.74.26.17.17.25.41.25.73,0,.14-.02.28-.06.4-.04.13-.09.24-.15.34-.06.1-.15.24-.27.42l-.72,1.08h1.12v.56h-1.91v-.5Z"/>
    <path class="cls-1" d="m6.25,3.14v-1.43h.33c.08,0,.14,0,.2.02.05.01.1.03.14.06.04.03.07.07.09.12.02.05.03.11.03.18,0,.09-.01.16-.04.22-.03.06-.07.1-.13.12l.2.71h-.26l-.17-.65h-.12v.65h-.26Zm.26-.82h.06c.08,0,.13-.02.16-.05.03-.03.05-.09.05-.17s-.01-.13-.04-.16c-.03-.03-.08-.05-.15-.05h-.08v.43Z"/>
  </g>
  <polygon class="cls-1" points="7.18 1.71 7.18 3.14 7.79 3.14 7.79 2.96 7.44 2.96 7.44 2.49 7.71 2.49 7.71 2.3 7.44 2.3 7.44 1.89 7.78 1.89 7.78 1.71 7.18 1.71"/>
  <g>
    <path class="cls-1" d="m8.24,3.16c-.25,0-.39-.15-.4-.44l.23-.05c0,.19.06.28.16.28.04,0,.07-.01.09-.04.02-.02.03-.06.03-.1s0-.08-.02-.11c-.01-.03-.03-.06-.05-.08s-.05-.05-.08-.08l-.19-.16c-.05-.05-.1-.1-.12-.15-.03-.05-.04-.12-.04-.2,0-.11.03-.2.1-.26.07-.06.15-.09.27-.09.05,0,.1,0,.14.02.04.01.07.03.1.05.03.02.05.05.07.09.02.03.03.07.04.11,0,.04.01.08.02.12l-.22.04s0-.05,0-.07c0-.02,0-.04-.01-.07,0-.02-.01-.04-.03-.05,0-.01-.02-.02-.04-.03-.02,0-.04-.01-.06,0-.04,0-.07.02-.09.04-.02.02-.03.05-.03.09,0,.05,0,.08.03.11.02.03.05.06.08.1l.19.16s.06.06.08.08c.02.03.04.06.07.09.02.03.04.07.05.11s.02.08.02.13c0,.1-.03.19-.1.25-.07.07-.15.1-.26.1"/>
    <path class="cls-1" d="m8.7,3.14v-1.43h.41c.24,0,.37.14.37.41,0,.13-.03.23-.1.29s-.16.09-.28.09h-.13v.64h-.26Zm.26-.82h.08c.07,0,.12-.01.15-.04.03-.03.04-.08.04-.16,0-.04,0-.08,0-.1,0-.02-.01-.05-.02-.07-.01-.02-.03-.03-.06-.04-.02,0-.06-.01-.1-.01h-.08v.42Z"/>
    <path class="cls-1" d="m9.96,3.16c-.15,0-.25-.04-.32-.12-.06-.08-.1-.2-.1-.35v-.53c0-.08,0-.14.02-.2.01-.06.04-.1.07-.14.03-.04.07-.07.13-.09.05-.02.12-.03.19-.03.15,0,.25.04.32.12.06.08.1.19.1.35v.53c0,.08,0,.14-.02.2-.01.06-.04.11-.07.15-.03.04-.07.07-.13.1-.05.02-.12.03-.19.03m-.06-.21s.04.01.06.01.05,0,.07-.01c.02,0,.03-.02.04-.03.01-.01.02-.03.03-.05,0-.02,0-.04.01-.06,0-.02,0-.04,0-.07v-.65s0-.06,0-.09c0-.02-.01-.05-.02-.07-.01-.02-.03-.04-.04-.04-.02-.01-.05-.02-.08-.02s-.06,0-.08.02c-.02,0-.04.02-.04.04,0,.02-.02.04-.02.07,0,.02,0,.05,0,.09v.65s0,.05,0,.07c0,.02,0,.04.01.06,0,.02.01.04.02.05.01.01.03.02.04.03"/>
  </g>
  <polygon class="cls-1" points="11.04 1.71 11.04 2.52 10.69 1.71 10.51 1.71 10.51 3.14 10.73 3.14 10.73 2.29 11.08 3.14 11.25 3.14 11.25 1.71 11.04 1.71"/>
  <path class="cls-1" d="m11.77,3.16c-.25,0-.39-.15-.4-.44l.23-.05c0,.19.06.28.16.28.04,0,.07-.01.09-.04.02-.02.03-.06.03-.1s0-.08-.02-.11c-.01-.03-.03-.06-.05-.08s-.05-.05-.08-.08l-.19-.16c-.06-.05-.1-.1-.12-.15-.03-.05-.04-.12-.04-.2,0-.11.03-.2.1-.26.07-.06.15-.09.27-.09.05,0,.1,0,.14.02.04.01.07.03.1.05.03.02.05.05.07.09.02.03.03.07.04.11,0,.04.01.08.02.12l-.22.04s0-.05,0-.07c0-.02,0-.04-.01-.07,0-.02-.01-.04-.03-.05,0-.01-.02-.02-.04-.03-.02,0-.04-.01-.06,0-.04,0-.07.02-.09.04-.02.02-.03.05-.03.09,0,.05,0,.08.03.11.02.03.05.06.08.1l.19.16s.06.06.08.08c.02.03.04.06.07.09.02.03.04.07.05.11s.02.08.02.13c0,.1-.03.19-.1.25-.07.07-.15.1-.26.1"/>
  <rect class="cls-1" x="12.24" y="1.71" width=".26" height="1.43"/>
  <path class="cls-1" d="m12.66,3.14v-1.43h.35c.07,0,.12,0,.17.02.05.01.09.03.13.06.04.03.07.07.09.11.02.05.03.11.03.18,0,.18-.07.28-.21.3.08.02.15.05.19.11.04.06.06.14.06.24,0,.14-.03.24-.1.31-.07.07-.17.11-.3.11h-.41Zm.26-.85h.08c.08,0,.13-.02.16-.05.03-.03.04-.09.04-.17,0-.04,0-.07-.01-.1,0-.03-.02-.04-.05-.06-.02-.01-.05-.02-.07-.02-.03,0-.06,0-.11,0h-.04v.4Zm0,.66h.1c.08,0,.13-.02.16-.05.03-.04.04-.1.04-.18s-.02-.15-.05-.19c-.03-.04-.09-.06-.17-.06h-.08v.48Z"/>
  <polygon class="cls-1" points="13.59 1.71 13.59 3.14 14.2 3.14 14.2 2.96 13.85 2.96 13.85 1.71 13.59 1.71"/>
  <polygon class="cls-1" points="14.28 1.71 14.28 3.14 14.89 3.14 14.89 2.96 14.54 2.96 14.54 2.49 14.81 2.49 14.81 2.3 14.54 2.3 14.54 1.89 14.88 1.89 14.88 1.71 14.28 1.71"/>
  <g>
    <path class="cls-1" d="m6.64,5.5c-.06,0-.12,0-.16-.02-.05-.02-.09-.04-.12-.07-.03-.03-.06-.06-.07-.1-.02-.04-.03-.08-.04-.13,0-.05-.01-.1-.01-.16v-.5c0-.06,0-.12.01-.17,0-.05.02-.09.04-.13.02-.04.04-.07.07-.1.03-.03.07-.05.12-.06.05-.01.1-.02.16-.02.07,0,.13,0,.18.03.05.02.09.05.12.08.03.04.05.08.06.13.01.05.02.11.02.17v.12h-.25v-.12c0-.07,0-.12-.01-.14-.01-.05-.05-.07-.11-.08h-.01s-.04,0-.06,0c-.02,0-.03.01-.04.02-.01.01-.02.02-.03.04,0,.01-.01.03-.01.05,0,.02,0,.04,0,.06,0,.02,0,.04,0,.07v.61c0,.08,0,.14.03.18.02.04.06.05.11.05.02,0,.03,0,.05,0,.01,0,.03,0,.04-.02,0,0,.02-.02.02-.03,0-.01.01-.02.01-.03,0-.01,0-.03,0-.04s0-.04,0-.05,0-.03,0-.05v-.13h.25v.12c0,.05,0,.1-.01.14,0,.04-.02.08-.04.12-.02.04-.04.07-.07.09-.03.02-.07.04-.11.06-.04.01-.1.02-.16.02"/>
    <path class="cls-1" d="m7.54,5.5c-.15,0-.25-.04-.32-.12-.06-.08-.1-.2-.1-.35v-.53c0-.08,0-.14.02-.2.01-.06.04-.1.07-.14.03-.04.07-.07.13-.09.05-.02.12-.03.19-.03.15,0,.25.04.32.12.06.08.1.19.1.35v.53c0,.08,0,.14-.02.2-.01.06-.04.11-.07.15-.03.04-.07.07-.13.1-.05.02-.12.03-.19.03m-.06-.21s.04.01.06.01.05,0,.07-.01c.02,0,.03-.02.04-.03.01-.01.02-.03.03-.05,0-.02,0-.04.01-.06,0-.02,0-.04,0-.07v-.65s0-.06,0-.09c0-.02-.01-.05-.02-.07-.01-.02-.03-.04-.04-.04-.02-.01-.05-.02-.08-.02s-.06,0-.08.02c-.02,0-.04.02-.04.04,0,.02-.02.04-.02.07,0,.02,0,.05,0,.09v.65s0,.05,0,.07c0,.02,0,.04.01.06,0,.02.01.04.02.05.01.01.03.02.04.03"/>
  </g>
  <polygon class="cls-1" points="8.62 4.05 8.62 4.86 8.27 4.05 8.09 4.05 8.09 5.48 8.31 5.48 8.31 4.63 8.67 5.48 8.84 5.48 8.84 4.05 8.62 4.05"/>
  <g>
    <path class="cls-1" d="m9.36,5.5c-.25,0-.39-.15-.4-.44l.23-.05c0,.19.06.28.16.28.04,0,.07-.01.09-.04.02-.02.03-.06.03-.1s0-.08-.02-.11c-.01-.03-.03-.06-.05-.08s-.05-.05-.08-.08l-.19-.16c-.05-.05-.1-.1-.12-.15-.03-.05-.04-.12-.04-.2,0-.11.03-.2.1-.26.07-.06.15-.09.27-.09.05,0,.1,0,.14.02.04.01.07.03.1.05.03.02.05.05.07.09.02.03.03.07.04.11,0,.04.01.08.02.12l-.22.04s0-.05,0-.07c0-.02,0-.04-.01-.07,0-.02-.01-.04-.03-.05,0-.01-.02-.02-.04-.03-.02,0-.04-.01-.06,0-.04,0-.07.02-.09.04-.02.02-.03.05-.03.09,0,.05,0,.08.03.11.02.03.05.06.08.1l.19.16s.06.06.08.08c.02.03.04.06.07.09.02.03.04.07.05.11s.02.08.02.13c0,.1-.03.19-.1.25-.07.07-.15.1-.26.1"/>
    <path class="cls-1" d="m10.21,5.5c-.06,0-.12,0-.17-.02-.05-.01-.09-.04-.12-.06-.03-.03-.05-.06-.07-.1-.02-.04-.03-.09-.04-.14,0-.05-.01-.11-.01-.17v-.95h.25v.98s0,.06,0,.09c0,.02,0,.05.01.07,0,.03.01.05.02.06.01.02.03.03.04.04.02.01.04.02.07.02s.05,0,.07-.02c.02,0,.03-.02.04-.04,0-.01.02-.04.02-.06s0-.05.01-.07c0-.02,0-.05,0-.09v-.98h.25v.95c0,.06,0,.12-.01.17s-.02.1-.04.14c-.02.04-.04.08-.07.1-.03.03-.07.05-.12.06s-.1.02-.16.02"/>
  </g>
  <polygon class="cls-1" points="11.47 4.05 11.26 5.05 11.05 4.05 10.78 4.05 10.76 5.48 10.96 5.48 10.97 4.49 11.18 5.48 11.34 5.48 11.54 4.49 11.56 5.48 11.76 5.48 11.73 4.05 11.47 4.05"/>
  <path class="cls-1" d="m11.92,5.48v-1.43h.41c.24,0,.37.14.37.41,0,.13-.03.23-.1.29s-.16.09-.28.09h-.13v.64h-.26Zm.26-.82h.08c.07,0,.12-.01.15-.04.03-.03.04-.08.04-.16,0-.04,0-.08,0-.1,0-.02-.01-.05-.02-.07-.01-.02-.03-.03-.06-.04-.02,0-.06-.01-.1-.01h-.08v.42Z"/>
  <polygon class="cls-1" points="12.68 4.05 12.68 4.24 12.92 4.24 12.92 5.48 13.18 5.48 13.18 4.24 13.41 4.24 13.41 4.05 12.68 4.05"/>
  <rect class="cls-1" x="13.48" y="4.05" width=".26" height="1.43"/>
  <path class="cls-1" d="m14.3,5.5c-.15,0-.25-.04-.32-.12-.06-.08-.1-.2-.1-.35v-.53c0-.08,0-.14.02-.2.01-.06.04-.1.07-.14.03-.04.07-.07.13-.09.05-.02.12-.03.19-.03.15,0,.25.04.32.12.06.08.1.19.1.35v.53c0,.08,0,.14-.02.2-.01.06-.04.11-.07.15-.03.04-.07.07-.13.1-.05.02-.12.03-.19.03m-.06-.21s.04.01.06.01.05,0,.07-.01c.02,0,.03-.02.04-.03.01-.01.02-.03.03-.05,0-.02,0-.04.01-.06,0-.02,0-.04,0-.07v-.65s0-.06,0-.09c0-.02-.01-.05-.02-.07-.01-.02-.03-.04-.04-.04-.02-.01-.05-.02-.08-.02s-.06,0-.08.02c-.02,0-.04.02-.04.04,0,.02-.02.04-.02.07,0,.02,0,.05,0,.09v.65s0,.05,0,.07c0,.02,0,.04.01.06,0,.02.01.04.02.05.01.01.03.02.04.03"/>
  <polygon class="cls-1" points="15.38 4.05 15.38 4.86 15.03 4.05 14.85 4.05 14.85 5.48 15.07 5.48 15.07 4.63 15.42 5.48 15.59 5.48 15.59 4.05 15.38 4.05"/>
  <path class="cls-1" d="m6.61,6.73l.1.59h-.19l.1-.59Zm-.14-.34l-.29,1.43h.25l.06-.33h.25l.06.33h.24l-.29-1.43h-.27Z"/>
  <polygon class="cls-1" points="7.65 6.39 7.65 7.2 7.3 6.39 7.12 6.39 7.12 7.82 7.34 7.82 7.34 6.97 7.7 7.82 7.87 7.82 7.87 6.39 7.65 6.39"/>
  <g>
    <path class="cls-1" d="m8.03,7.82v-1.43h.33c.09,0,.16,0,.22.03.06.02.11.04.14.08.04.04.06.08.08.14.01.05.02.12.02.2v.52c0,.08,0,.15-.02.21-.01.06-.04.11-.07.14-.04.04-.08.07-.14.09-.06.02-.13.03-.21.03h-.34Zm.26-.18h.07s.05,0,.07,0c.02,0,.04-.01.05-.02.01,0,.02-.02.03-.03,0-.01.02-.03.02-.04,0-.01,0-.03.01-.05,0-.03,0-.04,0-.06,0-.02,0-.04,0-.08v-.52s0-.06,0-.08c0-.02,0-.04,0-.06,0-.02-.01-.04-.02-.05,0-.01-.02-.02-.03-.03-.01,0-.03-.02-.05-.02-.02,0-.05,0-.07,0h-.07v1.06Z"/>
    <path class="cls-1" d="m9.33,7.82v-1.43h.41c.24,0,.37.14.37.41,0,.13-.03.23-.1.29s-.16.09-.28.09h-.13v.64h-.26Zm.26-.82h.08c.07,0,.12-.01.15-.04.03-.03.04-.08.04-.16,0-.04,0-.08,0-.1,0-.02-.01-.05-.02-.07-.01-.02-.03-.03-.06-.04-.02,0-.06-.01-.1-.01h-.08v.42Z"/>
    <path class="cls-1" d="m10.2,7.82v-1.43h.33c.08,0,.14,0,.2.02.05.01.1.03.14.06.04.03.07.07.09.12.02.05.03.11.03.18,0,.09-.01.16-.04.22-.03.06-.07.1-.13.12l.2.71h-.26l-.17-.65h-.12v.65h-.26Zm.26-.82h.06c.08,0,.13-.02.16-.05.03-.03.05-.09.05-.17s-.01-.13-.04-.16c-.03-.03-.08-.05-.15-.05h-.08v.43Z"/>
    <path class="cls-1" d="m11.51,7.84c-.15,0-.25-.04-.32-.12-.06-.08-.1-.2-.1-.35v-.53c0-.08,0-.14.02-.2.01-.06.04-.1.07-.14.03-.04.07-.07.13-.09.05-.02.12-.03.19-.03.15,0,.25.04.32.12.06.08.1.19.1.35v.53c0,.08,0,.14-.02.2-.01.06-.04.11-.07.15-.03.04-.07.07-.13.1-.05.02-.12.03-.19.03m-.06-.21s.04.01.06.01.05,0,.07-.01c.02,0,.03-.02.04-.03.01-.01.02-.03.03-.05,0-.02,0-.04.01-.06,0-.02,0-.04,0-.07v-.65s0-.06,0-.09c0-.02-.01-.05-.02-.07-.01-.02-.03-.04-.04-.04-.02-.01-.05-.02-.08-.02s-.06,0-.08.02c-.02,0-.04.02-.04.04,0,.02-.02.04-.02.07,0,.02,0,.05,0,.09v.65s0,.05,0,.07c0,.02,0,.04.01.06,0,.02.01.04.02.05.01.01.03.02.04.03"/>
    <path class="cls-1" d="m12.06,7.82v-1.43h.33c.09,0,.16,0,.22.03.06.02.11.04.14.08.04.04.06.08.08.14.01.05.02.12.02.2v.52c0,.08,0,.15-.02.21-.01.06-.04.11-.07.14-.04.04-.08.07-.14.09-.06.02-.13.03-.21.03h-.34Zm.26-.18h.07s.05,0,.07,0c.02,0,.04-.01.05-.02.01,0,.02-.02.03-.03,0-.01.02-.03.02-.04,0-.01,0-.03.01-.05,0-.03,0-.04,0-.06,0-.02,0-.04,0-.08v-.52s0-.06,0-.08c0-.02,0-.04,0-.06,0-.02-.01-.04-.02-.05,0-.01-.02-.02-.03-.03-.01,0-.03-.02-.05-.02-.02,0-.05,0-.07,0h-.07v1.06Z"/>
    <path class="cls-1" d="m13.38,7.84c-.06,0-.12,0-.17-.02-.05-.01-.09-.04-.12-.06-.03-.03-.05-.06-.07-.1-.02-.04-.03-.09-.04-.14,0-.05-.01-.11-.01-.17v-.95h.25v.98s0,.06,0,.09c0,.02,0,.05.01.07,0,.03.01.05.02.06.01.02.03.03.04.04.02.01.04.02.07.02s.05,0,.07-.02c.02,0,.03-.02.04-.04,0-.01.02-.04.02-.06s0-.05.01-.07c0-.02,0-.05,0-.09v-.98h.25v.95c0,.06,0,.12-.01.17s-.02.1-.04.14c-.02.04-.04.08-.07.1-.03.03-.07.05-.12.06s-.1.02-.16.02"/>
    <path class="cls-1" d="m14.32,7.84c-.06,0-.12,0-.16-.02-.05-.02-.09-.04-.12-.07-.03-.03-.06-.06-.07-.1-.02-.04-.03-.08-.04-.13,0-.05-.01-.1-.01-.16v-.5c0-.06,0-.12.01-.17,0-.05.02-.09.04-.13.02-.04.04-.07.07-.1.03-.03.07-.05.12-.06.05-.01.1-.02.16-.02.07,0,.13,0,.18.03.05.02.09.05.12.08.03.04.05.08.06.13.01.05.02.11.02.17v.12h-.25v-.12c0-.07,0-.12-.01-.14-.01-.05-.05-.07-.11-.08h-.01s-.04,0-.06,0c-.02,0-.03.01-.04.02-.01.01-.02.02-.03.04,0,.01-.01.03-.01.05,0,.02,0,.04,0,.06,0,.02,0,.04,0,.07v.61c0,.08,0,.14.03.18.02.04.06.05.11.05.02,0,.03,0,.05,0,.01,0,.03,0,.04-.02,0,0,.02-.02.02-.03,0-.01.01-.02.01-.03,0-.01,0-.03,0-.04s0-.04,0-.05,0-.03,0-.05v-.13h.25v.12c0,.05,0,.1-.01.14,0,.04-.02.08-.04.12-.02.04-.04.07-.07.09-.03.02-.07.04-.11.06-.04.01-.1.02-.16.02"/>
  </g>
  <polygon class="cls-1" points="14.73 6.39 14.73 6.58 14.97 6.58 14.97 7.82 15.23 7.82 15.23 6.58 15.47 6.58 15.47 6.39 14.73 6.39"/>
  <rect class="cls-1" x="15.53" y="6.39" width=".26" height="1.43"/>
  <path class="cls-1" d="m16.35,7.84c-.15,0-.25-.04-.32-.12-.06-.08-.1-.2-.1-.35v-.53c0-.08,0-.14.02-.2.01-.06.04-.1.07-.14.03-.04.07-.07.13-.09.05-.02.12-.03.19-.03.15,0,.25.04.32.12.06.08.1.19.1.35v.53c0,.08,0,.14-.02.2-.01.06-.04.11-.07.15-.03.04-.07.07-.13.1-.05.02-.12.03-.19.03m-.06-.21s.04.01.06.01.05,0,.07-.01c.02,0,.03-.02.04-.03.01-.01.02-.03.03-.05,0-.02,0-.04.01-.06,0-.02,0-.04,0-.07v-.65s0-.06,0-.09c0-.02-.01-.05-.02-.07-.01-.02-.03-.04-.04-.04-.02-.01-.05-.02-.08-.02s-.06,0-.08.02c-.02,0-.04.02-.05.04,0,.02-.02.04-.02.07,0,.02,0,.05,0,.09v.65s0,.05,0,.07c0,.02,0,.04.01.06,0,.02.01.04.02.05.01.01.03.02.04.03"/>
  <polygon class="cls-1" points="17.43 6.39 17.43 7.2 17.08 6.39 16.9 6.39 16.9 7.82 17.12 7.82 17.12 6.97 17.47 7.82 17.65 7.82 17.65 6.39 17.43 6.39"/>
  <path class="cls-1" d="m14.84,10.2c-.87-.69-2.03-.7-2.45-.6h-.05c-.49.13-1.26.32-2.17,1.44,0,0-.01.01-.02.02h-.01s-.01.04-.01.06c0,.01,0,.03,0,.04l.02.03c.11.19.26.44.38.66,0,0,0,0,0,0,.01.03.04.04.07.04.02,0,.04,0,.05-.02,0,0,.01-.01.02-.02.81-1.12,1.44-1.27,1.87-1.37h.05c.22-.06,1.07-.06,1.68.42.48.38.72.98.72,1.78,0,1.35-.66,1.88-1.21,2.08-.85.32-1.67-.11-1.68-.11l-.04-.02c-.47-.2-1.17-.63-1.83-1.95-1.33-2.67-2.44-2.92-3.18-3.09h-.04c-.33-.08-1.5-.14-2.41.59-.48.38-1.05,1.12-1.05,2.49,0,.83.17,1.38.61,1.96.1.13,1.08,1.4,2.98,1.03.31-.06.72-.2,1.17-.54l.42.38s.07.02.1,0c.01-.01.02-.03.02-.04h0s.3-1.86.3-1.86v-.02s0-.04-.02-.05c-.01-.01-.03-.02-.04-.02h-.01s-.02,0-.02,0l-1.78.5h-.03s-.02.01-.03.03c-.03.03-.02.07,0,.1l.02.02.4.36c-.26.17-.48.24-.65.28-1.38.26-2.06-.64-2.08-.68h0c-.32-.43-.43-.79-.43-1.43,0-.81.24-1.41.71-1.78.6-.47,1.42-.48,1.65-.42h.04c.6.15,1.43.33,2.57,2.62.59,1.19,1.33,1.96,2.26,2.37.12.06.68.33,1.42.33.31,0,.64-.05.99-.18.54-.2,1.79-.89,1.79-2.93,0-1.37-.58-2.11-1.06-2.49"/>
</svg>