<?xml version="1.0" encoding="UTF-8"?>
<svg id="Layer_1" data-name="Layer 1" xmlns="http://www.w3.org/2000/svg" viewBox="0 0 19.56 19.56">
  <defs>
    <style>
      .cls-1 {
        fill: #fff;
      }

      .cls-2 {
        fill: #c22034;
      }
    </style>
  </defs>
  <rect class="cls-2" width="19.56" height="19.56"/>
  <path class="cls-1" d="m2.63,4.57h-1.13v-.56l.98-2.29h.8v2.32h.37v.54h-.37v.89h-.65v-.89Zm0-.54v-1.59l-.57,1.59h.57Z"/>
  <g>
    <path class="cls-1" d="m5.87,3.43s-.09-.06-.14-.11c-.05-.05-.1-.11-.13-.16,0,0-.02,0-.03,0-.15,0-.25-.04-.32-.12s-.1-.2-.1-.35v-.53c0-.08,0-.14.02-.2.01-.06.04-.1.07-.14.03-.04.08-.07.13-.09.05-.02.12-.03.19-.03.15,0,.25.04.32.12s.1.19.1.35v.53c0,.22-.07.37-.2.43.06.07.1.11.14.14l-.05.18Zm-.37-.47s.04.01.06.01.05,0,.07-.01c.02,0,.03-.02.04-.03.01-.01.02-.03.03-.05,0-.02,0-.04.01-.06,0-.02,0-.04,0-.07v-.65s0-.06,0-.09c0-.02-.01-.05-.02-.07-.01-.02-.02-.04-.04-.04-.02-.01-.05-.02-.08-.02s-.06,0-.08.02c-.02,0-.04.02-.05.04,0,.02-.02.04-.02.07,0,.02,0,.05,0,.09v.65s0,.05,0,.07c0,.02,0,.04.01.06,0,.02.01.04.02.05.01.01.03.02.04.03"/>
    <path class="cls-1" d="m6.55,3.16c-.06,0-.12,0-.17-.02s-.09-.04-.12-.06c-.03-.03-.05-.06-.07-.1-.02-.04-.03-.09-.04-.14,0-.05-.01-.11-.01-.17v-.95h.25v.98s0,.06,0,.09c0,.02,0,.05.01.07,0,.03.01.05.02.06.01.02.03.03.04.04.02.01.04.02.07.02s.05,0,.07-.02c.02,0,.03-.02.04-.04,0-.01.02-.04.02-.06,0-.03.01-.05.01-.07,0-.02,0-.05,0-.09v-.98h.25v.95c0,.06,0,.12-.01.17,0,.05-.02.1-.04.14-.02.04-.04.08-.07.1-.03.03-.07.05-.12.06s-.1.02-.16.02"/>
  </g>
  <path class="cls-1" d="m7.5,2.05l.1.59h-.19l.1-.59Zm-.14-.34l-.29,1.43h.25l.06-.33h.25l.06.33h.24l-.29-1.43h-.27Z"/>
  <polygon class="cls-1" points="8.05 1.71 8.05 3.14 8.66 3.14 8.66 2.96 8.32 2.96 8.32 1.71 8.05 1.71"/>
  <rect class="cls-1" x="8.79" y="1.71" width=".26" height="1.43"/>
  <polygon class="cls-1" points="9.16 1.71 9.16 1.9 9.4 1.9 9.4 3.14 9.66 3.14 9.66 1.9 9.9 1.9 9.9 1.71 9.16 1.71"/>
  <polygon class="cls-1" points="10.5 1.71 10.33 2.28 10.16 1.71 9.91 1.71 10.2 2.59 10.2 3.14 10.45 3.14 10.45 2.59 10.74 1.71 10.5 1.71"/>
  <polygon class="cls-1" points="5.17 4.05 5.17 5.48 5.77 5.48 5.77 5.3 5.43 5.3 5.43 4.83 5.7 4.83 5.7 4.64 5.43 4.64 5.43 4.23 5.77 4.23 5.77 4.05 5.17 4.05"/>
  <g>
    <path class="cls-1" d="m5.92,5.48v-1.43h.33c.09,0,.16,0,.22.03.06.02.11.04.14.08s.06.08.08.14c.01.05.02.12.02.2v.52c0,.08,0,.15-.02.21-.02.06-.04.11-.07.14-.04.04-.08.07-.14.09-.06.02-.13.03-.21.03h-.34Zm.26-.18h.07s.05,0,.07,0c.02,0,.04-.01.05-.02.01,0,.02-.02.03-.03,0-.01.02-.03.02-.04,0-.01,0-.03.01-.05,0-.03,0-.04,0-.06,0-.02,0-.04,0-.08v-.52s0-.06,0-.08c0-.02,0-.04,0-.06,0-.02-.01-.04-.02-.05,0-.01-.02-.02-.03-.03-.01,0-.03-.02-.05-.02-.02,0-.05,0-.07,0h-.07v1.06Z"/>
    <path class="cls-1" d="m7.28,5.5c-.06,0-.12,0-.17-.02s-.09-.04-.12-.06c-.03-.03-.05-.06-.07-.1-.02-.04-.03-.09-.04-.14,0-.05-.01-.11-.01-.17v-.95h.25v.98s0,.06,0,.09c0,.02,0,.05.01.07,0,.03.01.05.02.06.01.02.03.03.04.04.02.01.04.02.07.02s.05,0,.07-.02c.02,0,.03-.02.04-.04,0-.01.02-.04.02-.06,0-.03.01-.05.01-.07,0-.02,0-.05,0-.09v-.98h.25v.95c0,.06,0,.12-.01.17,0,.05-.02.1-.04.14-.02.04-.04.08-.07.1-.03.03-.07.05-.12.06s-.1.02-.16.02"/>
    <path class="cls-1" d="m8.26,5.5c-.06,0-.12,0-.16-.02-.05-.02-.09-.04-.12-.07-.03-.03-.06-.06-.07-.1-.02-.04-.03-.08-.04-.13,0-.05-.01-.1-.01-.16v-.5c0-.06,0-.12.01-.17,0-.05.02-.09.04-.13.02-.04.04-.07.07-.1.03-.03.07-.05.12-.06.05-.01.1-.02.16-.02.07,0,.13,0,.18.03s.09.05.12.08c.03.04.05.08.06.13.01.05.02.11.02.17v.12h-.25v-.12c0-.07,0-.12-.01-.14-.02-.05-.05-.07-.11-.08h-.01s-.04,0-.06,0c-.02,0-.03.01-.04.02-.01.01-.02.02-.02.04,0,.01-.01.03-.01.05,0,.02,0,.04,0,.06,0,.02,0,.04,0,.07v.61c0,.08,0,.14.03.18.02.04.06.05.11.05.02,0,.03,0,.05,0,.01,0,.03,0,.04-.02,0,0,.02-.02.02-.03,0-.01.01-.02.02-.03,0-.01,0-.03,0-.04,0-.02,0-.04,0-.05s0-.03,0-.05v-.13h.25v.12c0,.05,0,.1-.01.14,0,.04-.02.08-.04.12-.02.04-.04.07-.07.09-.03.02-.07.04-.11.06-.04.01-.1.02-.16.02"/>
  </g>
  <path class="cls-1" d="m9.17,4.39l.1.59h-.19l.1-.59Zm-.14-.34l-.29,1.43h.25l.06-.33h.25l.06.33h.24l-.29-1.43h-.27Z"/>
  <polygon class="cls-1" points="9.58 4.05 9.58 4.24 9.82 4.24 9.82 5.48 10.08 5.48 10.08 4.24 10.31 4.24 10.31 4.05 9.58 4.05"/>
  <rect class="cls-1" x="10.42" y="4.05" width=".26" height="1.43"/>
  <path class="cls-1" d="m11.28,5.5c-.15,0-.25-.04-.32-.12-.06-.08-.1-.2-.1-.35v-.53c0-.08,0-.14.02-.2.01-.06.04-.1.07-.14.03-.04.08-.07.13-.09.05-.02.12-.03.19-.03.15,0,.25.04.32.12s.1.19.1.35v.53c0,.08,0,.14-.02.2-.02.06-.04.11-.07.15-.03.04-.08.07-.13.1-.05.02-.12.03-.19.03m-.06-.21s.04.01.06.01.05,0,.07-.01c.02,0,.03-.02.04-.03.01-.01.02-.03.03-.05,0-.02,0-.04.01-.06,0-.02,0-.04,0-.07v-.65s0-.06,0-.09c0-.02-.01-.05-.02-.07-.01-.02-.02-.04-.04-.04-.02,0-.05-.02-.08-.02s-.06,0-.08.02c-.02,0-.04.02-.04.04-.01.02-.02.04-.02.07,0,.02,0,.05,0,.09v.65s0,.05,0,.07c0,.02,0,.04.01.06,0,.02.01.04.02.05.01.01.03.02.04.03"/>
  <polygon class="cls-1" points="12.41 4.05 12.41 4.86 12.06 4.05 11.88 4.05 11.88 5.48 12.1 5.48 12.1 4.63 12.45 5.48 12.62 5.48 12.62 4.05 12.41 4.05"/>
  <polygon class="cls-1" points="8.71 10.54 5.17 8.5 5.17 15.11 8.71 16.18 8.71 10.54"/>
  <polygon class="cls-1" points="9.1 10.55 9.1 16.18 12.66 15.11 12.66 8.5 9.1 10.55"/>
  <polygon class="cls-1" points="15.34 9.11 15.23 9.11 15.12 9.11 14.92 9.11 14.81 9.11 14.71 9.11 14.6 9.11 14.6 14.99 14.71 14.99 14.61 14.99 15.02 16.46 15.44 14.99 15.34 14.99 15.44 14.99 15.44 9.11 15.34 9.11"/>
  <polygon class="cls-1" points="13.42 8.78 13.04 8.48 13.04 15.29 9.11 16.56 8.93 16.56 8.89 16.56 8.71 16.56 4.79 15.47 4.79 8.48 4.41 8.78 4.41 15.73 8.69 16.92 8.89 16.92 8.93 16.92 9.13 16.92 13.07 15.66 13.42 15.56 13.42 8.78"/>
  <path class="cls-1" d="m15.44,8.33c0-.23-.19-.42-.42-.42s-.42.19-.42.42v.45h.84v-.45Z"/>
</svg>