<?xml version="1.0" encoding="UTF-8"?>
<svg id="Layer_1" data-name="Layer 1" xmlns="http://www.w3.org/2000/svg" viewBox="0 0 19.56 19.56">
  <defs>
    <style>
      .cls-1 {
        fill: #01568a;
      }

      .cls-2 {
        fill: #fff;
      }
    </style>
  </defs>
  <rect class="cls-1" width="19.56" height="19.56"/>
  <g>
    <path class="cls-2" d="m1.69,2.45s-.13.06-.3.12c-.13.04-.21.07-.24.09v-.53c.11-.04.23-.1.38-.18.15-.08.26-.16.32-.23h.56v3.75h-.72v-3.01Z"/>
    <path class="cls-2" d="m3.04,5.18c-.17-.22-.25-.52-.25-.9v-1.33c0-.41.07-.72.22-.95.15-.22.41-.34.78-.34.33,0,.57.08.72.24.15.16.22.4.23.71v.07s-.68,0-.68,0c0-.17-.02-.29-.05-.36-.03-.07-.1-.1-.21-.1-.08,0-.14.02-.18.07-.04.05-.07.12-.09.23s-.03.26-.03.46v.38c.04-.07.11-.12.2-.16.09-.04.19-.06.3-.06.28,0,.48.1.6.29s.19.46.19.79c0,.41-.08.73-.23.96-.15.23-.41.34-.77.34-.34,0-.6-.11-.76-.33m.99-.35c.04-.1.06-.27.06-.49,0-.16,0-.28-.01-.36,0-.09-.04-.16-.08-.21-.04-.05-.11-.08-.19-.08-.06,0-.12.02-.17.05s-.09.07-.12.12v.6c0,.36.1.53.3.53.11,0,.18-.05.22-.16"/>
    <path class="cls-2" d="m6.28,3.14v-1.43h.41c.24,0,.37.14.37.41,0,.13-.03.23-.1.29-.07.06-.16.09-.28.09h-.13v.64h-.26Zm.26-.82h.08c.07,0,.12-.01.15-.04.03-.03.04-.08.04-.16,0-.04,0-.08,0-.1,0-.02-.01-.05-.02-.07-.01-.02-.03-.03-.06-.04-.02,0-.06-.01-.1-.01h-.08v.42Z"/>
  </g>
  <polygon class="cls-2" points="7.16 1.71 7.16 3.14 7.77 3.14 7.77 2.96 7.42 2.96 7.42 2.49 7.69 2.49 7.69 2.3 7.42 2.3 7.42 1.89 7.76 1.89 7.76 1.71 7.16 1.71"/>
  <path class="cls-2" d="m8.24,2.05l.1.59h-.19l.1-.59Zm-.14-.34l-.29,1.43h.25l.06-.33h.25l.06.33h.24l-.29-1.43h-.27Z"/>
  <path class="cls-2" d="m9.15,3.16c-.06,0-.12,0-.16-.02-.05-.02-.09-.04-.12-.07-.03-.03-.06-.06-.07-.1-.02-.04-.03-.08-.04-.13,0-.05-.01-.1-.01-.16v-.5c0-.06,0-.12.01-.17,0-.05.02-.09.04-.13.02-.04.04-.07.07-.1.03-.03.07-.05.12-.06.05-.01.1-.02.16-.02.07,0,.13,0,.18.03s.09.05.12.08c.03.04.05.08.06.13.01.05.02.11.02.17v.12h-.25v-.12c0-.07,0-.12-.01-.14-.02-.05-.05-.07-.11-.08h-.01s-.04,0-.06,0c-.02,0-.03.01-.04.02-.01.01-.02.02-.02.04,0,.01-.01.03-.01.05,0,.02,0,.04,0,.06,0,.02,0,.04,0,.07v.61c0,.08,0,.14.03.18.02.04.06.05.11.05.02,0,.03,0,.05,0,.01,0,.03,0,.04-.02,0,0,.02-.02.02-.03,0-.01.01-.02.02-.04,0,0,0-.02,0-.04,0-.02,0-.04,0-.05s0-.03,0-.05v-.13h.25v.12c0,.05,0,.1-.01.14,0,.04-.02.08-.04.12-.02.04-.04.07-.07.09-.03.02-.07.04-.11.06-.04.01-.1.02-.16.02"/>
  <polygon class="cls-2" points="9.68 1.71 9.68 3.14 10.29 3.14 10.29 2.96 9.94 2.96 9.94 2.49 10.21 2.49 10.21 2.3 9.94 2.3 9.94 1.89 10.28 1.89 10.28 1.71 9.68 1.71"/>
  <g>
    <path class="cls-2" d="m10.4,3.38l-.03-.09s.06-.03.08-.05c.02-.03.03-.06.03-.1h-.13v-.23h.24v.22c0,.15-.07.23-.2.26"/>
    <path class="cls-2" d="m11.04,3.17v-.18c.08,0,.13-.01.15-.03.02-.02.04-.07.04-.15v-1.1h.26v1.1c0,.06,0,.12-.02.16-.01.04-.03.08-.05.11-.03.03-.06.05-.1.07-.04.01-.1.02-.16.02h-.12Z"/>
    <path class="cls-2" d="m12.07,3.16c-.06,0-.12,0-.17-.02s-.09-.04-.12-.06c-.03-.03-.05-.06-.07-.1-.02-.04-.03-.09-.04-.14,0-.05-.01-.11-.01-.17v-.95h.25v.98s0,.06,0,.09c0,.02,0,.05.01.07,0,.03.01.05.02.06.01.02.03.03.04.04.02.01.04.02.07.02s.05,0,.07-.02c.02,0,.03-.02.04-.04,0-.01.02-.04.02-.06,0-.03.01-.05.01-.07,0-.02,0-.05,0-.09v-.98h.25v.95c0,.06,0,.12-.01.17,0,.05-.02.1-.04.14-.02.04-.04.08-.07.1-.03.03-.07.05-.12.06s-.1.02-.16.02"/>
    <path class="cls-2" d="m13,3.16c-.25,0-.39-.15-.4-.44l.23-.05c0,.19.06.28.16.28.04,0,.07-.01.09-.04.02-.02.03-.06.03-.1s0-.08-.02-.11c-.01-.03-.03-.06-.05-.08-.02-.02-.05-.05-.08-.08l-.19-.16c-.05-.05-.1-.1-.12-.15s-.04-.12-.04-.2c0-.11.03-.2.1-.26.07-.06.15-.09.27-.09.05,0,.1,0,.14.02.04.01.07.03.1.05.03.02.05.05.07.09.02.03.03.07.04.11,0,.04.02.08.02.12l-.22.04s0-.05,0-.07c0-.02,0-.04-.01-.07,0-.02-.01-.04-.02-.05-.01-.01-.02-.02-.04-.03-.02,0-.04-.01-.06,0-.04,0-.07.01-.09.04-.02.02-.03.05-.03.09,0,.05,0,.08.03.11.02.03.05.06.08.1l.19.16s.06.06.08.08c.02.03.04.06.07.09.02.03.04.07.05.11.01.04.02.08.02.13,0,.1-.03.19-.1.25-.07.07-.15.1-.26.1"/>
  </g>
  <polygon class="cls-2" points="13.37 1.71 13.37 1.9 13.61 1.9 13.61 3.14 13.87 3.14 13.87 1.9 14.1 1.9 14.1 1.71 13.37 1.71"/>
  <rect class="cls-2" x="14.19" y="1.71" width=".26" height="1.43"/>
  <path class="cls-2" d="m15.02,3.16c-.06,0-.12,0-.16-.02-.05-.02-.09-.04-.12-.07-.03-.03-.06-.06-.07-.1-.02-.04-.03-.08-.04-.13,0-.05-.01-.1-.01-.16v-.5c0-.06,0-.12.01-.17,0-.05.02-.09.04-.13.02-.04.04-.07.07-.1.03-.03.07-.05.12-.06.05-.01.1-.02.16-.02.07,0,.13,0,.18.03s.09.05.12.08c.03.04.05.08.06.13.01.05.02.11.02.17v.12h-.25v-.12c0-.07,0-.12-.01-.14-.02-.05-.05-.07-.11-.08h-.01s-.04,0-.06,0c-.02,0-.03.01-.04.02-.01.01-.02.02-.02.04,0,.01-.01.03-.01.05,0,.02,0,.04,0,.06,0,.02,0,.04,0,.07v.61c0,.08,0,.14.03.18.02.04.06.05.11.05.02,0,.03,0,.05,0,.01,0,.03,0,.04-.02,0,0,.02-.02.02-.03,0-.01.01-.02.02-.04,0,0,0-.02,0-.04,0-.02,0-.04,0-.05s0-.03,0-.05v-.13h.25v.12c0,.05,0,.1-.01.14,0,.04-.02.08-.04.12-.02.04-.04.07-.07.09-.03.02-.07.04-.11.06-.04.01-.1.02-.16.02"/>
  <polygon class="cls-2" points="15.55 1.71 15.55 3.14 16.15 3.14 16.15 2.96 15.81 2.96 15.81 2.49 16.08 2.49 16.08 2.3 15.81 2.3 15.81 1.89 16.15 1.89 16.15 1.71 15.55 1.71"/>
  <path class="cls-2" d="m6.63,4.39l.1.59h-.19l.1-.59Zm-.14-.34l-.29,1.43h.25l.06-.33h.25l.06.33h.24l-.29-1.43h-.27Z"/>
  <polygon class="cls-2" points="7.7 4.05 7.7 4.86 7.34 4.05 7.16 4.05 7.16 5.48 7.39 5.48 7.39 4.63 7.74 5.48 7.91 5.48 7.91 4.05 7.7 4.05"/>
  <g>
    <path class="cls-2" d="m8.09,5.48v-1.43h.33c.09,0,.16,0,.22.03.06.02.11.04.14.08s.06.08.08.14c.01.05.02.12.02.2v.52c0,.08,0,.15-.02.21-.02.06-.04.11-.07.14-.04.04-.08.07-.14.09-.06.02-.13.03-.21.03h-.34Zm.26-.18h.07s.05,0,.07,0c.02,0,.04-.01.05-.02.01,0,.02-.02.03-.03,0-.01.02-.03.02-.04,0-.01,0-.03.01-.05,0-.03,0-.04,0-.06,0-.02,0-.04,0-.08v-.52s0-.06,0-.08c0-.02,0-.04,0-.06,0-.02-.01-.04-.02-.05,0-.01-.02-.02-.03-.03-.01,0-.03-.02-.05-.02-.02,0-.05,0-.07,0h-.07v1.06Z"/>
    <path class="cls-2" d="m9.79,5.5c-.25,0-.39-.15-.4-.44l.23-.05c0,.19.06.28.16.28.04,0,.07-.01.09-.04.02-.02.03-.06.03-.1s0-.08-.02-.11c-.01-.03-.03-.06-.05-.08-.02-.02-.05-.05-.08-.08l-.19-.16c-.05-.05-.1-.1-.12-.15s-.04-.12-.04-.2c0-.11.03-.2.1-.26.07-.06.15-.09.27-.09.05,0,.1,0,.14.02.04.01.07.03.1.05.03.02.05.05.07.09.02.03.03.07.04.11,0,.04.02.08.02.12l-.22.04s0-.05,0-.07c0-.02,0-.04-.01-.07,0-.02-.01-.04-.02-.05-.01-.01-.02-.02-.04-.03-.02,0-.04-.01-.06,0-.04,0-.07.01-.09.04-.02.02-.03.05-.03.09,0,.05,0,.08.03.11.02.03.05.06.08.1l.19.16s.06.06.08.08c.02.03.04.06.07.09.02.03.04.07.05.11.01.04.02.08.02.13,0,.1-.03.19-.1.25-.07.07-.15.1-.26.1"/>
  </g>
  <polygon class="cls-2" points="10.17 4.05 10.17 4.24 10.41 4.24 10.41 5.48 10.67 5.48 10.67 4.24 10.9 4.24 10.9 4.05 10.17 4.05"/>
  <g>
    <path class="cls-2" d="m10.98,5.48v-1.43h.33c.08,0,.14,0,.2.02.05.01.1.03.14.06.04.03.07.07.09.12.02.05.03.11.03.18,0,.09-.01.16-.04.22-.03.06-.07.1-.13.12l.2.71h-.26l-.17-.65h-.12v.65h-.26Zm.26-.82h.06c.08,0,.13-.02.16-.05.03-.03.05-.09.05-.17s-.01-.13-.04-.16c-.03-.03-.08-.05-.15-.05h-.08v.43Z"/>
    <path class="cls-2" d="m12.31,5.5c-.15,0-.25-.04-.32-.12-.06-.08-.1-.2-.1-.35v-.53c0-.08,0-.14.02-.2.01-.06.04-.1.07-.14.03-.04.08-.07.13-.09.05-.02.12-.03.19-.03.15,0,.25.04.32.12s.1.19.1.35v.53c0,.08,0,.14-.02.2-.02.06-.04.11-.07.15-.03.04-.07.07-.13.1-.05.02-.12.03-.19.03m-.06-.21s.04.01.06.01.05,0,.07-.01c.02,0,.03-.02.04-.03.01-.01.02-.03.03-.05,0-.02,0-.04.01-.06,0-.02,0-.04,0-.07v-.65s0-.06,0-.09c0-.02-.01-.05-.02-.07-.01-.02-.02-.04-.04-.04-.02-.01-.05-.02-.08-.02s-.06,0-.08.02c-.02,0-.04.02-.04.04-.01.02-.02.04-.02.07,0,.02,0,.05,0,.09v.65s0,.05,0,.07c0,.02,0,.04.01.06,0,.02.01.04.02.05.01.01.03.02.04.03"/>
  </g>
  <polygon class="cls-2" points="13.41 4.05 13.41 4.86 13.06 4.05 12.88 4.05 12.88 5.48 13.1 5.48 13.1 4.63 13.46 5.48 13.63 5.48 13.63 4.05 13.41 4.05"/>
  <path class="cls-2" d="m14.17,5.5c-.14,0-.23-.04-.29-.13-.06-.08-.09-.21-.09-.37v-.47c0-.08,0-.15.02-.21.01-.06.03-.11.07-.16.03-.04.07-.08.13-.1.05-.02.12-.03.2-.03.14,0,.24.03.31.1.06.07.09.17.09.32v.07h-.25v-.07s0-.06,0-.08c0-.02,0-.04-.01-.06,0-.02-.01-.04-.02-.05-.01-.01-.02-.02-.04-.03-.02,0-.04-.01-.07-.01-.02,0-.04,0-.05,0-.02,0-.03.01-.04.02-.01,0-.02.02-.03.03,0,.01-.01.03-.02.04,0,.01,0,.03,0,.05,0,.02,0,.04,0,.05v.64c0,.09,0,.15.03.19.02.04.06.06.12.06.03,0,.06,0,.08-.02.02-.01.04-.03.05-.05.01-.02.02-.05.03-.08,0-.03,0-.07,0-.11v-.12h-.15v-.17h.39v.73h-.17l-.02-.14c-.04.11-.12.16-.24.16"/>
  <rect class="cls-2" x="6.29" y="6.39" width=".26" height="1.43"/>
  <polygon class="cls-2" points="7.26 6.39 7.26 7.2 6.91 6.39 6.73 6.39 6.73 7.82 6.95 7.82 6.95 6.97 7.31 7.82 7.48 7.82 7.48 6.39 7.26 6.39"/>
  <path class="cls-2" d="m8.02,7.84c-.25,0-.39-.15-.4-.44l.23-.05c0,.19.06.28.16.28.04,0,.07-.01.09-.04.02-.02.03-.06.03-.1s0-.08-.02-.11c-.01-.03-.03-.06-.05-.08-.02-.02-.05-.05-.08-.08l-.19-.16c-.05-.05-.1-.1-.12-.15s-.04-.12-.04-.2c0-.11.03-.2.1-.26.07-.06.15-.09.27-.09.05,0,.1,0,.14.02.04.01.07.03.1.05.03.02.05.05.07.09.02.03.03.07.04.11,0,.04.02.08.02.12l-.22.04s0-.05,0-.07c0-.02,0-.04-.01-.07,0-.02-.01-.04-.02-.05-.01-.01-.02-.02-.04-.03-.02,0-.04-.01-.06,0-.04,0-.07.01-.09.04-.02.02-.03.05-.03.09,0,.05,0,.08.03.11.02.03.05.06.08.1l.19.16s.06.06.08.08c.02.03.04.06.07.09.02.03.04.07.05.11.01.04.02.08.02.13,0,.1-.03.19-.1.25-.07.07-.15.1-.26.1"/>
  <polygon class="cls-2" points="8.39 6.39 8.39 6.58 8.63 6.58 8.63 7.82 8.89 7.82 8.89 6.58 9.13 6.58 9.13 6.39 8.39 6.39"/>
  <rect class="cls-2" x="9.21" y="6.39" width=".26" height="1.43"/>
  <polygon class="cls-2" points="9.55 6.39 9.55 6.58 9.79 6.58 9.79 7.82 10.05 7.82 10.05 6.58 10.29 6.58 10.29 6.39 9.55 6.39"/>
  <path class="cls-2" d="m10.76,7.84c-.06,0-.12,0-.17-.02s-.09-.04-.12-.06c-.03-.03-.05-.06-.07-.1-.02-.04-.03-.09-.04-.14,0-.05-.01-.11-.01-.17v-.95h.25v.98s0,.06,0,.09c0,.02,0,.05.01.07,0,.03.01.05.02.06.01.02.03.03.04.04.02.01.04.02.07.02s.05,0,.07-.02c.02,0,.03-.02.04-.04,0-.01.02-.04.02-.06,0-.03.01-.05.01-.07,0-.02,0-.05,0-.09v-.98h.25v.95c0,.06,0,.12-.01.17,0,.05-.02.1-.04.14-.02.04-.04.08-.07.1-.03.03-.07.05-.12.06s-.1.02-.16.02"/>
  <polygon class="cls-2" points="11.23 6.39 11.23 6.58 11.47 6.58 11.47 7.82 11.73 7.82 11.73 6.58 11.96 6.58 11.96 6.39 11.23 6.39"/>
  <rect class="cls-2" x="12.05" y="6.39" width=".26" height="1.43"/>
  <path class="cls-2" d="m12.88,7.84c-.15,0-.25-.04-.32-.12-.06-.08-.1-.2-.1-.35v-.53c0-.08,0-.14.02-.2.01-.06.04-.1.07-.14.03-.04.08-.07.13-.09.05-.02.12-.03.19-.03.15,0,.25.04.32.12s.1.19.1.35v.53c0,.08,0,.14-.02.2-.02.06-.04.11-.07.15-.03.04-.07.07-.13.1-.05.02-.12.03-.19.03m-.06-.21s.04.01.06.01.05,0,.07-.01c.02,0,.03-.02.04-.03.01-.01.02-.03.03-.05,0-.02,0-.04.01-.06,0-.02,0-.04,0-.07v-.65s0-.06,0-.09c0-.02,0-.05-.02-.07-.01-.02-.02-.04-.04-.04-.02-.01-.05-.02-.08-.02s-.06,0-.08.02c-.02,0-.04.02-.04.04-.01.02-.02.04-.02.07,0,.02,0,.05,0,.09v.65s0,.05,0,.07c0,.02,0,.04.01.06,0,.02.01.04.02.05.01.01.03.02.04.03"/>
  <polygon class="cls-2" points="13.98 6.39 13.98 7.2 13.63 6.39 13.45 6.39 13.45 7.82 13.67 7.82 13.67 6.97 14.02 7.82 14.19 7.82 14.19 6.39 13.98 6.39"/>
  <g>
    <path class="cls-2" d="m14.73,7.84c-.25,0-.39-.15-.4-.44l.23-.05c0,.19.06.28.16.28.04,0,.07-.01.09-.04.02-.02.03-.06.03-.1s0-.08-.02-.11c-.01-.03-.03-.06-.05-.08-.02-.02-.05-.05-.08-.08l-.19-.16c-.06-.05-.1-.1-.12-.15s-.04-.12-.04-.2c0-.11.03-.2.1-.26.07-.06.15-.09.27-.09.05,0,.1,0,.14.02.04.01.07.03.1.05.03.02.05.05.07.09.02.03.03.07.04.11,0,.04.02.08.02.12l-.22.04s0-.05,0-.07c0-.02,0-.04-.01-.07,0-.02-.01-.04-.02-.05-.01-.01-.02-.02-.04-.03-.02,0-.04-.01-.06,0-.04,0-.07.01-.09.04-.02.02-.03.05-.03.09,0,.05,0,.08.03.11.02.03.05.06.08.1l.19.16s.06.06.08.08c.02.03.04.06.07.09.02.03.04.07.05.11.01.04.02.08.02.13,0,.1-.03.19-.1.25-.07.07-.15.1-.26.1"/>
    <path class="cls-2" d="m13.06,8.72s-.19.26-.14.5c.06.25.34.4.34.4,0,0,.19-.25.14-.5-.06-.25-.34-.4-.34-.4"/>
    <path class="cls-2" d="m12.75,10.17s.19-.25.14-.5-.34-.4-.34-.4c0,0-.19.25-.14.5s.34.4.34.4"/>
    <path class="cls-2" d="m13.54,9.9s.2.2.43.18c.23-.02.4-.26.4-.26,0,0-.2-.2-.43-.18-.23.02-.4.26-.4.26"/>
    <path class="cls-2" d="m13.87,8.81c-.19.19-.16.53-.16.53,0,0,.33.03.52-.16.19-.19.16-.53.16-.53,0,0-.33-.03-.52.16"/>
    <path class="cls-2" d="m13.45,10.66c.23.03.45-.17.45-.17,0,0-.16-.24-.39-.27-.23-.03-.45.17-.45.17,0,0,.16.24.39.27"/>
    <path class="cls-2" d="m13.66,14.35h-1.72c-.13,0-.24.11-.24.24s.11.24.24.24h1.72c.13,0,.24-.11.24-.24s-.11-.24-.24-.24"/>
    <path class="cls-2" d="m13.66,17.03h-1.72c-.13,0-.24.11-.24.24s.11.24.24.24h1.72c.13,0,.24-.11.24-.24s-.11-.24-.24-.24"/>
    <path class="cls-2" d="m5.94,13.76s-.08-.02-.12-.03c0,0,.04.01.12.03"/>
    <path class="cls-2" d="m13.6,15h-1.59c-.08,0-.14.06-.14.14v.48l-1.04.11-1.52-.04v-.93c.2-.03.4-.07.6-.12,1.46-.41,1.78-1.32,1.75-2.16-.03-.85.24-1.18.63-1.33.11-.04.22-.07.32-.09,0,.21.05.45.14.74.03,0,.07,0,.1,0-.1-.3-.14-.54-.14-.75.2-.02.35-.01.35-.01,0,0-.14-.07-.33-.24.07-.4.3-.65.55-.9.14-.14.28-.28.39-.45l-.09-.06c-.1.16-.24.3-.37.44-.24.25-.48.5-.57.9-.08-.07-.16-.15-.25-.25-.36-.4-.82-.11-1.48.51-.66.62-1.49.64-2.3-.19-1.07-1.1-2.01-1.09-2.65-1.03.44.19.59.6.81,1.64.23,1.09.82,1.59,1.62,1.66-.37.06-.47.11-1.07.52-.47.32-1.12.22-1.39.16.49.15,1.07.67,1.59.84.3.1.62.17.95.19v.89l-2.88-.06v.62l5.24-.12,1.04.11v.48c0,.08.06.14.14.14h1.59c.08,0,.14-.06.14-.14v-1.58c0-.08-.06-.14-.14-.14m-4.88-.19c.11,0,.23,0,.34,0v.9h-.34v-.89Z"/>
    <path class="cls-2" d="m5.44,16.14c0,.13-.09.24-.2.24h-.12c-.11,0-.2-.11-.2-.24v-.43c0-.13.09-.24.2-.24h.12c.11,0,.2.1.2.24v.43Z"/>
  </g>
</svg>