<?xml version="1.0" encoding="UTF-8"?>
<svg id="Layer_1" data-name="Layer 1" xmlns="http://www.w3.org/2000/svg" viewBox="0 0 19.56 19.56">
  <defs>
    <style>
      .cls-1 {
        fill: #fff;
      }

      .cls-2 {
        fill: #901939;
      }
    </style>
  </defs>
  <rect class="cls-2" width="19.56" height="19.56"/>
  <g>
    <path class="cls-1" d="m1.54,4.37c0-.21.04-.39.11-.55.07-.15.18-.27.33-.34-.11-.08-.21-.19-.28-.34-.07-.14-.11-.31-.11-.51,0-.31.08-.55.24-.72.16-.17.4-.26.7-.26s.54.09.7.25c.16.17.24.41.24.71,0,.21-.03.39-.1.53-.07.14-.16.25-.27.33.15.07.25.19.33.35.07.16.11.35.11.57,0,.35-.08.62-.24.81-.16.19-.42.29-.76.29-.67,0-1-.38-1-1.14m1.25.44c.04-.11.06-.25.06-.41,0-.18-.02-.33-.06-.44-.04-.11-.12-.16-.24-.16s-.2.05-.24.16c-.04.11-.06.26-.06.44,0,.17.02.3.06.41.04.11.12.16.24.16s.2-.05.24-.16m.02-2.18c0-.14-.02-.24-.07-.32-.04-.08-.11-.12-.2-.12s-.16.04-.2.12c-.05.08-.07.19-.07.32,0,.39.09.58.27.58s.26-.19.26-.58"/>
    <path class="cls-1" d="m4.95,3.14v-1.43h.33c.09,0,.16,0,.22.03.06.02.11.04.14.08.04.04.06.08.08.14.01.05.02.12.02.2v.52c0,.08,0,.15-.02.21-.01.06-.04.11-.07.14-.04.04-.08.07-.14.09-.06.02-.13.03-.21.03h-.34Zm.26-.18h.07s.05,0,.07,0c.02,0,.04-.01.05-.02.01,0,.02-.02.03-.03,0-.01.02-.03.02-.04,0-.01,0-.03.01-.05,0-.03,0-.04,0-.06,0-.02,0-.04,0-.08v-.52s0-.06,0-.08c0-.02,0-.04,0-.06,0-.02-.01-.04-.02-.05,0-.01-.02-.02-.03-.03-.01-.01-.03-.02-.05-.02-.02,0-.05,0-.07,0h-.07v1.06Z"/>
  </g>
  <polygon class="cls-1" points="5.89 1.71 5.89 3.14 6.49 3.14 6.49 2.96 6.15 2.96 6.15 2.49 6.41 2.49 6.41 2.3 6.15 2.3 6.15 1.89 6.49 1.89 6.49 1.71 5.89 1.71"/>
  <path class="cls-1" d="m6.98,3.16c-.06,0-.12,0-.16-.02-.05-.02-.09-.04-.12-.07-.03-.03-.06-.06-.07-.1-.02-.04-.03-.08-.04-.13,0-.05-.01-.1-.01-.16v-.5c0-.06,0-.12.01-.17,0-.05.02-.09.04-.13.02-.04.04-.07.07-.1.03-.03.07-.05.12-.06.05-.01.1-.02.16-.02.07,0,.13,0,.18.03.05.02.09.05.12.08.03.04.05.08.06.13.01.05.02.11.02.17v.12h-.25v-.12c0-.07,0-.12-.01-.14-.01-.05-.05-.07-.11-.08h-.01s-.04,0-.06,0c-.02,0-.03.01-.04.02-.01.01-.02.02-.03.04,0,.01-.01.03-.01.05,0,.02,0,.04,0,.06,0,.02,0,.04,0,.07v.61c0,.08,0,.14.03.18.02.04.06.05.11.05.02,0,.03,0,.05,0,.01,0,.03,0,.04-.02,0,0,.02-.02.02-.03,0-.01.01-.02.01-.03,0-.01,0-.03,0-.04s0-.04,0-.05,0-.03,0-.05v-.13h.25v.12c0,.05,0,.1-.01.14,0,.04-.02.08-.04.12-.02.04-.04.07-.07.09-.03.02-.07.04-.11.06-.04.01-.1.02-.16.02"/>
  <polygon class="cls-1" points="7.5 1.71 7.5 3.14 8.1 3.14 8.1 2.96 7.76 2.96 7.76 2.49 8.03 2.49 8.03 2.3 7.76 2.3 7.76 1.89 8.1 1.89 8.1 1.71 7.5 1.71"/>
  <polygon class="cls-1" points="8.74 1.71 8.74 2.52 8.39 1.71 8.21 1.71 8.21 3.14 8.43 3.14 8.43 2.29 8.78 3.14 8.95 3.14 8.95 1.71 8.74 1.71"/>
  <polygon class="cls-1" points="9.02 1.71 9.02 1.9 9.26 1.9 9.26 3.14 9.52 3.14 9.52 1.9 9.76 1.9 9.76 1.71 9.02 1.71"/>
  <polygon class="cls-1" points="10.36 3.14 10.16 1.71 10.38 1.71 10.5 2.63 10.65 1.71 10.82 1.71 10.98 2.63 11.1 1.71 11.31 1.71 11.11 3.14 10.9 3.14 10.74 2.18 10.58 3.14 10.36 3.14"/>
  <g>
    <path class="cls-1" d="m11.81,3.16c-.15,0-.25-.04-.32-.12-.06-.08-.1-.2-.1-.35v-.53c0-.08,0-.14.02-.2.01-.06.04-.1.07-.14.03-.04.07-.07.13-.09.05-.02.12-.03.19-.03.15,0,.25.04.32.12.06.08.1.19.1.35v.53c0,.08,0,.14-.02.2-.01.06-.04.11-.07.15-.03.04-.07.07-.13.1-.05.02-.12.03-.19.03m-.06-.21s.04.01.06.01.05,0,.07-.01c.02,0,.03-.02.04-.03.01-.01.02-.03.03-.05,0-.02,0-.04.01-.06,0-.02,0-.04,0-.07v-.65s0-.06,0-.09c0-.02-.01-.05-.02-.07-.01-.02-.03-.04-.05-.04-.02-.01-.05-.02-.08-.02s-.06,0-.08.02c-.02,0-.04.02-.05.04,0,.02-.02.04-.02.07,0,.02,0,.05,0,.09v.65s0,.05,0,.07c0,.02,0,.04.01.06,0,.02.01.04.02.05.01.01.03.02.04.03"/>
    <path class="cls-1" d="m12.37,3.14v-1.43h.33c.08,0,.14,0,.2.02.05.01.1.03.14.06.04.03.07.07.09.12.02.05.03.11.03.18,0,.09-.01.16-.04.22-.03.06-.07.1-.13.12l.2.71h-.26l-.17-.65h-.12v.65h-.26Zm.26-.82h.06c.08,0,.13-.02.17-.05.03-.03.05-.09.05-.17s-.01-.13-.04-.16c-.03-.03-.08-.05-.15-.05h-.08v.43Z"/>
  </g>
  <polygon class="cls-1" points="13.85 1.71 13.56 2.33 13.56 1.71 13.3 1.71 13.3 3.14 13.56 3.14 13.56 2.56 13.62 2.47 13.86 3.14 14.12 3.14 13.82 2.35 14.1 1.71 13.85 1.71"/>
  <path class="cls-1" d="m14.94,2.05l.1.59h-.19l.1-.59Zm-.14-.34l-.29,1.43h.25l.06-.33h.25l.06.33h.24l-.29-1.43h-.27Z"/>
  <polygon class="cls-1" points="15.98 1.71 15.98 2.52 15.63 1.71 15.45 1.71 15.45 3.14 15.68 3.14 15.68 2.29 16.03 3.14 16.2 3.14 16.2 1.71 15.98 1.71"/>
  <path class="cls-1" d="m16.37,3.14v-1.43h.33c.09,0,.16,0,.22.03.06.02.11.04.14.08.04.04.06.08.08.14.01.05.02.12.02.2v.52c0,.08,0,.15-.02.21-.01.06-.04.11-.07.14-.03.04-.08.07-.14.09-.06.02-.13.03-.21.03h-.34Zm.26-.18h.07s.05,0,.07,0c.02,0,.04-.01.05-.02.01,0,.02-.02.03-.03,0-.01.02-.03.02-.04,0-.01,0-.03.01-.05,0-.03,0-.04,0-.06,0-.02,0-.04,0-.08v-.52s0-.06,0-.08c0-.02,0-.04,0-.06,0-.02-.01-.04-.02-.05,0-.01-.02-.02-.03-.03-.01-.01-.03-.02-.05-.02-.02,0-.05,0-.07,0h-.07v1.06Z"/>
  <polygon class="cls-1" points="4.95 4.05 4.95 5.48 5.56 5.48 5.56 5.3 5.21 5.3 5.21 4.83 5.48 4.83 5.48 4.64 5.21 4.64 5.21 4.23 5.55 4.23 5.55 4.05 4.95 4.05"/>
  <g>
    <path class="cls-1" d="m6.06,5.5c-.06,0-.12,0-.16-.02-.05-.02-.09-.04-.12-.07-.03-.03-.06-.06-.07-.1-.02-.04-.03-.08-.04-.13,0-.05-.01-.1-.01-.16v-.5c0-.06,0-.12.01-.17,0-.05.02-.09.04-.13.02-.04.04-.07.07-.1.03-.03.07-.05.12-.06.05-.01.1-.02.16-.02.07,0,.13,0,.18.03.05.02.09.05.12.08.03.04.05.08.06.13.01.05.02.11.02.17v.12h-.25v-.12c0-.07,0-.12-.01-.14-.01-.05-.05-.07-.11-.08h-.01s-.04,0-.06,0c-.02,0-.03.01-.04.02-.01.01-.02.02-.03.04,0,.01-.01.03-.01.05,0,.02,0,.04,0,.06,0,.02,0,.04,0,.07v.61c0,.08,0,.14.03.18.02.04.06.05.11.05.02,0,.03,0,.05,0,.01,0,.03,0,.04-.02,0,0,.02-.02.02-.03,0-.01.01-.02.01-.03,0-.01,0-.03,0-.04s0-.04,0-.05,0-.03,0-.05v-.13h.25v.12c0,.05,0,.1-.01.14,0,.04-.02.08-.04.12-.02.04-.04.07-.07.09-.03.02-.07.04-.11.06-.04.01-.1.02-.16.02"/>
    <path class="cls-1" d="m6.98,5.5c-.15,0-.25-.04-.32-.12-.06-.08-.1-.2-.1-.35v-.53c0-.08,0-.14.02-.2.01-.06.04-.1.07-.14.03-.04.07-.07.13-.09.05-.02.12-.03.19-.03.15,0,.25.04.32.12.06.08.1.19.1.35v.53c0,.08,0,.14-.02.2-.01.06-.04.11-.07.15-.03.04-.07.07-.13.1-.05.02-.12.03-.19.03m-.06-.21s.04.01.06.01.05,0,.07-.01c.02,0,.03-.02.04-.03.01-.01.02-.03.03-.05,0-.02,0-.04.01-.06,0-.02,0-.04,0-.07v-.65s0-.06,0-.09c0-.02-.01-.05-.02-.07-.01-.02-.03-.04-.05-.04-.02-.01-.05-.02-.08-.02s-.06,0-.08.02c-.02,0-.04.02-.05.04,0,.02-.02.04-.02.07,0,.02,0,.05,0,.09v.65s0,.05,0,.07c0,.02,0,.04.01.06,0,.02.01.04.02.05.01.01.03.02.04.03"/>
  </g>
  <polygon class="cls-1" points="8.08 4.05 8.08 4.86 7.73 4.05 7.55 4.05 7.55 5.48 7.77 5.48 7.77 4.63 8.12 5.48 8.29 5.48 8.29 4.05 8.08 4.05"/>
  <path class="cls-1" d="m8.86,5.5c-.15,0-.25-.04-.32-.12-.06-.08-.1-.2-.1-.35v-.53c0-.08,0-.14.02-.2.01-.06.04-.1.07-.14.03-.04.07-.07.13-.09.05-.02.12-.03.19-.03.15,0,.25.04.32.12.06.08.1.19.1.35v.53c0,.08,0,.14-.02.2-.01.06-.04.11-.07.15-.03.04-.07.07-.13.1-.05.02-.12.03-.19.03m-.06-.21s.04.01.06.01.05,0,.07-.01c.02,0,.03-.02.04-.03.01-.01.02-.03.03-.05,0-.02,0-.04.01-.06,0-.02,0-.04,0-.07v-.65s0-.06,0-.09c0-.02-.01-.05-.02-.07-.01-.02-.03-.04-.04-.04-.02-.01-.05-.02-.08-.02s-.06,0-.08.02c-.02,0-.04.02-.05.04,0,.02-.02.04-.02.07,0,.02,0,.05,0,.09v.65s0,.05,0,.07c0,.02,0,.04.01.06,0,.02.01.04.02.05.01.01.03.02.04.03"/>
  <polygon class="cls-1" points="10.14 4.05 9.93 5.05 9.72 4.05 9.45 4.05 9.43 5.48 9.63 5.48 9.64 4.49 9.85 5.48 10 5.48 10.21 4.49 10.23 5.48 10.42 5.48 10.4 4.05 10.14 4.05"/>
  <rect class="cls-1" x="10.61" y="4.05" width=".26" height="1.43"/>
  <g>
    <path class="cls-1" d="m11.43,5.5c-.06,0-.12,0-.16-.02-.05-.02-.09-.04-.12-.07-.03-.03-.06-.06-.07-.1-.02-.04-.03-.08-.04-.13,0-.05-.01-.1-.01-.16v-.5c0-.06,0-.12.01-.17,0-.05.02-.09.04-.13.02-.04.04-.07.07-.1.03-.03.07-.05.12-.06.05-.01.1-.02.16-.02.07,0,.13,0,.18.03.05.02.09.05.12.08.03.04.05.08.06.13.01.05.02.11.02.17v.12h-.25v-.12c0-.07,0-.12-.01-.14-.01-.05-.05-.07-.11-.08h-.01s-.04,0-.06,0c-.02,0-.03.01-.04.02-.01.01-.02.02-.03.04,0,.01-.01.03-.01.05,0,.02,0,.04,0,.06,0,.02,0,.04,0,.07v.61c0,.08,0,.14.03.18.02.04.06.05.11.05.02,0,.03,0,.05,0,.01,0,.03,0,.04-.02,0,0,.02-.02.02-.03,0-.01.01-.02.01-.03,0-.01,0-.03,0-.04s0-.04,0-.05,0-.03,0-.05v-.13h.25v.12c0,.05,0,.1-.01.14,0,.04-.02.08-.04.12-.02.04-.04.07-.07.09-.03.02-.07.04-.11.06-.04.01-.1.02-.16.02"/>
    <path class="cls-1" d="m12.72,5.5c-.14,0-.23-.04-.29-.13-.06-.08-.09-.21-.09-.37v-.47c0-.08,0-.15.02-.21.01-.06.03-.11.07-.16.03-.04.07-.08.13-.1.05-.02.12-.03.2-.03.14,0,.24.03.31.1.06.07.09.17.09.32v.07h-.25v-.07s0-.06,0-.08c0-.02,0-.04,0-.06,0-.02-.01-.04-.02-.05,0-.01-.02-.02-.04-.03-.02,0-.04-.01-.07-.01-.02,0-.04,0-.05,0-.01,0-.03.01-.04.02-.01,0-.02.02-.03.03,0,.01-.01.03-.02.04,0,.01,0,.03,0,.05,0,.02,0,.04,0,.05v.64c0,.09,0,.15.03.19.02.04.06.06.12.06.03,0,.06,0,.08-.02.02-.01.04-.03.05-.05.01-.02.02-.05.03-.08,0-.03,0-.07,0-.11v-.12h-.15v-.17h.39v.73h-.17l-.02-.14c-.04.11-.12.16-.24.16"/>
    <path class="cls-1" d="m13.31,5.48v-1.43h.33c.08,0,.14,0,.2.02.05.01.1.03.14.06.04.03.07.07.09.12.02.05.03.11.03.18,0,.09-.01.16-.04.22-.03.06-.07.1-.13.12l.2.71h-.26l-.17-.65h-.12v.65h-.26Zm.26-.82h.06c.08,0,.13-.02.17-.05.03-.03.05-.09.05-.17s-.01-.13-.04-.16c-.03-.03-.08-.05-.15-.05h-.08v.43Z"/>
    <path class="cls-1" d="m14.65,5.5c-.15,0-.25-.04-.32-.12-.06-.08-.1-.2-.1-.35v-.53c0-.08,0-.14.02-.2.01-.06.04-.1.07-.14.03-.04.07-.07.13-.09.05-.02.12-.03.19-.03.15,0,.25.04.32.12.06.08.1.19.1.35v.53c0,.08,0,.14-.02.2-.01.06-.04.11-.07.15-.03.04-.07.07-.13.1-.05.02-.12.03-.19.03m-.06-.21s.04.01.06.01.05,0,.07-.01c.02,0,.03-.02.04-.03.01-.01.02-.03.03-.05,0-.02,0-.04.01-.06,0-.02,0-.04,0-.07v-.65s0-.06,0-.09c0-.02-.01-.05-.02-.07-.01-.02-.03-.04-.04-.04-.02-.01-.05-.02-.08-.02s-.06,0-.08.02c-.02,0-.04.02-.05.04,0,.02-.02.04-.02.07,0,.02,0,.05,0,.09v.65s0,.05,0,.07c0,.02,0,.04.01.06,0,.02.01.04.02.05.01.01.03.02.04.03"/>
  </g>
  <polygon class="cls-1" points="15.37 5.48 15.17 4.05 15.39 4.05 15.51 4.97 15.66 4.05 15.83 4.05 15.99 4.97 16.11 4.05 16.32 4.05 16.12 5.48 15.91 5.48 15.75 4.52 15.59 5.48 15.37 5.48"/>
  <polygon class="cls-1" points="16.35 4.05 16.35 4.24 16.59 4.24 16.59 5.48 16.85 5.48 16.85 4.24 17.09 4.24 17.09 4.05 16.35 4.05"/>
  <polygon class="cls-1" points="17.72 4.05 17.72 4.65 17.43 4.65 17.43 4.05 17.17 4.05 17.17 5.48 17.43 5.48 17.43 4.83 17.72 4.83 17.72 5.48 17.98 5.48 17.98 4.05 17.72 4.05"/>
  <g>
    <path class="cls-1" d="m13.57,9.67l-2.01,1.91c-.07.07-.11.13-.11.29v5.35c0,.06.05.11.11.11h2.07c.06,0,.11-.05.11-.11v-7.5c0-.06-.05-.18-.18-.05"/>
    <path class="cls-1" d="m7.79,12.16l-2.01,1.91c-.07.07-.11.13-.11.29v2.86c0,.06.05.11.11.11h2.07c.06,0,.11-.05.11-.11v-5.01c0-.06-.05-.18-.18-.05"/>
    <path class="cls-1" d="m14.48,7.35s0-.03-.02-.04c-.01,0-.02-.01-.04-.02h-.01s-.02,0-.02,0l-1.54.35h-.03s-.02.01-.03.02c-.02.02-.02.06,0,.08l.02.02.35.35-3.48,3.48-1.61-1.61s-.05-.02-.07,0l-.44.44h0s-2.58,2.58-2.58,2.58c-.02.02-.02.05,0,.07l.44.44s.05.02.06,0l2.55-2.54,1.17,1.17s0,0,0,0l.44.44s.05.02.07,0l3.95-3.95.37.37s.06.02.08,0c.01-.01.02-.02.02-.04h0s.34-1.57.34-1.57v-.02Z"/>
    <path class="cls-1" d="m10.69,12.49l-.97.98s-.04.01-.06,0l-.88-.9c-.16-.16-.2-.03-.2.03v4.61c0,.06.05.11.11.11h2.07c.06,0,.11-.05.11-.11v-4.69c0-.06-.05-.18-.19-.04"/>
  </g>
</svg>