<?xml version="1.0" encoding="UTF-8"?>
<svg xmlns="http://www.w3.org/2000/svg" version="1.1" viewBox="0 0 36.5 27">
  <defs>
    <style>
      .cls-1 {
        fill: #95bbdf;
      }

      .cls-2 {
        fill: #999b9d;
      }

      .cls-3 {
        fill: #08706c;
      }

      .cls-4 {
        fill: #a9c238;
      }

      .cls-5 {
        fill: #faaf41;
      }
    </style>
  </defs>
  <!-- Generator: Adobe Illustrator 28.6.0, SVG Export Plug-In . SVG Version: 1.2.0 Build 709)  -->
  <g>
    <g id="Layer_1">
      <path class="cls-2" d="M13.5,22.4c0,.1,0,.2-.1.2s-.1,0-.1-.2,0-.1.1-.1.1,0,.1.1M13,22.4c0,.1,0,.2-.1.2s-.1,0-.1-.2,0-.1.1-.1.1,0,.1.1M13.5,24.2v-.9h-.6c-.4,0-.6.3-.6.9s.2.9.6.9.6-.3.6-.9M14.5,25.2h-.2c-.3,0-.6-.1-.7-.4-.1.3-.3.4-.7.4-.5,0-.8-.4-.8-1.1s0-.7.3-.8c.1-.1.3-.2.5-.2h.8v1.3c0,.4.2.6.6.6h.2v.2Z"/>
      <path class="cls-2" d="M15.6,25.9c0,.1,0,.2-.1.2s-.1,0-.1-.2,0-.1.1-.1.1,0,.1.1M15.1,25.9c0,.1,0,.2-.1.2s-.1,0-.1-.2,0-.1.1-.1.1,0,.1.1M16.1,25.2h-.2c-.3,0-.5-.1-.6-.3-.1.2-.3.3-.7.3h-.2v-.2h.2c.4,0,.6-.2.6-.6v-1.2h.2c0,0,0,1.2,0,1.2,0,.4.2.6.6.6h.2v.2Z"/>
      <path class="cls-2" d="M16.9,24.4c0,.5-.3.8-.8.8h-.3v-.2h.3c.4,0,.6-.2.6-.6v-2.1h.2c0,0,0,2.1,0,2.1Z"/>
      <path class="cls-2" d="M18.3,25.2h-.5c-.3,0-.5-.2-.5-.5v-2.4h.2c0,0,0,2.4,0,2.4,0,.2.1.3.3.3h.4v.2Z"/>
      <path class="cls-2" d="M20.3,24.2c0-.5-.2-.8-.6-.8s-.6.3-.6.8.2.8.6.8.6-.3.6-.8M20.5,24.2c0,.7-.3,1-.8,1s-.5-.1-.7-.4c0,.1-.1.2-.3.3-.1,0-.2,0-.4,0h-.2v-.2h.2c.4,0,.6-.2.6-.6h0v-.2c0-.7.3-1,.8-1s.8.3.8,1"/>
      <path class="cls-2" d="M22.9,22.4c0,.1,0,.2-.1.2s-.1,0-.1-.2,0-.1.1-.1.1,0,.1.1M22.4,22.4c0,.1,0,.2-.1.2s-.1,0-.1-.2,0-.1.1-.1.1,0,.1.1M23.1,24.2c0-.6-.2-.9-.6-.9s-.6.3-.6.9.2.9.6.9.6-.3.6-.9M23.3,24.2c0,.3,0,.6-.2.7-.1.2-.4.3-.6.3s-.5-.1-.6-.3c-.1-.2-.2-.4-.2-.7s0-.5.2-.7c.1-.2.4-.3.6-.3s.5.1.6.3c.1.2.2.4.2.7"/>
      <path class="cls-2" d="M24.8,25.1c0,.3,0,.6-.2.7-.2.2-.4.3-.7.3s-.3,0-.4,0v-.2c0,0,.2.1.4.1s.4,0,.5-.3c.1-.1.2-.3.2-.6v-1.9h.2c0,0,0,1.9,0,1.9Z"/>
      <polygon class="cls-2" points="25.3 22.3 25.3 25.2 25.5 25.2 25.5 22.3 25.3 22.3"/>
      <path class="cls-2" d="M27.4,25.2h-1.6v-.2h1.3v-.9c0-.4-.2-.6-.6-.6s-.5.1-.6.4v-.4c.2-.2.3-.3.6-.3.5,0,.8.3.8.8v1.2Z"/>
      <path class="cls-2" d="M28.1,25.2h-.2v-2.9h.2c0,0,0,2.9,0,2.9ZM28.3,26.1h-.8,0c0-.1.1-.1.1-.1h0c0-.3.1-.4.3-.4s.1,0,.2,0h0c0,.1-.1,0-.1,0,0,0-.1,0-.1.2h0c0,0,.4,0,.4,0h0Z"/>
      <path class="cls-3" d="M16.5,1.8c0-.3.2-.7.2-.7,0,0-.8-.2-1.3-.1-.6.1-1,.5-1,1.1s0,13.5,0,13.6c0,.3-.2.7-.2.7,0,0,.8.2,1.3.1.6-.1,1-.5,1-1.1s0-13.4,0-13.6"/>
      <path class="cls-3" d="M36,7.1s-.2.1-.2.5c0,.3,0,8,0,8,0,1.5-.4,2.7-1.4,3.6-.9.9-2,1.3-3.5,1.4-1,0-1.7-.1-2.6-.6-1.3-.7-1-2.1-1-2.1,1,.6,2.1.9,3.4.9,1.8,0,2.9-1.2,2.9-3.1,0,0,0-6.4,0-7.5,0-1.1.3-1.4.9-1.5.9-.2,1.5.4,1.5.4"/>
      <path class="cls-3" d="M24.9,11.8h0s0,.2,0,.2c0,2-.8,3-2.3,3s-2.3-1.1-2.3-3.2.8-3.2,2.3-3.2,2.3,1.1,2.3,3.2h0M27,12.4c0-1.7-.3-2.9-.7-3.8-.7-1.2-1.9-1.9-3.6-1.9s-2.7.5-3.5,1.6c-.6.9-.9,2-.9,3.5s.3,2.6.9,3.4c.7,1.1,1.9,1.6,3.5,1.6s1.6-.2,2.2-.5c-.2,1.5-1.3,2.4-2.9,2.4s-2.4-.3-3.4-.9c0,0-.3,1.4,1,2.1.9.5,1.7.7,2.6.6,1.4,0,2.6-.5,3.5-1.4.9-.9,1.4-2.1,1.4-3.6v-3.2Z"/>
      <path class="cls-4" d="M21.8,5.6h0s-.2,0-.4-.2c-.2-.2-.4-.4-.5-.9,0-.5.1-.9.2-1.2.1-.3.2-.5.2-.7h0c0,0,0,0,0,0,0,0,.2.1.5.4.3.3.5.7.5,1.1,0,.5,0,.9-.2,1.2-.2.3-.3.4-.3.4h0"/>
      <path class="cls-5" d="M22.9,5.4h-.2s0,0,0,0c-.5-1.4.4-2.2,1.2-2.8.3-.2.6-.5.7-.7h0s0,0,0,0c0,0,.3.3.3,1,0,.2,0,.5,0,.8,0,.3-.3.7-.5.9-.2.2-.4.4-.7.6-.3.1-.6.2-.9.3"/>
      <path class="cls-1" d="M20.9,5.7c-.9.1-1.6,0-2.1-.4-.4-.3-.7-.9-.8-1.6,0-.8.2-1.2.2-1.2h0s0,0,0,0c0,.2.4.5.9.7.4.2.8.5,1.2.9.4.4.6.9.6,1.5h0"/>
      <path class="cls-3" d="M11.5,7.7c-.7-.6-1.6-1-3-1s-1.8.4-2.3,1c-.6.7-.9,1.8-.9,1.8.9-.7,1.7-1.1,3-1.1s2.2.9,2.2,2.4v3.9h-5.5c-1,0-1.3.2-1.4.7-.2.9.4,1.4.4,1.4,0,0,.1-.2.5-.2.2,0,8.1,0,8.1,0v-5.9c0-1.4-.5-2.3-1.2-2.9"/>
    </g>
  </g>
</svg>