<?xml version="1.0" encoding="UTF-8"?>
<svg id="Layer_1" data-name="Layer 1" xmlns="http://www.w3.org/2000/svg" viewBox="0 0 36.58 35.72">
  <defs>
    <style>
      .cls-1 {
        fill: #a971b0;
      }

      .cls-2 {
        fill: none;
        stroke: #fff;
        stroke-width: .75px;
      }
    </style>
  </defs>
  <path class="cls-1" d="m18.29,35.72c10.1,0,18.29-7.99,18.29-17.86S28.39,0,18.29,0,0,8,0,17.86s8.19,17.86,18.29,17.86"/>
  <path class="cls-2" d="m13.11,21.96l-5.93,4.08s9.18-2.97,13.03.68c0,0,2.95-4.21,12.93,0l-5.8-4.76"/>
  <path class="cls-2" d="m7.88,28.57s6.51-3.53,11.34,0c0,0,1.68.61,2.26-.24.58-.85,4.32-3.65,11.09.67"/>
  <path class="cls-2" d="m9.69,9.41c-.93.6-.79,1.02.31.95l5.54-.36c1.1-.07,2.74-.63,3.65-1.25l4.75-3.21c.92-.62.77-1.01-.33-.88l-5.18.62c-1.56.19-3.89,1.02-5.21,1.86l-3.55,2.27Z"/>
  <path class="cls-2" d="m12.23,10.38l1.22,3.19s6.03,0,10.19-3.44l-1.09-3.5"/>
  <path class="cls-2" d="m10.52,14.2c.52,0,.93-.4.93-.9s-.42-.9-.93-.9-.93.4-.93.9.42.9.93.9Z"/>
  <line class="cls-2" x1="9.56" y1="10.44" x2="10.33" y2="12.62"/>
  <path class="cls-2" d="m12.98,15.29s1.78-.75,1.56.53c-.12.7.25,1.46.82,1.68q1.05.4.54,1.46c-.28.59-.41,1.23-.29,1.45q.22.39-.54,1.12"/>
  <path class="cls-2" d="m17.04,23.07c.19,0,3.2-1.87,3.97.66"/>
  <path class="cls-2" d="m19.58,12.51s.9.81,2.5.81,1.32,1.97-.59,1.63c-1.91-.35-4.35.12-3.71,2.12.64,2,1.93.6,2.05.88.13.27.53.81,1.09,1.75.56.94.11,2.97,1.15,2.14,1.04-.83,1.38-1.8,1.04-2.71-.34-.9,1.08-1.5,1.08-1.5,0,0-1.43-1.25-.71-1.75.71-.5.96.94,1.03-.81.06-1.75.45-.25,1.16-.12.71.12,1.54-.35,1.54-.35"/>
  <path class="cls-2" d="m25.07,19.95s.71-.83.77-1.72"/>
  <path class="cls-2" d="m13.25,14.67c-.2.65-.31,1.34-.31,2.05,0,3.95,3.28,7.15,7.34,7.15s7.34-3.2,7.34-7.15c0-2.27-1.08-4.29-2.77-5.6"/>
</svg>