<?xml version="1.0" encoding="UTF-8"?>
<svg id="Layer_1" data-name="Layer 1" xmlns="http://www.w3.org/2000/svg" viewBox="0 0 11.39 11.39">
  <defs>
    <style>
      .cls-1 {
        fill: #fff;
      }

      .cls-2 {
        fill: none;
        stroke: #daab27;
      }
    </style>
  </defs>
  <path class="cls-1" d="m5.69,10.89c2.87,0,5.19-2.33,5.19-5.19S8.56.5,5.69.5.5,2.83.5,5.7s2.32,5.19,5.19,5.19"/>
  <path class="cls-2" d="m5.69,10.89c2.87,0,5.19-2.33,5.19-5.19S8.56.5,5.69.5.5,2.83.5,5.7s2.32,5.19,5.19,5.19Z"/>
  <path class="cls-1" d="m5.69,7.8c1.16,0,2.1-.94,2.1-2.1s-.94-2.1-2.1-2.1-2.11.94-2.11,2.1.94,2.1,2.11,2.1"/>
  <path class="cls-2" d="m5.69,7.8c1.16,0,2.1-.94,2.1-2.1s-.94-2.1-2.1-2.1-2.11.94-2.11,2.1.94,2.1,2.11,2.1Z"/>
</svg>