<?xml version="1.0" encoding="UTF-8"?>
<svg id="Layer_1" data-name="Layer 1" xmlns="http://www.w3.org/2000/svg" viewBox="0 0 92.23 23.14">
  <defs>
    <style>
      .cls-1 {
        fill: #356199;
      }
    </style>
  </defs>
  <path class="cls-1" d="m46.42,6.84c-.65-.33-1.35-.47-2.14-.47s-1.58.33-2.47.98c-.88.65-1.54,1.54-2.05,2.75l.05-3.72-7.08,1.4v.65l.7.05c.88.09,1.4.79,1.49,2.05.28,2.89.28,5.96,0,9.22-.09,1.26-.61,1.91-1.49,2.05l-.7.09v.89h9.87v-.89l-1.26-.09c-.88-.09-1.4-.79-1.49-2.05-.28-2.7-.33-5.59-.09-8.57.28-.46.89-.74,1.82-.84.93-.09,2,.19,3.12.84l1.72-4.33Zm44.79.42c-1.26-.56-2.84-.88-4.75-.88s-3.49.51-4.65,1.49-1.77,2.19-1.77,3.63c0,1.26.37,2.24,1.07,2.93s1.82,1.3,3.26,1.82c1.3.47,2.24.93,2.7,1.35.46.47.74.98.74,1.68,0,.65-.23,1.26-.74,1.72-.47.51-1.12.74-1.96.74-2.05,0-3.58-1.49-4.65-4.47l-.79.23.19,4.66c1.68.65,3.54.98,5.59.98s3.77-.46,4.98-1.44c1.21-.93,1.82-2.28,1.82-3.96,0-1.12-.28-2.05-.88-2.75-.61-.7-1.58-1.3-2.98-1.86-1.54-.56-2.61-1.07-3.17-1.54-.56-.46-.84-1.02-.84-1.72s.19-1.26.6-1.72c.42-.46.93-.65,1.58-.65,1.86,0,3.21,1.35,4.05,4l.79-.23-.19-4Zm-21.6,1.86c.51-1.12,1.16-1.68,2.05-1.68,1.4,0,2.1,1.77,2.1,5.35l-4.93.09c.05-1.4.28-2.65.79-3.77Zm-3.45,11.68c1.54,1.54,3.49,2.33,5.82,2.33,1.44,0,2.7-.28,3.82-.88,1.12-.56,2-1.26,2.61-2.1l-.47-.56c-1.02.79-2.19,1.16-3.54,1.16-1.86,0-3.31-.61-4.28-1.86-1.02-1.26-1.49-2.84-1.4-4.89h9.96c0-2.23-.56-4.05-1.72-5.49-1.16-1.4-2.79-2.1-4.89-2.1-2.61,0-4.61.84-6.05,2.47-1.44,1.63-2.14,3.63-2.14,6.01s.75,4.38,2.28,5.91M26.82,9.5c.56,1.35.79,3.12.79,5.26,0,4.93-1.02,7.36-3.03,7.36-1.02,0-1.82-.7-2.37-2.1-.56-1.4-.79-3.17-.79-5.26,0-4.89,1.02-7.31,3.03-7.31,1.03-.05,1.82.65,2.38,2.05m-10.38,5.31c0,2.42.7,4.42,2.05,6.01,1.35,1.58,3.35,2.33,5.87,2.33s4.56-.79,6.05-2.42c1.49-1.58,2.19-3.58,2.19-6.01s-.7-4.42-2.05-6.01c-1.35-1.58-3.35-2.33-5.87-2.33s-4.56.79-6.05,2.42c-1.49,1.58-2.19,3.58-2.19,6.01M18.62.46H0v.93l.98.09c.74.14,1.26.42,1.58.84.33.46.51,1.21.56,2.23.37,5.03.37,9.73,0,14.06-.09,1.02-.28,1.77-.56,2.23-.33.47-.84.75-1.58.84l-.98.14v.93h12.01v-.93l-1.26-.09c-.62-.05-1.19-.36-1.58-.84-.33-.47-.51-1.21-.56-2.24-.14-1.86-.23-4-.23-6.38l2.51.05c1.35.05,2.28,1.07,2.75,3.12h.93v-7.59h-.93c-.47,2-1.35,3.03-2.75,3.07l-2.51.05c0-4.19.09-7.17.23-8.98h3.68c2.61,0,4.38,1.68,5.4,5.03l1.12-.33-.19-6.24Zm33.8,21.42c-.09-1.49-.19-5.96-.19-13.27.42-.14.98-.23,1.68-.23,1.12,0,2,.56,2.65,1.72s.98,2.56.98,4.33c0,2.19-.37,3.96-1.12,5.45-.74,1.44-1.68,2.19-2.84,2.19-.37-.09-.74-.14-1.16-.19m-.14-14.34c0-2.7.05-5.21.19-7.54l-7.12,1.35v.65l.7.09c.51.05.84.23,1.03.51.19.33.33.79.42,1.49.09,1.35.19,4.42.14,9.26,0,4.8-.05,7.82-.14,8.99,2.56.56,4.56.79,6.05.79,2.79,0,4.98-.79,6.56-2.42,1.58-1.58,2.42-3.82,2.42-6.56,0-2.19-.61-4-1.82-5.45-1.21-1.44-2.75-2.14-4.56-2.14-1.21,0-2.47.33-3.86.98"/>
</svg>