<?xml version="1.0" encoding="UTF-8"?>
<svg id="Layer_1" data-name="Layer 1" xmlns="http://www.w3.org/2000/svg" xmlns:xlink="http://www.w3.org/1999/xlink" viewBox="0 0 34.79 34.79">
  <defs>
    <style>
      .cls-1 {
        stroke: #fff;
        stroke-linecap: round;
      }

      .cls-1, .cls-2, .cls-3 {
        fill: none;
      }

      .cls-3 {
        clip-path: url(#clippath);
      }

      .cls-4 {
        fill: url(#linear-gradient);
      }
    </style>
    <clipPath id="clippath">
      <path class="cls-2" d="m0,17.4c0,9.61,7.79,17.39,17.39,17.39s17.39-7.79,17.39-17.39S27,0,17.39,0,0,7.79,0,17.4"/>
    </clipPath>
    <linearGradient id="linear-gradient" x1="62.6" y1="725.95" x2="63.6" y2="725.95" gradientTransform="translate(-2177.63 25271.68) scale(34.79 -34.79)" gradientUnits="userSpaceOnUse">
      <stop offset="0" stop-color="#de99a1"/>
      <stop offset=".43" stop-color="#c686a7"/>
      <stop offset="1" stop-color="#ab70af"/>
    </linearGradient>
  </defs>
  <g class="cls-3">
    <rect class="cls-4" x="0" y="0" width="34.79" height="34.79"/>
  </g>
  <circle class="cls-1" cx="17.05" cy="17.39" r="10.66" transform="translate(-.03 .03) rotate(-.11)"/>
  <polyline class="cls-1" points="24.01 7.3 24.12 9.09 22.35 9.35"/>
  <polyline class="cls-1" points="11.71 25.32 9.97 25.4 10.03 27.13"/>
  <path class="cls-1" d="m13.23,19.26s-1.08-.43-1.33-1.57c-.24-1.14.24-2.38,1.45-2.62,1.21-.25,1.91,1.22,1.67,2.33-.24,1.11-.9,2.27-1.79,1.86Z"/>
  <path class="cls-1" d="m20.76,19.26s-1.08-.43-1.33-1.57c-.24-1.14.24-2.38,1.45-2.62,1.21-.25,1.78.84,1.69,1.98-.1,1.26-.6,2.59-1.81,2.22Z"/>
  <path class="cls-1" d="m17.22,13.88s-1.08-.43-1.33-1.57c-.24-1.14.17-2.28,1.37-2.53,1.2-.25,1.84.74,1.76,1.88-.09,1.3-.6,2.59-1.81,2.22Z"/>
  <polyline class="cls-1" points="10.15 22.78 10.55 20.82 12.07 20.04 12.65 19.26"/>
  <polyline class="cls-1" points="16.61 22.69 16.3 20.82 14.79 20.04 14.21 19.26"/>
  <polyline class="cls-1" points="24.34 22.51 24.07 20.82 22.55 20.04 21.97 19.26"/>
  <polyline class="cls-1" points="17.69 22.69 18.02 20.82 19.53 20.04 20.11 19.26"/>
  <line class="cls-1" x1="14.44" y1="15.14" x2="16.76" y2="13.75"/>
  <line class="cls-1" x1="20" y1="15.19" x2="18.05" y2="13.84"/>
</svg>