<?xml version="1.0" encoding="UTF-8"?>
<svg id="Layer_1" data-name="Layer 1" xmlns="http://www.w3.org/2000/svg" viewBox="0 0 34.79 34.79">
  <defs>
    <style>
      .cls-1 {
        fill: #a3e3a6;
      }

      .cls-2 {
        fill: none;
        stroke: #fff;
        stroke-linecap: round;
      }
    </style>
  </defs>
  <path class="cls-1" d="m17.39,34.79c9.61,0,17.39-7.79,17.39-17.39S27,0,17.39,0,0,7.79,0,17.39s7.79,17.39,17.39,17.39"/>
  <path class="cls-2" d="m11.13,19.45h-5.26v-3.98s.35-2.77,2.63-2.77l2.28,2.25,2.11-2.25s.7,0,1.84.87"/>
  <line class="cls-2" x1="7.85" y1="16.34" x2="7.85" y2="19.36"/>
  <path class="cls-2" d="m11.03,11.93c1.11,0,2.01-1.1,2.01-2.47s-.9-2.47-2.01-2.47-2.01,1.11-2.01,2.47.9,2.47,2.01,2.47Z"/>
  <path class="cls-2" d="m23.65,19.45h5.26v-3.98s-.35-2.77-2.63-2.77l-2.28,2.25-2.11-2.25s-.7,0-1.84.87"/>
  <line class="cls-2" x1="26.94" y1="16.34" x2="26.94" y2="19.36"/>
  <path class="cls-2" d="m23.76,11.93c-1.11,0-2.01-1.1-2.01-2.47s.9-2.47,2.01-2.47,2.01,1.11,2.01,2.47-.9,2.47-2.01,2.47Z"/>
  <path class="cls-2" d="m18.38,25.57h4.15v-3.99s-.35-2.77-2.64-2.77l-2.29,2.25-2.12-2.25s-.7,0-1.85.87c-1.15.87-1.28,1.65-1.37,3.25l.09,2.73,3.84-.07,1.28-3.92.92,3.9Z"/>
  <line class="cls-2" x1="20.55" y1="22.45" x2="20.55" y2="25.47"/>
  <path class="cls-2" d="m17.38,18.04c-1.11,0-2.01-1.1-2.01-2.47s.9-2.47,2.01-2.47,2.01,1.11,2.01,2.47-.9,2.47-2.01,2.47Z"/>
  <line class="cls-2" x1="14.54" y1="22.45" x2="14.54" y2="25.47"/>
  <polyline class="cls-2" points="16.27 25.83 17.28 27.38 18.29 25.83"/>
</svg>