<?xml version="1.0" encoding="UTF-8"?>
<svg id="Layer_1" data-name="Layer 1" xmlns="http://www.w3.org/2000/svg" xmlns:xlink="http://www.w3.org/1999/xlink" viewBox="0 0 34.79 34.79">
  <defs>
    <style>
      .cls-1 {
        stroke: #fff;
      }

      .cls-1, .cls-2, .cls-3 {
        fill: none;
      }

      .cls-3 {
        clip-path: url(#clippath);
      }

      .cls-4 {
        fill: url(#linear-gradient);
      }
    </style>
    <clipPath id="clippath">
      <path class="cls-2" d="m0,17.4c0,9.6,7.79,17.39,17.39,17.39s17.39-7.79,17.39-17.39S27,0,17.39,0,0,7.79,0,17.4"/>
    </clipPath>
    <linearGradient id="linear-gradient" x1="78.12" y1="724.04" x2="79.12" y2="724.04" gradientTransform="translate(-2717.48 25205.29) scale(34.79 -34.79)" gradientUnits="userSpaceOnUse">
      <stop offset="0" stop-color="#f89522"/>
      <stop offset=".53" stop-color="#f17e2a"/>
      <stop offset="1" stop-color="#ed6f31"/>
    </linearGradient>
  </defs>
  <g class="cls-3">
    <rect class="cls-4" x="0" width="34.79" height="34.79"/>
  </g>
  <path class="cls-1" d="m12.4,8.64c-1.51,0-2.73,1.23-2.73,2.73v11.48c0,1.51,1.22,2.73,2.73,2.73h6.83c.72,0,1.38-.28,1.87-.74"/>
  <path class="cls-1" d="m18.7,8.9v1.74c0,.96.67,1.74,1.5,1.74h1.77"/>
  <line class="cls-1" x1="12.25" y1="13.7" x2="19.1" y2="13.7"/>
  <line class="cls-1" x1="21.36" y1="23.28" x2="21.36" y2="19.03"/>
  <line class="cls-1" x1="12.25" y1="15.81" x2="19.1" y2="15.81"/>
  <line class="cls-1" x1="22.93" y1="23.28" x2="22.93" y2="19.03"/>
  <line class="cls-1" x1="12.25" y1="18" x2="16.22" y2="18"/>
  <line class="cls-1" x1="24.49" y1="23.28" x2="24.49" y2="20.82"/>
  <path class="cls-1" d="m22.94,25.11c2.22,0,4.02-1.8,4.02-4.02s-1.8-4.02-4.02-4.02-4.02,1.8-4.02,4.02,1.8,4.02,4.02,4.02Z"/>
  <path class="cls-1" d="m21.96,17.12v-5.74c0-1.51-1.22-2.74-2.73-2.74h-6.84"/>
</svg>