<?xml version="1.0" encoding="UTF-8"?>
<svg id="Layer_1" data-name="Layer 1" xmlns="http://www.w3.org/2000/svg" xmlns:xlink="http://www.w3.org/1999/xlink" viewBox="0 0 34.79 34.79">
  <defs>
    <style>
      .cls-1 {
        stroke: #fff;
        stroke-linecap: round;
      }

      .cls-1, .cls-2, .cls-3 {
        fill: none;
      }

      .cls-3 {
        clip-path: url(#clippath);
      }

      .cls-4 {
        fill: url(#linear-gradient);
      }
    </style>
    <clipPath id="clippath">
      <path class="cls-2" d="m0,17.4c0,9.61,7.79,17.39,17.39,17.39s17.39-7.79,17.39-17.39S27,0,17.39,0,0,7.79,0,17.4"/>
    </clipPath>
    <linearGradient id="linear-gradient" x1="33.05" y1="723.24" x2="34.05" y2="723.24" gradientTransform="translate(-1149.89 25177.59) scale(34.79 -34.79)" gradientUnits="userSpaceOnUse">
      <stop offset="0" stop-color="#26b573"/>
      <stop offset=".55" stop-color="#4db380"/>
      <stop offset=".99" stop-color="#70b28c"/>
      <stop offset="1" stop-color="#70b28c"/>
    </linearGradient>
  </defs>
  <g class="cls-3">
    <rect class="cls-4" y="0" width="34.79" height="34.79"/>
  </g>
  <path class="cls-1" d="m22.01,26.01c3.51,0,6.35-2.84,6.35-6.35s-2.84-6.35-6.35-6.35-6.35,2.84-6.35,6.35,2.84,6.35,6.35,6.35Z"/>
  <polyline class="cls-1" points="21.83 13.58 21.83 19.85 27.54 22.58"/>
  <line class="cls-1" x1="21.8" y1="25.53" x2="21.8" y2="19.88"/>
  <path class="cls-1" d="m11.68,22.96h-5.26v-3.99s.35-2.77,2.63-2.77l2.28,2.25,2.11-2.25s.7,0,1.84.87"/>
  <line class="cls-1" x1="8.39" y1="19.85" x2="8.39" y2="22.86"/>
  <path class="cls-1" d="m11.58,15.43c1.11,0,2.01-1.1,2.01-2.47s-.9-2.47-2.01-2.47-2.01,1.1-2.01,2.47.9,2.47,2.01,2.47Z"/>
</svg>