<?xml version="1.0" encoding="utf-8"?>
<!-- Generator: Adobe Illustrator 26.1.0, SVG Export Plug-In . SVG Version: 6.00 Build 0)  -->
<svg version="1.1" id="Layer_1" xmlns="http://www.w3.org/2000/svg" xmlns:xlink="http://www.w3.org/1999/xlink" x="0px" y="0px"
	 viewBox="0 0 197 49.7" style="enable-background:new 0 0 197 49.7;" xml:space="preserve">
<style type="text/css">
	.st0{fill:#D29E0E;}
	.st1{fill:#FFFFFF;}
	.st2{opacity:0.25;}
	.st3{filter:url(#Adobe_OpacityMaskFilter);}
	
		.st4{clip-path:url(#SVGID_00000142871332123949729900000018119803285247276207_);fill:url(#SVGID_00000031207229200763753190000016969807211740543933_);}
	
		.st5{clip-path:url(#SVGID_00000142871332123949729900000018119803285247276207_);mask:url(#SVGID_00000099658285160592830590000002712927143869843130_);}
	.st6{clip-path:url(#SVGID_00000005988412319964903600000013844573934224960180_);}
	.st7{filter:url(#Adobe_OpacityMaskFilter_00000039813216193623218950000016674848655112354204_);}
	
		.st8{clip-path:url(#SVGID_00000083789745118565303470000014099259191195659666_);fill:url(#SVGID_00000160898656989170700900000017930356091541153177_);}
	
		.st9{clip-path:url(#SVGID_00000083789745118565303470000014099259191195659666_);mask:url(#SVGID_00000131328781431723762680000016656755247464782753_);}
	.st10{clip-path:url(#SVGID_00000023977178539748471990000011164609486456241045_);}
	.st11{filter:url(#Adobe_OpacityMaskFilter_00000095323061521348169490000014719672283865850032_);}
	
		.st12{clip-path:url(#SVGID_00000123432170599312232380000007201436185097077388_);fill:url(#SVGID_00000044856058882872562700000006969549096451624576_);}
	
		.st13{clip-path:url(#SVGID_00000123432170599312232380000007201436185097077388_);mask:url(#SVGID_00000018933670737660271300000009854951422858951330_);}
	.st14{clip-path:url(#SVGID_00000061472189825123580680000009148189086550962307_);}
	.st15{filter:url(#Adobe_OpacityMaskFilter_00000039827064418908996390000012484344625777629827_);}
	
		.st16{clip-path:url(#SVGID_00000156575671770330774820000009142996331167114417_);fill:url(#SVGID_00000049937393408487674490000017721299392011566775_);}
	
		.st17{clip-path:url(#SVGID_00000156575671770330774820000009142996331167114417_);mask:url(#SVGID_00000065046539535998949640000007531965896726361474_);}
	.st18{clip-path:url(#SVGID_00000023992142474134383550000017901136619613354908_);}
</style>
<path class="st0" d="M58.1,42.8c-1.2-1.8-2.4-3.5-3.7-5.1h-1.3v7.3h1.5v-4.9c1.7,2.4,2.9,4.1,3.7,4.9h1.3v-7.3h-1.5V42.8z"/>
<path class="st0" d="M67.3,41v1.3h1.3v1.5c-0.3,0.1-0.5,0.1-0.9,0.1c-0.5,0-0.9-0.2-1.3-0.6c-0.4-0.4-0.6-1-0.6-1.8
	c0-0.7,0.2-1.3,0.5-1.8c0.3-0.5,0.8-0.7,1.3-0.7c0.5,0,1,0.2,1.6,0.6l0.6-0.9c-0.6-0.6-1.4-0.9-2.2-0.9c-0.9,0-1.7,0.3-2.2,1
	c-0.6,0.7-0.9,1.6-0.9,2.7c0,0.9,0.2,1.7,0.6,2.3c0.6,0.9,1.4,1.3,2.5,1.3c0.8,0,1.7-0.2,2.5-0.7V41H67.3z"/>
<path class="st0" d="M93.7,20.1h9.5v9.5h-9.5V20.1z M93.7,10.5V10c0-4.5-4.8-9-9.5-9v28.6h-0.5c-4.5,0-9,4.8-9,9.5h28.6v0.5
	c0,4.5,4.8,9,9.5,9V20.1h0.5c4.5,0,9-4.8,9-9.5H93.7z"/>
<path class="st0" d="M128.4,39c0.5,0,0.7-0.2,0.7-0.7c0-0.2-0.1-0.4-0.2-0.5c-0.1-0.1-0.3-0.2-0.5-0.2c-0.5,0-0.7,0.2-0.7,0.7
	c0,0.2,0.1,0.4,0.2,0.5C128,38.9,128.2,39,128.4,39"/>
<path class="st0" d="M130.1,39c0.5,0,0.7-0.2,0.7-0.7c0-0.2-0.1-0.4-0.2-0.5c-0.1-0.1-0.3-0.2-0.5-0.2c-0.5,0-0.7,0.2-0.7,0.7
	c0,0.2,0.1,0.4,0.2,0.5C129.7,38.9,129.9,39,130.1,39"/>
<path class="st0" d="M161.3,39c0.5,0,0.7-0.2,0.7-0.7c0-0.2-0.1-0.4-0.2-0.5c-0.1-0.1-0.3-0.2-0.5-0.2c-0.2,0-0.4,0.1-0.5,0.2
	c-0.1,0.1-0.2,0.3-0.2,0.5c0,0.2,0.1,0.4,0.2,0.5C160.9,38.9,161.1,39,161.3,39"/>
<path class="st0" d="M162.8,43c0,0.3,0,0.5-0.1,0.6c-0.1,0.1-0.3,0.2-0.5,0.2h-3.4c0.3-0.7,0.7-1.3,1.2-1.8c0.5-0.4,1-0.7,1.6-0.7
	c0.4,0,0.7,0.1,1,0.4c0.2,0.3,0.4,0.6,0.4,1.1V43z M129.2,43.6c-0.3,0-0.5-0.1-0.6-0.3c-0.1-0.2-0.2-0.4-0.2-0.8
	c0-0.3,0.1-0.6,0.2-0.8c0.1-0.2,0.3-0.3,0.6-0.3c0.2,0,0.5,0.1,0.6,0.2v1.3c0,0.1,0,0.2,0,0.3C129.7,43.5,129.4,43.6,129.2,43.6
	 M169.9,43c0,0.3-0.1,0.5-0.2,0.6c-0.1,0.1-0.3,0.2-0.6,0.2h-0.3h-0.7h-0.6h-0.7h0.2h-0.7h-0.6h-1c-0.5,0-0.8-0.2-0.8-0.7v-0.2
	c0-0.7-0.2-1.4-0.7-1.9c-0.5-0.6-1.2-0.9-2.1-0.9c-1,0-1.8,0.4-2.5,1.1c-0.7,0.7-1.2,1.5-1.5,2.6c-0.4-0.1-0.6-0.3-0.6-0.8v-2.1
	l-1.4,0.7V43c0,0.3-0.1,0.5-0.2,0.6c-0.1,0.1-0.3,0.2-0.6,0.2h-1h-0.6h-0.7h-0.6h-0.7h-0.6h-0.7h-0.6h-0.7H148h-0.7h-0.6h-0.7h-0.6
	h-0.7h-0.6h-0.7H143h-0.7h-0.6h-0.7h-0.6h-0.7h-0.6h-0.7H138h-0.7h-0.6H136h-0.6h-0.7h-0.6h-0.7h-0.6h-1c-0.3,0-0.5-0.1-0.6-0.2
	c-0.1-0.1-0.2-0.3-0.2-0.6v-3.6l-1.4,0.7v0.3c-0.2-0.1-0.5-0.2-0.7-0.2c-0.5,0-1,0.2-1.4,0.6c-0.5,0.4-0.7,1-0.7,1.7
	c0,0.6,0.2,1.1,0.5,1.5c0.4,0.5,0.9,0.8,1.6,0.8c0.4,0,0.8-0.1,1.1-0.4c0.4,0.4,0.9,0.7,1.6,0.7h1.1h0.6h0.7h0.6h0.7h0.6h0.7h0.6
	h0.7h0.6h0.7h0.6h0.7h0.6h0.7h0.6h0.7h0.6h0.7h0.6h0.7h0.6h0.7h0.6h0.7h0.6h0.7h0.6h0.7h0.6h0.7h0.6h0.7h0.6h1.1
	c0.5,0,1-0.1,1.3-0.4c0.3,0.3,0.8,0.4,1.3,0.4h4.7c0.5,0,1-0.1,1.3-0.4c0.3,0.3,0.8,0.4,1.3,0.4h1.1h0.6h0.7h-0.2h0.7h0.6h0.7h0.5
	c0.6,0,1-0.2,1.4-0.5c0.4-0.4,0.6-0.9,0.6-1.5v-2.8l-1.4,0.7V43z"/>
<path class="st0" d="M169.7,46.1c-0.2,0-0.4,0.1-0.5,0.2c-0.1,0.1-0.2,0.3-0.2,0.5c0,0.2,0.1,0.4,0.2,0.5c0.1,0.1,0.3,0.2,0.5,0.2
	c0.5,0,0.7-0.2,0.7-0.7c0-0.2-0.1-0.4-0.2-0.5C170.1,46.1,170,46.1,169.7,46.1"/>
<path class="st0" d="M186.8,39c0.5,0,0.7-0.2,0.7-0.7c0-0.2-0.1-0.4-0.2-0.5c-0.1-0.1-0.3-0.2-0.5-0.2c-0.5,0-0.7,0.2-0.7,0.7
	c0,0.2,0.1,0.4,0.2,0.5C186.5,38.9,186.6,39,186.8,39"/>
<path class="st0" d="M188.5,39c0.5,0,0.7-0.2,0.7-0.7c0-0.2-0.1-0.4-0.2-0.5c-0.1-0.1-0.3-0.2-0.5-0.2c-0.5,0-0.7,0.2-0.7,0.7
	c0,0.2,0.1,0.4,0.2,0.5C188.1,38.9,188.3,39,188.5,39"/>
<path class="st0" d="M188.3,43.1c-0.2,0.2-0.4,0.4-0.6,0.5c-0.2-0.1-0.4-0.3-0.6-0.5c-0.2-0.2-0.2-0.5-0.2-0.8c0-0.7,0.3-1,0.8-1
	c0.3,0,0.5,0.1,0.6,0.3c0.1,0.2,0.2,0.4,0.2,0.7C188.5,42.6,188.4,42.9,188.3,43.1 M193.3,42.8c0,0.3-0.1,0.6-0.2,0.7
	c-0.1,0.1-0.4,0.2-0.7,0.2h0h-0.7h-0.6h-1.7c0.3-0.4,0.4-0.9,0.4-1.3c0-0.6-0.2-1.2-0.5-1.6c-0.4-0.5-0.9-0.8-1.7-0.8
	c-0.6,0-1.1,0.2-1.5,0.6c-0.4,0.4-0.6,1-0.6,1.7c0,0.5,0.1,0.9,0.4,1.3h-1.7h-0.6H183h-0.6h-0.7h-0.6h-0.7h-0.6h-0.7h-0.6h-0.7h-0.6
	h-0.7h-0.6h-0.7h-0.3c-0.3,0-0.5-0.1-0.6-0.2c-0.1-0.1-0.2-0.3-0.2-0.6v-5.3l-1.4,0.7v4.6c0,0.6,0.2,1,0.5,1.4
	c0.4,0.4,0.9,0.6,1.5,0.6h0.5h0.7h0.6h0.7h0.6h0.7h0.6h0.7h0.6h0.7h0.6h0.7h0.6h0.7h0.6h2.6c0.4,0,0.6,0,0.9-0.1
	c0.2,0.1,0.5,0.1,0.9,0.1h2.6h0.6h0.7h0.1c0.7,0,1.2-0.2,1.6-0.6c0.4-0.4,0.6-1,0.6-1.7v-5.1l-1.4,0.7V42.8z"/>
<path d="M183.5,27.8c0.3,0.5,0.7,0.9,1.2,1.2c0.5,0.3,1.1,0.5,1.9,0.5c0.7,0,1.4-0.2,2-0.5c0.6-0.3,1.1-0.8,1.4-1.4c0,0,0,0,0.1,0h0
	l0.1,0c0.3,0.5,0.7,0.9,1.2,1.3c0.5,0.4,1.2,0.6,2,0.6h3.8v-8.5l0,0v-0.9c0-1.5-1.6-3-3.2-3.1v1.4l0,0v7.9c0,0,0,0.1-0.1,0.1h-0.4
	c-1,0-1.7-0.3-2.1-0.8c-0.4-0.5-0.6-1.2-0.6-1.9v-2.4l0,0v-1.1c0-1.5-1.6-3.1-3.2-3.1v1.4l0,0l0,6.3v0.9l0,0.6l0,0.1l-0.1,0h0
	l-0.5,0c-1,0-1.7-0.3-2.1-0.8c-0.4-0.5-0.6-1.2-0.6-1.9v-2.7l0,0v-0.8c0-1.5-1.6-3-3.2-3.1v4.2v3.5c0,0.5-0.1,0.8-0.2,1.1
	c-0.2,0.3-0.5,0.5-1,0.5l-1.5,0l-1.1,0c-0.9,0-1.6-0.3-2.1-0.8c-0.3-0.3-0.5-0.8-0.6-1.4c-0.3-4.4-4.8-8.7-9.1-8.7
	c-1.4,0-2.8,1.5-2.9,2.9h2.3l0,0h0.2c3.1,0,6.2,3.1,6.2,6.2l0,0.1c0,0.1,0,0.1,0,0.2c0,0.5-0.1,1-0.3,1.2c-0.2,0.2-0.5,0.4-1,0.4
	h-5.2l-1.1,0c-1.5,0-3,1.5-3,3.1h2.6l0,0h6.9c0.7,0,1.4-0.2,2.1-0.5c0.6-0.3,1.1-0.8,1.4-1.3l0.1,0h0l0.1,0c0.3,0.5,0.7,0.9,1.2,1.3
	c0.5,0.3,1.1,0.5,1.8,0.6c0.1,0,0.1,0,0.2,0h2.5c0.9,0,1.6-0.2,2.2-0.5c0.6-0.3,1.1-0.7,1.4-1.3L183.5,27.8L183.5,27.8L183.5,27.8z"
	/>
<path class="st1" d="M138.2,29.6"/>
<path d="M138.5,26.4C138.5,26.4,138.5,26.5,138.5,26.4l-7.1,0.1c-0.4,0-0.7-0.2-1-0.5c-0.2-0.2-0.3-0.6-0.3-1.1c0,0,0-0.1,0-0.1
	c0,0,0-0.1,0-0.1c0-3,3-6,6-6.2c0.2,0,0.4,0,0.6,0c0.4,0,1.1,0.1,1.3,0.2c0.3,0.2,0.4,0.7,0.4,1.1V26.4z M158.1,29.3
	c0.7-0.2,1.3-0.7,1.8-1.3c0.4-0.5,0.6-1.1,0.7-1.8l0-0.2c0.1-0.6,0.2-1.3,0.1-1.9c0-0.1,0-0.3-0.1-0.4c-0.1-0.4-0.2-0.8-0.3-1.1
	c-0.2-0.4-0.5-0.8-0.8-1.2c-0.6-0.7-1.3-1.3-2.2-1.8c-0.2-0.1-0.3-0.2-0.5-0.2c-1.4-0.6-3-0.9-5.1-0.9H148c0,0-0.1,0-0.1-0.1
	c0,0,0-0.1,0-0.1l4.3-3.6c0.6-0.6,1.1-1.4,1.1-2.4c0-0.8-0.2-1.5-0.6-2.1c-7.8,6.7-9.2,7.9-9.5,8.2v3.1h8.7c0.7,0,1.6,0,2.4,0.1
	c0.9,0.1,1.6,0.4,2.2,0.8c0.3,0.2,0.6,0.5,0.7,0.8c0.2,0.4,0.3,0.8,0.3,1.3c0,0.3,0,0.5-0.1,0.7c-0.1,0.2-0.2,0.4-0.3,0.6l0,0
	c-0.2,0.3-0.5,0.5-1,0.5h-14.5c0,0-0.1,0-0.1-0.1v-6.9c0-1.8-1.3-3.5-3-3.9c-0.7-0.2-1.4-0.3-2-0.3l0,0h-0.5c-2.6,0-5.1,1.1-6.8,3.1
	c-0.7,0.8-1,1.6-1.5,2.7c-0.6,1.5-0.8,3.1-0.6,4.5c0.2,1.2,0.7,2.7,2.1,3.4c0.9,0.5,1.7,0.5,2.6,0.5l0.2,0h0.2h3.1c0,0,0.1,0,0.3,0
	c0.4,0,1.2,0,1.8,0c0.5,0,0.6,0,0.7,0l0,0.1l0,0l0,0l0,0l0,0l0,0c-0.1,0.4-0.2,0.7-0.3,0.9c-0.2,0.4-0.6,0.7-0.9,0.9
	c-0.4,0.2-0.8,0.4-1.3,0.4c-0.4,0.1-0.9,0.1-1.4,0.1l-1.5,0l-1.1,0c-1.4,0-2.9,1.5-2.9,3h4l0,0l1.5,0c1,0,1.8-0.1,2.7-0.3
	c0.9-0.2,1.7-0.6,2.3-1.1c0.7-0.5,1.2-1.1,1.6-1.9c0.3-0.6,0.5-1.3,0.6-2.1c0,0,0-0.1,0.1-0.1h11c0.3,0,0.6,0,0.9,0s0.6,0,0.9,0
	c0.2,0,0.3,0,0.5,0c0.1,0,0.2,0,0.4,0c0.2,0,0.4,0,0.6,0C156.6,29.6,157.4,29.5,158.1,29.3"/>
<g class="st2">
	<g>
		<defs>
			<rect id="SVGID_1_" x="92.7" y="9.5" width="30.6" height="11.5"/>
		</defs>
		<clipPath id="SVGID_00000114770435707264460990000004637471435050050996_">
			<use xlink:href="#SVGID_1_"  style="overflow:visible;"/>
		</clipPath>
		<defs>
			<filter id="Adobe_OpacityMaskFilter" filterUnits="userSpaceOnUse" x="92.7" y="9.5" width="30.6" height="11.5">
				<feColorMatrix  type="matrix" values="1 0 0 0 0  0 1 0 0 0  0 0 1 0 0  0 0 0 1 0"/>
			</filter>
		</defs>
		
			<mask maskUnits="userSpaceOnUse" x="92.7" y="9.5" width="30.6" height="11.5" id="SVGID_00000103261363115382487950000005808566398733133187_">
			<g class="st3">
				
					<linearGradient id="SVGID_00000039120750580498625540000002389674080705412763_" gradientUnits="userSpaceOnUse" x1="-630.1638" y1="998.8704" x2="-629.1638" y2="998.8704" gradientTransform="matrix(28.5992 0 0 -28.5992 18115.8711 28582.1523)">
					<stop  offset="0" style="stop-color:#FFFFFF"/>
					<stop  offset="0.2" style="stop-color:#000000"/>
					<stop  offset="0.8869" style="stop-color:#000000"/>
					<stop  offset="1" style="stop-color:#000000"/>
				</linearGradient>
				
					<rect x="92.7" y="9.5" style="clip-path:url(#SVGID_00000114770435707264460990000004637471435050050996_);fill:url(#SVGID_00000039120750580498625540000002389674080705412763_);" width="30.6" height="11.5"/>
			</g>
		</mask>
		
			<g style="clip-path:url(#SVGID_00000114770435707264460990000004637471435050050996_);mask:url(#SVGID_00000103261363115382487950000005808566398733133187_);">
			<g>
				<defs>
					<rect id="SVGID_00000170280931118922037470000005249890587834676903_" x="92.7" y="9.5" width="30.6" height="11.5"/>
				</defs>
				<clipPath id="SVGID_00000132774361743822745230000013561896794411414448_">
					<use xlink:href="#SVGID_00000170280931118922037470000005249890587834676903_"  style="overflow:visible;"/>
				</clipPath>
				<path style="clip-path:url(#SVGID_00000132774361743822745230000013561896794411414448_);" d="M122.3,10.5H93.7v9.5h9.5h9.5h0.5
					C117.8,20.1,122.3,15.3,122.3,10.5"/>
			</g>
		</g>
	</g>
</g>
<g class="st2">
	<g>
		<defs>
			<rect id="SVGID_00000181785274718465099020000014609694266272165277_" x="102.2" y="19.1" width="11.5" height="30.6"/>
		</defs>
		<clipPath id="SVGID_00000022556842702821445690000016005508778274982305_">
			<use xlink:href="#SVGID_00000181785274718465099020000014609694266272165277_"  style="overflow:visible;"/>
		</clipPath>
		<defs>
			
				<filter id="Adobe_OpacityMaskFilter_00000175290352230139250110000016780198001017046709_" filterUnits="userSpaceOnUse" x="102.2" y="19.1" width="11.5" height="30.6">
				<feColorMatrix  type="matrix" values="1 0 0 0 0  0 1 0 0 0  0 0 1 0 0  0 0 0 1 0"/>
			</filter>
		</defs>
		
			<mask maskUnits="userSpaceOnUse" x="102.2" y="19.1" width="11.5" height="30.6" id="SVGID_00000055697871506951225200000001434960309546607772_">
			<g style="filter:url(#Adobe_OpacityMaskFilter_00000175290352230139250110000016780198001017046709_);">
				
					<linearGradient id="SVGID_00000115477769810640648230000006804852272730571141_" gradientUnits="userSpaceOnUse" x1="-576.5507" y1="1018.8784" x2="-575.5507" y2="1018.8784" gradientTransform="matrix(0 28.5993 28.5993 0 -29031.1836 16509.0059)">
					<stop  offset="0" style="stop-color:#FFFFFF"/>
					<stop  offset="0.2" style="stop-color:#000000"/>
					<stop  offset="0.8869" style="stop-color:#000000"/>
					<stop  offset="1" style="stop-color:#000000"/>
				</linearGradient>
				
					<rect x="102.2" y="19.1" style="clip-path:url(#SVGID_00000022556842702821445690000016005508778274982305_);fill:url(#SVGID_00000115477769810640648230000006804852272730571141_);" width="11.5" height="30.6"/>
			</g>
		</mask>
		
			<g style="clip-path:url(#SVGID_00000022556842702821445690000016005508778274982305_);mask:url(#SVGID_00000055697871506951225200000001434960309546607772_);">
			<g>
				<defs>
					<rect id="SVGID_00000045593915607452916570000004116291474764265406_" x="102.2" y="19.1" width="11.5" height="30.6"/>
				</defs>
				<clipPath id="SVGID_00000066494720051653358800000009988575856485424019_">
					<use xlink:href="#SVGID_00000045593915607452916570000004116291474764265406_"  style="overflow:visible;"/>
				</clipPath>
				<path style="clip-path:url(#SVGID_00000066494720051653358800000009988575856485424019_);" d="M112.8,20.1h-9.5v9.5v9.5v0.5
					c0,4.5,4.8,9,9.5,9V20.1z"/>
			</g>
		</g>
	</g>
</g>
<g class="st2">
	<g>
		<defs>
			<rect id="SVGID_00000122679349182371184170000008500477286166908814_" x="73.7" y="28.6" width="30.6" height="11.5"/>
		</defs>
		<clipPath id="SVGID_00000148649571942071159590000008478973844148413346_">
			<use xlink:href="#SVGID_00000122679349182371184170000008500477286166908814_"  style="overflow:visible;"/>
		</clipPath>
		<defs>
			
				<filter id="Adobe_OpacityMaskFilter_00000070806251122174427580000002293835410521569705_" filterUnits="userSpaceOnUse" x="73.7" y="28.6" width="30.6" height="11.5">
				<feColorMatrix  type="matrix" values="1 0 0 0 0  0 1 0 0 0  0 0 1 0 0  0 0 0 1 0"/>
			</filter>
		</defs>
		
			<mask maskUnits="userSpaceOnUse" x="73.7" y="28.6" width="30.6" height="11.5" id="SVGID_00000154397197824671466870000017768110464726075011_">
			<g style="filter:url(#Adobe_OpacityMaskFilter_00000070806251122174427580000002293835410521569705_);">
				
					<linearGradient id="SVGID_00000082350198886475374810000007029533862334184605_" gradientUnits="userSpaceOnUse" x1="-596.8918" y1="1072.4915" x2="-595.8918" y2="1072.4915" gradientTransform="matrix(-28.5993 0 0 28.5993 -16967.4531 -30638.168)">
					<stop  offset="0" style="stop-color:#FFFFFF"/>
					<stop  offset="0.2" style="stop-color:#000000"/>
					<stop  offset="0.8869" style="stop-color:#000000"/>
					<stop  offset="1" style="stop-color:#000000"/>
				</linearGradient>
				
					<rect x="73.7" y="28.6" style="clip-path:url(#SVGID_00000148649571942071159590000008478973844148413346_);fill:url(#SVGID_00000082350198886475374810000007029533862334184605_);" width="30.6" height="11.5"/>
			</g>
		</mask>
		
			<g style="clip-path:url(#SVGID_00000148649571942071159590000008478973844148413346_);mask:url(#SVGID_00000154397197824671466870000017768110464726075011_);">
			<g>
				<defs>
					<rect id="SVGID_00000172402573483421964470000017766623180861175231_" x="73.7" y="28.6" width="30.6" height="11.5"/>
				</defs>
				<clipPath id="SVGID_00000020388730341470562670000013461984600552149919_">
					<use xlink:href="#SVGID_00000172402573483421964470000017766623180861175231_"  style="overflow:visible;"/>
				</clipPath>
				<path style="clip-path:url(#SVGID_00000020388730341470562670000013461984600552149919_);" d="M103.3,29.6H83.7
					c-4.5,0-9,4.8-9,9.5h28.6V29.6z"/>
			</g>
		</g>
	</g>
</g>
<g class="st2">
	<g>
		<defs>
			<rect id="SVGID_00000004514280099302867750000015709980779877117058_" x="83.2" width="11.5" height="30.6"/>
		</defs>
		<clipPath id="SVGID_00000147910711248563628640000003591271345995577744_">
			<use xlink:href="#SVGID_00000004514280099302867750000015709980779877117058_"  style="overflow:visible;"/>
		</clipPath>
		<defs>
			
				<filter id="Adobe_OpacityMaskFilter_00000116938761297556918800000012923224533959191740_" filterUnits="userSpaceOnUse" x="83.2" y="0" width="11.5" height="30.6">
				<feColorMatrix  type="matrix" values="1 0 0 0 0  0 1 0 0 0  0 0 1 0 0  0 0 0 1 0"/>
			</filter>
		</defs>
		
			<mask maskUnits="userSpaceOnUse" x="83.2" y="0" width="11.5" height="30.6" id="SVGID_00000174568222905740600270000001575818967357832110_">
			<g style="filter:url(#Adobe_OpacityMaskFilter_00000116938761297556918800000012923224533959191740_);">
				
					<linearGradient id="SVGID_00000003798005954928709910000003623085440999395991_" gradientUnits="userSpaceOnUse" x1="-650.5048" y1="1052.1503" x2="-649.5048" y2="1052.1503" gradientTransform="matrix(0 -28.5993 -28.5993 0 30179.7266 -18574.3926)">
					<stop  offset="0" style="stop-color:#FFFFFF"/>
					<stop  offset="0.2" style="stop-color:#000000"/>
					<stop  offset="0.8869" style="stop-color:#000000"/>
					<stop  offset="1" style="stop-color:#000000"/>
				</linearGradient>
				
					<rect x="83.2" y="0" style="clip-path:url(#SVGID_00000147910711248563628640000003591271345995577744_);fill:url(#SVGID_00000003798005954928709910000003623085440999395991_);" width="11.5" height="30.6"/>
			</g>
		</mask>
		
			<g style="clip-path:url(#SVGID_00000147910711248563628640000003591271345995577744_);mask:url(#SVGID_00000174568222905740600270000001575818967357832110_);">
			<g>
				<defs>
					<rect id="SVGID_00000109733202482937780950000000337214088249590197_" x="83.2" width="11.5" height="30.6"/>
				</defs>
				<clipPath id="SVGID_00000078750919360317585300000003834438368184262826_">
					<use xlink:href="#SVGID_00000109733202482937780950000000337214088249590197_"  style="overflow:visible;"/>
				</clipPath>
				<path style="clip-path:url(#SVGID_00000078750919360317585300000003834438368184262826_);" d="M84.2,1v28.6h9.5V10
					C93.7,5.5,89,1,84.2,1"/>
			</g>
		</g>
	</g>
</g>
<path d="M26.3,15.3h5.3c2.7,0,4,0.2,5.2,0.7c0.8,0.4,1.4,1,2,1.7c0.8,1.2,1.3,2.8,1.3,4.6c0,3-1.2,5.4-3.2,6.4
	c-1.2,0.6-2.3,0.8-5,0.8h-5.5V15.3z M31.7,26.9c2,0,2.7-0.1,3.4-0.4c0.4-0.2,0.7-0.5,1-0.9c0.6-0.8,0.8-1.8,0.8-3.2
	c0-2.1-0.7-3.5-2-4.1c-0.8-0.3-1.2-0.3-2.7-0.3h-2.8v8.9H31.7z"/>
<path d="M62.7,29.6c-4.2,0-7.2-3-7.2-7.1c0-4.1,3-7.1,7.2-7.1c4.2,0,7.2,3,7.2,7.1C69.9,26.6,66.9,29.6,62.7,29.6 M62.7,18
	c-2.4,0-4.1,1.9-4.1,4.5c0,2.6,1.7,4.5,4.1,4.5c2.4,0,4.1-1.9,4.1-4.5C66.8,19.8,65.1,18,62.7,18"/>
<path d="M22.8,29.6c1.4,0,2.5-1.2,2.5-2.7l-8.3,0v-3.3l4.7,0c1.3,0,2.4-1.2,2.4-2.6L17,21V18l5.4,0c1.4,0,2.5-1.2,2.5-2.7H14v14.3
	L22.8,29.6z"/>
<path d="M11.7,18.6c-0.4-1.2-1.3-2.2-2.6-2.7c-0.9-0.4-1.9-0.5-3.1-0.5c-0.3,0-0.5,0-0.8,0c-3,0.2-4.8,1.8-4.8,4.1
	c0,2.2,1.3,3.4,3.9,3.9l1.5,0.3C8.6,24.2,9,24.5,9,25.4c0,1-1.1,1.6-2.8,1.6c-1.2,0-2.1-0.3-2.7-0.9l0,0l-0.1-0.2l0,0
	c-0.9-0.9-2.4-0.9-3.4,0l0,0l0,0c0.5,1.7,1.5,2.8,3.2,3.3C4,29.5,5,29.6,6.1,29.6c0.3,0,0.6,0,0.9,0c3.3-0.2,5.2-1.8,5.2-4.4
	c0-1.1-0.3-2-1-2.7c-0.4-0.4-0.9-0.7-1.4-0.9c-0.8-0.3-1.2-0.4-2.9-0.8c-3.1-0.6-3.5-0.8-3.5-1.7c0-0.9,1-1.4,2.6-1.4
	c1,0,1.8,0.2,2.3,0.7l0.1,0.1l0,0l0,0C9.3,19.6,10.8,19.6,11.7,18.6L11.7,18.6z"/>
<path d="M51.1,26L51.1,26c-0.1,0.1-0.2,0.2-0.3,0.2c-0.6,0.5-1.4,0.8-2.4,0.8c-2.4,0-4-1.8-4-4.5c0-2.7,1.7-4.5,4.1-4.5
	c0.9,0,1.7,0.3,2.3,0.7l0,0c1.1,0.9,2.6,0.8,3.6-0.2l0,0c-0.5-0.9-1.2-1.7-2.2-2.3c-1-0.6-2.3-0.9-3.7-0.9c-0.3,0-0.6,0-0.9,0.1
	c-3.7,0.4-6.3,3.2-6.3,7.2c0,4.2,2.9,7.1,7.1,7.1c2.9,0,5.1-1.3,6.1-3.4l0,0C53.6,25.2,52.1,25.1,51.1,26"/>
<polygon class="st0" points="195.5,38.5 195.5,45.1 196.9,45.1 196.9,37.7 "/>
<polygon class="st0" points="4.6,40.7 1.5,40.7 1.5,37.8 0,37.8 0,45.1 1.5,45.1 1.5,41.9 4.6,41.9 4.6,45.1 6.2,45.1 6.2,37.8 
	4.6,37.8 "/>
<polygon class="st0" points="23.8,37.8 22.3,37.8 22.3,45.1 26.5,45.1 26.5,43.9 23.8,43.9 "/>
<rect x="45" y="37.8" class="st0" width="1.5" height="7.3"/>
<path class="st0" d="M34.2,44c-0.2,0-0.4,0-0.6-0.1V39c0.2,0,0.4-0.1,0.5-0.1c0.6,0,1.1,0.2,1.5,0.5c0.5,0.4,0.7,1.1,0.7,1.9
	C36.4,43.1,35.7,44,34.2,44 M34.2,37.8c-0.9,0-1.6,0-1.9,0.1v7c0.5,0.1,1.1,0.1,1.8,0.1c1.2,0,2.1-0.3,2.8-0.9
	c0.7-0.6,1.1-1.6,1.1-2.9c0-1-0.3-1.8-0.9-2.5C36.4,38.1,35.4,37.8,34.2,37.8"/>
<path class="st0" d="M15,43.3c-0.3,0.4-0.7,0.6-1.2,0.6c-1.1,0-1.7-0.8-1.7-2.4c0-0.8,0.1-1.4,0.4-1.8c0.3-0.4,0.7-0.7,1.2-0.7
	c0.5,0,0.9,0.2,1.2,0.6c0.3,0.5,0.5,1.1,0.5,1.9C15.4,42.3,15.3,42.9,15,43.3 M13.7,37.8c-1,0-1.7,0.3-2.3,1
	c-0.6,0.7-0.9,1.6-0.9,2.7c0,1,0.2,1.7,0.7,2.4c0.6,0.8,1.4,1.2,2.5,1.2c1,0,1.7-0.3,2.3-0.9c0.6-0.7,0.9-1.5,0.9-2.6
	c0-1-0.2-1.8-0.7-2.5C15.7,38.2,14.8,37.8,13.7,37.8"/>
</svg>
