<?xml version="1.0" encoding="utf-8"?>
<!-- Generator: Adobe Illustrator 26.1.0, SVG Export Plug-In . SVG Version: 6.00 Build 0)  -->
<svg version="1.1" id="Layer_1" xmlns="http://www.w3.org/2000/svg" xmlns:xlink="http://www.w3.org/1999/xlink" x="0px" y="0px"
	 viewBox="0 0 197 49.7" style="enable-background:new 0 0 197 49.7;" xml:space="preserve">
<style type="text/css">
	.st0{fill:#D29E0E;}
	.st1{fill:#FFFFFF;}
	.st2{opacity:0.25;}
	.st3{filter:url(#Adobe_OpacityMaskFilter);}
	
		.st4{clip-path:url(#SVGID_00000088094866310381721240000014057487214381028521_);fill:url(#SVGID_00000080186405338419014130000014647212503530461851_);}
	
		.st5{clip-path:url(#SVGID_00000088094866310381721240000014057487214381028521_);mask:url(#SVGID_00000096777703334355861240000018003335305254131386_);}
	.st6{clip-path:url(#SVGID_00000078732929914407693730000006993910300950941342_);}
	.st7{filter:url(#Adobe_OpacityMaskFilter_00000151528590339540136260000006311781523891226246_);}
	
		.st8{clip-path:url(#SVGID_00000022535142360800014660000006273712827329720215_);fill:url(#SVGID_00000149377211824524153960000014243592605478770604_);}
	
		.st9{clip-path:url(#SVGID_00000022535142360800014660000006273712827329720215_);mask:url(#SVGID_00000088814626807352522550000010016477331437482899_);}
	.st10{clip-path:url(#SVGID_00000127722757344919944120000003426512211601333126_);}
	.st11{filter:url(#Adobe_OpacityMaskFilter_00000109732872729436420150000012622214795901896327_);}
	
		.st12{clip-path:url(#SVGID_00000088132831674734728130000011322628978239800213_);fill:url(#SVGID_00000104697178681328706670000008088700197418482611_);}
	
		.st13{clip-path:url(#SVGID_00000088132831674734728130000011322628978239800213_);mask:url(#SVGID_00000085230830610748709920000012636264903802353045_);}
	.st14{clip-path:url(#SVGID_00000136406636723277853040000003336721211445822095_);}
	.st15{filter:url(#Adobe_OpacityMaskFilter_00000000216585742359088200000000540510937861555073_);}
	
		.st16{clip-path:url(#SVGID_00000147922817526948334010000001165256278547141794_);fill:url(#SVGID_00000141435178337607206750000011781857232209842344_);}
	
		.st17{clip-path:url(#SVGID_00000147922817526948334010000001165256278547141794_);mask:url(#SVGID_00000093135181581182087130000000159254878171578545_);}
	.st18{clip-path:url(#SVGID_00000048471035397651322610000005720968790139591341_);}
</style>
<path class="st0" d="M58.1,42.8c-1.2-1.8-2.4-3.5-3.7-5.1h-1.3v7.3h1.5v-4.9c1.7,2.4,2.9,4.1,3.7,4.9h1.3v-7.3h-1.5V42.8z"/>
<path class="st0" d="M67.3,41v1.3h1.3v1.5c-0.3,0.1-0.5,0.1-0.9,0.1c-0.5,0-0.9-0.2-1.3-0.6c-0.4-0.4-0.6-1-0.6-1.8
	c0-0.7,0.2-1.3,0.5-1.8c0.3-0.5,0.8-0.7,1.3-0.7c0.5,0,1,0.2,1.6,0.6l0.6-0.9c-0.6-0.6-1.4-0.9-2.2-0.9c-0.9,0-1.7,0.3-2.2,1
	c-0.6,0.7-0.9,1.6-0.9,2.7c0,0.9,0.2,1.7,0.6,2.3c0.6,0.9,1.4,1.3,2.5,1.3c0.8,0,1.7-0.2,2.5-0.7V41H67.3z"/>
<path class="st0" d="M93.7,20.1h9.5v9.5h-9.5V20.1z M93.7,10.5V10c0-4.5-4.8-9-9.5-9v28.6h-0.5c-4.5,0-9,4.8-9,9.5h28.6v0.5
	c0,4.5,4.8,9,9.5,9V20.1h0.5c4.5,0,9-4.8,9-9.5H93.7z"/>
<path class="st0" d="M128.4,39c0.5,0,0.7-0.2,0.7-0.7c0-0.2-0.1-0.4-0.2-0.5c-0.1-0.1-0.3-0.2-0.5-0.2c-0.5,0-0.7,0.2-0.7,0.7
	c0,0.2,0.1,0.4,0.2,0.5C128,38.9,128.2,39,128.4,39"/>
<path class="st0" d="M130.1,39c0.5,0,0.7-0.2,0.7-0.7c0-0.2-0.1-0.4-0.2-0.5c-0.1-0.1-0.3-0.2-0.5-0.2c-0.5,0-0.7,0.2-0.7,0.7
	c0,0.2,0.1,0.4,0.2,0.5C129.7,38.9,129.9,39,130.1,39"/>
<path class="st0" d="M161.3,39c0.5,0,0.7-0.2,0.7-0.7c0-0.2-0.1-0.4-0.2-0.5c-0.1-0.1-0.3-0.2-0.5-0.2c-0.2,0-0.4,0.1-0.5,0.2
	c-0.1,0.1-0.2,0.3-0.2,0.5c0,0.2,0.1,0.4,0.2,0.5C160.9,38.9,161.1,39,161.3,39"/>
<path class="st0" d="M162.8,43c0,0.3,0,0.5-0.1,0.6c-0.1,0.1-0.3,0.2-0.5,0.2h-3.4c0.3-0.7,0.7-1.3,1.2-1.8c0.5-0.4,1-0.7,1.6-0.7
	c0.4,0,0.7,0.1,1,0.4c0.2,0.3,0.4,0.6,0.4,1.1V43z M129.2,43.6c-0.3,0-0.5-0.1-0.6-0.3c-0.1-0.2-0.2-0.4-0.2-0.8
	c0-0.3,0.1-0.6,0.2-0.8c0.1-0.2,0.3-0.3,0.6-0.3c0.2,0,0.5,0.1,0.6,0.2v1.3c0,0.1,0,0.2,0,0.3C129.7,43.5,129.4,43.6,129.2,43.6
	 M169.9,43c0,0.3-0.1,0.5-0.2,0.6c-0.1,0.1-0.3,0.2-0.6,0.2h-0.3h-0.7h-0.6h-0.7h0.2h-0.7h-0.6h-1c-0.5,0-0.8-0.2-0.8-0.7v-0.2
	c0-0.7-0.2-1.4-0.7-1.9c-0.5-0.6-1.2-0.9-2.1-0.9c-1,0-1.8,0.4-2.5,1.1c-0.7,0.7-1.2,1.5-1.5,2.6c-0.4-0.1-0.6-0.3-0.6-0.8v-2.1
	l-1.4,0.7V43c0,0.3-0.1,0.5-0.2,0.6c-0.1,0.1-0.3,0.2-0.6,0.2h-1h-0.6h-0.7h-0.6h-0.7h-0.6h-0.7h-0.6h-0.7H148h-0.7h-0.6h-0.7h-0.6
	h-0.7h-0.6h-0.7H143h-0.7h-0.6h-0.7h-0.6h-0.7h-0.6h-0.7H138h-0.7h-0.6H136h-0.6h-0.7h-0.6h-0.7h-0.6h-1c-0.3,0-0.5-0.1-0.6-0.2
	c-0.1-0.1-0.2-0.3-0.2-0.6v-3.6l-1.4,0.7v0.3c-0.2-0.1-0.5-0.2-0.7-0.2c-0.5,0-1,0.2-1.4,0.6c-0.5,0.4-0.7,1-0.7,1.7
	c0,0.6,0.2,1.1,0.5,1.5c0.4,0.5,0.9,0.8,1.6,0.8c0.4,0,0.8-0.1,1.1-0.4c0.4,0.4,0.9,0.7,1.6,0.7h1.1h0.6h0.7h0.6h0.7h0.6h0.7h0.6
	h0.7h0.6h0.7h0.6h0.7h0.6h0.7h0.6h0.7h0.6h0.7h0.6h0.7h0.6h0.7h0.6h0.7h0.6h0.7h0.6h0.7h0.6h0.7h0.6h0.7h0.6h1.1
	c0.5,0,1-0.1,1.3-0.4c0.3,0.3,0.8,0.4,1.3,0.4h4.7c0.5,0,1-0.1,1.3-0.4c0.3,0.3,0.8,0.4,1.3,0.4h1.1h0.6h0.7h-0.2h0.7h0.6h0.7h0.5
	c0.6,0,1-0.2,1.4-0.5c0.4-0.4,0.6-0.9,0.6-1.5v-2.8l-1.4,0.7V43z"/>
<path class="st0" d="M169.7,46.1c-0.2,0-0.4,0.1-0.5,0.2c-0.1,0.1-0.2,0.3-0.2,0.5c0,0.2,0.1,0.4,0.2,0.5c0.1,0.1,0.3,0.2,0.5,0.2
	c0.5,0,0.7-0.2,0.7-0.7c0-0.2-0.1-0.4-0.2-0.5C170.1,46.1,170,46.1,169.7,46.1"/>
<path class="st0" d="M186.8,39c0.5,0,0.7-0.2,0.7-0.7c0-0.2-0.1-0.4-0.2-0.5c-0.1-0.1-0.3-0.2-0.5-0.2c-0.5,0-0.7,0.2-0.7,0.7
	c0,0.2,0.1,0.4,0.2,0.5C186.5,38.9,186.6,39,186.8,39"/>
<path class="st0" d="M188.5,39c0.5,0,0.7-0.2,0.7-0.7c0-0.2-0.1-0.4-0.2-0.5c-0.1-0.1-0.3-0.2-0.5-0.2c-0.5,0-0.7,0.2-0.7,0.7
	c0,0.2,0.1,0.4,0.2,0.5C188.1,38.9,188.3,39,188.5,39"/>
<path class="st0" d="M188.3,43.1c-0.2,0.2-0.4,0.4-0.6,0.5c-0.2-0.1-0.4-0.3-0.6-0.5c-0.2-0.2-0.2-0.5-0.2-0.8c0-0.7,0.3-1,0.8-1
	c0.3,0,0.5,0.1,0.6,0.3c0.1,0.2,0.2,0.4,0.2,0.7C188.5,42.6,188.4,42.9,188.3,43.1 M193.3,42.8c0,0.3-0.1,0.6-0.2,0.7
	c-0.1,0.1-0.4,0.2-0.7,0.2h0h-0.7h-0.6h-1.7c0.3-0.4,0.4-0.9,0.4-1.3c0-0.6-0.2-1.2-0.5-1.6c-0.4-0.5-0.9-0.8-1.7-0.8
	c-0.6,0-1.1,0.2-1.5,0.6c-0.4,0.4-0.6,1-0.6,1.7c0,0.5,0.1,0.9,0.4,1.3h-1.7h-0.6H183h-0.6h-0.7h-0.6h-0.7h-0.6h-0.7h-0.6h-0.7h-0.6
	h-0.7h-0.6h-0.7h-0.3c-0.3,0-0.5-0.1-0.6-0.2c-0.1-0.1-0.2-0.3-0.2-0.6v-5.3l-1.4,0.7v4.6c0,0.6,0.2,1,0.5,1.4
	c0.4,0.4,0.9,0.6,1.5,0.6h0.5h0.7h0.6h0.7h0.6h0.7h0.6h0.7h0.6h0.7h0.6h0.7h0.6h0.7h0.6h2.6c0.4,0,0.6,0,0.9-0.1
	c0.2,0.1,0.5,0.1,0.9,0.1h2.6h0.6h0.7h0.1c0.7,0,1.2-0.2,1.6-0.6c0.4-0.4,0.6-1,0.6-1.7v-5.1l-1.4,0.7V42.8z"/>
<path class="st1" d="M183.5,27.8c0.3,0.5,0.7,0.9,1.2,1.2c0.5,0.3,1.1,0.5,1.9,0.5c0.7,0,1.4-0.2,2-0.5c0.6-0.3,1.1-0.8,1.4-1.4
	c0,0,0,0,0.1,0h0l0.1,0c0.3,0.5,0.7,0.9,1.2,1.3c0.5,0.4,1.2,0.6,2,0.6h3.8v-8.5l0,0v-0.9c0-1.5-1.6-3-3.2-3.1v1.4l0,0v7.9
	c0,0,0,0.1-0.1,0.1h-0.4c-1,0-1.7-0.3-2.1-0.8c-0.4-0.5-0.6-1.2-0.6-1.9v-2.4l0,0v-1.1c0-1.5-1.6-3.1-3.2-3.1v1.4l0,0l0,6.3v0.9
	l0,0.6l0,0.1l-0.1,0h0l-0.5,0c-1,0-1.7-0.3-2.1-0.8c-0.4-0.5-0.6-1.2-0.6-1.9v-2.7l0,0v-0.8c0-1.5-1.6-3-3.2-3.1v4.2v3.5
	c0,0.5-0.1,0.8-0.2,1.1c-0.2,0.3-0.5,0.5-1,0.5l-1.5,0l-1.1,0c-0.9,0-1.6-0.3-2.1-0.8c-0.3-0.3-0.5-0.8-0.6-1.4
	c-0.3-4.4-4.8-8.7-9.1-8.7c-1.4,0-2.8,1.5-2.9,2.9h2.3l0,0h0.2c3.1,0,6.2,3.1,6.2,6.2l0,0.1c0,0.1,0,0.1,0,0.2c0,0.5-0.1,1-0.3,1.2
	c-0.2,0.2-0.5,0.4-1,0.4h-5.2l-1.1,0c-1.5,0-3,1.5-3,3.1h2.6l0,0h6.9c0.7,0,1.4-0.2,2.1-0.5c0.6-0.3,1.1-0.8,1.4-1.3l0.1,0h0l0.1,0
	c0.3,0.5,0.7,0.9,1.2,1.3c0.5,0.3,1.1,0.5,1.8,0.6c0.1,0,0.1,0,0.2,0h2.5c0.9,0,1.6-0.2,2.2-0.5c0.6-0.3,1.1-0.7,1.4-1.3L183.5,27.8
	L183.5,27.8L183.5,27.8z"/>
<path class="st1" d="M138.2,29.6"/>
<path class="st1" d="M138.5,26.4C138.5,26.4,138.5,26.5,138.5,26.4l-7.1,0.1c-0.4,0-0.7-0.2-1-0.5c-0.2-0.2-0.3-0.6-0.3-1.1
	c0,0,0-0.1,0-0.1c0,0,0-0.1,0-0.1c0-3,3-6,6-6.2c0.2,0,0.4,0,0.6,0c0.4,0,1.1,0.1,1.3,0.2c0.3,0.2,0.4,0.7,0.4,1.1V26.4z
	 M158.1,29.3c0.7-0.2,1.3-0.7,1.8-1.3c0.4-0.5,0.6-1.1,0.7-1.8l0-0.2c0.1-0.6,0.2-1.3,0.1-1.9c0-0.1,0-0.3-0.1-0.4
	c-0.1-0.4-0.2-0.8-0.3-1.1c-0.2-0.4-0.5-0.8-0.8-1.2c-0.6-0.7-1.3-1.3-2.2-1.8c-0.2-0.1-0.3-0.2-0.5-0.2c-1.4-0.6-3-0.9-5.1-0.9H148
	c0,0-0.1,0-0.1-0.1c0,0,0-0.1,0-0.1l4.3-3.6c0.6-0.6,1.1-1.4,1.1-2.4c0-0.8-0.2-1.5-0.6-2.1c-7.8,6.7-9.2,7.9-9.5,8.2v3.1h8.7
	c0.7,0,1.6,0,2.4,0.1c0.9,0.1,1.6,0.4,2.2,0.8c0.3,0.2,0.6,0.5,0.7,0.8c0.2,0.4,0.3,0.8,0.3,1.3c0,0.3,0,0.5-0.1,0.7
	c-0.1,0.2-0.2,0.4-0.3,0.6l0,0c-0.2,0.3-0.5,0.5-1,0.5h-14.5c0,0-0.1,0-0.1-0.1v-6.9c0-1.8-1.3-3.5-3-3.9c-0.7-0.2-1.4-0.3-2-0.3
	l0,0h-0.5c-2.6,0-5.1,1.1-6.8,3.1c-0.7,0.8-1,1.6-1.5,2.7c-0.6,1.5-0.8,3.1-0.6,4.5c0.2,1.2,0.7,2.7,2.1,3.4
	c0.9,0.5,1.7,0.5,2.6,0.5l0.2,0h0.2h3.1c0,0,0.1,0,0.3,0c0.4,0,1.2,0,1.8,0c0.5,0,0.6,0,0.7,0l0,0.1l0,0l0,0l0,0l0,0l0,0
	c-0.1,0.4-0.2,0.7-0.3,0.9c-0.2,0.4-0.6,0.7-0.9,0.9c-0.4,0.2-0.8,0.4-1.3,0.4c-0.4,0.1-0.9,0.1-1.4,0.1l-1.5,0l-1.1,0
	c-1.4,0-2.9,1.5-2.9,3h4l0,0l1.5,0c1,0,1.8-0.1,2.7-0.3c0.9-0.2,1.7-0.6,2.3-1.1c0.7-0.5,1.2-1.1,1.6-1.9c0.3-0.6,0.5-1.3,0.6-2.1
	c0,0,0-0.1,0.1-0.1h11c0.3,0,0.6,0,0.9,0s0.6,0,0.9,0c0.2,0,0.3,0,0.5,0c0.1,0,0.2,0,0.4,0c0.2,0,0.4,0,0.6,0
	C156.6,29.6,157.4,29.5,158.1,29.3"/>
<g class="st2">
	<g>
		<defs>
			<rect id="SVGID_1_" x="92.7" y="9.5" width="30.6" height="11.5"/>
		</defs>
		<clipPath id="SVGID_00000009591319652345568350000008103638143557971114_">
			<use xlink:href="#SVGID_1_"  style="overflow:visible;"/>
		</clipPath>
		<defs>
			<filter id="Adobe_OpacityMaskFilter" filterUnits="userSpaceOnUse" x="92.7" y="9.5" width="30.6" height="11.5">
				<feColorMatrix  type="matrix" values="1 0 0 0 0  0 1 0 0 0  0 0 1 0 0  0 0 0 1 0"/>
			</filter>
		</defs>
		
			<mask maskUnits="userSpaceOnUse" x="92.7" y="9.5" width="30.6" height="11.5" id="SVGID_00000115489351033677299700000012867875857243405751_">
			<g class="st3">
				
					<linearGradient id="SVGID_00000055691182975864203810000017034791191047639487_" gradientUnits="userSpaceOnUse" x1="-600.8354" y1="1055.3041" x2="-599.8354" y2="1055.3041" gradientTransform="matrix(28.5992 0 0 -28.5992 17277.1055 30196.1094)">
					<stop  offset="0" style="stop-color:#FFFFFF"/>
					<stop  offset="0.2" style="stop-color:#000000"/>
					<stop  offset="0.8869" style="stop-color:#000000"/>
					<stop  offset="1" style="stop-color:#000000"/>
				</linearGradient>
				
					<rect x="92.7" y="9.5" style="clip-path:url(#SVGID_00000009591319652345568350000008103638143557971114_);fill:url(#SVGID_00000055691182975864203810000017034791191047639487_);" width="30.6" height="11.5"/>
			</g>
		</mask>
		
			<g style="clip-path:url(#SVGID_00000009591319652345568350000008103638143557971114_);mask:url(#SVGID_00000115489351033677299700000012867875857243405751_);">
			<g>
				<defs>
					<rect id="SVGID_00000034083959004535378450000001092175674816233393_" x="92.7" y="9.5" width="30.6" height="11.5"/>
				</defs>
				<clipPath id="SVGID_00000000210552926355813140000009450192279137524630_">
					<use xlink:href="#SVGID_00000034083959004535378450000001092175674816233393_"  style="overflow:visible;"/>
				</clipPath>
				<path style="clip-path:url(#SVGID_00000000210552926355813140000009450192279137524630_);" d="M122.3,10.5H93.7v9.5h9.5h9.5h0.5
					C117.8,20.1,122.3,15.3,122.3,10.5"/>
			</g>
		</g>
	</g>
</g>
<g class="st2">
	<g>
		<defs>
			<rect id="SVGID_00000049188789078295958310000001167559468886636692_" x="102.2" y="19.1" width="11.5" height="30.6"/>
		</defs>
		<clipPath id="SVGID_00000158013738381803466000000012060092448602552466_">
			<use xlink:href="#SVGID_00000049188789078295958310000001167559468886636692_"  style="overflow:visible;"/>
		</clipPath>
		<defs>
			
				<filter id="Adobe_OpacityMaskFilter_00000071517938476366305370000011186691481022193337_" filterUnits="userSpaceOnUse" x="102.2" y="19.1" width="11.5" height="30.6">
				<feColorMatrix  type="matrix" values="1 0 0 0 0  0 1 0 0 0  0 0 1 0 0  0 0 0 1 0"/>
			</filter>
		</defs>
		
			<mask maskUnits="userSpaceOnUse" x="102.2" y="19.1" width="11.5" height="30.6" id="SVGID_00000088104293854178060910000013849400927610877344_">
			<g style="filter:url(#Adobe_OpacityMaskFilter_00000071517938476366305370000011186691481022193337_);">
				
					<linearGradient id="SVGID_00000062873292872704344310000006784779244644839047_" gradientUnits="userSpaceOnUse" x1="-548.0662" y1="1072.3428" x2="-547.0662" y2="1072.3428" gradientTransform="matrix(0 28.5993 28.5993 0 -30560.2305 15694.3711)">
					<stop  offset="0" style="stop-color:#FFFFFF"/>
					<stop  offset="0.2" style="stop-color:#000000"/>
					<stop  offset="0.8869" style="stop-color:#000000"/>
					<stop  offset="1" style="stop-color:#000000"/>
				</linearGradient>
				
					<rect x="102.2" y="19.1" style="clip-path:url(#SVGID_00000158013738381803466000000012060092448602552466_);fill:url(#SVGID_00000062873292872704344310000006784779244644839047_);" width="11.5" height="30.6"/>
			</g>
		</mask>
		
			<g style="clip-path:url(#SVGID_00000158013738381803466000000012060092448602552466_);mask:url(#SVGID_00000088104293854178060910000013849400927610877344_);">
			<g>
				<defs>
					<rect id="SVGID_00000034084871842274337360000009884014418367790977_" x="102.2" y="19.1" width="11.5" height="30.6"/>
				</defs>
				<clipPath id="SVGID_00000016037299101764553140000008139912332251515268_">
					<use xlink:href="#SVGID_00000034084871842274337360000009884014418367790977_"  style="overflow:visible;"/>
				</clipPath>
				<path style="clip-path:url(#SVGID_00000016037299101764553140000008139912332251515268_);" d="M112.8,20.1h-9.5v9.5v9.5v0.5
					c0,4.5,4.8,9,9.5,9V20.1z"/>
			</g>
		</g>
	</g>
</g>
<g class="st2">
	<g>
		<defs>
			<rect id="SVGID_00000040559753488026532880000005774361546313233799_" x="73.7" y="28.6" width="30.6" height="11.5"/>
		</defs>
		<clipPath id="SVGID_00000100350959482224903490000004052571224814088615_">
			<use xlink:href="#SVGID_00000040559753488026532880000005774361546313233799_"  style="overflow:visible;"/>
		</clipPath>
		<defs>
			
				<filter id="Adobe_OpacityMaskFilter_00000086658028427354647600000005842243783070407328_" filterUnits="userSpaceOnUse" x="73.7" y="28.6" width="30.6" height="11.5">
				<feColorMatrix  type="matrix" values="1 0 0 0 0  0 1 0 0 0  0 0 1 0 0  0 0 0 1 0"/>
			</filter>
		</defs>
		
			<mask maskUnits="userSpaceOnUse" x="73.7" y="28.6" width="30.6" height="11.5" id="SVGID_00000016788757487382080190000004946074658671690657_">
			<g style="filter:url(#Adobe_OpacityMaskFilter_00000086658028427354647600000005842243783070407328_);">
				
					<linearGradient id="SVGID_00000012443036519062522430000011925900807708588694_" gradientUnits="userSpaceOnUse" x1="-565.4381" y1="1125.1119" x2="-564.4381" y2="1125.1119" gradientTransform="matrix(-28.5993 0 0 28.5993 -16067.8994 -32143.0781)">
					<stop  offset="0" style="stop-color:#FFFFFF"/>
					<stop  offset="0.2" style="stop-color:#000000"/>
					<stop  offset="0.8869" style="stop-color:#000000"/>
					<stop  offset="1" style="stop-color:#000000"/>
				</linearGradient>
				
					<rect x="73.7" y="28.6" style="clip-path:url(#SVGID_00000100350959482224903490000004052571224814088615_);fill:url(#SVGID_00000012443036519062522430000011925900807708588694_);" width="30.6" height="11.5"/>
			</g>
		</mask>
		
			<g style="clip-path:url(#SVGID_00000100350959482224903490000004052571224814088615_);mask:url(#SVGID_00000016788757487382080190000004946074658671690657_);">
			<g>
				<defs>
					<rect id="SVGID_00000007396383436972304330000016323580085102871171_" x="73.7" y="28.6" width="30.6" height="11.5"/>
				</defs>
				<clipPath id="SVGID_00000085930388755628351860000014906089254521230762_">
					<use xlink:href="#SVGID_00000007396383436972304330000016323580085102871171_"  style="overflow:visible;"/>
				</clipPath>
				<path style="clip-path:url(#SVGID_00000085930388755628351860000014906089254521230762_);" d="M103.3,29.6H83.7
					c-4.5,0-9,4.8-9,9.5h28.6V29.6z"/>
			</g>
		</g>
	</g>
</g>
<g class="st2">
	<g>
		<defs>
			<rect id="SVGID_00000037650662728077566400000014331022055343728526_" x="83.2" width="11.5" height="30.6"/>
		</defs>
		<clipPath id="SVGID_00000008121832658046425760000013420597800858330779_">
			<use xlink:href="#SVGID_00000037650662728077566400000014331022055343728526_"  style="overflow:visible;"/>
		</clipPath>
		<defs>
			
				<filter id="Adobe_OpacityMaskFilter_00000064329220649981662910000014256972205707057304_" filterUnits="userSpaceOnUse" x="83.2" y="0" width="11.5" height="30.6">
				<feColorMatrix  type="matrix" values="1 0 0 0 0  0 1 0 0 0  0 0 1 0 0  0 0 0 1 0"/>
			</filter>
		</defs>
		
			<mask maskUnits="userSpaceOnUse" x="83.2" y="0" width="11.5" height="30.6" id="SVGID_00000018229598296829251460000013425275747949243272_">
			<g style="filter:url(#Adobe_OpacityMaskFilter_00000064329220649981662910000014256972205707057304_);">
				
					<linearGradient id="SVGID_00000044884149574435146640000013279755232063763603_" gradientUnits="userSpaceOnUse" x1="-618.2072" y1="1107.7401" x2="-617.2072" y2="1107.7401" gradientTransform="matrix(0 -28.5993 -28.5993 0 31769.5547 -17650.7031)">
					<stop  offset="0" style="stop-color:#FFFFFF"/>
					<stop  offset="0.2" style="stop-color:#000000"/>
					<stop  offset="0.8869" style="stop-color:#000000"/>
					<stop  offset="1" style="stop-color:#000000"/>
				</linearGradient>
				
					<rect x="83.2" y="0" style="clip-path:url(#SVGID_00000008121832658046425760000013420597800858330779_);fill:url(#SVGID_00000044884149574435146640000013279755232063763603_);" width="11.5" height="30.6"/>
			</g>
		</mask>
		
			<g style="clip-path:url(#SVGID_00000008121832658046425760000013420597800858330779_);mask:url(#SVGID_00000018229598296829251460000013425275747949243272_);">
			<g>
				<defs>
					<rect id="SVGID_00000028304759717597165330000011017879415693071492_" x="83.2" width="11.5" height="30.6"/>
				</defs>
				<clipPath id="SVGID_00000013877373606321249260000007879810249179556010_">
					<use xlink:href="#SVGID_00000028304759717597165330000011017879415693071492_"  style="overflow:visible;"/>
				</clipPath>
				<path style="clip-path:url(#SVGID_00000013877373606321249260000007879810249179556010_);" d="M84.2,1v28.6h9.5V10
					C93.7,5.5,89,1,84.2,1"/>
			</g>
		</g>
	</g>
</g>
<path class="st1" d="M26.3,15.3h5.3c2.7,0,4,0.2,5.2,0.7c0.8,0.4,1.4,1,2,1.7c0.8,1.2,1.3,2.8,1.3,4.6c0,3-1.2,5.4-3.2,6.4
	c-1.2,0.6-2.3,0.8-5,0.8h-5.5V15.3z M31.7,26.9c2,0,2.7-0.1,3.4-0.4c0.4-0.2,0.7-0.5,1-0.9c0.6-0.8,0.8-1.8,0.8-3.2
	c0-2.1-0.7-3.5-2-4.1c-0.8-0.3-1.2-0.3-2.7-0.3h-2.8v8.9H31.7z"/>
<path class="st1" d="M62.7,29.6c-4.2,0-7.2-3-7.2-7.1c0-4.1,3-7.1,7.2-7.1c4.2,0,7.2,3,7.2,7.1C69.9,26.6,66.9,29.6,62.7,29.6
	 M62.7,18c-2.4,0-4.1,1.9-4.1,4.5c0,2.6,1.7,4.5,4.1,4.5c2.4,0,4.1-1.9,4.1-4.5C66.8,19.8,65.1,18,62.7,18"/>
<path class="st1" d="M22.8,29.6c1.4,0,2.5-1.2,2.5-2.7l-8.3,0v-3.3l4.7,0c1.3,0,2.4-1.2,2.4-2.6L17,21V18l5.4,0
	c1.4,0,2.5-1.2,2.5-2.7H14v14.3L22.8,29.6z"/>
<path class="st1" d="M11.7,18.6c-0.4-1.2-1.3-2.2-2.6-2.7c-0.9-0.4-1.9-0.5-3.1-0.5c-0.3,0-0.5,0-0.8,0c-3,0.2-4.8,1.8-4.8,4.1
	c0,2.2,1.3,3.4,3.9,3.9l1.5,0.3C8.6,24.2,9,24.5,9,25.4c0,1-1.1,1.6-2.8,1.6c-1.2,0-2.1-0.3-2.7-0.9l0,0l-0.1-0.2l0,0
	c-0.9-0.9-2.4-0.9-3.4,0l0,0l0,0c0.5,1.7,1.5,2.8,3.2,3.3C4,29.5,5,29.6,6.1,29.6c0.3,0,0.6,0,0.9,0c3.3-0.2,5.2-1.8,5.2-4.4
	c0-1.1-0.3-2-1-2.7c-0.4-0.4-0.9-0.7-1.4-0.9c-0.8-0.3-1.2-0.4-2.9-0.8c-3.1-0.6-3.5-0.8-3.5-1.7c0-0.9,1-1.4,2.6-1.4
	c1,0,1.8,0.2,2.3,0.7l0.1,0.1l0,0l0,0C9.3,19.6,10.8,19.6,11.7,18.6L11.7,18.6z"/>
<path class="st1" d="M51.1,26L51.1,26c-0.1,0.1-0.2,0.2-0.3,0.2c-0.6,0.5-1.4,0.8-2.4,0.8c-2.4,0-4-1.8-4-4.5c0-2.7,1.7-4.5,4.1-4.5
	c0.9,0,1.7,0.3,2.3,0.7l0,0c1.1,0.9,2.6,0.8,3.6-0.2l0,0c-0.5-0.9-1.2-1.7-2.2-2.3c-1-0.6-2.3-0.9-3.7-0.9c-0.3,0-0.6,0-0.9,0.1
	c-3.7,0.4-6.3,3.2-6.3,7.2c0,4.2,2.9,7.1,7.1,7.1c2.9,0,5.1-1.3,6.1-3.4l0,0C53.6,25.2,52.1,25.1,51.1,26"/>
<polygon class="st0" points="195.5,38.5 195.5,45.1 196.9,45.1 196.9,37.7 "/>
<polygon class="st0" points="4.6,40.7 1.5,40.7 1.5,37.8 0,37.8 0,45.1 1.5,45.1 1.5,41.9 4.6,41.9 4.6,45.1 6.2,45.1 6.2,37.8 
	4.6,37.8 "/>
<polygon class="st0" points="23.8,37.8 22.3,37.8 22.3,45.1 26.5,45.1 26.5,43.9 23.8,43.9 "/>
<rect x="45" y="37.8" class="st0" width="1.5" height="7.3"/>
<path class="st0" d="M34.2,44c-0.2,0-0.4,0-0.6-0.1V39c0.2,0,0.4-0.1,0.5-0.1c0.6,0,1.1,0.2,1.5,0.5c0.5,0.4,0.7,1.1,0.7,1.9
	C36.4,43.1,35.7,44,34.2,44 M34.2,37.8c-0.9,0-1.6,0-1.9,0.1v7c0.5,0.1,1.1,0.1,1.8,0.1c1.2,0,2.1-0.3,2.8-0.9
	c0.7-0.6,1.1-1.6,1.1-2.9c0-1-0.3-1.8-0.9-2.5C36.4,38.1,35.4,37.8,34.2,37.8"/>
<path class="st0" d="M15,43.3c-0.3,0.4-0.7,0.6-1.2,0.6c-1.1,0-1.7-0.8-1.7-2.4c0-0.8,0.1-1.4,0.4-1.8c0.3-0.4,0.7-0.7,1.2-0.7
	c0.5,0,0.9,0.2,1.2,0.6c0.3,0.5,0.5,1.1,0.5,1.9C15.4,42.3,15.3,42.9,15,43.3 M13.7,37.8c-1,0-1.7,0.3-2.3,1
	c-0.6,0.7-0.9,1.6-0.9,2.7c0,1,0.2,1.7,0.7,2.4c0.6,0.8,1.4,1.2,2.5,1.2c1,0,1.7-0.3,2.3-0.9c0.6-0.7,0.9-1.5,0.9-2.6
	c0-1-0.2-1.8-0.7-2.5C15.7,38.2,14.8,37.8,13.7,37.8"/>
</svg>
