<svg width="27" height="17" viewBox="0 0 27 17" fill="none" xmlns="http://www.w3.org/2000/svg">
<path d="M14.5321 16.0707L26.3248 3.19768C26.5459 2.9561 26.6701 2.62853 26.6699 2.28703C26.6698 1.94553 26.5454 1.61808 26.3241 1.37672C26.1028 1.13535 25.8027 0.999847 25.4898 1C25.177 1.00015 24.877 1.13595 24.6559 1.37754L13.6947 13.3429L2.73195 1.37754C2.62237 1.25802 2.49229 1.16324 2.34916 1.0986C2.20602 1.03396 2.05262 1.00073 1.89772 1.00081C1.74282 1.00088 1.58945 1.03427 1.44637 1.09905C1.30328 1.16382 1.17328 1.25872 1.0638 1.37834C0.954319 1.49796 0.867493 1.63996 0.808279 1.79621C0.749063 1.95246 0.718622 2.1199 0.718691 2.28899C0.718761 2.45808 0.74934 2.62551 0.808683 2.7817C0.868025 2.93789 0.954967 3.07979 1.06455 3.19931L12.8572 16.0723C12.9668 16.1921 13.0968 16.287 13.24 16.3518C13.3832 16.4166 13.5367 16.45 13.6917 16.45C13.8467 16.45 14.0002 16.4166 14.1434 16.3518C14.2865 16.287 14.4166 16.1921 14.5261 16.0723L14.5321 16.0707Z" fill="white" stroke="#181E47" stroke-width="0.5"/>
</svg>
