<?xml version="1.0" encoding="UTF-8"?>
<svg xmlns="http://www.w3.org/2000/svg" xmlns:xlink="http://www.w3.org/1999/xlink" id="Layer_2" data-name="Layer 2" viewBox="0 0 174.2 44.15">
  <defs>
    <style>      .cls-1 {        fill: url(#linear-gradient);      }      .cls-1, .cls-2, .cls-3, .cls-4, .cls-5, .cls-6, .cls-7 {        stroke-width: 0px;      }      .cls-2 {        fill: #d19d0e;      }      .cls-8 {        mask: url(#mask-2);      }      .cls-9 {        clip-path: url(#clippath-2);      }      .cls-10 {        clip-path: url(#clippath-6);      }      .cls-11 {        mask: url(#mask-3);      }      .cls-4 {        fill: none;      }      .cls-12 {        clip-path: url(#clippath-7);      }      .cls-13 {        clip-path: url(#clippath-1);      }      .cls-14 {        clip-path: url(#clippath-4);      }      .cls-5 {        fill: url(#linear-gradient-2);      }      .cls-6 {        fill: url(#linear-gradient-3);      }      .cls-15 {        clip-path: url(#clippath);      }      .cls-16 {        clip-path: url(#clippath-3);      }      .cls-17 {        mask: url(#mask-1);      }      .cls-18 {        mask: url(#mask);      }      .cls-19 {        clip-path: url(#clippath-5);      }      .cls-7 {        fill: url(#linear-gradient-4);      }      .cls-20 {        opacity: .25;      }    </style>
    <clipPath id="clippath">
      <rect class="cls-4" x="81.88" y="8.43" width="27.29" height="10.43"></rect>
    </clipPath>
    <linearGradient id="linear-gradient" x1="-55.85" y1="5563.48" x2="-54.85" y2="5563.48" gradientTransform="translate(1495.3 140721.18) scale(25.29 -25.29)" gradientUnits="userSpaceOnUse">
      <stop offset="0" stop-color="#fff"></stop>
      <stop offset=".2" stop-color="#000"></stop>
      <stop offset=".89" stop-color="#000"></stop>
      <stop offset="1" stop-color="#000"></stop>
    </linearGradient>
    <mask id="mask" x="81.88" y="8.43" width="27.29" height="10.43" maskUnits="userSpaceOnUse">
      <rect class="cls-1" x="81.88" y="8.43" width="27.29" height="10.43"></rect>
    </mask>
    <clipPath id="clippath-1">
      <rect class="cls-4" x="81.88" y="8.43" width="27.29" height="10.43"></rect>
    </clipPath>
    <clipPath id="clippath-2">
      <rect class="cls-4" x="90.31" y="16.86" width="10.43" height="27.29"></rect>
    </clipPath>
    <linearGradient id="linear-gradient-2" x1="-60.6" y1="5556.45" x2="-59.6" y2="5556.45" gradientTransform="translate(-140434.97 1550.56) rotate(90) scale(25.29 -25.29)" xlink:href="#linear-gradient"></linearGradient>
    <mask id="mask-1" x="90.31" y="16.86" width="10.43" height="27.29" maskUnits="userSpaceOnUse">
      <rect class="cls-5" x="90.31" y="16.86" width="10.43" height="27.29"></rect>
    </mask>
    <clipPath id="clippath-3">
      <rect class="cls-4" x="90.31" y="16.86" width="10.43" height="27.29"></rect>
    </clipPath>
    <clipPath id="clippath-4">
      <rect class="cls-4" x="65.02" y="25.29" width="27.29" height="10.43"></rect>
    </clipPath>
    <linearGradient id="linear-gradient-3" x1="-53.91" y1="5551.7" x2="-52.91" y2="5551.7" gradientTransform="translate(-1272.13 -140379.9) rotate(-180) scale(25.29 -25.29)" xlink:href="#linear-gradient"></linearGradient>
    <mask id="mask-2" x="65.02" y="25.29" width="27.29" height="10.43" maskUnits="userSpaceOnUse">
      <rect class="cls-6" x="65.02" y="25.29" width="27.29" height="10.43"></rect>
    </mask>
    <clipPath id="clippath-5">
      <rect class="cls-4" x="65.02" y="25.29" width="27.29" height="10.43"></rect>
    </clipPath>
    <clipPath id="clippath-6">
      <rect class="cls-4" x="73.45" width="10.43" height="27.29"></rect>
    </clipPath>
    <linearGradient id="linear-gradient-4" x1="-49.15" y1="5558.39" x2="-48.15" y2="5558.39" gradientTransform="translate(140658.25 -1216.88) rotate(-90) scale(25.29 -25.29)" xlink:href="#linear-gradient"></linearGradient>
    <mask id="mask-3" x="73.45" y="0" width="10.43" height="27.29" maskUnits="userSpaceOnUse">
      <rect class="cls-7" x="73.45" y="0" width="10.43" height="27.29"></rect>
    </mask>
    <clipPath id="clippath-7">
      <rect class="cls-4" x="73.45" width="10.43" height="27.29"></rect>
    </clipPath>
  </defs>
  <g id="Layer_1-2" data-name="Layer 1">
    <path class="cls-3" d="m23.27,13.67h4.66c2.42,0,3.5.15,4.57.66.69.34,1.28.85,1.75,1.52.75,1.1,1.14,2.44,1.14,4.09,0,2.62-1.07,4.74-2.83,5.65-1.09.55-2.07.7-4.42.7h-4.87v-12.62Zm4.73,10.23c1.77,0,2.4-.09,3.03-.39.33-.17.63-.44.88-.78.51-.72.73-1.59.73-2.79,0-1.89-.59-3.12-1.75-3.58-.67-.24-1.02-.3-2.4-.3h-2.51v7.84h2.02Z"></path>
    <path class="cls-3" d="m55.48,26.29c-3.68,0-6.36-2.63-6.36-6.3s2.68-6.32,6.36-6.32,6.35,2.67,6.35,6.32-2.67,6.3-6.35,6.3m0-10.27c-2.12,0-3.61,1.64-3.61,3.97s1.49,3.97,3.61,3.97,3.61-1.64,3.61-3.97-1.49-3.97-3.61-3.97"></path>
    <path class="cls-3" d="m20.13,26.29c1.21,0,2.2-1.08,2.21-2.42h-7.3s0-2.91,0-2.91h4.16c1.17,0,2.12-1.03,2.13-2.31h-6.29s0-2.59,0-2.59h4.79c1.2,0,2.18-1.06,2.19-2.39h-9.66v12.62h7.77Z"></path>
    <path class="cls-3" d="m10.39,16.55c-.39-1.1-1.18-1.92-2.33-2.4-.76-.32-1.67-.48-2.73-.48-.24,0-.47.01-.7.03-2.65.2-4.27,1.56-4.27,3.64,0,1.91,1.12,3.03,3.47,3.49l1.31.25c2.44.47,2.86.67,2.86,1.48,0,.86-.98,1.43-2.51,1.43-1.04,0-1.85-.29-2.35-.82l-.03-.03-.13-.14h0c-.81-.84-2.13-.83-2.96,0h0s.01.02.01.02c.4,1.51,1.33,2.48,2.85,2.94.71.22,1.55.33,2.52.33.27,0,.52-.01.76-.03,2.9-.2,4.6-1.6,4.6-3.85,0-.96-.3-1.77-.84-2.35-.33-.34-.76-.61-1.25-.81-.68-.27-1.03-.36-2.58-.67-2.73-.54-3.07-.7-3.07-1.46s.88-1.23,2.26-1.23c.92,0,1.6.2,2.06.6l.06.06.03.03h0c.81.84,2.13.83,2.97,0v-.03Z"></path>
    <path class="cls-3" d="m45.21,23.07l-.02.02c-.07.07-.14.14-.21.2-.54.45-1.26.68-2.15.68-2.12,0-3.56-1.57-3.56-3.94s1.47-4.01,3.61-4.01c.84,0,1.55.23,2.07.65h.03c.93.79,2.31.72,3.19-.18h0c-.42-.84-1.09-1.52-1.94-2-.92-.52-2.05-.81-3.32-.81-.29,0-.57.02-.84.05-3.32.36-5.56,2.86-5.56,6.33,0,3.74,2.54,6.25,6.31,6.25,2.57,0,4.53-1.11,5.43-3.02v-.02c-.85-.86-2.17-.92-3.06-.19"></path>
    <polygon class="cls-2" points="4.11 36.12 1.32 36.12 1.32 33.52 0 33.52 0 40 1.32 40 1.32 37.2 4.11 37.2 4.11 40 5.45 40 5.45 33.52 4.11 33.52 4.11 36.12"></polygon>
    <path class="cls-2" d="m13.25,38.38c-.26.36-.62.54-1.1.54-.99,0-1.49-.69-1.49-2.08,0-.7.13-1.24.39-1.63.26-.39.63-.58,1.1-.58.44,0,.79.18,1.06.53.28.4.42.96.42,1.68,0,.67-.13,1.18-.39,1.54m-1.1-4.86c-.85,0-1.53.3-2.04.9-.53.63-.8,1.43-.8,2.42,0,.84.2,1.54.61,2.1.51.71,1.25,1.06,2.22,1.06.85,0,1.53-.28,2.03-.83.53-.58.8-1.36.8-2.34,0-.85-.2-1.57-.61-2.17-.52-.76-1.26-1.15-2.22-1.15"></path>
    <polygon class="cls-2" points="21.05 33.52 19.7 33.52 19.7 40 23.48 40 23.48 38.93 21.05 38.93 21.05 33.52"></polygon>
    <path class="cls-2" d="m30.28,38.99c-.2,0-.36-.02-.49-.05v-4.33c.16-.03.31-.05.46-.05.53,0,.96.16,1.3.47.42.39.63.96.63,1.71,0,1.5-.64,2.25-1.91,2.25m-.08-5.47c-.82,0-1.39.04-1.71.13v6.23c.43.09.97.13,1.63.13,1.05,0,1.86-.26,2.45-.77.65-.56.97-1.41.97-2.54,0-.9-.25-1.63-.76-2.19-.59-.66-1.45-.99-2.58-.99"></path>
    <rect class="cls-2" x="39.79" y="33.52" width="1.32" height="6.48"></rect>
    <path class="cls-2" d="m51.4,38c-1.08-1.56-2.17-3.05-3.26-4.47h-1.12v6.48h1.32v-4.34c1.52,2.14,2.61,3.58,3.25,4.34h1.15v-6.48h-1.34v4.47Z"></path>
    <path class="cls-2" d="m59.48,36.36v1.12h1.12v1.29c-.23.09-.48.13-.76.13-.44,0-.82-.16-1.13-.49-.38-.39-.56-.93-.56-1.6,0-.63.15-1.15.44-1.57.29-.41.66-.62,1.11-.62s.91.17,1.38.51l.5-.82c-.57-.53-1.23-.8-1.97-.8-.8,0-1.46.3-1.98.89-.55.62-.83,1.42-.83,2.37,0,.82.18,1.51.55,2.07.49.77,1.23,1.15,2.22,1.15.72,0,1.47-.21,2.24-.64v-3h-2.34Z"></path>
    <path class="cls-2" d="m82.88,17.86h8.43v8.43h-8.43v-8.43Zm0-8.43v-.43c0-4-4.22-8-8.43-8v25.29h-.43c-4,0-8,4.21-8,8.43h25.29v.43c0,4,4.22,8,8.43,8v-25.29h.43c4,0,8-4.22,8-8.43h-25.29Z"></path>
    <path class="cls-2" d="m113.57,34.59c.42,0,.62-.21.62-.64,0-.19-.06-.34-.17-.46-.11-.11-.26-.17-.46-.17-.42,0-.63.21-.63.62,0,.2.06.36.17.47.12.12.27.17.46.17"></path>
    <path class="cls-2" d="m115.05,34.59c.42,0,.62-.21.62-.64,0-.19-.06-.34-.17-.46-.11-.11-.26-.17-.46-.17-.42,0-.63.21-.63.62,0,.2.06.36.17.47.12.12.27.17.46.17"></path>
    <path class="cls-2" d="m142.66,34.59c.42,0,.62-.21.62-.64,0-.19-.06-.34-.17-.46-.11-.11-.26-.17-.46-.17s-.35.06-.46.17c-.11.12-.17.27-.17.45,0,.2.06.36.17.47.12.12.27.17.46.17"></path>
    <path class="cls-2" d="m143.93,38.13c0,.27-.04.45-.13.55-.09.1-.24.15-.48.15h-2.99c.25-.66.59-1.18,1.02-1.56.43-.38.9-.58,1.4-.58.35,0,.63.12.85.36.22.24.33.56.33.94v.13Zm-29.7.56c-.22,0-.4-.08-.53-.25-.13-.17-.19-.39-.19-.67s.07-.51.2-.68c.13-.17.3-.26.51-.26s.4.07.57.21v1.16c0,.11,0,.19,0,.24-.13.17-.32.25-.57.25m36.04-.55c0,.25-.05.43-.15.53-.1.11-.27.16-.52.16h-1.98.18-1.98c-.45,0-.67-.21-.67-.63v-.2c0-.65-.19-1.2-.58-1.64-.46-.52-1.06-.79-1.82-.79-.85,0-1.6.33-2.25.98-.59.58-1.04,1.34-1.35,2.28-.33-.04-.49-.27-.49-.68v-1.9l-1.21.63v1.27c0,.25-.05.43-.15.53-.1.11-.28.16-.52.16h-20.1c-.24,0-.42-.05-.52-.16-.11-.1-.16-.28-.16-.53v-3.2l-1.2.63v.25c-.2-.09-.42-.13-.65-.13-.46,0-.86.17-1.2.5-.41.4-.62.91-.62,1.55,0,.51.14.95.43,1.31.35.44.82.66,1.41.66.4,0,.73-.11,1.01-.32.33.4.79.59,1.38.59h20.34c.47,0,.85-.12,1.16-.37.31.25.69.37,1.16.37h4.15c.47,0,.85-.12,1.16-.37.31.25.7.37,1.16.37h2.1-.18,2.1c.51,0,.92-.14,1.23-.43.36-.33.54-.78.54-1.36v-2.47l-1.21.63v1.78Z"></path>
    <path class="cls-2" d="m150.11,40.85c-.19,0-.35.06-.46.17-.12.11-.17.27-.17.45,0,.2.06.35.17.47.12.12.27.17.46.17.42,0,.62-.21.62-.64,0-.19-.06-.34-.17-.46-.11-.11-.26-.17-.46-.17"></path>
    <path class="cls-2" d="m165.23,34.59c.42,0,.62-.21.62-.64,0-.19-.06-.34-.17-.46-.11-.11-.26-.17-.46-.17-.42,0-.63.21-.63.62,0,.2.06.36.17.47.12.12.27.17.46.17"></path>
    <path class="cls-2" d="m166.71,34.59c.42,0,.62-.21.62-.64,0-.19-.06-.34-.17-.46-.11-.11-.26-.17-.46-.17-.42,0-.63.21-.63.62,0,.2.06.36.17.47.12.12.27.17.46.17"></path>
    <path class="cls-2" d="m166.5,38.25c-.14.21-.32.37-.53.48-.21-.1-.38-.25-.52-.47-.13-.21-.2-.45-.2-.7,0-.58.24-.87.73-.87.22,0,.4.08.53.24.13.16.2.37.2.65,0,.24-.07.46-.21.68m4.48-.26c0,.31-.06.52-.19.65-.12.13-.34.19-.63.19h-2.66c.24-.39.36-.79.36-1.19,0-.56-.14-1.02-.43-1.39-.35-.45-.83-.68-1.46-.68-.55,0-1,.18-1.34.53-.38.39-.57.91-.57,1.55,0,.4.12.8.36,1.19h-9.61c-.24,0-.42-.05-.52-.16-.1-.11-.15-.28-.15-.53v-4.65l-1.21.63v4.07c0,.51.14.92.41,1.24.32.37.77.56,1.35.56h10.5c.31,0,.57-.02.77-.07.18.04.44.07.77.07h3.49c.58,0,1.04-.17,1.38-.51.38-.37.57-.87.57-1.49v-4.5l-1.2.64v3.85Z"></path>
    <polygon class="cls-2" points="172.93 34.14 172.93 40 174.14 40 174.14 33.5 172.93 34.14"></polygon>
    <path class="cls-3" d="m162.31,24.69c.24.41.58.78,1.02,1.09.41.29.97.45,1.66.47.65-.02,1.23-.16,1.73-.4.54-.27.96-.67,1.24-1.21.01-.02.04-.04.06-.04h0l.06.04c.24.41.58.79,1.02,1.12.44.33,1.02.5,1.73.5h3.35v-7.51h0v-.78c0-1.32-1.4-2.67-2.8-2.72v1.23h0v6.97s-.03.07-.07.07h-.39c-.88,0-1.5-.24-1.86-.71-.34-.44-.51-1.02-.51-1.7v-2.11h0v-1.01c0-1.34-1.42-2.7-2.83-2.75v1.26s0,5.61,0,5.61v.8s0,.53,0,.53l-.02.05-.05.02h-.47c-.88,0-1.5-.24-1.86-.71-.34-.44-.51-1.02-.51-1.7v-2.37h0v-.75c0-1.34-1.41-2.7-2.82-2.74v6.87c0,.41-.06.74-.19.99-.14.26-.46.41-.87.41h-1.29s-.93-.03-.93-.03c-.81,0-1.45-.26-1.85-.74-.25-.3-.42-.7-.5-1.2-.27-3.91-4.24-7.73-8.02-7.73-1.23,0-2.48,1.3-2.53,2.59h2.01s.18,0,.18,0c2.72,0,5.51,2.78,5.51,5.52v.05s0,.09,0,.14c0,.48-.08.88-.22,1.08-.15.22-.44.33-.87.33h-5.57c-1.3,0-2.62,1.37-2.66,2.73h2.3s6.14,0,6.14,0c.62,0,1.21-.16,1.83-.48.53-.28.95-.67,1.24-1.18l.06-.04h0l.06.04c.25.42.62.8,1.07,1.12.43.3,1,.49,1.6.52.07.01.13.02.19.02h2.23c.77,0,1.44-.14,1.99-.41.55-.27.97-.66,1.26-1.16l.06-.04.06.04Z"></path>
    <path class="cls-3" d="m122.47,23.45s-.03.07-.07.07h-6.24c-.34,0-.63-.16-.84-.47-.15-.21-.22-.54-.22-.99,0-.03,0-.07,0-.1,0-.03,0-.06,0-.09,0-2.64,2.65-5.34,5.34-5.46.17,0,.34,0,.51,0,.39,0,.94.05,1.18.19.24.14.35.58.35.95v5.9Zm17.3,2.57c.62-.22,1.17-.63,1.56-1.17.33-.45.54-.99.61-1.55l.02-.17c.07-.57.14-1.11.07-1.67-.01-.11-.03-.23-.05-.35-.07-.36-.14-.68-.28-.96-.18-.37-.41-.73-.67-1.04-.51-.63-1.19-1.17-1.97-1.57-.15-.08-.3-.15-.44-.21-1.21-.52-2.65-.76-4.52-.76h-3.2s-.06-.02-.07-.05c-.01-.03,0-.06.02-.08l3.76-3.23c.57-.49.93-1.28.98-2.11.04-.71-.16-1.36-.54-1.81-6.86,5.88-8.17,7.01-8.44,7.23v2.77h7.67c.64,0,1.39.02,2.14.12.81.12,1.44.34,1.94.67.28.19.5.41.65.66.2.32.3.7.3,1.15,0,.22-.03.44-.08.65-.05.2-.15.34-.25.49l-.02.03c-.16.23-.48.47-.89.47h-12.82s-.07-.03-.07-.07v-6.08c0-1.56-1.17-3.06-2.66-3.41-.63-.15-1.2-.23-1.75-.26h-.03s-.44,0-.44,0c-2.3,0-4.5,1-6.03,2.75-.6.68-.92,1.43-1.31,2.41-.53,1.33-.7,2.7-.51,3.96.16,1.03.61,2.39,1.84,3.02.78.4,1.47.43,2.28.43h.21s.22,0,.22,0h2.74s.12,0,.26,0c.38,0,1.09.02,1.6.02.47,0,.57-.01.58-.02l.02.06h0s0,0,0,0h0s.03,0,.03,0h.04c-.06.33-.15.59-.27.8-.21.35-.49.63-.84.83-.35.2-.74.33-1.18.4-.37.06-.79.09-1.24.09h-1.33s-.96,0-.96,0c-1.27,0-2.56,1.33-2.6,2.67h4.9c.89,0,1.62-.1,2.43-.31.79-.21,1.48-.53,2.06-.96.58-.43,1.05-.99,1.38-1.67.27-.53.45-1.16.54-1.88,0-.04.04-.06.07-.06h9.77c.27,0,.54,0,.81,0,.27,0,.54,0,.81,0,.14,0,.27,0,.41,0,.1,0,.21,0,.31,0,.18,0,.36,0,.54,0,.57,0,1.23-.03,1.85-.25"></path>
    <g class="cls-20">
      <g class="cls-15">
        <g class="cls-18">
          <g class="cls-13">
            <path class="cls-3" d="m108.17,9.43h-25.29v8.43h17.29c4,0,8-4.22,8-8.43"></path>
          </g>
        </g>
      </g>
    </g>
    <g class="cls-20">
      <g class="cls-9">
        <g class="cls-17">
          <g class="cls-16">
            <path class="cls-3" d="m99.74,17.86h-8.43v17.29c0,4,4.21,8,8.43,8v-25.29Z"></path>
          </g>
        </g>
      </g>
    </g>
    <g class="cls-20">
      <g class="cls-14">
        <g class="cls-8">
          <g class="cls-19">
            <path class="cls-3" d="m91.31,26.29h-17.29c-4,0-8,4.22-8,8.43h25.29v-8.43Z"></path>
          </g>
        </g>
      </g>
    </g>
    <g class="cls-20">
      <g class="cls-10">
        <g class="cls-11">
          <g class="cls-12">
            <path class="cls-3" d="m74.45,1v25.29h8.43V9c0-4-4.21-8-8.43-8"></path>
          </g>
        </g>
      </g>
    </g>
  </g>
</svg>
