<?xml version="1.0" encoding="utf-8"?>
<!-- Generator: Adobe Illustrator 25.4.1, SVG Export Plug-In . SVG Version: 6.00 Build 0)  -->
<svg version="1.1" id="Layer_1" xmlns="http://www.w3.org/2000/svg" xmlns:xlink="http://www.w3.org/1999/xlink" x="0px" y="0px"
	 viewBox="0 0 720 266.5" style="enable-background:new 0 0 720 266.5;" xml:space="preserve">
<style type="text/css">
	.st0{fill:#DAAB28;}
	
	#ttl1 {
	transform: scale(0, 0);
	opacity: 0;
    animation-fill-mode: forwards;
    animation-iteration-count: 1;
    animation-name: zoomhm;
    animation-duration: 2s;
	transform-origin: 357.4387px 88.4317px;
    animation-delay: 2s;
}

#ttl2 {
	transform: scale(0, 0);
	opacity: 0;
    animation-fill-mode: forwards;
    animation-iteration-count: 1;
    animation-name: zoomhm;
    animation-duration: 2s;
    transform-origin: 407.4467px 193.3175px;
    animation-delay: 3s;
}

@keyframes zoomhm {
    0% {
        transform: scale(0, 0);
        opacity: 0;
        filter: blur(7px);
    }

    100% {
        transform: scale(1, 1);
        opacity: 1;
        filter: none;
    }
}
	
</style>
<g id="ttl2">
	<path class="st0" d="M579,219.1v-67.4l-15.2,8v59.4H579z M529.8,196.2c0,3.1-0.6,5.2-1.7,6.4c-1.1,1.2-3.2,1.8-6,1.8h-4.5v-39.2
		l-15.2,8v31.1h-13.2l-7.6,14.6h41.2c6.5,0,11.7-2,15.8-5.9c4.3-4.2,6.5-9.9,6.5-16.9v-44.6l-15.3,8V196.2z M470.1,172.1l-15.3,8.2
		v32.9c0,6.3-2.1,10.2-6.4,11.7c-1.5,0.6-3.1,0.8-4.8,0.8c-3.4,0-6.9-1-10.6-3v13.2c4.4,2.4,8.9,3.7,13.5,3.7c3.4,0,6.6-0.7,9.5-2.1
		c4.5-2,7.9-5.2,10.3-9.7c2.4-4.4,3.7-9.6,3.7-15.6V172.1z M468,160.6c1.4-1.4,2.1-3.3,2.1-5.7c0-2.4-0.7-4.2-2.1-5.6
		c-1.4-1.4-3.2-2.1-5.5-2.1c-2.4,0-4.3,0.7-5.7,2.1c-1.4,1.4-2.1,3.3-2.1,5.6c0,2.4,0.7,4.3,2.1,5.7c1.4,1.4,3.3,2.1,5.7,2.1
		C464.8,162.7,466.6,162,468,160.6 M416.3,219.1c11.1,0,16.6-6.4,16.6-19.1c0-12.4-6-22.1-18.1-29.1l-7.4,12.8
		c6.8,3.8,10.2,9.2,10.2,16.1c0,3.1-1.4,4.7-4.2,4.7h-15.6l-7.6,14.6H416.3z M336,196.3c0-1.7,0.5-3.2,1.6-4.3
		c1-1.1,2.4-1.7,4.2-1.7c1.6,0,2.9,0.6,4,1.7c1.1,1.1,1.6,2.5,1.6,4.3c0,3.6-1.9,6-5.6,7.2C337.9,202.4,336,200,336,196.3
		 M366.5,203.4c-0.6,0.8-2,1.1-4.1,1.1h-6c0.8-2.2,1.2-4.4,1.2-6.8c0-7-2.8-11.8-8.3-14.5c1.5-0.7,3.3-1,5.4-1
		c3.8,0,6.9,1.1,9.2,3.4c2.3,2.3,3.5,5.4,3.5,9.4v3.3C367.5,200.9,367.2,202.6,366.5,203.4 M325.8,197.7c0,2.2,0.3,4.5,1,6.8h-9.3
		v14.6h17.6c2.3,0,4.5-0.3,6.6-1c2.2,0.7,4.4,1,6.8,1h14.1c5.7,0,10.3-1.6,13.9-4.7c4.2-3.6,6.3-8.7,6.3-15.3V195
		c0-7.8-2.5-14.2-7.4-19.2c-5.2-5.3-12-7.9-20.2-7.9c-6.1,0-11.5,1.7-16,5c-4.5,3.3-7.7,7.9-9.5,13.7
		C327.1,189.5,325.8,193.2,325.8,197.7 M323.2,219.1v-14.6h-10.2c-2.2,0-3.8-0.5-4.7-1.4c-0.9-0.9-1.4-2.5-1.4-4.7v-46.7l-15.2,8
		v39.3c0,5.6,1.6,10.3,4.7,13.9c3.6,4.1,8.6,6.2,15.1,6.2H323.2z M272.9,172.1l-15.3,8.2v32.9c0,6.3-2.1,10.2-6.4,11.7
		c-1.5,0.6-3.1,0.8-4.8,0.8c-3.4,0-6.9-1-10.6-3v13.2c4.4,2.4,8.9,3.7,13.5,3.7c3.4,0,6.6-0.7,9.5-2.1c4.5-2,7.9-5.2,10.3-9.7
		c2.4-4.4,3.7-9.6,3.7-15.6V172.1z"/>
</g>
<g id="ttl1">
	<path d="M488.5,110.7c4.8,0,8.8-1.3,12.1-3.9c3.3,2.6,7.4,3.9,12.2,3.9h11.8c4.5-0.2,8.2-1.5,11.3-3.9c3.3,2.6,7.4,3.9,12.2,3.9
		H560c5.4-0.1,9.8-1.8,13.2-5c3.9-3.7,5.9-8.7,5.9-15v-27l-15.3,8V90c0,2.3-0.4,3.9-1.3,4.8c-0.9,0.9-2.4,1.3-4.6,1.3h-8.3
		c-2.2,0-3.8-0.4-4.7-1.3c-0.9-0.9-1.3-2.5-1.3-4.8V66.2l-15.2,7.9V90c0,2.2-0.5,3.8-1.4,4.7c-0.9,0.9-2.5,1.4-4.7,1.4h-8
		c-2.3,0-3.9-0.5-4.8-1.4c-0.9-0.9-1.3-2.5-1.3-4.7V68.6l-15.2,8V90c0,2.3-0.4,3.9-1.3,4.8c-0.9,0.9-2.4,1.3-4.7,1.3h-11.7v14.6
		H488.5z M550,52.9c1.4-1.4,2.1-3.4,2.1-5.8c0-2.3-0.7-4.2-2.1-5.6c-1.4-1.4-3.3-2.1-5.6-2.1c-2.3,0-4.2,0.7-5.6,2.1
		c-1.4,1.4-2.1,3.3-2.1,5.6c0,2.4,0.7,4.3,2.1,5.7c1.4,1.5,3.3,2.2,5.6,2.2C546.7,55,548.6,54.3,550,52.9 M532.5,52.9
		c1.4-1.4,2.1-3.4,2.1-5.8c0-2.3-0.7-4.2-2.1-5.6c-1.4-1.4-3.3-2.1-5.6-2.1c-2.3,0-4.2,0.7-5.6,2.1c-1.4,1.4-2.1,3.3-2.1,5.6
		c0,2.4,0.7,4.3,2.1,5.7c1.4,1.5,3.3,2.2,5.6,2.2C529.2,55,531.1,54.3,532.5,52.9 M540.7,36.2c1.3-1.3,1.9-3,1.9-5.2
		c0-4.7-2.3-7-7-7c-4.7,0-7.1,2.3-7.1,7c0,2.2,0.6,3.9,1.9,5.2c1.3,1.3,3,1.9,5.2,1.9C537.7,38.1,539.4,37.5,540.7,36.2 M464.9,91.8
		V63.7l-0.1,0.1v-0.1l-15.2,8v33c0,6.3-2.1,10.2-6.4,11.7c-1.5,0.6-3.1,0.8-4.8,0.8c-3.4,0-6.9-1-10.6-3v13.2
		c4.4,2.4,8.9,3.7,13.5,3.7c3.4,0,6.6-0.7,9.5-2.1c7.4-3.4,11.9-9.7,13.5-18.8c1.7,0.4,3.4,0.5,5,0.5h11.7V96.1h-10.2
		C467.2,96.1,465.2,94.7,464.9,91.8 M423.3,43.3H408L387.6,66v14.6c4-1.4,7.7-2.1,11.2-2.1c3.6,0,6.6,0.7,9,2.1
		c3.7,2.1,5.5,5.2,5.5,9.4v0.5c0,3.7-2,5.5-6,5.5h-28.5v14.6h30c5.6,0,10.1-1.6,13.6-4.7c4.1-3.6,6.2-8.5,6.2-14.9v-1.3
		c0-9.3-3.8-16.5-11.3-21.4c-3.6-2.4-7.7-4-12.2-4.6L423.3,43.3z M384.5,110.7V96.1h-10.2c-2.2,0-3.8-0.5-4.7-1.4
		c-0.9-0.9-1.4-2.5-1.4-4.7V43.3l-15.2,8v39.3c0,5.6,1.6,10.3,4.7,13.9c3.6,4.1,8.6,6.2,15.1,6.2H384.5z M314.2,110.7
		c10.2,0,18.3-2.2,24.2-6.6V90.4c-5.5,3.8-12.1,6-19.6,6.6l-4.4,0.3c-2.6-2.9-3.9-6.3-3.9-10.2c0-5.4,2.3-8.4,6.9-8.9h0.7
		c4.3,0,9.2,2.4,14.6,7.2V71.4c-4.4-4.8-9.8-7.2-16.1-7.2h-0.6c-5.2,0.1-9.5,1.7-13.2,4.8c-4.9,4.2-7.4,10.3-7.4,18.4
		c0,4.5,0.9,8.5,2.8,12.1c-3.3,1-6.2,2.2-8.6,3.8V118C296.5,113.1,304.6,110.7,314.2,110.7 M236.7,91.1c0,3.3-1.5,5-4.6,5
		c-4.2,0-6.3-3.4-6.3-10.3c0-6.5,2.2-9.7,6.5-9.7c2.9,0,4.4,1.7,4.4,5.1V91.1z M232.1,110.7c6.1,0,10.8-1.8,14.3-5.4
		c3.6-3.7,5.4-8.5,5.4-14.5v-9.2c0-5.6-1.6-10.1-4.7-13.7c-3.6-4-8.5-6.1-14.8-6.1c-6.2,0-11.2,2-15,6.1c-4.3,4.5-6.4,10.6-6.4,18.4
		c0,3.6,0.8,6.9,2.3,9.8h-15.5v14.6H232.1z M237.8,53.7c1.4-1.4,2.1-3.3,2.1-5.7c0-2.4-0.7-4.2-2.1-5.6c-1.4-1.4-3.2-2.1-5.5-2.1
		c-2.4,0-4.3,0.7-5.7,2.1c-1.4,1.4-2.1,3.3-2.1,5.6c0,2.4,0.7,4.3,2.1,5.7c1.4,1.4,3.3,2.1,5.7,2.1
		C234.5,55.9,236.4,55.2,237.8,53.7 M183.8,150.7c1.4-1.4,2.1-3.3,2.1-5.7c0-2.3-0.7-4.2-2.1-5.6c-1.4-1.4-3.3-2.1-5.6-2.1
		s-4.2,0.7-5.6,2.1c-1.4,1.4-2.1,3.3-2.1,5.6c0,2.4,0.7,4.3,2.1,5.7c1.4,1.4,3.3,2.1,5.6,2.1C180.6,152.9,182.5,152.1,183.8,150.7
		 M166.4,150.7c1.4-1.4,2.1-3.3,2.1-5.7c0-2.3-0.7-4.2-2.1-5.6c-1.4-1.4-3.3-2.1-5.6-2.1c-2.3,0-4.2,0.7-5.6,2.1
		c-1.4,1.4-2.1,3.3-2.1,5.6c0,2.4,0.7,4.3,2.1,5.7c1.4,1.4,3.3,2.1,5.6,2.1C163.1,152.9,165,152.1,166.4,150.7 M202.8,110.7V96.1
		h-18.5l-7.5,14.6h9.8c-2.4,4-8.2,6.1-17.2,6.1c-12.8,0-19.2-5.8-19.2-17.4c0-5.2,1.3-10,3.9-14.6l-14.4,3
		c-2.4,4.1-3.7,8.8-3.7,14.1c0,7.3,2.2,13.5,6.7,18.5c5.9,6.8,14.8,10.1,26.8,10.1c8.6,0,15.9-1.6,21.6-4.7
		c6.7-3.6,10.5-8.6,11.5-15.2H202.8z"/>
</g>
</svg>
