<?xml version="1.0" encoding="UTF-8"?>
<svg id="Layer_1" data-name="Layer 1" xmlns="http://www.w3.org/2000/svg" viewBox="0 0 40.82 40.82">
  <defs>
    <style>
      .cls-1 {
        fill: #207d87;
      }

      .cls-2 {
        fill: none;
        stroke: #fff;
        stroke-linecap: round;
        stroke-width: .85px;
      }
    </style>
  </defs>
  <path class="cls-1" d="m20.41,40.82c11.27,0,20.41-9.14,20.41-20.41S31.68,0,20.41,0,0,9.14,0,20.41s9.14,20.41,20.41,20.41"/>
  <path class="cls-2" d="m20.13,33.55v-6.72s-.84-1.92-4.05-3.81c0,0-3.6-2.36-4.49.36,0,0-1.44-2.91-1.44-5.45,0-3.81-3.1-5.45-2.88-1.09l.36,4.36s-.36,2.72,2.34,5.27c2.7,2.54,5.57,4.36,5.21,7.08"/>
  <path class="cls-2" d="m20.62,26.83s.53-1.72,4.04-3.81c0,0,3.6-2.36,4.49.36,0,0,1.28-2.91,1.44-5.45.27-4.36,3.5-5.27,2.88-1.09l-.36,4.36s.36,2.72-2.34,5.27c-2.7,2.54-5.57,4.36-5.22,7.08"/>
  <path class="cls-2" d="m25.36,26.47s3.25-1.74,3.76-3.01"/>
  <path class="cls-2" d="m15.46,26.47s-3.25-1.74-3.76-3.01"/>
  <path class="cls-2" d="m20.74,9.15s5.24-4.78,7.18.9c0,0,1.94,5.85-7.4,10.43"/>
  <path class="cls-2" d="m20.36,9.24s-5.65-4.87-7.59.81c0,0-1.94,5.85,7.41,10.43"/>
</svg>