<?xml version="1.0" encoding="UTF-8"?>
<svg id="Layer_1" data-name="Layer 1" xmlns="http://www.w3.org/2000/svg" viewBox="0 0 40.6 40.6">
  <defs>
    <style>
      .cls-1 {
        fill: #fff;
      }

      .cls-2 {
        fill: none;
        stroke: #fff;
        stroke-linecap: round;
        stroke-width: .72px;
      }

      .cls-3 {
        fill: #b88dc0;
      }
    </style>
  </defs>
  <path class="cls-3" d="m20.3,40.6c11.21,0,20.3-9.09,20.3-20.3S31.51,0,20.3,0,0,9.09,0,20.3s9.09,20.3,20.3,20.3"/>
  <polygon class="cls-2" points="2.76 12.4 18.15 6.24 33.36 12.22 18.15 18.56 2.76 12.4"/>
  <path class="cls-2" d="m7.7,14.31l.18,9.43s7.57.18,9.91,5.26c0,0,4.87-5.98,10.09-5.26v-6.8"/>
  <line class="cls-2" x1="32.66" y1="12.31" x2="32.66" y2="21.35"/>
  <g>
    <path class="cls-1" d="m32.54,29.09c1.71,0,3.11-1.39,3.11-3.11s-1.39-3.11-3.11-3.11-3.11,1.39-3.11,3.11c0,1.17.64,2.18,1.59,2.71.45.25.96.39,1.51.39"/>
    <path class="cls-2" d="m32.54,29.09c1.71,0,3.11-1.39,3.11-3.11s-1.39-3.11-3.11-3.11-3.11,1.39-3.11,3.11c0,1.17.64,2.18,1.59,2.71.45.25.96.39,1.51.39Z"/>
  </g>
  <polyline class="cls-2" points="31.06 28.51 29.77 34.01 35.12 34.1 33.83 28.98"/>
</svg>