<?xml version="1.0" encoding="UTF-8"?>
<svg id="Layer_1" data-name="Layer 1" xmlns="http://www.w3.org/2000/svg" viewBox="0 0 40.6 40.6">
  <defs>
    <style>
      .cls-1 {
        stroke-width: .82px;
      }

      .cls-1, .cls-2 {
        fill: none;
        stroke: #fff;
        stroke-linecap: round;
      }

      .cls-3 {
        fill: #f8da65;
      }

      .cls-2 {
        stroke-width: .75px;
      }
    </style>
  </defs>
  <g>
    <path class="cls-3" d="m20.3,40.6c11.21,0,20.3-9.09,20.3-20.3S31.51,0,20.3,0,0,9.09,0,20.3s9.09,20.3,20.3,20.3"/>
    <path class="cls-1" d="m14.97,12.55c.22.1.44.16.62.28.38.24.73.52,1.12.76.12.07.32.09.47.06.74-.12,1.05-.57,1.03-1.27,0-.25.07-.51.13-.75.1-.44.38-.69.84-.7.74-.02,1.48-.02,2.22,0,.47.01.76.28.85.74.09.44.16.89.22,1.33.03.22.14.33.36.45.61.34,1.1.26,1.58-.21.18-.18.42-.31.64-.46.39-.26.85-.25,1.19.06.53.48,1.04.97,1.54,1.47.33.33.36.71.08,1.1-.28.4-.61.78-.89,1.19-.07.11-.07.28-.05.41.12.7.58,1.01,1.31.99.25,0,.5.06.76.1.5.09.79.4.8.88.01.67.01,1.34,0,2.01,0,.49-.31.8-.84.89-.49.08-.98.14-1.47.23-.11.02-.22.13-.29.23-.43.59-.36,1.12.19,1.62.19.17.33.4.48.61.26.39.22.8-.11,1.13-.47.46-.95.91-1.43,1.36-.41.39-.86.42-1.34.09-.38-.26-.75-.54-1.14-.79-.1-.07-.27-.04-.41-.05-.01,0-.02.01-.03.02-.73.14-1.05.57-1.03,1.28,0,.26-.08.53-.13.79-.08.38-.39.65-.8.66-.76.02-1.53.02-2.29,0-.42-.01-.72-.27-.8-.66-.09-.47-.17-.93-.23-1.4-.03-.23-.15-.33-.36-.44-.6-.33-1.09-.28-1.58.2-.19.19-.44.33-.68.48-.4.26-.84.22-1.19-.09-.49-.46-.98-.92-1.46-1.39-.39-.39-.42-.78-.1-1.22.28-.38.58-.74.85-1.13.07-.11.08-.28.05-.41-.14-.68-.59-1-1.32-1-.24,0-.48-.05-.72-.09-.54-.08-.83-.4-.84-.92,0-.64,0-1.29,0-1.93,0-.53.29-.84.84-.92.46-.07.93-.16,1.4-.2.23-.02.29-.15.4-.31.41-.6.27-1.09-.23-1.56-.19-.18-.33-.4-.47-.62-.26-.39-.24-.77.08-1.1.51-.51,1.03-1.01,1.57-1.49.15-.13.38-.17.59-.27Z"/>
    <path class="cls-2" d="m33,15.99c.44,1.27.68,2.64.68,4.06,0,7.05-6.08,12.72-13.66,12.73-1.57,0-2.37-.02-3.77-.49"/>
    <circle class="cls-2" cx="14.83" cy="31.82" r="1.5"/>
    <path class="cls-2" d="m7.43,23.39c-.34-1.13-.52-2.33-.51-3.56.05-6.97,6.09-12.58,13.54-12.55,2.53,0,3.87.09,5.88,1.19"/>
    <circle class="cls-2" cx="27.65" cy="9.19" r="1.5"/>
  </g>
  <polyline class="cls-2" points="19.3 14.44 19.3 21.4 15.86 22.17"/>
  <polyline class="cls-2" points="21.32 15.02 21.32 21.19 24.18 20.61"/>
  <line class="cls-2" x1="16.25" y1="19.73" x2="24.08" y2="18.43"/>
  <line class="cls-2" x1="21.02" y1="23.14" x2="24.47" y2="22.43"/>
</svg>