<?xml version="1.0" encoding="UTF-8"?>
<svg id="Layer_1" data-name="Layer 1" xmlns="http://www.w3.org/2000/svg" viewBox="0 0 44.04 41.33">
  <defs>
    <style>
      .cls-1 {
        fill: #c61f4c;
      }
    </style>
  </defs>
  <path class="cls-1" d="m21.07,17.41c-.21-1.08-1-1.77-2-1.72-.84.04-1.52.4-1.97,1.12-.56.9-.57,1.86-.22,2.83.51,1.38,1.72,2.11,3.25,2.04,1.59-.07,3.01-.62,4.33-1.47.98-.63,1.93-1.3,2.92-1.92,1.08-.69,2.24-1.19,3.51-1.39.89-.14,1.79-.23,2.66.1.33.13.64.34.94.54.06.04.11.16.11.24,0,2.4,0,4.79,0,7.19,0,.05,0,.1-.01.16H9.45v-.18c0-1.47,0-2.93,0-4.4,0-.08.03-.18.09-.23.94-.81,1.72-1.77,2.5-2.73.87-1.06,1.71-2.15,2.74-3.06.83-.74,1.74-1.33,2.85-1.55.93-.19,1.85-.17,2.71.29,1.29.68,1.84,2.34,1.18,3.6-.11.21-.27.38-.4.57-.02-.01-.04-.02-.05-.03"/>
  <path class="cls-1" d="m21.47,9.67c.44-.08.89-.11,1.32-.24,1.15-.34,1.8-1.17,2.04-2.31.45-2.17-.91-4.19-3.14-4.66-1.58-.33-3.05.03-4.41.86-1.06.65-1.92,1.52-2.74,2.45-.24.28-.48.57-.72.85-.06.08-.12.11-.22.06-1.26-.6-2.56-.59-3.88-.21-.07.02-.15.04-.22.07-.01,0-.02,0-.04,0v-1.94c.33.05.65.11.97.14.77.06,1.5-.1,2.21-.36,1.1-.41,2.09-1.03,3.07-1.65,1.07-.67,2.14-1.34,3.22-1.99.34-.2.71-.34,1.08-.51C20.39.07,20.78,0,21.2,0c3.38.01,6.75,0,10.13,0,.16,0,.29.05.41.15.94.79,1.25,2.26.68,3.3-.1.19-.26.36-.39.53-.02,0-.04-.01-.06-.02-.02-.1-.03-.19-.06-.29-.25-.99-1.29-1.62-2.32-1.39-1.12.24-1.9,1.13-2.01,2.26-.11,1.15.22,2.13,1.08,2.93.02.02.04.05.07.08-1.63.59-2.99,1.6-4.4,2.55-.5.34-.97.71-1.56.9-.5.16-1.01.21-1.51.09-1.17-.29-1.57-1.42-1.49-2.26.03-.32.12-.63.33-.89.32-.41.77-.53,1.26-.49.29.03.47.22.54.53.11.55-.05,1.04-.34,1.49-.03.05-.07.1-.11.15,0,.02.01.03.02.05"/>
  <path class="cls-1" d="m19.47,19.03c.92-.09,1.81-.18,2.49-.86.78-.77,1.06-1.72.96-2.79-.09-1.02-.53-1.89-1.3-2.61.18-.05.33-.1.49-.14,1.16-.36,2.18-.98,3.17-1.66,1.04-.7,2.05-1.45,3.18-2,1.22-.6,2.51-.91,3.87-.89.79.01,1.52.21,2.13.74.07.06.12.17.12.26,0,1.05,0,2.1,0,3.15,0,.09-.04.2-.1.27-.14.16-.31.29-.49.46-.02-.22-.02-.38-.05-.53-.17-.99-1.12-1.68-2.12-1.61-1.24.09-2.19,1.01-2.39,2.36-.15.96.06,1.83.65,2.6.01.02.03.04.04.06-.48.15-.96.28-1.42.44-1.21.43-2.29,1.11-3.34,1.83-.9.62-1.79,1.27-2.78,1.75-.91.45-1.86.72-2.88.67-.98-.05-1.73-.74-1.88-1.72-.07-.45-.03-.88.18-1.29.24-.47.8-.77,1.33-.71.33.04.54.22.6.55.11.54-.06,1.02-.34,1.48-.03.05-.07.1-.13.18"/>
  <path class="cls-1" d="m14.64,7.43c.93-1.12,1.86-2.23,3.09-3.04.98-.65,2.05-.96,3.23-.89,1.43.08,2.53,1,2.76,2.38.13.76,0,1.48-.57,2.07-.03.03-.07.06-.1.09-.06-.2-.1-.4-.18-.58-.4-.9-1.4-1.34-2.41-1.06-1.1.31-1.82,1.28-1.84,2.53-.02,1.15.4,2.11,1.34,2.81.02.02.05.04.07.06,0,0,0,.01,0,.05-.28-.03-.55-.06-.83-.08-1.66-.16-3.13.35-4.45,1.33-.7.52-1.32,1.11-1.89,1.77-.13.15-.26.18-.43.16-1.14-.16-1.86-1.06-1.79-2.25.04-.57.23-1.07.78-1.31.23-.1.51-.14.76-.14.34,0,.57.27.61.65.05.51-.09.96-.37,1.38-.04.05-.07.1-.14.2.51-.09.99-.12,1.44-.27,1.16-.38,1.79-1.24,2-2.41.21-1.21-.12-2.42-1.07-3.45"/>
  <path class="cls-1" d="m5.37,31.75c0,.55.39.97.9.97.51,0,.91-.42.92-.96,0-.5-.42-.93-.93-.93-.5,0-.88.4-.88.92m12.7-.05c-.03-.1-.06-.29-.13-.46-.13-.3-.37-.5-.71-.52-.32-.02-.58.12-.75.39-.26.41-.28.85-.03,1.27.31.53.99.59,1.36.14.18-.22.23-.48.25-.83m-2.45.97c-.06-.31-.17-.61-.17-.92-.01-.86.61-1.54,1.47-1.67.92-.14,1.76.43,1.96,1.33.22.98-.5,1.96-1.5,2.04-.1,0-.19,0-.29,0-3.1,0-6.2,0-9.3,0-.17,0-.27.04-.37.2-.41.64-.91,1.22-1.45,1.78-.21-.18-.41-.36-.62-.54.39-.46.78-.92,1.17-1.37-.01-.02-.03-.05-.04-.07-.19,0-.38,0-.57,0-.82-.04-1.41-.64-1.5-1.45-.13-1.15.81-1.89,1.66-1.94.98-.06,1.77.47,2,1.35.08.33.06.66-.04.98-.02.09-.05.17-.08.27h7.66Z"/>
  <path class="cls-1" d="m35.6,30.07h.79c0,.16,0,.3,0,.45,0,.63,0,1.26,0,1.88-.02.88-.65,1.29-1.47.96-.22-.09-.41-.22-.62-.34-.31.53-.98.6-1.71.07,0,.12-.02.23-.03.36h-.25c-2.41,0-4.82,0-7.22,0-.18,0-.25.04-.29.23-.15.68-.61,1.03-1.31,1.03-.47,0-.95,0-1.42,0-.6,0-.92-.32-.92-.91,0-.81,0-1.61,0-2.42,0-.04,0-.09,0-.14h.89v2.62c.5,0,.98.02,1.46,0,.28-.02.37-.14.38-.39h-.57v-.78h8.47v-2.61h.8v2.06c0,.36.22.6.58.63.31.02.51-.11.52-.42.02-.65.02-1.29.02-1.94,0-.1,0-.2,0-.32h.77c0,.07.01.15.01.22,0,.65,0,1.29,0,1.94,0,.17.05.28.2.36.11.06.23.12.35.15.34.08.56-.09.57-.43.01-.6,0-1.2.01-1.81,0-.14,0-.28,0-.44"/>
  <path class="cls-1" d="m9.45,18.8v-.18c0-3.54,0-7.07,0-10.61,0-.16.05-.23.2-.29,1.03-.39,2.08-.5,3.13-.13,1.48.52,2.24,2.19,1.66,3.61-.12.28-.28.53-.54.73-.02-.1-.03-.18-.05-.26-.25-1.11-1.42-1.74-2.57-1.38-.98.31-1.56,1-1.73,1.99-.23,1.32.15,2.45,1.23,3.29.29.23.65.36,1.01.56-.75.89-1.51,1.8-2.28,2.71-.02-.01-.04-.03-.06-.04"/>
  <path class="cls-1" d="m9.48.02h8.36s-.03.04-.04.05c-1.23.78-2.46,1.57-3.7,2.33-.79.49-1.62.91-2.53,1.11-.65.14-1.29.14-1.93-.09-.09-.03-.17-.06-.17-.19,0-1.04,0-2.08,0-3.11,0-.03.01-.07.02-.1"/>
  <path class="cls-1" d="m34.59.02v7.46s-.06,0-.08-.01c-.83-.44-1.72-.57-2.64-.51-.41.02-.81.09-1.22.11-.51.03-.96-.16-1.31-.52-.63-.65-.79-1.44-.5-2.29.25-.71.86-.93,1.5-.86.27.03.47.26.52.57.08.51-.06.96-.32,1.39-.02.04-.05.07-.08.11-.02.03-.04.06-.09.13.28-.04.53-.07.77-.1,1.92-.2,2.83-1.91,2.7-3.51-.06-.68-.27-1.3-.63-1.87-.02-.03-.03-.05-.05-.1h1.44Z"/>
  <path class="cls-1" d="m32.48,41.21h-.91c-.07-.71-.15-1.42-.22-2.13-.01,0-.03-.01-.04-.02-.25.36-.51.71-.76,1.07-.26.36-.51.72-.78,1.09-.52-.72-1.02-1.42-1.53-2.13-.01,0-.03,0-.04,0-.07.7-.14,1.4-.21,2.11h-.92c.2-1.51.4-3.01.6-4.52.01,0,.03,0,.04,0,.68,1.08,1.37,2.16,2.07,3.27.7-1.1,1.38-2.19,2.06-3.27.01,0,.03,0,.04,0,.2,1.5.4,3,.61,4.51"/>
  <path class="cls-1" d="m8.6,40.44c.23,0,.44.01.65,0,.54-.04,1.02-.21,1.29-.73.3-.57.22-1.36-.18-1.83-.48-.55-1.11-.5-1.75-.47v3.03Zm-.86.8v-4.63c.77.03,1.54-.09,2.29.14,1.21.36,1.71,1.36,1.58,2.46-.13,1.11-.83,1.81-1.96,1.95-.62.08-1.26.05-1.9.08"/>
  <path class="cls-1" d="m32.14,14.23c.41.01.83.07,1.24.03.41-.04.8-.18,1.21-.27v2.2s-.05,0-.07-.01c-.79-.42-1.64-.55-2.52-.53-.11,0-.23-.02-.33-.07-.79-.36-1.16-1.14-1.12-1.97.03-.5.17-.96.55-1.31.41-.38.9-.41,1.4-.24.25.08.36.3.37.55.03.59-.23,1.06-.63,1.47-.03.04-.07.07-.11.1,0,.02.01.03.02.05"/>
  <path class="cls-1" d="m.87,38.76c.3-.05.59-.06.86-.14.26-.07.38-.29.38-.58,0-.27-.12-.48-.38-.55-.27-.07-.56-.08-.85-.13v1.4Zm1.05.67c.65.6,1.27,1.17,1.94,1.78-.42,0-.79,0-1.15,0-.05,0-.1-.06-.15-.11-.5-.49-.99-.98-1.49-1.47-.05-.05-.1-.09-.2-.18v1.75H.02v-4.57c.44,0,.87-.02,1.3,0,.27.02.55.07.81.15.58.18.89.61.9,1.18,0,.72-.26,1.16-.86,1.39-.07.02-.13.05-.23.08"/>
  <path class="cls-1" d="m.03,32.26h.84c0,.31,0,.62,0,.92.01.27.03.54.08.8.07.35.3.57.66.64.38.07.76.05,1.13-.09.15-.06.22-.15.22-.33,0-1.73,0-3.46,0-5.19v-.25h.84c0,.07,0,.15,0,.22,0,1.86,0,3.71,0,5.57,0,.17-.06.27-.19.37-.57.43-1.23.53-1.91.49-.24-.01-.49-.06-.71-.14-.69-.24-.96-.8-.99-1.48-.02-.48,0-.97,0-1.46,0-.02,0-.05.02-.08"/>
  <path class="cls-1" d="m4.09,36.64h2.7v.76h-1.85c0,.32,0,.61,0,.91,0,.03.1.09.15.09.37,0,.74,0,1.12,0h.22v.77h-1.48c0,.11-.01.2-.01.29,0,.26,0,.51,0,.77,0,.16.04.21.2.21.53,0,1.06,0,1.59,0,.08,0,.15,0,.25,0v.76h-2.89v-4.56Z"/>
  <path class="cls-1" d="m34.4,39.84h1.37c-.24-.49-.46-.95-.7-1.45-.24.5-.45.96-.68,1.45m-1.62,1.37c.77-1.53,1.52-3.04,2.3-4.59.77,1.54,1.53,3.06,2.3,4.59-.31,0-.59,0-.86,0-.05,0-.1-.06-.14-.09,0,0-.01-.02-.02-.03-.1-.45-.39-.54-.82-.51-.45.04-.91.01-1.36,0-.11,0-.19.02-.22.14-.1.43-.38.57-.8.49-.12-.02-.24,0-.39,0"/>
  <path class="cls-1" d="m23.68,39.85c-.24-.49-.46-.95-.7-1.45-.24.51-.45.97-.68,1.45h1.38Zm-.69-3.23c.77,1.54,1.53,3.05,2.3,4.59-.32,0-.62,0-.92,0-.04,0-.09-.07-.1-.12-.11-.43-.38-.55-.82-.51-.44.04-.89.01-1.34,0-.12,0-.22.02-.25.15-.1.41-.36.56-.77.48-.12-.02-.25,0-.41,0,.77-1.54,1.53-3.05,2.3-4.59"/>
  <path class="cls-1" d="m17.53,36.64c.06,0,.11-.01.16-.01.84,0,1.68,0,2.53,0v.77h-1.85v1h1.48v.78h-1.48v1.25h2.04v.77h-2.89v-4.56Z"/>
  <path class="cls-1" d="m13.94,40.05c.33.27.67.46,1.07.49.14.01.28,0,.42-.03.43-.11.57-.6.26-.92-.15-.15-.34-.27-.53-.38-.22-.13-.46-.23-.68-.36-.56-.34-.76-.77-.65-1.33.1-.51.53-.89,1.12-.98.63-.1,1.17.07,1.66.5-.14.22-.27.42-.39.61-.23-.11-.42-.25-.65-.32-.17-.05-.39-.04-.56,0-.35.1-.43.48-.15.72.13.12.31.21.47.3.24.13.49.23.72.37.56.33.81.84.7,1.48-.11.6-.55.91-1.12,1.05-.76.19-1.43-.03-2.03-.5-.03-.03-.06-.07-.09-.1.15-.2.29-.4.44-.61"/>
  <path class="cls-1" d="m42.22,33.44h-3.19v-.76h2.26c.09-.8-.26-1.73-1.64-1.8v-.84c.21.01.41.01.61.04,1.03.16,1.72.88,1.89,1.94.07.46.05.93.07,1.4"/>
  <path class="cls-1" d="m37.91,36.63h.84v3.56c0,.25,0,.25.25.25h1.65v.76h-2.74v-4.57Z"/>
  <path class="cls-1" d="m44.03,41.2h-2.75v-4.57h.83c0,.07,0,.15,0,.22,0,1.13,0,2.25,0,3.38,0,.17.05.22.22.22.49-.01.99,0,1.48,0h.22v.77Z"/>
  <path class="cls-1" d="m42.52,35.45c-.11-.27-.21-.5-.31-.74.1-.04.19-.08.27-.11.45-.16.67-.48.68-.95.01-.99,0-1.98.01-2.98v-.6h.87v.21c0,1.04,0,2.08,0,3.11,0,.2-.02.41-.05.61-.08.49-.34.86-.78,1.1-.22.12-.44.22-.69.34"/>
  <rect class="cls-1" x="23.23" y="35.15" width=".84" height=".84"/>
  <rect class="cls-1" x="21.99" y="35.15" width=".83" height=".83"/>
</svg>