<?xml version="1.0" encoding="UTF-8"?>
<svg id="Layer_1" data-name="Layer 1" xmlns="http://www.w3.org/2000/svg" xmlns:xlink="http://www.w3.org/1999/xlink" viewBox="0 0 56.81 18.8">
  <defs>
    <style>
      .cls-1 {
        clip-path: url(#clippath-4);
      }

      .cls-1, .cls-2, .cls-3, .cls-4, .cls-5, .cls-6, .cls-7, .cls-8, .cls-9, .cls-10, .cls-11, .cls-12, .cls-13, .cls-14, .cls-15, .cls-16, .cls-17, .cls-18, .cls-19, .cls-20, .cls-21, .cls-22, .cls-23, .cls-24, .cls-25 {
        fill: none;
      }

      .cls-26 {
        fill: url(#linear-gradient-2);
      }

      .cls-2 {
        clip-path: url(#clippath-2);
      }

      .cls-3 {
        clip-path: url(#clippath-6);
      }

      .cls-27 {
        fill: url(#linear-gradient-17);
      }

      .cls-4 {
        clip-path: url(#clippath-9);
      }

      .cls-5 {
        clip-path: url(#clippath-12);
      }

      .cls-28 {
        fill: url(#linear-gradient-15);
      }

      .cls-6 {
        clip-path: url(#clippath-13);
      }

      .cls-29 {
        fill: url(#linear-gradient-18);
      }

      .cls-30 {
        fill: url(#linear-gradient-14);
      }

      .cls-31 {
        fill: url(#linear-gradient-20);
      }

      .cls-32 {
        fill: url(#linear-gradient-6);
      }

      .cls-7 {
        clip-path: url(#clippath-21);
      }

      .cls-33 {
        fill: url(#linear-gradient-11);
      }

      .cls-8 {
        clip-path: url(#clippath-7);
      }

      .cls-9 {
        clip-path: url(#clippath-18);
      }

      .cls-10 {
        clip-path: url(#clippath-10);
      }

      .cls-34 {
        fill: url(#linear-gradient-10);
      }

      .cls-11 {
        clip-path: url(#clippath-22);
      }

      .cls-12 {
        clip-path: url(#clippath-5);
      }

      .cls-35 {
        fill: url(#radial-gradient);
      }

      .cls-36 {
        fill: url(#linear-gradient-16);
      }

      .cls-13 {
        clip-path: url(#clippath-16);
      }

      .cls-14 {
        clip-path: url(#clippath-15);
      }

      .cls-37 {
        fill: url(#linear-gradient-5);
      }

      .cls-15 {
        clip-path: url(#clippath-3);
      }

      .cls-16 {
        clip-path: url(#clippath-11);
      }

      .cls-17 {
        clip-path: url(#clippath-19);
      }

      .cls-19 {
        clip-path: url(#clippath-20);
      }

      .cls-20 {
        clip-path: url(#clippath-23);
      }

      .cls-21 {
        clip-path: url(#clippath-17);
      }

      .cls-38 {
        fill: url(#linear-gradient-7);
      }

      .cls-22 {
        clip-path: url(#clippath);
      }

      .cls-39 {
        fill: url(#linear-gradient-9);
      }

      .cls-40 {
        fill: url(#linear-gradient-3);
      }

      .cls-23 {
        clip-path: url(#clippath-1);
      }

      .cls-24 {
        clip-path: url(#clippath-8);
      }

      .cls-41 {
        fill: url(#linear-gradient);
      }

      .cls-25 {
        clip-path: url(#clippath-14);
      }

      .cls-42 {
        fill: url(#linear-gradient-19);
      }

      .cls-43 {
        fill: url(#linear-gradient-4);
      }

      .cls-44 {
        fill: url(#linear-gradient-8);
      }

      .cls-45 {
        fill: url(#linear-gradient-12);
      }

      .cls-46 {
        fill: url(#linear-gradient-13);
      }
    </style>
    <clipPath id="clippath">
      <path class="cls-18" d="m15,6.86l.03.61h-.82v-.19h-.21v-.39h0l1-.03Zm-3.41-.31l-.21-.13.03-1.03h.61v1.27l-.43-.1Zm-.82-1.45l.29.24h-.29v-.24Zm2.35-.35h.37v1.21h-.24v.87h-.13v-2.08Zm1.03.4v-.5h1.43l.79.79v.31h-.2l-.17.17v.53h.47v.56h-.69v.24h-.47l-.1-2.05h-.54l.12.12h-.64v-.17Zm-12.01-.63c.66-.34,1.61.31,1.74.43.13.1,1.11,1.08,1.29,1.93,0,0-2.38-.14-3.04-2.36m13.61-.04l-.15-.15.04-.98h.24v.89l.19.2.26.27h-.36l-.23-.22Zm-4.16-1.47h.22v-.34l.21-.03v.29h.18v.71h-.4v-.21h-.21v-.43Zm1.09-.74l.16-.16v-.16h1.98l.14.15v.91h-1.46v-.26l-.43.03.03.82h-.43v-1.32Zm-1.48-2.27v.9l-.32.26-.24.11-1.11-.56-.26.05v.16l.66.37.47.29v.27l-.26.19.06.31h.96v1.27h-.19v-.82h-.63v.74h-.66v.68h.43v.71s-1.14,1.14-1.55,1.27c-.43.13-1.19.29-1.64-.34-.45-.63-1.64-2.72-1.64-2.72l-.13-.58-.21-.55-.37-.37-.84.43-.5.16-1.27.27-1.03.77-.77.48-.13.56.13.43.63.06.46-.21.37-.04s1.32,2.7,3.75,2.75c.34.56.82,1.37,1.48,1.69.66.31.93.21.93.21,0,0,.08,3.69.24,4.38.21,1.08.68,3.04.68,3.57s-.06.87-.06.87l-.4.06-.32.06-.26.16-.34.34h2.06l-.03-.93s-.47-3.38-.5-4.41c-.03-1.03.93-2.67.93-2.67,0,0,.61,1.24.84,2.45.24,1.21.82,2.24.93,2.8.1.55.53,1.58-.13,2.4-.47.24-.87.27-.87.27l-.05.23h1.75c.06-.19.35-1.12.25-1.47-.1-.4-.77-3.17-.84-3.88-.08-.71-.03-3.28-.03-3.28,0,0,2.3.16,2.38-.37l.08-.53s.48.5.48.71.37,2.03,2.05,3.83c0,0,.24.29.16.79-.08.5-.21,2.85-.84,3.32-.63.48-1.24.53-1.24.53l-.1.34h1.67c.09-.15.49-.84.54-1.08.06-.27.58-2.14.5-2.54s.77,1.07.84,1.3c.32.87,0,1.61,0,1.61l-.5.19-.32.16-.16.19h1.77l.13-.11v-1.9s-.95-1.27-1.3-2.22c-.34-.95-.16-2.35-.08-3.32.08-.98.58-2.22.58-2.22,0,0,.61.32,1.14,2.08.21.21-.06-3.04-2.17-4.73-.08-.37-.06-1.24-.06-1.24l.47-.1.21-.18-.03-.84-.32-.1-.56-.13-.45-.69-.26-.5-.21-.24-.19-.19-.06-.87-.1-.34-.08-.21h-2.95v-.55h-1.44Z"/>
    </clipPath>
    <radialGradient id="radial-gradient" cx="-265.4" cy="644.23" fx="-265.4" fy="644.23" r="1" gradientTransform="translate(2545.97 6162.27) scale(9.56 -9.56)" gradientUnits="userSpaceOnUse">
      <stop offset="0" stop-color="#ffcd55"/>
      <stop offset=".07" stop-color="#f9c852"/>
      <stop offset=".69" stop-color="#cfa342"/>
      <stop offset="1" stop-color="#bf953c"/>
    </radialGradient>
    <clipPath id="clippath-1">
      <path class="cls-18" d="m30.16,12.99c-.08-.08-.12-.17-.12-.26s.04-.18.12-.26c.08-.08.18-.12.27-.12s.18.04.26.12c.08.08.12.17.12.26,0,.1-.04.19-.12.26-.08.07-.17.11-.27.11-.1,0-.19-.04-.27-.12m6.25,0c-.08-.08-.12-.17-.12-.26,0-.1.04-.2.11-.27.07-.07.16-.11.27-.11.1,0,.19.04.27.1.07.07.11.16.11.26s-.04.19-.11.27c-.08.08-.16.12-.26.12-.11,0-.19-.04-.27-.12m-12.09-3.95s-.17.1-.39.29c-.23.2-.34.31-.34.33,0,.01.01.04.04.08.03.04.04.07.04.09v2.89c0,.21-.07.4-.22.56-.15.16-.32.24-.52.24s-.35-.05-.44-.15c-.06-.07-.12-.19-.15-.36-.05-.2-.09-.33-.13-.4h-.07l-.04.15c0,.33.11.62.33.84.22.22.49.33.83.33.29,0,.52-.08.7-.22.15-.13.28-.34.39-.63h5.02c.2.49.55.75,1.07.75s.85-.25,1.06-.75h3.88s.22,0,.22,0c.08.22.21.4.41.54.2.13.42.2.66.2.28,0,.49-.07.65-.2.1-.08.23-.26.41-.54h1.45v-3.93l-.07-.07s-.13.09-.33.26c-.2.17-.33.28-.38.33v.05s.06.24.06.65c.01.29.01.69,0,1.2-.01.64-.01.91-.01.8h-.72c-.17-.31-.35-.5-.51-.58-.27-.12-.45-.22-.56-.32-.07.08-.22.19-.45.3-.21.1-.41.3-.62.58h-.22.18-.49c-.15-.07-.31-.28-.47-.63-.19-.43-.36-.73-.49-.89-.27-.29-.63-.44-1.09-.44-.18,0-.35.03-.51.08,0,.08.09.35.31.82.1-.1.2-.15.32-.15.19,0,.35.08.47.23.06.08.15.25.27.51.1.23.19.38.27.47h-2.66c-.11-.22-.27-.4-.47-.52-.2-.13-.4-.24-.6-.37-.05.04-.25.17-.6.38-.24.15-.39.32-.46.51h-4.98v-3.25l-.06-.04h0"/>
    </clipPath>
    <linearGradient id="linear-gradient" x1="-233.41" y1="605.64" x2="-232.41" y2="605.64" gradientTransform="translate(3002.22 -1131.29) rotate(-90) scale(4.91 -4.91)" gradientUnits="userSpaceOnUse">
      <stop offset="0" stop-color="#bf953c"/>
      <stop offset=".29" stop-color="#cda141"/>
      <stop offset=".84" stop-color="#f2c250"/>
      <stop offset="1" stop-color="#ffcd55"/>
    </linearGradient>
    <clipPath id="clippath-2">
      <path class="cls-18" d="m40.13,9.34c-.22.19-.33.31-.34.34.04.04.06.31.07.85.01.38.01.89,0,1.54,0,.59,0,.93,0,1.02h.72v-3.97l-.08-.07s-.15.1-.36.29"/>
    </clipPath>
    <linearGradient id="linear-gradient-2" x1="-224.91" y1="604.05" x2="-223.91" y2="604.05" gradientTransform="translate(2481.91 -896.07) rotate(-90) scale(4.04 -4.04)" xlink:href="#linear-gradient"/>
    <clipPath id="clippath-3">
      <path class="cls-18" d="m39.85,13.13v-.04.04Z"/>
    </clipPath>
    <clipPath id="clippath-4">
      <polygon class="cls-18" points="39.85 13.09 39.85 13.09 39.85 13.13 39.85 13.09"/>
    </clipPath>
    <clipPath id="clippath-5">
      <path class="cls-18" d="m39.85,13.09s0,.04,0,0"/>
    </clipPath>
    <clipPath id="clippath-6">
      <rect class="cls-18" x="39.71" y="12.66" width=".44" height=".44"/>
    </clipPath>
    <linearGradient id="linear-gradient-3" x1="6629.66" y1="-2008.9" x2="6630.66" y2="-2008.9" gradientTransform="translate(-16.85 200.49) rotate(-90) scale(.03 -.03)" xlink:href="#linear-gradient"/>
    <clipPath id="clippath-7">
      <path class="cls-18" d="m42.68,9.97c-.07.07-.11.15-.11.24,0,.1.04.18.1.24.05.05.11.08.18.1h.16c.16-.03.24-.14.24-.33,0-.09-.04-.17-.1-.24-.06-.07-.15-.1-.24-.1,0,0-.01,0-.02,0-.08,0-.15.03-.22.1"/>
    </clipPath>
    <linearGradient id="linear-gradient-4" x1="12.77" y1="513.13" x2="13.77" y2="513.13" gradientTransform="translate(393.02 19.26) rotate(-90) scale(.68 -.68)" xlink:href="#linear-gradient"/>
    <clipPath id="clippath-8">
      <path class="cls-18" d="m48.11,10.1v1.67h2.37c.17,0,.24.15.24.47v.12s-.01,0-.01-.03h-7.16c-.04-.2-.12-.45-.25-.75-.17-.38-.33-.58-.46-.58-.04.01-.06.03-.09.05-.27.45-.39.7-.39.77,0,0,.08.1.22.31.15.22.22.43.22.65,0,.29-.1.52-.31.7-.21.17-.46.26-.75.26v.11c.1.07.23.12.38.13h.32c.37-.03.64-.16.81-.4.09-.17.19-.33.28-.49h7.89v-1.19c-.07-.59-.57-.88-1.51-.88-.15,0-.35,0-.59.02-.24.01-.41.03-.49.03v-.46l1.64-.62c.06.02.12.02.16,0,.07-.2.19-.5.34-.89l-.06-.08-2.82,1.09Z"/>
    </clipPath>
    <linearGradient id="linear-gradient-5" x1="-233.92" y1="606.6" x2="-232.92" y2="606.6" gradientTransform="translate(3060.94 -1148.4) rotate(-90) scale(4.97 -4.97)" xlink:href="#linear-gradient"/>
    <clipPath id="clippath-9">
      <path class="cls-18" d="m55.31,13c-.08-.08-.12-.16-.12-.25,0-.1.04-.18.12-.26.08-.08.17-.12.26-.12.24,0,.37.12.37.38,0,.24-.13.36-.38.36,0,0-.01,0-.02,0-.09,0-.16-.04-.24-.11m-2.5-1.94c-.18.31-.31.57-.4.77,0,0,.08.12.23.33.15.21.22.42.22.64,0,.31-.1.55-.31.7-.15.11-.4.19-.75.25v.05c.07.11.22.18.42.2h.29c.22-.02.43-.1.62-.22.27-.18.42-.38.43-.64l.02-.04h.9c.19.5.54.75,1.07.75.32,0,.59-.1.8-.31.21-.21.32-.47.32-.79,0-.3-.06-.52-.19-.68-.08-.1-.22-.2-.43-.29-.23-.11-.4-.22-.5-.32,0,0-.2.13-.6.38-.24.15-.39.31-.46.49h-.9c-.04-.23-.12-.47-.24-.74-.15-.36-.31-.57-.47-.59l-.08.04Z"/>
    </clipPath>
    <linearGradient id="linear-gradient-6" x1="-208.01" y1="596.89" x2="-207.01" y2="596.89" gradientTransform="translate(1841.08 -608.69) rotate(-90) scale(2.99 -2.99)" xlink:href="#linear-gradient"/>
    <clipPath id="clippath-10">
      <path class="cls-18" d="m23.78,17.55l-.1-.14.21-.77.27.95-.2.35c-.05-.15-.11-.28-.18-.38m.87-1.81h0s-.06.01-.06.01c-.08.04-.17.07-.26.09-.04,0-.08.01-.13.02-.03,0-.07,0-.13,0-.14,0-.27-.02-.42-.06l-.17-.06h-.1c-.07,0-.11,0-.13.04,0,.02.01.06.04.1.04.05.07.09.11.12l.1.08c.06.08.1.16.1.26,0,.08-.02.17-.06.28l-.15.5c-.09-.06-.18-.09-.27-.1-.03,0-.07-.01-.12-.01-.13,0-.24.04-.33.12-.08.08-.13.19-.13.33,0,.09.01.16.04.21.05.08.13.11.25.11h.03s.06-.09.06-.17.01-.12.04-.15c.03-.02.06-.03.11-.03.02,0,.05,0,.08,0,0,0,.03,0,.06.01,0,0,.01,0,.03.01.01,0,.03,0,.03,0-.13.36-.25.61-.38.76-.08.1-.17.15-.26.15h-.05s-.08-.03-.1-.08l-.03-.07s-.04-.05-.06-.06h-.07c-.08-.01-.15,0-.22.05-.09.06-.15.17-.17.3v.16s.01.08.02.11h1.11s.02-.03.03-.04c.13-.16.25-.39.36-.67l.11-.36.22.52.02.06c.04.08.07.12.11.12s.08-.04.12-.1l.22-.41.2.73-.02.11s-.01.02-.02.04h.93s-.08-.06-.11-.1c-.02-.03-.05-.07-.07-.13l-.17-.57-.31-.98-.16-.52s-.03-.07-.03-.1v-.1c0-.09.02-.18.08-.26l.08-.08s.06-.08.08-.12c.01-.02.02-.06.02-.09,0,0,0-.01,0-.01h-.11Z"/>
    </clipPath>
    <linearGradient id="linear-gradient-7" x1="-215.7" y1="600.13" x2="-214.7" y2="600.13" gradientTransform="translate(2060.56 -712.96) rotate(-90) scale(3.39 -3.39)" xlink:href="#linear-gradient"/>
    <clipPath id="clippath-11">
      <path class="cls-18" d="m26.26,15.68l-.04.03c-.09.1-.2.16-.33.19-.06.02-.11.03-.17.03h-.1s-.03.01-.06.03c0,.03.01.06.04.1l.02.02c.07.04.11.08.13.12.04.07.06.15.06.24v2.15c0,.08,0,.14-.03.19,0,.01-.01.03-.02.04h.66s-.02-.07-.03-.1v-.1s-.01-2.81-.01-2.81c0-.08,0-.13-.03-.13,0,0-.01,0-.02,0-.02,0-.04,0-.08.02"/>
    </clipPath>
    <linearGradient id="linear-gradient-8" x1="-215.93" y1="600.6" x2="-214.93" y2="600.6" gradientTransform="translate(2072.86 -716.85) rotate(-90) scale(3.41 -3.41)" xlink:href="#linear-gradient"/>
    <clipPath id="clippath-12">
      <path class="cls-18" d="m30.13,15.74c-.12.04-.22.07-.28.08-.06,0-.12.01-.19.03h-.2c-.07,0-.15,0-.24-.01-.1,0-.19-.02-.25-.03l-.2-.04h-.08s-.08,0-.08.02v.06s.08.1.08.1l.18.15c.12.13.19.27.21.42l.03.22c.02.17.03.34.03.52v.12s0,.02,0,.04c0,.08-.01.15-.02.21,0,.06-.01.12-.03.19,0,.02,0,.04,0,.04,0,.01,0,.05-.02.1,0,.01,0,.03-.01.05l-.04.15c-.04.1-.09.15-.15.15l-.12-.02s-.06-.04-.1-.04l-.08.02h-.04c-.06.05-.09.1-.12.18-.01.03-.02.07-.03.12v.24h.9c.03-.06.06-.13.08-.2.04-.12.08-.31.1-.55,0-.04.01-.1.02-.17h0v-.22s0-.11-.01-.21v-.07c-.01-.22-.03-.36-.03-.4l-.03-.33.35,1.18.3.97h.4l.62-2.16v1.96c-.02.09-.05.15-.1.2h.89s-.05-.06-.07-.09c-.04-.08-.06-.16-.06-.26v-2.04c0-.18.07-.33.22-.44l.1-.06s.06-.09.06-.12c0-.02-.03-.03-.05-.03-.02,0-.06,0-.12,0-.1.04-.2.06-.3.08,0,0-.03,0-.04.01-.01,0-.04,0-.07,0h-.19c-.07,0-.14,0-.22-.02-.1,0-.17-.02-.24-.04l-.18-.04c-.1,0-.15.02-.15.06,0,.04.04.09.1.15l.08.07c.05.06.08.13.08.21,0,.05-.01.11-.03.17l-.36,1.26-.36-1.19v-.04c-.04-.07-.04-.13-.04-.19,0-.07.01-.13.05-.19.03-.06.08-.1.14-.14.01-.01.03-.04.05-.08,0,0,.01-.02.01-.03v-.05s-.01-.03-.05-.03h-.04s-.04,0-.04,0Z"/>
    </clipPath>
    <linearGradient id="linear-gradient-9" x1="-215.99" y1="600.2" x2="-214.99" y2="600.2" gradientTransform="translate(2077.82 -717.71) rotate(-90) scale(3.41 -3.41)" xlink:href="#linear-gradient"/>
    <clipPath id="clippath-13">
      <path class="cls-18" d="m32.32,16.9s-.03.1-.03.17c.02.1.04.18.06.24.08.16.21.24.38.24l.15-.02c.06-.03.1-.07.11-.11-.05-.02-.08-.04-.08-.06,0-.03-.01-.05-.01-.07,0-.06,0-.09.03-.1.01,0,.05-.01.1-.01.08,0,.13.01.18.04.05.03.08.09.08.19l.13.71v.08s.02.1.02.1c0,.1-.02.18-.06.26-.05.09-.15.15-.27.17-.12,0-.2-.06-.26-.17-.01-.03-.03-.09-.04-.17,0-.12.04-.2.1-.24.02-.01.06-.02.1-.03.05,0,.1.02.15.04.04.02.06.06.08.12l.03-.02s.08-.08.08-.14c0-.13-.04-.24-.12-.33-.08-.08-.18-.12-.33-.12s-.28.04-.39.1c-.2.12-.29.34-.29.63.02.12.04.2.05.23.02.06.04.1.05.13,0,.01.01.03.02.04h1.19v-.02s.01.01.01.02h.61s-.02-.04-.03-.07c-.01-.03-.03-.08-.04-.15l-.17-1.11c-.03-.24-.11-.42-.24-.52-.08-.06-.19-.1-.32-.1-.11.03-.19.05-.25.06l-.21.02s-.09,0-.15-.02c-.04,0-.09-.01-.14-.03-.05-.01-.1-.04-.17-.08-.06,0-.1.04-.12.09"/>
    </clipPath>
    <linearGradient id="linear-gradient-10" x1="-189.11" y1="590.09" x2="-188.11" y2="590.09" gradientTransform="translate(1402.69 -419.8) rotate(-90) scale(2.32 -2.32)" xlink:href="#linear-gradient"/>
    <clipPath id="clippath-14">
      <path class="cls-18" d="m35.05,15.68l-.04.03c-.09.1-.2.16-.33.19-.06.02-.11.03-.17.03h-.1s-.04.01-.06.03c0,.03.01.06.05.1l.02.02c.06.04.11.08.13.12.04.07.06.15.06.24v2.15c0,.08-.01.14-.03.19,0,.01-.01.03-.02.04h.66s-.02-.07-.03-.1v-.1s0-.95,0-.95c0-.19.07-.31.2-.36.02,0,.05-.01.09-.01.08,0,.14.03.2.09.06.06.09.13.09.22v1.02c0,.08-.02.14-.05.2h.67s-.02-.04-.03-.06l-.03-.14v-1.23c0-.22-.08-.38-.23-.46-.09-.06-.22-.08-.38-.08-.13,0-.24.02-.34.07-.09.05-.16.12-.21.2v-1.31c0-.08,0-.12-.03-.13-.04,0-.08.01-.11.04"/>
    </clipPath>
    <linearGradient id="linear-gradient-11" x1="-215.93" y1="600.42" x2="-214.93" y2="600.42" gradientTransform="translate(2081.65 -716.85) rotate(-90) scale(3.41 -3.41)" xlink:href="#linear-gradient"/>
    <clipPath id="clippath-15">
      <path class="cls-18" d="m37.43,16.83c-.07.07-.12.11-.15.13-.13.08-.28.12-.45.12h-.04s-.08.04-.08.06c0,.01.01.04.03.06l.07.05.08.08c.06.06.08.15.08.26v1.03c0,.08-.02.14-.04.19h.68s0,0,0-.01c-.03-.06-.04-.12-.04-.19v-1c0-.1.02-.18.07-.24.05-.06.11-.08.2-.08.04,0,.08,0,.1.01.02.01.05.02.07.04.06.06.1.15.1.29v1.01c0,.06,0,.1-.03.15,0,0,0,.01,0,.02h.65s-.01-.03-.02-.05v-.14s-.01-1.02-.01-1.02c0-.15.04-.24.13-.29.03-.01.08-.03.14-.04.06,0,.1.03.13.04.08.07.13.17.13.33v.98c0,.07,0,.14-.04.19h.65c-.02-.05-.03-.11-.03-.19v-1.02c0-.25-.06-.44-.19-.56-.13-.12-.28-.19-.45-.19-.15,0-.27.04-.36.1-.1.07-.16.15-.19.22-.06-.13-.16-.22-.29-.27-.08-.03-.17-.04-.26-.04l-.19.04c-.15.04-.25.12-.32.23v-.28s0,0-.01,0c0,0-.01-.01-.02-.01h-.07s-.03.01-.03.01Z"/>
    </clipPath>
    <linearGradient id="linear-gradient-12" x1="-187.31" y1="589.13" x2="-186.31" y2="589.13" gradientTransform="translate(1376.81 -406.52) rotate(-90) scale(2.27 -2.27)" xlink:href="#linear-gradient"/>
    <clipPath id="clippath-16">
      <path class="cls-18" d="m40.24,16.9s-.03.1-.03.17c.02.1.04.18.06.24.08.16.21.24.38.24l.15-.02c.06-.03.1-.07.11-.11-.05-.02-.08-.04-.08-.06,0-.03-.01-.05-.01-.07,0-.06,0-.09.03-.1.01,0,.05-.01.1-.01.08,0,.13.01.18.04.05.03.08.09.08.19l.13.71v.08s.02.1.02.1c0,.1-.02.18-.06.26-.06.09-.15.15-.28.17-.12,0-.2-.06-.25-.17-.01-.03-.03-.09-.04-.17,0-.12.03-.2.1-.24.02-.01.06-.02.1-.03.05,0,.1.02.15.04.04.02.06.06.08.12l.03-.02s.08-.08.08-.14c0-.13-.04-.24-.11-.33-.08-.08-.19-.12-.33-.12s-.28.04-.39.1c-.2.12-.29.34-.29.63.02.12.04.2.05.23.01.06.03.1.05.13,0,.01.01.03.02.04h1.19v-.02s.01.01.01.02h.61s-.02-.04-.03-.07c-.01-.03-.03-.08-.04-.15l-.17-1.11c-.04-.24-.11-.42-.24-.52-.08-.06-.19-.1-.32-.1-.11.03-.2.05-.25.06l-.21.02s-.09,0-.15-.02c-.04,0-.09-.01-.14-.03-.05-.01-.1-.04-.17-.08-.07,0-.11.04-.12.09"/>
    </clipPath>
    <linearGradient id="linear-gradient-13" x1="-189.11" y1="590.09" x2="-188.11" y2="590.09" gradientTransform="translate(1410.6 -419.8) rotate(-90) scale(2.32 -2.32)" xlink:href="#linear-gradient"/>
    <clipPath id="clippath-17">
      <path class="cls-18" d="m42.96,15.68l-.04.03c-.09.1-.2.16-.33.19-.06.02-.11.03-.17.03h-.11s-.03.01-.06.03c0,.03.01.06.04.1l.02.02c.07.04.11.08.13.12.04.07.06.15.06.24v2.15c0,.08,0,.14-.03.19,0,.01-.01.03-.02.04h.65s-.02-.07-.03-.1v-.1s-.01-2.81-.01-2.81c0-.08,0-.13-.03-.13,0,0-.01,0-.02,0-.02,0-.04,0-.07.02"/>
    </clipPath>
    <linearGradient id="linear-gradient-14" x1="-215.93" y1="600.6" x2="-214.93" y2="600.6" gradientTransform="translate(2089.56 -716.85) rotate(-90) scale(3.41 -3.41)" xlink:href="#linear-gradient"/>
    <clipPath id="clippath-18">
      <path class="cls-18" d="m46.11,15.74c-.26.09-.47.24-.63.44-.22.29-.32.67-.32,1.14v.13c0,.15.03.3.07.47.08.33.21.59.4.79.03.03.06.06.09.09h1.77c.18-.19.28-.45.3-.77v-.17s-.02-.06-.04-.06c-.03,0-.06.03-.1.08l-.04.08c0,.15-.1.31-.3.47-.15.12-.33.19-.54.19-.31,0-.55-.11-.72-.33-.17-.22-.25-.49-.25-.84v-.12c0-.3.06-.54.2-.72.14-.17.32-.26.54-.26.11.02.19.04.24.06.16.08.24.21.24.4,0,.13-.03.22-.1.29-.06.06-.14.1-.25.1-.1,0-.17-.02-.21-.07-.02-.02-.03-.06-.03-.11l.02-.07c.02-.05.06-.08.12-.1l.03-.02s.03-.04.03-.08,0-.07-.03-.09c-.01-.01-.05-.03-.09-.03-.08,0-.16.03-.22.1-.03.04-.06.08-.08.12-.02.05-.03.11-.03.15,0,.13.03.24.1.33.1.14.28.2.52.2.2-.04.36-.08.45-.13.3-.18.45-.47.45-.91,0-.23-.02-.4-.06-.54-.05-.14-.11-.2-.2-.2-.06.01-.09.03-.11.03-.01,0-.06,0-.1,0l-.17-.03-.06-.02s-.08-.03-.13-.04c-.03,0-.06-.01-.09-.01-.05-.01-.13-.02-.23-.02-.13,0-.28.03-.43.08"/>
    </clipPath>
    <linearGradient id="linear-gradient-15" x1="-217.08" y1="600.78" x2="-216.08" y2="600.78" gradientTransform="translate(2135.86 -735.81) rotate(-90) scale(3.48 -3.48)" xlink:href="#linear-gradient"/>
    <clipPath id="clippath-19">
      <path class="cls-18" d="m48.45,17.39s.03-.08.04-.13c.07-.11.18-.17.33-.17.11,0,.2.04.25.11.06.08.08.18.08.31-.02.2-.11.33-.26.38l-.1.02c-.07,0-.12-.01-.15-.05-.03-.03-.06-.07-.06-.13v-.13s.03-.03.05-.03h.05s.03.03.03.03l.05.03s.04,0,.06,0l.05-.02s.02-.04.02-.06c0-.06-.02-.1-.06-.12-.05-.01-.1-.03-.17-.03-.04,0-.08,0-.13.03-.04.02-.08.06-.12.11,0-.06,0-.11.02-.15m.17-.53c-.2.06-.34.16-.45.29-.13.17-.21.38-.24.64v.22l.04.24c.06.22.13.4.24.54h1.22c.18-.19.27-.35.27-.48v-.1s0-.04-.01-.04l-.06.04-.04.04c-.14.15-.29.26-.45.31-.03.01-.06.02-.1.03-.25,0-.43-.1-.53-.3-.03-.07-.06-.17-.08-.29l.13.11c.1.08.21.11.32.11h.08c.16-.06.28-.12.34-.16.13-.08.22-.17.28-.27.06-.1.1-.21.1-.33v-.1c0-.14-.02-.25-.07-.34l-.08-.1c-.07.02-.12.03-.16.03-.07,0-.14-.01-.2-.04l-.07-.04s-.04-.03-.1-.03c-.05,0-.1,0-.15,0-.02,0-.04,0-.06,0-.05,0-.12.01-.18.03"/>
    </clipPath>
    <linearGradient id="linear-gradient-16" x1="-187.45" y1="589.49" x2="-186.45" y2="589.49" gradientTransform="translate(1390.43 -407.52) rotate(-90) scale(2.28 -2.28)" xlink:href="#linear-gradient"/>
    <clipPath id="clippath-20">
      <path class="cls-18" d="m50.56,16.8l-.04.03c-.07.07-.12.11-.15.13-.13.08-.28.12-.45.12h-.04s-.08.04-.08.06c0,.01.01.04.03.06l.07.05.08.08c.06.06.08.15.08.26v1.03c0,.08-.01.14-.04.19h.68s0,0,0-.01c-.03-.06-.04-.12-.04-.19v-1c0-.1.02-.18.07-.24.05-.06.11-.08.2-.08.04,0,.08,0,.1.01.02.01.05.02.07.04.06.06.1.15.1.29v1.01c0,.06,0,.1-.03.15,0,0,0,.01,0,.02h.66s-.01-.03-.02-.05v-.14s-.01-1.02-.01-1.02v-.1c0-.22-.05-.38-.16-.5-.11-.11-.27-.17-.46-.17l-.19.04c-.15.04-.25.12-.32.23v-.28s0,0-.01,0c0,0-.01-.01-.02-.01h-.06Z"/>
    </clipPath>
    <linearGradient id="linear-gradient-17" x1="-187.31" y1="589.38" x2="-186.31" y2="589.38" gradientTransform="translate(1389.91 -406.52) rotate(-90) scale(2.27 -2.27)" xlink:href="#linear-gradient"/>
    <clipPath id="clippath-21">
      <path class="cls-18" d="m52.79,16.03s-.06.04-.09.08l-.04.08c0,.19-.06.35-.17.49-.11.14-.26.23-.46.27v.22h.26v1.45c.01.08.03.14.04.19h.97s.02-.05.02-.08c.01-.01.02-.04.02-.06v-.07s0-.01,0-.01h0s-.06.05-.06.05c-.04.03-.07.05-.1.06-.03.01-.07.02-.12.03-.08,0-.13-.03-.15-.08-.02-.06-.03-.12-.03-.19v-1.3h.35v-.29h-.35v-.73s0-.06-.01-.07c0,0,0-.02-.01-.03h-.02s-.05,0-.05,0Z"/>
    </clipPath>
    <linearGradient id="linear-gradient-18" x1="-209.77" y1="598.17" x2="-208.77" y2="598.17" gradientTransform="translate(1893.33 -626.4) rotate(-90) scale(3.08 -3.08)" xlink:href="#linear-gradient"/>
    <clipPath id="clippath-22">
      <path class="cls-18" d="m53.97,17.39s.03-.08.04-.13c.07-.11.18-.17.34-.17.11,0,.19.04.25.11.06.08.08.18.08.31-.02.2-.11.33-.26.38l-.1.02c-.06,0-.12-.01-.15-.05-.04-.03-.06-.07-.06-.13v-.13s.04-.03.06-.03h.05s.03.03.03.03l.05.03s.04,0,.06,0l.04-.02s.02-.04.02-.06c0-.06-.02-.1-.06-.12-.05-.01-.1-.03-.17-.03-.04,0-.08,0-.13.03-.04.02-.08.06-.11.11,0-.06,0-.11.02-.15m.17-.53c-.2.06-.34.16-.45.29-.16.2-.24.47-.24.81l.04.29c.06.22.13.4.24.54h1.23c.18-.19.27-.35.27-.48v-.1s0-.04-.01-.04l-.06.04-.04.04c-.14.15-.29.26-.45.31-.02.01-.06.02-.1.03-.25,0-.43-.1-.53-.3-.03-.07-.06-.17-.08-.29l.13.11c.1.08.21.11.32.11h.08c.16-.06.28-.12.34-.16.13-.08.22-.17.28-.27.06-.1.1-.21.1-.33v-.1c0-.14-.02-.25-.07-.34l-.08-.1c-.07.02-.12.03-.16.03-.07,0-.14-.01-.2-.04l-.07-.04s-.04-.03-.1-.03c-.05,0-.1,0-.15,0-.02,0-.04,0-.06,0-.06,0-.12.01-.19.03"/>
    </clipPath>
    <linearGradient id="linear-gradient-19" x1="-187.45" y1="589.49" x2="-186.45" y2="589.49" gradientTransform="translate(1395.94 -407.52) rotate(-90) scale(2.28 -2.28)" xlink:href="#linear-gradient"/>
    <clipPath id="clippath-23">
      <path class="cls-18" d="m56.07,16.81s-.03.01-.04.02l-.03.03c-.08.11-.19.17-.31.21-.07.02-.17.03-.29.03-.07,0-.1.01-.1.04v.02s.05.05.05.05l.03.02s.08.04.1.06c.06.06.09.15.09.25v1.07c0,.07-.01.14-.04.19h.68s-.05-.1-.05-.17v-1.04c0-.06.01-.11.05-.15.02-.02.06-.04.1-.04.05,0,.08.02.11.05.03.03.04.1.04.19s.01.18.04.24c.03.06.08.08.15.08h.04s.03-.05.03-.08c0-.01,0-.03-.03-.08-.02-.03-.03-.06-.03-.1,0-.07.05-.15.14-.24l.02-.02v-.56c-.07-.05-.15-.07-.24-.08-.13,0-.24.06-.34.19l-.1.19v-.36s-.05-.04-.05-.04c0,0-.01,0-.01,0"/>
    </clipPath>
    <linearGradient id="linear-gradient-20" x1="-187.31" y1="589.49" x2="-186.31" y2="589.49" gradientTransform="translate(1395.4 -406.51) rotate(-90) scale(2.27 -2.27)" xlink:href="#linear-gradient"/>
  </defs>
  <g class="cls-22">
    <rect class="cls-35" width="19.58" height="18.78"/>
  </g>
  <g class="cls-23">
    <rect class="cls-41" x="22.1" y="9.05" width="17.08" height="4.89"/>
  </g>
  <g class="cls-2">
    <rect class="cls-26" x="39.79" y="9.05" width=".79" height="4.04"/>
  </g>
  <g class="cls-15">
    <g class="cls-1">
      <g class="cls-12">
        <g class="cls-3">
          <rect class="cls-40" x="39.71" y="12.66" width=".44" height=".44"/>
        </g>
      </g>
    </g>
  </g>
  <g class="cls-8">
    <rect class="cls-43" x="42.57" y="9.87" width=".69" height=".68"/>
  </g>
  <g class="cls-24">
    <rect class="cls-37" x="41.76" y="9.02" width="9.68" height="4.97"/>
  </g>
  <g class="cls-4">
    <rect class="cls-32" x="51.8" y="11.02" width="4.89" height="2.98"/>
  </g>
  <g class="cls-10">
    <rect class="cls-38" x="21.93" y="15.74" width="3.42" height="3.06"/>
  </g>
  <g class="cls-16">
    <rect class="cls-44" x="25.55" y="15.66" width=".87" height="3.15"/>
  </g>
  <g class="cls-5">
    <rect class="cls-39" x="28.37" y="15.73" width="3.74" height="3.07"/>
  </g>
  <g class="cls-6">
    <rect class="cls-34" x="32.21" y="16.81" width="1.93" height="1.99"/>
  </g>
  <g class="cls-25">
    <rect class="cls-33" x="34.35" y="15.64" width="2.05" height="3.16"/>
  </g>
  <g class="cls-14">
    <rect class="cls-45" x="36.71" y="16.8" width="3.13" height="2"/>
  </g>
  <g class="cls-13">
    <rect class="cls-46" x="40.14" y="16.81" width="1.93" height="1.99"/>
  </g>
  <g class="cls-21">
    <rect class="cls-30" x="42.26" y="15.66" width=".86" height="3.15"/>
  </g>
  <g class="cls-9">
    <rect class="cls-28" x="45.17" y="15.66" width="2.63" height="3.14"/>
  </g>
  <g class="cls-17">
    <rect class="cls-36" x="47.94" y="16.83" width="1.78" height="1.97"/>
  </g>
  <g class="cls-19">
    <rect class="cls-27" x="49.8" y="16.8" width="2.01" height="2"/>
  </g>
  <g class="cls-7">
    <rect class="cls-29" x="52.04" y="16.03" width="1.32" height="2.77"/>
  </g>
  <g class="cls-11">
    <rect class="cls-42" x="53.44" y="16.83" width="1.79" height="1.97"/>
  </g>
  <g class="cls-20">
    <rect class="cls-31" x="55.3" y="16.8" width="1.51" height="2"/>
  </g>
</svg>