<?xml version="1.0" encoding="UTF-8"?>
<svg id="Layer_1" data-name="Layer 1" xmlns="http://www.w3.org/2000/svg" viewBox="0 0 9.64 9.64">
  <defs>
    <style>
      .cls-1 {
        fill: #f5f6f6;
      }

      .cls-2 {
        fill: #daab27;
      }
    </style>
  </defs>
  <path class="cls-2" d="m4.45,7.26c.2,0,.37-.09.51-.28.21-.27.42-.55.63-.82.36-.47.71-.95,1.07-1.43.25-.34.51-.67.76-1.01.14-.19.17-.4.06-.61-.19-.35-.66-.38-.91-.06-.07.09-.13.18-.2.27-.3.4-.6.79-.9,1.19-.23.3-.45.6-.68.9-.12.16-.26.31-.37.48-.02.03-.05.07-.1.04-.1-.07-.2-.14-.29-.21-.39-.29-.78-.58-1.18-.85-.19-.13-.41-.15-.62-.03-.33.2-.35.67-.03.91.36.27.72.53,1.09.78.28.2.56.39.83.59.1.08.22.12.33.13M4.82,0c.09,0,.17,0,.26,0,.2,0,.39.03.58.05.23.03.45.1.67.16.19.06.38.14.56.23.62.3,1.15.71,1.6,1.23.26.3.48.64.66.99.11.21.19.42.27.64.06.18.12.37.15.57.03.2.07.39.06.6,0,.24,0,.47,0,.71,0,.14-.02.27-.04.41-.03.23-.1.46-.17.69-.11.36-.26.7-.46,1.02-.15.24-.31.47-.5.69-.35.4-.76.74-1.21,1.01-.29.18-.61.31-.93.42-.16.05-.32.09-.49.13-.27.06-.55.09-.83.09-.15,0-.31,0-.46,0-.17,0-.33-.02-.5-.04-.18-.02-.36-.08-.54-.12-.29-.07-.57-.19-.84-.32-.28-.14-.55-.3-.8-.5-.31-.24-.58-.51-.83-.8-.2-.24-.36-.5-.51-.77-.13-.24-.24-.5-.33-.76-.06-.16-.09-.32-.12-.48-.05-.23-.09-.46-.09-.69,0-.21,0-.42,0-.63,0-.16.01-.32.04-.47.03-.24.1-.46.17-.69.11-.34.25-.67.43-.98.16-.27.33-.51.53-.75.34-.39.73-.71,1.16-.98.29-.17.59-.31.91-.42.18-.06.36-.11.54-.15C4.13.01,4.47,0,4.82,0"/>
  <path class="cls-1" d="m4.45,7.26c-.12,0-.23-.05-.33-.13-.27-.21-.56-.4-.83-.59-.37-.26-.73-.51-1.09-.78-.32-.24-.3-.71.03-.91.21-.12.42-.11.62.03.4.28.8.56,1.18.85.1.07.2.14.29.21.05.04.08,0,.1-.04.11-.17.25-.32.37-.48.22-.3.45-.6.68-.9.3-.4.6-.79.9-1.19.07-.09.13-.18.2-.27.26-.32.72-.29.91.06.12.21.08.42-.06.61-.25.34-.5.67-.76,1.01-.36.47-.71.95-1.07,1.43-.21.28-.42.55-.63.82-.14.18-.31.28-.51.28"/>
</svg>