<?xml version="1.0" encoding="utf-8"?>
<!-- Generator: Adobe Illustrator 25.4.1, SVG Export Plug-In . SVG Version: 6.00 Build 0)  -->
<svg version="1.1" id="Layer_1" xmlns="http://www.w3.org/2000/svg" xmlns:xlink="http://www.w3.org/1999/xlink" x="0px" y="0px"
	 viewBox="0 0 448.5 169.7" style="enable-background:new 0 0 448.5 169.7;" xml:space="preserve">
<style type="text/css">
	.st0{fill:#E8F4E8;}
	.st1{fill:none;}
	.st2{filter:url(#Adobe_OpacityMaskFilter);}
	.st3{fill:url(#SVGID_1_);}
	.st4{mask:url(#SVGID_00000094584899161406924920000017613775705483851697_);}
	.st5{fill:#F9F1E1;}
	.st6{fill:#E9DDC4;}
	.st7{fill:#3F277C;}
	.st8{fill:#FFFFFF;}
	.st9{fill:#744294;}
	.st10{fill:#A970AF;}
	.st11{fill:#B48E2E;}
	.st12{fill:#DBB027;}
	.st13{fill:#4D4D4F;}
	.st14{fill:#E7DAEC;}
	.st15{fill:#DCD7EB;}
	.st16{fill:#DDD9E8;}
	.st17{fill:#D4A628;}
	.st18{fill:url(#SVGID_00000057127658771915568550000017113818863285467029_);}
	.st19{fill:url(#SVGID_00000086681722157667868490000017698735278381927577_);}
	.st20{fill:url(#SVGID_00000147197242549940257410000001383503638913264314_);}
	.st21{fill:url(#SVGID_00000044865833109408664620000009452931297886894259_);}
</style>
<g>
	<polygon class="st0" points="13,130.6 160.7,86.5 160.7,66.3 13,66 	"/>
	<rect x="4" y="58" class="st1" width="165.8" height="73.6"/>
</g>
<defs>
	<filter id="Adobe_OpacityMaskFilter" filterUnits="userSpaceOnUse" x="280.8" y="58" width="164" height="73.6">
		<feColorMatrix  type="matrix" values="1 0 0 0 0  0 1 0 0 0  0 0 1 0 0  0 0 0 1 0"/>
	</filter>
</defs>
<mask maskUnits="userSpaceOnUse" x="280.8" y="58" width="164" height="73.6" id="SVGID_00000094584899161406924920000017613775705483851697_">
	<g class="st2">
		
			<linearGradient id="SVGID_1_" gradientUnits="userSpaceOnUse" x1="-81.3466" y1="-308.1914" x2="-80.3466" y2="-308.1914" gradientTransform="matrix(0 -61.4783 -61.4783 0 -18702.1836 -4873.4946)">
			<stop  offset="0" style="stop-color:#FFFFFF"/>
			<stop  offset="1" style="stop-color:#000000"/>
		</linearGradient>
		<rect x="-59.8" y="-105" class="st3" width="609.4" height="793.7"/>
	</g>
</mask>
<g class="st4">
	<polygon class="st0" points="435.8,130.6 289.8,86.3 289.8,66 435.8,66 	"/>
	<rect x="280.8" y="58" class="st1" width="164" height="73.6"/>
</g>
<polygon class="st5" points="289.7,88.1 423.4,130.4 425.6,131.3 422.5,131 354.8,131 268.1,88.1 "/>
<polygon class="st6" points="246.5,88.1 265.9,88.1 350.5,131 269.6,131 "/>
<path class="st7" d="M26.5,131C19,131,13,137,13,144.5S19,158,26.5,158H94v-27H26.5z"/>
<g>
	<path class="st8" d="M25,145.4c-0.4,0.4-1,0.7-1.6,0.7c-0.9,0-1.5-0.3-1.9-1c-0.3-0.5-0.5-1-0.5-1.6c0-0.8,0.2-1.5,0.6-1.9
		c0.4-0.5,1-0.7,1.7-0.7c0.5,0,1,0.2,1.5,0.6l-0.4,0.7c-0.4-0.3-0.7-0.4-1-0.4c-0.4,0-0.8,0.2-1,0.6c-0.2,0.3-0.3,0.7-0.3,1.2
		c0,0.4,0.1,0.8,0.4,1.2c0.3,0.3,0.6,0.5,1,0.5c0.3,0,0.6-0.1,1-0.4L25,145.4z"/>
	<path class="st8" d="M27.3,142.3c0.6,0,1.1,0.2,1.4,0.6c0.3,0.4,0.4,0.8,0.4,1.3c0,0.6-0.2,1.1-0.6,1.4c-0.3,0.3-0.7,0.5-1.2,0.5
		s-1-0.2-1.3-0.6c-0.3-0.4-0.5-0.8-0.5-1.3c0-0.6,0.2-1.1,0.5-1.4C26.3,142.4,26.7,142.3,27.3,142.3z M27.3,145.3
		c0.5,0,0.8-0.4,0.8-1.2s-0.3-1.2-0.8-1.2s-0.8,0.4-0.8,1.2C26.5,145,26.7,145.3,27.3,145.3z"/>
	<path class="st8" d="M30.8,142.4l0.1,0.3c0.1-0.1,0.2-0.2,0.3-0.3c0.2-0.1,0.3-0.1,0.5-0.1c0.5,0,0.8,0.2,1.1,0.7l-0.8,0.5
		c-0.2-0.2-0.4-0.3-0.6-0.3s-0.3,0.1-0.4,0.3v2.6h-1v-3.6L30.8,142.4L30.8,142.4z"/>
	<path class="st8" d="M34,142.4l0.1,0.3c0.2-0.3,0.5-0.4,0.9-0.4c0.6,0,1,0.2,1.3,0.6c0.3,0.3,0.4,0.8,0.4,1.3
		c0,0.7-0.2,1.2-0.6,1.6c-0.3,0.3-0.7,0.4-1.2,0.4c-0.1,0-0.3,0-0.4-0.1c-0.2-0.1-0.3-0.1-0.3-0.2v1.6h-1v-5.1L34,142.4L34,142.4z
		 M34.2,143.8v0.9c0,0.2,0.1,0.3,0.2,0.5s0.3,0.2,0.5,0.2s0.4-0.1,0.6-0.3c0.2-0.2,0.2-0.5,0.2-0.9s-0.1-0.7-0.2-0.9
		c-0.1-0.2-0.3-0.3-0.6-0.3c-0.2,0-0.4,0.1-0.5,0.2C34.3,143.4,34.2,143.6,34.2,143.8z"/>
	<path class="st8" d="M39.2,142.3c0.6,0,1.1,0.2,1.4,0.6c0.3,0.4,0.4,0.8,0.4,1.3c0,0.6-0.2,1.1-0.6,1.4c-0.3,0.3-0.7,0.5-1.2,0.5
		s-1-0.2-1.3-0.6c-0.3-0.4-0.5-0.8-0.5-1.3c0-0.6,0.2-1.1,0.5-1.4C38.3,142.4,38.7,142.3,39.2,142.3z M39.2,145.3
		c0.5,0,0.8-0.4,0.8-1.2s-0.3-1.2-0.8-1.2s-0.8,0.4-0.8,1.2C38.4,145,38.7,145.3,39.2,145.3z"/>
	<path class="st8" d="M42.7,142.4l0.1,0.3c0.1-0.1,0.2-0.2,0.3-0.3c0.2-0.1,0.3-0.1,0.5-0.1c0.5,0,0.8,0.2,1.1,0.7l-0.8,0.5
		c-0.2-0.2-0.4-0.3-0.6-0.3c-0.2,0-0.3,0.1-0.4,0.3v2.6h-1v-3.6L42.7,142.4L42.7,142.4z"/>
	<path class="st8" d="M48,146h-0.8l-0.1-0.3c-0.4,0.3-0.7,0.4-1.1,0.4c-0.8,0-1.2-0.4-1.2-1.2c0-0.4,0.2-0.7,0.5-0.9
		s0.8-0.3,1.5-0.3H47l0,0c0-0.2,0-0.4-0.1-0.5s-0.3-0.1-0.5-0.1c-0.4,0-0.7,0.1-1,0.3c-0.1-0.2-0.2-0.3-0.3-0.5
		c0.3-0.2,0.6-0.4,0.8-0.5s0.5-0.1,0.8-0.1c0.9,0,1.3,0.5,1.3,1.6V146z M47,144.3L47,144.3c-0.4,0-0.6,0.1-0.8,0.2
		c-0.2,0.1-0.3,0.2-0.3,0.4c0,0.3,0.1,0.5,0.4,0.5c0.2,0,0.3-0.1,0.5-0.2c0.1-0.1,0.2-0.2,0.2-0.4C47,144.8,47,144.3,47,144.3z"/>
	<path class="st8" d="M51.3,143.2h-1v1.8c0,0.3,0.1,0.4,0.3,0.4s0.4-0.1,0.6-0.2l0.3,0.5c-0.4,0.3-0.8,0.4-1.3,0.4
		c-0.6,0-1-0.4-1-1.1v-1.9h-0.5v-0.8h0.5v-0.6c0.3-0.1,0.6-0.3,1-0.5v1.2h1v0.8H51.3z"/>
	<path class="st8" d="M55.5,144.5H53c0,0.2,0.1,0.4,0.3,0.6s0.4,0.2,0.6,0.2c0.3,0,0.7-0.1,1.1-0.3l0.3,0.5
		c-0.4,0.3-0.9,0.5-1.4,0.5c-0.6,0-1.1-0.2-1.4-0.5c-0.3-0.3-0.5-0.8-0.5-1.4c0-0.6,0.2-1,0.6-1.4c0.3-0.3,0.8-0.5,1.3-0.5
		c0.6,0,1,0.2,1.3,0.6c0.3,0.3,0.4,0.8,0.4,1.3L55.5,144.5L55.5,144.5z M53,143.8h1.5c0-0.5-0.3-0.8-0.8-0.8
		C53.3,143,53,143.2,53,143.8z"/>
	<path class="st8" d="M61.5,141.3c-0.1,0.1-0.2,0.4-0.4,0.6c-0.4-0.2-0.8-0.3-1.1-0.3c-0.4,0-0.7,0.2-0.7,0.5c0,0.1,0.1,0.3,0.2,0.4
		c0.1,0.1,0.3,0.2,0.6,0.3c0.6,0.2,1,0.5,1.2,0.7s0.4,0.6,0.4,0.9c0,0.5-0.2,0.9-0.6,1.2c-0.3,0.2-0.7,0.3-1.2,0.3
		c-0.6,0-1.2-0.2-1.8-0.6l0.5-0.6c0.3,0.2,0.7,0.3,1.2,0.3s0.8-0.2,0.8-0.7c0-0.3-0.3-0.5-0.9-0.7c-1-0.3-1.4-0.8-1.4-1.5
		c0-0.4,0.2-0.8,0.5-1s0.7-0.4,1.2-0.4C60.5,140.8,61,141,61.5,141.3z"/>
	<path class="st8" d="M64.9,143.2h-1v1.8c0,0.3,0.1,0.4,0.3,0.4c0.2,0,0.4-0.1,0.6-0.2l0.3,0.5c-0.4,0.3-0.8,0.4-1.3,0.4
		c-0.6,0-1-0.4-1-1.1v-1.9h-0.5v-0.8h0.5v-0.6c0.3-0.1,0.6-0.3,1-0.5v1.2h1L64.9,143.2L64.9,143.2z"/>
	<path class="st8" d="M68.1,145.6c-0.3,0.3-0.6,0.5-1.1,0.5s-0.8-0.1-1-0.4s-0.3-0.6-0.3-1.2v-2.2h1v1.9c0,0.4,0,0.6,0.1,0.8
		c0.1,0.1,0.3,0.2,0.5,0.2c0.1,0,0.2,0,0.3-0.1s0.2-0.1,0.2-0.2v-2.6h1v3.6H68L68.1,145.6L68.1,145.6z"/>
	<path class="st8" d="M73.1,145.5c-0.4,0.4-0.8,0.6-1.3,0.6c-0.6,0-1.1-0.2-1.5-0.6c-0.3-0.3-0.5-0.8-0.5-1.3c0-0.6,0.2-1.1,0.6-1.4
		c0.4-0.3,0.8-0.5,1.3-0.5c0.6,0,1,0.2,1.4,0.5l-0.3,0.5c-0.3-0.2-0.6-0.4-0.9-0.4s-0.5,0.1-0.7,0.3s-0.3,0.5-0.3,0.9
		c0,0.3,0.1,0.6,0.3,0.8c0.2,0.2,0.4,0.3,0.7,0.3c0.4,0,0.7-0.1,0.9-0.4L73.1,145.5z"/>
	<path class="st8" d="M76.2,143.2h-1v1.8c0,0.3,0.1,0.4,0.3,0.4c0.2,0,0.4-0.1,0.6-0.2l0.3,0.5c-0.4,0.3-0.8,0.4-1.3,0.4
		c-0.6,0-1-0.4-1-1.1v-1.9h-0.5v-0.8h0.5v-0.6c0.3-0.1,0.6-0.3,1-0.5v1.2h1L76.2,143.2L76.2,143.2z"/>
	<path class="st8" d="M79.4,145.6c-0.3,0.3-0.6,0.5-1.1,0.5s-0.8-0.1-1-0.4s-0.3-0.6-0.3-1.2v-2.2h1v1.9c0,0.4,0,0.6,0.1,0.8
		c0.1,0.1,0.3,0.2,0.5,0.2c0.1,0,0.2,0,0.3-0.1s0.2-0.1,0.2-0.2v-2.6h1v3.6h-0.8L79.4,145.6L79.4,145.6z"/>
	<path class="st8" d="M82.2,142.4l0.1,0.3c0.1-0.1,0.2-0.2,0.3-0.3c0.2-0.1,0.3-0.1,0.5-0.1c0.5,0,0.8,0.2,1.1,0.7l-0.8,0.5
		c-0.2-0.2-0.4-0.3-0.6-0.3s-0.3,0.1-0.4,0.3v2.6h-1v-3.6L82.2,142.4L82.2,142.4z"/>
	<path class="st8" d="M87.9,144.5h-2.5c0,0.2,0.1,0.4,0.3,0.6s0.4,0.2,0.6,0.2c0.3,0,0.7-0.1,1.1-0.3l0.3,0.5
		c-0.4,0.3-0.9,0.5-1.4,0.5c-0.6,0-1.1-0.2-1.4-0.5s-0.5-0.8-0.5-1.4c0-0.6,0.2-1,0.6-1.4c0.3-0.3,0.8-0.5,1.3-0.5
		c0.6,0,1,0.2,1.3,0.6c0.3,0.3,0.4,0.8,0.4,1.3v0.4H87.9z M85.3,143.8h1.5c0-0.5-0.3-0.8-0.8-0.8C85.6,143,85.4,143.2,85.3,143.8z"
		/>
</g>
<rect x="98.3" y="131" class="st9" width="81" height="27"/>
<g>
	<path class="st8" d="M112,135.9c0.8,0,1.4,0.3,1.8,0.9c0.3,0.5,0.5,1.1,0.5,1.8c0,0.8-0.2,1.4-0.6,1.9c-0.4,0.4-1,0.7-1.6,0.7
		c-0.8,0-1.4-0.3-1.8-0.9c-0.3-0.5-0.5-1-0.5-1.7c0-0.8,0.2-1.5,0.6-2C110.7,136.1,111.3,135.9,112,135.9z M112,140.2
		c0.4,0,0.7-0.1,0.9-0.4c0.2-0.3,0.3-0.7,0.3-1.3s-0.1-1-0.3-1.4c-0.2-0.3-0.5-0.4-0.9-0.4s-0.7,0.2-0.9,0.5
		c-0.2,0.3-0.3,0.8-0.3,1.3C110.7,139.7,111.1,140.2,112,140.2z"/>
	<path class="st8" d="M116,137.4l0.1,0.3c0.1-0.1,0.2-0.2,0.3-0.3c0.2-0.1,0.3-0.1,0.5-0.1c0.5,0,0.8,0.2,1.1,0.7l-0.8,0.5
		c-0.2-0.2-0.4-0.3-0.6-0.3s-0.3,0.1-0.4,0.3v2.6h-1v-3.6L116,137.4L116,137.4z"/>
	<path class="st8" d="M120.6,140.6c-0.2,0.4-0.6,0.5-1,0.5c-0.5,0-0.9-0.2-1.2-0.6c-0.3-0.3-0.4-0.7-0.4-1.2c0-0.7,0.2-1.2,0.6-1.6
		c0.3-0.3,0.7-0.4,1.1-0.4c0.3,0,0.6,0.1,0.9,0.2c0.2,0.1,0.2,0.2,0.2,0.2l0.1-0.4h0.8v3.3c0,0.6-0.2,1.1-0.5,1.4
		c-0.3,0.3-0.7,0.5-1.3,0.5c-0.6,0-1.1-0.2-1.5-0.6l0.3-0.5c0.3,0.2,0.7,0.3,1.1,0.3C120.3,141.8,120.6,141.4,120.6,140.6z
		 M120.6,138.6c0-0.2-0.1-0.3-0.2-0.4c-0.1-0.1-0.3-0.2-0.5-0.2c-0.3,0-0.5,0.1-0.6,0.3c-0.2,0.2-0.2,0.5-0.2,0.9
		c0,0.8,0.3,1.2,0.8,1.2c0.2,0,0.4-0.1,0.6-0.3s0.2-0.4,0.2-0.6v-0.9H120.6z"/>
	<path class="st8" d="M125.6,141h-0.8l-0.1-0.3c-0.4,0.3-0.7,0.4-1.1,0.4c-0.8,0-1.2-0.4-1.2-1.2c0-0.4,0.2-0.7,0.5-0.9
		s0.8-0.3,1.5-0.3h0.2l0,0c0-0.2,0-0.4-0.1-0.5s-0.3-0.1-0.5-0.1c-0.4,0-0.7,0.1-1,0.3c-0.1-0.2-0.2-0.3-0.3-0.5
		c0.3-0.2,0.6-0.4,0.8-0.5s0.5-0.1,0.8-0.1c0.9,0,1.3,0.5,1.3,1.6C125.6,138.9,125.6,141,125.6,141z M124.6,139.3L124.6,139.3
		c-0.4,0-0.6,0.1-0.8,0.2c-0.2,0.1-0.3,0.2-0.3,0.4c0,0.3,0.1,0.5,0.4,0.5c0.2,0,0.3-0.1,0.5-0.2c0.1-0.1,0.2-0.2,0.2-0.4V139.3z"/>
	<path class="st8" d="M127.7,137.7c0.1-0.1,0.3-0.2,0.5-0.3s0.4-0.1,0.6-0.1c0.5,0,0.8,0.1,1,0.4c0.2,0.3,0.3,0.7,0.3,1.2v2.1h-1
		v-2.1c0-0.5-0.2-0.8-0.7-0.8c-0.1,0-0.2,0-0.4,0.1c-0.1,0.1-0.2,0.1-0.3,0.2v2.6h-1v-3.6h0.9C127.6,137.5,127.6,137.7,127.7,137.7
		L127.7,137.7z"/>
	<path class="st8" d="M131,136.5c0-0.2,0.1-0.3,0.2-0.4s0.3-0.2,0.4-0.2c0.2,0,0.3,0.1,0.5,0.2c0.1,0.1,0.2,0.3,0.2,0.4
		c0,0.2-0.1,0.3-0.2,0.5c-0.1,0.1-0.3,0.2-0.5,0.2s-0.3-0.1-0.4-0.2C131,136.8,131,136.7,131,136.5z M132.1,137.4v3.6h-1v-3.6H132.1
		z"/>
	<path class="st8" d="M135.9,141h-3.1v-0.8l1.9-2h-1.8v-0.8h3v0.8l-1.9,2h2L135.9,141L135.9,141z"/>
	<path class="st8" d="M139.5,141h-0.8l-0.1-0.3c-0.4,0.3-0.7,0.4-1.1,0.4c-0.8,0-1.2-0.4-1.2-1.2c0-0.4,0.2-0.7,0.5-0.9
		s0.8-0.3,1.5-0.3h0.2l0,0c0-0.2,0-0.4-0.1-0.5s-0.3-0.1-0.5-0.1c-0.4,0-0.7,0.1-1,0.3c-0.1-0.2-0.2-0.3-0.3-0.5
		c0.3-0.2,0.6-0.4,0.8-0.5s0.5-0.1,0.8-0.1c0.9,0,1.3,0.5,1.3,1.6L139.5,141L139.5,141z M138.4,139.3h-0.1c-0.3,0-0.5,0.1-0.7,0.2
		c-0.2,0.1-0.3,0.2-0.3,0.4c0,0.3,0.1,0.5,0.4,0.5c0.2,0,0.3-0.1,0.5-0.2c0.1-0.1,0.2-0.2,0.2-0.4L138.4,139.3L138.4,139.3z"/>
	<path class="st8" d="M142.8,138.2h-1v1.8c0,0.3,0.1,0.4,0.3,0.4s0.4-0.1,0.6-0.2l0.3,0.5c-0.4,0.3-0.8,0.4-1.3,0.4
		c-0.6,0-1-0.4-1-1.1v-1.9h-0.5v-0.8h0.5v-0.6c0.3-0.1,0.6-0.3,1-0.5v1.2h1L142.8,138.2L142.8,138.2z"/>
	<path class="st8" d="M143.6,136.5c0-0.2,0.1-0.3,0.2-0.4s0.3-0.2,0.4-0.2c0.2,0,0.3,0.1,0.5,0.2c0.1,0.1,0.2,0.3,0.2,0.4
		c0,0.2-0.1,0.3-0.2,0.5c-0.1,0.1-0.3,0.2-0.5,0.2s-0.3-0.1-0.4-0.2C143.6,136.8,143.6,136.7,143.6,136.5z M144.7,137.4v3.6h-1v-3.6
		H144.7z"/>
	<path class="st8" d="M147.3,137.3c0.6,0,1.1,0.2,1.4,0.6c0.3,0.4,0.4,0.8,0.4,1.3c0,0.6-0.2,1.1-0.6,1.4c-0.3,0.3-0.7,0.5-1.2,0.5
		s-1-0.2-1.3-0.6c-0.3-0.4-0.5-0.8-0.5-1.3c0-0.6,0.2-1.1,0.5-1.4C146.4,137.5,146.8,137.3,147.3,137.3z M147.3,140.4
		c0.5,0,0.8-0.4,0.8-1.2s-0.3-1.2-0.8-1.2s-0.8,0.4-0.8,1.2S146.8,140.4,147.3,140.4z"/>
	<path class="st8" d="M150.9,137.7c0.1-0.1,0.3-0.2,0.5-0.3s0.4-0.1,0.6-0.1c0.5,0,0.8,0.1,1,0.4c0.2,0.3,0.3,0.7,0.3,1.2v2.1h-1
		v-2.1c0-0.5-0.2-0.8-0.7-0.8c-0.1,0-0.2,0-0.4,0.1c-0.1,0.1-0.2,0.1-0.3,0.2v2.6h-1v-3.6h0.9C150.9,137.5,150.9,137.7,150.9,137.7
		L150.9,137.7z"/>
	<path class="st8" d="M159.2,141h-0.8l-0.1-0.3c-0.4,0.3-0.7,0.4-1.1,0.4c-0.8,0-1.2-0.4-1.2-1.2c0-0.4,0.2-0.7,0.5-0.9
		s0.8-0.3,1.5-0.3h0.2l0,0c0-0.2,0-0.4-0.1-0.5s-0.3-0.1-0.5-0.1c-0.4,0-0.7,0.1-1,0.3c-0.1-0.2-0.2-0.3-0.3-0.5
		c0.3-0.2,0.6-0.4,0.8-0.5s0.5-0.1,0.8-0.1c0.9,0,1.3,0.5,1.3,1.6L159.2,141L159.2,141z M158.2,139.3h-0.1c-0.3,0-0.5,0.1-0.7,0.2
		c-0.2,0.1-0.3,0.2-0.3,0.4c0,0.3,0.1,0.5,0.4,0.5c0.2,0,0.3-0.1,0.5-0.2c0.1-0.1,0.2-0.2,0.2-0.4L158.2,139.3L158.2,139.3z"/>
	<path class="st8" d="M161.3,137.7c0.1-0.1,0.3-0.2,0.5-0.3s0.4-0.1,0.6-0.1c0.5,0,0.8,0.1,1,0.4c0.2,0.3,0.3,0.7,0.3,1.2v2.1h-1
		v-2.1c0-0.5-0.2-0.8-0.7-0.8c-0.1,0-0.2,0-0.4,0.1c-0.1,0.1-0.2,0.1-0.3,0.2v2.6h-1v-3.6h0.9C161.2,137.5,161.2,137.7,161.3,137.7
		L161.3,137.7z"/>
	<path class="st8" d="M167.3,141l-0.1-0.4c-0.1,0.1-0.2,0.3-0.4,0.3c-0.2,0.1-0.4,0.1-0.6,0.1c-0.6,0-1-0.2-1.3-0.6
		c-0.3-0.3-0.4-0.7-0.4-1.2c0-0.7,0.2-1.2,0.6-1.6c0.3-0.3,0.7-0.4,1.1-0.4c0.4,0,0.7,0.1,0.9,0.3v-1.2l1-0.6v5.1h-0.8V141z
		 M167.1,139.6v-1c0-0.2-0.1-0.3-0.3-0.4c-0.1-0.1-0.3-0.2-0.5-0.2c-0.3,0-0.5,0.1-0.6,0.3c-0.2,0.2-0.2,0.5-0.2,0.9
		c0,0.8,0.3,1.2,0.8,1.2c0.2,0,0.4-0.1,0.5-0.2C167,140,167.1,139.8,167.1,139.6z"/>
</g>
<g>
	<path class="st8" d="M114.9,150h-1v-5h1v2h2.2v-2h1v5.1h-1v-2.2h-2.2V150z"/>
	<path class="st8" d="M121.7,149.6c-0.3,0.3-0.6,0.5-1.1,0.5s-0.8-0.1-1-0.4s-0.3-0.6-0.3-1.2v-2.2h1v1.9c0,0.4,0,0.6,0.1,0.8
		c0.1,0.1,0.3,0.2,0.5,0.2c0.1,0,0.2,0,0.3-0.1s0.2-0.1,0.2-0.2v-2.6h1v3.6h-0.8L121.7,149.6L121.7,149.6z"/>
	<path class="st8" d="M124.6,146.7c0.3-0.3,0.7-0.4,1.1-0.4c0.3,0,0.6,0.1,0.8,0.2c0.2,0.1,0.4,0.3,0.5,0.5c0.1-0.2,0.3-0.4,0.5-0.5
		s0.5-0.2,0.8-0.2c0.9,0,1.3,0.5,1.3,1.6v2.2h-1v-1.9c0-0.4-0.1-0.6-0.2-0.8c-0.1-0.1-0.3-0.2-0.5-0.2c-0.4,0-0.6,0.1-0.9,0.4v2.5
		h-1v-2c0-0.3-0.1-0.5-0.2-0.7c-0.1-0.1-0.3-0.2-0.6-0.2c-0.2,0-0.3,0-0.5,0.1c-0.1,0-0.2,0.1-0.3,0.2v2.6h-1v-3.6h0.9L124.6,146.7
		L124.6,146.7z"/>
	<path class="st8" d="M133.7,150h-0.8l-0.1-0.3c-0.4,0.3-0.7,0.4-1.1,0.4c-0.8,0-1.2-0.4-1.2-1.2c0-0.4,0.2-0.7,0.5-0.9
		s0.8-0.3,1.5-0.3h0.2l0,0c0-0.2,0-0.4-0.1-0.5s-0.3-0.1-0.5-0.1c-0.4,0-0.7,0.1-1,0.3c-0.1-0.2-0.2-0.3-0.3-0.5
		c0.3-0.2,0.6-0.4,0.8-0.5s0.5-0.1,0.8-0.1c0.9,0,1.3,0.5,1.3,1.6L133.7,150L133.7,150z M132.6,148.3h-0.1c-0.3,0-0.5,0.1-0.7,0.2
		c-0.2,0.1-0.3,0.2-0.3,0.4c0,0.3,0.1,0.5,0.4,0.5c0.2,0,0.3-0.1,0.5-0.2c0.1-0.1,0.2-0.2,0.2-0.4L132.6,148.3L132.6,148.3z"/>
	<path class="st8" d="M135.7,146.7c0.1-0.1,0.3-0.2,0.5-0.3s0.4-0.1,0.6-0.1c0.5,0,0.8,0.1,1,0.4c0.2,0.3,0.3,0.7,0.3,1.2v2.1h-1
		v-2.1c0-0.5-0.2-0.8-0.7-0.8c-0.1,0-0.2,0-0.4,0.1c-0.1,0.1-0.2,0.1-0.3,0.2v2.6h-1v-3.6h0.9C135.6,146.5,135.7,146.7,135.7,146.7
		L135.7,146.7z"/>
	<path class="st8" d="M144.8,149.5c-0.4,0.4-1,0.7-1.6,0.7c-0.9,0-1.5-0.3-1.9-1c-0.3-0.5-0.5-1-0.5-1.6c0-0.8,0.2-1.5,0.6-1.9
		c0.4-0.5,1-0.7,1.7-0.7c0.5,0,1,0.2,1.5,0.6l-0.4,0.7c-0.4-0.3-0.7-0.4-1-0.4c-0.4,0-0.8,0.2-1,0.6c-0.2,0.3-0.3,0.7-0.3,1.2
		c0,0.4,0.1,0.8,0.4,1.2c0.3,0.3,0.6,0.5,1,0.5c0.3,0,0.6-0.1,1-0.4L144.8,149.5z"/>
	<path class="st8" d="M148.5,150h-0.8l-0.1-0.3c-0.4,0.3-0.7,0.4-1.1,0.4c-0.8,0-1.2-0.4-1.2-1.2c0-0.4,0.2-0.7,0.5-0.9
		s0.8-0.3,1.5-0.3h0.2l0,0c0-0.2,0-0.4-0.1-0.5s-0.3-0.1-0.5-0.1c-0.4,0-0.7,0.1-1,0.3c-0.1-0.2-0.2-0.3-0.3-0.5
		c0.3-0.2,0.6-0.4,0.8-0.5s0.5-0.1,0.8-0.1c0.9,0,1.3,0.5,1.3,1.6L148.5,150L148.5,150z M147.5,148.3h-0.1c-0.3,0-0.5,0.1-0.7,0.2
		c-0.2,0.1-0.3,0.2-0.3,0.4c0,0.3,0.1,0.5,0.4,0.5c0.2,0,0.3-0.1,0.5-0.2c0.1-0.1,0.2-0.2,0.2-0.4L147.5,148.3L147.5,148.3z"/>
	<path class="st8" d="M150.4,146.4l0.1,0.3c0.2-0.3,0.5-0.4,0.9-0.4c0.6,0,1,0.2,1.3,0.6c0.3,0.3,0.4,0.8,0.4,1.3
		c0,0.7-0.2,1.2-0.6,1.6c-0.3,0.3-0.7,0.4-1.2,0.4c-0.1,0-0.3,0-0.4-0.1c-0.2-0.1-0.3-0.1-0.3-0.2v1.6h-1v-5.1L150.4,146.4
		L150.4,146.4z M150.6,147.8v0.9c0,0.2,0.1,0.3,0.2,0.5s0.3,0.2,0.5,0.2s0.4-0.1,0.6-0.3c0.2-0.2,0.2-0.5,0.2-0.9s-0.1-0.7-0.2-0.9
		c-0.1-0.2-0.3-0.3-0.6-0.3c-0.2,0-0.4,0.1-0.5,0.2C150.7,147.4,150.6,147.6,150.6,147.8z"/>
	<path class="st8" d="M153.8,145.5c0-0.2,0.1-0.3,0.2-0.4s0.3-0.2,0.4-0.2c0.2,0,0.3,0.1,0.5,0.2c0.1,0.1,0.2,0.3,0.2,0.4
		c0,0.2-0.1,0.3-0.2,0.5c-0.1,0.1-0.3,0.2-0.5,0.2s-0.3-0.1-0.4-0.2C153.9,145.8,153.8,145.7,153.8,145.5z M155,146.4v3.6h-1v-3.6
		H155z"/>
	<path class="st8" d="M158.3,147.2h-1v1.8c0,0.3,0.1,0.4,0.3,0.4s0.4-0.1,0.6-0.2l0.3,0.5c-0.4,0.3-0.8,0.4-1.3,0.4
		c-0.6,0-1-0.4-1-1.1v-1.9h-0.5v-0.8h0.5v-0.6c0.3-0.1,0.6-0.3,1-0.5v1.2h1L158.3,147.2L158.3,147.2z"/>
	<path class="st8" d="M162.1,150h-0.8l-0.1-0.3c-0.4,0.3-0.7,0.4-1.1,0.4c-0.8,0-1.2-0.4-1.2-1.2c0-0.4,0.2-0.7,0.5-0.9
		s0.8-0.3,1.5-0.3h0.2l0,0c0-0.2,0-0.4-0.1-0.5s-0.3-0.1-0.5-0.1c-0.4,0-0.7,0.1-1,0.3c-0.1-0.2-0.2-0.3-0.3-0.5
		c0.3-0.2,0.6-0.4,0.8-0.5s0.5-0.1,0.8-0.1c0.9,0,1.3,0.5,1.3,1.6L162.1,150L162.1,150z M161.1,148.3H161c-0.3,0-0.5,0.1-0.7,0.2
		c-0.2,0.1-0.3,0.2-0.3,0.4c0,0.3,0.1,0.5,0.4,0.5c0.2,0,0.3-0.1,0.5-0.2c0.1-0.1,0.2-0.2,0.2-0.4L161.1,148.3L161.1,148.3z"/>
	<path class="st8" d="M164.2,144.9v5.2h-1v-4.6L164.2,144.9z"/>
</g>
<rect x="184.3" y="131" class="st10" width="81" height="27"/>
<g>
	<path class="st8" d="M211.7,140.5c-0.4,0.4-1,0.7-1.6,0.7c-0.9,0-1.5-0.3-1.9-1c-0.3-0.5-0.5-1-0.5-1.6c0-0.8,0.2-1.5,0.6-1.9
		c0.4-0.5,1-0.7,1.7-0.7c0.5,0,1,0.2,1.5,0.6l-0.4,0.7c-0.4-0.3-0.7-0.4-1-0.4c-0.4,0-0.8,0.2-1,0.6c-0.2,0.3-0.3,0.7-0.3,1.2
		c0,0.4,0.1,0.8,0.4,1.2c0.3,0.3,0.6,0.5,1,0.5c0.3,0,0.6-0.1,1-0.4L211.7,140.5z"/>
	<path class="st8" d="M213.9,137.3c0.6,0,1.1,0.2,1.4,0.6c0.3,0.4,0.4,0.8,0.4,1.3c0,0.6-0.2,1.1-0.6,1.4c-0.3,0.3-0.7,0.5-1.2,0.5
		s-1-0.2-1.3-0.6c-0.3-0.4-0.5-0.8-0.5-1.3c0-0.6,0.2-1.1,0.5-1.4C213,137.5,213.4,137.3,213.9,137.3z M213.9,140.4
		c0.5,0,0.8-0.4,0.8-1.2s-0.3-1.2-0.8-1.2s-0.8,0.4-0.8,1.2C213.2,140,213.4,140.4,213.9,140.4z"/>
	<path class="st8" d="M217.4,137.4l0.1,0.3c0.1-0.1,0.2-0.2,0.3-0.3c0.2-0.1,0.3-0.1,0.5-0.1c0.5,0,0.8,0.2,1.1,0.7l-0.8,0.5
		c-0.2-0.2-0.4-0.3-0.6-0.3c-0.2,0-0.3,0.1-0.4,0.3v2.6h-1v-3.6L217.4,137.4L217.4,137.4z"/>
	<path class="st8" d="M220.7,137.4l0.1,0.3c0.2-0.3,0.5-0.4,0.9-0.4c0.6,0,1,0.2,1.3,0.6c0.3,0.3,0.4,0.8,0.4,1.3
		c0,0.7-0.2,1.2-0.6,1.6c-0.3,0.3-0.7,0.4-1.2,0.4c-0.1,0-0.3,0-0.4-0.1c-0.2-0.1-0.3-0.1-0.3-0.2v1.6h-1v-5.1L220.7,137.4
		L220.7,137.4z M220.9,138.8v0.9c0,0.2,0.1,0.3,0.2,0.5s0.3,0.2,0.5,0.2s0.4-0.1,0.6-0.3c0.2-0.2,0.2-0.5,0.2-0.9s-0.1-0.7-0.2-0.9
		c-0.1-0.2-0.3-0.3-0.6-0.3c-0.2,0-0.4,0.1-0.5,0.2C221,138.4,220.9,138.6,220.9,138.8z"/>
	<path class="st8" d="M225.9,137.3c0.6,0,1.1,0.2,1.4,0.6c0.3,0.4,0.4,0.8,0.4,1.3c0,0.6-0.2,1.1-0.6,1.4c-0.3,0.3-0.7,0.5-1.2,0.5
		s-1-0.2-1.3-0.6c-0.3-0.4-0.5-0.8-0.5-1.3c0-0.6,0.2-1.1,0.5-1.4C224.9,137.5,225.4,137.3,225.9,137.3z M225.9,140.4
		c0.5,0,0.8-0.4,0.8-1.2s-0.3-1.2-0.8-1.2s-0.8,0.4-0.8,1.2C225.1,140,225.4,140.4,225.9,140.4z"/>
	<path class="st8" d="M229.4,137.4l0.1,0.3c0.1-0.1,0.2-0.2,0.3-0.3c0.2-0.1,0.3-0.1,0.5-0.1c0.5,0,0.8,0.2,1.1,0.7l-0.8,0.5
		c-0.2-0.2-0.4-0.3-0.6-0.3c-0.2,0-0.3,0.1-0.4,0.3v2.6h-1v-3.6L229.4,137.4L229.4,137.4z"/>
	<path class="st8" d="M234.7,141h-0.8l-0.1-0.3c-0.4,0.3-0.7,0.4-1.1,0.4c-0.8,0-1.2-0.4-1.2-1.2c0-0.4,0.2-0.7,0.5-0.9
		s0.8-0.3,1.5-0.3h0.2l0,0c0-0.2,0-0.4-0.1-0.5s-0.3-0.1-0.5-0.1c-0.4,0-0.7,0.1-1,0.3c-0.1-0.2-0.2-0.3-0.3-0.5
		c0.3-0.2,0.6-0.4,0.8-0.5s0.5-0.1,0.8-0.1c0.9,0,1.3,0.5,1.3,1.6L234.7,141L234.7,141z M233.6,139.3h-0.1c-0.3,0-0.5,0.1-0.7,0.2
		c-0.2,0.1-0.3,0.2-0.3,0.4c0,0.3,0.1,0.5,0.4,0.5c0.2,0,0.3-0.1,0.5-0.2c0.1-0.1,0.2-0.2,0.2-0.4L233.6,139.3L233.6,139.3z"/>
	<path class="st8" d="M238,138.2h-1v1.8c0,0.3,0.1,0.4,0.3,0.4s0.4-0.1,0.6-0.2l0.3,0.5c-0.4,0.3-0.8,0.4-1.3,0.4
		c-0.6,0-1-0.4-1-1.1v-1.9h-0.5v-0.8h0.5v-0.6c0.3-0.1,0.6-0.3,1-0.5v1.2h1L238,138.2L238,138.2z"/>
	<path class="st8" d="M242.2,139.5h-2.5c0,0.2,0.1,0.4,0.3,0.6s0.4,0.2,0.6,0.2c0.3,0,0.7-0.1,1.1-0.3l0.3,0.5
		c-0.4,0.3-0.9,0.5-1.4,0.5c-0.6,0-1.1-0.2-1.4-0.5c-0.3-0.3-0.5-0.8-0.5-1.4c0-0.6,0.2-1,0.6-1.4c0.3-0.3,0.8-0.5,1.3-0.5
		c0.6,0,1,0.2,1.3,0.6c0.3,0.3,0.4,0.8,0.4,1.3v0.4H242.2z M239.7,138.8h1.5c0-0.5-0.3-0.8-0.8-0.8C240,138,239.7,138.3,239.7,138.8
		z"/>
</g>
<g>
	<path class="st8" d="M208.9,149.6c-0.6,0.3-1.2,0.5-1.8,0.5c-0.8,0-1.4-0.3-1.8-0.9c-0.3-0.5-0.4-1-0.4-1.7c0-0.8,0.2-1.4,0.7-1.9
		c0.4-0.5,1-0.7,1.6-0.7s1.1,0.2,1.6,0.6l-0.4,0.7c-0.4-0.3-0.8-0.4-1.1-0.4s-0.7,0.2-0.9,0.5s-0.4,0.8-0.4,1.3s0.2,1,0.5,1.3
		s0.6,0.4,0.9,0.4c0.2,0,0.4,0,0.6-0.1v-1h-1v-0.9h1.9V149.6z"/>
	<path class="st8" d="M211.2,146.3c0.6,0,1.1,0.2,1.4,0.6c0.3,0.4,0.4,0.8,0.4,1.3c0,0.6-0.2,1.1-0.6,1.4c-0.3,0.3-0.7,0.5-1.2,0.5
		s-1-0.2-1.3-0.6c-0.3-0.4-0.5-0.8-0.5-1.3c0-0.6,0.2-1.1,0.5-1.4C210.3,146.5,210.7,146.3,211.2,146.3z M211.2,149.4
		c0.5,0,0.8-0.4,0.8-1.2s-0.3-1.2-0.8-1.2s-0.8,0.4-0.8,1.2C210.5,149,210.7,149.4,211.2,149.4z"/>
	<path class="st8" d="M215.6,150h-0.8l-1.4-3.6h1l0.8,2.4l0.8-2.4h1.1l-0.2,0.4l-0.2,0.4C216.2,148.4,215.8,149.4,215.6,150z"/>
	<path class="st8" d="M221,148.5h-2.5c0,0.2,0.1,0.4,0.3,0.6s0.4,0.2,0.6,0.2c0.3,0,0.7-0.1,1.1-0.3l0.3,0.5
		c-0.4,0.3-0.9,0.5-1.4,0.5c-0.6,0-1.1-0.2-1.4-0.5c-0.3-0.3-0.5-0.8-0.5-1.4c0-0.6,0.2-1,0.6-1.4c0.3-0.3,0.8-0.5,1.3-0.5
		c0.6,0,1,0.2,1.3,0.6c0.3,0.3,0.4,0.8,0.4,1.3v0.4H221z M218.4,147.8h1.5c0-0.5-0.3-0.8-0.8-0.8C218.7,147,218.5,147.3,218.4,147.8
		z"/>
	<path class="st8" d="M222.7,146.4l0.1,0.3c0.1-0.1,0.2-0.2,0.3-0.3c0.2-0.1,0.3-0.1,0.5-0.1c0.5,0,0.8,0.2,1.1,0.7l-0.8,0.5
		c-0.2-0.2-0.4-0.3-0.6-0.3c-0.2,0-0.3,0.1-0.4,0.3v2.6h-1v-3.6L222.7,146.4L222.7,146.4z"/>
	<path class="st8" d="M226.1,146.7c0.1-0.1,0.3-0.2,0.5-0.3s0.4-0.1,0.6-0.1c0.5,0,0.8,0.1,1,0.4c0.2,0.3,0.3,0.7,0.3,1.2v2.1h-1
		v-2.1c0-0.5-0.2-0.8-0.7-0.8c-0.1,0-0.2,0-0.4,0.1c-0.1,0.1-0.2,0.1-0.3,0.2v2.6h-1v-3.6h0.9C226,146.5,226,146.7,226.1,146.7
		L226.1,146.7z"/>
	<path class="st8" d="M232.4,150h-0.8l-0.1-0.3c-0.4,0.3-0.7,0.4-1.1,0.4c-0.8,0-1.2-0.4-1.2-1.2c0-0.4,0.2-0.7,0.5-0.9
		s0.8-0.3,1.5-0.3h0.2l0,0c0-0.2,0-0.4-0.1-0.5s-0.3-0.1-0.5-0.1c-0.4,0-0.7,0.1-1,0.3c-0.1-0.2-0.2-0.3-0.3-0.5
		c0.3-0.2,0.6-0.4,0.8-0.5s0.5-0.1,0.8-0.1c0.9,0,1.3,0.5,1.3,1.6L232.4,150L232.4,150z M231.4,148.3h-0.1c-0.3,0-0.5,0.1-0.7,0.2
		c-0.2,0.1-0.3,0.2-0.3,0.4c0,0.3,0.1,0.5,0.4,0.5c0.2,0,0.3-0.1,0.5-0.2c0.1-0.1,0.2-0.2,0.2-0.4L231.4,148.3L231.4,148.3z"/>
	<path class="st8" d="M234.5,146.7c0.1-0.1,0.3-0.2,0.5-0.3s0.4-0.1,0.6-0.1c0.5,0,0.8,0.1,1,0.4c0.2,0.3,0.3,0.7,0.3,1.2v2.1h-1
		v-2.1c0-0.5-0.2-0.8-0.7-0.8c-0.1,0-0.2,0-0.4,0.1c-0.1,0.1-0.2,0.1-0.3,0.2v2.6h-1v-3.6h0.9C234.4,146.5,234.4,146.7,234.5,146.7
		L234.5,146.7z"/>
	<path class="st8" d="M241,149.6c-0.4,0.4-0.8,0.6-1.3,0.6c-0.6,0-1.1-0.2-1.5-0.6c-0.3-0.3-0.5-0.8-0.5-1.3c0-0.6,0.2-1.1,0.6-1.4
		c0.4-0.3,0.8-0.5,1.3-0.5c0.6,0,1,0.2,1.4,0.5l-0.3,0.5c-0.3-0.2-0.6-0.4-0.9-0.4c-0.3,0-0.5,0.1-0.7,0.3s-0.3,0.5-0.3,0.9
		c0,0.3,0.1,0.6,0.3,0.8s0.4,0.3,0.7,0.3c0.4,0,0.7-0.1,0.9-0.4L241,149.6z"/>
	<path class="st8" d="M245.1,148.5h-2.5c0,0.2,0.1,0.4,0.3,0.6s0.4,0.2,0.6,0.2c0.3,0,0.7-0.1,1.1-0.3l0.3,0.5
		c-0.4,0.3-0.9,0.5-1.4,0.5c-0.6,0-1.1-0.2-1.4-0.5c-0.3-0.3-0.5-0.8-0.5-1.4c0-0.6,0.2-1,0.6-1.4c0.3-0.3,0.8-0.5,1.3-0.5
		c0.6,0,1,0.2,1.3,0.6c0.3,0.3,0.4,0.8,0.4,1.3v0.4H245.1z M242.6,147.8h1.5c0-0.5-0.3-0.8-0.8-0.8
		C242.9,147,242.6,147.3,242.6,147.8z"/>
</g>
<rect x="269.5" y="131" class="st11" width="81" height="27"/>
<g>
	<path class="st8" d="M277.2,136.7v2.1c0.7-1,1.2-1.7,1.5-2.1h1.3c-0.5,0.7-1.2,1.5-1.8,2.4c0.7,0.8,1.4,1.7,2.2,2.7H279
		c-0.5-0.7-1.1-1.4-1.8-2.4l0,0v2.4h-1v-5.1L277.2,136.7L277.2,136.7z"/>
	<path class="st8" d="M281,141.7v-5.1c0.1,0,0.3,0,0.6-0.1c0.3,0,0.6,0,0.8,0c1.3,0,1.9,0.5,1.9,1.6c0,0.7-0.2,1.1-0.7,1.4
		c-0.3,0.2-0.7,0.3-1.1,0.3c-0.3,0-0.5,0-0.6-0.1v1.9H281V141.7z M282,137.5v1.5c0.1,0.1,0.3,0.1,0.5,0.1s0.4-0.1,0.5-0.2
		c0.1-0.2,0.2-0.4,0.2-0.6c0-0.5-0.2-0.8-0.7-0.8C282.2,137.4,282.1,137.4,282,137.5z"/>
	<path class="st8" d="M286.3,136.7v5.1h-1v-5.1H286.3z"/>
	<path class="st8" d="M289.6,139c-0.3-0.2-0.6-0.3-0.9-0.3s-0.4,0.1-0.4,0.3s0.2,0.3,0.5,0.4c0.4,0.1,0.7,0.2,0.9,0.4
		c0.2,0.2,0.3,0.5,0.3,0.9c0,0.3-0.1,0.6-0.4,0.8c-0.2,0.2-0.6,0.3-1,0.3c-0.6,0-1.1-0.2-1.5-0.5l0.4-0.6c0.3,0.2,0.6,0.3,1,0.3
		c0.2,0,0.3,0,0.4-0.1s0.1-0.2,0.1-0.3c0-0.2-0.2-0.4-0.6-0.4c-0.8-0.2-1.2-0.5-1.2-1.2c0-0.3,0.1-0.6,0.4-0.8s0.6-0.3,0.9-0.3
		c0.5,0,0.9,0.1,1.3,0.4L289.6,139z"/>
	<path class="st8" d="M295.2,139.1h1v0.3c0,0.5-0.1,0.9-0.4,1.4c0.2,0.3,0.5,0.6,0.9,1h-1.2l-0.1-0.1c-0.1-0.1-0.1-0.1-0.1-0.2
		c-0.3,0.3-0.7,0.4-1.2,0.4s-0.9-0.2-1.2-0.5c-0.2-0.3-0.3-0.6-0.3-0.9c0-0.5,0.2-1,0.7-1.4c-0.4-0.4-0.6-0.8-0.6-1.2
		s0.1-0.7,0.4-0.9s0.6-0.3,1-0.3s0.9,0.2,1.3,0.5c-0.1,0.1-0.2,0.2-0.3,0.4c0,0.1-0.1,0.1-0.1,0.2c-0.3-0.2-0.6-0.2-0.9-0.2
		c-0.2,0-0.3,0-0.4,0.1s-0.1,0.2-0.1,0.3c0,0.2,0.1,0.4,0.3,0.6l0.1,0.1c0.1,0.1,0.2,0.3,0.4,0.5c0.3,0.4,0.6,0.7,0.8,0.9
		c0.1-0.1,0.1-0.3,0.1-0.6L295.2,139.1L295.2,139.1z M293.8,139.6c-0.1,0.2-0.2,0.4-0.2,0.7c0,0.4,0.2,0.7,0.6,0.7
		c0.2,0,0.4-0.1,0.5-0.2c-0.1-0.1-0.2-0.3-0.4-0.5C294.1,139.9,293.9,139.8,293.8,139.6z"/>
	<path class="st8" d="M299.6,141.7v-5.1c0.1,0,0.3,0,0.6-0.1c0.3,0,0.6,0,0.8,0c1.3,0,1.9,0.5,1.9,1.6c0,0.7-0.2,1.1-0.7,1.4
		c-0.3,0.2-0.7,0.3-1.1,0.3c-0.3,0-0.5,0-0.6-0.1v1.9h-0.9V141.7z M300.6,137.5v1.5c0.1,0.1,0.3,0.1,0.5,0.1s0.4-0.1,0.5-0.2
		c0.1-0.2,0.2-0.4,0.2-0.6c0-0.5-0.2-0.8-0.7-0.8C300.9,137.4,300.7,137.4,300.6,137.5z"/>
	<path class="st8" d="M306.9,140.2h-2.5c0,0.2,0.1,0.4,0.3,0.6s0.4,0.2,0.6,0.2c0.3,0,0.7-0.1,1.1-0.3l0.3,0.5
		c-0.4,0.3-0.9,0.5-1.4,0.5c-0.6,0-1.1-0.2-1.4-0.5s-0.5-0.8-0.5-1.4c0-0.6,0.2-1,0.6-1.4c0.3-0.3,0.8-0.5,1.3-0.5
		c0.6,0,1,0.2,1.3,0.6c0.3,0.3,0.4,0.8,0.4,1.3L306.9,140.2L306.9,140.2z M304.4,139.5h1.5c0-0.5-0.3-0.8-0.8-0.8
		C304.7,138.7,304.4,139,304.4,139.5z"/>
	<path class="st8" d="M308.6,138.1l0.1,0.3c0.1-0.1,0.2-0.2,0.3-0.3c0.2-0.1,0.3-0.1,0.5-0.1c0.5,0,0.8,0.2,1.1,0.7l-0.8,0.5
		c-0.2-0.2-0.4-0.3-0.6-0.3s-0.3,0.1-0.4,0.3v2.6h-1v-3.6L308.6,138.1L308.6,138.1z"/>
	<path class="st8" d="M310.8,138.9v-0.8h0.6v-0.5c0-0.7,0.3-1,1-1c0.4,0,0.8,0.1,1.2,0.4l-0.4,0.5c-0.2-0.1-0.4-0.2-0.5-0.2
		c-0.2,0-0.2,0.1-0.2,0.4v0.4h1v0.8h-1v2.8h-1v-2.8L310.8,138.9L310.8,138.9z"/>
	<path class="st8" d="M315.6,138c0.6,0,1.1,0.2,1.4,0.6c0.3,0.4,0.4,0.8,0.4,1.3c0,0.6-0.2,1.1-0.6,1.4c-0.3,0.3-0.7,0.5-1.2,0.5
		s-1-0.2-1.3-0.6c-0.3-0.4-0.5-0.8-0.5-1.3c0-0.6,0.2-1.1,0.5-1.4C314.7,138.2,315.1,138,315.6,138z M315.6,141.1
		c0.5,0,0.8-0.4,0.8-1.2s-0.3-1.2-0.8-1.2s-0.8,0.4-0.8,1.2C314.8,140.7,315.1,141.1,315.6,141.1z"/>
	<path class="st8" d="M319.1,138.1l0.1,0.3c0.1-0.1,0.2-0.2,0.3-0.3c0.2-0.1,0.3-0.1,0.5-0.1c0.5,0,0.8,0.2,1.1,0.7l-0.8,0.5
		c-0.2-0.2-0.4-0.3-0.6-0.3s-0.3,0.1-0.4,0.3v2.6h-1v-3.6L319.1,138.1L319.1,138.1z"/>
	<path class="st8" d="M322.5,138.5c0.3-0.3,0.7-0.4,1.1-0.4c0.3,0,0.6,0.1,0.8,0.2c0.2,0.1,0.4,0.3,0.5,0.5c0.1-0.2,0.3-0.4,0.5-0.5
		s0.5-0.2,0.8-0.2c0.9,0,1.3,0.5,1.3,1.6v2.2h-1V140c0-0.4-0.1-0.6-0.2-0.8c-0.1-0.1-0.3-0.2-0.5-0.2c-0.4,0-0.6,0.1-0.9,0.4v2.5h-1
		v-2c0-0.3-0.1-0.5-0.2-0.7c-0.1-0.1-0.3-0.2-0.6-0.2c-0.2,0-0.3,0-0.5,0.1c-0.1,0-0.2,0.1-0.3,0.2v2.6h-1v-3.6h0.9L322.5,138.5
		L322.5,138.5z"/>
	<path class="st8" d="M331.6,141.7h-0.8l-0.1-0.3c-0.4,0.3-0.7,0.4-1.1,0.4c-0.8,0-1.2-0.4-1.2-1.2c0-0.4,0.2-0.7,0.5-0.9
		s0.8-0.3,1.5-0.3h0.2l0,0c0-0.2,0-0.4-0.1-0.5s-0.3-0.1-0.5-0.1c-0.4,0-0.7,0.1-1,0.3c-0.1-0.2-0.2-0.3-0.3-0.5
		c0.3-0.2,0.6-0.4,0.8-0.5s0.5-0.1,0.8-0.1c0.9,0,1.3,0.5,1.3,1.6L331.6,141.7L331.6,141.7z M330.5,140h-0.1c-0.3,0-0.5,0.1-0.7,0.2
		c-0.2,0.1-0.3,0.2-0.3,0.4c0,0.3,0.1,0.5,0.4,0.5c0.2,0,0.3-0.1,0.5-0.2c0.1-0.1,0.2-0.2,0.2-0.4V140z"/>
	<path class="st8" d="M333.6,138.5c0.1-0.1,0.3-0.2,0.5-0.3s0.4-0.1,0.6-0.1c0.5,0,0.8,0.1,1,0.4c0.2,0.3,0.3,0.7,0.3,1.2v2.1h-1
		v-2.1c0-0.5-0.2-0.8-0.7-0.8c-0.1,0-0.2,0-0.4,0.1c-0.1,0.1-0.2,0.1-0.3,0.2v2.6h-1v-3.6h0.9C333.5,138.2,333.6,138.4,333.6,138.5
		L333.6,138.5z"/>
	<path class="st8" d="M340.1,141.3c-0.4,0.4-0.8,0.6-1.3,0.6c-0.6,0-1.1-0.2-1.5-0.6c-0.3-0.3-0.5-0.8-0.5-1.3
		c0-0.6,0.2-1.1,0.6-1.4c0.4-0.3,0.8-0.5,1.3-0.5c0.6,0,1,0.2,1.4,0.5l-0.3,0.5c-0.3-0.2-0.6-0.4-0.9-0.4s-0.5,0.1-0.7,0.3
		s-0.3,0.5-0.3,0.9c0,0.3,0.1,0.6,0.3,0.8c0.2,0.2,0.4,0.3,0.7,0.3c0.4,0,0.7-0.1,0.9-0.4L340.1,141.3z"/>
	<path class="st8" d="M344.2,140.2h-2.5c0,0.2,0.1,0.4,0.3,0.6s0.4,0.2,0.6,0.2c0.3,0,0.7-0.1,1.1-0.3l0.3,0.5
		c-0.4,0.3-0.9,0.5-1.4,0.5c-0.6,0-1.1-0.2-1.4-0.5s-0.5-0.8-0.5-1.4c0-0.6,0.2-1,0.6-1.4c0.3-0.3,0.8-0.5,1.3-0.5
		c0.6,0,1,0.2,1.3,0.6c0.3,0.3,0.4,0.8,0.4,1.3L344.2,140.2L344.2,140.2z M341.7,139.5h1.5c0-0.5-0.3-0.8-0.8-0.8
		C342,138.7,341.7,139,341.7,139.5z"/>
</g>
<g>
	<path class="st8" d="M290.1,149.5c0.3-1.1,0.7-2.4,1.2-3.9h1.5v5.1h-1.1v-4.1c-0.3,1.1-0.7,2.5-1.2,4.1h-0.9
		c-0.6-1.8-1-3.2-1.2-4.1v4.1h-1v-5.1h1.5C289.3,147,289.8,148.3,290.1,149.5z"/>
	<path class="st8" d="M296.9,150.7h-0.8l-0.1-0.3c-0.4,0.3-0.7,0.4-1.1,0.4c-0.8,0-1.2-0.4-1.2-1.2c0-0.4,0.2-0.7,0.5-0.9
		s0.8-0.3,1.5-0.3h0.2l0,0c0-0.2,0-0.4-0.1-0.5s-0.3-0.1-0.5-0.1c-0.4,0-0.7,0.1-1,0.3c-0.1-0.2-0.2-0.3-0.3-0.5
		c0.3-0.2,0.6-0.4,0.8-0.5s0.5-0.1,0.8-0.1c0.9,0,1.3,0.5,1.3,1.6L296.9,150.7L296.9,150.7z M295.9,149h-0.1c-0.3,0-0.5,0.1-0.7,0.2
		c-0.2,0.1-0.3,0.2-0.3,0.4c0,0.3,0.1,0.5,0.4,0.5c0.2,0,0.3-0.1,0.5-0.2c0.1-0.1,0.2-0.2,0.2-0.4V149z"/>
	<path class="st8" d="M299,147.5c0.1-0.1,0.3-0.2,0.5-0.3s0.4-0.1,0.6-0.1c0.5,0,0.8,0.1,1,0.4c0.2,0.3,0.3,0.7,0.3,1.2v2.1h-1v-2.1
		c0-0.5-0.2-0.8-0.7-0.8c-0.1,0-0.2,0-0.4,0.1c-0.1,0.1-0.2,0.1-0.3,0.2v2.6h-1v-3.6h0.9C298.9,147.2,298.9,147.4,299,147.5
		L299,147.5z"/>
	<path class="st8" d="M305.4,150.7h-0.8l-0.1-0.3c-0.4,0.3-0.7,0.4-1.1,0.4c-0.8,0-1.2-0.4-1.2-1.2c0-0.4,0.2-0.7,0.5-0.9
		s0.8-0.3,1.5-0.3h0.2l0,0c0-0.2,0-0.4-0.1-0.5s-0.3-0.1-0.5-0.1c-0.4,0-0.7,0.1-1,0.3c-0.1-0.2-0.2-0.3-0.3-0.5
		c0.3-0.2,0.6-0.4,0.8-0.5s0.5-0.1,0.8-0.1c0.9,0,1.3,0.5,1.3,1.6L305.4,150.7L305.4,150.7z M304.3,149h-0.1c-0.3,0-0.5,0.1-0.7,0.2
		c-0.2,0.1-0.3,0.2-0.3,0.4c0,0.3,0.1,0.5,0.4,0.5c0.2,0,0.3-0.1,0.5-0.2c0.1-0.1,0.2-0.2,0.2-0.4V149z"/>
	<path class="st8" d="M308.7,150.3c-0.2,0.4-0.6,0.5-1,0.5c-0.5,0-0.9-0.2-1.2-0.6c-0.3-0.3-0.4-0.7-0.4-1.2c0-0.7,0.2-1.2,0.6-1.6
		c0.3-0.3,0.7-0.4,1.1-0.4c0.3,0,0.6,0.1,0.9,0.2c0.2,0.1,0.2,0.2,0.2,0.2l0.1-0.4h0.8v3.3c0,0.6-0.2,1.1-0.5,1.4
		c-0.3,0.3-0.7,0.5-1.3,0.5c-0.6,0-1.1-0.2-1.5-0.6l0.3-0.5c0.3,0.2,0.7,0.3,1.1,0.3C308.5,151.5,308.7,151.1,308.7,150.3z
		 M308.7,148.3c0-0.2-0.1-0.3-0.2-0.4c-0.1-0.1-0.3-0.2-0.5-0.2c-0.3,0-0.5,0.1-0.6,0.3s-0.2,0.5-0.2,0.9c0,0.8,0.3,1.2,0.8,1.2
		c0.2,0,0.4-0.1,0.6-0.3s0.2-0.4,0.2-0.6L308.7,148.3L308.7,148.3z"/>
	<path class="st8" d="M314.2,149.2h-2.5c0,0.2,0.1,0.4,0.3,0.6s0.4,0.2,0.6,0.2c0.3,0,0.7-0.1,1.1-0.3l0.3,0.5
		c-0.4,0.3-0.9,0.5-1.4,0.5c-0.6,0-1.1-0.2-1.4-0.5s-0.5-0.8-0.5-1.4c0-0.6,0.2-1,0.6-1.4c0.3-0.3,0.8-0.5,1.3-0.5
		c0.6,0,1,0.2,1.3,0.6c0.3,0.3,0.4,0.8,0.4,1.3L314.2,149.2L314.2,149.2z M311.7,148.5h1.5c0-0.5-0.3-0.8-0.8-0.8
		C312,147.7,311.7,148,311.7,148.5z"/>
	<path class="st8" d="M316,147.5c0.3-0.3,0.7-0.4,1.1-0.4c0.3,0,0.6,0.1,0.8,0.2c0.2,0.1,0.4,0.3,0.5,0.5c0.1-0.2,0.3-0.4,0.5-0.5
		s0.5-0.2,0.8-0.2c0.9,0,1.3,0.5,1.3,1.6v2.2h-1V149c0-0.4-0.1-0.6-0.2-0.8c-0.1-0.1-0.3-0.2-0.5-0.2c-0.4,0-0.6,0.1-0.9,0.4v2.5h-1
		v-2c0-0.3-0.1-0.5-0.2-0.7c-0.1-0.1-0.3-0.2-0.6-0.2c-0.2,0-0.3,0-0.5,0.1c-0.1,0-0.2,0.1-0.3,0.2v2.6h-1v-3.6h0.9L316,147.5
		L316,147.5z"/>
	<path class="st8" d="M325.5,149.2H323c0,0.2,0.1,0.4,0.3,0.6s0.4,0.2,0.6,0.2c0.3,0,0.7-0.1,1.1-0.3l0.3,0.5
		c-0.4,0.3-0.9,0.5-1.4,0.5c-0.6,0-1.1-0.2-1.4-0.5s-0.5-0.8-0.5-1.4c0-0.6,0.2-1,0.6-1.4c0.3-0.3,0.8-0.5,1.3-0.5
		c0.6,0,1,0.2,1.3,0.6c0.3,0.3,0.4,0.8,0.4,1.3L325.5,149.2L325.5,149.2z M323,148.5h1.5c0-0.5-0.3-0.8-0.8-0.8
		C323.3,147.7,323,148,323,148.5z"/>
	<path class="st8" d="M327.3,147.5c0.1-0.1,0.3-0.2,0.5-0.3s0.4-0.1,0.6-0.1c0.5,0,0.8,0.1,1,0.4c0.2,0.3,0.3,0.7,0.3,1.2v2.1h-1
		v-2.1c0-0.5-0.2-0.8-0.7-0.8c-0.1,0-0.2,0-0.4,0.1c-0.1,0.1-0.2,0.1-0.3,0.2v2.6h-1v-3.6h0.9C327.2,147.2,327.3,147.4,327.3,147.5
		L327.3,147.5z"/>
	<path class="st8" d="M333,147.9h-1v1.8c0,0.3,0.1,0.4,0.3,0.4c0.2,0,0.4-0.1,0.6-0.2l0.3,0.5c-0.4,0.3-0.8,0.4-1.3,0.4
		c-0.6,0-1-0.4-1-1.1v-1.9h-0.5V147h0.5v-0.6c0.3-0.1,0.6-0.3,1-0.5v1.2h1v0.8H333z"/>
</g>
<path class="st12" d="M354.8,131v27h67.5c7.5,0,13.5-6,13.5-13.5s-6-13.5-13.5-13.5H354.8z"/>
<g>
	<path class="st8" d="M370.4,146.7v-5c0.4-0.1,0.9-0.1,1.5-0.1c0.7,0,1.2,0.2,1.5,0.5s0.4,0.6,0.4,1c0,0.3-0.1,0.5-0.3,0.7
		c-0.2,0.2-0.4,0.3-0.7,0.3l0,0c0.4,0,0.6,0.2,0.8,0.4c0.2,0.2,0.3,0.5,0.3,0.9c0,0.5-0.2,0.9-0.6,1.2c-0.4,0.2-0.9,0.3-1.5,0.3
		C371.2,146.8,370.7,146.8,370.4,146.7z M371.4,142.4v1.2h0.6c0.4,0,0.7-0.2,0.7-0.6c0-0.4-0.3-0.6-0.8-0.6l0,0
		C371.7,142.4,371.6,142.4,371.4,142.4z M371.4,144.4v1.5c0.1,0,0.3,0.1,0.6,0.1c0.5,0,0.8-0.2,0.8-0.7c0-0.6-0.3-0.8-0.8-0.8h-0.6
		V144.4z"/>
	<path class="st8" d="M375.6,143.1l0.1,0.3c0.1-0.1,0.2-0.2,0.3-0.3c0.2-0.1,0.3-0.1,0.5-0.1c0.5,0,0.8,0.2,1.1,0.7l-0.8,0.5
		c-0.2-0.2-0.4-0.3-0.6-0.3s-0.3,0.1-0.4,0.3v2.6h-1v-3.6L375.6,143.1L375.6,143.1z"/>
	<path class="st8" d="M380.8,146.7H380l-0.1-0.3c-0.4,0.3-0.7,0.4-1.1,0.4c-0.8,0-1.2-0.4-1.2-1.2c0-0.4,0.2-0.7,0.5-0.9
		s0.8-0.3,1.5-0.3h0.2l0,0c0-0.2,0-0.4-0.1-0.5s-0.3-0.1-0.5-0.1c-0.4,0-0.7,0.1-1,0.3c-0.1-0.2-0.2-0.3-0.3-0.5
		c0.3-0.2,0.6-0.4,0.8-0.5s0.5-0.1,0.8-0.1c0.9,0,1.3,0.5,1.3,1.6L380.8,146.7L380.8,146.7z M379.8,145h-0.1c-0.3,0-0.5,0.1-0.7,0.2
		c-0.2,0.1-0.3,0.2-0.3,0.4c0,0.3,0.1,0.5,0.4,0.5c0.2,0,0.3-0.1,0.5-0.2c0.1-0.1,0.2-0.2,0.2-0.4V145z"/>
	<path class="st8" d="M382.9,143.4c0.1-0.1,0.3-0.2,0.5-0.3s0.4-0.1,0.6-0.1c0.5,0,0.8,0.1,1,0.4c0.2,0.3,0.3,0.7,0.3,1.2v2.1h-1
		v-2.1c0-0.5-0.2-0.8-0.7-0.8c-0.1,0-0.2,0-0.4,0.1c-0.1,0.1-0.2,0.1-0.3,0.2v2.6h-1v-3.6h0.9C382.8,143.2,382.8,143.3,382.9,143.4
		L382.9,143.4z"/>
	<path class="st8" d="M388.9,146.7l-0.1-0.4c-0.1,0.1-0.2,0.3-0.4,0.3c-0.2,0.1-0.4,0.1-0.6,0.1c-0.6,0-1-0.2-1.3-0.6
		c-0.2-0.3-0.4-0.7-0.4-1.2c0-0.7,0.2-1.2,0.6-1.6c0.3-0.3,0.7-0.4,1.1-0.4s0.7,0.1,0.9,0.3V142l1-0.6v5.1h-0.8V146.7z M388.7,145.3
		v-1c0-0.2-0.1-0.3-0.3-0.4c-0.1-0.1-0.3-0.2-0.5-0.2c-0.3,0-0.5,0.1-0.6,0.3s-0.2,0.5-0.2,0.9c0,0.8,0.3,1.2,0.8,1.2
		c0.2,0,0.4-0.1,0.5-0.2C388.6,145.7,388.7,145.5,388.7,145.3z"/>
	<path class="st8" d="M393.9,141.6v5.1h-1v-5.1H393.9z"/>
	<path class="st8" d="M397.6,146.7l-0.1-0.4c-0.1,0.1-0.2,0.3-0.4,0.3c-0.2,0.1-0.4,0.1-0.6,0.1c-0.6,0-1-0.2-1.3-0.6
		c-0.2-0.3-0.4-0.7-0.4-1.2c0-0.7,0.2-1.2,0.6-1.6c0.3-0.3,0.7-0.4,1.1-0.4s0.7,0.1,0.9,0.3V142l1-0.6v5.1h-0.8V146.7z M397.4,145.3
		v-1c0-0.2-0.1-0.3-0.3-0.4c-0.1-0.1-0.3-0.2-0.5-0.2c-0.3,0-0.5,0.1-0.6,0.3s-0.2,0.5-0.2,0.9c0,0.8,0.3,1.2,0.8,1.2
		c0.2,0,0.4-0.1,0.5-0.2C397.3,145.7,397.4,145.5,397.4,145.3z"/>
	<path class="st8" d="M402.9,145.2h-2.5c0,0.2,0.1,0.4,0.3,0.6s0.4,0.2,0.6,0.2c0.3,0,0.7-0.1,1.1-0.3l0.3,0.5
		c-0.4,0.3-0.9,0.5-1.4,0.5c-0.6,0-1.1-0.2-1.4-0.5s-0.5-0.8-0.5-1.4c0-0.6,0.2-1,0.6-1.4c0.3-0.3,0.8-0.5,1.3-0.5
		c0.6,0,1,0.2,1.3,0.6c0.3,0.3,0.4,0.8,0.4,1.3L402.9,145.2L402.9,145.2z M400.3,144.5h1.5c0-0.5-0.3-0.8-0.8-0.8
		C400.7,143.7,400.4,143.9,400.3,144.5z"/>
	<path class="st8" d="M404.7,143.4c0.1-0.1,0.3-0.2,0.5-0.3s0.4-0.1,0.6-0.1c0.5,0,0.8,0.1,1,0.4c0.2,0.3,0.3,0.7,0.3,1.2v2.1h-1
		v-2.1c0-0.5-0.2-0.8-0.7-0.8c-0.1,0-0.2,0-0.4,0.1c-0.1,0.1-0.2,0.1-0.3,0.2v2.6h-1v-3.6h0.9C404.6,143.2,404.6,143.3,404.7,143.4
		L404.7,143.4z"/>
	<path class="st8" d="M410.3,143.9h-1v1.8c0,0.3,0.1,0.4,0.3,0.4c0.2,0,0.4-0.1,0.6-0.2l0.3,0.5c-0.4,0.3-0.8,0.4-1.3,0.4
		c-0.6,0-1-0.4-1-1.1v-1.9h-0.5V143h0.5v-0.6c0.3-0.1,0.6-0.3,1-0.5v1.2h1v0.8H410.3z"/>
	<path class="st8" d="M411.1,142.1c0-0.2,0.1-0.3,0.2-0.4c0.1-0.1,0.3-0.2,0.4-0.2c0.2,0,0.3,0.1,0.5,0.2c0.1,0.1,0.2,0.3,0.2,0.4
		c0,0.2-0.1,0.3-0.2,0.5s-0.3,0.2-0.5,0.2s-0.3-0.1-0.4-0.2C411.1,142.5,411.1,142.3,411.1,142.1z M412.2,143.1v3.6h-1v-3.6H412.2z"
		/>
	<path class="st8" d="M415.5,143.9h-1v1.8c0,0.3,0.1,0.4,0.3,0.4c0.2,0,0.4-0.1,0.6-0.2l0.3,0.5c-0.4,0.3-0.8,0.4-1.3,0.4
		c-0.6,0-1-0.4-1-1.1v-1.9H413V143h0.5v-0.6c0.3-0.1,0.6-0.3,1-0.5v1.2h1V143.9z"/>
	<path class="st8" d="M419.8,143.1c-0.2,0.6-0.5,1.4-0.9,2.4c-0.3,0.8-0.5,1.3-0.6,1.8c-0.2,0.7-0.6,1-1.1,1c-0.4,0-0.7-0.2-1.1-0.5
		c0.1-0.2,0.2-0.3,0.3-0.5c0.2,0.1,0.4,0.2,0.5,0.2c0.2,0,0.4-0.3,0.6-0.8h-0.2l-1.3-3.6h1c0.1,0.2,0.1,0.5,0.3,0.8v0.1
		c0.2,0.7,0.4,1.2,0.5,1.5l0.9-2.5h1.1V143.1z"/>
</g>
<g>
	<rect x="164.4" y="64.6" class="st13" width="122.9" height="20.2"/>
	<g>
		<path class="st8" d="M177.6,70.4c0.9,0,1.6,0.3,2,1c0.4,0.5,0.6,1.2,0.6,2c0,0.9-0.2,1.6-0.7,2.1s-1.1,0.8-1.9,0.8
			c-0.9,0-1.6-0.3-2-1c-0.4-0.5-0.6-1.1-0.6-1.9c0-0.9,0.2-1.6,0.7-2.2C176.2,70.7,176.8,70.4,177.6,70.4z M177.6,75.4
			c0.4,0,0.8-0.2,1-0.5s0.4-0.8,0.4-1.4c0-0.7-0.1-1.2-0.4-1.5c-0.2-0.3-0.6-0.5-1-0.5s-0.8,0.2-1,0.5s-0.4,0.8-0.4,1.5
			C176.2,74.7,176.7,75.4,177.6,75.4z"/>
		<path class="st8" d="M182,72.2l0.1,0.4c0.3-0.3,0.6-0.5,1.1-0.5c0.6,0,1.1,0.2,1.5,0.6c0.3,0.4,0.5,0.8,0.5,1.4
			c0,0.8-0.2,1.3-0.7,1.7c-0.4,0.3-0.8,0.5-1.3,0.5c-0.2,0-0.3,0-0.5-0.1s-0.3-0.1-0.4-0.2v1.8h-1.1v-5.7L182,72.2L182,72.2z
			 M182.2,73.8v1c0,0.2,0.1,0.4,0.2,0.5c0.1,0.2,0.3,0.2,0.5,0.2c0.3,0,0.5-0.1,0.7-0.4s0.3-0.6,0.3-1s-0.1-0.7-0.2-1
			c-0.2-0.2-0.4-0.4-0.6-0.4c-0.2,0-0.4,0.1-0.6,0.3C182.3,73.3,182.2,73.5,182.2,73.8z"/>
		<path class="st8" d="M189.9,74.6H187c0,0.3,0.1,0.5,0.3,0.7s0.4,0.3,0.7,0.3c0.4,0,0.8-0.1,1.2-0.4l0.3,0.6
			c-0.4,0.4-1,0.6-1.6,0.6c-0.7,0-1.2-0.2-1.6-0.6c-0.4-0.4-0.6-0.9-0.6-1.5s0.2-1.2,0.6-1.6c0.4-0.4,0.9-0.6,1.4-0.6
			c0.6,0,1.2,0.2,1.5,0.7c0.3,0.4,0.5,0.9,0.5,1.4v0.4H189.9z M187,73.7h1.7c0-0.6-0.3-0.9-0.9-0.9C187.3,72.9,187,73.1,187,73.7z"
			/>
		<path class="st8" d="M191.8,72.2l0.1,0.4c0.1-0.1,0.2-0.2,0.3-0.3c0.2-0.1,0.3-0.1,0.5-0.1c0.5,0,0.9,0.3,1.2,0.8l-1,0.5
			c-0.2-0.2-0.4-0.3-0.6-0.3c-0.2,0-0.4,0.1-0.5,0.3v2.9h-1.1v-4.1h1.1V72.2z"/>
		<path class="st8" d="M197.7,76.2h-0.9l-0.1-0.4c-0.4,0.3-0.8,0.5-1.2,0.5c-0.9,0-1.4-0.4-1.4-1.3c0-0.4,0.2-0.8,0.6-1
			c0.4-0.3,1-0.4,1.7-0.4h0.2l0,0c0-0.3-0.1-0.4-0.2-0.5c-0.1-0.1-0.3-0.1-0.6-0.1c-0.4,0-0.8,0.1-1.1,0.4c-0.1-0.2-0.2-0.4-0.3-0.6
			c0.3-0.3,0.6-0.4,0.9-0.5c0.3-0.1,0.6-0.1,0.9-0.1c1,0,1.4,0.6,1.4,1.8v2.2H197.7z M196.5,74.3h-0.1c-0.3,0-0.6,0.1-0.8,0.2
			s-0.3,0.3-0.3,0.5c0,0.4,0.2,0.6,0.5,0.6c0.2,0,0.4-0.1,0.5-0.2s0.2-0.3,0.3-0.4L196.5,74.3L196.5,74.3z"/>
		<path class="st8" d="M201.5,73.1h-1.2v2c0,0.3,0.1,0.4,0.3,0.4s0.4-0.1,0.7-0.2l0.4,0.6c-0.4,0.3-0.9,0.5-1.4,0.5
			c-0.7,0-1.1-0.4-1.1-1.2v-2.1h-0.6v-0.9h0.6v-0.7c0.3-0.2,0.7-0.4,1.1-0.6v1.3h1.2V73.1z"/>
		<path class="st8" d="M202.3,71.1c0-0.2,0.1-0.4,0.2-0.5c0.1-0.1,0.3-0.2,0.5-0.2s0.4,0.1,0.5,0.2s0.2,0.3,0.2,0.5
			s-0.1,0.4-0.2,0.5c-0.1,0.1-0.3,0.2-0.5,0.2s-0.4-0.1-0.5-0.2S202.3,71.3,202.3,71.1z M203.6,72.2v4.1h-1.1v-4.1H203.6z"/>
		<path class="st8" d="M205.8,72.6c0.1-0.1,0.3-0.3,0.5-0.4s0.5-0.1,0.7-0.1c0.5,0,0.9,0.1,1.1,0.4c0.2,0.3,0.3,0.7,0.3,1.4v2.4
			h-1.1v-2.4c0-0.6-0.3-0.9-0.8-0.9c-0.1,0-0.3,0-0.4,0.1c-0.1,0.1-0.3,0.1-0.3,0.2v3h-1.1v-4.1h1C205.7,72.3,205.8,72.5,205.8,72.6
			L205.8,72.6z"/>
		<path class="st8" d="M212.3,75.8c-0.3,0.4-0.7,0.6-1.1,0.6c-0.6,0-1.1-0.2-1.4-0.6c-0.3-0.4-0.4-0.8-0.4-1.4
			c0-0.8,0.2-1.4,0.7-1.8c0.3-0.3,0.8-0.5,1.2-0.5s0.7,0.1,1,0.3c0.2,0.1,0.3,0.2,0.3,0.3l0.1-0.4h0.9V76c0,0.7-0.2,1.2-0.5,1.6
			s-0.8,0.5-1.4,0.5c-0.6,0-1.2-0.2-1.7-0.6l0.3-0.6c0.4,0.2,0.8,0.4,1.2,0.4C212,77.1,212.3,76.7,212.3,75.8z M212.3,73.5
			c0-0.2-0.1-0.3-0.3-0.5c-0.2-0.1-0.3-0.2-0.5-0.2c-0.3,0-0.5,0.1-0.7,0.4c-0.2,0.2-0.3,0.6-0.3,1c0,0.9,0.3,1.3,0.9,1.3
			c0.2,0,0.5-0.1,0.6-0.3c0.2-0.2,0.3-0.4,0.3-0.7V73.5z"/>
		<path class="st8" d="M217.9,72.6c0.3-0.3,0.8-0.5,1.3-0.5c0.3,0,0.7,0.1,0.9,0.2c0.3,0.1,0.5,0.3,0.6,0.6c0.1-0.2,0.3-0.4,0.6-0.6
			c0.3-0.1,0.6-0.2,0.9-0.2c1,0,1.4,0.6,1.4,1.7v2.4h-1.1v-2.1c0-0.4-0.1-0.7-0.2-0.9c-0.1-0.2-0.3-0.2-0.6-0.2
			c-0.4,0-0.7,0.2-1,0.5v2.8h-1.1V74c0-0.4-0.1-0.6-0.2-0.8s-0.3-0.2-0.6-0.2c-0.2,0-0.3,0-0.5,0.1s-0.3,0.1-0.3,0.2v3h-1.1v-4.1h1
			L217.9,72.6L217.9,72.6z"/>
		<path class="st8" d="M226.6,72.1c0.7,0,1.2,0.2,1.6,0.7c0.3,0.4,0.5,0.9,0.5,1.4c0,0.7-0.2,1.2-0.7,1.6c-0.4,0.3-0.8,0.5-1.3,0.5
			c-0.6,0-1.1-0.2-1.5-0.7c-0.4-0.4-0.5-0.9-0.5-1.5c0-0.7,0.2-1.2,0.6-1.6C225.5,72.2,226,72.1,226.6,72.1z M226.6,75.5
			c0.6,0,0.9-0.4,0.9-1.3s-0.3-1.3-0.9-1.3s-0.9,0.4-0.9,1.3C225.7,75.1,226,75.5,226.6,75.5z"/>
		<path class="st8" d="M232.5,76.2l-0.2-0.4c-0.1,0.2-0.3,0.3-0.5,0.4s-0.4,0.2-0.7,0.2c-0.6,0-1.1-0.2-1.5-0.6
			c-0.3-0.4-0.4-0.8-0.4-1.4c0-0.8,0.2-1.4,0.7-1.8c0.3-0.3,0.8-0.5,1.2-0.5s0.8,0.1,1,0.3v-1.3l1.1-0.6v5.8L232.5,76.2L232.5,76.2z
			 M232.2,74.7v-1.1c0-0.2-0.1-0.4-0.3-0.5s-0.3-0.2-0.5-0.2c-0.3,0-0.5,0.1-0.7,0.4s-0.3,0.6-0.3,1c0,0.9,0.3,1.3,0.9,1.3
			c0.2,0,0.4-0.1,0.6-0.3S232.2,74.9,232.2,74.7z"/>
		<path class="st8" d="M238.4,74.6h-2.8c0,0.3,0.1,0.5,0.3,0.7s0.4,0.3,0.7,0.3c0.4,0,0.8-0.1,1.2-0.4l0.3,0.6
			c-0.4,0.4-1,0.6-1.6,0.6c-0.7,0-1.2-0.2-1.6-0.6c-0.4-0.4-0.6-0.9-0.6-1.5s0.2-1.2,0.6-1.6c0.4-0.4,0.9-0.6,1.4-0.6
			c0.6,0,1.2,0.2,1.5,0.7c0.3,0.4,0.5,0.9,0.5,1.4v0.4H238.4z M235.5,73.7h1.7c0-0.6-0.3-0.9-0.9-0.9
			C235.9,72.9,235.6,73.1,235.5,73.7z"/>
		<path class="st8" d="M240.5,70.4v5.8h-1.1V71L240.5,70.4z"/>
		<path class="st8" d="M247.6,74.6h-2.8c0,0.3,0.1,0.5,0.3,0.7s0.4,0.3,0.7,0.3c0.4,0,0.8-0.1,1.2-0.4l0.3,0.6
			c-0.4,0.4-1,0.6-1.6,0.6c-0.7,0-1.2-0.2-1.6-0.6c-0.4-0.4-0.6-0.9-0.6-1.5s0.2-1.2,0.6-1.6c0.4-0.4,0.9-0.6,1.4-0.6
			c0.6,0,1.2,0.2,1.5,0.7c0.3,0.4,0.5,0.9,0.5,1.4v0.4H247.6z M244.8,73.7h1.7c0-0.6-0.3-0.9-0.9-0.9
			C245.1,72.9,244.8,73.1,244.8,73.7z"/>
		<path class="st8" d="M249.7,72.6c0.1-0.1,0.3-0.3,0.5-0.4s0.5-0.1,0.7-0.1c0.5,0,0.9,0.1,1.1,0.4c0.2,0.3,0.3,0.7,0.3,1.4v2.4
			h-1.1v-2.4c0-0.6-0.3-0.9-0.8-0.9c-0.1,0-0.3,0-0.4,0.1c-0.1,0.1-0.3,0.1-0.3,0.2v3h-1.1v-4.1h1C249.6,72.3,249.6,72.5,249.7,72.6
			L249.7,72.6z"/>
		<path class="st8" d="M256.9,76.2H256l-0.1-0.4c-0.4,0.3-0.8,0.5-1.2,0.5c-0.9,0-1.4-0.4-1.4-1.3c0-0.4,0.2-0.8,0.6-1
			c0.4-0.3,1-0.4,1.7-0.4h0.2l0,0c0-0.3-0.1-0.4-0.2-0.5c-0.1-0.1-0.3-0.1-0.6-0.1c-0.4,0-0.8,0.1-1.1,0.4c-0.1-0.2-0.2-0.4-0.3-0.6
			c0.3-0.3,0.6-0.4,0.9-0.5c0.3-0.1,0.6-0.1,0.9-0.1c1,0,1.4,0.6,1.4,1.8v2.2H256.9z M255.7,74.3h-0.1c-0.3,0-0.6,0.1-0.8,0.2
			s-0.3,0.3-0.3,0.5c0,0.4,0.2,0.6,0.5,0.6c0.2,0,0.4-0.1,0.5-0.2s0.2-0.3,0.3-0.4L255.7,74.3L255.7,74.3z"/>
		<path class="st8" d="M259,76.2h-0.9V71l1.1-0.6v2.2c0.1-0.2,0.3-0.3,0.5-0.5c0.2-0.1,0.4-0.1,0.6-0.1c0.6,0,1.1,0.2,1.4,0.6
			s0.4,0.9,0.4,1.5c0,0.8-0.2,1.4-0.7,1.8c-0.3,0.3-0.8,0.5-1.3,0.5s-0.9-0.2-1.2-0.5L259,76.2z M259.2,73.8v1
			c0,0.2,0.1,0.4,0.3,0.6c0.2,0.2,0.4,0.2,0.6,0.2c0.3,0,0.5-0.1,0.7-0.4c0.2-0.2,0.3-0.6,0.3-1s-0.1-0.7-0.2-1
			c-0.2-0.2-0.4-0.4-0.6-0.4c-0.3,0-0.5,0.1-0.6,0.3S259.2,73.5,259.2,73.8z"/>
		<path class="st8" d="M264.3,70.4v5.8h-1.1V71L264.3,70.4z"/>
		<path class="st8" d="M269.3,74.6h-2.8c0,0.3,0.1,0.5,0.3,0.7c0.2,0.2,0.4,0.3,0.7,0.3c0.4,0,0.8-0.1,1.2-0.4l0.3,0.6
			c-0.4,0.4-1,0.6-1.6,0.6c-0.7,0-1.2-0.2-1.6-0.6s-0.6-0.9-0.6-1.5s0.2-1.2,0.6-1.6s0.9-0.6,1.4-0.6c0.6,0,1.2,0.2,1.5,0.7
			c0.3,0.4,0.5,0.9,0.5,1.4v0.4H269.3z M266.4,73.7h1.7c0-0.6-0.3-0.9-0.9-0.9C266.8,72.9,266.5,73.1,266.4,73.7z"/>
		<path class="st8" d="M271.2,72.2l0.1,0.4c0.1-0.1,0.2-0.2,0.3-0.3c0.2-0.1,0.3-0.1,0.5-0.1c0.5,0,0.9,0.3,1.2,0.8l-1,0.5
			c-0.2-0.2-0.4-0.3-0.6-0.3s-0.4,0.1-0.5,0.3v2.9h-1.1v-4.1h1.1V72.2z"/>
		<path class="st8" d="M276.2,73.2c-0.3-0.2-0.6-0.3-1-0.3c-0.3,0-0.4,0.1-0.4,0.4c0,0.2,0.2,0.4,0.6,0.5c0.5,0.1,0.8,0.3,1,0.4
			c0.3,0.2,0.4,0.5,0.4,1c0,0.4-0.1,0.7-0.4,0.9c-0.3,0.2-0.6,0.3-1.1,0.3c-0.7,0-1.2-0.2-1.7-0.6l0.4-0.6c0.3,0.2,0.7,0.4,1.1,0.4
			c0.2,0,0.3,0,0.4-0.1s0.2-0.2,0.2-0.3c0-0.3-0.2-0.4-0.6-0.5c-0.9-0.2-1.4-0.6-1.4-1.3c0-0.3,0.1-0.6,0.4-0.9
			c0.3-0.2,0.6-0.3,1-0.3c0.6,0,1.1,0.2,1.5,0.5L276.2,73.2z"/>
	</g>
</g>
<polygon class="st14" points="184.2,131 211.3,88.1 244.7,88.1 265.2,131 "/>
<polygon class="st15" points="209.9,88.1 189.8,88.1 98.3,131 179.3,131 "/>
<polygon class="st16" points="163.7,88.1 24.5,131.1 94,131 187.5,88.1 "/>
<path d="M173.8,21.8h3.7c1.9,0,2.8,0.1,3.6,0.5c0.5,0.3,1,0.7,1.4,1.2c0.6,0.9,0.9,1.9,0.9,3.3c0,2.1-0.9,3.8-2.3,4.5
	c-0.9,0.4-1.6,0.6-3.5,0.6h-3.9V21.8H173.8z M177.6,30c1.4,0,1.9-0.1,2.4-0.3c0.3-0.1,0.5-0.4,0.7-0.6c0.4-0.6,0.6-1.3,0.6-2.2
	c0-1.5-0.5-2.5-1.4-2.9c-0.5-0.2-0.8-0.2-1.9-0.2h-2V30H177.6z"/>
<path d="M199.5,31.9c-2.9,0-5.1-2.1-5.1-5s2.1-5,5.1-5c2.9,0,5.1,2.1,5.1,5C204.5,29.8,202.4,31.9,199.5,31.9 M199.5,23.7
	c-1.7,0-2.9,1.3-2.9,3.2c0,1.9,1.2,3.2,2.9,3.2s2.9-1.3,2.9-3.2C202.3,25,201.2,23.7,199.5,23.7"/>
<path d="M171.3,31.9c1,0,1.8-0.9,1.8-1.9h-5.8v-2.3h3.3c0.9,0,1.7-0.8,1.7-1.8h-5v-2.1h3.8c1,0,1.7-0.8,1.7-1.9h-7.7v10L171.3,31.9z
	"/>
<path d="M163.6,24.1c-0.3-0.9-0.9-1.5-1.9-1.9c-0.6-0.3-1.3-0.4-2.2-0.4c-0.2,0-0.4,0-0.6,0c-2.1,0.2-3.4,1.2-3.4,2.9
	c0,1.5,0.9,2.4,2.8,2.8l1,0.2c1.9,0.4,2.3,0.5,2.3,1.2s-0.8,1.1-2,1.1c-0.8,0-1.5-0.2-1.9-0.7l0,0l-0.1-0.1l0,0
	c-0.6-0.7-1.7-0.7-2.4,0l0,0l0,0c0.3,1.2,1.1,2,2.3,2.3c0.6,0.2,1.2,0.3,2,0.3c0.2,0,0.4,0,0.6,0c2.3-0.2,3.7-1.3,3.7-3.1
	c0-0.8-0.2-1.4-0.7-1.9c-0.3-0.3-0.6-0.5-1-0.6c-0.5-0.2-0.8-0.3-2.1-0.5c-2.2-0.4-2.4-0.6-2.4-1.2s0.7-1,1.8-1
	c0.7,0,1.3,0.2,1.6,0.5l0,0l0,0l0,0C161.9,24.8,162.9,24.8,163.6,24.1L163.6,24.1z"/>
<path d="M191.3,29.3L191.3,29.3c-0.1,0.1-0.1,0.1-0.2,0.2c-0.4,0.4-1,0.5-1.7,0.5c-1.7,0-2.8-1.2-2.8-3.1s1.2-3.2,2.9-3.2
	c0.7,0,1.2,0.2,1.6,0.5l0,0c0.7,0.6,1.8,0.6,2.5-0.2l0,0c-0.3-0.7-0.9-1.2-1.5-1.6c-0.7-0.4-1.6-0.6-2.6-0.6c-0.2,0-0.5,0-0.7,0
	c-2.6,0.3-4.4,2.3-4.4,5c0,3,2,5,5,5c2,0,3.6-0.9,4.3-2.4l0,0C193.1,28.8,192,28.7,191.3,29.3"/>
<polygon class="st17" points="158.6,39.7 156.4,39.7 156.4,37.6 155.3,37.6 155.3,42.8 156.4,42.8 156.4,40.5 158.6,40.5 
	158.6,42.8 159.7,42.8 159.7,37.6 158.6,37.6 "/>
<path class="st17" d="M165.9,41.5c-0.2,0.3-0.5,0.4-0.9,0.4c-0.8,0-1.2-0.6-1.2-1.7c0-0.6,0.1-1,0.3-1.3s0.5-0.5,0.9-0.5
	s0.6,0.1,0.8,0.4c0.2,0.3,0.3,0.8,0.3,1.3C166.2,40.8,166.1,41.2,165.9,41.5 M165,37.6c-0.7,0-1.2,0.2-1.6,0.7
	c-0.4,0.5-0.6,1.1-0.6,1.9c0,0.7,0.2,1.2,0.5,1.7c0.4,0.6,1,0.8,1.8,0.8c0.7,0,1.2-0.2,1.6-0.7c0.4-0.5,0.6-1.1,0.6-1.9
	c0-0.7-0.2-1.3-0.5-1.7C166.4,37.9,165.8,37.6,165,37.6"/>
<polygon class="st17" points="172.1,37.6 171,37.6 171,42.8 174,42.8 174,41.9 172.1,41.9 "/>
<path class="st17" d="M179.4,42c-0.2,0-0.3,0-0.4,0v-3.4c0.1,0,0.2,0,0.4,0c0.4,0,0.8,0.1,1,0.4c0.3,0.3,0.5,0.8,0.5,1.4
	C180.9,41.4,180.4,42,179.4,42 M179.4,37.6c-0.7,0-1.1,0-1.4,0.1v5c0.3,0.1,0.8,0.1,1.3,0.1c0.8,0,1.5-0.2,1.9-0.6
	c0.5-0.5,0.8-1.1,0.8-2c0-0.7-0.2-1.3-0.6-1.7C180.9,37.9,180.3,37.6,179.4,37.6"/>
<rect x="187" y="37.6" class="st17" width="1.1" height="5.2"/>
<path class="st17" d="M196.2,41.2c-0.9-1.2-1.7-2.4-2.6-3.6h-0.9v5.2h1.1v-3.5c1.2,1.7,2.1,2.9,2.6,3.5h0.9v-5.2h-1.1V41.2z"/>
<path class="st17" d="M202.7,39.9v0.9h0.9v1c-0.2,0.1-0.4,0.1-0.6,0.1c-0.4,0-0.6-0.1-0.9-0.4c-0.3-0.3-0.4-0.7-0.4-1.3
	c0-0.5,0.1-0.9,0.3-1.2s0.5-0.5,0.9-0.5s0.7,0.1,1.1,0.4l0.4-0.7c-0.5-0.4-1-0.6-1.6-0.6s-1.2,0.2-1.6,0.7c-0.4,0.5-0.7,1.1-0.7,1.9
	c0,0.6,0.1,1.2,0.4,1.6c0.4,0.6,1,0.9,1.8,0.9c0.6,0,1.2-0.2,1.8-0.5v-2.4L202.7,39.9L202.7,39.9z"/>
<path class="st17" d="M221.3,25.2h6.7v6.7h-6.7V25.2z M221.3,18.4v-0.3c0-3.2-3.4-6.4-6.7-6.4v20.1h-0.3c-3.2,0-6.4,3.4-6.4,6.7H228
	v0.3c0,3.2,3.4,6.4,6.7,6.4v-20h0.3c3.2,0,6.4-3.4,6.4-6.7h-20.1V18.4z"/>
<linearGradient id="SVGID_00000139262170390581302740000017589182881408039323_" gradientUnits="userSpaceOnUse" x1="-78.5754" y1="-329.0072" x2="-77.9057" y2="-329.0072" gradientTransform="matrix(-20.13 0 0 -20.13 -1346.9625 -6600.978)">
	<stop  offset="0" style="stop-color:#D4A628"/>
	<stop  offset="0.8" style="stop-color:#D2A629"/>
	<stop  offset="0.8089" style="stop-color:#D0A529"/>
	<stop  offset="1" style="stop-color:#AC8827"/>
</linearGradient>
<rect x="221.3" y="18.6" style="fill:url(#SVGID_00000139262170390581302740000017589182881408039323_);" width="13.5" height="6.7"/>
<path class="st1" d="M221.3,18.4v6.7H235c3.2,0,6.4-3.4,6.4-6.7C241.4,18.4,221.3,18.4,221.3,18.4z"/>
<linearGradient id="SVGID_00000067195309786935266270000009915410517216584864_" gradientUnits="userSpaceOnUse" x1="-87.8812" y1="-317.8745" x2="-87.2221" y2="-317.8745" gradientTransform="matrix(0 -20.13 20.13 0 6630.1636 -1730.6285)">
	<stop  offset="0" style="stop-color:#D4A628"/>
	<stop  offset="0.8" style="stop-color:#D2A629"/>
	<stop  offset="0.8089" style="stop-color:#D0A529"/>
	<stop  offset="1" style="stop-color:#AC8827"/>
</linearGradient>
<rect x="228" y="25.2" style="fill:url(#SVGID_00000067195309786935266270000009915410517216584864_);" width="6.7" height="13.2"/>
<path class="st1" d="M228,25.2V39c0,3.2,3.4,6.4,6.7,6.4V25.2H228z"/>
<linearGradient id="SVGID_00000150093446202285991400000016790390587408019589_" gradientUnits="userSpaceOnUse" x1="-76.757" y1="-308.5582" x2="-76.0951" y2="-308.5582" gradientTransform="matrix(20.13 0 0 20.13 1759.8151 6246.4976)">
	<stop  offset="0" style="stop-color:#D4A628"/>
	<stop  offset="0.8" style="stop-color:#D2A629"/>
	<stop  offset="0.8089" style="stop-color:#D0A529"/>
	<stop  offset="1" style="stop-color:#AC8827"/>
</linearGradient>
<rect x="214.7" y="31.9" style="fill:url(#SVGID_00000150093446202285991400000016790390587408019589_);" width="13.3" height="6.6"/>
<path class="st1" d="M214.2,31.9c-3.2,0-6.4,3.4-6.4,6.7H228v-6.7C228,31.9,214.2,31.9,214.2,31.9z"/>
<linearGradient id="SVGID_00000058577335893224186630000002966157994565537456_" gradientUnits="userSpaceOnUse" x1="-67.4433" y1="-319.6852" x2="-66.7806" y2="-319.6852" gradientTransform="matrix(0 20.13 -20.13 0 -6217.312 1376.149)">
	<stop  offset="0" style="stop-color:#D4A628"/>
	<stop  offset="0.8" style="stop-color:#D2A629"/>
	<stop  offset="0.8089" style="stop-color:#D0A529"/>
	<stop  offset="1" style="stop-color:#AC8827"/>
</linearGradient>
<rect x="214.6" y="18.5" style="fill:url(#SVGID_00000058577335893224186630000002966157994565537456_);" width="6.7" height="13.3"/>
<path class="st1" d="M214.6,31.9h6.7V18.1c0-3.2-3.4-6.4-6.7-6.4V31.9z"/>
<path class="st17" d="M245.7,38.5c0.3,0,0.5-0.2,0.5-0.5c0-0.2,0-0.3-0.1-0.4c-0.1-0.1-0.2-0.1-0.4-0.1c-0.3,0-0.5,0.2-0.5,0.5
	c0,0.2,0,0.3,0.1,0.4C245.4,38.4,245.6,38.5,245.7,38.5"/>
<path class="st17" d="M246.9,38.5c0.3,0,0.5-0.2,0.5-0.5c0-0.2,0-0.3-0.1-0.4c-0.1-0.1-0.2-0.1-0.4-0.1c-0.3,0-0.5,0.2-0.5,0.5
	c0,0.2,0,0.3,0.1,0.4C246.6,38.4,246.7,38.5,246.9,38.5"/>
<path class="st17" d="M268.9,38.5c0.3,0,0.5-0.2,0.5-0.5c0-0.2,0-0.3-0.1-0.4c-0.1-0.1-0.2-0.1-0.4-0.1c-0.2,0-0.3,0-0.4,0.1
	s-0.1,0.2-0.1,0.4s0,0.3,0.1,0.4C268.6,38.4,268.7,38.5,268.9,38.5"/>
<path class="st17" d="M269.9,41.3c0,0.2,0,0.4-0.1,0.4c-0.1,0.1-0.2,0.1-0.4,0.1H267c0.2-0.5,0.5-0.9,0.8-1.2s0.7-0.5,1.1-0.5
	c0.3,0,0.5,0.1,0.7,0.3s0.3,0.4,0.3,0.7V41.3z M246.2,41.7c-0.2,0-0.3-0.1-0.4-0.2c-0.1-0.1-0.2-0.3-0.2-0.5s0.1-0.4,0.2-0.5
	c0.1-0.1,0.2-0.2,0.4-0.2s0.3,0.1,0.5,0.2v0.9c0,0.1,0,0.2,0,0.2C246.6,41.7,246.4,41.7,246.2,41.7 M274.9,41.3c0,0.2,0,0.3-0.1,0.4
	c-0.1,0.1-0.2,0.1-0.4,0.1h-0.2h-0.5h-0.4h-0.5h0.1h-0.5H272h-0.7c-0.4,0-0.5-0.2-0.5-0.5v-0.2c0-0.5-0.2-1-0.5-1.3
	c-0.4-0.4-0.8-0.6-1.4-0.6c-0.7,0-1.3,0.3-1.8,0.8s-0.8,1.1-1.1,1.8c-0.3,0-0.4-0.2-0.4-0.5v-1.5l-1,0.5v1c0,0.2,0,0.3-0.1,0.4
	c-0.1,0.1-0.2,0.1-0.4,0.1h-0.7H263h-0.5h-0.4h-0.5h-0.4h-0.5h-0.4h-0.5h-0.4h-0.5h-0.4H258h-0.4h-0.5h-0.4h-0.5H256h-0.5h-0.4h-0.5
	h-0.4h-0.5h-0.4h-0.5h-0.4H252h-0.4h-0.5h-0.4h-0.5h-0.4h-0.5h-0.4h-0.7c-0.2,0-0.3,0-0.4-0.1c-0.1-0.1-0.1-0.2-0.1-0.4v-2.5l-1,0.5
	v0.2c-0.2-0.1-0.3-0.1-0.5-0.1c-0.4,0-0.7,0.1-1,0.4c-0.3,0.3-0.5,0.7-0.5,1.2c0,0.4,0.1,0.8,0.3,1c0.3,0.4,0.7,0.5,1.1,0.5
	c0.3,0,0.6-0.1,0.8-0.3c0.3,0.3,0.6,0.5,1.1,0.5h0.8h0.4h0.5h0.4h0.5h0.4h0.5h0.4h0.5h0.4h0.5h0.4h0.5h0.4h0.5h0.4h0.5h0.4h0.5h0.4
	h0.5h0.4h0.5h0.4h0.5h0.4h0.5h0.4h0.5h0.4h0.5h0.4h0.5h0.4h0.8c0.4,0,0.7-0.1,0.9-0.3c0.2,0.2,0.6,0.3,0.9,0.3h3.3
	c0.4,0,0.7-0.1,0.9-0.3c0.2,0.2,0.6,0.3,0.9,0.3h0.8h0.4h0.5h-0.1h0.5h0.4h0.5h0.3c0.4,0,0.7-0.1,1-0.3c0.3-0.3,0.4-0.6,0.4-1.1v-2
	l-1,0.5L274.9,41.3L274.9,41.3z"/>
<path class="st17" d="M274.8,43.4c-0.2,0-0.3,0-0.4,0.1s-0.1,0.2-0.1,0.4s0,0.3,0.1,0.4c0.1,0.1,0.2,0.1,0.4,0.1
	c0.3,0,0.5-0.2,0.5-0.5c0-0.2,0-0.3-0.1-0.4C275.1,43.5,274.9,43.4,274.8,43.4"/>
<path class="st17" d="M286.8,38.5c0.3,0,0.5-0.2,0.5-0.5c0-0.2,0-0.3-0.1-0.4c-0.1-0.1-0.2-0.1-0.4-0.1c-0.3,0-0.5,0.2-0.5,0.5
	c0,0.2,0,0.3,0.1,0.4C286.6,38.4,286.7,38.5,286.8,38.5"/>
<path class="st17" d="M288,38.5c0.3,0,0.5-0.2,0.5-0.5c0-0.2,0-0.3-0.1-0.4c-0.1-0.1-0.2-0.1-0.4-0.1c-0.3,0-0.5,0.2-0.5,0.5
	c0,0.2,0,0.3,0.1,0.4C287.7,38.4,287.9,38.5,288,38.5"/>
<path class="st17" d="M287.8,41.4c-0.1,0.2-0.3,0.3-0.4,0.4c-0.2-0.1-0.3-0.2-0.4-0.4s-0.2-0.4-0.2-0.6c0-0.5,0.2-0.7,0.6-0.7
	c0.2,0,0.3,0.1,0.4,0.2c0.1,0.1,0.2,0.3,0.2,0.5C288,41,287.9,41.2,287.8,41.4 M291.4,41.2c0,0.2-0.1,0.4-0.1,0.5
	c-0.1,0.1-0.3,0.2-0.5,0.2l0,0h-0.5h-0.4h-1.2c0.2-0.3,0.3-0.6,0.3-0.9c0-0.4-0.1-0.8-0.3-1.1c-0.3-0.4-0.7-0.5-1.2-0.5
	c-0.4,0-0.8,0.1-1.1,0.4c-0.3,0.3-0.5,0.7-0.5,1.2c0,0.3,0.1,0.6,0.3,0.9H285h-0.4h-0.5h-0.4h-0.5h-0.4h-0.5h-0.4h-0.5H281h-0.5
	h-0.4h-0.5h-0.4h-0.5h-0.2c-0.2,0-0.3,0-0.4-0.1s-0.1-0.2-0.1-0.4v-3.7l-1,0.5v3.2c0,0.4,0.1,0.7,0.3,1c0.3,0.3,0.6,0.4,1.1,0.4h0.3
	h0.5h0.4h0.5h0.4h0.5h0.4h0.5h0.4h0.5h0.4h0.5h0.4h0.5h0.4h1.8c0.2,0,0.5,0,0.6-0.1c0.1,0,0.4,0.1,0.6,0.1h1.8h0.4h0.5h0.1
	c0.5,0,0.8-0.1,1.1-0.4c0.3-0.3,0.5-0.7,0.5-1.2v-3.6l-1,0.5L291.4,41.2L291.4,41.2z"/>
<polygon class="st17" points="293,38.1 293,42.8 293.9,42.8 293.9,37.6 "/>
<path d="M284.5,30.6c0.2,0.3,0.5,0.6,0.8,0.9c0.3,0.2,0.8,0.4,1.3,0.4s1-0.1,1.4-0.3c0.4-0.2,0.8-0.5,1-1c0,0,0,0,0.1,0l0,0
	c0,0,0,0,0.1,0c0.2,0.3,0.5,0.6,0.8,0.9s0.8,0.4,1.4,0.4h2.7v-6l0,0v-0.6c0-1.1-1.1-2.1-2.2-2.2v1l0,0v5.5c0,0,0,0.1-0.1,0.1h-0.3
	c-0.7,0-1.2-0.2-1.5-0.6s-0.4-0.8-0.4-1.4V26l0,0v-0.8c0-1.1-1.1-2.1-2.3-2.2v1l0,0v4.5v0.6v0.4l0,0l0,0l0,0h-0.4
	c-0.7,0-1.2-0.2-1.5-0.6s-0.4-0.8-0.4-1.4v-1.9l0,0V25c0-1.1-1.1-2.1-2.2-2.2v3v2.5c0,0.3-0.1,0.6-0.2,0.8c-0.1,0.2-0.4,0.3-0.7,0.3
	h-1h-0.7c-0.6,0-1.2-0.2-1.5-0.6c-0.2-0.2-0.3-0.6-0.4-1c-0.2-3.1-3.4-6.2-6.4-6.2c-1,0-2,1-2,2.1h1.6l0,0h0.1
	c2.2,0,4.4,2.2,4.4,4.4l0,0v0.1c0,0.4-0.1,0.7-0.2,0.9c-0.1,0.2-0.4,0.3-0.7,0.3h-3.7h-0.8c-1,0-2.1,1.1-2.1,2.2h1.8l0,0h4.9
	c0.5,0,1-0.1,1.5-0.4c0.4-0.2,0.8-0.5,1-0.9c0,0,0,0,0.1,0l0,0l0,0c0.2,0.3,0.5,0.6,0.9,0.9c0.3,0.2,0.8,0.4,1.3,0.4
	c0.1,0,0.1,0,0.2,0h1.8c0.6,0,1.1-0.1,1.6-0.3c0.4-0.2,0.8-0.5,1-0.9C284.4,30.6,284.4,30.6,284.5,30.6L284.5,30.6"/>
<path d="M252.8,29.6C252.8,29.6,252.8,29.7,252.8,29.6l-5,0.1c-0.3,0-0.5-0.1-0.7-0.4c-0.1-0.2-0.2-0.4-0.2-0.8v-0.1c0,0,0,0,0-0.1
	c0-2.1,2.1-4.3,4.2-4.3c0.1,0,0.3,0,0.4,0c0.3,0,0.7,0,0.9,0.2c0.2,0.1,0.3,0.5,0.3,0.8v4.6H252.8z M266.6,31.6
	c0.5-0.2,0.9-0.5,1.2-0.9c0.3-0.4,0.4-0.8,0.5-1.2v-0.1c0.1-0.5,0.1-0.9,0.1-1.3c0-0.1,0-0.2,0-0.3c-0.1-0.3-0.1-0.5-0.2-0.8
	s-0.3-0.6-0.5-0.8c-0.4-0.5-1-0.9-1.6-1.3c-0.1-0.1-0.2-0.1-0.3-0.2c-1-0.4-2.1-0.6-3.6-0.6h-2.5c0,0,0,0-0.1,0c0,0,0,0,0-0.1l3-2.6
	c0.5-0.4,0.7-1,0.8-1.7c0-0.6-0.1-1.1-0.4-1.4c-5.5,4.7-6.5,5.6-6.7,5.8v2.2h6.1c0.5,0,1.1,0,1.7,0.1s1.1,0.3,1.5,0.5
	c0.2,0.2,0.4,0.3,0.5,0.5c0.2,0.3,0.2,0.6,0.2,0.9c0,0.2,0,0.3-0.1,0.5c0,0.2-0.1,0.3-0.2,0.4l0,0c-0.1,0.2-0.4,0.4-0.7,0.4H255
	c0,0-0.1,0-0.1-0.1v-4.8c0-1.2-0.9-2.4-2.1-2.7c-0.5-0.1-1-0.2-1.4-0.2l0,0H251c-1.8,0-3.6,0.8-4.8,2.2c-0.5,0.5-0.7,1.1-1,1.9
	c-0.4,1.1-0.6,2.1-0.4,3.2c0.1,0.8,0.5,1.9,1.5,2.4c0.6,0.3,1.2,0.3,1.8,0.3h0.2h0.2h2.2c0,0,0.1,0,0.2,0c0.3,0,0.9,0,1.3,0
	c0.4,0,0.4,0,0.5,0l0,0l0,0l0,0l0,0l0,0l0,0c0,0.3-0.1,0.5-0.2,0.6c-0.2,0.3-0.4,0.5-0.7,0.7s-0.6,0.3-0.9,0.3c-0.3,0-0.6,0.1-1,0.1
	h-1.1H248c-1,0-2,1.1-2.1,2.1h2.8l0,0h1.1c0.7,0,1.3-0.1,1.9-0.2c0.6-0.2,1.2-0.4,1.6-0.8c0.5-0.3,0.8-0.8,1.1-1.3
	c0.2-0.4,0.4-0.9,0.4-1.5c0,0,0-0.1,0.1-0.1h7.8c0.2,0,0.4,0,0.6,0s0.4,0,0.6,0c0.1,0,0.2,0,0.3,0c0.1,0,0.2,0,0.2,0
	c0.1,0,0.3,0,0.4,0C265.5,31.8,266.1,31.8,266.6,31.6"/>
</svg>
