<?xml version="1.0" encoding="utf-8"?>
<!-- Generator: Adobe Illustrator 25.4.1, SVG Export Plug-In . SVG Version: 6.00 Build 0)  -->
<svg version="1.1" id="Layer_1" xmlns="http://www.w3.org/2000/svg" xmlns:xlink="http://www.w3.org/1999/xlink" x="0px" y="0px"
	 viewBox="0 0 499.1 276.8" style="enable-background:new 0 0 499.1 276.8;" xml:space="preserve">
<style type="text/css">
	.st0{fill:#B48E2E;}
	.st1{fill:#6A52A2;}
	.st2{fill:#FFFFFF;}
	.st3{fill:#CED48E;}
	.st4{fill:#84C991;}
	.st5{fill:#4D4D4F;}
</style>
<rect x="486.1" y="128" class="st0" width="1.6" height="0.4"/>
<path class="st0" d="M490.4,182.9v1.7h-0.4v-1.7H490.4z M490.4,179.4v1.7h-0.4v-1.7H490.4z M490.4,175.9v1.7h-0.4v-1.7H490.4z
	 M490.4,172.5v1.7h-0.4v-1.7H490.4z M490.4,169v1.7h-0.4V169H490.4z M490.4,165.5v1.7h-0.4v-1.7H490.4z M490.4,162.1v1.7h-0.4v-1.7
	H490.4z M490.4,158.6v1.7h-0.4v-1.7H490.4z M490.4,155.1v1.7h-0.4v-1.7H490.4z M490.4,151.7v1.7h-0.4v-1.7H490.4z M490.4,148.2v1.7
	h-0.4v-1.7H490.4z M490.4,144.7v1.7h-0.4v-1.7H490.4z M490.4,141.3v1.7h-0.4v-1.7H490.4z M490.4,137.8v1.7h-0.4v-1.7H490.4z
	 M490.4,134.3v1.7h-0.4v-1.7H490.4z M490.4,130.9v1.7h-0.4v-1.7H490.4z"/>
<rect x="486.4" y="187" class="st0" width="1.5" height="0.4"/>
<path class="st0" d="M484.9,187.4h-0.7V187h0.7V187.4z M490.4,186.3v0.9v0.2h-1V187l0.5,0l0-0.7H490.4L490.4,186.3z M489.3,128h0.8
	h0.2v1.1h-0.4l0-0.7l-0.6,0V128L489.3,128z M483.7,128h0.8v0.4h-0.8V128z"/>
<rect x="379.8" y="84.2" class="st1" width="100.7" height="18.9"/>
<path class="st2" d="M474.8,96.1c0.6,0,1-0.2,1.4-0.5c0.4-0.4,0.6-0.9,0.6-1.5v-4.8l-0.9,0.5v4.3c0,0.8-0.4,1.1-1.1,1.1h-0.6v0.9
	H474.8z M470.1,97.7c0,0.4,0.2,0.5,0.5,0.5c0.3,0,0.5-0.2,0.5-0.5c0-0.3-0.2-0.5-0.5-0.5C470.3,97.2,470.1,97.3,470.1,97.7z
	 M472.3,94.8c0.2-0.2,0.4-0.4,0.6-0.7v-0.5c-0.4-0.7-0.8-1.3-1.3-1.7c-0.5-0.4-1-0.6-1.6-0.6c-0.7,0-1.3,0.3-1.9,0.9v0.8
	c0.6-0.6,1.2-0.9,1.8-0.9c0.8,0,1.5,0.5,2.1,1.6c-0.8,0.9-2,1.4-3.4,1.4h-1.4v0.9h1.4c1.2,0,2.2-0.3,3.1-0.9c0.3,0.3,0.6,0.6,1,0.7
	c0.3,0.1,0.8,0.2,1.4,0.2h0.7v-0.9h-0.7C473.3,95.3,472.7,95.1,472.3,94.8z M466.1,94.2v-2.7l-0.9,0.5v2.2c0,0.7-0.3,1.1-1,1.1h-0.7
	v0.9h0.8c0.6,0,1-0.2,1.4-0.6c0.3,0.4,0.8,0.6,1.4,0.6h0.8v-0.9h-0.7C466.5,95.3,466.1,94.9,466.1,94.2z M466,89.8
	c0-0.3-0.2-0.5-0.5-0.5c-0.3,0-0.5,0.2-0.5,0.5c0,0.4,0.2,0.5,0.5,0.5C465.8,90.3,466,90.1,466,89.8z M461.5,94.2c0,0.1,0,0.2,0,0.3
	c-0.3,0.3-0.6,0.5-1,0.5c-0.3,0-0.6-0.1-0.8-0.4c-0.2-0.2-0.3-0.6-0.3-1c0-0.4,0.1-0.7,0.3-1c0.2-0.2,0.4-0.4,0.8-0.4
	c0.4,0,0.7,0.1,1,0.4V94.2z M462.4,94.2v-3.4l-0.9,0.5v0.5c-0.3-0.2-0.6-0.3-1-0.3c-0.5,0-0.9,0.2-1.3,0.5c-0.4,0.4-0.6,1-0.6,1.6
	c0,0.6,0.2,1,0.5,1.4c0.4,0.5,0.9,0.7,1.5,0.7c0.5,0,0.9-0.2,1.3-0.5c0.3,0.5,0.8,0.8,1.6,0.8h0.8v-0.9h-0.7
	C462.8,95.3,462.4,94.9,462.4,94.2z M462,89.6c0-0.3-0.2-0.5-0.5-0.5c-0.3,0-0.5,0.2-0.5,0.5c0,0.4,0.2,0.5,0.5,0.5
	C461.8,90.2,462,90,462,89.6z M460.7,89.6c0-0.3-0.2-0.5-0.5-0.5c-0.3,0-0.5,0.2-0.5,0.5c0,0.4,0.2,0.5,0.5,0.5
	C460.5,90.2,460.7,90,460.7,89.6z M454.9,96.1v-6.8l-0.9,0.5v6.3H454.9z M451.2,94.1c0,0.8-0.4,1.1-1.1,1.1h-0.7v-4.6l-0.9,0.5v4.1
	H447l-0.4,0.9h3.6c0.6,0,1-0.2,1.4-0.5c0.4-0.4,0.6-0.9,0.6-1.5v-4.8l-0.9,0.5V94.1z M436.6,96.1c0.6,0,1.1-0.2,1.4-0.6
	c0.3,0.4,0.8,0.6,1.4,0.6h0.7c0.6,0,1-0.2,1.3-0.6c0.3,0.4,0.8,0.6,1.4,0.6h0.7c0.5,0,0.9-0.2,1.3-0.5c0.4-0.3,0.5-0.8,0.5-1.4v-2.7
	l-0.9,0.5v2.2c0,0.7-0.3,1.1-1,1.1h-0.5c-0.7,0-1-0.4-1-1.1v-2.3l-0.9,0.5v1.8c0,0.7-0.3,1.1-1,1.1h-0.5c-0.7,0-1-0.4-1-1.1v-2
	l-0.9,0.5v1.5c0,0.7-0.3,1.1-1,1.1h-0.9v0.9H436.6z M434.5,94.2v-2.7l-0.9,0.5v2.2c0,0.7-0.3,1.1-1,1.1h-0.7v0.9h0.8
	c0.6,0,1-0.2,1.4-0.6c0.3,0.4,0.8,0.6,1.4,0.6h0.8v-0.9h-0.7C434.8,95.3,434.5,94.9,434.5,94.2z M434.9,89.8c0-0.3-0.2-0.5-0.5-0.5
	c-0.3,0-0.5,0.2-0.5,0.5c0,0.4,0.2,0.5,0.5,0.5C434.7,90.4,434.9,90.2,434.9,89.8z M433.6,89.8c0-0.3-0.2-0.5-0.5-0.5
	c-0.3,0-0.5,0.2-0.5,0.5c0,0.4,0.2,0.5,0.5,0.5C433.4,90.4,433.6,90.2,433.6,89.8z M430.8,94.2v-2.7l-0.9,0.5v2.2
	c0,0.7-0.3,1.1-1,1.1h-0.7v0.9h0.8c0.6,0,1-0.2,1.4-0.6c0.3,0.4,0.8,0.6,1.4,0.6h0.8v-0.9h-0.7C431.1,95.3,430.8,94.9,430.8,94.2z
	 M430.7,90.4c0.3,0,0.5-0.2,0.5-0.5c0-0.3-0.2-0.5-0.5-0.5c-0.3,0-0.5,0.2-0.5,0.5C430.2,90.2,430.3,90.4,430.7,90.4z M429.9,89.8
	c0-0.3-0.2-0.5-0.5-0.5c-0.3,0-0.5,0.2-0.5,0.5c0,0.4,0.2,0.5,0.5,0.5C429.7,90.4,429.9,90.2,429.9,89.8z M430.5,88.6
	c0-0.3-0.2-0.5-0.5-0.5c-0.3,0-0.5,0.2-0.5,0.5c0,0.3,0.2,0.5,0.5,0.5C430.3,89.1,430.5,88.9,430.5,88.6z M423.9,93.9
	c0-1.1,0.4-1.6,1.1-1.6c0.7,0,1.1,0.5,1.1,1.6c0,0.5-0.1,0.9-0.3,1.2c-0.2,0.3-0.5,0.4-0.8,0.4C424.3,95.5,423.9,94.9,423.9,93.9z
	 M427.1,94.2v-0.3c0-0.7-0.2-1.3-0.5-1.7c-0.4-0.5-0.9-0.7-1.6-0.7c-0.6,0-1.1,0.2-1.4,0.6c-0.4,0.4-0.6,1.1-0.6,1.9v0.3
	c0,0.7-0.3,1.1-1,1.1h-0.7v0.9h0.8c0.6,0,1-0.2,1.4-0.5c0.4,0.5,0.9,0.8,1.6,0.8c0.7,0,1.2-0.3,1.6-0.8c0.3,0.4,0.8,0.6,1.4,0.6h0.8
	v-0.9h-0.7C427.4,95.3,427.1,94.9,427.1,94.2z M421.9,96.1v-0.9h-0.7c-0.7,0-1-0.4-1-1.1v-4.9l-0.9,0.5v4.4c0,0.5,0.1,0.9,0.4,1.3
	c0.3,0.4,0.8,0.6,1.4,0.6H421.9z M417.4,91.6l-0.9,0.5v3.6c0,0.5-0.1,1-0.4,1.3c-0.3,0.3-0.6,0.5-1.1,0.5c-0.4,0-0.7-0.1-1.1-0.3
	v0.8c0.4,0.2,0.8,0.3,1.2,0.3c0.7,0,1.2-0.2,1.6-0.7c0.4-0.5,0.6-1.1,0.6-1.9V91.6z M411.5,96.1v-6.8l-0.9,0.5v6.3H411.5z
	 M406.2,97.1c-0.2-0.1-0.3-0.2-0.5-0.2c-0.2,0-0.4,0.1-0.5,0.2c-0.2,0.2-0.2,0.3-0.2,0.5c0,0.1,0,0.3,0.1,0.4h-0.3l-0.2,0.5h1.7
	l0.2-0.5h-1c-0.1-0.1-0.1-0.2-0.1-0.4c0-0.2,0.1-0.3,0.4-0.3c0.1,0,0.3,0.1,0.4,0.2V97.1z M407.8,94.1c0,0.8-0.4,1.1-1.1,1.1H406
	v-4.6l-0.9,0.5v4.1h-1.5l-0.4,0.9h3.6c0.6,0,1-0.2,1.4-0.5c0.4-0.4,0.6-0.9,0.6-1.5v-4.8l-0.9,0.5V94.1z M400.7,96.1
	c1,0,1.5-0.6,1.5-1.8c0-1.3-0.6-2.2-1.7-2.9l-0.4,0.7c0.8,0.5,1.3,1.2,1.3,2.1c0,0.3-0.1,0.6-0.2,0.7c-0.1,0.1-0.3,0.2-0.6,0.2h-1.9
	l-0.4,0.9H400.7z M397.2,96.1v-6.8l-0.9,0.5v6.3H397.2z M394.4,91.6l-0.9,0.5v3.6c0,0.5-0.1,1-0.4,1.3c-0.3,0.3-0.6,0.5-1.1,0.5
	c-0.4,0-0.7-0.1-1.1-0.3v0.8c0.4,0.2,0.8,0.3,1.2,0.3c0.7,0,1.2-0.2,1.6-0.7c0.4-0.5,0.6-1.1,0.6-1.9V91.6z M390,97.7
	c0-0.3-0.2-0.5-0.5-0.5c-0.3,0-0.5,0.2-0.5,0.5c0,0.4,0.2,0.5,0.5,0.5C389.8,98.2,390,98,390,97.7z M388.7,97.7
	c0-0.3-0.2-0.5-0.5-0.5c-0.3,0-0.5,0.2-0.5,0.5c0,0.4,0.2,0.5,0.5,0.5C388.5,98.2,388.7,98,388.7,97.7z M388.4,96.1
	c0.5,0,1-0.2,1.3-0.5c0.4-0.3,0.5-0.8,0.5-1.4v-2.7l-0.9,0.5v2.2c0,0.7-0.3,1.1-1,1.1h-0.7v0.9H388.4z M385.6,94.2
	c0,0.1,0,0.2,0,0.3c-0.3,0.3-0.6,0.5-1,0.5c-0.3,0-0.6-0.1-0.8-0.4c-0.2-0.2-0.3-0.6-0.3-1c0-0.4,0.1-0.7,0.3-1
	c0.2-0.2,0.4-0.4,0.8-0.4c0.4,0,0.7,0.1,1,0.4V94.2z M386.5,94.2v-3.4l-0.9,0.5v0.5c-0.3-0.2-0.6-0.3-1-0.3c-0.5,0-0.9,0.2-1.3,0.5
	c-0.4,0.4-0.6,1-0.6,1.6c0,0.6,0.2,1,0.5,1.4c0.4,0.5,0.9,0.7,1.5,0.7c0.5,0,0.9-0.2,1.3-0.5c0.3,0.5,0.8,0.8,1.6,0.8h0.8v-0.9h-0.7
	C386.8,95.3,386.5,94.9,386.5,94.2z M386.1,89.6c0-0.3-0.2-0.5-0.5-0.5c-0.3,0-0.5,0.2-0.5,0.5c0,0.4,0.2,0.5,0.5,0.5
	C385.9,90.2,386.1,90,386.1,89.6z M384.7,89.6c0-0.3-0.2-0.5-0.5-0.5c-0.3,0-0.5,0.2-0.5,0.5c0,0.4,0.2,0.5,0.5,0.5
	C384.6,90.2,384.7,90,384.7,89.6z"/>
<rect x="375.3" y="122.2" class="st3" width="105.2" height="20.5"/>
<path class="st2" d="M472.9,135.9c0.6,0,1-0.2,1.4-0.5c0.4-0.4,0.6-0.9,0.6-1.5v-4.8l-0.9,0.5v4.3c0,0.8-0.4,1.1-1.1,1.1h-0.6v0.9
	H472.9z M468.3,137.4c0,0.4,0.2,0.5,0.5,0.5c0.3,0,0.5-0.2,0.5-0.5c0-0.3-0.2-0.5-0.5-0.5C468.5,136.9,468.3,137.1,468.3,137.4z
	 M470.5,134.5c0.2-0.2,0.4-0.4,0.6-0.7v-0.5c-0.4-0.7-0.8-1.3-1.3-1.7c-0.5-0.4-1-0.6-1.6-0.6c-0.7,0-1.3,0.3-1.9,0.9v0.8
	c0.6-0.6,1.2-0.9,1.8-0.9c0.8,0,1.5,0.5,2.1,1.6c-0.8,0.9-2,1.4-3.4,1.4h-1.4v0.9h1.4c1.2,0,2.2-0.3,3.1-0.9c0.3,0.3,0.6,0.6,1,0.7
	c0.3,0.1,0.8,0.2,1.4,0.2h0.7V135h-0.7C471.4,135,470.8,134.8,470.5,134.5z M464.3,134v-2.7l-0.9,0.5v2.2c0,0.7-0.3,1.1-1,1.1h-0.7
	v0.9h0.8c0.6,0,1-0.2,1.4-0.6c0.3,0.4,0.8,0.6,1.4,0.6h0.8V135h-0.7C464.6,135,464.3,134.7,464.3,134z M464.2,129.5
	c0-0.3-0.2-0.5-0.5-0.5c-0.3,0-0.5,0.2-0.5,0.5c0,0.4,0.2,0.5,0.5,0.5C464,130,464.2,129.8,464.2,129.5z M459.7,134
	c0,0.1,0,0.2,0,0.3c-0.3,0.3-0.6,0.5-1,0.5c-0.3,0-0.6-0.1-0.8-0.4c-0.2-0.2-0.3-0.6-0.3-1c0-0.4,0.1-0.7,0.3-1
	c0.2-0.2,0.4-0.4,0.8-0.4c0.4,0,0.7,0.1,1,0.4V134z M460.6,134v-3.4l-0.9,0.5v0.5c-0.3-0.2-0.6-0.3-1-0.3c-0.5,0-0.9,0.2-1.3,0.5
	c-0.4,0.4-0.6,1-0.6,1.6c0,0.6,0.2,1,0.5,1.4c0.4,0.5,0.9,0.7,1.5,0.7c0.5,0,0.9-0.2,1.3-0.5c0.3,0.5,0.8,0.8,1.6,0.8h0.8V135h-0.7
	C460.9,135,460.6,134.7,460.6,134z M460.1,129.4c0-0.3-0.2-0.5-0.5-0.5c-0.3,0-0.5,0.2-0.5,0.5c0,0.4,0.2,0.5,0.5,0.5
	C460,129.9,460.1,129.7,460.1,129.4z M458.8,129.4c0-0.3-0.2-0.5-0.5-0.5c-0.3,0-0.5,0.2-0.5,0.5c0,0.4,0.2,0.5,0.5,0.5
	C458.6,129.9,458.8,129.7,458.8,129.4z M453.8,135.9v-6.8l-0.9,0.5v6.3H453.8z M449.2,135.9c0.6,0,1-0.2,1.4-0.5
	c0.4-0.4,0.6-0.9,0.6-1.5v-4.8l-0.9,0.5v4.3c0,0.8-0.4,1.1-1.1,1.1h-0.6v0.9H449.2z M447.5,134v-2.7l-0.9,0.5v2.2
	c0,0.7-0.3,1.1-1,1.1h-0.7v0.9h0.8c0.6,0,1-0.2,1.4-0.6c0.3,0.4,0.8,0.6,1.4,0.6h0.8V135h-0.7C447.8,135,447.5,134.7,447.5,134z
	 M447.9,129.6c0-0.3-0.2-0.5-0.5-0.5c-0.3,0-0.5,0.2-0.5,0.5c0,0.4,0.2,0.5,0.5,0.5C447.7,130.1,447.9,129.9,447.9,129.6z
	 M446.5,129.6c0-0.3-0.2-0.5-0.5-0.5c-0.3,0-0.5,0.2-0.5,0.5c0,0.4,0.2,0.5,0.5,0.5C446.4,130.1,446.5,129.9,446.5,129.6z
	 M442.3,135.9c0.5,0,0.9-0.2,1.2-0.6c0.3,0.4,0.8,0.6,1.4,0.6h0.7V135h-0.6c-0.4,0-0.7-0.1-0.8-0.3c-0.2-0.2-0.3-0.5-0.3-0.9
	c0-1.1-0.6-2-1.7-2.7l-0.5,0.8c0.9,0.5,1.3,1.2,1.3,2.1c0,0.3-0.1,0.6-0.2,0.7c-0.1,0.1-0.3,0.2-0.6,0.2h-1.9l-0.4,0.9H442.3z
	 M438.1,134c0,0.7-0.3,1-1,1c-0.3,0-0.6-0.1-0.8-0.4c-0.2-0.3-0.3-0.6-0.3-1.1c0-0.5,0.1-0.8,0.3-1.1c0.2-0.3,0.5-0.4,0.8-0.4
	c0.6,0,0.9,0.4,0.9,1.1V134z M437.1,135.9c0.5,0,1-0.2,1.3-0.5c0.3-0.3,0.5-0.8,0.5-1.4v-1c0-0.5-0.1-1-0.4-1.3
	c-0.3-0.4-0.8-0.6-1.4-0.6c-0.6,0-1,0.2-1.4,0.6c-0.4,0.4-0.6,1-0.6,1.8c0,0.6,0.2,1.1,0.5,1.5h-1.9v0.9H437.1z M438.3,129.6
	c0-0.3-0.2-0.5-0.5-0.5c-0.3,0-0.5,0.2-0.5,0.5c0,0.4,0.2,0.5,0.5,0.5C438.2,130.1,438.3,129.9,438.3,129.6z M437,129.6
	c0-0.3-0.2-0.5-0.5-0.5c-0.3,0-0.5,0.2-0.5,0.5c0,0.4,0.2,0.5,0.5,0.5C436.8,130.1,437,129.9,437,129.6z M432,137.4
	c0,0.3,0.2,0.5,0.5,0.5c0.3,0,0.5-0.2,0.5-0.5c0-0.4-0.2-0.5-0.5-0.5C432.2,136.9,432,137.1,432,137.4z M430.7,137.4
	c0,0.3,0.2,0.5,0.5,0.5c0.3,0,0.5-0.2,0.5-0.5c0-0.4-0.2-0.5-0.5-0.5C430.8,136.9,430.7,137.1,430.7,137.4z M432.7,134v-2.7
	l-0.9,0.5v2.2c0,0.7-0.3,1.1-1,1.1H430v0.9h0.8c0.6,0,1-0.2,1.4-0.6c0.3,0.4,0.8,0.6,1.4,0.6h0.8V135h-0.7
	C433,135,432.7,134.7,432.7,134z M428.1,135c-0.5,0-0.9-0.1-1.2-0.3c-0.3-0.2-0.5-0.6-0.5-1.2c0-0.5,0.1-0.8,0.3-1.1
	c0.2-0.3,0.5-0.4,0.8-0.4c0.6,0,0.9,0.4,0.9,1.1v1.9L428.1,135z M430.7,135.9V135h-1.3v-2c0-0.5-0.1-1-0.4-1.3
	c-0.3-0.4-0.8-0.6-1.4-0.6c-0.6,0-1.1,0.2-1.4,0.6c-0.4,0.4-0.6,1-0.6,1.8c0,1.4,0.9,2.2,2.6,2.3l0.3,0c-0.2,0.8-0.9,1.2-2.2,1.2
	c-0.7,0-1.3-0.2-1.7-0.5c-0.4-0.4-0.6-0.8-0.6-1.5c0-0.6,0.2-1.1,0.5-1.6l-0.9,0.2c-0.3,0.4-0.4,0.9-0.4,1.5c0,0.7,0.2,1.3,0.6,1.8
	c0.6,0.6,1.4,1,2.5,1c1.9,0,2.9-0.7,3.1-2H430.7z M428.6,129.6c0-0.3-0.2-0.5-0.5-0.5c-0.3,0-0.5,0.2-0.5,0.5c0,0.4,0.2,0.5,0.5,0.5
	C428.5,130.1,428.6,129.9,428.6,129.6z M427.3,129.6c0-0.3-0.2-0.5-0.5-0.5c-0.3,0-0.5,0.2-0.5,0.5c0,0.4,0.2,0.5,0.5,0.5
	C427.1,130.1,427.3,129.9,427.3,129.6z M418.9,134.5c-0.2,0.3-0.5,0.4-0.9,0.4c-0.3,0-0.6-0.1-0.8-0.4c-0.2-0.3-0.3-0.6-0.3-1.1
	c0-0.4,0.1-0.8,0.3-1.1c0.2-0.3,0.5-0.4,0.8-0.4c0.6,0,0.9,0.4,0.9,1.1V134.5z M418.5,136.6c-0.2,0.3-0.6,0.4-1,0.4
	c-0.4,0-0.7-0.1-1.1-0.3v0.8c0.4,0.2,0.8,0.3,1.2,0.3c0.7,0,1.2-0.2,1.6-0.7c0.4-0.5,0.6-1.1,0.6-1.9V133c0-0.5-0.1-1-0.4-1.3
	c-0.3-0.4-0.8-0.6-1.4-0.6c-0.6,0-1.1,0.2-1.4,0.6c-0.4,0.4-0.6,1-0.6,1.7c0,0.6,0.2,1.1,0.5,1.5c0.4,0.5,0.8,0.7,1.5,0.7
	c0.4,0,0.7-0.1,1-0.2C418.9,136,418.7,136.4,418.5,136.6z M414.5,135.9v-6.8l-0.9,0.5v6.3H414.5z M409.9,135.9c0.6,0,1-0.2,1.4-0.5
	c0.4-0.4,0.6-0.9,0.6-1.5v-4.8l-0.9,0.5v4.3c0,0.8-0.4,1.1-1.1,1.1h-0.6v0.9H409.9z M405.1,133.6c0-1.1,0.4-1.6,1.1-1.6
	c0.7,0,1.1,0.5,1.1,1.6c0,0.5-0.1,0.9-0.3,1.2c-0.2,0.3-0.5,0.4-0.8,0.4C405.4,135.2,405.1,134.7,405.1,133.6z M408.2,134v-0.3
	c0-0.7-0.2-1.3-0.5-1.7c-0.4-0.5-0.9-0.7-1.6-0.7c-0.6,0-1.1,0.2-1.4,0.6c-0.4,0.4-0.6,1.1-0.6,1.9v0.3c0,0.7-0.3,1.1-1,1.1h-0.7
	v0.9h0.8c0.6,0,1-0.2,1.4-0.5c0.4,0.5,0.9,0.8,1.6,0.8c0.7,0,1.2-0.3,1.6-0.8c0.3,0.4,0.8,0.6,1.4,0.6h0.8V135h-0.7
	C408.5,135,408.2,134.7,408.2,134z M400.6,134.5c0.2-0.2,0.4-0.4,0.6-0.7v-0.5c-0.4-0.7-0.8-1.3-1.3-1.7c-0.5-0.4-1-0.6-1.6-0.6
	c-0.7,0-1.3,0.3-1.9,0.9v0.8c0.6-0.6,1.2-0.9,1.8-0.9c0.8,0,1.5,0.5,2.1,1.6c-0.8,0.9-2,1.4-3.4,1.4h-1.4v0.9h1.4
	c1.2,0,2.2-0.3,3.1-0.9c0.3,0.3,0.6,0.6,1,0.7c0.3,0.1,0.8,0.2,1.4,0.2h0.7V135h-0.7C401.6,135,401,134.8,400.6,134.5z M399.2,129.5
	c0-0.3-0.2-0.5-0.5-0.5c-0.3,0-0.5,0.2-0.5,0.5c0,0.4,0.2,0.5,0.5,0.5C399,130,399.2,129.8,399.2,129.5z M396.1,135.9V135h-0.7
	c-0.7,0-1-0.4-1-1.1v-4.9l-0.9,0.5v4.4c0,0.5,0.1,0.9,0.4,1.3c0.3,0.4,0.8,0.6,1.4,0.6H396.1z M390.9,134.8
	c-0.1,0.1-0.3,0.2-0.6,0.2h-3.8v-0.2c0.3-0.7,0.6-1.3,1-1.8c0.6-0.7,1.2-1,2-1c0.4,0,0.8,0.1,1.1,0.4c0.3,0.3,0.5,0.8,0.5,1.3v0.3
	C391,134.4,391,134.7,390.9,134.8z M386.5,129.1l-0.9,0.5v5.3l0,0.1h-2v0.9h6.8c0.5,0,0.9-0.2,1.2-0.5c0.3-0.3,0.4-0.8,0.4-1.3v-0.3
	c0-0.7-0.2-1.3-0.6-1.7c-0.5-0.6-1.1-0.8-1.9-0.8c-1.2,0-2.2,0.6-3,1.8V129.1z M382.5,134.2v-2.9l0,0v0l-0.9,0.5v3.6
	c0,0.5-0.1,0.9-0.4,1.3c-0.3,0.3-0.6,0.5-1.1,0.5c-0.4,0-0.7-0.1-1.1-0.3v0.8c0.4,0.2,0.8,0.3,1.2,0.3c0.6,0,1.1-0.2,1.5-0.6
	c0.4-0.4,0.7-1,0.7-1.7c0.3,0.1,0.6,0.2,0.9,0.2h0.8V135h-0.7C382.9,135,382.5,134.7,382.5,134.2z"/>
<rect x="379.8" y="147.4" class="st1" width="100.7" height="18.9"/>
<path class="st2" d="M476.4,162.8l0.2-0.5h-1c-0.1-0.1-0.1-0.2-0.1-0.4c0-0.2,0.1-0.3,0.4-0.3c0.1,0,0.3,0.1,0.4,0.2v-0.5
	c-0.2-0.1-0.3-0.2-0.5-0.2c-0.2,0-0.4,0.1-0.5,0.2c-0.2,0.2-0.2,0.3-0.2,0.5c0,0.1,0,0.3,0.1,0.4h-0.3l-0.2,0.5H476.4z M476.1,160.2
	v-6.8l-0.9,0.5v6.3H476.1z M472.1,160.2c1,0,1.5-0.6,1.5-1.8c0-1.3-0.6-2.2-1.7-2.9l-0.4,0.7c0.8,0.5,1.3,1.2,1.3,2.1
	c0,0.3-0.1,0.6-0.2,0.7c-0.1,0.1-0.3,0.2-0.6,0.2h-1.9l-0.4,0.9H472.1z M468.7,160.2v-6.8l-0.9,0.5v6.3H468.7z M466,155.7l-0.9,0.5
	v3.6c0,0.5-0.1,0.9-0.4,1.2c-0.3,0.3-0.6,0.5-1,0.5c-0.4,0-0.7-0.1-1.1-0.3v0.8c0.4,0.2,0.8,0.3,1.2,0.3c0.7,0,1.2-0.2,1.6-0.7
	c0.4-0.5,0.6-1.1,0.6-1.9V155.7z M460.1,159c-0.2-0.2-0.3-0.5-0.3-0.9c0-0.8,0.4-1.4,1.1-1.8c0.7,0.4,1.1,1,1.1,1.8
	c0,0.4-0.1,0.7-0.3,0.9c-0.2,0.2-0.4,0.3-0.8,0.3h-0.2C460.6,159.4,460.3,159.3,460.1,159z M461,160.2c0.6,0,1-0.2,1.4-0.5
	c0.4-0.4,0.6-0.9,0.6-1.6c0-0.6-0.2-1.1-0.5-1.5c-0.3-0.5-0.9-0.9-1.5-1.1c-0.6,0.2-1.1,0.6-1.5,1c-0.3,0.5-0.5,1-0.5,1.6
	c0,0.6,0.2,1,0.5,1.4c0.4,0.4,0.9,0.6,1.5,0.6H461z M462.1,153.8c0-0.3-0.2-0.5-0.5-0.5c-0.3,0-0.5,0.2-0.5,0.5
	c0,0.4,0.2,0.5,0.5,0.5C461.9,154.3,462.1,154.1,462.1,153.8z M460.7,153.8c0-0.3-0.2-0.5-0.5-0.5c-0.3,0-0.5,0.2-0.5,0.5
	c0,0.4,0.2,0.5,0.5,0.5C460.6,154.3,460.7,154.1,460.7,153.8z M455.4,160.2v-6.8l-0.9,0.5v6.3H455.4z M450.8,160.2
	c0.6,0,1-0.2,1.4-0.5c0.4-0.4,0.6-0.9,0.6-1.5v-4.8l-0.9,0.5v4.3c0,0.8-0.4,1.1-1.1,1.1h-0.6v0.9H450.8z M446,158
	c0-1.1,0.4-1.6,1.1-1.6c0.7,0,1.1,0.5,1.1,1.6c0,0.5-0.1,0.9-0.3,1.2c-0.2,0.3-0.5,0.4-0.8,0.4C446.3,159.6,446,159,446,158z
	 M449.1,158.3V158c0-0.7-0.2-1.3-0.5-1.7c-0.4-0.5-0.9-0.7-1.6-0.7c-0.6,0-1.1,0.2-1.4,0.6c-0.4,0.4-0.6,1.1-0.6,1.9v0.3
	c0,0.7-0.3,1.1-1,1.1h-0.7v0.9h0.8c0.6,0,1-0.2,1.4-0.5c0.3,0.5,0.9,0.8,1.6,0.8c0.7,0,1.2-0.3,1.6-0.8c0.3,0.4,0.8,0.6,1.4,0.6h0.8
	v-0.9h-0.7C449.4,159.4,449.1,159,449.1,158.3z M442.3,158.5v-2.9l0,0v0l-0.9,0.5v3.6c0,0.5-0.1,0.9-0.4,1.2c-0.3,0.3-0.6,0.5-1,0.5
	c-0.4,0-0.7-0.1-1.1-0.3v0.8c0.4,0.2,0.8,0.3,1.2,0.3c0.6,0,1.1-0.2,1.4-0.6c0.4-0.4,0.7-1,0.7-1.7c0.3,0.1,0.6,0.2,0.9,0.2h0.8
	v-0.9h-0.7C442.7,159.4,442.3,159.1,442.3,158.5z M438.2,160.2v-6.8l-0.9,0.5v6.3H438.2z M433.8,161.8c0-0.3-0.2-0.5-0.5-0.5
	c-0.3,0-0.5,0.2-0.5,0.5c0,0.3,0.2,0.5,0.5,0.5C433.7,162.3,433.8,162.1,433.8,161.8z M431.7,160.2c1.8,0,3.2-0.7,4.3-2v-0.5
	c-0.4-0.7-0.8-1.3-1.3-1.7c-0.5-0.4-1-0.6-1.6-0.6c-0.7,0-1.3,0.3-1.9,0.9v0.8c0.6-0.6,1.2-0.9,1.8-0.9c0.8,0,1.5,0.5,2.1,1.6
	c-0.8,0.9-1.9,1.4-3.4,1.4h-1.4v0.9H431.7z M426.9,156.4c0.7,0,1.3,0.3,1.8,1c-0.6,0.9-1.2,1.5-1.8,1.8c-0.5-0.3-1.1-0.9-1.8-1.7
	C425.6,156.7,426.2,156.4,426.9,156.4z M428,159.4c0.5-0.4,1-1,1.6-1.8v-0.4c-0.3-0.5-0.7-0.9-1.2-1.2c-0.5-0.3-0.9-0.4-1.4-0.4
	c-0.5,0-0.9,0.1-1.4,0.4c-0.5,0.3-0.9,0.7-1.2,1.1v0.5c0.5,0.8,1,1.4,1.6,1.8h-0.1h-2.8v0.9h2.8c0.4,0,0.8-0.1,1.1-0.2
	c0.4,0.1,0.7,0.2,1.1,0.2h2.9v-0.9h-2.8H428z M420.9,158.3c0,0.1,0,0.2,0,0.3c-0.3,0.3-0.6,0.5-1,0.5c-0.3,0-0.6-0.1-0.8-0.4
	c-0.2-0.2-0.3-0.6-0.3-1c0-0.4,0.1-0.7,0.3-1c0.2-0.2,0.4-0.4,0.8-0.4c0.4,0,0.7,0.1,1,0.4V158.3z M421.8,158.3V155l-0.9,0.5v0.5
	c-0.3-0.2-0.6-0.3-1-0.3c-0.5,0-0.9,0.2-1.3,0.5c-0.4,0.4-0.6,1-0.6,1.6c0,0.6,0.2,1,0.5,1.4c0.4,0.5,0.9,0.7,1.5,0.7
	c0.5,0,0.9-0.2,1.2-0.5c0.3,0.5,0.8,0.8,1.6,0.8h0.8v-0.9h-0.7C422.2,159.4,421.8,159,421.8,158.3z M421.4,153.8
	c0-0.3-0.2-0.5-0.5-0.5c-0.3,0-0.5,0.2-0.5,0.5c0,0.4,0.2,0.5,0.5,0.5C421.3,154.3,421.4,154.1,421.4,153.8z M420.1,153.8
	c0-0.3-0.2-0.5-0.5-0.5c-0.3,0-0.5,0.2-0.5,0.5c0,0.4,0.2,0.5,0.5,0.5C419.9,154.3,420.1,154.1,420.1,153.8z M415,160.2v-6.8
	l-0.9,0.5v6.3H415z M410.3,160.2c0.6,0,1-0.2,1.4-0.5c0.4-0.4,0.6-0.9,0.6-1.5v-4.8l-0.9,0.5v4.3c0,0.8-0.4,1.1-1.1,1.1h-0.6v0.9
	H410.3z M407.1,160.2c0.5,0,0.9-0.2,1.2-0.6c0.3,0.4,0.8,0.6,1.4,0.6h0.7v-0.9h-0.6c-0.4,0-0.7-0.1-0.8-0.3
	c-0.2-0.2-0.3-0.5-0.3-0.9c0-1.1-0.6-2-1.7-2.7l-0.5,0.8c0.9,0.5,1.3,1.2,1.3,2.1c0,0.3-0.1,0.6-0.2,0.7c-0.1,0.1-0.3,0.2-0.6,0.2
	h-1.9l-0.4,0.9H407.1z M403.7,160.2v-6.8l-0.9,0.5v6.3H403.7z M397.2,160.2c1.8,0,3.2-0.7,4.3-2v-0.5c-0.4-0.7-0.8-1.3-1.3-1.7
	c-0.5-0.4-1-0.6-1.6-0.6c-0.7,0-1.3,0.3-1.9,0.9v0.8c0.6-0.6,1.2-0.9,1.8-0.9c0.8,0,1.5,0.5,2.1,1.6c-0.8,0.9-1.9,1.4-3.4,1.4h-1.4
	v0.9H397.2z M399.4,153.9c0-0.3-0.2-0.5-0.5-0.5c-0.3,0-0.5,0.2-0.5,0.5c0,0.4,0.2,0.5,0.5,0.5C399.3,154.4,399.4,154.2,399.4,153.9
	z M394.9,159.1c-0.2-0.2-0.2-0.5-0.2-0.9v-4.8l-0.9,0.5v4.3c0,0.8-0.4,1.1-1.1,1.1h-0.6v0.9h0.6c0.6,0,1.1-0.2,1.4-0.6
	c0.3,0.4,0.8,0.6,1.4,0.6h0.8v-0.9h-0.7C395.3,159.4,395,159.3,394.9,159.1z M390.3,161.8c0,0.3,0.2,0.5,0.5,0.5
	c0.3,0,0.5-0.2,0.5-0.5c0-0.4-0.2-0.5-0.5-0.5C390.5,161.3,390.3,161.4,390.3,161.8z M389,161.8c0,0.3,0.2,0.5,0.5,0.5
	c0.3,0,0.5-0.2,0.5-0.5c0-0.4-0.2-0.5-0.5-0.5C389.2,161.3,389,161.4,389,161.8z M391,158.3v-2.7l-0.9,0.5v2.2c0,0.7-0.3,1.1-1,1.1
	h-0.7v0.9h0.8c0.6,0,1-0.2,1.4-0.6c0.3,0.4,0.8,0.6,1.4,0.6h0.8v-0.9H392C391.3,159.4,391,159,391,158.3z M386.4,158.3
	c0,0.1,0,0.2,0,0.3c-0.3,0.3-0.6,0.5-1,0.5c-0.3,0-0.6-0.1-0.8-0.4c-0.2-0.2-0.3-0.6-0.3-1c0-0.4,0.1-0.7,0.3-1
	c0.2-0.2,0.4-0.4,0.8-0.4c0.4,0,0.7,0.1,1,0.4V158.3z M387.3,158.3V155l-0.9,0.5v0.5c-0.3-0.2-0.6-0.3-1-0.3c-0.5,0-0.9,0.2-1.3,0.5
	c-0.4,0.4-0.6,1-0.6,1.6c0,0.6,0.2,1,0.5,1.4c0.4,0.5,0.9,0.7,1.5,0.7c0.5,0,0.9-0.2,1.2-0.5c0.3,0.5,0.8,0.8,1.6,0.8h0.8v-0.9h-0.7
	C387.6,159.4,387.3,159,387.3,158.3z M386.9,153.8c0-0.3-0.2-0.5-0.5-0.5c-0.3,0-0.5,0.2-0.5,0.5c0,0.4,0.2,0.5,0.5,0.5
	C386.7,154.3,386.9,154.1,386.9,153.8z M385.5,153.8c0-0.3-0.2-0.5-0.5-0.5c-0.3,0-0.5,0.2-0.5,0.5c0,0.4,0.2,0.5,0.5,0.5
	C385.4,154.3,385.5,154.1,385.5,153.8z"/>
<rect x="412.5" y="172.5" class="st1" width="68" height="28.1"/>
<path class="st2" d="M474.9,186.9l0.2-0.4h-0.9c-0.1-0.1-0.1-0.2-0.1-0.4c0-0.2,0.1-0.3,0.4-0.3c0.1,0,0.3,0.1,0.4,0.2v-0.5
	c-0.2-0.1-0.3-0.2-0.5-0.2c-0.2,0-0.4,0.1-0.5,0.2c-0.2,0.1-0.2,0.3-0.2,0.5c0,0.1,0,0.3,0.1,0.4h-0.3l-0.2,0.4H474.9z M474.7,184.3
	v-6.6l-0.9,0.5v6.2H474.7z M470.7,184.3c1,0,1.5-0.6,1.5-1.7c0-1.2-0.6-2.2-1.7-2.8l-0.4,0.7c0.8,0.5,1.2,1.2,1.2,2.1
	c0,0.3-0.1,0.6-0.2,0.7c-0.1,0.1-0.3,0.2-0.6,0.2h-1.8l-0.4,0.8H470.7z M467.4,184.3v-6.6l-0.9,0.5v6.2H467.4z M464.8,179.9
	l-0.9,0.5v3.5c0,0.5-0.1,0.9-0.4,1.2c-0.2,0.3-0.6,0.4-1,0.4c-0.4,0-0.7-0.1-1.1-0.3v0.8c0.4,0.2,0.8,0.3,1.2,0.3
	c0.6,0,1.2-0.2,1.5-0.7c0.4-0.5,0.6-1.1,0.6-1.9V179.9z M459,183.2c-0.2-0.2-0.3-0.5-0.3-0.9c0-0.8,0.4-1.4,1.1-1.8
	c0.7,0.4,1.1,0.9,1.1,1.8c0,0.4-0.1,0.6-0.3,0.9c-0.2,0.2-0.4,0.3-0.7,0.3h-0.2C459.4,183.5,459.1,183.4,459,183.2z M459.8,184.3
	c0.5,0,1-0.2,1.3-0.5c0.4-0.4,0.6-0.9,0.6-1.5c0-0.6-0.2-1.1-0.5-1.5c-0.3-0.5-0.8-0.8-1.5-1.1c-0.6,0.2-1.1,0.5-1.5,1
	c-0.3,0.4-0.5,1-0.5,1.6c0,0.6,0.2,1,0.5,1.4c0.4,0.4,0.8,0.6,1.5,0.6H459.8z M460.9,178c0-0.3-0.2-0.5-0.5-0.5
	c-0.3,0-0.5,0.2-0.5,0.5c0,0.3,0.2,0.5,0.5,0.5C460.7,178.5,460.9,178.4,460.9,178z M459.5,178c0-0.3-0.2-0.5-0.5-0.5
	c-0.3,0-0.5,0.2-0.5,0.5c0,0.3,0.2,0.5,0.5,0.5C459.4,178.5,459.5,178.4,459.5,178z M454.3,184.3v-6.6l-0.9,0.5v6.2H454.3z
	 M449.8,184.3c0.6,0,1-0.2,1.3-0.5c0.4-0.4,0.5-0.8,0.5-1.5v-4.7l-0.9,0.5v4.2c0,0.7-0.4,1.1-1.1,1.1h-0.5v0.8H449.8z M445.1,182.1
	c0-1,0.4-1.6,1.1-1.6c0.7,0,1.1,0.5,1.1,1.6c0,0.5-0.1,0.9-0.3,1.2c-0.2,0.3-0.5,0.4-0.8,0.4C445.4,183.7,445.1,183.2,445.1,182.1z
	 M448.1,182.5v-0.3c0-0.7-0.2-1.2-0.5-1.7c-0.4-0.5-0.9-0.7-1.5-0.7c-0.6,0-1,0.2-1.4,0.6c-0.4,0.4-0.6,1-0.6,1.8v0.3
	c0,0.7-0.3,1-1,1h-0.7v0.8h0.8c0.6,0,1-0.2,1.3-0.5c0.3,0.5,0.9,0.7,1.5,0.7c0.7,0,1.2-0.3,1.5-0.8c0.3,0.4,0.8,0.5,1.3,0.5h0.8
	v-0.8h-0.7C448.5,183.5,448.1,183.2,448.1,182.5z M441.4,182.7v-2.8l0,0v0l-0.9,0.5v3.5c0,0.5-0.1,0.9-0.4,1.2
	c-0.2,0.3-0.6,0.4-1,0.4c-0.4,0-0.7-0.1-1.1-0.3v0.8c0.4,0.2,0.8,0.3,1.2,0.3c0.6,0,1-0.2,1.4-0.6c0.4-0.4,0.6-0.9,0.7-1.6
	c0.3,0.1,0.6,0.2,0.9,0.2h0.8v-0.8h-0.7C441.8,183.5,441.5,183.2,441.4,182.7z M437.5,184.3v-6.6l-0.9,0.5v6.2H437.5z M433.2,185.9
	c0-0.3-0.2-0.5-0.5-0.5c-0.3,0-0.5,0.2-0.5,0.5c0,0.3,0.2,0.5,0.5,0.5C433,186.4,433.2,186.2,433.2,185.9z M431.1,184.3
	c1.8,0,3.2-0.6,4.2-1.9v-0.5c-0.4-0.7-0.8-1.3-1.3-1.6c-0.5-0.4-1-0.6-1.5-0.6c-0.6,0-1.3,0.3-1.8,0.9v0.8c0.6-0.6,1.2-0.9,1.7-0.9
	c0.8,0,1.5,0.5,2.1,1.6c-0.8,0.9-1.9,1.4-3.3,1.4h-1.4v0.8H431.1z M426.4,180.6c0.7,0,1.2,0.3,1.8,0.9c-0.6,0.9-1.2,1.4-1.7,1.7
	c-0.5-0.3-1.1-0.8-1.7-1.7C425.1,180.9,425.7,180.6,426.4,180.6z M427.4,183.5c0.5-0.4,1-1,1.5-1.8v-0.4c-0.3-0.5-0.7-0.9-1.2-1.1
	c-0.5-0.3-0.9-0.4-1.4-0.4c-0.5,0-0.9,0.1-1.4,0.4c-0.5,0.3-0.8,0.6-1.2,1.1v0.5c0.5,0.8,1,1.4,1.5,1.8h-0.1h-2.7v0.8h2.8
	c0.4,0,0.7-0.1,1.1-0.2c0.4,0.1,0.7,0.2,1.1,0.2h2.8v-0.8h-2.7H427.4z M420.5,182.5c0,0.1,0,0.2,0,0.3c-0.2,0.3-0.6,0.5-0.9,0.5
	c-0.3,0-0.6-0.1-0.8-0.4c-0.2-0.2-0.3-0.6-0.3-1c0-0.4,0.1-0.7,0.3-1c0.2-0.2,0.4-0.4,0.7-0.4c0.4,0,0.7,0.1,0.9,0.4V182.5z
	 M421.4,182.5v-3.3l-0.9,0.5v0.4c-0.3-0.2-0.6-0.3-1-0.3c-0.5,0-0.9,0.2-1.3,0.5c-0.4,0.4-0.6,0.9-0.6,1.6c0,0.6,0.1,1,0.4,1.4
	c0.4,0.5,0.8,0.7,1.4,0.7c0.5,0,0.9-0.2,1.2-0.5c0.3,0.5,0.8,0.8,1.5,0.8h0.8v-0.8h-0.7C421.7,183.5,421.4,183.2,421.4,182.5z
	 M421,178c0-0.3-0.2-0.5-0.5-0.5c-0.3,0-0.5,0.2-0.5,0.5c0,0.3,0.2,0.5,0.5,0.5C420.8,178.5,421,178.4,421,178z M419.7,178
	c0-0.3-0.2-0.5-0.5-0.5c-0.3,0-0.5,0.2-0.5,0.5c0,0.3,0.2,0.5,0.5,0.5C419.5,178.5,419.7,178.4,419.7,178z"/>
<path class="st2" d="M461.4,195.3v-6.6l-0.9,0.5v6.2H461.4z M457,195.3c0.6,0,1-0.2,1.3-0.5c0.4-0.4,0.5-0.8,0.5-1.5v-4.7l-0.9,0.5
	v4.2c0,0.7-0.4,1.1-1.1,1.1h-0.5v0.8H457z M453.8,195.3c0.5,0,0.9-0.2,1.1-0.5c0.3,0.4,0.8,0.5,1.3,0.5h0.7v-0.8h-0.6
	c-0.4,0-0.6-0.1-0.8-0.3c-0.2-0.2-0.3-0.5-0.3-0.9c0-1.1-0.6-2-1.7-2.6l-0.5,0.8c0.8,0.5,1.3,1.1,1.3,2.1c0,0.3-0.1,0.6-0.2,0.7
	c-0.1,0.1-0.3,0.2-0.6,0.2h-1.8l-0.4,0.8H453.8z M450.6,195.3v-6.6l-0.9,0.5v6.2H450.6z M444.4,195.3c1.8,0,3.2-0.6,4.2-1.9v-0.5
	c-0.4-0.7-0.8-1.3-1.3-1.6c-0.5-0.4-1-0.6-1.5-0.6c-0.6,0-1.3,0.3-1.8,0.9v0.8c0.6-0.6,1.2-0.9,1.7-0.9c0.8,0,1.5,0.5,2.1,1.6
	c-0.8,0.9-1.9,1.4-3.3,1.4H443v0.8H444.4z M446.6,189.1c0-0.3-0.2-0.5-0.5-0.5c-0.3,0-0.5,0.2-0.5,0.5c0,0.3,0.2,0.5,0.5,0.5
	C446.4,189.6,446.6,189.5,446.6,189.1z M442.1,194.3c-0.2-0.2-0.2-0.5-0.2-0.9v-4.7l-0.9,0.5v4.2c0,0.7-0.4,1.1-1.1,1.1h-0.5v0.8
	h0.6c0.6,0,1.1-0.2,1.4-0.6c0.3,0.4,0.8,0.6,1.4,0.6h0.8v-0.8h-0.7C442.5,194.5,442.3,194.4,442.1,194.3z M437.7,196.9
	c0,0.3,0.2,0.5,0.5,0.5c0.3,0,0.5-0.2,0.5-0.5c0-0.3-0.2-0.5-0.5-0.5C437.8,196.4,437.7,196.5,437.7,196.9z M436.3,196.9
	c0,0.3,0.2,0.5,0.5,0.5c0.3,0,0.5-0.2,0.5-0.5c0-0.3-0.2-0.5-0.5-0.5C436.5,196.4,436.3,196.5,436.3,196.9z M438.3,193.5v-2.6
	l-0.9,0.5v2.1c0,0.7-0.3,1-1,1h-0.7v0.8h0.8c0.6,0,1-0.2,1.3-0.5c0.3,0.4,0.8,0.5,1.3,0.5h0.8v-0.8h-0.7
	C438.6,194.5,438.3,194.2,438.3,193.5z M433.8,193.5c0,0.1,0,0.2,0,0.3c-0.2,0.3-0.6,0.5-0.9,0.5c-0.3,0-0.6-0.1-0.8-0.4
	c-0.2-0.2-0.3-0.6-0.3-1c0-0.4,0.1-0.7,0.3-1c0.2-0.2,0.4-0.4,0.7-0.4c0.4,0,0.7,0.1,0.9,0.4V193.5z M434.7,193.5v-3.3l-0.9,0.5v0.4
	c-0.3-0.2-0.6-0.3-1-0.3c-0.5,0-0.9,0.2-1.3,0.5c-0.4,0.4-0.6,0.9-0.6,1.6c0,0.6,0.1,1,0.4,1.4c0.4,0.5,0.8,0.7,1.4,0.7
	c0.5,0,0.9-0.2,1.2-0.5c0.3,0.5,0.8,0.8,1.5,0.8h0.8v-0.8h-0.7C435,194.5,434.7,194.2,434.7,193.5z M434.2,189
	c0-0.3-0.2-0.5-0.5-0.5c-0.3,0-0.5,0.2-0.5,0.5c0,0.3,0.2,0.5,0.5,0.5C434.1,189.5,434.2,189.4,434.2,189z M432.9,189
	c0-0.3-0.2-0.5-0.5-0.5c-0.3,0-0.5,0.2-0.5,0.5c0,0.3,0.2,0.5,0.5,0.5C432.8,189.5,432.9,189.4,432.9,189z"/>
<rect x="410" y="223.2" class="st4" width="69.6" height="41.8"/>
<path class="st2" d="M457.7,241.7v-6.8l-1.3,0.7v6.1H457.7z M452.3,241.7c0.6,0,1.1-0.2,1.5-0.6c0.4-0.4,0.6-1,0.6-1.6v-4.6
	l-1.3,0.7v3.9c0,0.3-0.1,0.6-0.2,0.7c-0.1,0.1-0.4,0.2-0.7,0.2h-0.7v1.3H452.3z M450.7,240.3c-0.1-0.1-0.2-0.3-0.2-0.6v-2.6l0,0
	v-2.1l-1.3,0.7v3.9c0,0.3-0.1,0.6-0.2,0.7c-0.1,0.1-0.4,0.2-0.7,0.2h-0.7v1.3h0.7c0.6,0,1-0.2,1.4-0.5c0.3,0.3,0.8,0.5,1.3,0.5h1.1
	v-1.3h-0.9C451,240.5,450.8,240.4,450.7,240.3z M444,242.9c-0.1,0.1-0.2,0.3-0.2,0.5c0,0.2,0.1,0.4,0.2,0.5s0.3,0.2,0.5,0.2
	c0.5,0,0.7-0.2,0.7-0.7c0-0.2-0.1-0.4-0.2-0.5c-0.1-0.1-0.3-0.2-0.5-0.2S444.1,242.8,444,242.9z M446,240.2c0.2-0.2,0.3-0.3,0.4-0.5
	v-0.5c-0.4-0.7-0.9-1.3-1.4-1.7c-0.5-0.4-1.1-0.6-1.6-0.6c-0.7,0-1.4,0.3-2,1v1.2c0.7-0.6,1.3-0.9,1.8-0.9c0.7,0,1.3,0.4,1.7,1.3
	c-0.7,0.7-1.7,1.1-2.9,1.1h-1.6v1.3h1.6c1.1,0,2.2-0.3,3-0.8c0.3,0.3,0.6,0.5,0.9,0.6c0.3,0.1,0.8,0.2,1.3,0.2h0.9v-1.3h-0.9
	C446.8,240.5,446.3,240.4,446,240.2z M439.7,240.3c-0.1-0.1-0.2-0.3-0.2-0.6v-2.6l-1.3,0.7v1.9c0,0.3-0.1,0.5-0.2,0.6
	c-0.1,0.1-0.3,0.2-0.6,0.2h-0.9v1.3h1.1c0.5,0,0.9-0.1,1.3-0.4c0.3,0.3,0.8,0.4,1.3,0.4h1.1v-1.3h-0.9
	C440,240.5,439.8,240.4,439.7,240.3z M439.2,235.3c0-0.2-0.1-0.4-0.2-0.5c-0.1-0.1-0.3-0.2-0.5-0.2c-0.2,0-0.4,0.1-0.5,0.2
	c-0.1,0.1-0.2,0.3-0.2,0.5c0,0.2,0.1,0.4,0.2,0.5c0.1,0.1,0.3,0.2,0.5,0.2C439,236,439.2,235.8,439.2,235.3z M434.1,239.8
	c0,0.1,0,0.2,0,0.3c-0.1,0.2-0.4,0.3-0.6,0.3c-0.2,0-0.4-0.1-0.6-0.3c-0.1-0.2-0.2-0.4-0.2-0.7c0-0.3,0.1-0.6,0.2-0.7
	c0.1-0.2,0.3-0.3,0.6-0.3c0.2,0,0.4,0.1,0.6,0.2V239.8z M435.6,240.3c-0.1-0.1-0.2-0.3-0.2-0.6v-3.5l-1.3,0.7v0.3
	c-0.2-0.1-0.5-0.1-0.7-0.1c-0.5,0-0.9,0.2-1.3,0.5c-0.4,0.4-0.7,1-0.7,1.7c0,0.6,0.2,1,0.5,1.4c0.4,0.5,0.9,0.7,1.5,0.7
	c0.4,0,0.8-0.1,1.1-0.3c0.4,0.4,0.9,0.7,1.5,0.7h1.1v-1.3h-0.9C435.9,240.5,435.7,240.4,435.6,240.3z M435.1,235.1
	c0-0.2-0.1-0.4-0.2-0.5c-0.1-0.1-0.3-0.2-0.5-0.2c-0.5,0-0.7,0.2-0.7,0.7c0,0.2,0.1,0.4,0.2,0.5c0.1,0.1,0.3,0.2,0.5,0.2
	C434.8,235.8,435.1,235.5,435.1,235.1z M433.4,235.1c0-0.2-0.1-0.4-0.2-0.5c-0.1-0.1-0.3-0.2-0.5-0.2c-0.5,0-0.7,0.2-0.7,0.7
	c0,0.2,0.1,0.4,0.2,0.5c0.1,0.1,0.3,0.2,0.5,0.2C433.2,235.8,433.4,235.5,433.4,235.1z"/>
<path class="st2" d="M460.2,253.2v-6.8l-1.3,0.7v6.1H460.2z M454.3,254c-0.2-0.1-0.4-0.2-0.6-0.2c-0.2,0-0.4,0.1-0.6,0.2
	c-0.2,0.2-0.2,0.4-0.2,0.6c0,0.1,0,0.3,0.1,0.4h-0.3l-0.3,0.6h2l0.3-0.6h-1c-0.1-0.1-0.1-0.2-0.1-0.3c0-0.2,0.1-0.3,0.3-0.3
	c0.2,0,0.3,0.1,0.5,0.2V254z M455.6,251c0,0.3-0.1,0.6-0.2,0.7c-0.1,0.1-0.4,0.2-0.7,0.2h-0.5v-4.1l-1.3,0.7v3.4h-1.4l-0.7,1.3h4
	c0.6,0,1.1-0.2,1.5-0.6c0.4-0.4,0.6-1,0.6-1.6v-4.6l-1.3,0.7V251z M448.3,253.2c1.1,0,1.6-0.6,1.6-1.9c0-1.2-0.6-2.2-1.8-2.9
	l-0.7,1.1c0.7,0.4,1.1,1,1.1,1.8c0,0.4-0.2,0.6-0.5,0.6h-1.7l-0.7,1.3H448.3z M444.7,253.2v-6.8l-1.3,0.7v6.1H444.7z M441.5,248.5
	l-1.3,0.7v3.4c0,0.4-0.1,0.8-0.3,1c-0.2,0.2-0.5,0.4-0.9,0.4c-0.4,0-0.7-0.1-1.1-0.3v1.2c0.4,0.2,0.9,0.3,1.3,0.3
	c0.7,0,1.2-0.2,1.6-0.7c0.4-0.5,0.7-1.2,0.7-2V248.5z M436.8,254.9c0-0.2-0.1-0.4-0.2-0.5c-0.1-0.1-0.3-0.2-0.5-0.2
	c-0.5,0-0.7,0.2-0.7,0.7c0,0.2,0.1,0.4,0.2,0.5c0.1,0.1,0.3,0.2,0.5,0.2C436.6,255.6,436.8,255.3,436.8,254.9z M435.2,254.9
	c0-0.2-0.1-0.4-0.2-0.5c-0.1-0.1-0.3-0.2-0.5-0.2c-0.5,0-0.7,0.2-0.7,0.7c0,0.2,0.1,0.4,0.2,0.5c0.1,0.1,0.3,0.2,0.5,0.2
	C435,255.6,435.2,255.3,435.2,254.9z M435,253.2c0.6,0,1-0.2,1.3-0.5c0.4-0.4,0.6-0.9,0.6-1.5v-2.7l-1.3,0.7v1.9
	c0,0.3-0.1,0.5-0.2,0.6c-0.1,0.1-0.3,0.2-0.6,0.2H434v1.3H435z M431.6,251.2c0,0.1,0,0.2,0,0.3c-0.1,0.2-0.4,0.3-0.6,0.3
	c-0.2,0-0.4-0.1-0.6-0.3c-0.1-0.2-0.2-0.4-0.2-0.7c0-0.3,0.1-0.6,0.2-0.7c0.1-0.2,0.3-0.3,0.6-0.3s0.4,0.1,0.6,0.2V251.2z
	 M433.1,251.8c-0.1-0.1-0.2-0.3-0.2-0.6v-3.5l-1.3,0.7v0.3c-0.2-0.1-0.5-0.1-0.7-0.1c-0.5,0-0.9,0.2-1.3,0.5c-0.4,0.4-0.7,1-0.7,1.7
	c0,0.6,0.2,1,0.5,1.4c0.4,0.5,0.9,0.7,1.5,0.7c0.4,0,0.8-0.1,1.1-0.3c0.4,0.4,0.9,0.7,1.5,0.7h1.1v-1.3h-0.9
	C433.4,251.9,433.2,251.9,433.1,251.8z M432.6,246.6c0-0.2-0.1-0.4-0.2-0.5c-0.1-0.1-0.3-0.2-0.5-0.2c-0.5,0-0.7,0.2-0.7,0.7
	c0,0.2,0.1,0.4,0.2,0.5c0.1,0.1,0.3,0.2,0.5,0.2C432.3,247.3,432.6,247,432.6,246.6z M430.9,246.6c0-0.2-0.1-0.4-0.2-0.5
	c-0.1-0.1-0.3-0.2-0.5-0.2c-0.5,0-0.7,0.2-0.7,0.7c0,0.2,0.1,0.4,0.2,0.5c0.1,0.1,0.3,0.2,0.5,0.2
	C430.7,247.3,430.9,247,430.9,246.6z"/>
<rect x="8.6" y="103.6" class="st3" width="134.3" height="25.5"/>
<path class="st2" d="M128.3,116.7c0-0.3,0.1-0.5,0.4-0.5c0.4,0,0.7,0.3,0.7,1c0,0.7-0.2,1-0.7,1c-0.3,0-0.4-0.1-0.4-0.4V116.7z
	 M126.7,117.6c0,0.2,0,0.4-0.1,0.5c-0.1,0.1-0.2,0.1-0.5,0.1h-1v1.5h1.2c0.5,0,0.8-0.1,1.2-0.3c0.3,0.2,0.8,0.3,1.3,0.3
	c0.6,0,1.1-0.2,1.4-0.6c0.4-0.5,0.6-1.1,0.6-1.9c0-0.7-0.2-1.2-0.5-1.7c-0.4-0.5-0.9-0.8-1.7-0.8c-0.6,0-1,0.2-1.4,0.5
	c-0.4,0.4-0.6,0.9-0.6,1.5V117.6z M114.8,119.7c0.5,0,0.9-0.1,1.2-0.4c0.3,0.3,0.7,0.4,1.2,0.4h1.2c0.4,0,0.8-0.2,1.1-0.4
	c0.3,0.3,0.7,0.4,1.2,0.4h1.2c0.5,0,0.9-0.2,1.2-0.4c0.4,0.3,0.8,0.4,1.4,0.4h1.1v-1.5h-1c-0.3,0-0.5-0.1-0.6-0.2
	c-0.1-0.1-0.2-0.3-0.2-0.6v-2.4l-1.5,0.8v1.8c0,0.2,0,0.4-0.1,0.5c-0.1,0.1-0.2,0.1-0.5,0.1h-0.8c-0.2,0-0.4,0-0.5-0.1
	c-0.1-0.1-0.1-0.2-0.1-0.5v-2.4l-1.5,0.8v1.6c0,0.2,0,0.4-0.1,0.5c-0.1,0.1-0.2,0.1-0.5,0.1h-0.8c-0.2,0-0.4,0-0.5-0.1
	c-0.1-0.1-0.1-0.2-0.1-0.5v-2.2l-1.5,0.8v1.3c0,0.2,0,0.4-0.1,0.5c-0.1,0.1-0.2,0.1-0.5,0.1h-1.2v1.5H114.8z M112.5,118.1
	c-0.1-0.1-0.1-0.2-0.1-0.5v-2.7l-1.5,0.8v1.8c0,0.2,0,0.4-0.1,0.5c-0.1,0.1-0.2,0.1-0.5,0.1h-1v1.5h1.2c0.5,0,0.9-0.1,1.2-0.4
	c0.3,0.2,0.7,0.4,1.2,0.4h1.2v-1.5h-1C112.8,118.2,112.6,118.2,112.5,118.1z M112.4,114c0.1-0.1,0.2-0.3,0.2-0.6
	c0-0.2-0.1-0.4-0.2-0.6c-0.1-0.1-0.3-0.2-0.6-0.2c-0.2,0-0.4,0.1-0.6,0.2c-0.1,0.1-0.2,0.3-0.2,0.6c0,0.2,0.1,0.4,0.2,0.6
	c0.1,0.1,0.3,0.2,0.6,0.2C112.1,114.2,112.3,114.1,112.4,114z M110.7,114c0.1-0.1,0.2-0.3,0.2-0.6c0-0.2-0.1-0.4-0.2-0.6
	c-0.1-0.1-0.3-0.2-0.6-0.2c-0.2,0-0.4,0.1-0.6,0.2c-0.1,0.1-0.2,0.3-0.2,0.6c0,0.2,0.1,0.4,0.2,0.6c0.1,0.1,0.3,0.2,0.6,0.2
	C110.3,114.2,110.5,114.1,110.7,114z M107,118.2c-0.8,0-1.2-0.3-1.2-1c0-0.7,0.2-1,0.7-1c0.3,0,0.5,0.2,0.5,0.6V118.2z M109.8,118.2
	h-1.2v-1.5c0-0.6-0.2-1-0.5-1.4c-0.4-0.4-0.9-0.6-1.6-0.6c-0.6,0-1.2,0.2-1.5,0.6c-0.4,0.4-0.7,1.1-0.7,1.9c0,0.6,0.2,1.1,0.5,1.5
	c0.4,0.5,1,0.8,1.7,0.9c0.2,0,0.4,0,0.6,0.1c0,0.2-0.1,0.3-0.3,0.5c-0.2,0.1-0.4,0.2-0.7,0.2c-0.4,0-0.8-0.1-1.2-0.4v1.3
	c0.5,0.3,0.9,0.4,1.4,0.4c0.6,0,1.1-0.2,1.5-0.5c0.5-0.4,0.8-0.9,0.8-1.5h1.3V118.2z M102.5,115.6c-0.4-0.5-1-0.8-1.7-0.8
	c-0.4,0-0.8,0.1-1.1,0.4c-0.4,0.4-0.7,0.9-0.7,1.5c0,0.6,0.2,1,0.5,1.3c0.2,0.2,0.6,0.4,1.2,0.6c0.3,0.1,0.6,0.2,0.7,0.3
	c0.1,0.1,0.2,0.2,0.2,0.3c0,0.6-0.6,0.9-1.8,0.9c-0.6,0-1.1-0.1-1.4-0.4c-0.3-0.3-0.5-0.7-0.5-1.2c0-0.5,0.1-1,0.4-1.5l-1.5,0.3
	c-0.2,0.4-0.4,0.9-0.4,1.4c0,0.7,0.2,1.4,0.7,1.9c0.6,0.7,1.5,1,2.7,1c0.9,0,1.7-0.2,2.3-0.6c0.7-0.4,1-1,1-1.8
	c0-0.5-0.1-0.8-0.4-1.1c-0.2-0.2-0.6-0.4-1.1-0.5c-0.4-0.1-0.8-0.3-0.9-0.4c-0.2-0.1-0.2-0.3-0.2-0.5c0-0.2,0.1-0.3,0.2-0.4
	c0.1-0.1,0.3-0.2,0.5-0.2c0.4,0,0.9,0.2,1.5,0.7V115.6z M92.1,119.7v-6.8l-1.5,0.8v6H92.1z M86,120.4c-0.2-0.2-0.4-0.3-0.6-0.3
	c-0.2,0-0.4,0.1-0.6,0.3c-0.2,0.2-0.3,0.4-0.3,0.6c0,0.2,0,0.3,0.1,0.5h-0.3l-0.4,0.7h2.1l0.4-0.7h-1.1c-0.1-0.1-0.1-0.2-0.1-0.3
	c0-0.2,0.1-0.3,0.3-0.3c0.2,0,0.3,0.1,0.5,0.2V120.4z M87.1,117.4c0,0.3-0.1,0.5-0.2,0.6c-0.1,0.1-0.3,0.2-0.6,0.2h-0.5v-3.9
	l-1.5,0.8v3.1H83l-0.8,1.5h4.1c0.7,0,1.2-0.2,1.6-0.6c0.4-0.4,0.7-1,0.7-1.7v-4.5l-1.5,0.8V117.4z M79.6,119.7
	c1.1,0,1.7-0.6,1.7-1.9c0-1.2-0.6-2.2-1.8-2.9l-0.7,1.3c0.7,0.4,1,0.9,1,1.6c0,0.3-0.1,0.5-0.4,0.5h-1.6l-0.8,1.5H79.6z M76,119.7
	v-6.8l-1.5,0.8v6H76z M72.5,114.9l-1.5,0.8v3.3c0,0.6-0.2,1-0.6,1.2c-0.1,0.1-0.3,0.1-0.5,0.1c-0.3,0-0.7-0.1-1.1-0.3v1.3
	c0.4,0.2,0.9,0.4,1.4,0.4c0.3,0,0.7-0.1,1-0.2c0.4-0.2,0.8-0.5,1-1c0.2-0.4,0.4-1,0.4-1.6V114.9z M66.1,117.5c0-0.6,0.2-1,0.6-1.3
	c0.4,0.3,0.7,0.7,0.7,1.3c0,0.5-0.2,0.7-0.6,0.7h-0.1C66.3,118.2,66.1,118,66.1,117.5z M66.8,119.7c0.6,0,1.1-0.2,1.5-0.5
	c0.4-0.4,0.6-1,0.6-1.7c0-0.6-0.2-1.1-0.5-1.6c-0.4-0.5-0.9-0.9-1.7-1.1c-0.6,0.2-1.1,0.5-1.5,1c-0.4,0.5-0.6,1.1-0.6,1.8
	c0,0.6,0.2,1.1,0.5,1.5c0.4,0.5,0.9,0.7,1.6,0.7H66.8z M68.1,113.5c0.1-0.1,0.2-0.3,0.2-0.6c0-0.2-0.1-0.4-0.2-0.6
	c-0.1-0.1-0.3-0.2-0.6-0.2c-0.2,0-0.4,0.1-0.6,0.2c-0.1,0.1-0.2,0.3-0.2,0.6c0,0.2,0.1,0.4,0.2,0.6c0.1,0.1,0.3,0.2,0.6,0.2
	C67.8,113.7,68,113.7,68.1,113.5z M66.3,113.5c0.1-0.1,0.2-0.3,0.2-0.6c0-0.2-0.1-0.4-0.2-0.6c-0.1-0.1-0.3-0.2-0.6-0.2
	s-0.4,0.1-0.6,0.2c-0.1,0.1-0.2,0.3-0.2,0.6c0,0.2,0.1,0.4,0.2,0.6c0.1,0.1,0.3,0.2,0.6,0.2C66,113.7,66.2,113.7,66.3,113.5z
	 M60.2,119.7v-6.8l-1.5,0.8v6H60.2z M54.5,119.7c0.7,0,1.2-0.2,1.6-0.6c0.4-0.4,0.7-1,0.7-1.7v-4.5l-1.5,0.8v3.7
	c0,0.3-0.1,0.5-0.2,0.6c-0.1,0.1-0.3,0.2-0.6,0.2h-0.7v1.5H54.5z M52.8,118.1c-0.1-0.1-0.1-0.2-0.1-0.5v-2.7l-1.5,0.8v1.8
	c0,0.2,0,0.4-0.1,0.5c-0.1,0.1-0.2,0.1-0.5,0.1h-1v1.5h1.2c0.5,0,0.9-0.1,1.2-0.4c0.3,0.2,0.7,0.4,1.2,0.4h1.2v-1.5h-1
	C53.1,118.2,52.9,118.2,52.8,118.1z M52.7,114c0.1-0.1,0.2-0.3,0.2-0.6c0-0.2-0.1-0.4-0.2-0.6c-0.1-0.1-0.3-0.2-0.6-0.2
	c-0.2,0-0.4,0.1-0.6,0.2c-0.1,0.1-0.2,0.3-0.2,0.6c0,0.2,0.1,0.4,0.2,0.6c0.1,0.1,0.3,0.2,0.6,0.2C52.4,114.2,52.6,114.1,52.7,114z
	 M51,114c0.1-0.1,0.2-0.3,0.2-0.6c0-0.2-0.1-0.4-0.2-0.6c-0.1-0.1-0.3-0.2-0.6-0.2c-0.2,0-0.4,0.1-0.6,0.2c-0.1,0.1-0.2,0.3-0.2,0.6
	c0,0.2,0.1,0.4,0.2,0.6c0.1,0.1,0.3,0.2,0.6,0.2C50.6,114.2,50.8,114.1,51,114z M49.1,118.2c-0.2,0-0.4,0-0.5-0.1
	c-0.1-0.1-0.1-0.2-0.1-0.5v-2.7l-1.5,0.8v1.8c0,0.2,0,0.4-0.1,0.5c-0.1,0.1-0.2,0.1-0.5,0.1h-1v1.5h1.2c0.5,0,0.9-0.1,1.2-0.4
	c0.3,0.2,0.7,0.4,1.2,0.4h1.2v-1.5H49.1z M48.2,113.8c0.1-0.1,0.2-0.3,0.2-0.6c0-0.2-0.1-0.4-0.2-0.6c-0.1-0.1-0.3-0.2-0.6-0.2
	c-0.2,0-0.4,0.1-0.6,0.2c-0.1,0.1-0.2,0.3-0.2,0.6c0,0.2,0.1,0.4,0.2,0.6c0.1,0.1,0.3,0.2,0.6,0.2C47.9,114,48.1,113.9,48.2,113.8z
	 M42,117.6c-0.1-0.2-0.2-0.4-0.2-0.6c0-0.5,0.2-0.8,0.7-0.8c0.4,0,0.6,0.3,0.6,0.8c0,0.2-0.1,0.4-0.2,0.6c-0.1,0.2-0.3,0.4-0.5,0.5
	C42.3,118,42.2,117.8,42,117.6z M44.6,117.1c0-0.6-0.2-1.1-0.5-1.5c-0.4-0.5-0.9-0.8-1.6-0.8c-0.6,0-1.1,0.2-1.5,0.6
	c-0.4,0.4-0.6,1-0.6,1.7c0,0.4,0.1,0.8,0.3,1.1h-1.5v1.5h2.4c0.4,0,0.7,0,0.9-0.1c0.2,0.1,0.5,0.1,0.9,0.1h2.4v-1.5h-1.5
	C44.5,117.8,44.6,117.4,44.6,117.1z M43.1,114c0.1-0.1,0.2-0.3,0.2-0.6c0-0.2-0.1-0.4-0.2-0.6c-0.1-0.1-0.3-0.2-0.6-0.2
	c-0.2,0-0.4,0.1-0.6,0.2c-0.1,0.1-0.2,0.3-0.2,0.6c0,0.2,0.1,0.4,0.2,0.6c0.1,0.1,0.3,0.2,0.6,0.2C42.7,114.2,42.9,114.1,43.1,114z
	 M37,120.8c-0.1,0.1-0.2,0.3-0.2,0.6s0.1,0.4,0.2,0.6c0.1,0.1,0.3,0.2,0.6,0.2c0.2,0,0.4-0.1,0.6-0.2c0.1-0.1,0.2-0.3,0.2-0.6
	c0-0.2-0.1-0.4-0.2-0.6c-0.1-0.1-0.3-0.2-0.6-0.2C37.4,120.6,37.2,120.7,37,120.8z M35.3,120.8c-0.1,0.1-0.2,0.3-0.2,0.6
	s0.1,0.4,0.2,0.6c0.1,0.1,0.3,0.2,0.6,0.2c0.2,0,0.4-0.1,0.6-0.2c0.1-0.1,0.2-0.3,0.2-0.6c0-0.2-0.1-0.4-0.2-0.6
	c-0.1-0.1-0.3-0.2-0.6-0.2C35.6,120.6,35.4,120.7,35.3,120.8z M38.2,118.1c-0.1-0.1-0.1-0.2-0.1-0.5v-2.7l-1.5,0.8v1.8
	c0,0.2,0,0.4-0.1,0.5c-0.1,0.1-0.2,0.1-0.5,0.1h-1v1.5h1.2c0.5,0,0.9-0.1,1.2-0.4c0.3,0.2,0.7,0.4,1.2,0.4h1.2v-1.5h-1
	C38.5,118.2,38.3,118.2,38.2,118.1z M32.2,119.7c0.5,0,0.8-0.1,1.1-0.4c0.4,0.3,0.8,0.4,1.3,0.4h0.9v-1.5h-0.8
	c-0.3,0-0.5-0.1-0.6-0.2c-0.1-0.1-0.2-0.3-0.2-0.7c-0.1-1.1-0.7-1.9-1.8-2.5l-0.7,1.3c0.7,0.4,1,0.9,1,1.6c0,0.3-0.1,0.5-0.4,0.5
	h-1.6l-0.8,1.5H32.2z M32.6,113.8c0.1-0.1,0.2-0.3,0.2-0.6c0-0.2-0.1-0.4-0.2-0.6c-0.1-0.1-0.3-0.2-0.6-0.2c-0.2,0-0.4,0.1-0.6,0.2
	c-0.1,0.1-0.2,0.3-0.2,0.6c0,0.2,0.1,0.4,0.2,0.6c0.1,0.1,0.3,0.2,0.6,0.2C32.3,114,32.5,113.9,32.6,113.8z M28.2,121.9
	c0.1-0.1,0.2-0.3,0.2-0.6c0-0.2-0.1-0.4-0.2-0.6c-0.1-0.1-0.3-0.2-0.6-0.2s-0.4,0.1-0.6,0.2c-0.1,0.1-0.2,0.3-0.2,0.6
	c0,0.2,0.1,0.4,0.2,0.6c0.1,0.1,0.3,0.2,0.6,0.2C27.9,122.2,28.1,122.1,28.2,121.9z M26.5,121.9c0.1-0.1,0.2-0.3,0.2-0.6
	c0-0.2-0.1-0.4-0.2-0.6c-0.1-0.1-0.3-0.2-0.6-0.2c-0.2,0-0.4,0.1-0.6,0.2c-0.1,0.1-0.2,0.3-0.2,0.6c0,0.2,0.1,0.4,0.2,0.6
	c0.1,0.1,0.3,0.2,0.6,0.2C26.1,122.2,26.3,122.1,26.5,121.9z M26.5,119.7c0.6,0,1-0.2,1.4-0.5c0.4-0.4,0.6-0.9,0.6-1.5v-2.7
	l-1.5,0.8v1.8c0,0.2,0,0.4-0.1,0.5c-0.1,0.1-0.2,0.1-0.5,0.1h-1v1.5H26.5z M22.8,117.7c0,0.1,0,0.2,0,0.3c-0.1,0.1-0.2,0.2-0.4,0.2
	c-0.4,0-0.7-0.3-0.7-0.9c0-0.3,0.1-0.5,0.2-0.6c0.1-0.2,0.3-0.2,0.5-0.2c0.2,0,0.3,0,0.5,0.1V117.7z M24.4,118.1
	c-0.1-0.1-0.1-0.2-0.1-0.5V114l-1.5,0.8v0.2c-0.2-0.1-0.4-0.1-0.6-0.1c-0.5,0-0.9,0.2-1.3,0.5c-0.5,0.4-0.7,1-0.7,1.7
	c0,0.6,0.2,1,0.5,1.4c0.4,0.5,0.9,0.7,1.6,0.7c0.4,0,0.8-0.1,1-0.3c0.4,0.4,0.9,0.6,1.5,0.6h1.2v-1.5h-1
	C24.7,118.2,24.5,118.2,24.4,118.1z M23.8,113.5c0.1-0.1,0.2-0.3,0.2-0.6c0-0.2-0.1-0.4-0.2-0.6c-0.1-0.1-0.3-0.2-0.6-0.2
	s-0.4,0.1-0.6,0.2c-0.1,0.1-0.2,0.3-0.2,0.6c0,0.2,0.1,0.4,0.2,0.6c0.1,0.1,0.3,0.2,0.6,0.2C23.4,113.7,23.6,113.7,23.8,113.5z
	 M22,113.5c0.1-0.1,0.2-0.3,0.2-0.6c0-0.2-0.1-0.4-0.2-0.6c-0.1-0.1-0.3-0.2-0.6-0.2c-0.2,0-0.4,0.1-0.6,0.2
	c-0.1,0.1-0.2,0.3-0.2,0.6c0,0.2,0.1,0.4,0.2,0.6c0.1,0.1,0.3,0.2,0.6,0.2C21.7,113.7,21.9,113.7,22,113.5z"/>
<rect x="8.6" y="142.2" class="st3" width="133.7" height="17.9"/>
<path class="st2" d="M109.6,154.5v-6.8l-1.5,0.8v6H109.6z M104,154.5c0.7,0,1.2-0.2,1.6-0.6c0.4-0.4,0.7-1,0.7-1.7v-4.5l-1.5,0.8
	v3.7c0,0.3-0.1,0.5-0.2,0.6c-0.1,0.1-0.3,0.2-0.6,0.2h-0.7v1.5H104z M102.3,152.9c-0.1-0.1-0.1-0.2-0.1-0.5v-4.7l-1.5,0.8v3.7
	c0,0.3-0.1,0.5-0.2,0.6c-0.1,0.1-0.3,0.2-0.6,0.2h-0.7v1.5h0.8c0.5,0,1-0.1,1.4-0.4c0.3,0.3,0.8,0.4,1.3,0.4h1.2v-1.5h-1
	C102.5,153.1,102.4,153,102.3,152.9z M94.7,155.7c-0.1,0.1-0.2,0.3-0.2,0.6c0,0.2,0.1,0.4,0.2,0.6c0.1,0.1,0.3,0.2,0.6,0.2
	c0.2,0,0.4-0.1,0.6-0.2c0.1-0.1,0.2-0.3,0.2-0.6c0-0.2-0.1-0.4-0.2-0.6c-0.1-0.1-0.3-0.2-0.6-0.2C95,155.4,94.8,155.5,94.7,155.7z
	 M97.6,152.9c0.1-0.1,0.2-0.3,0.3-0.4v-0.6c-0.4-0.7-0.9-1.3-1.4-1.7c-0.5-0.4-1.1-0.6-1.6-0.6h0c-0.8,0-1.4,0.3-2,1v1.3
	c0.7-0.6,1.3-0.9,1.9-0.9c0.6,0,1.1,0.4,1.6,1.1c-0.7,0.6-1.6,1-2.7,1h-1.6v1.5h1.6c1.1,0,2.1-0.3,3-0.8c0.3,0.3,0.6,0.5,0.9,0.6
	c0.3,0.1,0.8,0.2,1.3,0.2h1v-1.5h-0.9C98.2,153.1,97.8,153,97.6,152.9z M91.5,153.1c-0.2,0-0.4,0-0.5-0.1c-0.1-0.1-0.1-0.2-0.1-0.5
	v-2.7l-1.5,0.8v1.8c0,0.2,0,0.4-0.1,0.5c-0.1,0.1-0.2,0.1-0.5,0.1h-1v1.5h1.2c0.5,0,0.9-0.1,1.2-0.4c0.3,0.2,0.7,0.4,1.2,0.4h1.2
	v-1.5H91.5z M90.6,148.6c0.1-0.1,0.2-0.3,0.2-0.6c0-0.2-0.1-0.4-0.2-0.6c-0.1-0.1-0.3-0.2-0.6-0.2c-0.2,0-0.4,0.1-0.6,0.2
	c-0.1,0.1-0.2,0.3-0.2,0.6c0,0.2,0.1,0.4,0.2,0.6c0.1,0.1,0.3,0.2,0.6,0.2C90.3,148.9,90.5,148.8,90.6,148.6z M85.1,152.5
	c0,0.1,0,0.2,0,0.3c-0.1,0.1-0.2,0.2-0.4,0.2c-0.4,0-0.7-0.3-0.7-0.9c0-0.3,0.1-0.5,0.2-0.6c0.1-0.2,0.3-0.2,0.5-0.2
	c0.2,0,0.3,0,0.5,0.1V152.5z M86.8,152.9c-0.1-0.1-0.1-0.2-0.1-0.5v-3.6l-1.5,0.8v0.2c-0.2-0.1-0.4-0.1-0.6-0.1
	c-0.5,0-0.9,0.2-1.3,0.5c-0.5,0.4-0.7,1-0.7,1.7c0,0.6,0.2,1,0.5,1.4c0.4,0.5,0.9,0.7,1.6,0.7c0.4,0,0.8-0.1,1-0.3
	c0.4,0.4,0.9,0.6,1.5,0.6h1.2v-1.5h-1C87,153.1,86.8,153,86.8,152.9z M86.1,148.4c0.1-0.1,0.2-0.3,0.2-0.6c0-0.2-0.1-0.4-0.2-0.6
	c-0.1-0.1-0.3-0.2-0.6-0.2s-0.4,0.1-0.6,0.2c-0.1,0.1-0.2,0.3-0.2,0.6c0,0.2,0.1,0.4,0.2,0.6c0.1,0.1,0.3,0.2,0.6,0.2
	C85.8,148.6,86,148.5,86.1,148.4z M84.3,148.4c0.1-0.1,0.2-0.3,0.2-0.6c0-0.2-0.1-0.4-0.2-0.6c-0.1-0.1-0.3-0.2-0.6-0.2
	c-0.2,0-0.4,0.1-0.6,0.2c-0.1,0.1-0.2,0.3-0.2,0.6c0,0.2,0.1,0.4,0.2,0.6c0.1,0.1,0.3,0.2,0.6,0.2C84,148.6,84.2,148.5,84.3,148.4z
	 M78.6,154.5v-6.8l-1.5,0.8v6H78.6z M73,154.5c0.7,0,1.2-0.2,1.6-0.6c0.4-0.4,0.7-1,0.7-1.7v-4.5l-1.5,0.8v3.7
	c0,0.3-0.1,0.5-0.2,0.6c-0.1,0.1-0.3,0.2-0.6,0.2h-0.7v1.5H73z M61.9,154.5c0.5,0,0.9-0.1,1.2-0.4c0.3,0.3,0.7,0.4,1.2,0.4h1.2
	c0.4,0,0.8-0.2,1.1-0.4c0.3,0.3,0.7,0.4,1.2,0.4h1.2c0.5,0,0.9-0.2,1.2-0.4c0.4,0.3,0.8,0.4,1.4,0.4h1.1v-1.5h-1
	c-0.3,0-0.5-0.1-0.6-0.2c-0.1-0.1-0.2-0.3-0.2-0.6v-2.4l-1.5,0.8v1.8c0,0.2,0,0.4-0.1,0.5c-0.1,0.1-0.2,0.1-0.5,0.1H68
	c-0.2,0-0.4,0-0.5-0.1c-0.1-0.1-0.1-0.2-0.1-0.5v-2.4l-1.5,0.8v1.6c0,0.2,0,0.4-0.1,0.5c-0.1,0.1-0.2,0.1-0.5,0.1h-0.8
	c-0.2,0-0.4,0-0.5-0.1c-0.1-0.1-0.1-0.2-0.1-0.5v-2.2l-1.5,0.8v1.3c0,0.2,0,0.4-0.1,0.5c-0.1,0.1-0.2,0.1-0.5,0.1h-1.2v1.5H61.9z
	 M68.1,148.7c0.1-0.1,0.2-0.3,0.2-0.6c0-0.2-0.1-0.4-0.2-0.6c-0.1-0.1-0.3-0.2-0.6-0.2s-0.4,0.1-0.6,0.2c-0.1,0.1-0.2,0.3-0.2,0.6
	c0,0.2,0.1,0.4,0.2,0.6c0.1,0.1,0.3,0.2,0.6,0.2S67.9,148.9,68.1,148.7z M66.3,148.7c0.1-0.1,0.2-0.3,0.2-0.6c0-0.2-0.1-0.4-0.2-0.6
	c-0.1-0.1-0.3-0.2-0.6-0.2s-0.4,0.1-0.6,0.2c-0.1,0.1-0.2,0.3-0.2,0.6c0,0.2,0.1,0.4,0.2,0.6c0.1,0.1,0.3,0.2,0.6,0.2
	S66.2,148.9,66.3,148.7z M67.1,147c0.1-0.1,0.2-0.3,0.2-0.5c0-0.5-0.2-0.7-0.7-0.7c-0.5,0-0.7,0.2-0.7,0.7c0,0.2,0.1,0.4,0.2,0.5
	c0.1,0.1,0.3,0.2,0.5,0.2C66.8,147.2,67,147.2,67.1,147z M59.5,152.6v-2.8l0,0v0l-1.5,0.8v3.3c0,0.6-0.2,1-0.6,1.2
	c-0.1,0.1-0.3,0.1-0.5,0.1c-0.3,0-0.7-0.1-1.1-0.3v1.3c0.4,0.2,0.9,0.4,1.4,0.4c0.3,0,0.7-0.1,1-0.2c0.7-0.3,1.2-1,1.4-1.9
	c0.2,0,0.3,0.1,0.5,0.1h1.2v-1.5h-1C59.7,153.1,59.5,152.9,59.5,152.6z M54.1,153.1c-0.4,0-0.7-0.1-0.9-0.3
	c-0.2-0.2-0.3-0.5-0.3-0.8c0-0.6,0.3-0.9,0.9-0.9h0h0c0.6,0,1.2,0.3,1.7,0.9v-1.3c-0.5-0.7-1.1-1-1.9-1c-0.6,0-1.1,0.2-1.5,0.5
	c-0.5,0.4-0.8,1-0.8,1.8c0,0.4,0.1,0.8,0.2,1.1h-1.4v1.5H56v-1.5H54.1z M48,155.7c-0.1,0.1-0.2,0.3-0.2,0.6s0.1,0.4,0.2,0.6
	c0.1,0.1,0.3,0.2,0.6,0.2c0.2,0,0.4-0.1,0.6-0.2c0.1-0.1,0.2-0.3,0.2-0.6c0-0.2-0.1-0.4-0.2-0.6c-0.1-0.1-0.3-0.2-0.6-0.2
	C48.3,155.4,48.1,155.5,48,155.7z M46.2,155.7c-0.1,0.1-0.2,0.3-0.2,0.6s0.1,0.4,0.2,0.6s0.3,0.2,0.6,0.2c0.2,0,0.4-0.1,0.6-0.2
	c0.1-0.1,0.2-0.3,0.2-0.6c0-0.2-0.1-0.4-0.2-0.6c-0.1-0.1-0.3-0.2-0.6-0.2C46.5,155.4,46.4,155.5,46.2,155.7z M49.2,152.9
	c-0.1-0.1-0.1-0.2-0.1-0.5v-2.7l-1.5,0.8v1.8c0,0.2,0,0.4-0.1,0.5c-0.1,0.1-0.2,0.1-0.5,0.1h-1v1.5H47c0.5,0,0.9-0.1,1.2-0.4
	c0.3,0.2,0.7,0.4,1.2,0.4h1.2v-1.5h-1C49.4,153.1,49.2,153,49.2,152.9z M43.3,152.5c0,0.1,0,0.2,0,0.3c-0.1,0.1-0.2,0.2-0.4,0.2
	c-0.4,0-0.7-0.3-0.7-0.9c0-0.3,0.1-0.5,0.2-0.6c0.1-0.2,0.3-0.2,0.5-0.2c0.2,0,0.3,0,0.5,0.1V152.5z M44.9,152.9
	c-0.1-0.1-0.1-0.2-0.1-0.5v-3.6l-1.5,0.8v0.2c-0.2-0.1-0.4-0.1-0.6-0.1c-0.5,0-0.9,0.2-1.3,0.5c-0.5,0.4-0.7,1-0.7,1.7
	c0,0.6,0.2,1,0.5,1.4c0.4,0.5,0.9,0.7,1.6,0.7c0.4,0,0.8-0.1,1-0.3c0.4,0.4,0.9,0.6,1.5,0.6h1.2v-1.5h-1
	C45.2,153.1,45,153,44.9,152.9z M44.3,148.4c0.1-0.1,0.2-0.3,0.2-0.6c0-0.2-0.1-0.4-0.2-0.6c-0.1-0.1-0.3-0.2-0.6-0.2
	s-0.4,0.1-0.6,0.2c-0.1,0.1-0.2,0.3-0.2,0.6c0,0.2,0.1,0.4,0.2,0.6c0.1,0.1,0.3,0.2,0.6,0.2C43.9,148.6,44.1,148.5,44.3,148.4z
	 M42.5,148.4c0.1-0.1,0.2-0.3,0.2-0.6c0-0.2-0.1-0.4-0.2-0.6c-0.1-0.1-0.3-0.2-0.6-0.2c-0.2,0-0.4,0.1-0.6,0.2
	c-0.1,0.1-0.2,0.3-0.2,0.6c0,0.2,0.1,0.4,0.2,0.6c0.1,0.1,0.3,0.2,0.6,0.2C42.2,148.6,42.4,148.5,42.5,148.4z"/>
<rect x="8.6" y="173.8" class="st3" width="134.5" height="23.7"/>
<path class="st2" d="M138.2,189v-6.8l-1.3,0.7v6.1H138.2z M133.1,189c0.6,0,1.1-0.2,1.5-0.6c0.4-0.4,0.6-1,0.6-1.6v-4.6l-1.3,0.7
	v3.9c0,0.3-0.1,0.6-0.2,0.7c-0.1,0.1-0.4,0.2-0.7,0.2h-0.7v1.3H133.1z M131.4,187.6c-0.1-0.1-0.2-0.3-0.2-0.6v-2.6l0,0v-2.1
	l-1.3,0.7v3.9c0,0.3-0.1,0.6-0.2,0.7c-0.1,0.1-0.4,0.2-0.7,0.2h-0.7v1.3h0.7c0.6,0,1-0.2,1.4-0.5c0.3,0.3,0.8,0.5,1.3,0.5h1.1v-1.3
	H132C131.7,187.7,131.5,187.7,131.4,187.6z M124.7,190.2c-0.1,0.1-0.2,0.3-0.2,0.5c0,0.2,0.1,0.4,0.2,0.5c0.1,0.1,0.3,0.2,0.5,0.2
	c0.5,0,0.7-0.2,0.7-0.7c0-0.2-0.1-0.4-0.2-0.5c-0.1-0.1-0.3-0.2-0.5-0.2S124.8,190,124.7,190.2z M126.7,187.5
	c0.2-0.2,0.3-0.3,0.4-0.5v-0.5c-0.4-0.7-0.9-1.3-1.4-1.7c-0.5-0.4-1.1-0.6-1.6-0.6c-0.7,0-1.4,0.3-2,1v1.2c0.7-0.6,1.3-0.9,1.8-0.9
	c0.7,0,1.3,0.4,1.7,1.3c-0.7,0.7-1.7,1.1-2.9,1.1h-1.6v1.3h1.6c1.1,0,2.2-0.3,3-0.8c0.3,0.3,0.6,0.5,0.9,0.6
	c0.3,0.1,0.8,0.2,1.3,0.2h0.9v-1.3h-0.9C127.5,187.7,127,187.7,126.7,187.5z M120.4,187.6c-0.1-0.1-0.2-0.3-0.2-0.6v-2.6l-1.3,0.7
	v1.9c0,0.3-0.1,0.5-0.2,0.6c-0.1,0.1-0.3,0.2-0.6,0.2h-0.9v1.3h1.1c0.5,0,0.9-0.1,1.3-0.4c0.3,0.3,0.8,0.4,1.3,0.4h1.1v-1.3h-0.9
	C120.7,187.7,120.5,187.7,120.4,187.6z M120,182.6c0-0.2-0.1-0.4-0.2-0.5c-0.1-0.1-0.3-0.2-0.5-0.2c-0.2,0-0.4,0.1-0.5,0.2
	s-0.2,0.3-0.2,0.5c0,0.2,0.1,0.4,0.2,0.5c0.1,0.1,0.3,0.2,0.5,0.2C119.7,183.3,120,183.1,120,182.6z M114.8,187.1c0,0.1,0,0.2,0,0.3
	c-0.1,0.2-0.4,0.3-0.6,0.3c-0.2,0-0.4-0.1-0.6-0.3c-0.1-0.2-0.2-0.4-0.2-0.7c0-0.3,0.1-0.6,0.2-0.7c0.1-0.2,0.3-0.3,0.6-0.3
	s0.4,0.1,0.6,0.2V187.1z M116.3,187.6c-0.1-0.1-0.2-0.3-0.2-0.6v-3.5l-1.3,0.7v0.3c-0.2-0.1-0.5-0.1-0.7-0.1c-0.5,0-0.9,0.2-1.3,0.5
	c-0.4,0.4-0.7,1-0.7,1.7c0,0.6,0.2,1,0.5,1.4c0.4,0.5,0.9,0.7,1.5,0.7c0.4,0,0.8-0.1,1.1-0.3c0.4,0.4,0.9,0.7,1.5,0.7h1.1v-1.3h-0.9
	C116.6,187.7,116.4,187.7,116.3,187.6z M115.8,182.4c0-0.2-0.1-0.4-0.2-0.5c-0.1-0.1-0.3-0.2-0.5-0.2c-0.5,0-0.7,0.2-0.7,0.7
	c0,0.2,0.1,0.4,0.2,0.5c0.1,0.1,0.3,0.2,0.5,0.2C115.6,183.1,115.8,182.8,115.8,182.4z M114.2,182.4c0-0.2-0.1-0.4-0.2-0.5
	c-0.1-0.1-0.3-0.2-0.5-0.2c-0.5,0-0.7,0.2-0.7,0.7c0,0.2,0.1,0.4,0.2,0.5c0.1,0.1,0.3,0.2,0.5,0.2
	C113.9,183.1,114.2,182.8,114.2,182.4z M110.3,189v-6.8l-1.3,0.7v6.1H110.3z M105.2,189c0.6,0,1.1-0.2,1.5-0.6
	c0.4-0.4,0.6-1,0.6-1.6v-4.6l-1.3,0.7v3.9c0,0.3-0.1,0.6-0.2,0.7c-0.1,0.1-0.4,0.2-0.7,0.2h-0.7v1.3H105.2z M103.6,187.6
	c-0.1-0.1-0.2-0.3-0.2-0.6v-2.6l-1.3,0.7v1.9c0,0.3-0.1,0.5-0.2,0.6c-0.1,0.1-0.3,0.2-0.6,0.2h-0.9v1.3h1.1c0.5,0,0.9-0.1,1.3-0.4
	c0.3,0.3,0.8,0.4,1.3,0.4h1.1v-1.3h-0.9C103.9,187.7,103.7,187.7,103.6,187.6z M103.7,182.7c0-0.2-0.1-0.4-0.2-0.5
	c-0.1-0.1-0.3-0.2-0.5-0.2c-0.2,0-0.4,0.1-0.5,0.2c-0.1,0.1-0.2,0.3-0.2,0.5c0,0.2,0.1,0.4,0.2,0.5c0.1,0.1,0.3,0.2,0.5,0.2
	C103.5,183.4,103.7,183.2,103.7,182.7z M102.1,182.7c0-0.2-0.1-0.4-0.2-0.5c-0.1-0.1-0.3-0.2-0.5-0.2s-0.4,0.1-0.5,0.2
	c-0.1,0.1-0.2,0.3-0.2,0.5c0,0.2,0.1,0.4,0.2,0.5c0.1,0.1,0.3,0.2,0.5,0.2C101.8,183.4,102.1,183.2,102.1,182.7z M99.5,187.6
	c-0.1-0.1-0.2-0.3-0.2-0.6v-2.6L98,185v1.9c0,0.3-0.1,0.5-0.2,0.6c-0.1,0.1-0.3,0.2-0.6,0.2h-0.9v1.3h1.1c0.5,0,0.9-0.1,1.3-0.4
	c0.3,0.3,0.8,0.4,1.3,0.4h1.1v-1.3h-0.9C99.8,187.7,99.6,187.7,99.5,187.6z M99.1,182.6c0-0.2-0.1-0.4-0.2-0.5
	c-0.1-0.1-0.3-0.2-0.5-0.2c-0.2,0-0.4,0.1-0.5,0.2s-0.2,0.3-0.2,0.5c0,0.2,0.1,0.4,0.2,0.5c0.1,0.1,0.3,0.2,0.5,0.2
	C98.8,183.3,99.1,183.1,99.1,182.6z M93,187.1c-0.1-0.2-0.2-0.5-0.2-0.8c0-0.6,0.3-1,0.8-1c0.2,0,0.4,0.1,0.6,0.3
	c0.1,0.2,0.2,0.4,0.2,0.7c0,0.3-0.1,0.5-0.2,0.7c-0.2,0.2-0.3,0.4-0.6,0.5C93.4,187.5,93.2,187.4,93,187.1z M95.7,186.4
	c0-0.6-0.2-1.1-0.5-1.5c-0.4-0.5-0.9-0.7-1.6-0.7c-0.6,0-1.1,0.2-1.5,0.6c-0.4,0.4-0.6,1-0.6,1.7c0,0.4,0.1,0.9,0.4,1.3h-1.7v1.3
	h2.5c0.3,0,0.6,0,0.8-0.1c0.2,0,0.5,0.1,0.8,0.1H97v-1.3h-1.7C95.6,187.3,95.7,186.9,95.7,186.4z M94.3,182.7c0-0.2-0.1-0.4-0.2-0.5
	c-0.1-0.1-0.3-0.2-0.5-0.2c-0.2,0-0.4,0.1-0.5,0.2c-0.1,0.1-0.2,0.3-0.2,0.5c0,0.2,0.1,0.4,0.2,0.5c0.1,0.1,0.3,0.2,0.5,0.2
	C94.1,183.4,94.3,183.2,94.3,182.7z M88.2,190.7c0,0.2,0.1,0.4,0.2,0.5c0.1,0.1,0.3,0.2,0.5,0.2c0.5,0,0.7-0.2,0.7-0.7
	c0-0.2-0.1-0.4-0.2-0.5c-0.1-0.1-0.3-0.2-0.5-0.2C88.4,190,88.2,190.2,88.2,190.7z M86.5,190.7c0,0.2,0.1,0.4,0.2,0.5
	c0.1,0.1,0.3,0.2,0.5,0.2c0.5,0,0.7-0.2,0.7-0.7c0-0.2-0.1-0.4-0.2-0.5c-0.1-0.1-0.3-0.2-0.5-0.2C86.8,190,86.5,190.2,86.5,190.7z
	 M89.4,187.6c-0.1-0.1-0.2-0.3-0.2-0.6v-2.6l-1.3,0.7v1.9c0,0.3-0.1,0.5-0.2,0.6c-0.1,0.1-0.3,0.2-0.6,0.2h-0.9v1.3h1.1
	c0.5,0,0.9-0.1,1.3-0.4c0.3,0.3,0.8,0.4,1.3,0.4h1.1v-1.3H90C89.7,187.7,89.5,187.7,89.4,187.6z M83.5,189c0.5,0,0.9-0.1,1.1-0.4
	c0.4,0.3,0.8,0.4,1.3,0.4h0.9v-1.3H86c-0.3,0-0.5-0.1-0.7-0.2c-0.1-0.1-0.2-0.4-0.2-0.7c-0.1-1.1-0.7-2-1.8-2.6l-0.7,1.1
	c0.7,0.4,1.1,1,1.1,1.8c0,0.4-0.2,0.6-0.5,0.6h-1.7L81,189H83.5z M84.1,182.6c0-0.2-0.1-0.4-0.2-0.5c-0.1-0.1-0.3-0.2-0.5-0.2
	s-0.4,0.1-0.5,0.2s-0.2,0.3-0.2,0.5c0,0.2,0.1,0.4,0.2,0.5c0.1,0.1,0.3,0.2,0.5,0.2C83.8,183.3,84.1,183.1,84.1,182.6z M80,190.7
	c0-0.2-0.1-0.4-0.2-0.5c-0.1-0.1-0.3-0.2-0.5-0.2c-0.5,0-0.7,0.2-0.7,0.7c0,0.2,0.1,0.4,0.2,0.5c0.1,0.1,0.3,0.2,0.5,0.2
	C79.8,191.4,80,191.1,80,190.7z M78.4,190.7c0-0.2-0.1-0.4-0.2-0.5c-0.1-0.1-0.3-0.2-0.5-0.2c-0.5,0-0.7,0.2-0.7,0.7
	c0,0.2,0.1,0.4,0.2,0.5c0.1,0.1,0.3,0.2,0.5,0.2C78.1,191.4,78.4,191.1,78.4,190.7z M78.2,189c0.6,0,1-0.2,1.3-0.5
	c0.4-0.4,0.6-0.9,0.6-1.5v-2.7l-1.3,0.7v1.9c0,0.3-0.1,0.5-0.2,0.6c-0.1,0.1-0.3,0.2-0.6,0.2h-0.9v1.3H78.2z M74.7,187.1
	c0,0.1,0,0.2,0,0.3c-0.1,0.2-0.4,0.3-0.6,0.3c-0.2,0-0.4-0.1-0.6-0.3c-0.1-0.2-0.2-0.4-0.2-0.7c0-0.3,0.1-0.6,0.2-0.7
	c0.1-0.2,0.3-0.3,0.6-0.3s0.4,0.1,0.6,0.2V187.1z M76.2,187.6c-0.1-0.1-0.2-0.3-0.2-0.6v-3.5l-1.3,0.7v0.3c-0.2-0.1-0.5-0.1-0.7-0.1
	c-0.5,0-0.9,0.2-1.3,0.5c-0.4,0.4-0.7,1-0.7,1.7c0,0.6,0.2,1,0.5,1.4c0.4,0.5,0.9,0.7,1.5,0.7c0.4,0,0.8-0.1,1.1-0.3
	c0.4,0.4,0.9,0.7,1.5,0.7h1.1v-1.3h-0.9C76.5,187.7,76.3,187.7,76.2,187.6z M75.7,182.4c0-0.2-0.1-0.4-0.2-0.5
	c-0.1-0.1-0.3-0.2-0.5-0.2c-0.5,0-0.7,0.2-0.7,0.7c0,0.2,0.1,0.4,0.2,0.5c0.1,0.1,0.3,0.2,0.5,0.2C75.5,183.1,75.7,182.8,75.7,182.4
	z M74.1,182.4c0-0.2-0.1-0.4-0.2-0.5c-0.1-0.1-0.3-0.2-0.5-0.2c-0.5,0-0.7,0.2-0.7,0.7c0,0.2,0.1,0.4,0.2,0.5
	c0.1,0.1,0.3,0.2,0.5,0.2C73.9,183.1,74.1,182.8,74.1,182.4z M69,187.4c-0.1,0.1-0.3,0.2-0.6,0.2c-0.5,0-0.8-0.4-0.8-1.1
	c0-0.4,0.1-0.6,0.2-0.8c0.1-0.2,0.3-0.3,0.6-0.3c0.4,0,0.6,0.2,0.6,0.7V187.4z M67.9,189.8c-0.4,0-0.8-0.1-1.1-0.3v1.1
	c0.4,0.2,0.9,0.4,1.3,0.4c0.7,0,1.3-0.2,1.7-0.7c0.4-0.5,0.7-1.1,0.7-2v-2.3c0-0.6-0.2-1-0.5-1.3c-0.4-0.4-0.8-0.6-1.5-0.6
	c-0.6,0-1.1,0.2-1.5,0.6c-0.4,0.4-0.6,1-0.6,1.8c0,0.6,0.2,1.1,0.5,1.5c0.4,0.5,0.9,0.7,1.5,0.7c0.2,0,0.5,0,0.7-0.1
	C68.9,189.5,68.6,189.8,67.9,189.8z M65,189v-6.8l-1.3,0.7v6.1H65z M60.6,186.8c0,0.3-0.1,0.6-0.2,0.7c-0.1,0.1-0.4,0.2-0.7,0.2
	h-0.5v-4.1l-1.3,0.7v3.4h-1.4l-0.7,1.3h4c0.6,0,1.1-0.2,1.5-0.6c0.4-0.4,0.6-1,0.6-1.6v-4.6l-1.3,0.7V186.8z M45.7,189
	c0.5,0,0.9-0.2,1.3-0.5c0.3,0.3,0.8,0.5,1.3,0.5h1c0.5,0,0.9-0.2,1.2-0.5c0.3,0.3,0.8,0.5,1.3,0.5h1c0.5,0,1-0.2,1.3-0.5
	c0.4-0.4,0.6-0.8,0.6-1.5v-2.7l-1.3,0.7v1.9c0,0.3-0.1,0.5-0.2,0.6c-0.1,0.1-0.3,0.2-0.6,0.2h-0.7c-0.3,0-0.5-0.1-0.6-0.2
	s-0.2-0.3-0.2-0.6v-2.4l-1.3,0.7v1.7c0,0.3-0.1,0.5-0.2,0.6c-0.1,0.1-0.3,0.2-0.6,0.2h-0.7c-0.3,0-0.5-0.1-0.6-0.2
	c-0.1-0.1-0.2-0.3-0.2-0.6v-2.1l-1.3,0.7v1.4c0,0.3-0.1,0.5-0.2,0.6s-0.3,0.2-0.6,0.2h-1.1v1.3H45.7z M43.6,187.6
	c-0.1-0.1-0.2-0.3-0.2-0.6v-2.6l-1.3,0.7v1.9c0,0.3-0.1,0.5-0.2,0.6c-0.1,0.1-0.3,0.2-0.6,0.2h-0.9v1.3h1.1c0.5,0,0.9-0.1,1.3-0.4
	c0.3,0.3,0.8,0.4,1.3,0.4h1.1v-1.3h-0.9C43.9,187.7,43.7,187.7,43.6,187.6z M43.7,182.7c0-0.2-0.1-0.4-0.2-0.5
	c-0.1-0.1-0.3-0.2-0.5-0.2c-0.2,0-0.4,0.1-0.5,0.2c-0.1,0.1-0.2,0.3-0.2,0.5c0,0.2,0.1,0.4,0.2,0.5c0.1,0.1,0.3,0.2,0.5,0.2
	C43.5,183.4,43.7,183.2,43.7,182.7z M42.1,182.7c0-0.2-0.1-0.4-0.2-0.5c-0.1-0.1-0.3-0.2-0.5-0.2s-0.4,0.1-0.5,0.2s-0.2,0.3-0.2,0.5
	c0,0.2,0.1,0.4,0.2,0.5s0.3,0.2,0.5,0.2C41.9,183.4,42.1,183.2,42.1,182.7z M39.5,187.6c-0.1-0.1-0.2-0.3-0.2-0.6v-2.6L38,185v1.9
	c0,0.3-0.1,0.5-0.2,0.6c-0.1,0.1-0.3,0.2-0.6,0.2h-0.9v1.3h1.1c0.5,0,0.9-0.1,1.3-0.4c0.3,0.3,0.8,0.4,1.3,0.4H41v-1.3h-0.9
	C39.8,187.7,39.6,187.7,39.5,187.6z M38.5,183.2c0.1,0.1,0.3,0.2,0.5,0.2c0.5,0,0.7-0.2,0.7-0.7c0-0.2-0.1-0.4-0.2-0.5
	c-0.1-0.1-0.3-0.2-0.5-0.2c-0.2,0-0.4,0.1-0.5,0.2s-0.2,0.3-0.2,0.5C38.3,182.9,38.3,183.1,38.5,183.2z M38,182.7
	c0-0.2-0.1-0.4-0.2-0.5c-0.1-0.1-0.3-0.2-0.5-0.2c-0.2,0-0.4,0.1-0.5,0.2s-0.2,0.3-0.2,0.5c0,0.2,0.1,0.4,0.2,0.5s0.3,0.2,0.5,0.2
	C37.8,183.4,38,183.2,38,182.7z M38.8,181.2c0-0.4-0.2-0.6-0.6-0.6c-0.2,0-0.4,0.1-0.5,0.2s-0.2,0.3-0.2,0.5c0,0.4,0.2,0.7,0.6,0.7
	C38.6,181.9,38.8,181.7,38.8,181.2z M32.4,186.7c0-0.8,0.3-1.3,0.8-1.3c0.5,0,0.8,0.4,0.8,1.3c0,0.9-0.3,1.3-0.8,1.3
	C32.6,188,32.4,187.5,32.4,186.7z M35.5,187.6c-0.1-0.1-0.2-0.3-0.2-0.6v-0.3c0-0.7-0.2-1.3-0.5-1.7c-0.4-0.5-0.9-0.8-1.6-0.8
	c-0.6,0-1.1,0.2-1.5,0.6c-0.4,0.5-0.6,1.1-0.6,1.9v0.3c0,0.3-0.1,0.5-0.2,0.6c-0.1,0.1-0.3,0.2-0.6,0.2h-0.9v1.3h1.1
	c0.5,0,0.9-0.1,1.3-0.4c0.4,0.4,0.9,0.6,1.5,0.6c0.6,0,1.1-0.2,1.5-0.6c0.3,0.3,0.7,0.4,1.2,0.4H37v-1.3H36
	C35.8,187.7,35.6,187.7,35.5,187.6z M30,189v-1.3H29c-0.3,0-0.5-0.1-0.6-0.2c-0.1-0.1-0.2-0.3-0.2-0.6v-4.8l-1.3,0.7v4.1
	c0,0.6,0.2,1,0.5,1.4c0.4,0.4,0.8,0.6,1.5,0.6H30z M25.3,184.3l-1.3,0.7v3.4c0,0.4-0.1,0.8-0.3,1c-0.2,0.2-0.5,0.4-0.9,0.4
	c-0.4,0-0.7-0.1-1.1-0.3v1.2c0.4,0.2,0.9,0.3,1.3,0.3c0.7,0,1.2-0.2,1.6-0.7c0.4-0.5,0.7-1.2,0.7-2V184.3z M20.9,190.7
	c0-0.2-0.1-0.4-0.2-0.5c-0.1-0.1-0.3-0.2-0.5-0.2c-0.5,0-0.7,0.2-0.7,0.7c0,0.2,0.1,0.4,0.2,0.5c0.1,0.1,0.3,0.2,0.5,0.2
	C20.7,191.4,20.9,191.1,20.9,190.7z M19.3,190.7c0-0.2-0.1-0.4-0.2-0.5c-0.1-0.1-0.3-0.2-0.5-0.2c-0.5,0-0.7,0.2-0.7,0.7
	c0,0.2,0.1,0.4,0.2,0.5c0.1,0.1,0.3,0.2,0.5,0.2C19,191.4,19.3,191.1,19.3,190.7z M19.1,189c0.6,0,1-0.2,1.3-0.5
	c0.4-0.4,0.6-0.9,0.6-1.5v-2.7l-1.3,0.7v1.9c0,0.3-0.1,0.5-0.2,0.6c-0.1,0.1-0.3,0.2-0.6,0.2H18v1.3H19.1z M15.6,187.1
	c0,0.1,0,0.2,0,0.3c-0.1,0.2-0.4,0.3-0.6,0.3c-0.2,0-0.4-0.1-0.6-0.3c-0.1-0.2-0.2-0.4-0.2-0.7c0-0.3,0.1-0.6,0.2-0.7
	c0.1-0.2,0.3-0.3,0.6-0.3s0.4,0.1,0.6,0.2V187.1z M17.1,187.6c-0.1-0.1-0.2-0.3-0.2-0.6v-3.5l-1.3,0.7v0.3c-0.2-0.1-0.5-0.1-0.7-0.1
	c-0.5,0-0.9,0.2-1.3,0.5c-0.4,0.4-0.7,1-0.7,1.7c0,0.6,0.2,1,0.5,1.4c0.4,0.5,0.9,0.7,1.5,0.7c0.4,0,0.8-0.1,1.1-0.3
	c0.4,0.4,0.9,0.7,1.5,0.7h1.1v-1.3h-0.9C17.4,187.7,17.2,187.7,17.1,187.6z M16.6,182.4c0-0.2-0.1-0.4-0.2-0.5
	c-0.1-0.1-0.3-0.2-0.5-0.2c-0.5,0-0.7,0.2-0.7,0.7c0,0.2,0.1,0.4,0.2,0.5c0.1,0.1,0.3,0.2,0.5,0.2C16.4,183.1,16.6,182.8,16.6,182.4
	z M15,182.4c0-0.2-0.1-0.4-0.2-0.5c-0.1-0.1-0.3-0.2-0.5-0.2c-0.5,0-0.7,0.2-0.7,0.7c0,0.2,0.1,0.4,0.2,0.5c0.1,0.1,0.3,0.2,0.5,0.2
	C14.8,183.1,15,182.8,15,182.4z"/>
<rect x="8.6" y="222.4" class="st4" width="69.6" height="42.6"/>
<path class="st2" d="M71.2,241.3c0.6,0,1.1-0.2,1.5-0.6c0.4-0.4,0.6-1,0.6-1.6v-4.6l-1.3,0.7v3.9c0,0.3-0.1,0.6-0.2,0.7
	c-0.1,0.1-0.4,0.2-0.7,0.2h-0.7v1.3H71.2z M66.8,242.5c-0.1,0.1-0.2,0.3-0.2,0.5c0,0.2,0.1,0.4,0.2,0.5s0.3,0.2,0.5,0.2
	c0.5,0,0.7-0.2,0.7-0.7c0-0.2-0.1-0.4-0.2-0.5c-0.1-0.1-0.3-0.2-0.5-0.2C67.1,242.3,66.9,242.3,66.8,242.5z M68.8,239.8
	c0.2-0.2,0.3-0.3,0.4-0.5v-0.5c-0.4-0.7-0.9-1.3-1.4-1.7c-0.5-0.4-1.1-0.6-1.6-0.6c-0.7,0-1.4,0.3-2,1v1.2c0.7-0.6,1.3-0.9,1.8-0.9
	c0.7,0,1.3,0.4,1.7,1.3c-0.7,0.7-1.7,1.1-2.9,1.1h-1.6v1.3h1.6c1.1,0,2.2-0.3,3-0.8c0.3,0.3,0.6,0.5,0.9,0.6
	c0.3,0.1,0.8,0.2,1.3,0.2h0.9V240h-0.9C69.6,240,69.1,240,68.8,239.8z M62.5,239.9c-0.1-0.1-0.2-0.3-0.2-0.6v-2.6l-1.3,0.7v1.9
	c0,0.3-0.1,0.5-0.2,0.6c-0.1,0.1-0.3,0.2-0.6,0.2h-0.9v1.3h1.1c0.5,0,0.9-0.1,1.3-0.4c0.3,0.3,0.8,0.4,1.3,0.4H64V240H63
	C62.8,240,62.6,240,62.5,239.9z M62,234.9c0-0.2-0.1-0.4-0.2-0.5c-0.1-0.1-0.3-0.2-0.5-0.2s-0.4,0.1-0.5,0.2s-0.2,0.3-0.2,0.5
	c0,0.2,0.1,0.4,0.2,0.5c0.1,0.1,0.3,0.2,0.5,0.2C61.8,235.6,62,235.4,62,234.9z M56.9,239.4c0,0.1,0,0.2,0,0.3
	c-0.1,0.2-0.4,0.3-0.6,0.3c-0.2,0-0.4-0.1-0.6-0.3c-0.1-0.2-0.2-0.4-0.2-0.7c0-0.3,0.1-0.6,0.2-0.7c0.1-0.2,0.3-0.3,0.6-0.3
	s0.4,0.1,0.6,0.2V239.4z M58.4,239.9c-0.1-0.1-0.2-0.3-0.2-0.6v-3.5l-1.3,0.7v0.3c-0.2-0.1-0.5-0.1-0.7-0.1c-0.5,0-0.9,0.2-1.3,0.5
	c-0.4,0.4-0.7,1-0.7,1.7c0,0.6,0.2,1,0.5,1.4c0.4,0.5,0.9,0.7,1.5,0.7c0.4,0,0.8-0.1,1.1-0.3c0.4,0.4,0.9,0.7,1.5,0.7h1.1V240H59
	C58.7,240,58.5,240,58.4,239.9z M57.9,234.7c0-0.2-0.1-0.4-0.2-0.5c-0.1-0.1-0.3-0.2-0.5-0.2c-0.5,0-0.7,0.2-0.7,0.7
	c0,0.2,0.1,0.4,0.2,0.5c0.1,0.1,0.3,0.2,0.5,0.2C57.7,235.4,57.9,235.1,57.9,234.7z M56.3,234.7c0-0.2-0.1-0.4-0.2-0.5
	c-0.1-0.1-0.3-0.2-0.5-0.2c-0.5,0-0.7,0.2-0.7,0.7c0,0.2,0.1,0.4,0.2,0.5c0.1,0.1,0.3,0.2,0.5,0.2C56,235.4,56.3,235.1,56.3,234.7z
	 M50.4,241.3v-6.8l-1.3,0.7v6.1H50.4z M45.1,241.3c0.6,0,1.1-0.2,1.5-0.6c0.4-0.4,0.6-1,0.6-1.6v-4.6l-1.3,0.7v3.9
	c0,0.3-0.1,0.6-0.2,0.7c-0.1,0.1-0.4,0.2-0.7,0.2h-0.7v1.3H45.1z M42.7,239.8c0.2-0.2,0.3-0.3,0.4-0.5v-0.5
	c-0.4-0.7-0.9-1.3-1.4-1.7c-0.5-0.4-1.1-0.6-1.6-0.6c-0.7,0-1.4,0.3-2,1v1.2c0.7-0.6,1.3-0.9,1.8-0.9c0.7,0,1.3,0.4,1.7,1.3
	c-0.7,0.7-1.7,1.1-2.9,1.1h-1.6v1.3h1.6c1.1,0,2.2-0.3,3-0.8c0.3,0.3,0.6,0.5,0.9,0.6c0.3,0.1,0.8,0.2,1.3,0.2H45V240h-0.9
	C43.4,240,43,240,42.7,239.8z M41.2,234.9c0-0.2-0.1-0.4-0.2-0.5c-0.1-0.1-0.3-0.2-0.5-0.2c-0.2,0-0.4,0.1-0.5,0.2s-0.2,0.3-0.2,0.5
	c0,0.2,0.1,0.4,0.2,0.5c0.1,0.1,0.3,0.2,0.5,0.2C40.9,235.6,41.2,235.4,41.2,234.9z M34.6,241.3c0.5,0,0.9-0.1,1.1-0.4
	c0.4,0.3,0.8,0.4,1.3,0.4h0.9V240h-0.8c-0.3,0-0.5-0.1-0.7-0.2c-0.1-0.1-0.2-0.4-0.2-0.7c-0.1-1.1-0.7-2-1.8-2.6l-0.7,1.1
	c0.7,0.4,1.1,1,1.1,1.8c0,0.4-0.2,0.6-0.5,0.6h-1.7l-0.7,1.3H34.6z M28.4,238.4c0-0.5,0.2-0.7,0.6-0.7c0.5,0,0.8,0.4,0.8,1.1
	c0,0.8-0.3,1.2-0.8,1.2c-0.4,0-0.6-0.2-0.6-0.6V238.4z M27.1,239.3c0,0.3-0.1,0.5-0.2,0.6c-0.1,0.1-0.3,0.2-0.6,0.2h-0.9v1.3h1.1
	c0.5,0,0.9-0.1,1.2-0.4c0.4,0.2,0.8,0.4,1.4,0.4c0.6,0,1-0.2,1.4-0.6c0.4-0.4,0.6-1.1,0.6-1.8c0-0.7-0.2-1.2-0.5-1.7
	c-0.4-0.5-0.9-0.8-1.6-0.8c-0.5,0-1,0.2-1.3,0.5c-0.4,0.4-0.6,0.9-0.6,1.5V239.3z M26,241.3V240h-0.9c-0.3,0-0.5-0.1-0.6-0.2
	c-0.1-0.1-0.2-0.3-0.2-0.6v-4.8l-1.3,0.7v4.1c0,0.6,0.2,1,0.5,1.4c0.4,0.4,0.8,0.6,1.5,0.6H26z M19.2,241.3c0.5,0,1-0.2,1.3-0.5
	c0.4-0.4,0.6-0.9,0.6-1.5v-2.7l-1.3,0.7v1.9c0,0.3-0.1,0.5-0.2,0.6c-0.1,0.1-0.3,0.2-0.6,0.2h-3.4c-0.3,0-0.5-0.1-0.6-0.2
	c-0.1-0.1-0.2-0.3-0.2-0.6v-1.7l-1.3,0.7v1.1c0,0.6,0.2,1,0.5,1.4c0.3,0.4,0.8,0.6,1.4,0.6H19.2z M18.7,235.7c0-0.2-0.1-0.4-0.2-0.5
	c-0.1-0.1-0.3-0.2-0.5-0.2c-0.5,0-0.7,0.2-0.7,0.7c0,0.2,0.1,0.4,0.2,0.5s0.3,0.2,0.5,0.2C18.5,236.4,18.7,236.2,18.7,235.7z
	 M17.1,235.7c0-0.2-0.1-0.4-0.2-0.5c-0.1-0.1-0.3-0.2-0.5-0.2s-0.4,0.1-0.5,0.2c-0.1,0.1-0.2,0.3-0.2,0.5c0,0.2,0.1,0.4,0.2,0.5
	c0.1,0.1,0.3,0.2,0.5,0.2C16.9,236.4,17.1,236.2,17.1,235.7z"/>
<path class="st2" d="M64.7,252.8V246l-1.3,0.7v6.1H64.7z M59.4,252.8c0.6,0,1.1-0.2,1.5-0.6c0.4-0.4,0.6-1,0.6-1.6V246l-1.3,0.7v3.9
	c0,0.3-0.1,0.6-0.2,0.7c-0.1,0.1-0.4,0.2-0.7,0.2h-0.7v1.3H59.4z M54.6,250.4c0-0.8,0.3-1.3,0.8-1.3c0.5,0,0.8,0.4,0.8,1.3
	c0,0.9-0.3,1.3-0.8,1.3C54.9,251.7,54.6,251.3,54.6,250.4z M57.7,251.4c-0.1-0.1-0.2-0.3-0.2-0.6v-0.3c0-0.7-0.2-1.3-0.5-1.7
	c-0.4-0.5-0.9-0.8-1.6-0.8c-0.6,0-1.1,0.2-1.5,0.6c-0.4,0.5-0.6,1.1-0.6,1.9v0.3c0,0.3-0.1,0.5-0.2,0.6c-0.1,0.1-0.3,0.2-0.6,0.2
	h-0.9v1.3h1.1c0.5,0,0.9-0.1,1.3-0.4c0.4,0.4,0.9,0.6,1.5,0.6c0.6,0,1.1-0.2,1.5-0.6c0.3,0.3,0.7,0.4,1.2,0.4h1.1v-1.3h-0.9
	C58,251.5,57.9,251.5,57.7,251.4z M41.4,252.8c0.5,0,0.9-0.2,1.3-0.5c0.3,0.3,0.8,0.5,1.3,0.5h1c0.5,0,0.9-0.2,1.2-0.5
	c0.3,0.3,0.8,0.5,1.3,0.5h1c0.5,0,1-0.2,1.3-0.5c0.4,0.3,0.8,0.5,1.4,0.5h1v-1.3h-1c-0.3,0-0.6-0.1-0.7-0.2
	c-0.1-0.1-0.2-0.4-0.2-0.7v-2.5l-1.3,0.7v1.9c0,0.3-0.1,0.5-0.2,0.6c-0.1,0.1-0.3,0.2-0.6,0.2h-0.7c-0.3,0-0.5-0.1-0.6-0.2
	s-0.2-0.3-0.2-0.6v-2.4l-1.3,0.7v1.7c0,0.3-0.1,0.5-0.2,0.6c-0.1,0.1-0.3,0.2-0.6,0.2h-0.7c-0.3,0-0.5-0.1-0.6-0.2
	c-0.1-0.1-0.2-0.3-0.2-0.6v-2.1l-1.3,0.7v1.4c0,0.3-0.1,0.5-0.2,0.6s-0.3,0.2-0.6,0.2h-1.1v1.3H41.4z M47.6,246.5
	c0-0.2-0.1-0.4-0.2-0.5c-0.1-0.1-0.3-0.2-0.5-0.2c-0.2,0-0.4,0.1-0.5,0.2s-0.2,0.3-0.2,0.5c0,0.2,0.1,0.4,0.2,0.5s0.3,0.2,0.5,0.2
	C47.4,247.2,47.6,247,47.6,246.5z M46,246.5c0-0.2-0.1-0.4-0.2-0.5c-0.1-0.1-0.3-0.2-0.5-0.2c-0.2,0-0.4,0.1-0.5,0.2
	s-0.2,0.3-0.2,0.5c0,0.2,0.1,0.4,0.2,0.5s0.3,0.2,0.5,0.2C45.8,247.2,46,247,46,246.5z M46.8,245c0-0.4-0.2-0.6-0.6-0.6
	c-0.4,0-0.6,0.2-0.6,0.6c0,0.4,0.2,0.6,0.6,0.6C46.6,245.7,46.8,245.4,46.8,245z M39.3,251.4c-0.1-0.1-0.2-0.3-0.2-0.6v-2.6
	l-1.3,0.7v1.9c0,0.3-0.1,0.5-0.2,0.6c-0.1,0.1-0.3,0.2-0.6,0.2h-0.9v1.3h1.1c0.5,0,0.9-0.1,1.3-0.4c0.3,0.3,0.8,0.4,1.3,0.4h1.1
	v-1.3h-0.9C39.6,251.5,39.4,251.5,39.3,251.4z M39.4,246.5c0-0.2-0.1-0.4-0.2-0.5c-0.1-0.1-0.3-0.2-0.5-0.2c-0.2,0-0.4,0.1-0.5,0.2
	c-0.1,0.1-0.2,0.3-0.2,0.5c0,0.2,0.1,0.4,0.2,0.5c0.1,0.1,0.3,0.2,0.5,0.2C39.2,247.2,39.4,247,39.4,246.5z M37.8,246.5
	c0-0.2-0.1-0.4-0.2-0.5c-0.1-0.1-0.3-0.2-0.5-0.2s-0.4,0.1-0.5,0.2s-0.2,0.3-0.2,0.5c0,0.2,0.1,0.4,0.2,0.5s0.3,0.2,0.5,0.2
	C37.6,247.2,37.8,247,37.8,246.5z M35.2,251.4c-0.1-0.1-0.2-0.3-0.2-0.6v-2.6l0,0v0l-0.5,0.2l-0.9,0.5v3.4c0,0.4-0.1,0.8-0.3,1
	c-0.2,0.2-0.5,0.4-0.9,0.4c-0.4,0-0.7-0.1-1.1-0.3v1.2c0.4,0.2,0.9,0.3,1.3,0.3c0.6,0,1.1-0.2,1.5-0.5c0.4-0.4,0.7-0.9,0.8-1.6
	c0.2,0.1,0.4,0.1,0.7,0.1h1.1v-1.3h-0.9C35.5,251.5,35.3,251.5,35.2,251.4z M31,246h-1.3l-2.1,2.4v1.3c0.4-0.1,0.8-0.2,1.1-0.2
	c0.5,0,0.9,0.1,1.1,0.4c0.3,0.2,0.4,0.5,0.4,0.9v0.1c0,0.5-0.2,0.7-0.7,0.7h-2.9v1.3h3c0.5,0,1-0.2,1.3-0.5c0.4-0.4,0.6-0.9,0.6-1.5
	v-0.1c0-0.9-0.4-1.6-1.1-2.1c-0.4-0.3-0.9-0.4-1.4-0.5L31,246z M24.2,250.8c0,0.1,0,0.2,0,0.3c-0.1,0.2-0.4,0.3-0.6,0.3
	c-0.2,0-0.4-0.1-0.6-0.3c-0.1-0.2-0.2-0.4-0.2-0.7c0-0.3,0.1-0.6,0.2-0.7c0.1-0.2,0.3-0.3,0.6-0.3s0.4,0.1,0.6,0.2V250.8z
	 M25.7,251.4c-0.1-0.1-0.2-0.3-0.2-0.6v-3.5l-1.3,0.7v0.3c-0.2-0.1-0.5-0.1-0.7-0.1c-0.5,0-0.9,0.2-1.3,0.5c-0.4,0.4-0.7,1-0.7,1.7
	c0,0.6,0.2,1,0.5,1.4c0.4,0.5,0.9,0.7,1.5,0.7c0.4,0,0.8-0.1,1.1-0.3c0.4,0.4,0.9,0.7,1.5,0.7h1.1v-1.3h-0.9
	C26,251.5,25.9,251.5,25.7,251.4z M25.2,246.2c0-0.2-0.1-0.4-0.2-0.5c-0.1-0.1-0.3-0.2-0.5-0.2c-0.5,0-0.7,0.2-0.7,0.7
	c0,0.2,0.1,0.4,0.2,0.5c0.1,0.1,0.3,0.2,0.5,0.2C25,246.9,25.2,246.6,25.2,246.2z M23.6,246.2c0-0.2-0.1-0.4-0.2-0.5
	c-0.1-0.1-0.3-0.2-0.5-0.2c-0.5,0-0.7,0.2-0.7,0.7c0,0.2,0.1,0.4,0.2,0.5c0.1,0.1,0.3,0.2,0.5,0.2C23.4,246.9,23.6,246.6,23.6,246.2
	z"/>
<polygon points="40.6,220.2 40.6,212.2 443.3,212.2 443.3,220.3 443.1,220.3 443.1,212.5 40.8,212.5 40.8,220.2 40.6,220.2 "/>
<rect x="208.2" y="172.2" class="st1" width="82.2" height="18.9"/>
<path class="st2" d="M285.7,185v-6.8l-1.3,0.7v6.1H285.7z M280.3,185c0.6,0,1.1-0.2,1.5-0.6c0.4-0.4,0.6-1,0.6-1.6v-4.6l-1.3,0.7
	v3.9c0,0.3-0.1,0.6-0.2,0.7c-0.1,0.1-0.4,0.2-0.7,0.2h-0.7v1.3H280.3z M278.7,183.6c-0.1-0.1-0.2-0.3-0.2-0.6v-2.6l0,0v0l-0.5,0.2
	l-0.9,0.5v3.4c0,0.4-0.1,0.8-0.3,1c-0.2,0.2-0.5,0.4-0.9,0.4c-0.4,0-0.7-0.1-1.1-0.3v1.2c0.4,0.2,0.9,0.3,1.3,0.3
	c0.6,0,1.1-0.2,1.5-0.5c0.4-0.4,0.7-0.9,0.8-1.6c0.2,0.1,0.4,0.1,0.7,0.1h1.1v-1.3h-0.9C279,183.7,278.8,183.7,278.7,183.6z
	 M272.9,185c0.6,0,1-0.2,1.3-0.5c0.4-0.4,0.6-0.9,0.6-1.5v-2.7l-1.3,0.7v1.9c0,0.3-0.1,0.5-0.2,0.6c-0.1,0.1-0.3,0.2-0.6,0.2h-0.9
	v1.3H272.9z M274.7,179.1l0.3-0.6h-1c-0.1-0.1-0.1-0.2-0.1-0.3c0-0.2,0.1-0.3,0.3-0.3c0.2,0,0.3,0.1,0.5,0.2v-0.6
	c-0.2-0.1-0.4-0.2-0.6-0.2c-0.2,0-0.4,0.1-0.6,0.2c-0.2,0.2-0.2,0.4-0.2,0.6c0,0.1,0,0.3,0.1,0.4h-0.3l-0.3,0.6H274.7z M269.7,186.7
	c0,0.2,0.1,0.4,0.2,0.5c0.1,0.1,0.3,0.2,0.5,0.2c0.5,0,0.7-0.2,0.7-0.7c0-0.2-0.1-0.4-0.2-0.5c-0.1-0.1-0.3-0.2-0.5-0.2
	C269.9,186,269.7,186.2,269.7,186.7z M268.1,186.7c0,0.2,0.1,0.4,0.2,0.5c0.1,0.1,0.3,0.2,0.5,0.2c0.5,0,0.7-0.2,0.7-0.7
	c0-0.2-0.1-0.4-0.2-0.5c-0.1-0.1-0.3-0.2-0.5-0.2C268.3,186,268.1,186.2,268.1,186.7z M270.9,183.6c-0.1-0.1-0.2-0.3-0.2-0.6v-2.6
	l-1.3,0.7v1.9c0,0.3-0.1,0.5-0.2,0.6c-0.1,0.1-0.3,0.2-0.6,0.2h-0.9v1.3h1.1c0.5,0,0.9-0.1,1.3-0.4c0.3,0.3,0.8,0.4,1.3,0.4h1.1
	v-1.3h-0.9C271.2,183.7,271,183.7,270.9,183.6z M266.7,183.5c-0.1-0.1-0.2-0.4-0.2-0.7v-2.5l-1.3,0.7v1.9c0,0.3-0.1,0.5-0.2,0.6
	c-0.1,0.1-0.3,0.2-0.6,0.2h-0.7c-0.3,0-0.5-0.1-0.6-0.2c-0.1-0.1-0.2-0.3-0.2-0.6v-2.4l-1.3,0.7v1.7c0,0.3-0.1,0.5-0.2,0.6
	c-0.1,0.1-0.3,0.2-0.6,0.2h-0.7c-0.3,0-0.5-0.1-0.6-0.2c-0.1-0.1-0.2-0.3-0.2-0.6v-2.1l-1.3,0.7v2.7c0,0.4-0.1,0.8-0.4,1
	c-0.3,0.2-0.6,0.4-1.1,0.4c-0.5,0-0.8-0.2-1.1-0.5c-0.3-0.3-0.5-0.8-0.5-1.3c0-0.5,0.1-1,0.4-1.5l-1.3,0.3c-0.3,0.4-0.4,0.9-0.4,1.5
	c0,0.7,0.2,1.3,0.6,1.8c0.5,0.7,1.3,1,2.2,1c0.7,0,1.3-0.2,1.8-0.5c0.5-0.4,0.9-0.9,1-1.6c0.2,0.1,0.4,0.1,0.7,0.1h1
	c0.5,0,0.9-0.1,1.2-0.4c0.3,0.3,0.8,0.4,1.3,0.4h1c0.5,0,1-0.2,1.3-0.5c0.4,0.3,0.9,0.5,1.4,0.5h1v-1.3h-1
	C267.1,183.7,266.9,183.7,266.7,183.5z M249.6,185v-6.8l-1.3,0.7v6.1H249.6z M244.2,185c0.6,0,1.1-0.2,1.5-0.6
	c0.4-0.4,0.6-1,0.6-1.6v-4.6l-1.3,0.7v3.9c0,0.3-0.1,0.6-0.2,0.7c-0.1,0.1-0.4,0.2-0.7,0.2h-0.7v1.3H244.2z M242.6,183.6
	c-0.1-0.1-0.2-0.3-0.2-0.6v-2.6l-1.3,0.7v1.9c0,0.3-0.1,0.5-0.2,0.6c-0.1,0.1-0.3,0.2-0.6,0.2h-0.9v1.3h1.1c0.5,0,0.9-0.1,1.3-0.4
	c0.3,0.3,0.8,0.4,1.3,0.4h1.1v-1.3h-0.9C242.9,183.7,242.7,183.7,242.6,183.6z M242.7,178.7c0-0.2-0.1-0.4-0.2-0.5
	c-0.1-0.1-0.3-0.2-0.5-0.2c-0.2,0-0.4,0.1-0.5,0.2c-0.1,0.1-0.2,0.3-0.2,0.5c0,0.2,0.1,0.4,0.2,0.5c0.1,0.1,0.3,0.2,0.5,0.2
	C242.5,179.4,242.7,179.2,242.7,178.7z M241.1,178.7c0-0.2-0.1-0.4-0.2-0.5c-0.1-0.1-0.3-0.2-0.5-0.2s-0.4,0.1-0.5,0.2
	c-0.1,0.1-0.2,0.3-0.2,0.5c0,0.2,0.1,0.4,0.2,0.5c0.1,0.1,0.3,0.2,0.5,0.2C240.9,179.4,241.1,179.2,241.1,178.7z M238.6,183.6
	c-0.1-0.1-0.2-0.3-0.2-0.6v-2.6l-1.3,0.7v1.9c0,0.3-0.1,0.5-0.2,0.6c-0.1,0.1-0.3,0.2-0.6,0.2h-0.9v1.3h1.1c0.5,0,0.9-0.1,1.3-0.4
	c0.3,0.3,0.8,0.4,1.3,0.4h1.1v-1.3h-0.9C238.9,183.7,238.7,183.7,238.6,183.6z M238.1,178.6c0-0.2-0.1-0.4-0.2-0.5
	c-0.1-0.1-0.3-0.2-0.5-0.2c-0.2,0-0.4,0.1-0.5,0.2c-0.1,0.1-0.2,0.3-0.2,0.5c0,0.2,0.1,0.4,0.2,0.5c0.1,0.1,0.3,0.2,0.5,0.2
	C237.9,179.3,238.1,179,238.1,178.6z M232.1,183.1c-0.1-0.2-0.2-0.5-0.2-0.8c0-0.6,0.3-1,0.8-1c0.2,0,0.4,0.1,0.6,0.3
	c0.1,0.2,0.2,0.4,0.2,0.7c0,0.3-0.1,0.5-0.2,0.7c-0.2,0.2-0.3,0.4-0.6,0.5C232.4,183.5,232.2,183.3,232.1,183.1z M234.7,182.4
	c0-0.6-0.2-1.1-0.5-1.5c-0.4-0.5-0.9-0.7-1.6-0.7c-0.6,0-1.1,0.2-1.5,0.6c-0.4,0.4-0.6,1-0.6,1.7c0,0.4,0.1,0.9,0.4,1.3h-1.7v1.3
	h2.5c0.3,0,0.6,0,0.8-0.1c0.2,0,0.5,0.1,0.8,0.1h2.5v-1.3h-1.7C234.6,183.3,234.7,182.9,234.7,182.4z M233.3,178.7
	c0-0.2-0.1-0.4-0.2-0.5c-0.1-0.1-0.3-0.2-0.5-0.2s-0.4,0.1-0.5,0.2c-0.1,0.1-0.2,0.3-0.2,0.5c0,0.2,0.1,0.4,0.2,0.5
	c0.1,0.1,0.3,0.2,0.5,0.2C233.1,179.4,233.3,179.2,233.3,178.7z M227.2,186.7c0,0.2,0.1,0.4,0.2,0.5c0.1,0.1,0.3,0.2,0.5,0.2
	c0.5,0,0.7-0.2,0.7-0.7c0-0.2-0.1-0.4-0.2-0.5c-0.1-0.1-0.3-0.2-0.5-0.2C227.4,186,227.2,186.2,227.2,186.7z M225.6,186.7
	c0,0.2,0.1,0.4,0.2,0.5c0.1,0.1,0.3,0.2,0.5,0.2c0.5,0,0.7-0.2,0.7-0.7c0-0.2-0.1-0.4-0.2-0.5c-0.1-0.1-0.3-0.2-0.5-0.2
	C225.8,186,225.6,186.2,225.6,186.7z M228.4,183.6c-0.1-0.1-0.2-0.3-0.2-0.6v-2.6L227,181v1.9c0,0.3-0.1,0.5-0.2,0.6
	c-0.1,0.1-0.3,0.2-0.6,0.2h-0.9v1.3h1.1c0.5,0,0.9-0.1,1.3-0.4c0.3,0.3,0.8,0.4,1.3,0.4h1.1v-1.3H229
	C228.7,183.7,228.6,183.7,228.4,183.6z M222.6,185c0.5,0,0.9-0.1,1.1-0.4c0.4,0.3,0.8,0.4,1.3,0.4h0.9v-1.3h-0.8
	c-0.3,0-0.5-0.1-0.7-0.2c-0.1-0.1-0.2-0.4-0.2-0.7c-0.1-1.1-0.7-2-1.8-2.6l-0.7,1.1c0.7,0.4,1.1,1,1.1,1.8c0,0.4-0.2,0.6-0.5,0.6
	h-1.7L220,185H222.6z M223.1,178.6c0-0.2-0.1-0.4-0.2-0.5c-0.1-0.1-0.3-0.2-0.5-0.2s-0.4,0.1-0.5,0.2c-0.1,0.1-0.2,0.3-0.2,0.5
	c0,0.2,0.1,0.4,0.2,0.5c0.1,0.1,0.3,0.2,0.5,0.2C222.9,179.3,223.1,179,223.1,178.6z M217.6,188.6c0-0.2-0.1-0.4-0.2-0.5
	c-0.1-0.1-0.3-0.2-0.5-0.2c-0.5,0-0.7,0.2-0.7,0.7c0,0.2,0.1,0.4,0.2,0.5c0.1,0.1,0.3,0.2,0.5,0.2
	C217.4,189.3,217.6,189.1,217.6,188.6z M216,188.6c0-0.2-0.1-0.4-0.2-0.5c-0.1-0.1-0.3-0.2-0.5-0.2c-0.2,0-0.4,0.1-0.5,0.2
	c-0.1,0.1-0.2,0.3-0.2,0.5c0,0.2,0.1,0.4,0.2,0.5c0.1,0.1,0.3,0.2,0.5,0.2C215.7,189.3,216,189.1,216,188.6z M218.7,181
	c-0.4-0.5-1-0.7-1.7-0.7c-0.4,0-0.8,0.1-1.1,0.4c-0.4,0.3-0.6,0.8-0.6,1.4c0,0.5,0.2,0.9,0.5,1.3c0.2,0.2,0.7,0.5,1.3,0.7
	c0.4,0.1,0.6,0.2,0.8,0.3c0.1,0.1,0.2,0.2,0.2,0.4c0,0.3-0.1,0.5-0.4,0.7c-0.4,0.2-0.9,0.3-1.5,0.3c-0.7,0-1.2-0.2-1.5-0.5
	c-0.4-0.3-0.5-0.7-0.5-1.3c0-0.5,0.1-1,0.4-1.5l-1.3,0.3c-0.3,0.4-0.4,0.9-0.4,1.5c0,0.7,0.2,1.3,0.7,1.8c0.6,0.7,1.5,1,2.6,1
	c0.9,0,1.7-0.2,2.3-0.6c0.7-0.4,1-1,1-1.7c0-0.5-0.2-0.8-0.5-1.1c-0.2-0.2-0.5-0.3-1-0.5c-0.5-0.2-0.8-0.3-1-0.5
	c-0.2-0.1-0.2-0.3-0.2-0.6c0-0.2,0.1-0.4,0.2-0.5c0.1-0.1,0.3-0.2,0.5-0.2c0.5,0,0.9,0.2,1.5,0.7V181z"/>
<polyline points="249.4,194 249.4,220.3 249.2,220.3 249.2,194 "/>
<rect x="109" y="222.4" class="st4" width="69.6" height="42.6"/>
<path class="st2" d="M150.9,241.3c0.6,0,1.1-0.2,1.5-0.6c0.4-0.4,0.6-1,0.6-1.6v-4.6l-1.3,0.7v3.9c0,0.3-0.1,0.6-0.2,0.7
	c-0.1,0.1-0.4,0.2-0.7,0.2h-0.7v1.3H150.9z M146.5,242.5c-0.1,0.1-0.2,0.3-0.2,0.5c0,0.2,0.1,0.4,0.2,0.5s0.3,0.2,0.5,0.2
	c0.5,0,0.7-0.2,0.7-0.7c0-0.2-0.1-0.4-0.2-0.5c-0.1-0.1-0.3-0.2-0.5-0.2S146.6,242.3,146.5,242.5z M148.5,239.8
	c0.2-0.2,0.3-0.3,0.4-0.5v-0.5c-0.4-0.7-0.9-1.3-1.4-1.7c-0.5-0.4-1.1-0.6-1.6-0.6c-0.7,0-1.4,0.3-2,1v1.2c0.7-0.6,1.3-0.9,1.8-0.9
	c0.7,0,1.3,0.4,1.7,1.3c-0.7,0.7-1.7,1.1-2.9,1.1h-1.6v1.3h1.6c1.1,0,2.2-0.3,3-0.8c0.3,0.3,0.6,0.5,0.9,0.6
	c0.3,0.1,0.8,0.2,1.3,0.2h0.9V240h-0.9C149.3,240,148.8,240,148.5,239.8z M142.2,239.9c-0.1-0.1-0.2-0.3-0.2-0.6v-2.6l-1.3,0.7v1.9
	c0,0.3-0.1,0.5-0.2,0.6c-0.1,0.1-0.3,0.2-0.6,0.2H139v1.3h1.1c0.5,0,0.9-0.1,1.3-0.4c0.3,0.3,0.8,0.4,1.3,0.4h1.1V240h-0.9
	C142.5,240,142.3,240,142.2,239.9z M141.7,234.9c0-0.2-0.1-0.4-0.2-0.5c-0.1-0.1-0.3-0.2-0.5-0.2c-0.2,0-0.4,0.1-0.5,0.2
	s-0.2,0.3-0.2,0.5c0,0.2,0.1,0.4,0.2,0.5c0.1,0.1,0.3,0.2,0.5,0.2C141.5,235.6,141.7,235.4,141.7,234.9z M136.6,239.4
	c0,0.1,0,0.2,0,0.3c-0.1,0.2-0.4,0.3-0.6,0.3c-0.2,0-0.4-0.1-0.6-0.3c-0.1-0.2-0.2-0.4-0.2-0.7c0-0.3,0.1-0.6,0.2-0.7
	c0.1-0.2,0.3-0.3,0.6-0.3s0.4,0.1,0.6,0.2V239.4z M138.1,239.9c-0.1-0.1-0.2-0.3-0.2-0.6v-3.5l-1.3,0.7v0.3
	c-0.2-0.1-0.5-0.1-0.7-0.1c-0.5,0-0.9,0.2-1.3,0.5c-0.4,0.4-0.7,1-0.7,1.7c0,0.6,0.2,1,0.5,1.4c0.4,0.5,0.9,0.7,1.5,0.7
	c0.4,0,0.8-0.1,1.1-0.3c0.4,0.4,0.9,0.7,1.5,0.7h1.1V240h-0.9C138.4,240,138.2,240,138.1,239.9z M137.6,234.7c0-0.2-0.1-0.4-0.2-0.5
	c-0.1-0.1-0.3-0.2-0.5-0.2c-0.5,0-0.7,0.2-0.7,0.7c0,0.2,0.1,0.4,0.2,0.5c0.1,0.1,0.3,0.2,0.5,0.2
	C137.4,235.4,137.6,235.1,137.6,234.7z M136,234.7c0-0.2-0.1-0.4-0.2-0.5c-0.1-0.1-0.3-0.2-0.5-0.2c-0.5,0-0.7,0.2-0.7,0.7
	c0,0.2,0.1,0.4,0.2,0.5c0.1,0.1,0.3,0.2,0.5,0.2C135.7,235.4,136,235.1,136,234.7z"/>
<path class="st2" d="M168.3,252.8V246l-1.3,0.7v6.1H168.3z M162.9,252.8c0.6,0,1.1-0.2,1.5-0.6c0.4-0.4,0.6-1,0.6-1.6V246l-1.3,0.7
	v3.9c0,0.3-0.1,0.6-0.2,0.7c-0.1,0.1-0.4,0.2-0.7,0.2h-0.7v1.3H162.9z M158.2,250.4c0-0.8,0.3-1.3,0.8-1.3c0.5,0,0.8,0.4,0.8,1.3
	c0,0.9-0.3,1.3-0.8,1.3C158.5,251.7,158.2,251.3,158.2,250.4z M161.3,251.4c-0.1-0.1-0.2-0.3-0.2-0.6v-0.3c0-0.7-0.2-1.3-0.5-1.7
	c-0.4-0.5-0.9-0.8-1.6-0.8c-0.6,0-1.1,0.2-1.5,0.6c-0.4,0.5-0.6,1.1-0.6,1.9v0.3c0,0.3-0.1,0.5-0.2,0.6c-0.1,0.1-0.3,0.2-0.6,0.2
	h-0.9v1.3h1.1c0.5,0,0.9-0.1,1.3-0.4c0.4,0.4,0.9,0.6,1.5,0.6c0.6,0,1.1-0.2,1.5-0.6c0.3,0.3,0.7,0.4,1.2,0.4h1.1v-1.3h-0.9
	C161.6,251.5,161.4,251.5,161.3,251.4z M145,252.8c0.5,0,0.9-0.2,1.3-0.5c0.3,0.3,0.8,0.5,1.3,0.5h1c0.5,0,0.9-0.2,1.2-0.5
	c0.3,0.3,0.8,0.5,1.3,0.5h1c0.5,0,1-0.2,1.3-0.5c0.4,0.3,0.8,0.5,1.4,0.5h1v-1.3h-1c-0.3,0-0.6-0.1-0.7-0.2
	c-0.1-0.1-0.2-0.4-0.2-0.7v-2.5l-1.3,0.7v1.9c0,0.3-0.1,0.5-0.2,0.6c-0.1,0.1-0.3,0.2-0.6,0.2h-0.7c-0.3,0-0.5-0.1-0.6-0.2
	c-0.1-0.1-0.2-0.3-0.2-0.6v-2.4l-1.3,0.7v1.7c0,0.3-0.1,0.5-0.2,0.6c-0.1,0.1-0.3,0.2-0.6,0.2h-0.7c-0.3,0-0.5-0.1-0.6-0.2
	c-0.1-0.1-0.2-0.3-0.2-0.6v-2.1l-1.3,0.7v1.4c0,0.3-0.1,0.5-0.2,0.6s-0.3,0.2-0.6,0.2h-1.1v1.3H145z M151.2,246.5
	c0-0.2-0.1-0.4-0.2-0.5c-0.1-0.1-0.3-0.2-0.5-0.2c-0.2,0-0.4,0.1-0.5,0.2s-0.2,0.3-0.2,0.5c0,0.2,0.1,0.4,0.2,0.5s0.3,0.2,0.5,0.2
	C151,247.2,151.2,247,151.2,246.5z M149.6,246.5c0-0.2-0.1-0.4-0.2-0.5c-0.1-0.1-0.3-0.2-0.5-0.2c-0.2,0-0.4,0.1-0.5,0.2
	s-0.2,0.3-0.2,0.5c0,0.2,0.1,0.4,0.2,0.5s0.3,0.2,0.5,0.2C149.4,247.2,149.6,247,149.6,246.5z M150.3,245c0-0.4-0.2-0.6-0.6-0.6
	c-0.4,0-0.6,0.2-0.6,0.6c0,0.4,0.2,0.6,0.6,0.6C150.1,245.7,150.3,245.4,150.3,245z M142.9,251.4c-0.1-0.1-0.2-0.3-0.2-0.6v-2.6
	l-1.3,0.7v1.9c0,0.3-0.1,0.5-0.2,0.6c-0.1,0.1-0.3,0.2-0.6,0.2h-0.9v1.3h1.1c0.5,0,0.9-0.1,1.3-0.4c0.3,0.3,0.8,0.4,1.3,0.4h1.1
	v-1.3h-0.9C143.2,251.5,143,251.5,142.9,251.4z M143,246.5c0-0.2-0.1-0.4-0.2-0.5c-0.1-0.1-0.3-0.2-0.5-0.2c-0.2,0-0.4,0.1-0.5,0.2
	c-0.1,0.1-0.2,0.3-0.2,0.5c0,0.2,0.1,0.4,0.2,0.5c0.1,0.1,0.3,0.2,0.5,0.2C142.8,247.2,143,247,143,246.5z M141.4,246.5
	c0-0.2-0.1-0.4-0.2-0.5c-0.1-0.1-0.3-0.2-0.5-0.2s-0.4,0.1-0.5,0.2c-0.1,0.1-0.2,0.3-0.2,0.5c0,0.2,0.1,0.4,0.2,0.5
	c0.1,0.1,0.3,0.2,0.5,0.2C141.1,247.2,141.4,247,141.4,246.5z M138.8,251.4c-0.1-0.1-0.2-0.3-0.2-0.6v-2.6l0,0v0l-0.5,0.2l-0.9,0.5
	v3.4c0,0.4-0.1,0.8-0.3,1c-0.2,0.2-0.5,0.4-0.9,0.4c-0.4,0-0.7-0.1-1.1-0.3v1.2c0.4,0.2,0.9,0.3,1.3,0.3c0.6,0,1.1-0.2,1.5-0.5
	c0.4-0.4,0.7-0.9,0.8-1.6c0.2,0.1,0.4,0.1,0.7,0.1h1.1v-1.3h-0.9C139.1,251.5,138.9,251.5,138.8,251.4z M134,254.4
	c0-0.2-0.1-0.4-0.2-0.5c-0.1-0.1-0.3-0.2-0.5-0.2c-0.5,0-0.7,0.2-0.7,0.7c0,0.2,0.1,0.4,0.2,0.5c0.1,0.1,0.3,0.2,0.5,0.2
	C133.8,255.1,134,254.9,134,254.4z M132.4,254.4c0-0.2-0.1-0.4-0.2-0.5c-0.1-0.1-0.3-0.2-0.5-0.2c-0.5,0-0.7,0.2-0.7,0.7
	c0,0.2,0.1,0.4,0.2,0.5c0.1,0.1,0.3,0.2,0.5,0.2C132.2,255.1,132.4,254.9,132.4,254.4z M132.2,252.8c0.6,0,1-0.2,1.3-0.5
	c0.4-0.4,0.6-0.9,0.6-1.5v-2.7l-1.3,0.7v1.9c0,0.3-0.1,0.5-0.2,0.6c-0.1,0.1-0.3,0.2-0.6,0.2h-0.9v1.3H132.2z M131.8,252.8v-1.3
	h-0.9c-0.3,0-0.5-0.1-0.6-0.2c-0.1-0.1-0.2-0.3-0.2-0.6V246l-1.3,0.7v4.1c0,0.6,0.2,1,0.5,1.4c0.4,0.4,0.8,0.6,1.5,0.6H131.8z
	 M124.9,252.8c0.5,0,1-0.2,1.3-0.5c0.4-0.4,0.6-0.9,0.6-1.5v-2.7l-1.3,0.7v1.9c0,0.3-0.1,0.5-0.2,0.6c-0.1,0.1-0.3,0.2-0.6,0.2h-3.4
	c-0.3,0-0.5-0.1-0.6-0.2s-0.2-0.3-0.2-0.6v-1.7l-1.3,0.7v1.1c0,0.6,0.2,1,0.5,1.4c0.3,0.4,0.8,0.6,1.4,0.6H124.9z M124.5,247.2
	c0-0.2-0.1-0.4-0.2-0.5c-0.1-0.1-0.3-0.2-0.5-0.2c-0.5,0-0.7,0.2-0.7,0.7c0,0.2,0.1,0.4,0.2,0.5c0.1,0.1,0.3,0.2,0.5,0.2
	C124.3,247.9,124.5,247.7,124.5,247.2z M122.9,247.2c0-0.2-0.1-0.4-0.2-0.5c-0.1-0.1-0.3-0.2-0.5-0.2c-0.2,0-0.4,0.1-0.5,0.2
	c-0.1,0.1-0.2,0.3-0.2,0.5c0,0.2,0.1,0.4,0.2,0.5c0.1,0.1,0.3,0.2,0.5,0.2C122.6,247.9,122.9,247.7,122.9,247.2z"/>
<polyline points="141.2,212.4 141.2,220.4 141,220.4 141,212.4 "/>
<rect x="209.3" y="223.2" class="st4" width="69.6" height="42.1"/>
<path class="st2" d="M263,236.1c0.6,0,1.1-0.2,1.5-0.6c0.4-0.4,0.6-1,0.6-1.6v-4.6l-1.3,0.7v3.9c0,0.3-0.1,0.6-0.2,0.7
	c-0.1,0.1-0.4,0.2-0.7,0.2h-0.7v1.3H263z M258.6,237.3c-0.1,0.1-0.2,0.3-0.2,0.5c0,0.2,0.1,0.4,0.2,0.5c0.1,0.1,0.3,0.2,0.5,0.2
	c0.5,0,0.7-0.2,0.7-0.7c0-0.2-0.1-0.4-0.2-0.5c-0.1-0.1-0.3-0.2-0.5-0.2S258.7,237.1,258.6,237.3z M260.6,234.6
	c0.2-0.2,0.3-0.3,0.4-0.5v-0.5c-0.4-0.7-0.9-1.3-1.4-1.7c-0.5-0.4-1.1-0.6-1.6-0.6c-0.7,0-1.4,0.3-2,1v1.2c0.7-0.6,1.3-0.9,1.8-0.9
	c0.7,0,1.3,0.4,1.7,1.3c-0.7,0.7-1.7,1.1-2.9,1.1h-1.6v1.3h1.6c1.1,0,2.2-0.3,3-0.8c0.3,0.3,0.6,0.5,0.9,0.6
	c0.3,0.1,0.8,0.2,1.3,0.2h0.9v-1.3H262C261.4,234.8,260.9,234.8,260.6,234.6z M254.3,234.7c-0.1-0.1-0.2-0.3-0.2-0.6v-2.6l-1.3,0.7
	v1.9c0,0.3-0.1,0.5-0.2,0.6c-0.1,0.1-0.3,0.2-0.6,0.2h-0.9v1.3h1.1c0.5,0,0.9-0.1,1.3-0.4c0.3,0.3,0.8,0.4,1.3,0.4h1.1v-1.3h-0.9
	C254.6,234.8,254.4,234.8,254.3,234.7z M253.8,229.7c0-0.2-0.1-0.4-0.2-0.5c-0.1-0.1-0.3-0.2-0.5-0.2c-0.2,0-0.4,0.1-0.5,0.2
	c-0.1,0.1-0.2,0.3-0.2,0.5c0,0.2,0.1,0.4,0.2,0.5c0.1,0.1,0.3,0.2,0.5,0.2C253.6,230.4,253.8,230.1,253.8,229.7z M248.7,234.1
	c0,0.1,0,0.2,0,0.3c-0.1,0.2-0.4,0.3-0.6,0.3c-0.2,0-0.4-0.1-0.6-0.3c-0.1-0.2-0.2-0.4-0.2-0.7c0-0.3,0.1-0.6,0.2-0.7
	c0.1-0.2,0.3-0.3,0.6-0.3c0.2,0,0.4,0.1,0.6,0.2V234.1z M250.2,234.7c-0.1-0.1-0.2-0.3-0.2-0.6v-3.5l-1.3,0.7v0.3
	c-0.2-0.1-0.5-0.1-0.7-0.1c-0.5,0-0.9,0.2-1.3,0.5c-0.4,0.4-0.7,1-0.7,1.7c0,0.6,0.2,1,0.5,1.4c0.4,0.5,0.9,0.7,1.5,0.7
	c0.4,0,0.8-0.1,1.1-0.3c0.4,0.4,0.9,0.7,1.5,0.7h1.1v-1.3h-0.9C250.5,234.8,250.3,234.8,250.2,234.7z M249.7,229.5
	c0-0.2-0.1-0.4-0.2-0.5c-0.1-0.1-0.3-0.2-0.5-0.2c-0.5,0-0.7,0.2-0.7,0.7c0,0.2,0.1,0.4,0.2,0.5c0.1,0.1,0.3,0.2,0.5,0.2
	C249.4,230.2,249.7,229.9,249.7,229.5z M248.1,229.5c0-0.2-0.1-0.4-0.2-0.5c-0.1-0.1-0.3-0.2-0.5-0.2c-0.5,0-0.7,0.2-0.7,0.7
	c0,0.2,0.1,0.4,0.2,0.5c0.1,0.1,0.3,0.2,0.5,0.2C247.8,230.2,248.1,229.9,248.1,229.5z M242.4,239l0.3-0.6h-1
	c-0.1-0.1-0.1-0.2-0.1-0.3c0-0.2,0.1-0.3,0.3-0.3c0.2,0,0.3,0.1,0.5,0.2v-0.6c-0.2-0.1-0.4-0.2-0.6-0.2c-0.2,0-0.4,0.1-0.6,0.2
	c-0.2,0.2-0.2,0.4-0.2,0.6c0,0.1,0,0.3,0.1,0.4h-0.3l-0.3,0.6H242.4z M242.2,236.1v-6.8l-1.3,0.7v6.1H242.2z M237.6,236.1
	c1.1,0,1.6-0.6,1.6-1.9c0-1.2-0.6-2.2-1.8-2.9l-0.7,1.1c0.7,0.4,1.1,1,1.1,1.8c0,0.4-0.2,0.6-0.5,0.6h-1.7l-0.7,1.3H237.6z
	 M234,236.1v-6.8l-1.3,0.7v6.1H234z M230.8,231.4l-1.3,0.7v3.4c0,0.4-0.1,0.8-0.3,1c-0.2,0.2-0.5,0.4-0.9,0.4
	c-0.4,0-0.7-0.1-1.1-0.3v1.2c0.4,0.2,0.9,0.3,1.3,0.3c0.7,0,1.2-0.2,1.6-0.7c0.4-0.5,0.7-1.2,0.7-2V231.4z M224.3,233.9
	c0-0.7,0.3-1.1,0.8-1.4c0.5,0.3,0.8,0.8,0.8,1.5c0,0.6-0.2,0.9-0.7,0.9h-0.1C224.6,234.8,224.3,234.5,224.3,233.9z M225.2,236.1
	c0.6,0,1.1-0.2,1.4-0.5c0.4-0.4,0.6-0.9,0.6-1.6c0-0.6-0.2-1.1-0.5-1.6c-0.4-0.5-0.9-0.9-1.6-1.1c-0.7,0.2-1.2,0.6-1.6,1
	c-0.4,0.5-0.5,1-0.5,1.7c0,0.6,0.2,1.1,0.5,1.5c0.4,0.4,0.9,0.7,1.6,0.7H225.2z M226.6,229.5c0-0.2-0.1-0.4-0.2-0.5
	c-0.1-0.1-0.3-0.2-0.5-0.2s-0.4,0.1-0.5,0.2c-0.1,0.1-0.2,0.3-0.2,0.5c0,0.2,0.1,0.4,0.2,0.5c0.1,0.1,0.3,0.2,0.5,0.2
	C226.3,230.2,226.6,229.9,226.6,229.5z M225,229.5c0-0.2-0.1-0.4-0.2-0.5c-0.1-0.1-0.3-0.2-0.5-0.2c-0.5,0-0.7,0.2-0.7,0.7
	c0,0.2,0.1,0.4,0.2,0.5c0.1,0.1,0.3,0.2,0.5,0.2C224.7,230.2,225,229.9,225,229.5z"/>
<path class="st2" d="M260.3,247.6v-6.8l-1.3,0.7v6.1H260.3z M255.8,245.4c0,0.3-0.1,0.6-0.2,0.7c-0.1,0.1-0.4,0.2-0.7,0.2h-0.5v-4.1
	l-1.3,0.7v3.4h-1.4l-0.7,1.3h4c0.6,0,1.1-0.2,1.5-0.6c0.4-0.4,0.6-1,0.6-1.6v-4.6l-1.3,0.7V245.4z M253.8,240.9
	c-0.1-0.1-0.1-0.2-0.1-0.3c0-0.2,0.1-0.3,0.3-0.3c0.2,0,0.3,0.1,0.5,0.2v-0.6c-0.2-0.1-0.4-0.2-0.6-0.2c-0.2,0-0.4,0.1-0.6,0.2
	c-0.2,0.2-0.2,0.4-0.2,0.6c0,0.1,0,0.3,0.1,0.4h-0.3l-0.3,0.6h2l0.3-0.6H253.8z M248.6,246.2c-0.1,0.1-0.3,0.2-0.5,0.2h-3.3
	c0.3-0.7,0.6-1.3,1.1-1.7c0.5-0.4,1-0.6,1.5-0.6c0.4,0,0.7,0.1,0.9,0.4c0.2,0.3,0.4,0.6,0.4,1v0.1
	C248.8,245.8,248.7,246,248.6,246.2z M243,245.6v-2.1l-1.3,0.7v1.4c0,0.3-0.1,0.5-0.2,0.6c-0.1,0.1-0.3,0.2-0.6,0.2H240v1.3h1.1
	c0.5,0,0.9-0.1,1.3-0.4c0.3,0.3,0.8,0.4,1.3,0.4h4.5c0.5,0,1-0.2,1.3-0.5c0.4-0.4,0.6-0.9,0.6-1.5v-0.2c0-0.7-0.2-1.3-0.6-1.8
	c-0.5-0.6-1.2-0.9-2-0.9c-0.9,0-1.7,0.4-2.5,1.1c-0.6,0.6-1.1,1.5-1.5,2.5C243.2,246.3,243,246,243,245.6z M238,246.3
	c-0.2,0-0.4,0-0.5-0.1c-0.6-0.1-0.9-0.5-0.9-1.1c0-0.8,0.3-1.1,0.8-1.1c0.4,0,0.6,0.2,0.6,0.7V246.3z M239.3,246.3v-1.6
	c0-0.6-0.2-1-0.5-1.3c-0.4-0.4-0.8-0.6-1.5-0.6c-0.6,0-1.1,0.2-1.5,0.6c-0.4,0.4-0.6,1.1-0.6,1.8c0,0.6,0.2,1.1,0.5,1.5
	c0.4,0.5,1,0.8,1.7,0.9c0.1,0,0.2,0,0.3,0c0.1,0,0.2,0,0.3,0c0,0.2-0.1,0.4-0.4,0.6c-0.2,0.2-0.5,0.2-0.8,0.2
	c-0.4,0-0.8-0.1-1.1-0.3v1.1c0.4,0.2,0.9,0.4,1.3,0.4c0.6,0,1.1-0.2,1.5-0.5c0.5-0.4,0.8-0.9,0.8-1.5h1.3v-1.3H239.3z M233.7,240.8
	l-1.3,0.7v5.2c0,0.5-0.2,0.9-0.5,1.2c-0.3,0.3-0.7,0.4-1.2,0.4c-0.5,0-0.9-0.2-1.2-0.5s-0.5-0.7-0.5-1.2c0-0.6,0.1-1.1,0.4-1.6
	l-1.3,0.3c-0.3,0.4-0.4,0.9-0.4,1.5c0,0.7,0.2,1.3,0.6,1.8c0.5,0.7,1.3,1,2.3,1c0.8,0,1.5-0.2,2.1-0.7c0.6-0.5,0.9-1.3,0.9-2.2
	V240.8z"/>
<path class="st2" d="M267.5,257.5c-0.1,0.1-0.3,0.2-0.6,0.2c-0.5,0-0.8-0.4-0.8-1.1c0-0.4,0.1-0.6,0.2-0.8c0.1-0.2,0.3-0.3,0.6-0.3
	c0.4,0,0.6,0.2,0.6,0.7V257.5z M266.3,259.9c-0.4,0-0.8-0.1-1.1-0.3v1.1c0.4,0.2,0.9,0.4,1.3,0.4c0.7,0,1.3-0.2,1.7-0.7
	c0.4-0.5,0.7-1.1,0.7-2v-2.3c0-0.6-0.2-1-0.5-1.3c-0.4-0.4-0.8-0.6-1.5-0.6c-0.6,0-1.1,0.2-1.5,0.6c-0.4,0.4-0.6,1-0.6,1.8
	c0,0.6,0.2,1.1,0.5,1.5c0.4,0.5,0.9,0.7,1.5,0.7c0.2,0,0.5,0,0.7-0.1C267.4,259.5,267,259.9,266.3,259.9z M263.2,259.1v-6.8
	l-1.3,0.7v6.1H263.2z M258.7,256.9c0,0.3-0.1,0.6-0.2,0.7c-0.1,0.1-0.4,0.2-0.7,0.2h-0.5v-4.1l-1.3,0.7v3.4h-1.4l-0.7,1.3h4
	c0.6,0,1.1-0.2,1.5-0.6c0.4-0.4,0.6-1,0.6-1.6v-4.6l-1.3,0.7V256.9z M250.6,259.1c0.6,0,1.1-0.2,1.5-0.6c0.4-0.4,0.6-1,0.6-1.6v-4.6
	l-1.3,0.7v3.9c0,0.3-0.1,0.6-0.2,0.7c-0.1,0.1-0.4,0.2-0.7,0.2h-0.7v1.3H250.6z M248.9,257.6c-0.1-0.1-0.2-0.3-0.2-0.6v-2.6
	l-1.3,0.7v1.9c0,0.3-0.1,0.5-0.2,0.6c-0.1,0.1-0.3,0.2-0.6,0.2h-0.9v1.3h1.1c0.5,0,0.9-0.1,1.3-0.4c0.3,0.3,0.8,0.4,1.3,0.4h1.1
	v-1.3h-0.9C249.3,257.8,249.1,257.7,248.9,257.6z M249.1,252.8c0-0.2-0.1-0.4-0.2-0.5c-0.1-0.1-0.3-0.2-0.5-0.2
	c-0.2,0-0.4,0.1-0.5,0.2c-0.1,0.1-0.2,0.3-0.2,0.5c0,0.2,0.1,0.4,0.2,0.5c0.1,0.1,0.3,0.2,0.5,0.2
	C248.8,253.5,249.1,253.2,249.1,252.8z M247.5,252.8c0-0.2-0.1-0.4-0.2-0.5c-0.1-0.1-0.3-0.2-0.5-0.2c-0.2,0-0.4,0.1-0.5,0.2
	c-0.1,0.1-0.2,0.3-0.2,0.5c0,0.2,0.1,0.4,0.2,0.5c0.1,0.1,0.3,0.2,0.5,0.2C247.2,253.5,247.5,253.2,247.5,252.8z M244.9,257.6
	c-0.1-0.1-0.2-0.3-0.2-0.6v-2.6l0,0v0l-0.5,0.2l-0.9,0.5v3.4c0,0.4-0.1,0.8-0.3,1c-0.2,0.2-0.5,0.4-0.9,0.4c-0.4,0-0.7-0.1-1.1-0.3
	v1.2c0.4,0.2,0.9,0.3,1.3,0.3c0.6,0,1.1-0.2,1.5-0.5c0.4-0.4,0.7-0.9,0.8-1.6c0.2,0.1,0.4,0.1,0.7,0.1h1.1v-1.3h-0.9
	C245.2,257.8,245,257.7,244.9,257.6z M244.7,252.6c0-0.2-0.1-0.4-0.2-0.5c-0.1-0.1-0.3-0.2-0.5-0.2s-0.4,0.1-0.5,0.2
	s-0.2,0.3-0.2,0.5c0,0.2,0.1,0.4,0.2,0.5c0.1,0.1,0.3,0.2,0.5,0.2C244.4,253.3,244.7,253.1,244.7,252.6z M240.2,259.1v-6.8l-1.3,0.7
	v6.1H240.2z M234.5,256.1c0-0.5,0.2-0.7,0.6-0.7c0.5,0,0.8,0.4,0.8,1.1c0,0.8-0.3,1.2-0.8,1.2c-0.4,0-0.6-0.2-0.6-0.6V256.1z
	 M233.1,257c0,0.3-0.1,0.5-0.2,0.6c-0.1,0.1-0.3,0.2-0.6,0.2h-0.9v1.3h1.1c0.5,0,0.9-0.1,1.2-0.4c0.4,0.2,0.8,0.4,1.4,0.4
	c0.6,0,1-0.2,1.4-0.6c0.4-0.4,0.6-1.1,0.6-1.8c0-0.7-0.2-1.2-0.5-1.7c-0.4-0.5-0.9-0.8-1.6-0.8c-0.5,0-1,0.2-1.3,0.5
	c-0.4,0.4-0.6,0.9-0.6,1.5V257z M232.1,259.1v-1.3h-0.9c-0.3,0-0.5-0.1-0.6-0.2c-0.1-0.1-0.2-0.3-0.2-0.6v-4.8l-1.3,0.7v4.1
	c0,0.6,0.2,1,0.5,1.4c0.4,0.4,0.8,0.6,1.5,0.6H232.1z M225.2,259.1c0.5,0,1-0.2,1.3-0.5c0.4-0.4,0.6-0.9,0.6-1.5v-2.7l-1.3,0.7v1.9
	c0,0.3-0.1,0.5-0.2,0.6c-0.1,0.1-0.3,0.2-0.6,0.2h-3.4c-0.3,0-0.5-0.1-0.6-0.2c-0.1-0.1-0.2-0.3-0.2-0.6v-1.7l-1.3,0.7v1.1
	c0,0.6,0.2,1,0.5,1.4c0.3,0.4,0.8,0.6,1.4,0.6H225.2z M224.8,253.5c0-0.2-0.1-0.4-0.2-0.5c-0.1-0.1-0.3-0.2-0.5-0.2
	c-0.5,0-0.7,0.2-0.7,0.7c0,0.2,0.1,0.4,0.2,0.5s0.3,0.2,0.5,0.2C224.6,254.2,224.8,253.9,224.8,253.5z M223.2,253.5
	c0-0.2-0.1-0.4-0.2-0.5c-0.1-0.1-0.3-0.2-0.5-0.2c-0.2,0-0.4,0.1-0.5,0.2s-0.2,0.3-0.2,0.5c0,0.2,0.1,0.4,0.2,0.5
	c0.1,0.1,0.3,0.2,0.5,0.2C222.9,254.2,223.2,253.9,223.2,253.5z"/>
<rect x="306.2" y="223.2" class="st4" width="76.5" height="41.8"/>
<path class="st2" d="M374.8,241.7c0.6,0,1.1-0.2,1.5-0.6c0.4-0.4,0.6-1,0.6-1.6v-4.6l-1.3,0.7v3.9c0,0.3-0.1,0.6-0.2,0.7
	c-0.1,0.1-0.4,0.2-0.7,0.2h-0.7v1.3H374.8z M370.4,242.9c-0.1,0.1-0.2,0.3-0.2,0.5c0,0.2,0.1,0.4,0.2,0.5s0.3,0.2,0.5,0.2
	c0.5,0,0.7-0.2,0.7-0.7c0-0.2-0.1-0.4-0.2-0.5c-0.1-0.1-0.3-0.2-0.5-0.2S370.5,242.8,370.4,242.9z M372.4,240.2
	c0.2-0.2,0.3-0.3,0.4-0.5v-0.5c-0.4-0.7-0.9-1.3-1.4-1.7c-0.5-0.4-1.1-0.6-1.6-0.6c-0.7,0-1.4,0.3-2,1v1.2c0.7-0.6,1.3-0.9,1.8-0.9
	c0.7,0,1.3,0.4,1.7,1.3c-0.7,0.7-1.7,1.1-2.9,1.1H367v1.3h1.6c1.1,0,2.2-0.3,3-0.8c0.3,0.3,0.6,0.5,0.9,0.6c0.3,0.1,0.8,0.2,1.3,0.2
	h0.9v-1.3h-0.9C373.2,240.5,372.7,240.4,372.4,240.2z M366.1,240.3c-0.1-0.1-0.2-0.3-0.2-0.6v-2.6l-1.3,0.7v1.9
	c0,0.3-0.1,0.5-0.2,0.6c-0.1,0.1-0.3,0.2-0.6,0.2h-0.9v1.3h1.1c0.5,0,0.9-0.1,1.3-0.4c0.3,0.3,0.8,0.4,1.3,0.4h1.1v-1.3h-0.9
	C366.4,240.5,366.2,240.4,366.1,240.3z M365.7,235.3c0-0.2-0.1-0.4-0.2-0.5c-0.1-0.1-0.3-0.2-0.5-0.2c-0.2,0-0.4,0.1-0.5,0.2
	c-0.1,0.1-0.2,0.3-0.2,0.5c0,0.2,0.1,0.4,0.2,0.5c0.1,0.1,0.3,0.2,0.5,0.2C365.4,236,365.7,235.8,365.7,235.3z M360.5,239.8
	c0,0.1,0,0.2,0,0.3c-0.1,0.2-0.4,0.3-0.6,0.3c-0.2,0-0.4-0.1-0.6-0.3c-0.1-0.2-0.2-0.4-0.2-0.7c0-0.3,0.1-0.6,0.2-0.7
	c0.1-0.2,0.3-0.3,0.6-0.3c0.2,0,0.4,0.1,0.6,0.2V239.8z M362,240.3c-0.1-0.1-0.2-0.3-0.2-0.6v-3.5l-1.3,0.7v0.3
	c-0.2-0.1-0.5-0.1-0.7-0.1c-0.5,0-0.9,0.2-1.3,0.5c-0.4,0.4-0.7,1-0.7,1.7c0,0.6,0.2,1,0.5,1.4c0.4,0.5,0.9,0.7,1.5,0.7
	c0.4,0,0.8-0.1,1.1-0.3c0.4,0.4,0.9,0.7,1.5,0.7h1.1v-1.3h-0.9C362.3,240.5,362.1,240.4,362,240.3z M361.5,235.1
	c0-0.2-0.1-0.4-0.2-0.5c-0.1-0.1-0.3-0.2-0.5-0.2c-0.5,0-0.7,0.2-0.7,0.7c0,0.2,0.1,0.4,0.2,0.5c0.1,0.1,0.3,0.2,0.5,0.2
	C361.3,235.8,361.5,235.5,361.5,235.1z M359.9,235.1c0-0.2-0.1-0.4-0.2-0.5c-0.1-0.1-0.3-0.2-0.5-0.2c-0.5,0-0.7,0.2-0.7,0.7
	c0,0.2,0.1,0.4,0.2,0.5c0.1,0.1,0.3,0.2,0.5,0.2C359.7,235.8,359.9,235.5,359.9,235.1z M354,241.7v-6.8l-1.3,0.7v6.1H354z
	 M349.5,239.5c0,0.3-0.1,0.6-0.2,0.7c-0.1,0.1-0.4,0.2-0.7,0.2h-0.5v-4.1l-1.3,0.7v3.4h-1.4l-0.7,1.3h4c0.6,0,1.1-0.2,1.5-0.6
	c0.4-0.4,0.6-1,0.6-1.6v-4.6l-1.3,0.7V239.5z M334.6,241.7c0.5,0,0.9-0.2,1.3-0.5c0.3,0.3,0.8,0.5,1.3,0.5h1c0.5,0,0.9-0.2,1.2-0.5
	c0.3,0.3,0.8,0.5,1.3,0.5h1c0.5,0,1-0.2,1.3-0.5c0.4-0.4,0.6-0.8,0.6-1.5v-2.7l-1.3,0.7v1.9c0,0.3-0.1,0.5-0.2,0.6
	c-0.1,0.1-0.3,0.2-0.6,0.2h-0.7c-0.3,0-0.5-0.1-0.6-0.2c-0.1-0.1-0.2-0.3-0.2-0.6v-2.4l-1.3,0.7v1.7c0,0.3-0.1,0.5-0.2,0.6
	c-0.1,0.1-0.3,0.2-0.6,0.2h-0.7c-0.3,0-0.5-0.1-0.6-0.2c-0.1-0.1-0.2-0.3-0.2-0.6v-2.1l-1.3,0.7v1.4c0,0.3-0.1,0.5-0.2,0.6
	s-0.3,0.2-0.6,0.2h-1.1v1.3H334.6z M332.4,240.3c-0.1-0.1-0.2-0.3-0.2-0.6v-2.6l-1.3,0.7v1.9c0,0.3-0.1,0.5-0.2,0.6
	c-0.1,0.1-0.3,0.2-0.6,0.2h-0.9v1.3h1.1c0.5,0,0.9-0.1,1.3-0.4c0.3,0.3,0.8,0.4,1.3,0.4h1.1v-1.3H333
	C332.7,240.5,332.6,240.4,332.4,240.3z M332.6,235.4c0-0.2-0.1-0.4-0.2-0.5c-0.1-0.1-0.3-0.2-0.5-0.2c-0.2,0-0.4,0.1-0.5,0.2
	c-0.1,0.1-0.2,0.3-0.2,0.5c0,0.2,0.1,0.4,0.2,0.5c0.1,0.1,0.3,0.2,0.5,0.2C332.3,236.1,332.6,235.9,332.6,235.4z M331,235.4
	c0-0.2-0.1-0.4-0.2-0.5c-0.1-0.1-0.3-0.2-0.5-0.2s-0.4,0.1-0.5,0.2c-0.1,0.1-0.2,0.3-0.2,0.5c0,0.2,0.1,0.4,0.2,0.5
	c0.1,0.1,0.3,0.2,0.5,0.2C330.7,236.1,331,235.9,331,235.4z M328.4,240.3c-0.1-0.1-0.2-0.3-0.2-0.6v-2.6l-1.3,0.7v1.9
	c0,0.3-0.1,0.5-0.2,0.6c-0.1,0.1-0.3,0.2-0.6,0.2h-0.9v1.3h1.1c0.5,0,0.9-0.1,1.3-0.4c0.3,0.3,0.8,0.4,1.3,0.4h1.1v-1.3H329
	C328.7,240.5,328.5,240.4,328.4,240.3z M327.3,235.9c0.1,0.1,0.3,0.2,0.5,0.2c0.5,0,0.7-0.2,0.7-0.7c0-0.2-0.1-0.4-0.2-0.5
	c-0.1-0.1-0.3-0.2-0.5-0.2s-0.4,0.1-0.5,0.2c-0.1,0.1-0.2,0.3-0.2,0.5C327.1,235.6,327.2,235.8,327.3,235.9z M326.9,235.4
	c0-0.2-0.1-0.4-0.2-0.5c-0.1-0.1-0.3-0.2-0.5-0.2s-0.4,0.1-0.5,0.2s-0.2,0.3-0.2,0.5c0,0.2,0.1,0.4,0.2,0.5s0.3,0.2,0.5,0.2
	C326.7,236.1,326.9,235.9,326.9,235.4z M327.6,233.9c0-0.4-0.2-0.6-0.6-0.6c-0.2,0-0.4,0.1-0.5,0.2c-0.1,0.1-0.2,0.3-0.2,0.5
	c0,0.4,0.2,0.7,0.6,0.7C327.4,234.6,327.6,234.4,327.6,233.9z M321.2,239.4c0-0.8,0.3-1.3,0.8-1.3c0.5,0,0.8,0.4,0.8,1.3
	c0,0.9-0.3,1.3-0.8,1.3C321.5,240.7,321.2,240.2,321.2,239.4z M324.3,240.3c-0.1-0.1-0.2-0.3-0.2-0.6v-0.3c0-0.7-0.2-1.3-0.5-1.7
	c-0.4-0.5-0.9-0.8-1.6-0.8c-0.6,0-1.1,0.2-1.5,0.6c-0.4,0.5-0.6,1.1-0.6,1.9v0.3c0,0.3-0.1,0.5-0.2,0.6c-0.1,0.1-0.3,0.2-0.6,0.2
	h-0.9v1.3h1.1c0.5,0,0.9-0.1,1.3-0.4c0.4,0.4,0.9,0.6,1.5,0.6c0.6,0,1.1-0.2,1.5-0.6c0.3,0.3,0.7,0.4,1.2,0.4h1.1v-1.3h-0.9
	C324.6,240.5,324.4,240.4,324.3,240.3z M318.8,241.7v-1.3h-0.9c-0.3,0-0.5-0.1-0.6-0.2c-0.1-0.1-0.2-0.3-0.2-0.6v-4.8l-1.3,0.7v4.1
	c0,0.6,0.2,1,0.5,1.4c0.4,0.4,0.8,0.6,1.5,0.6H318.8z M313.9,237.1l-1.3,0.7v3.4c0,0.4-0.1,0.8-0.3,1c-0.2,0.2-0.5,0.4-0.9,0.4
	c-0.4,0-0.7-0.1-1.1-0.3v1.2c0.4,0.2,0.9,0.3,1.3,0.3c0.7,0,1.2-0.2,1.6-0.7c0.4-0.5,0.7-1.2,0.7-2V237.1z"/>
<path class="st2" d="M359.8,253.2v-6.8l-1.3,0.7v6.1H359.8z M354,254c-0.2-0.1-0.4-0.2-0.6-0.2c-0.2,0-0.4,0.1-0.6,0.2
	c-0.2,0.2-0.2,0.4-0.2,0.6c0,0.1,0,0.3,0.1,0.4h-0.3l-0.3,0.6h2l0.3-0.6h-1c-0.1-0.1-0.1-0.2-0.1-0.3c0-0.2,0.1-0.3,0.3-0.3
	c0.2,0,0.3,0.1,0.5,0.2V254z M355.3,251c0,0.3-0.1,0.6-0.2,0.7c-0.1,0.1-0.4,0.2-0.7,0.2h-0.5v-4.1l-1.3,0.7v3.4h-1.4l-0.7,1.3h4
	c0.6,0,1.1-0.2,1.5-0.6c0.4-0.4,0.6-1,0.6-1.6v-4.6l-1.3,0.7V251z M347.9,253.2c1.1,0,1.6-0.6,1.6-1.9c0-1.2-0.6-2.2-1.8-2.9
	l-0.7,1.1c0.7,0.4,1.1,1,1.1,1.8c0,0.4-0.2,0.6-0.5,0.6H346l-0.7,1.3H347.9z M344.3,253.2v-6.8l-1.3,0.7v6.1H344.3z M341.1,248.5
	l-1.3,0.7v3.4c0,0.4-0.1,0.8-0.3,1c-0.2,0.2-0.5,0.4-0.9,0.4c-0.4,0-0.7-0.1-1.1-0.3v1.2c0.4,0.2,0.9,0.3,1.3,0.3
	c0.7,0,1.2-0.2,1.6-0.7c0.4-0.5,0.7-1.2,0.7-2V248.5z M336.5,254.9c0-0.2-0.1-0.4-0.2-0.5c-0.1-0.1-0.3-0.2-0.5-0.2
	c-0.5,0-0.7,0.2-0.7,0.7c0,0.2,0.1,0.4,0.2,0.5c0.1,0.1,0.3,0.2,0.5,0.2C336.3,255.6,336.5,255.3,336.5,254.9z M334.9,254.9
	c0-0.2-0.1-0.4-0.2-0.5c-0.1-0.1-0.3-0.2-0.5-0.2c-0.5,0-0.7,0.2-0.7,0.7c0,0.2,0.1,0.4,0.2,0.5c0.1,0.1,0.3,0.2,0.5,0.2
	C334.6,255.6,334.9,255.3,334.9,254.9z M334.7,253.2c0.6,0,1-0.2,1.3-0.5c0.4-0.4,0.6-0.9,0.6-1.5v-2.7l-1.3,0.7v1.9
	c0,0.3-0.1,0.5-0.2,0.6c-0.1,0.1-0.3,0.2-0.6,0.2h-0.9v1.3H334.7z M331.2,251.2c0,0.1,0,0.2,0,0.3c-0.1,0.2-0.4,0.3-0.6,0.3
	c-0.2,0-0.4-0.1-0.6-0.3c-0.1-0.2-0.2-0.4-0.2-0.7c0-0.3,0.1-0.6,0.2-0.7c0.1-0.2,0.3-0.3,0.6-0.3c0.2,0,0.4,0.1,0.6,0.2V251.2z
	 M332.7,251.8c-0.1-0.1-0.2-0.3-0.2-0.6v-3.5l-1.3,0.7v0.3c-0.2-0.1-0.5-0.1-0.7-0.1c-0.5,0-0.9,0.2-1.3,0.5c-0.4,0.4-0.7,1-0.7,1.7
	c0,0.6,0.2,1,0.5,1.4c0.4,0.5,0.9,0.7,1.5,0.7c0.4,0,0.8-0.1,1.1-0.3c0.4,0.4,0.9,0.7,1.5,0.7h1.1v-1.3h-0.9
	C333,251.9,332.9,251.9,332.7,251.8z M332.2,246.6c0-0.2-0.1-0.4-0.2-0.5c-0.1-0.1-0.3-0.2-0.5-0.2c-0.5,0-0.7,0.2-0.7,0.7
	c0,0.2,0.1,0.4,0.2,0.5c0.1,0.1,0.3,0.2,0.5,0.2C332,247.3,332.2,247,332.2,246.6z M330.6,246.6c0-0.2-0.1-0.4-0.2-0.5
	c-0.1-0.1-0.3-0.2-0.5-0.2c-0.5,0-0.7,0.2-0.7,0.7c0,0.2,0.1,0.4,0.2,0.5c0.1,0.1,0.3,0.2,0.5,0.2
	C330.4,247.3,330.6,247,330.6,246.6z"/>
<polyline points="341.5,212.4 341.5,220.4 341.3,220.4 341.3,212.4 "/>
<path class="st5" d="M249.3,70.6c17.6,0,31.9-14.3,31.9-31.9c0-17.6-14.3-31.9-31.9-31.9s-31.9,14.3-31.9,31.9
	C217.4,56.3,231.7,70.6,249.3,70.6"/>
<path class="st2" d="M273,41.7v-6.1l-1.2,0.6v5.5H273z M268.2,41.7c0.6,0,1-0.2,1.4-0.5c0.4-0.4,0.6-0.9,0.6-1.5v-4.1l-1.2,0.6v3.5
	c0,0.3-0.1,0.5-0.2,0.6c-0.1,0.1-0.3,0.2-0.6,0.2h-0.6v1.1H268.2z M263.9,39.6c0-0.7,0.2-1.1,0.7-1.1c0.5,0,0.7,0.4,0.7,1.1
	c0,0.8-0.2,1.2-0.7,1.2C264.2,40.8,263.9,40.4,263.9,39.6z M266.7,40.4c-0.1-0.1-0.2-0.3-0.2-0.5v-0.3c0-0.6-0.1-1.2-0.4-1.6
	c-0.3-0.5-0.8-0.7-1.5-0.7c-0.6,0-1,0.2-1.3,0.5c-0.4,0.4-0.6,1-0.6,1.7v0.3c0,0.2-0.1,0.4-0.2,0.5c-0.1,0.1-0.3,0.2-0.5,0.2h-0.9
	v1.1h1c0.4,0,0.8-0.1,1.1-0.3c0.3,0.4,0.8,0.5,1.3,0.5c0.6,0,1-0.2,1.3-0.5c0.3,0.2,0.7,0.3,1.1,0.3h1v-1.1h-0.8
	C267,40.6,266.8,40.5,266.7,40.4z M252.1,41.7c0.5,0,0.8-0.1,1.1-0.4c0.3,0.3,0.7,0.4,1.1,0.4h0.9c0.4,0,0.8-0.1,1.1-0.4
	c0.3,0.3,0.7,0.4,1.1,0.4h0.9c0.5,0,0.9-0.2,1.1-0.5c0.3,0.3,0.7,0.5,1.3,0.5h0.9v-1.1h-0.9c-0.3,0-0.5-0.1-0.6-0.2
	c-0.1-0.1-0.2-0.3-0.2-0.6v-2.2l-1.2,0.6v1.7c0,0.2-0.1,0.4-0.2,0.5c-0.1,0.1-0.3,0.2-0.5,0.2h-0.6c-0.2,0-0.4-0.1-0.5-0.2
	c-0.1-0.1-0.2-0.3-0.2-0.5v-2.1l-1.2,0.6v1.5c0,0.2-0.1,0.4-0.2,0.5c-0.1,0.1-0.3,0.2-0.5,0.2h-0.6c-0.2,0-0.4-0.1-0.5-0.2
	c-0.1-0.1-0.2-0.3-0.2-0.5V38l-1.2,0.6v1.2c0,0.2-0.1,0.4-0.2,0.5c-0.1,0.1-0.3,0.2-0.5,0.2h-1v1.1H252.1z M251.5,41.7v-1.1h-0.9
	c-0.2,0-0.4-0.1-0.5-0.2c-0.1-0.1-0.2-0.3-0.2-0.5v-4.3l-1.2,0.6V40c0,0.5,0.1,0.9,0.4,1.2c0.3,0.4,0.8,0.5,1.3,0.5H251.5z
	 M243.2,39.7c0-0.2,0.1-0.4,0.2-0.5c0.1-0.1,0.3-0.2,0.4-0.2c0.2,0,0.3,0.1,0.4,0.2c0.1,0.1,0.2,0.3,0.2,0.5c0,0.4-0.2,0.7-0.6,0.8
	C243.4,40.4,243.2,40.1,243.2,39.7z M246,40.4c-0.1,0.1-0.2,0.1-0.5,0.1H245c0.1-0.2,0.2-0.5,0.2-0.8c0-0.3-0.1-0.6-0.3-0.9
	c-0.2-0.3-0.4-0.4-0.7-0.5c0.2-0.1,0.4-0.2,0.7-0.2c0.4,0,0.7,0.1,0.9,0.4c0.2,0.2,0.3,0.6,0.3,1v0.3
	C246.2,40.2,246.1,40.3,246,40.4z M242.4,39.8c0,0.3,0.1,0.5,0.2,0.8h-1v1.1h1.6c0.2,0,0.4,0,0.6-0.1c0.2,0.1,0.4,0.1,0.6,0.1h1.2
	c0.5,0,0.9-0.1,1.2-0.4c0.4-0.3,0.5-0.8,0.5-1.3v-0.4c0-0.7-0.2-1.3-0.6-1.7c-0.5-0.5-1-0.7-1.8-0.7c-0.5,0-1,0.2-1.4,0.5
	c-0.4,0.3-0.7,0.7-0.8,1.2C242.5,39.1,242.4,39.4,242.4,39.8z M238,39.6c0-0.7,0.2-1.1,0.7-1.1c0.5,0,0.7,0.4,0.7,1.1
	c0,0.8-0.2,1.2-0.7,1.2C238.2,40.8,238,40.4,238,39.6z M240.8,40.4c-0.1-0.1-0.2-0.3-0.2-0.5v-0.3c0-0.6-0.1-1.2-0.4-1.6
	c-0.3-0.5-0.8-0.7-1.5-0.7c-0.6,0-1,0.2-1.3,0.5c-0.4,0.4-0.6,1-0.6,1.7v0.3c0,0.2-0.1,0.4-0.2,0.5c-0.1,0.1-0.3,0.2-0.5,0.2h-0.9
	v1.1h1c0.4,0,0.8-0.1,1.1-0.3c0.3,0.4,0.8,0.5,1.3,0.5c0.6,0,1-0.2,1.3-0.5c0.3,0.2,0.7,0.3,1.1,0.3h1v-1.1h-0.8
	C241,40.6,240.9,40.5,240.8,40.4z M233.5,40.6c-0.2,0-0.3,0-0.4,0c-0.6-0.1-0.8-0.4-0.8-1c0-0.7,0.2-1,0.7-1c0.4,0,0.5,0.2,0.5,0.6
	V40.6z M234.7,40.6v-1.5c0-0.5-0.1-0.9-0.4-1.2c-0.3-0.4-0.8-0.5-1.3-0.5c-0.5,0-1,0.2-1.3,0.5c-0.4,0.4-0.6,1-0.6,1.6
	c0,0.5,0.1,1,0.4,1.4c0.4,0.4,0.9,0.7,1.5,0.8c0.1,0,0.1,0,0.2,0c0.1,0,0.2,0,0.2,0c0,0.2-0.1,0.4-0.3,0.5c-0.2,0.1-0.4,0.2-0.7,0.2
	c-0.3,0-0.7-0.1-1-0.3v1c0.4,0.2,0.8,0.3,1.2,0.3c0.5,0,0.9-0.1,1.3-0.4c0.5-0.3,0.7-0.8,0.8-1.4h1.2v-1.1H234.7z M229.7,37.5
	l-1.2,0.6v3c0,0.4-0.1,0.7-0.4,0.9c-0.2,0.2-0.6,0.3-1,0.3c-0.4,0-0.8-0.1-1-0.4c-0.3-0.3-0.4-0.7-0.4-1.2c0-0.5,0.1-0.9,0.4-1.4
	l-1.1,0.2c-0.2,0.4-0.3,0.8-0.3,1.3c0,0.6,0.2,1.2,0.5,1.6c0.5,0.6,1.1,0.9,2,0.9c0.7,0,1.3-0.2,1.8-0.6c0.5-0.4,0.8-1,0.8-1.8V37.5
	z M227.6,37c0-0.2-0.1-0.3-0.2-0.4c-0.1-0.1-0.3-0.2-0.4-0.2s-0.3,0.1-0.5,0.2s-0.2,0.3-0.2,0.4c0,0.2,0.1,0.3,0.2,0.5
	s0.3,0.2,0.5,0.2C227.4,37.6,227.6,37.4,227.6,37z"/>
<rect x="204.2" y="84.2" class="st0" width="89.8" height="18"/>
<path class="st2" d="M274.3,93.6c0-0.4,0.2-0.6,0.5-0.6c0.5,0,0.7,0.3,0.7,1c0,0.7-0.2,1.1-0.7,1.1c-0.4,0-0.6-0.2-0.6-0.5V93.6z
	 M273.1,94.4c0,0.2-0.1,0.4-0.2,0.5c-0.1,0.1-0.3,0.2-0.5,0.2h-0.9v1.1h1c0.4,0,0.8-0.1,1.1-0.3c0.3,0.2,0.7,0.3,1.2,0.3
	c0.5,0,0.9-0.2,1.3-0.5c0.4-0.4,0.6-1,0.6-1.7c0-0.6-0.1-1.1-0.4-1.5c-0.3-0.5-0.8-0.7-1.5-0.7c-0.5,0-0.9,0.1-1.2,0.4
	c-0.4,0.3-0.5,0.8-0.5,1.3V94.4z M268.3,97.3c-0.1,0.1-0.2,0.3-0.2,0.4c0,0.2,0.1,0.4,0.2,0.5s0.3,0.2,0.5,0.2
	c0.4,0,0.6-0.2,0.6-0.6c0-0.2-0.1-0.3-0.2-0.4c-0.1-0.1-0.3-0.2-0.4-0.2S268.4,97.1,268.3,97.3z M270.1,94.9
	c0.2-0.2,0.3-0.3,0.4-0.4v-0.5c-0.4-0.7-0.8-1.2-1.2-1.5c-0.5-0.4-0.9-0.5-1.4-0.5c-0.7,0-1.3,0.3-1.8,0.9v1.1
	c0.6-0.5,1.2-0.8,1.7-0.8c0.6,0,1.1,0.4,1.6,1.1c-0.7,0.7-1.5,1-2.7,1h-1.4v1.1h1.4c1,0,1.9-0.2,2.7-0.7c0.3,0.3,0.5,0.5,0.8,0.6
	c0.3,0.1,0.7,0.2,1.2,0.2h0.8v-1.1h-0.8C270.8,95.1,270.4,95,270.1,94.9z M264.4,94.9c-0.1-0.1-0.2-0.3-0.2-0.5V92l0,0v-1.9
	l-1.2,0.6v3.5c0,0.3-0.1,0.5-0.2,0.6c-0.1,0.1-0.3,0.2-0.6,0.2h-0.6v1.1h0.7c0.5,0,0.9-0.1,1.3-0.4c0.3,0.3,0.7,0.4,1.2,0.4h1v-1.1
	h-0.9C264.7,95.1,264.5,95,264.4,94.9z M260.7,94.9c-0.1-0.1-0.2-0.3-0.2-0.6V92l-1.2,0.6v1.8c0,0.2-0.1,0.4-0.2,0.5
	c-0.1,0.1-0.3,0.2-0.5,0.2H258c-0.2,0-0.4-0.1-0.5-0.2c-0.1-0.1-0.2-0.3-0.2-0.5v-2.1l-1.2,0.6v1.5c0,0.2-0.1,0.4-0.2,0.5
	c-0.1,0.1-0.3,0.2-0.5,0.2h-0.6c-0.2,0-0.4-0.1-0.5-0.2c-0.1-0.1-0.2-0.3-0.2-0.5v-1.9l-1.2,0.6v2.5c0,0.4-0.1,0.7-0.4,0.9
	c-0.2,0.2-0.6,0.3-1,0.3c-0.4,0-0.8-0.1-1-0.4c-0.3-0.3-0.4-0.7-0.4-1.2c0-0.5,0.1-0.9,0.4-1.4l-1.1,0.2c-0.2,0.4-0.4,0.8-0.4,1.3
	c0,0.6,0.2,1.2,0.5,1.6c0.5,0.6,1.1,0.9,2,0.9c0.6,0,1.2-0.2,1.6-0.5c0.5-0.3,0.8-0.8,0.9-1.4c0.2,0.1,0.4,0.1,0.6,0.1h0.9
	c0.4,0,0.8-0.1,1.1-0.4c0.3,0.2,0.7,0.4,1.1,0.4h0.9c0.5,0,0.9-0.2,1.2-0.4c0.3,0.3,0.8,0.4,1.3,0.4h0.9v-1.1h-0.9
	C261.1,95.1,260.9,95,260.7,94.9z M245.3,96.2v-6.1l-1.2,0.6v5.5H245.3z M240.1,96.9c-0.2-0.1-0.3-0.2-0.5-0.2
	c-0.2,0-0.4,0.1-0.5,0.2c-0.1,0.1-0.2,0.3-0.2,0.5c0,0.1,0,0.3,0.1,0.4h-0.3l-0.3,0.5h1.8l0.3-0.5h-0.9c-0.1-0.1-0.1-0.2-0.1-0.3
	c0-0.2,0.1-0.3,0.3-0.3c0.2,0,0.3,0.1,0.5,0.2V96.9z M241.2,94.2c0,0.3-0.1,0.5-0.2,0.6c-0.1,0.1-0.3,0.2-0.6,0.2H240v-3.7l-1.2,0.6
	v3.1h-1.3l-0.6,1.1h3.6c0.6,0,1-0.2,1.4-0.5c0.4-0.4,0.6-0.9,0.6-1.5v-4.1l-1.2,0.6V94.2z M234.6,96.2c1,0,1.5-0.6,1.5-1.7
	c0-1.1-0.5-2-1.6-2.6l-0.6,1c0.7,0.4,1,0.9,1,1.6c0,0.4-0.2,0.6-0.5,0.6h-1.5l-0.6,1.1H234.6z M231.4,96.2v-6.1l-1.2,0.6v5.5H231.4z
	 M228.5,92l-1.2,0.6v3.1c0,0.4-0.1,0.7-0.3,0.9c-0.2,0.2-0.5,0.3-0.8,0.3c-0.3,0-0.6-0.1-1-0.3v1c0.4,0.2,0.8,0.3,1.2,0.3
	c0.6,0,1.1-0.2,1.5-0.6c0.4-0.5,0.6-1,0.6-1.8V92z M222.7,94.3c0-0.6,0.2-1,0.7-1.3c0.5,0.3,0.7,0.7,0.7,1.3c0,0.5-0.2,0.8-0.7,0.8
	h-0.1C222.9,95.1,222.7,94.8,222.7,94.3z M223.5,96.2c0.5,0,1-0.2,1.3-0.5c0.4-0.4,0.6-0.8,0.6-1.5c0-0.5-0.1-1-0.4-1.4
	c-0.3-0.5-0.8-0.8-1.5-1c-0.6,0.2-1.1,0.5-1.4,0.9c-0.3,0.4-0.5,0.9-0.5,1.5c0,0.5,0.1,1,0.4,1.3C222.3,96,222.8,96.2,223.5,96.2
	L223.5,96.2z M224.7,90.2c0-0.2-0.1-0.3-0.2-0.4c-0.1-0.1-0.3-0.2-0.4-0.2c-0.2,0-0.3,0.1-0.5,0.2s-0.2,0.3-0.2,0.4
	c0,0.2,0.1,0.3,0.2,0.5c0.1,0.1,0.3,0.2,0.5,0.2C224.5,90.9,224.7,90.7,224.7,90.2z M223.2,90.2c0-0.2-0.1-0.3-0.2-0.4
	c-0.1-0.1-0.3-0.2-0.4-0.2c-0.4,0-0.6,0.2-0.6,0.6c0,0.2,0.1,0.4,0.2,0.5s0.3,0.2,0.5,0.2C223,90.9,223.2,90.7,223.2,90.2z"/>
<polyline points="234.4,72.3 234.4,82.7 234.2,82.7 234.2,72.3 "/>
<polygon points="235.5,73.4 234.3,72.3 233.2,73.4 233,73.3 234.3,72 235.6,73.3 235.5,73.4 "/>
<polyline points="263.8,82.4 263.8,72 264.1,72 264.1,82.4 "/>
<polygon points="265.3,81.4 263.9,82.7 262.6,81.4 262.8,81.2 263.9,82.4 265.1,81.2 265.3,81.4 "/>
<polygon points="201.5,93.2 78.1,93.2 78.1,101 77.9,101 77.9,93 201.5,93 201.5,93.2 "/>
<polygon points="207.6,105.1 207.6,133.4 77.5,133.4 77.5,140.1 77.2,140.1 77.2,133.2 207.3,133.2 207.3,105.1 "/>
<polygon points="249.4,105.1 249.4,114.3 433.9,114.3 433.9,119.4 433.7,119.4 433.7,114.5 249.2,114.5 249.2,105.1 249.4,105.1 "/>
<polygon points="224.3,105.1 224.3,165.6 77.8,165.6 77.8,171.6 77.6,171.6 77.6,165.3 224.1,165.3 224.1,105.1 224.3,105.1 "/>
<polyline points="296.8,92.9 376.9,92.9 376.9,93.1 296.8,93.1 "/>
<polygon points="292.3,181.4 363.9,181.4 363.8,157.3 377.1,157.3 377.1,157.6 364,157.6 364.1,181.7 292.3,181.7 292.3,181.4 "/>
<polyline points="292.3,187.1 409.9,187.1 409.9,187.4 292.3,187.4 "/>
</svg>
