<?xml version="1.0" encoding="UTF-8"?>
<svg id="Layer_2" data-name="Layer 2" xmlns="http://www.w3.org/2000/svg" xmlns:xlink="http://www.w3.org/1999/xlink" viewBox="0 0 137.43 33.25">
  <defs>
    <style>
      .cls-1 {
        fill: #221f20;
      }

      .cls-1, .cls-2, .cls-3, .cls-4, .cls-5, .cls-6, .cls-7, .cls-8, .cls-9, .cls-10, .cls-11 {
        stroke-width: 0px;
      }

      .cls-2 {
        fill: url(#linear-gradient);
      }

      .cls-3 {
        fill: url(#linear-gradient-6);
      }

      .cls-12 {
        clip-path: url(#clippath-2);
      }

      .cls-13 {
        clip-path: url(#clippath-6);
      }

      .cls-4 {
        fill: url(#linear-gradient-5);
      }

      .cls-5 {
        fill: none;
      }

      .cls-6 {
        fill: #daab28;
      }

      .cls-14 {
        clip-path: url(#clippath-7);
      }

      .cls-15 {
        clip-path: url(#clippath-1);
      }

      .cls-16 {
        clip-path: url(#clippath-4);
      }

      .cls-7 {
        fill: url(#linear-gradient-2);
      }

      .cls-8 {
        fill: url(#linear-gradient-7);
      }

      .cls-9 {
        fill: url(#linear-gradient-3);
      }

      .cls-17 {
        clip-path: url(#clippath);
      }

      .cls-18 {
        clip-path: url(#clippath-3);
      }

      .cls-10 {
        fill: url(#linear-gradient-8);
      }

      .cls-19 {
        clip-path: url(#clippath-5);
      }

      .cls-11 {
        fill: url(#linear-gradient-4);
      }
    </style>
    <clipPath id="clippath">
      <path class="cls-5" d="m65.38,6.65v6.65h13.64c3.15,0,6.31-3.33,6.31-6.65h-19.95Z"/>
    </clipPath>
    <linearGradient id="linear-gradient" x1="-257.27" y1="306.74" x2="-256.27" y2="306.74" gradientTransform="translate(5198.47 6130.06) scale(19.95 -19.95)" gradientUnits="userSpaceOnUse">
      <stop offset="0" stop-color="#daab28"/>
      <stop offset=".8" stop-color="#daab28"/>
      <stop offset="1" stop-color="#b48e2e"/>
    </linearGradient>
    <clipPath id="clippath-1">
      <path class="cls-5" d="m65.38,6.65v6.65h13.64c3.15,0,6.31-3.33,6.31-6.65h-19.95Z"/>
    </clipPath>
    <linearGradient id="linear-gradient-2" x1="-257.27" y1="306.74" x2="-256.27" y2="306.74" gradientTransform="translate(-5047.76 -6110.1) rotate(-180) scale(19.95 -19.95)" xlink:href="#linear-gradient"/>
    <clipPath id="clippath-2">
      <path class="cls-5" d="m72.03,13.3v13.64c0,3.15,3.32,6.31,6.65,6.31V13.3h-6.65Z"/>
    </clipPath>
    <linearGradient id="linear-gradient-3" x1="-257.27" y1="308.07" x2="-256.27" y2="308.07" gradientTransform="translate(1783.09 2072.21) scale(6.65 -6.65)" xlink:href="#linear-gradient"/>
    <clipPath id="clippath-3">
      <path class="cls-5" d="m72.03,13.3v13.64c0,3.15,3.32,6.31,6.65,6.31V13.3h-6.65Z"/>
    </clipPath>
    <linearGradient id="linear-gradient-4" x1="-257.27" y1="306.74" x2="-256.27" y2="306.74" gradientTransform="translate(6195.33 -5099.76) rotate(-90) scale(19.95 -19.95)" xlink:href="#linear-gradient"/>
    <clipPath id="clippath-4">
      <path class="cls-5" d="m58.39,19.95c-3.15,0-6.31,3.33-6.31,6.65h19.95v-6.65h-13.64Z"/>
    </clipPath>
    <linearGradient id="linear-gradient-5" x1="-257.27" y1="306.74" x2="-256.27" y2="306.74" gradientTransform="translate(5185.13 6143.31) scale(19.95 -19.95)" xlink:href="#linear-gradient"/>
    <clipPath id="clippath-5">
      <path class="cls-5" d="m58.36,19.95c-3.15.02-6.28,3.34-6.28,6.65h19.95v-6.65h-13.67Z"/>
    </clipPath>
    <linearGradient id="linear-gradient-6" x1="-257.27" y1="306.74" x2="-256.27" y2="306.74" gradientTransform="translate(5185.13 6143.31) scale(19.95 -19.95)" xlink:href="#linear-gradient"/>
    <clipPath id="clippath-6">
      <path class="cls-5" d="m58.73,19.95h6.65V6.31c0-3.15-3.33-6.31-6.65-6.31v19.95Z"/>
    </clipPath>
    <linearGradient id="linear-gradient-7" x1="-257.27" y1="308.07" x2="-256.27" y2="308.07" gradientTransform="translate(1769.79 2058.9) scale(6.65 -6.65)" xlink:href="#linear-gradient"/>
    <clipPath id="clippath-7">
      <path class="cls-5" d="m58.73,19.95h6.65V6.31c0-3.15-3.33-6.31-6.65-6.31v19.95Z"/>
    </clipPath>
    <linearGradient id="linear-gradient-8" x1="-257.27" y1="306.74" x2="-256.27" y2="306.74" gradientTransform="translate(-6058 5133.07) rotate(90) scale(19.95 -19.95)" xlink:href="#linear-gradient"/>
  </defs>
  <g id="Layer_1-2" data-name="Layer 1">
    <g>
      <path class="cls-1" d="m18.36,10h3.68c1.91,0,2.77.12,3.61.52.54.27,1.01.67,1.38,1.2.59.86.9,1.93.9,3.23,0,2.07-.84,3.74-2.24,4.46-.86.43-1.63.55-3.48.55h-3.84v-9.96Zm3.73,8.07c1.4,0,1.89-.07,2.39-.31.26-.14.5-.35.69-.61.4-.57.58-1.26.58-2.2,0-1.49-.47-2.46-1.38-2.83-.52-.19-.8-.24-1.89-.24h-1.98v6.19h1.59Z"/>
      <path class="cls-1" d="m43.77,19.95c-2.9,0-5.02-2.08-5.02-4.97s2.11-4.98,5.02-4.98,5.01,2.11,5.01,4.98-2.1,4.97-5.01,4.97m0-8.11c-1.67,0-2.85,1.3-2.85,3.14s1.17,3.13,2.85,3.13,2.85-1.3,2.85-3.13-1.17-3.14-2.85-3.14"/>
      <path class="cls-1" d="m15.88,19.95c.96,0,1.73-.85,1.74-1.91h-5.76s0-2.3,0-2.3h3.28c.92,0,1.67-.82,1.68-1.83h-4.96s0-2.05,0-2.05h3.78c.95,0,1.72-.84,1.73-1.88h-7.62v9.95h6.13Z"/>
      <path class="cls-1" d="m8.2,12.27c-.3-.87-.93-1.51-1.84-1.89-.6-.25-1.32-.38-2.15-.38-.19,0-.37.01-.55.02-2.09.16-3.37,1.23-3.37,2.87,0,1.51.88,2.39,2.74,2.75l1.03.2c1.92.37,2.26.53,2.26,1.17,0,.68-.78,1.12-1.98,1.12-.82,0-1.46-.23-1.85-.64l-.02-.03-.1-.11h0c-.64-.66-1.68-.66-2.34,0H0s.01.02.01.02c.32,1.19,1.05,1.95,2.25,2.32.56.17,1.22.26,1.99.26.21,0,.41,0,.6-.02,2.29-.16,3.63-1.27,3.63-3.04,0-.75-.24-1.4-.66-1.85-.26-.27-.6-.48-.98-.64-.54-.21-.81-.28-2.03-.53-2.16-.43-2.42-.55-2.42-1.15s.69-.97,1.79-.97c.73,0,1.26.15,1.62.47l.05.05.02.03h0c.64.66,1.68.66,2.34,0v-.03Z"/>
      <path class="cls-1" d="m35.66,17.41h-.01c-.05.07-.11.12-.17.17-.43.35-.99.54-1.69.54-1.67,0-2.8-1.24-2.8-3.1s1.16-3.16,2.84-3.16c.66,0,1.22.18,1.64.51h.02c.74.62,1.82.57,2.52-.14h0c-.33-.66-.86-1.2-1.53-1.58-.73-.41-1.62-.64-2.62-.64-.23,0-.45.01-.66.04-2.62.28-4.39,2.26-4.39,4.99,0,2.95,2,4.93,4.98,4.93,2.03,0,3.57-.88,4.29-2.39h0c-.67-.69-1.71-.74-2.42-.16"/>
      <polygon class="cls-6" points="3.24 27.69 1.04 27.69 1.04 25.64 0 25.64 0 30.75 1.04 30.75 1.04 28.54 3.24 28.54 3.24 30.75 4.3 30.75 4.3 25.64 3.24 25.64 3.24 27.69"/>
      <path class="cls-6" d="m10.46,29.47c-.2.28-.49.42-.86.42-.78,0-1.18-.55-1.18-1.64,0-.55.1-.98.31-1.28.2-.31.49-.46.87-.46.35,0,.63.14.83.42.22.32.33.76.33,1.32,0,.53-.1.93-.3,1.22m-.86-3.83c-.67,0-1.21.24-1.61.71-.42.49-.63,1.13-.63,1.91,0,.66.16,1.22.48,1.66.4.56.99.84,1.75.84.67,0,1.2-.22,1.6-.65.42-.46.63-1.08.63-1.85,0-.67-.16-1.24-.48-1.71-.41-.6-.99-.9-1.75-.9"/>
      <polygon class="cls-6" points="16.6 25.64 15.54 25.64 15.54 30.75 18.52 30.75 18.52 29.9 16.6 29.9 16.6 25.64"/>
      <path class="cls-6" d="m23.89,29.95c-.16,0-.29-.01-.39-.04v-3.42c.12-.03.25-.04.37-.04.41,0,.76.12,1.03.37.33.31.5.76.5,1.35,0,1.18-.5,1.77-1.5,1.77m-.06-4.31c-.65,0-1.09.03-1.35.1v4.91c.34.07.77.1,1.29.1.83,0,1.47-.2,1.93-.61.51-.45.76-1.11.76-2,0-.71-.2-1.29-.6-1.73-.47-.52-1.15-.78-2.03-.78"/>
      <rect class="cls-6" x="31.39" y="25.64" width="1.04" height="5.11"/>
      <path class="cls-6" d="m40.55,29.17c-.85-1.23-1.71-2.41-2.57-3.53h-.88v5.11h1.04v-3.42c1.2,1.68,2.06,2.83,2.56,3.42h.9v-5.11h-1.06v3.53Z"/>
      <path class="cls-6" d="m46.93,27.88v.89h.88v1.02c-.18.07-.38.1-.6.1-.35,0-.64-.13-.89-.39-.3-.31-.44-.73-.44-1.26,0-.5.11-.91.35-1.24.23-.33.52-.49.88-.49s.72.14,1.09.4l.4-.65c-.45-.42-.97-.63-1.55-.63-.63,0-1.16.23-1.57.7-.44.49-.66,1.12-.66,1.87,0,.64.15,1.19.44,1.63.39.61.97.91,1.75.91.57,0,1.16-.17,1.77-.51v-2.37h-1.85Z"/>
      <path class="cls-6" d="m65.38,13.3h6.65v6.65h-6.65v-6.65Zm0-6.65v-.34C65.38,3.16,62.06,0,58.73,0v19.95h-.34c-3.15,0-6.31,3.32-6.31,6.65h19.95v.34c0,3.15,3.33,6.31,6.65,6.31V13.3h.34c3.15,0,6.31-3.33,6.31-6.65h-19.95Z"/>
      <g class="cls-17">
        <rect class="cls-2" x="65.38" y="6.65" width="19.95" height="6.65"/>
      </g>
      <g class="cls-15">
        <rect class="cls-7" x="65.38" y="6.65" width="19.95" height="6.65"/>
      </g>
      <g class="cls-12">
        <rect class="cls-9" x="72.03" y="13.3" width="6.65" height="19.95"/>
      </g>
      <g class="cls-18">
        <rect class="cls-11" x="72.03" y="13.3" width="6.65" height="19.95"/>
      </g>
      <g class="cls-16">
        <rect class="cls-4" x="52.08" y="19.95" width="19.95" height="6.65"/>
      </g>
      <g class="cls-19">
        <rect class="cls-3" x="52.08" y="19.95" width="19.95" height="6.65"/>
      </g>
      <g class="cls-13">
        <rect class="cls-8" x="58.73" y="0" width="6.65" height="19.95"/>
      </g>
      <g class="cls-14">
        <rect class="cls-10" x="58.73" y="0" width="6.65" height="19.95"/>
      </g>
      <path class="cls-6" d="m89.59,26.48c.33,0,.49-.17.49-.51,0-.15-.04-.27-.13-.36-.09-.09-.21-.13-.36-.13-.33,0-.5.16-.5.49,0,.16.04.28.14.37s.21.14.36.14"/>
      <path class="cls-6" d="m90.76,26.48c.33,0,.49-.17.49-.51,0-.15-.04-.27-.13-.36s-.21-.13-.36-.13c-.33,0-.5.16-.5.49,0,.16.04.28.14.37s.21.14.36.14"/>
      <path class="cls-6" d="m112.54,26.48c.33,0,.49-.17.49-.51,0-.15-.04-.27-.13-.36-.09-.09-.21-.13-.36-.13s-.27.05-.36.14c-.09.09-.14.21-.14.36,0,.16.04.28.14.37s.21.14.36.14"/>
      <path class="cls-6" d="m113.59,29.28c0,.21-.03.36-.1.43-.07.08-.19.12-.38.12h-2.36c.2-.52.47-.93.81-1.23.34-.3.71-.45,1.1-.45.27,0,.49.1.67.29.17.19.26.44.26.74v.11Zm-23.43.44c-.18,0-.32-.07-.42-.2-.1-.13-.15-.31-.15-.53s.05-.4.16-.54c.1-.14.24-.21.41-.21s.32.06.45.17v.92c0,.09,0,.15,0,.19-.11.13-.26.2-.45.2m28.43-.43c0,.2-.04.34-.12.42-.08.08-.22.12-.41.12h-1.56.14-1.56c-.35,0-.53-.17-.53-.5v-.16c0-.52-.15-.95-.45-1.3-.36-.41-.84-.62-1.43-.62-.67,0-1.26.26-1.77.77-.46.46-.82,1.06-1.06,1.8-.26-.04-.39-.21-.39-.54v-1.5l-.96.5v1c0,.2-.04.34-.12.42-.08.08-.22.12-.41.12h-15.86c-.19,0-.33-.04-.41-.12-.08-.08-.13-.22-.13-.42v-2.52l-.95.5v.2c-.16-.07-.33-.11-.52-.11-.36,0-.67.13-.95.39-.32.31-.49.72-.49,1.22,0,.4.11.75.34,1.04.28.35.65.52,1.11.52.31,0,.58-.08.8-.25.26.31.62.47,1.09.47h16.04c.37,0,.67-.1.92-.3.24.2.55.3.92.3h3.27c.37,0,.67-.1.92-.3.24.2.55.3.92.3h1.65-.14,1.65c.4,0,.72-.11.97-.34.28-.26.43-.62.43-1.08v-1.95l-.96.5v1.4Z"/>
      <path class="cls-6" d="m118.41,31.42c-.15,0-.27.05-.36.14-.09.09-.14.21-.14.36,0,.16.05.28.14.37s.21.14.36.14c.33,0,.49-.17.49-.51,0-.15-.04-.27-.13-.36-.09-.09-.21-.13-.36-.13"/>
      <path class="cls-6" d="m130.35,26.48c.33,0,.49-.17.49-.51,0-.15-.04-.27-.13-.36-.09-.09-.21-.13-.36-.13-.33,0-.5.16-.5.49,0,.16.05.28.14.37s.21.14.36.14"/>
      <path class="cls-6" d="m131.52,26.48c.33,0,.49-.17.49-.51,0-.15-.04-.27-.13-.36-.09-.09-.21-.13-.36-.13-.33,0-.5.16-.5.49,0,.16.05.28.14.37.09.09.21.14.36.14"/>
      <path class="cls-6" d="m131.34,29.38c-.11.17-.25.29-.42.38-.17-.08-.3-.2-.41-.37-.11-.17-.16-.35-.16-.55,0-.46.19-.69.58-.69.18,0,.32.06.42.19.1.12.15.29.15.51,0,.19-.05.36-.16.53m3.54-.21c0,.24-.05.41-.15.52-.1.1-.27.15-.5.15h-2.1c.19-.31.29-.62.29-.94,0-.44-.11-.8-.34-1.1-.27-.36-.66-.54-1.15-.54-.43,0-.79.14-1.05.42-.3.31-.45.71-.45,1.22,0,.32.1.63.29.94h-7.58c-.19,0-.33-.04-.41-.12-.08-.08-.12-.22-.12-.42v-3.67l-.96.5v3.21c0,.4.11.72.33.98.25.29.61.44,1.07.44h8.28c.25,0,.45-.02.61-.05.15.03.35.05.61.05h2.75c.45,0,.82-.13,1.09-.4.3-.29.45-.68.45-1.17v-3.55l-.95.51v3.04Z"/>
      <polygon class="cls-6" points="136.47 26.13 136.47 30.75 137.43 30.75 137.43 25.62 136.47 26.13"/>
      <path class="cls-1" d="m128.04,18.68c.19.32.46.61.81.86.32.23.76.36,1.31.37.51-.02.97-.12,1.37-.32.43-.21.76-.53.98-.96.01-.02.03-.03.05-.03h0s.04.01.05.03c.19.32.46.62.81.88.35.26.8.39,1.36.39h2.64v-5.92h0v-.61c0-1.04-1.1-2.11-2.21-2.14v.97s0,0,0,0v5.49s-.02.06-.06.06h-.31c-.69,0-1.18-.19-1.46-.56-.27-.35-.4-.8-.4-1.34v-1.66h0v-.8c0-1.06-1.12-2.13-2.23-2.17v.97s0,.01,0,.02v4.42s0,.63,0,.63v.42s0,.03-.02.04c-.01.01-.02.02-.04.02h-.37c-.7,0-1.19-.19-1.46-.56-.27-.35-.4-.8-.4-1.34v-1.87h0v-.59c0-1.05-1.11-2.13-2.23-2.16v5.42c0,.33-.05.59-.15.78-.11.21-.36.33-.69.33h-1.02s-.74-.03-.74-.03h0c-.64,0-1.15-.2-1.46-.58-.2-.24-.33-.56-.39-.95-.21-3.08-3.35-6.1-6.33-6.1-.97,0-1.96,1.02-1.99,2.04h1.73c2.15,0,4.34,2.2,4.35,4.35v.04s0,.07,0,.11c0,.38-.06.69-.18.85-.12.17-.35.26-.69.26h-4.39c-1.02,0-2.06,1.08-2.1,2.16h6.66c.49,0,.96-.12,1.44-.38.42-.22.75-.53.97-.93.01-.02.03-.03.05-.03h0s.04.01.05.03c.2.33.49.63.85.88.34.24.79.38,1.27.41.06,0,.1.01.15.01h1.76c.61,0,1.13-.11,1.57-.32.43-.21.77-.52.99-.92.01-.02.03-.03.05-.03.02,0,.04.01.05.03"/>
      <path class="cls-1" d="m96.62,17.7s-.03.06-.06.06h-4.93c-.27,0-.49-.12-.66-.37-.12-.17-.18-.43-.18-.78v-.08s0-.05,0-.07c0-2.08,2.09-4.21,4.21-4.3.13,0,.27,0,.41,0,.31,0,.74.04.93.15.19.11.28.46.28.75v4.65Zm13.65,2.02c.49-.17.92-.5,1.23-.92.26-.36.43-.78.48-1.22l.02-.14c.06-.45.11-.88.06-1.32-.01-.09-.02-.18-.04-.28-.05-.28-.11-.54-.22-.76-.14-.29-.33-.57-.53-.82-.4-.5-.94-.93-1.56-1.24-.12-.06-.23-.12-.34-.16-.95-.41-2.09-.6-3.57-.6h-2.52s-.05-.02-.05-.04c0-.02,0-.05.02-.07l2.97-2.55c.45-.38.74-1.01.77-1.66.03-.56-.12-1.08-.43-1.43-5.41,4.64-6.45,5.53-6.66,5.7v2.19h6.05c.5,0,1.09.01,1.69.1.64.09,1.14.27,1.53.53.22.15.39.33.52.52.16.25.24.55.23.91,0,.17-.02.35-.06.51-.04.15-.11.27-.2.38l-.02.02c-.12.18-.37.37-.7.37h-10.11s-.06-.03-.06-.06v-4.8c0-1.23-.92-2.42-2.1-2.69-.5-.12-.95-.18-1.38-.2,0,0-.02,0-.02,0h-.35c-1.82,0-3.55.79-4.76,2.17-.47.54-.73,1.13-1.04,1.9-.42,1.05-.55,2.13-.4,3.12.12.81.48,1.89,1.45,2.39.62.32,1.16.34,1.8.34h.33s2.17,0,2.17,0c.02,0,.1,0,.21,0,.3,0,.86.02,1.26.02.37,0,.45,0,.46-.01v.05s.02,0,.02,0h0s.02,0,.02,0h.03c-.05.26-.12.47-.21.64-.16.28-.38.5-.66.65-.27.16-.58.26-.93.31-.29.05-.62.07-.97.08h-1.05s-.76,0-.76,0c-1,0-2.02,1.05-2.05,2.11h2.81s0,0,0,0h1.05c.7,0,1.27-.08,1.92-.24.62-.16,1.17-.41,1.63-.75.46-.33.82-.78,1.09-1.32.21-.42.35-.92.43-1.48,0-.03.03-.05.06-.05h7.7c.21,0,.43,0,.64,0,.21,0,.43,0,.64,0,.11,0,.21,0,.32,0,.08,0,.17,0,.25,0,.14,0,.29,0,.43,0,.45,0,.97-.02,1.46-.2"/>
    </g>
  </g>
</svg>