<?xml version="1.0" encoding="utf-8"?>
<!-- Generator: Adobe Illustrator 25.4.1, SVG Export Plug-In . SVG Version: 6.00 Build 0)  -->
<svg version="1.1" id="Layer_1" xmlns="http://www.w3.org/2000/svg" xmlns:xlink="http://www.w3.org/1999/xlink" x="0px" y="0px"
	 viewBox="0 0 743 116" style="enable-background:new 0 0 743 116;" xml:space="preserve">
<style type="text/css">
	.st0{fill:#FFFFFF;}
</style>
<path class="st0" d="M302.6,75.3c0.9,0.6,2.6,1.1,4.2,1.1c3.9,0,5.8-2.2,5.8-4.8c0-2.4-1.4-3.8-4.2-4.9c-2.3-0.9-3.3-1.6-3.3-3.2
	c0-1.1,0.9-2.5,3.1-2.5c1.5,0,2.6,0.5,3.1,0.8l0.6-1.7c-0.7-0.4-2-0.8-3.7-0.8c-3.2,0-5.3,1.9-5.3,4.5c0,2.3,1.7,3.7,4.4,4.7
	c2.2,0.9,3.1,1.7,3.1,3.3c0,1.7-1.3,2.8-3.5,2.8c-1.5,0-2.9-0.5-3.8-1.1L302.6,75.3L302.6,75.3z M324.5,70.9l1.8,5.2h2.3l-5.6-16.5
	h-2.6l-5.6,16.5h2.2l1.7-5.2H324.5L324.5,70.9z M319.1,69.2l1.6-4.8c0.3-1,0.6-2,0.8-3h0c0.2,1,0.5,1.9,0.9,3l1.6,4.8H319.1
	L319.1,69.2z M330.8,59.6v9.7c0,5.1,2.6,7.1,5.9,7.1c3.6,0,6.3-2.1,6.3-7.2v-9.6h-2.2v9.8c0,3.7-1.6,5.3-4,5.3
	c-2.2,0-3.9-1.6-3.9-5.3v-9.8H330.8L330.8,59.6z M351.6,76.4c3,0,5.4-1.9,5.4-4.6c0-1.9-1.2-3.3-3.2-4.1v-0.1c2-0.9,2.6-2.4,2.6-3.7
	c0-2-1.5-3.9-4.6-3.9c-2.8,0-4.9,1.7-4.9,4.2c0,1.4,0.8,2.8,2.5,3.6l0,0.1c-2,0.8-3.2,2.3-3.2,4.3C346.2,74.4,348.2,76.4,351.6,76.4
	L351.6,76.4z M351.6,74.8c-2,0-3.3-1.4-3.2-3c0-1.5,1-2.7,2.9-3.3c2.2,0.6,3.5,1.5,3.5,3.5C354.8,73.6,353.5,74.8,351.6,74.8
	L351.6,74.8z M351.6,61.4c1.9,0,2.7,1.3,2.7,2.6c0,1.5-1.1,2.4-2.4,2.9c-1.8-0.5-3-1.3-3-2.9C348.9,62.6,349.8,61.4,351.6,61.4
	L351.6,61.4z M359.8,60.2v1.8h7.8v0l-6.9,14.1h2.2l6.9-14.5v-1.4H359.8L359.8,60.2z M377.9,59.9c-3.2,0-5.5,2.9-5.5,8.3
	c0,5.3,2.2,8.2,5.3,8.2c3.5,0,5.5-3,5.5-8.4C383.1,62.9,381.2,59.9,377.9,59.9L377.9,59.9z M377.7,61.6c2.2,0,3.2,2.6,3.2,6.5
	c0,4.1-1.1,6.6-3.3,6.6c-2,0-3.2-2.4-3.2-6.5C374.5,63.9,375.9,61.6,377.7,61.6L377.7,61.6z M390.9,59.9c-3.2,0-5.5,2.9-5.5,8.3
	c0,5.3,2.2,8.2,5.3,8.2c3.5,0,5.5-3,5.5-8.4C396.2,62.9,394.3,59.9,390.9,59.9L390.9,59.9z M390.8,61.6c2.2,0,3.2,2.6,3.2,6.5
	c0,4.1-1.1,6.6-3.3,6.6c-2,0-3.2-2.4-3.2-6.5C387.6,63.9,388.9,61.6,390.8,61.6L390.8,61.6z M398.6,75.3c0.9,0.6,2.6,1.1,4.2,1.1
	c3.9,0,5.8-2.2,5.8-4.8c0-2.4-1.4-3.8-4.2-4.9c-2.3-0.9-3.3-1.6-3.3-3.2c0-1.1,0.9-2.5,3.1-2.5c1.5,0,2.6,0.5,3.1,0.8l0.6-1.7
	c-0.7-0.4-2-0.8-3.7-0.8c-3.2,0-5.3,1.9-5.3,4.5c0,2.3,1.7,3.7,4.4,4.7c2.2,0.9,3.1,1.7,3.1,3.3c0,1.7-1.3,2.8-3.5,2.8
	c-1.5,0-2.9-0.5-3.8-1.1L398.6,75.3L398.6,75.3z M420.6,66.6h-6.4v-5.2h6.8v-1.8H412v16.5h9.3v-1.8h-7.2v-6h6.4V66.6L420.6,66.6z
	 M424.6,76c1.1,0.1,2.4,0.2,3.9,0.2c3.2,0,5.8-0.8,7.3-2.4c1.5-1.5,2.4-3.7,2.4-6.4c0-2.7-0.9-4.6-2.3-5.9c-1.4-1.3-3.6-2.1-6.7-2.1
	c-1.7,0-3.2,0.1-4.5,0.3V76L424.6,76z M426.7,61.4c0.6-0.1,1.4-0.2,2.5-0.2c4.5,0,6.7,2.5,6.7,6.4c0,4.5-2.5,7-7,7
	c-0.8,0-1.6,0-2.2-0.1V61.4L426.7,61.4z M452.5,73.9c-0.9,0.4-2.2,0.7-3.5,0.7c-4,0-6.4-2.6-6.4-6.6c0-4.3,2.6-6.8,6.5-6.8
	c1.4,0,2.5,0.3,3.3,0.7L453,60c-0.6-0.3-1.9-0.7-3.9-0.7c-5.1,0-8.6,3.5-8.6,8.7c0,5.4,3.5,8.4,8.2,8.4c2,0,3.6-0.4,4.4-0.8
	L452.5,73.9L452.5,73.9z M462.3,59.3c-4.4,0-7.7,3.4-7.7,8.7c0,5,3.1,8.4,7.4,8.4c4.2,0,7.7-3,7.7-8.7
	C469.7,62.8,466.8,59.3,462.3,59.3L462.3,59.3z M462.2,61c3.6,0,5.3,3.4,5.3,6.7c0,3.8-1.9,6.9-5.3,6.9c-3.4,0-5.3-3.2-5.3-6.7
	C456.9,64.3,458.7,61,462.2,61L462.2,61z M477.6,59.9c-3.2,0-5.5,2.9-5.5,8.3c0,5.3,2.2,8.2,5.3,8.2c3.5,0,5.5-3,5.5-8.4
	C482.8,62.9,480.9,59.9,477.6,59.9L477.6,59.9z M477.4,61.6c2.2,0,3.2,2.6,3.2,6.5c0,4.1-1.1,6.6-3.3,6.6c-2,0-3.2-2.4-3.2-6.5
	C474.2,63.9,475.6,61.6,477.4,61.6L477.4,61.6z M495.5,76.1v-1.8h-7.2v0l1.3-1.2c3.4-3.2,5.5-5.6,5.5-8.6c0-2.3-1.4-4.6-4.9-4.6
	c-1.8,0-3.4,0.7-4.5,1.6l0.7,1.5c0.7-0.6,1.9-1.3,3.4-1.3c2.4,0,3.2,1.5,3.2,3.1c0,2.4-1.9,4.5-5.9,8.3l-1.7,1.6v1.3H495.5
	L495.5,76.1z M498.3,75.3c0.8,0.5,2.4,1.1,4.1,1.1c3.8,0,5.8-2.2,5.8-4.8c0-2.2-1.6-3.7-3.6-4.1v0c2-0.7,2.9-2.1,2.9-3.8
	c0-1.9-1.4-3.8-4.6-3.8c-1.7,0-3.3,0.6-4.2,1.2l0.6,1.6c0.7-0.5,1.9-1.1,3.2-1.1c2,0,2.8,1.1,2.8,2.4c0,1.9-2,2.7-3.6,2.7h-1.2v1.6
	h1.2c2.1,0,4.1,1,4.1,3.2c0,1.3-0.8,3.1-3.6,3.1c-1.5,0-2.9-0.6-3.5-1L498.3,75.3L498.3,75.3z M516.8,59.9c-3.2,0-5.5,2.9-5.5,8.3
	c0,5.3,2.2,8.2,5.3,8.2c3.5,0,5.5-3,5.5-8.4C522.1,62.9,520.1,59.9,516.8,59.9L516.8,59.9z M516.7,61.6c2.2,0,3.2,2.6,3.2,6.5
	c0,4.1-1.1,6.6-3.3,6.6c-2,0-3.2-2.4-3.2-6.5C513.4,63.9,514.8,61.6,516.7,61.6L516.7,61.6z M529.9,59.9c-3.2,0-5.5,2.9-5.5,8.3
	c0,5.3,2.2,8.2,5.3,8.2c3.5,0,5.5-3,5.5-8.4C535.1,62.9,533.2,59.9,529.9,59.9L529.9,59.9z M529.7,61.6c2.2,0,3.2,2.6,3.2,6.5
	c0,4.1-1.1,6.6-3.3,6.6c-2,0-3.2-2.4-3.2-6.5C526.5,63.9,527.8,61.6,529.7,61.6L529.7,61.6z M542.9,59.9c-3.2,0-5.5,2.9-5.5,8.3
	c0,5.3,2.2,8.2,5.3,8.2c3.5,0,5.5-3,5.5-8.4C548.2,62.9,546.3,59.9,542.9,59.9L542.9,59.9z M542.8,61.6c2.2,0,3.2,2.6,3.2,6.5
	c0,4.1-1.1,6.6-3.3,6.6c-2,0-3.2-2.4-3.2-6.5C539.5,63.9,540.9,61.6,542.8,61.6L542.8,61.6z M551.4,59.6v16.5h2.1V59.6H551.4
	L551.4,59.6z M566.3,66.6h-6.4v-5.2h6.8v-1.8h-8.9v16.5h9.3v-1.8h-7.2v-6h6.4V66.6L566.3,66.6z M574.3,76.1h2.1V60.2h-1.8L571,62
	l0.4,1.6l2.8-1.5h0V76.1L574.3,76.1z M587.3,76.1h2.1V60.2h-1.8l-3.5,1.9l0.4,1.6l2.8-1.5h0V76.1L587.3,76.1z M601.1,59.9
	c-3.2,0-5.5,2.9-5.5,8.3c0,5.3,2.2,8.2,5.3,8.2c3.5,0,5.5-3,5.5-8.4C606.3,62.9,604.4,59.9,601.1,59.9L601.1,59.9z M600.9,61.6
	c2.2,0,3.2,2.6,3.2,6.5c0,4.1-1.1,6.6-3.3,6.6c-2,0-3.2-2.4-3.2-6.5C597.7,63.9,599,61.6,600.9,61.6L600.9,61.6z"/>
<path class="st0" d="M316,38h-5.4v1.7h3.4v4.9c-0.5,0.2-1.4,0.4-2.8,0.4c-3.9,0-6.4-2.5-6.4-6.7c0-4.1,2.6-6.7,6.6-6.7
	c1.7,0,2.8,0.3,3.7,0.7l0.5-1.7c-0.7-0.3-2.2-0.8-4.1-0.8c-5.5,0-8.9,3.6-9,8.5c0,2.6,0.9,4.8,2.3,6.2c1.6,1.5,3.7,2.2,6.2,2.2
	c2.2,0,4.1-0.6,5.1-0.9V38L316,38z M319.7,46.7h2.2V29.3h-2.2V46.7L319.7,46.7z M331,34.5c-3.3,0-5.9,2.3-5.9,6.3
	c0,3.8,2.5,6.1,5.7,6.1c2.9,0,5.9-1.9,5.9-6.3C336.7,37,334.4,34.5,331,34.5L331,34.5z M330.9,36.1c2.6,0,3.6,2.6,3.6,4.6
	c0,2.7-1.5,4.6-3.6,4.6c-2.1,0-3.6-2-3.6-4.6C327.3,38.5,328.4,36.1,330.9,36.1L330.9,36.1z M341.7,46.7l0.1-2h0.1
	c0.9,1.6,2.3,2.2,4,2.2c2.6,0,5.3-2.1,5.3-6.3c0-3.6-2.1-6.1-5-6.1c-1.9,0-3.3,0.9-4,2.2h0v-7.5h-2.1v14.3c0,1.1,0,2.3-0.1,3.1
	H341.7L341.7,46.7z M342,39.8c0-0.3,0.1-0.6,0.1-0.9c0.4-1.6,1.8-2.6,3.3-2.6c2.3,0,3.5,2,3.5,4.4c0,2.7-1.3,4.6-3.6,4.6
	c-1.6,0-2.8-1-3.2-2.5c0-0.2-0.1-0.5-0.1-0.8V39.8L342,39.8z M362.9,46.7c-0.1-0.8-0.2-1.8-0.2-2.8v-4.4c0-2.4-0.9-4.9-4.5-4.9
	c-1.5,0-2.9,0.4-3.9,1.1l0.5,1.4c0.8-0.5,2-0.9,3.1-0.9c2.4,0,2.7,1.8,2.7,2.8v0.2c-4.6,0-7.1,1.5-7.1,4.4c0,1.7,1.2,3.4,3.6,3.4
	c1.7,0,3-0.8,3.6-1.8h0.1l0.2,1.5H362.9L362.9,46.7z M360.6,42.7c0,0.2,0,0.5-0.1,0.7c-0.3,1-1.3,2-2.9,2c-1.1,0-2-0.7-2-2.1
	c0-2.3,2.7-2.7,5-2.7V42.7L360.6,42.7z M366.7,46.7h2.2V29.3h-2.2V46.7L366.7,46.7z M377.9,45.9c0.9,0.6,2.6,1.1,4.2,1.1
	c3.9,0,5.8-2.2,5.8-4.8c0-2.4-1.4-3.8-4.2-4.9c-2.3-0.9-3.3-1.6-3.3-3.2c0-1.1,0.9-2.5,3.1-2.5c1.5,0,2.6,0.5,3.1,0.8l0.6-1.7
	c-0.7-0.4-2-0.8-3.7-0.8c-3.2,0-5.3,1.9-5.3,4.5c0,2.3,1.7,3.7,4.4,4.7c2.2,0.9,3.1,1.7,3.1,3.3c0,1.7-1.3,2.8-3.5,2.8
	c-1.5,0-2.9-0.5-3.8-1.1L377.9,45.9L377.9,45.9z M391.6,32v2.8h-1.8v1.6h1.8v6.5c0,1.4,0.2,2.5,0.8,3.1c0.5,0.6,1.3,0.9,2.3,0.9
	c0.8,0,1.5-0.1,1.9-0.3l-0.1-1.6c-0.3,0.1-0.7,0.1-1.3,0.1c-1.2,0-1.6-0.8-1.6-2.3v-6.4h3.1v-1.6h-3.1v-3.4L391.6,32L391.6,32z
	 M408.3,46.7c-0.1-0.8-0.2-1.8-0.2-2.8v-4.4c0-2.4-0.9-4.9-4.5-4.9c-1.5,0-2.9,0.4-3.9,1.1l0.5,1.4c0.8-0.5,2-0.9,3.1-0.9
	c2.4,0,2.7,1.8,2.7,2.8v0.2c-4.6,0-7.1,1.5-7.1,4.4c0,1.7,1.2,3.4,3.6,3.4c1.7,0,3-0.8,3.6-1.8h0.1l0.2,1.5H408.3L408.3,46.7z
	 M406,42.7c0,0.2,0,0.5-0.1,0.7c-0.3,1-1.3,2-2.9,2c-1.1,0-2-0.7-2-2.1c0-2.3,2.7-2.7,5-2.7V42.7L406,42.7z M412.1,46.7h2.2v-7.1
	c0-0.4,0-0.7,0.1-1c0.4-1.2,1.5-2.2,2.9-2.2c2,0,2.7,1.6,2.7,3.5v6.8h2.2v-7.1c0-4.1-2.5-5-4.2-5c-2,0-3.3,1.1-3.9,2.2h0l-0.1-2H412
	c0.1,1,0.1,2,0.1,3.2V46.7L412.1,46.7z M434.3,29.3v7.1h0c-0.5-1-1.8-1.8-3.6-1.8c-2.9,0-5.3,2.4-5.3,6.4c0,3.6,2.2,6,5.1,6
	c1.9,0,3.4-1,4-2.3h0l0.1,2.1h1.9c-0.1-0.8-0.1-2-0.1-3.1V29.3H434.3L434.3,29.3z M434.3,41.7c0,0.3,0,0.6-0.1,0.9
	c-0.4,1.6-1.7,2.6-3.2,2.6c-2.3,0-3.5-2-3.5-4.4c0-2.6,1.3-4.6,3.6-4.6c1.6,0,2.8,1.1,3.1,2.5c0.1,0.3,0.1,0.6,0.1,0.9V41.7
	L434.3,41.7z M449,46.7c-0.1-0.8-0.2-1.8-0.2-2.8v-4.4c0-2.4-0.9-4.9-4.5-4.9c-1.5,0-2.9,0.4-3.9,1.1l0.5,1.4c0.8-0.5,2-0.9,3.1-0.9
	c2.4,0,2.7,1.8,2.7,2.8v0.2c-4.6,0-7.1,1.5-7.1,4.4c0,1.7,1.2,3.4,3.6,3.4c1.7,0,3-0.8,3.6-1.8h0.1l0.2,1.5H449L449,46.7z
	 M446.7,42.7c0,0.2,0,0.5-0.1,0.7c-0.3,1-1.3,2-2.9,2c-1.1,0-2-0.7-2-2.1c0-2.3,2.7-2.7,5-2.7V42.7L446.7,42.7z M452.8,46.7h2.1
	v-6.3c0-0.4,0-0.7,0.1-1c0.3-1.6,1.4-2.8,2.9-2.8c0.3,0,0.5,0,0.7,0.1v-2c-0.2,0-0.4-0.1-0.6-0.1c-1.4,0-2.7,1-3.3,2.6h-0.1
	l-0.1-2.3h-1.9c0.1,1.1,0.1,2.3,0.1,3.7V46.7L452.8,46.7z M469.2,29.3v7.1h0c-0.5-1-1.8-1.8-3.6-1.8c-2.9,0-5.3,2.4-5.3,6.4
	c0,3.6,2.2,6,5.1,6c1.9,0,3.4-1,4-2.3h0l0.1,2.1h1.9c-0.1-0.8-0.1-2-0.1-3.1V29.3H469.2L469.2,29.3z M469.2,41.7
	c0,0.3,0,0.6-0.1,0.9c-0.4,1.6-1.7,2.6-3.2,2.6c-2.3,0-3.5-2-3.5-4.4c0-2.6,1.3-4.6,3.6-4.6c1.6,0,2.8,1.1,3.1,2.5
	c0.1,0.3,0.1,0.6,0.1,0.9V41.7L469.2,41.7z M489.7,41.5l1.8,5.2h2.3l-5.6-16.5h-2.6l-5.6,16.5h2.2l1.7-5.2H489.7L489.7,41.5z
	 M484.3,39.8l1.6-4.8c0.3-1,0.6-2,0.8-3h0c0.2,1,0.5,1.9,0.9,3l1.6,4.8H484.3L484.3,39.8z M496.5,46.7h2.2v-7.1c0-0.4,0-0.7,0.1-1
	c0.4-1.2,1.5-2.2,2.9-2.2c2,0,2.7,1.6,2.7,3.5v6.8h2.2v-7.1c0-4.1-2.5-5-4.2-5c-2,0-3.3,1.1-3.9,2.2h0l-0.1-2h-1.9
	c0.1,1,0.1,2,0.1,3.2V46.7L496.5,46.7z M510.6,46.7h2.2v-7.1c0-0.4,0-0.7,0.1-1c0.4-1.2,1.5-2.2,2.9-2.2c2,0,2.7,1.6,2.7,3.5v6.8
	h2.2v-7.1c0-4.1-2.5-5-4.2-5c-2,0-3.3,1.1-3.9,2.2h0l-0.1-2h-1.9c0.1,1,0.1,2,0.1,3.2V46.7L510.6,46.7z M534.6,34.8h-2.2v7.3
	c0,0.4-0.1,0.8-0.2,1.1c-0.4,1-1.4,2-2.8,2c-2,0-2.6-1.5-2.6-3.8v-6.6h-2.2v6.9c0,4.2,2.2,5.2,4.1,5.2c2.1,0,3.4-1.2,3.9-2.2h0
	l0.1,1.9h1.9c-0.1-0.9-0.1-2-0.1-3.2V34.8L534.6,34.8z M547.2,46.7c-0.1-0.8-0.2-1.8-0.2-2.8v-4.4c0-2.4-0.9-4.9-4.5-4.9
	c-1.5,0-2.9,0.4-3.9,1.1l0.5,1.4c0.8-0.5,2-0.9,3.1-0.9c2.4,0,2.7,1.8,2.7,2.8v0.2c-4.6,0-7.1,1.5-7.1,4.4c0,1.7,1.2,3.4,3.6,3.4
	c1.7,0,3-0.8,3.6-1.8h0.1l0.2,1.5H547.2L547.2,46.7z M545,42.7c0,0.2,0,0.5-0.1,0.7c-0.3,1-1.3,2-2.9,2c-1.1,0-2-0.7-2-2.1
	c0-2.3,2.7-2.7,5-2.7V42.7L545,42.7z M551,46.7h2.2V29.3H551V46.7L551,46.7z M563.1,46.7h2.1v-7.2h2c1.9,0.1,2.8,0.9,3.3,3.2
	c0.5,2.1,0.8,3.5,1.1,3.9h2.2c-0.3-0.6-0.7-2.2-1.3-4.5c-0.4-1.7-1.1-2.9-2.4-3.3v-0.1c1.7-0.6,3.1-2,3.1-4.2c0-1.3-0.5-2.4-1.3-3.1
	c-1-0.9-2.5-1.3-4.8-1.3c-1.5,0-3,0.1-4.1,0.3V46.7L563.1,46.7z M565.2,31.9c0.3-0.1,1.1-0.2,2.1-0.2c2.3,0,3.8,1,3.8,3.1
	c0,1.9-1.4,3.1-3.7,3.1h-2.2V31.9L565.2,31.9z M586.3,41.1c0-0.2,0.1-0.6,0.1-1c0-2.2-1-5.6-4.9-5.6c-3.5,0-5.6,2.8-5.6,6.4
	c0,3.6,2.2,6,5.8,6c1.9,0,3.2-0.4,3.9-0.7l-0.4-1.5c-0.8,0.3-1.7,0.6-3.3,0.6c-2.2,0-4-1.2-4.1-4.1H586.3L586.3,41.1z M578,39.6
	c0.2-1.5,1.1-3.5,3.3-3.5c2.4,0,3,2.1,3,3.5H578L578,39.6z M589.6,51.5h2.1v-6.4h0c0.7,1.2,2.1,1.9,3.7,1.9c2.8,0,5.4-2.1,5.4-6.4
	c0-3.6-2.2-6-5-6c-1.9,0-3.3,0.9-4.2,2.3h0l-0.1-2h-1.9c0,1.1,0.1,2.4,0.1,3.9V51.5L589.6,51.5z M591.7,39.8c0-0.3,0.1-0.6,0.1-0.9
	c0.4-1.6,1.8-2.7,3.3-2.7c2.3,0,3.5,2,3.5,4.4c0,2.7-1.3,4.6-3.6,4.6c-1.5,0-2.8-1-3.2-2.5c0-0.3-0.1-0.6-0.1-0.9V39.8L591.7,39.8z
	 M609,34.5c-3.3,0-5.9,2.3-5.9,6.3c0,3.8,2.5,6.1,5.7,6.1c2.9,0,5.9-1.9,5.9-6.3C614.7,37,612.4,34.5,609,34.5L609,34.5z M609,36.1
	c2.6,0,3.6,2.6,3.6,4.6c0,2.7-1.5,4.6-3.6,4.6c-2.1,0-3.6-2-3.6-4.6C605.3,38.5,606.4,36.1,609,36.1L609,36.1z M618,46.7h2.1v-6.3
	c0-0.4,0-0.7,0.1-1c0.3-1.6,1.4-2.8,2.9-2.8c0.3,0,0.5,0,0.7,0.1v-2c-0.2,0-0.4-0.1-0.6-0.1c-1.4,0-2.7,1-3.3,2.6h-0.1l-0.1-2.3
	h-1.9c0.1,1.1,0.1,2.3,0.1,3.7V46.7L618,46.7z M627.5,32v2.8h-1.8v1.6h1.8v6.5c0,1.4,0.2,2.5,0.8,3.1c0.5,0.6,1.3,0.9,2.3,0.9
	c0.8,0,1.5-0.1,1.9-0.3l-0.1-1.6c-0.3,0.1-0.7,0.1-1.3,0.1c-1.2,0-1.6-0.8-1.6-2.3v-6.4h3.1v-1.6h-3.1v-3.4L627.5,32L627.5,32z
	 M643.4,46.7v-7.1c0-2.8,0-4.7-0.2-6.8l0.1,0c0.8,1.8,1.9,3.7,3.1,5.5l5.2,8.4h2.2V30.1h-2v6.9c0,2.6,0,4.6,0.2,6.8l0,0
	c-0.8-1.7-1.7-3.4-3-5.4l-5.3-8.4h-2.3v16.5H643.4L643.4,46.7z M667.9,34.8h-2.2v7.3c0,0.4-0.1,0.8-0.2,1.1c-0.4,1-1.4,2-2.8,2
	c-2,0-2.7-1.5-2.7-3.8v-6.6h-2.2v6.9c0,4.2,2.2,5.2,4.1,5.2c2.1,0,3.4-1.2,3.9-2.2h0l0.1,1.9h1.9c-0.1-0.9-0.1-2-0.1-3.2V34.8
	L667.9,34.8z M672,46.7h2.1v-7.2c0-0.4,0-0.7,0.2-1.1c0.3-1.1,1.3-2.2,2.7-2.2c1.6,0,2.5,1.4,2.5,3.3v7.1h2.1v-7.3
	c0-0.4,0.1-0.8,0.2-1.1c0.4-1.1,1.3-2,2.6-2c1.7,0,2.6,1.4,2.6,3.7v6.7h2.1v-7c0-4.1-2.3-5.1-3.9-5.1c-1.1,0-1.9,0.3-2.6,0.8
	c-0.5,0.4-1,0.9-1.3,1.5h0c-0.5-1.4-1.7-2.4-3.4-2.4c-2,0-3.1,1.1-3.7,2.2h-0.1l-0.1-1.9h-1.9c0.1,1,0.1,2,0.1,3.2V46.7L672,46.7z
	 M694.7,46.7l0.1-2h0.1c0.9,1.6,2.3,2.2,4,2.2c2.6,0,5.3-2.1,5.3-6.3c0-3.6-2.1-6.1-5-6.1c-1.9,0-3.3,0.9-4.1,2.2h0v-7.5h-2.1v14.3
	c0,1.1,0,2.3-0.1,3.1H694.7L694.7,46.7z M695.1,39.8c0-0.3,0.1-0.6,0.1-0.9c0.4-1.6,1.8-2.6,3.3-2.6c2.3,0,3.5,2,3.5,4.4
	c0,2.7-1.3,4.6-3.6,4.6c-1.6,0-2.8-1-3.2-2.5c0-0.2-0.1-0.5-0.1-0.8V39.8L695.1,39.8z M716.9,41.1c0-0.2,0.1-0.6,0.1-1
	c0-2.2-1-5.6-4.9-5.6c-3.5,0-5.6,2.8-5.6,6.4c0,3.6,2.2,6,5.8,6c1.9,0,3.2-0.4,3.9-0.7l-0.4-1.5c-0.8,0.3-1.7,0.6-3.3,0.6
	c-2.2,0-4-1.2-4.1-4.1H716.9L716.9,41.1z M708.6,39.6c0.2-1.5,1.1-3.5,3.3-3.5c2.4,0,3,2.1,3,3.5H708.6L708.6,39.6z M720.2,46.7h2.1
	v-6.3c0-0.4,0-0.7,0.1-1c0.3-1.6,1.4-2.8,2.9-2.8c0.3,0,0.5,0,0.7,0.1v-2c-0.2,0-0.4-0.1-0.6-0.1c-1.4,0-2.7,1-3.3,2.6H722l-0.1-2.3
	h-1.9c0.1,1.1,0.1,2.3,0.1,3.7V46.7L720.2,46.7z M733.7,29.2c-2.4,0-4.3,2-4.3,4.4c0,2.5,1.9,4.4,4.3,4.4c2.4,0,4.3-2,4.3-4.4
	C738,31.2,736.1,29.2,733.7,29.2L733.7,29.2z M733.7,29.8c2,0,3.6,1.7,3.6,3.8c0,2.2-1.6,3.8-3.6,3.8c-2.1,0-3.6-1.7-3.6-3.8
	C730.1,31.5,731.6,29.8,733.7,29.8L733.7,29.8z M735.6,31.4c-0.2-0.2-0.8-0.4-1.6-0.4c-1.4,0-2.7,1-2.7,2.7c0,1.4,1,2.6,2.6,2.6
	c0.6,0,1.3-0.1,1.8-0.4l-0.2-0.5c-0.3,0.2-0.9,0.4-1.4,0.4c-1.3,0-2-0.9-2-2c0-1.1,0.7-2,2-2c0.7,0,1.2,0.2,1.4,0.3L735.6,31.4
	L735.6,31.4z"/>
<path class="st0" d="M45.5,97.6l3.2,10.6h0l3-10.6h1.7l3,10.6h0l3.2-10.6h1.6l-4,12.3h-1.6l-3-10.4h0l-3,10.4h-1.6l-4-12.3H45.5
	L45.5,97.6z M65.1,97.6l3.2,10.6h0l3-10.6H73l3,10.6h0l3.2-10.6h1.6l-4,12.3h-1.6l-3-10.4h0l-3,10.4h-1.6l-4-12.3H65.1L65.1,97.6z
	 M84.7,97.6l3.2,10.6h0l3-10.6h1.7l3,10.6h0l3.2-10.6h1.6l-4,12.3h-1.6l-3-10.4h0l-3,10.4h-1.6l-4-12.3H84.7L84.7,97.6z
	 M103.6,107.4h2v2.5h-2V107.4L103.6,107.4z M121.3,111.4c-0.2,0.7-0.5,1.4-0.9,1.9c-0.4,0.5-1,0.9-1.7,1.2c-0.7,0.3-1.5,0.4-2.5,0.4
	c-0.6,0-1.2-0.1-1.8-0.2c-0.6-0.1-1.1-0.4-1.6-0.7c-0.5-0.3-0.9-0.7-1.2-1.2c-0.3-0.5-0.5-1-0.5-1.7h1.5c0.1,0.5,0.2,0.9,0.5,1.2
	c0.2,0.3,0.5,0.6,0.8,0.8c0.3,0.2,0.7,0.3,1.1,0.4c0.4,0.1,0.8,0.1,1.2,0.1c1.4,0,2.4-0.4,3-1.2c0.6-0.8,0.9-1.9,0.9-3.4v-1.7h0
	c-0.3,0.8-0.9,1.4-1.5,1.8c-0.7,0.5-1.5,0.7-2.4,0.7c-1,0-1.8-0.2-2.5-0.5c-0.7-0.3-1.3-0.8-1.7-1.3c-0.5-0.6-0.8-1.2-1-2
	c-0.2-0.8-0.3-1.6-0.3-2.5c0-0.8,0.1-1.6,0.4-2.4c0.2-0.8,0.6-1.4,1.1-2c0.5-0.6,1.1-1,1.7-1.3c0.7-0.3,1.5-0.5,2.4-0.5
	c0.5,0,0.9,0.1,1.3,0.2c0.4,0.1,0.8,0.3,1.1,0.5c0.3,0.2,0.6,0.5,0.9,0.8c0.3,0.3,0.5,0.6,0.6,1h0v-2.1h1.5v11.3
	C121.6,109.8,121.5,110.7,121.3,111.4L121.3,111.4z M117.9,108.1c0.5-0.3,0.9-0.6,1.2-1.1c0.3-0.5,0.6-1,0.8-1.6
	c0.2-0.6,0.2-1.2,0.2-1.8c0-0.6-0.1-1.2-0.2-1.8c-0.1-0.6-0.4-1.2-0.7-1.6c-0.3-0.5-0.7-0.9-1.2-1.2c-0.5-0.3-1.1-0.5-1.8-0.5
	c-0.7,0-1.3,0.1-1.8,0.4c-0.5,0.3-0.9,0.7-1.3,1.2c-0.3,0.5-0.6,1-0.7,1.6s-0.2,1.2-0.2,1.9c0,0.6,0.1,1.2,0.2,1.8
	c0.2,0.6,0.4,1.1,0.7,1.6c0.3,0.5,0.8,0.8,1.3,1.1c0.5,0.3,1.1,0.4,1.8,0.4C116.8,108.5,117.4,108.4,117.9,108.1L117.9,108.1z
	 M133.5,100c-0.2-0.3-0.4-0.6-0.7-0.9c-0.3-0.2-0.6-0.4-1-0.5c-0.4-0.1-0.8-0.2-1.2-0.2c-0.3,0-0.7,0-1,0.1
	c-0.3,0.1-0.7,0.2-0.9,0.4c-0.3,0.2-0.5,0.4-0.7,0.7c-0.2,0.3-0.3,0.6-0.3,1c0,0.3,0.1,0.6,0.3,0.8c0.2,0.2,0.4,0.4,0.6,0.6
	c0.3,0.2,0.5,0.3,0.8,0.4c0.3,0.1,0.6,0.2,0.8,0.3l2,0.5c0.4,0.1,0.9,0.2,1.3,0.3c0.4,0.2,0.8,0.4,1.1,0.7c0.3,0.3,0.6,0.6,0.8,1
	c0.2,0.4,0.3,0.9,0.3,1.4c0,0.7-0.2,1.2-0.5,1.7c-0.3,0.5-0.7,0.9-1.2,1.1c-0.5,0.3-1,0.5-1.6,0.6c-0.6,0.1-1.2,0.2-1.7,0.2
	c-1.4,0-2.6-0.3-3.5-1c-0.9-0.7-1.4-1.8-1.5-3.3h1.5c0.1,1,0.4,1.8,1.1,2.3c0.7,0.5,1.5,0.8,2.5,0.8c0.4,0,0.7,0,1.1-0.1
	c0.4-0.1,0.8-0.2,1.1-0.4c0.3-0.2,0.6-0.4,0.8-0.7c0.2-0.3,0.3-0.7,0.3-1.1c0-0.4-0.1-0.7-0.2-0.9c-0.2-0.2-0.4-0.5-0.6-0.6
	c-0.3-0.2-0.5-0.3-0.9-0.4c-0.3-0.1-0.7-0.2-1-0.3l-1.9-0.4c-0.5-0.1-0.9-0.3-1.4-0.4c-0.4-0.2-0.8-0.4-1.1-0.6
	c-0.3-0.2-0.6-0.5-0.7-0.9c-0.2-0.4-0.3-0.8-0.3-1.3c0-0.6,0.1-1.2,0.4-1.6c0.3-0.4,0.6-0.8,1.1-1.1c0.4-0.3,0.9-0.5,1.5-0.6
	c0.6-0.1,1.1-0.2,1.6-0.2c0.6,0,1.2,0.1,1.7,0.2c0.5,0.2,1,0.4,1.4,0.7c0.4,0.3,0.7,0.7,1,1.2c0.2,0.5,0.4,1.1,0.4,1.7h-1.5
	C133.8,100.8,133.7,100.4,133.5,100L133.5,100z M140.1,99.5c0.3-0.5,0.6-1,1-1.3c0.4-0.3,0.9-0.6,1.5-0.7c0.6-0.2,1.2-0.2,2-0.2
	c0.5,0,1.1,0.1,1.6,0.2c0.5,0.1,1,0.3,1.5,0.6c0.4,0.3,0.8,0.7,1.1,1.2c0.3,0.5,0.4,1.2,0.4,2v6.5c0,0.6,0.3,0.9,0.9,0.9
	c0.2,0,0.3,0,0.5-0.1v1.3c-0.2,0-0.3,0.1-0.5,0.1c-0.1,0-0.3,0-0.5,0c-0.4,0-0.7-0.1-0.9-0.2c-0.2-0.1-0.4-0.2-0.5-0.4
	c-0.1-0.2-0.2-0.4-0.2-0.7c0-0.3-0.1-0.6-0.1-0.9h0c-0.3,0.4-0.5,0.8-0.8,1.1c-0.3,0.3-0.6,0.6-0.9,0.8c-0.3,0.2-0.7,0.4-1.2,0.5
	c-0.4,0.1-1,0.2-1.6,0.2c-0.6,0-1.1-0.1-1.6-0.2c-0.5-0.1-0.9-0.3-1.3-0.6c-0.4-0.3-0.7-0.7-0.9-1.1c-0.2-0.5-0.3-1-0.3-1.6
	c0-0.9,0.2-1.5,0.6-2c0.4-0.5,0.9-0.9,1.5-1.1c0.6-0.3,1.3-0.4,2.1-0.5c0.8-0.1,1.6-0.2,2.4-0.3c0.3,0,0.6-0.1,0.8-0.1
	c0.2,0,0.4-0.1,0.6-0.3c0.2-0.1,0.3-0.3,0.4-0.5c0.1-0.2,0.1-0.5,0.1-0.8c0-0.5-0.1-0.9-0.2-1.3c-0.2-0.3-0.4-0.6-0.7-0.8
	c-0.3-0.2-0.6-0.3-1-0.4c-0.4-0.1-0.8-0.1-1.3-0.1c-1,0-1.7,0.2-2.3,0.7c-0.6,0.5-0.9,1.2-1,2.2h-1.5
	C139.7,100.7,139.9,100,140.1,99.5L140.1,99.5z M147.6,103.2c-0.1,0.2-0.3,0.3-0.6,0.4c-0.3,0.1-0.5,0.1-0.7,0.2
	c-0.6,0.1-1.3,0.2-2,0.3c-0.7,0.1-1.3,0.2-1.9,0.4c-0.6,0.2-1,0.4-1.4,0.8c-0.4,0.3-0.5,0.8-0.5,1.4c0,0.4,0.1,0.7,0.2,1
	c0.2,0.3,0.4,0.6,0.6,0.8c0.3,0.2,0.6,0.4,0.9,0.5c0.3,0.1,0.7,0.2,1,0.2c0.6,0,1.1-0.1,1.6-0.3c0.5-0.2,1-0.4,1.4-0.8
	c0.4-0.3,0.7-0.7,0.9-1.2c0.2-0.5,0.3-1,0.3-1.6L147.6,103.2L147.6,103.2L147.6,103.2z M155.5,97.6v2.9h0c0.4-1,1-1.8,1.8-2.3
	c0.8-0.5,1.8-0.8,2.9-0.7v1.5c-0.7,0-1.3,0.1-1.9,0.3c-0.6,0.2-1,0.5-1.4,0.9c-0.4,0.4-0.7,0.9-0.9,1.4c-0.2,0.5-0.3,1.1-0.3,1.8
	v6.6h-1.5V97.6H155.5L155.5,97.6z M165.5,97.6v2.1h0c0.3-0.7,0.8-1.3,1.5-1.8c0.7-0.5,1.5-0.7,2.4-0.7c0.9,0,1.6,0.1,2.2,0.3
	c0.6,0.2,1,0.5,1.4,0.9c0.4,0.4,0.6,0.9,0.7,1.5c0.1,0.6,0.2,1.3,0.2,2v7.9h-1.5v-7.7c0-0.5,0-1-0.1-1.5c-0.1-0.5-0.3-0.9-0.5-1.2
	c-0.2-0.3-0.6-0.6-1-0.8c-0.4-0.2-0.9-0.3-1.5-0.3c-0.6,0-1.1,0.1-1.6,0.3c-0.5,0.2-0.9,0.5-1.2,0.9c-0.3,0.4-0.6,0.8-0.8,1.3
	c-0.2,0.5-0.3,1.1-0.3,1.7v7.2H164V97.6H165.5L165.5,97.6z M179.6,107.4h2v2.5h-2V107.4L179.6,107.4z M190.6,99
	c-0.5,0.3-1,0.7-1.3,1.2c-0.4,0.5-0.6,1.1-0.8,1.7c-0.2,0.6-0.3,1.3-0.3,1.9c0,0.7,0.1,1.3,0.3,1.9c0.2,0.6,0.5,1.2,0.8,1.7
	c0.4,0.5,0.8,0.9,1.3,1.2c0.5,0.3,1.2,0.5,1.9,0.5c0.7,0,1.3-0.2,1.9-0.5c0.5-0.3,1-0.7,1.4-1.2c0.4-0.5,0.6-1.1,0.8-1.7
	c0.2-0.6,0.3-1.3,0.3-1.9c0-0.7-0.1-1.3-0.3-1.9c-0.2-0.6-0.5-1.2-0.8-1.7c-0.4-0.5-0.8-0.9-1.4-1.2c-0.5-0.3-1.2-0.5-1.9-0.5
	C191.7,98.5,191.1,98.7,190.6,99L190.6,99z M195,97.8c0.7,0.3,1.3,0.8,1.8,1.4c0.5,0.6,0.9,1.3,1.1,2.1c0.3,0.8,0.4,1.6,0.4,2.5
	c0,0.9-0.1,1.7-0.4,2.5c-0.3,0.8-0.6,1.5-1.1,2.1c-0.5,0.6-1.1,1.1-1.8,1.4c-0.7,0.3-1.6,0.5-2.5,0.5c-0.9,0-1.8-0.2-2.5-0.5
	c-0.7-0.3-1.3-0.8-1.8-1.4c-0.5-0.6-0.9-1.3-1.1-2.1c-0.3-0.8-0.4-1.6-0.4-2.5c0-0.9,0.1-1.7,0.4-2.5c0.3-0.8,0.6-1.5,1.1-2.1
	c0.5-0.6,1.1-1.1,1.8-1.4c0.7-0.4,1.6-0.5,2.5-0.5C193.4,97.3,194.2,97.4,195,97.8L195,97.8z M203.8,97.6v2.9h0c0.4-1,1-1.8,1.8-2.3
	c0.8-0.5,1.8-0.8,2.9-0.7v1.5c-0.7,0-1.3,0.1-1.9,0.3c-0.6,0.2-1,0.5-1.4,0.9c-0.4,0.4-0.7,0.9-0.9,1.4c-0.2,0.5-0.3,1.1-0.3,1.8
	v6.6h-1.5V97.6H203.8L203.8,97.6z M222,111.4c-0.2,0.7-0.5,1.4-0.9,1.9c-0.4,0.5-1,0.9-1.7,1.2c-0.7,0.3-1.5,0.4-2.5,0.4
	c-0.6,0-1.2-0.1-1.8-0.2c-0.6-0.1-1.1-0.4-1.6-0.7c-0.5-0.3-0.9-0.7-1.2-1.2c-0.3-0.5-0.5-1-0.5-1.7h1.5c0.1,0.5,0.2,0.9,0.5,1.2
	c0.2,0.3,0.5,0.6,0.8,0.8c0.3,0.2,0.7,0.3,1.1,0.4c0.4,0.1,0.8,0.1,1.2,0.1c1.4,0,2.4-0.4,3-1.2c0.6-0.8,0.9-1.9,0.9-3.4v-1.7h0
	c-0.3,0.8-0.9,1.4-1.5,1.8c-0.7,0.5-1.5,0.7-2.4,0.7c-1,0-1.8-0.2-2.5-0.5c-0.7-0.3-1.3-0.8-1.7-1.3s-0.8-1.2-1-2
	c-0.2-0.8-0.3-1.6-0.3-2.5c0-0.8,0.1-1.6,0.4-2.4c0.2-0.8,0.6-1.4,1.1-2c0.5-0.6,1.1-1,1.7-1.3c0.7-0.3,1.5-0.5,2.4-0.5
	c0.5,0,0.9,0.1,1.3,0.2c0.4,0.1,0.8,0.3,1.1,0.5c0.3,0.2,0.6,0.5,0.9,0.8c0.3,0.3,0.5,0.6,0.6,1h0v-2.1h1.5v11.3
	C222.3,109.8,222.2,110.7,222,111.4L222,111.4z M218.5,108.1c0.5-0.3,0.9-0.6,1.2-1.1c0.3-0.5,0.6-1,0.8-1.6
	c0.2-0.6,0.2-1.2,0.2-1.8c0-0.6-0.1-1.2-0.2-1.8c-0.1-0.6-0.4-1.2-0.7-1.6c-0.3-0.5-0.7-0.9-1.2-1.2c-0.5-0.3-1.1-0.5-1.8-0.5
	c-0.7,0-1.3,0.1-1.8,0.4c-0.5,0.3-0.9,0.7-1.3,1.2c-0.3,0.5-0.6,1-0.7,1.6c-0.2,0.6-0.2,1.2-0.2,1.9c0,0.6,0.1,1.2,0.2,1.8
	c0.2,0.6,0.4,1.1,0.7,1.6c0.3,0.5,0.8,0.8,1.3,1.1c0.5,0.3,1.1,0.4,1.8,0.4C217.5,108.5,218,108.4,218.5,108.1L218.5,108.1z"/>
<path class="st0" d="M51.2,55.6c-0.1,2.2-0.3,4.4-0.6,6.4c-0.4,2-1,4-1.9,5.8c-1,1.9-2.2,3.5-3.5,4.8c-1.4,1.3-2.8,2.4-4.4,3.2
	c-1.6,0.8-3.2,1.4-4.9,1.8c-1.7,0.4-3.3,0.5-4.9,0.5c-3.4,0-6.4-0.7-9-2c-2.6-1.3-4.9-3.1-6.7-5.3C13.3,68.6,12,66,11,63
	c-1-2.9-1.4-6.1-1.4-9.3c0-4.1,0.4-8,1.3-11.4c0.8-3.5,2.2-6.4,4-8.9c1.8-2.5,4.1-4.4,6.9-5.8c2.8-1.4,6.1-2,10-2
	c2.2,0,4.3,0.3,6.3,0.9c2,0.6,3.9,1.5,5.5,2.7c1.6,1.2,3,2.6,4.2,4.4c1.2,1.7,2,3.7,2.5,5.9h5.7c-0.7-3.2-1.7-5.9-3.2-8.2
	c-1.5-2.3-3.3-4.3-5.4-5.8c-2.2-1.6-4.6-2.7-7.3-3.5c-2.7-0.8-5.6-1.1-8.7-1.1c-4.6,0-8.7,0.8-12.1,2.4c-3.4,1.6-6.2,3.8-8.5,6.5
	c-2.3,2.8-3.9,6-5,9.7C4.5,43.1,4,47.2,4,51.5c0,5.2,0.6,9.8,1.9,13.8c1.3,3.9,3.1,7.2,5.4,9.8s5,4.5,8.2,5.9c3.2,1.3,6.6,2,10.3,2
	c2.9,0,5.5-0.3,7.8-0.8c2.3-0.5,4.3-1.3,6.1-2.3c1.7-1,3.3-2.2,4.6-3.7c1.3-1.4,2.5-3,3.6-4.8v10.1h4.8V50.8H31.3v4.7H51.2
	L51.2,55.6z M61.1,63.7c0,3.2,0.5,6,1.6,8.4c1.1,2.4,2.6,4.4,4.5,6c1.9,1.6,4.2,2.8,6.8,3.6c2.6,0.8,5.5,1.2,8.5,1.2
	c6.8,0,12.1-1.5,15.9-4.5c3.8-3,5.6-7.2,5.6-12.7c0-2.8-0.5-5.2-1.4-7.1c-1-1.9-2.2-3.4-3.8-4.6c-1.6-1.2-3.4-2.2-5.4-2.9
	c-2-0.7-4.2-1.3-6.3-1.8c-2.2-0.5-4.3-1-6.4-1.5c-2.1-0.5-4-1.1-5.8-1.8c-1.7-0.7-3.2-1.7-4.4-2.8c-1.2-1.1-2-2.7-2.3-4.6
	c-0.3-1.5-0.2-3.1,0.2-4.6c0.4-1.5,1.2-2.9,2.4-4.2c1.1-1.3,2.7-2.3,4.6-3.1c1.9-0.8,4.3-1.2,7.2-1.2c1.9,0,3.7,0.2,5.4,0.7
	c1.7,0.5,3.3,1.3,4.7,2.3c1.4,1,2.4,2.4,3.2,4c0.8,1.6,1.2,3.6,1.2,5.8h5.3c0-2.4-0.4-4.7-1.2-6.8c-0.8-2.1-2-4-3.7-5.6
	c-1.6-1.6-3.7-2.9-6.2-3.8c-2.5-0.9-5.4-1.4-8.7-1.4c-3.3,0-6.2,0.4-8.7,1.3c-2.5,0.9-4.6,2-6.3,3.5c-1.7,1.5-2.9,3.2-3.8,5.1
	c-0.8,1.9-1.3,3.9-1.3,5.9c0,2.9,0.5,5.3,1.6,7.2c1,1.9,2.4,3.4,4.1,4.6c1.7,1.2,3.6,2.2,5.7,2.9c2.2,0.7,4.4,1.3,6.6,1.8
	c2.3,0.5,4.5,1.1,6.6,1.6c2.2,0.5,4.1,1.3,5.7,2.2c1.7,0.9,3,2.1,4.1,3.5c1,1.4,1.6,3.3,1.6,5.6c0,1.6-0.3,3.2-0.9,4.7
	C97,72,96.2,73.3,95,74.4c-1.2,1.1-2.8,2-4.7,2.7c-1.9,0.7-4.2,1-6.8,1c-2.2,0-4.3-0.3-6.3-0.8c-2-0.5-3.7-1.4-5.2-2.5
	c-1.5-1.1-2.7-2.6-3.7-4.5c-1-1.8-1.5-4.1-1.8-6.7H61.1L61.1,63.7z M131.8,35.8l7.4,23.2h-15.1L131.8,35.8L131.8,35.8z M104,81.3
	h12.9l4-12.1h21.7l3.9,12.1h13.4l-20.8-58.9H125L104,81.3L104,81.3z M187.4,32.6c2.5,0,4.4,0.3,5.7,1c2.3,1.2,3.4,3.6,3.4,7.2
	c0,3.3-1.2,5.5-3.5,6.6c-1.3,0.6-3.3,1-5.9,1h-13.2V32.6H187.4L187.4,32.6z M190,22.4h-28.2v58.9h12V58.2h12c3.4,0,5.8,0.6,7,1.9
	c1.2,1.3,1.9,3.8,1.9,7.5l0.1,5.5c0,1.7,0.2,3.4,0.5,5.1c0.2,0.8,0.4,1.9,0.8,3.2h13.6v-1.5c-1.2-0.7-1.9-1.8-2.3-3.4
	c-0.2-1-0.3-2.8-0.3-5.5v-4c0-4.1-0.6-7.2-1.7-9.2c-1.1-2-3.1-3.6-5.8-4.7c3.2-1.1,5.6-3,7-5.7c1.4-2.7,2.1-5.5,2.1-8.3
	c0-2.3-0.4-4.4-1.1-6.2c-0.7-1.8-1.7-3.5-3-5c-1.5-1.8-3.3-3.2-5.5-4.1C197.1,22.9,194,22.4,190,22.4L190,22.4L190,22.4z
	 M254.8,81.3h6.5V22.3h-5.6v51.5h-0.2l-34.1-51.5h-6.3v58.9h5.6V29.9h0.2L254.8,81.3L254.8,81.3z"/>
<path class="st0" d="M266.5,3.3c-1.6,0.9-2.9,2.2-3.9,3.8c-0.9,1.6-1.4,3.4-1.4,5.2c0,1.8,0.5,3.5,1.4,5.1c0.9,1.6,2.2,2.9,3.8,3.8
	c1.6,0.9,3.3,1.4,5.1,1.4c1.8,0,3.5-0.5,5.1-1.4c1.6-0.9,2.9-2.2,3.8-3.8c0.9-1.6,1.4-3.3,1.4-5.1c0-1.8-0.5-3.5-1.4-5.2
	c-0.9-1.7-2.2-2.9-3.8-3.8c-1.6-0.9-3.3-1.3-5.1-1.3C269.8,1.9,268.1,2.4,266.5,3.3L266.5,3.3z M275.8,4.8c1.4,0.7,2.4,1.8,3.2,3.2
	s1.2,2.8,1.2,4.3c0,1.5-0.4,2.9-1.1,4.3c-0.8,1.4-1.8,2.4-3.2,3.2c-1.4,0.8-2.8,1.1-4.3,1.1c-1.5,0-2.9-0.4-4.3-1.1
	c-1.4-0.8-2.4-1.8-3.2-3.2c-0.8-1.4-1.1-2.8-1.1-4.3c0-1.5,0.4-2.9,1.2-4.3c0.8-1.4,1.8-2.4,3.2-3.2c1.4-0.7,2.8-1.1,4.2-1.1
	C273,3.7,274.4,4,275.8,4.8L275.8,4.8z M273.6,15.8c-0.6,0.5-1.3,0.7-2.2,0.7c-1,0-1.8-0.4-2.5-1.1c-0.6-0.7-1-1.8-1-3.2
	c0-1.4,0.3-2.5,1-3.2c0.7-0.7,1.5-1.1,2.6-1.1c0.7,0,1.3,0.2,1.9,0.5c0.5,0.4,0.9,0.9,1.2,1.5l1.6-0.4c-0.3-1-0.8-1.8-1.6-2.4
	c-0.8-0.6-1.8-0.9-3-0.9c-1.1,0-2,0.2-2.9,0.7c-0.8,0.4-1.5,1.1-1.9,2c-0.5,0.9-0.7,1.9-0.7,3.1c0,1.8,0.5,3.3,1.5,4.3
	c1,1,2.3,1.6,3.9,1.6c1.3,0,2.3-0.3,3.2-1c0.9-0.7,1.5-1.6,1.7-2.7l-1.7-0.5C274.6,14.7,274.2,15.4,273.6,15.8L273.6,15.8z"/>
</svg>
