<?xml version="1.0" encoding="UTF-8"?>
<svg xmlns="http://www.w3.org/2000/svg" version="1.1" viewBox="0 0 743 116">
  <defs>
    <style>
      .cls-1 {
        fill: #fff;
      }
    </style>
  </defs>
  <!-- Generator: Adobe Illustrator 28.6.0, SVG Export Plug-In . SVG Version: 1.2.0 Build 709)  -->
  <g>
    <g id="Layer_1">
      <g>
        <path class="cls-1" d="M294.4,74.4c.3.6.7,1.1,1.2,1.4.5.4,1.1.6,1.8.8.7.2,1.4.2,2.2.2s.9,0,1.5-.2c.5-.1,1-.3,1.5-.6.5-.3.8-.6,1.1-1.1.3-.4.5-1,.5-1.6s-.1-.9-.3-1.2c-.2-.4-.5-.6-.8-.9-.3-.2-.7-.4-1.1-.6s-.8-.3-1.2-.4l-3.8-.9c-.5-.1-1-.3-1.5-.5-.5-.2-.9-.4-1.2-.8-.4-.3-.6-.7-.9-1.2-.2-.5-.3-1-.3-1.7s0-.9.2-1.5c.2-.6.5-1.1.9-1.6.4-.5,1-.9,1.8-1.3s1.8-.5,3-.5,1.7.1,2.4.3c.8.2,1.4.6,2,1,.6.4,1,1,1.4,1.7.3.7.5,1.4.5,2.3h-1.6c0-.7-.2-1.2-.4-1.7-.3-.5-.6-.9-1-1.2-.4-.3-.9-.6-1.5-.7-.6-.2-1.1-.3-1.7-.3s-1.1,0-1.6.2-1,.3-1.4.6c-.4.3-.7.6-.9,1s-.4,1-.4,1.6,0,.7.2,1c.1.3.3.5.6.8.2.2.5.4.8.5.3.1.6.2,1,.3l4.2,1c.6.2,1.2.4,1.7.6.5.2,1,.5,1.4.9s.7.8,1,1.3c.2.5.3,1.1.3,1.8s0,.4,0,.8c0,.3-.1.7-.3,1-.2.4-.4.7-.6,1.1s-.7.7-1.2,1c-.5.3-1.1.5-1.8.7-.7.2-1.6.3-2.6.3s-1.9-.1-2.8-.3c-.9-.2-1.6-.6-2.2-1.1-.6-.5-1.1-1.1-1.4-1.8-.3-.8-.5-1.7-.4-2.7h1.6c0,.9.1,1.6.4,2.2h0ZM318,71.1l-3.3-8.8-3.4,8.8h6.8ZM315.6,60.7l6.7,17.2h-1.8l-2.1-5.3h-7.8l-2.1,5.3h-1.7l6.9-17.2h1.8ZM325.9,60.7v10.6c0,1,.1,1.8.3,2.5.2.7.6,1.3,1,1.7.4.4,1,.8,1.6,1,.6.2,1.3.3,2.1.3s1.5-.1,2.1-.3c.6-.2,1.2-.5,1.6-1,.4-.4.8-1,1-1.7.2-.7.3-1.5.3-2.5v-10.6h1.6v11c0,.9-.1,1.7-.4,2.5-.2.8-.6,1.5-1.2,2.1-.5.6-1.2,1.1-2.1,1.4-.8.3-1.9.5-3.1.5s-2.2-.2-3-.5c-.8-.3-1.5-.8-2.1-1.4-.5-.6-.9-1.3-1.2-2.1s-.4-1.6-.4-2.5v-11h1.6ZM347.6,68.1c.4-.1.8-.3,1.1-.6.3-.3.6-.6.8-1s.3-.9.3-1.4,0-.9-.3-1.3-.4-.7-.8-.9c-.3-.2-.7-.4-1.1-.6-.4-.1-.9-.2-1.4-.2s-.9,0-1.3.2c-.4.1-.8.3-1.2.6-.3.2-.6.5-.8.9-.2.4-.3.8-.3,1.3s.1,1,.3,1.4c.2.4.5.7.8,1,.3.3.7.4,1.2.6.4.1.9.2,1.3.1.5,0,.9,0,1.3-.2h0ZM350.7,67.4c-.5.6-1.2,1.1-2,1.4h0c1.1.3,2,.8,2.5,1.5s.9,1.7.9,2.8-.2,1.6-.5,2.2c-.3.6-.7,1.2-1.2,1.6-.5.4-1.1.7-1.8.9-.7.2-1.4.3-2.2.3s-1.5-.1-2.2-.3c-.7-.2-1.3-.5-1.8-.9-.5-.4-.9-.9-1.2-1.6-.3-.6-.5-1.4-.5-2.2,0-1.1.3-2.1.9-2.8.6-.8,1.4-1.3,2.5-1.5h0c-.9-.3-1.6-.8-2-1.4-.5-.6-.7-1.4-.7-2.3s.1-1.3.4-1.9c.3-.5.7-1,1.2-1.3.5-.3,1-.6,1.6-.8.6-.2,1.2-.3,1.8-.3s1.2,0,1.8.3c.6.2,1.2.4,1.6.8.5.3.9.8,1.2,1.3.3.5.4,1.2.4,1.9s-.2,1.7-.7,2.3h0ZM348,76.7c.5-.2,1-.4,1.4-.7.4-.3.7-.7.9-1.2.2-.5.3-1,.3-1.7s-.1-1.1-.3-1.6c-.2-.5-.5-.8-.9-1.2-.4-.3-.8-.5-1.4-.7-.5-.2-1.1-.2-1.6-.2-.6,0-1.1,0-1.6.2-.5.1-1,.4-1.4.7-.4.3-.7.7-.9,1.2-.2.5-.3,1-.3,1.6s.1,1.2.3,1.7c.2.5.5.9.9,1.2.4.3.8.5,1.4.7.5.2,1.1.2,1.7.2s1.1,0,1.7-.2h0ZM365.5,61.2v1.4c-.5.5-1.2,1.3-1.9,2.2-.7.9-1.5,2-2.2,3.3-.7,1.3-1.3,2.7-1.8,4.3-.5,1.6-.8,3.4-.9,5.4h-1.6c0-1.4.3-2.8.6-4,.3-1.3.7-2.5,1.3-3.7.6-1.2,1.2-2.4,2.1-3.6.8-1.2,1.8-2.5,3-3.8h-9.3v-1.4h10.8ZM377,61.7c.8.5,1.4,1.2,1.8,2.1.4.8.7,1.8.9,2.8.2,1,.2,2,.2,3s0,2-.2,3-.4,2-.9,2.8c-.4.8-1,1.5-1.8,2s-1.8.8-3,.8-2.2-.3-3-.8c-.8-.5-1.4-1.2-1.8-2-.4-.8-.7-1.8-.9-2.8s-.2-2-.2-3,0-2,.2-3c.2-1,.4-2,.9-2.8.4-.8,1-1.5,1.8-2.1.8-.5,1.8-.8,3-.8s2.2.3,3,.8h0ZM371.7,62.9c-.6.5-1,1.1-1.3,1.8-.3.7-.5,1.5-.6,2.4,0,.9-.1,1.7-.1,2.4s0,1.5.1,2.4c0,.9.3,1.7.6,2.4.3.7.7,1.4,1.3,1.9s1.3.7,2.3.7,1.7-.2,2.3-.7c.6-.5,1-1.1,1.3-1.9.3-.7.5-1.5.6-2.4,0-.9.1-1.7.1-2.4s0-1.5-.1-2.4c0-.9-.3-1.7-.6-2.4-.3-.7-.7-1.4-1.3-1.8-.6-.5-1.3-.7-2.3-.7s-1.7.2-2.3.7h0ZM390.8,61.7c.8.5,1.4,1.2,1.8,2.1.4.8.7,1.8.9,2.8.2,1,.2,2,.2,3s0,2-.2,3-.4,2-.9,2.8c-.4.8-1,1.5-1.8,2-.8.5-1.8.8-3,.8s-2.2-.3-3-.8c-.8-.5-1.4-1.2-1.8-2-.4-.8-.7-1.8-.9-2.8s-.2-2-.2-3,0-2,.2-3c.2-1,.4-2,.9-2.8.4-.8,1-1.5,1.8-2.1.8-.5,1.8-.8,3-.8s2.2.3,3,.8h0ZM385.5,62.9c-.6.5-1,1.1-1.3,1.8-.3.7-.5,1.5-.6,2.4,0,.9-.1,1.7-.1,2.4s0,1.5.1,2.4c0,.9.3,1.7.6,2.4.3.7.7,1.4,1.3,1.9.6.5,1.3.7,2.3.7s1.7-.2,2.3-.7,1-1.1,1.3-1.9c.3-.7.5-1.5.6-2.4,0-.9.1-1.7.1-2.4s0-1.5-.1-2.4c0-.9-.3-1.7-.6-2.4-.3-.7-.7-1.4-1.3-1.8-.6-.5-1.3-.7-2.3-.7s-1.7.2-2.3.7h0ZM397.9,74.4c.3.6.7,1.1,1.2,1.4.5.4,1.1.6,1.8.8.7.2,1.4.2,2.2.2s.9,0,1.5-.2c.5-.1,1-.3,1.5-.6.5-.3.8-.6,1.1-1.1.3-.4.5-1,.5-1.6s-.1-.9-.3-1.2c-.2-.4-.5-.6-.8-.9-.3-.2-.7-.4-1.1-.6s-.8-.3-1.2-.4l-3.8-.9c-.5-.1-1-.3-1.5-.5-.5-.2-.9-.4-1.2-.8-.4-.3-.6-.7-.9-1.2-.2-.5-.3-1-.3-1.7s0-.9.2-1.5c.2-.6.5-1.1.9-1.6.4-.5,1-.9,1.8-1.3.8-.3,1.8-.5,3-.5s1.7.1,2.4.3c.8.2,1.4.6,2,1s1,1,1.4,1.7.5,1.4.5,2.3h-1.6c0-.7-.2-1.2-.4-1.7-.3-.5-.6-.9-1-1.2-.4-.3-.9-.6-1.5-.7-.6-.2-1.1-.3-1.7-.3s-1.1,0-1.6.2c-.5.1-1,.3-1.4.6-.4.3-.7.6-.9,1-.2.4-.4,1-.4,1.6s0,.7.2,1c.1.3.3.5.6.8.2.2.5.4.8.5.3.1.6.2,1,.3l4.2,1c.6.2,1.2.4,1.7.6.5.2,1,.5,1.4.9.4.3.7.8,1,1.3.2.5.3,1.1.3,1.8s0,.4,0,.8c0,.3-.1.7-.3,1s-.4.7-.6,1.1-.7.7-1.2,1c-.5.3-1.1.5-1.8.7-.7.2-1.6.3-2.6.3s-1.9-.1-2.8-.3c-.9-.2-1.6-.6-2.2-1.1-.6-.5-1.1-1.1-1.4-1.8-.3-.8-.5-1.7-.4-2.7h1.6c0,.9.1,1.6.4,2.2h0ZM424.2,60.7v1.4h-10.2v6.2h9.6v1.4h-9.6v6.8h10.3v1.4h-12v-17.2h11.8ZM433,60.7c2.6,0,4.6.8,5.9,2.2s2,3.5,2,6.4-.7,5-2,6.4-3.3,2.1-5.9,2.2h-5.9v-17.2h5.9ZM432.2,76.5c1.2,0,2.3-.1,3.2-.4.9-.3,1.6-.7,2.2-1.3.6-.6,1-1.3,1.3-2.2.3-.9.4-2,.4-3.3s-.1-2.4-.4-3.3c-.3-.9-.7-1.7-1.3-2.2-.6-.6-1.3-1-2.2-1.3-.9-.3-1.9-.4-3.2-.4h-3.5v14.4h3.5ZM455.8,64.1c-.3-.5-.7-1-1.2-1.3-.5-.4-1-.6-1.6-.8-.6-.2-1.2-.3-1.8-.3-1.1,0-2.1.2-2.9.6-.8.4-1.5,1-2,1.7-.5.7-.9,1.5-1.2,2.4-.2.9-.4,1.8-.4,2.8s.1,1.8.4,2.8c.2.9.6,1.7,1.2,2.4.5.7,1.2,1.3,2,1.7.8.4,1.8.6,2.9.6s1.5-.1,2.2-.4c.6-.3,1.2-.7,1.7-1.2.5-.5.8-1.1,1.1-1.7.3-.7.5-1.4.6-2.2h1.6c-.1,1.1-.4,2-.7,2.9-.4.8-.9,1.6-1.5,2.2-.6.6-1.3,1-2.1,1.4-.8.3-1.7.5-2.8.5s-2.5-.2-3.5-.7c-1-.5-1.9-1.1-2.5-2-.7-.8-1.2-1.8-1.5-2.8-.3-1.1-.5-2.2-.5-3.4s.2-2.3.5-3.4c.3-1.1.8-2,1.5-2.8.7-.8,1.5-1.5,2.5-2,1-.5,2.2-.7,3.5-.7s1.6.1,2.4.4c.8.2,1.5.6,2.1,1.1.6.5,1.2,1.1,1.6,1.7.4.7.7,1.5.8,2.4h-1.6c-.1-.7-.4-1.2-.7-1.8h0ZM462.5,72c.2.9.6,1.7,1.2,2.4s1.2,1.3,2,1.7c.8.4,1.8.6,2.9.6s2.1-.2,2.9-.6,1.5-1,2-1.7c.5-.7.9-1.5,1.2-2.4.2-.9.4-1.8.4-2.8s-.1-1.9-.4-2.8c-.2-.9-.6-1.7-1.2-2.4-.5-.7-1.2-1.3-2-1.7s-1.8-.6-2.9-.6-2.1.2-2.9.6c-.8.4-1.5,1-2,1.7-.5.7-.9,1.5-1.2,2.4-.2.9-.4,1.8-.4,2.8s.1,1.8.4,2.8h0ZM461,65.9c.3-1.1.8-2,1.5-2.8s1.5-1.5,2.5-2,2.2-.7,3.5-.7,2.5.2,3.5.7c1,.5,1.8,1.1,2.5,2,.7.8,1.2,1.8,1.5,2.8.3,1.1.5,2.2.5,3.4s-.2,2.3-.5,3.4c-.3,1.1-.8,2-1.5,2.8-.7.8-1.5,1.5-2.5,2-1,.5-2.2.7-3.5.7s-2.5-.2-3.5-.7c-1-.5-1.9-1.1-2.5-2s-1.2-1.8-1.5-2.8c-.3-1.1-.5-2.2-.5-3.4s.2-2.3.5-3.4h0ZM487.6,61.7c.8.5,1.4,1.2,1.8,2.1.4.8.7,1.8.9,2.8.2,1,.2,2,.2,3s0,2-.2,3-.4,2-.9,2.8c-.4.8-1,1.5-1.8,2-.8.5-1.8.8-3,.8s-2.2-.3-3-.8-1.4-1.2-1.8-2c-.4-.8-.7-1.8-.9-2.8s-.2-2-.2-3,0-2,.2-3c.2-1,.4-2,.9-2.8.4-.8,1-1.5,1.8-2.1s1.8-.8,3-.8,2.2.3,3,.8h0ZM482.3,62.9c-.6.5-1,1.1-1.3,1.8-.3.7-.5,1.5-.6,2.4,0,.9-.1,1.7-.1,2.4s0,1.5.1,2.4c0,.9.3,1.7.6,2.4.3.7.7,1.4,1.3,1.9.6.5,1.3.7,2.3.7s1.7-.2,2.3-.7c.6-.5,1-1.1,1.3-1.9.3-.7.5-1.5.6-2.4,0-.9.1-1.7.1-2.4s0-1.5-.1-2.4c0-.9-.3-1.7-.6-2.4-.3-.7-.7-1.4-1.3-1.8-.6-.5-1.3-.7-2.3-.7s-1.7.2-2.3.7h0ZM492.6,77.8c0-.8.2-1.6.4-2.2.3-.6.6-1.2,1.1-1.7.4-.5,1-1,1.5-1.4.6-.4,1.1-.8,1.7-1.2.6-.4,1.2-.8,1.8-1.2.6-.4,1.1-.8,1.6-1.3s.8-.9,1-1.4c.2-.5.3-1.1.3-1.7s-.1-1-.3-1.5c-.2-.4-.5-.8-.8-1.1-.3-.3-.7-.5-1.2-.7-.5-.2-.9-.2-1.5-.2s-1.3.1-1.8.4c-.5.3-.9.6-1.2,1-.3.4-.5.9-.7,1.5-.1.6-.2,1.2-.2,1.8h-1.5c0-.9,0-1.7.3-2.4.2-.7.5-1.4,1-1.9.4-.5,1-.9,1.7-1.2.7-.3,1.5-.4,2.4-.4s1.4,0,2.1.3c.6.2,1.2.5,1.7.9.5.4.8.9,1.1,1.5.3.6.4,1.3.4,2.1s-.1,1.3-.3,1.9c-.2.6-.5,1.1-.9,1.6-.4.5-.8.9-1.3,1.3s-1,.8-1.6,1.1c-.4.3-.9.6-1.4.9-.5.3-1.1.7-1.6,1.1-.5.4-.9.8-1.3,1.3-.4.5-.6,1-.7,1.5h9.3v1.4h-11.1ZM514.1,63.2h0l-6.3,9.2h6.4v-9.2h0ZM514.1,61h1.4v11.4h2.5v1.3h-2.5v4.2h-1.4v-4.2h-7.8v-1.5l7.8-11.2h0ZM529.1,61.7c.8.5,1.4,1.2,1.8,2.1.4.8.7,1.8.9,2.8.2,1,.2,2,.2,3s0,2-.2,3c-.2,1-.4,2-.9,2.8-.4.8-1,1.5-1.8,2s-1.8.8-3,.8-2.2-.3-3-.8c-.8-.5-1.4-1.2-1.8-2-.4-.8-.7-1.8-.9-2.8-.2-1-.2-2-.2-3s0-2,.2-3c.2-1,.4-2,.9-2.8s1-1.5,1.8-2.1c.8-.5,1.8-.8,3-.8s2.2.3,3,.8h0ZM523.8,62.9c-.6.5-1,1.1-1.3,1.8-.3.7-.5,1.5-.6,2.4s-.1,1.7-.1,2.4,0,1.5.1,2.4.3,1.7.6,2.4c.3.7.7,1.4,1.3,1.9.6.5,1.3.7,2.3.7s1.7-.2,2.3-.7c.6-.5,1-1.1,1.3-1.9.3-.7.5-1.5.6-2.4,0-.9.1-1.7.1-2.4s0-1.5-.1-2.4c0-.9-.3-1.7-.6-2.4-.3-.7-.7-1.4-1.3-1.8-.6-.5-1.3-.7-2.3-.7s-1.7.2-2.3.7h0ZM542.9,61.7c.8.5,1.4,1.2,1.8,2.1.4.8.7,1.8.9,2.8.2,1,.2,2,.2,3s0,2-.2,3c-.2,1-.4,2-.9,2.8-.4.8-1,1.5-1.8,2s-1.8.8-3,.8-2.2-.3-3-.8c-.8-.5-1.4-1.2-1.8-2-.4-.8-.7-1.8-.9-2.8-.2-1-.2-2-.2-3s0-2,.2-3c.2-1,.4-2,.9-2.8.4-.8,1-1.5,1.8-2.1.8-.5,1.8-.8,3-.8s2.2.3,3,.8h0ZM537.6,62.9c-.6.5-1,1.1-1.3,1.8-.3.7-.5,1.5-.6,2.4,0,.9-.1,1.7-.1,2.4s0,1.5.1,2.4c0,.9.3,1.7.6,2.4.3.7.7,1.4,1.3,1.9s1.3.7,2.3.7,1.7-.2,2.3-.7c.6-.5,1-1.1,1.3-1.9.3-.7.5-1.5.6-2.4,0-.9.1-1.7.1-2.4s0-1.5-.1-2.4c0-.9-.3-1.7-.6-2.4-.3-.7-.7-1.4-1.3-1.8-.6-.5-1.3-.7-2.3-.7s-1.7.2-2.3.7h0ZM556.8,61.7c.8.5,1.4,1.2,1.8,2.1s.7,1.8.9,2.8c.2,1,.2,2,.2,3s0,2-.2,3-.4,2-.9,2.8c-.4.8-1,1.5-1.8,2-.8.5-1.8.8-3,.8s-2.2-.3-3-.8c-.8-.5-1.4-1.2-1.8-2-.4-.8-.7-1.8-.9-2.8s-.2-2-.2-3,0-2,.2-3c.2-1,.4-2,.9-2.8s1-1.5,1.8-2.1c.8-.5,1.8-.8,3-.8s2.2.3,3,.8h0ZM551.5,62.9c-.6.5-1,1.1-1.3,1.8-.3.7-.5,1.5-.6,2.4s-.1,1.7-.1,2.4,0,1.5.1,2.4.3,1.7.6,2.4c.3.7.7,1.4,1.3,1.9s1.3.7,2.3.7,1.7-.2,2.3-.7c.6-.5,1-1.1,1.3-1.9.3-.7.5-1.5.6-2.4s.1-1.7.1-2.4,0-1.5-.1-2.4-.3-1.7-.6-2.4c-.3-.7-.7-1.4-1.3-1.8-.6-.5-1.3-.7-2.3-.7s-1.7.2-2.3.7h0ZM570.6,61.7c.8.5,1.4,1.2,1.8,2.1.4.8.7,1.8.9,2.8.2,1,.2,2,.2,3s0,2-.2,3-.4,2-.9,2.8c-.4.8-1,1.5-1.8,2s-1.8.8-3,.8-2.2-.3-3-.8c-.8-.5-1.4-1.2-1.8-2-.4-.8-.7-1.8-.9-2.8-.2-1-.2-2-.2-3s0-2,.2-3c.2-1,.4-2,.9-2.8.4-.8,1-1.5,1.8-2.1.8-.5,1.8-.8,3-.8s2.2.3,3,.8h0ZM565.3,62.9c-.6.5-1,1.1-1.3,1.8-.3.7-.5,1.5-.6,2.4,0,.9-.1,1.7-.1,2.4s0,1.5.1,2.4c0,.9.3,1.7.6,2.4.3.7.7,1.4,1.3,1.9.6.5,1.3.7,2.3.7s1.7-.2,2.3-.7,1-1.1,1.3-1.9c.3-.7.5-1.5.6-2.4,0-.9.1-1.7.1-2.4s0-1.5-.1-2.4c0-.9-.3-1.7-.6-2.4-.3-.7-.7-1.4-1.3-1.8-.6-.5-1.3-.7-2.3-.7s-1.7.2-2.3.7h0ZM588.4,60.7v1.4h-10.2v6.2h9.6v1.4h-9.6v6.8h10.3v1.4h-12v-17.2h11.8ZM593.6,64.2c.5,0,1-.2,1.4-.4.4-.2.7-.5,1-.9.3-.4.5-1,.6-1.8h1.2v16.8h-1.5v-12.5h-4.4v-1.1c.7,0,1.3,0,1.8-.1h0ZM607.5,64.2c.5,0,1-.2,1.4-.4.4-.2.7-.5,1-.9.3-.4.5-1,.6-1.8h1.2v16.8h-1.5v-12.5h-4.4v-1.1c.7,0,1.3,0,1.8-.1h0ZM621.3,64.2c.5,0,1-.2,1.4-.4.4-.2.7-.5,1-.9.3-.4.5-1,.6-1.8h1.2v16.8h-1.5v-12.5h-4.4v-1.1c.7,0,1.3,0,1.8-.1h0Z"/>
        <path class="cls-1" d="M306.7,49l-.2-3.1h0c-.3.6-.6,1.1-1.1,1.6-.4.4-.9.8-1.4,1.1-.5.3-1.1.5-1.6.6-.6.1-1.2.2-1.8.2-1.3,0-2.5-.2-3.5-.7-1-.5-1.9-1.1-2.5-2-.7-.8-1.2-1.8-1.5-2.8-.3-1.1-.5-2.2-.5-3.4s.2-2.3.5-3.4c.3-1.1.8-2,1.5-2.8s1.5-1.5,2.5-2c1-.5,2.2-.7,3.5-.7s1.7.1,2.5.4c.8.2,1.5.6,2.1,1.1s1.2,1.1,1.6,1.8c.4.7.7,1.5.9,2.5h-1.6c0-.5-.2-1-.5-1.5-.3-.5-.7-1-1.1-1.4-.5-.4-1-.8-1.7-1-.7-.3-1.4-.4-2.2-.4s-2.1.2-2.9.6c-.8.4-1.5,1-2,1.7s-.9,1.5-1.2,2.4-.4,1.8-.4,2.8.1,1.8.4,2.8c.2.9.6,1.7,1.2,2.4.5.7,1.2,1.3,2,1.7.8.4,1.8.6,2.9.6s1.8-.2,2.5-.5,1.4-.7,1.9-1.3c.5-.6.9-1.2,1.2-2,.3-.8.4-1.6.4-2.5h-5.8v-1.4h7.3v8.7h-1.2ZM312.7,31.9v17.2h-1.5v-17.2h1.5ZM319.4,38c-.5.3-1,.7-1.4,1.2-.4.5-.6,1.1-.8,1.7s-.3,1.3-.3,1.9,0,1.3.3,1.9.5,1.2.8,1.7c.4.5.8.9,1.4,1.2.5.3,1.2.5,1.9.5s1.4-.2,1.9-.5c.5-.3,1-.7,1.4-1.2.4-.5.6-1.1.8-1.7s.3-1.3.3-1.9,0-1.3-.3-1.9-.5-1.2-.8-1.7c-.4-.5-.8-.9-1.4-1.2-.5-.3-1.2-.5-1.9-.5s-1.4.2-1.9.5h0ZM323.8,36.8c.7.4,1.3.8,1.8,1.4.5.6.9,1.3,1.1,2.1.3.8.4,1.6.4,2.5s-.1,1.7-.4,2.5c-.3.8-.6,1.5-1.1,2.1-.5.6-1.1,1.1-1.8,1.4-.7.3-1.6.5-2.5.5s-1.8-.2-2.5-.5-1.3-.8-1.8-1.4c-.5-.6-.9-1.3-1.1-2.1-.3-.8-.4-1.6-.4-2.5s.1-1.7.4-2.5c.3-.8.6-1.5,1.1-2.1.5-.6,1.1-1.1,1.8-1.4.7-.4,1.6-.5,2.5-.5s1.8.2,2.5.5h0ZM331.4,31.9v7.1h0c.2-.4.4-.8.7-1.2.3-.3.6-.6,1-.9.4-.2.8-.4,1.2-.5.4-.1.9-.2,1.3-.2.9,0,1.8.2,2.5.5.7.4,1.3.8,1.7,1.4.5.6.8,1.3,1,2.1.2.8.3,1.6.3,2.5s-.1,1.7-.3,2.5c-.2.8-.6,1.5-1,2.1-.5.6-1,1.1-1.7,1.4s-1.5.5-2.5.5-1.9-.2-2.7-.7c-.8-.5-1.4-1.1-1.7-2h0v2.4h-1.4v-17.2h1.5ZM339.6,40.9c-.2-.6-.4-1.2-.7-1.7-.3-.5-.7-.9-1.3-1.2-.5-.3-1.1-.5-1.8-.5s-1.5.2-2,.5c-.6.3-1,.7-1.3,1.2s-.6,1.1-.7,1.7c-.2.6-.2,1.3-.2,1.9s0,1.3.2,1.9c.2.6.4,1.2.7,1.7.3.5.8.9,1.3,1.2.6.3,1.2.5,2,.5s1.3-.2,1.8-.5c.5-.3.9-.7,1.3-1.2.3-.5.6-1.1.7-1.7.2-.6.2-1.3.2-1.9s0-1.3-.2-1.9h0ZM344.5,38.5c.3-.5.6-1,1-1.3.4-.3,1-.6,1.5-.7.6-.2,1.2-.2,2-.2s1.1,0,1.6.2c.5.1,1,.3,1.5.6s.8.7,1.1,1.2.4,1.2.4,2v6.6c0,.6.3.9.9.9s.3,0,.5,0v1.3c-.2,0-.3,0-.5,0-.1,0-.3,0-.5,0-.4,0-.7,0-.9-.2-.2-.1-.4-.3-.5-.4-.1-.2-.2-.4-.3-.7,0-.3,0-.6,0-.9h0c-.3.4-.5.8-.8,1.1-.3.3-.6.6-.9.8s-.7.4-1.2.5c-.4.1-1,.2-1.6.2s-1.1,0-1.6-.2c-.5-.1-.9-.4-1.3-.6-.4-.3-.7-.7-.9-1.1-.2-.5-.3-1-.3-1.6s.2-1.5.6-2c.4-.5.9-.9,1.5-1.1.6-.3,1.3-.4,2.1-.5.8-.1,1.6-.2,2.4-.3.3,0,.6,0,.8-.1.2,0,.4-.1.6-.3s.3-.3.4-.5.1-.5.1-.8c0-.5,0-.9-.3-1.3s-.4-.6-.7-.8c-.3-.2-.6-.3-1-.4-.4,0-.8-.1-1.3-.1-1,0-1.7.2-2.4.7s-.9,1.2-1,2.2h-1.5c0-.7.2-1.3.5-1.9h0ZM352.1,42.2c0,.2-.3.3-.6.4-.3,0-.5.1-.7.2-.6.1-1.3.2-2,.3-.7,0-1.3.2-1.9.4-.6.2-1,.4-1.4.8-.4.3-.5.8-.5,1.4s0,.7.2,1c.2.3.4.6.6.8.3.2.6.4.9.5.3.1.7.2,1,.2.6,0,1.1,0,1.7-.3.5-.2,1-.4,1.4-.8.4-.3.7-.7.9-1.2.2-.5.3-1,.3-1.6v-2h0ZM358.7,31.9v17.2h-1.5v-17.2h1.5ZM370.7,45.6c.3.6.7,1.1,1.2,1.4.5.4,1.1.6,1.8.8.7.2,1.4.2,2.2.2s.9,0,1.5-.2c.5-.1,1-.3,1.5-.6.5-.3.8-.6,1.1-1.1.3-.4.5-1,.5-1.6s-.1-.9-.3-1.2c-.2-.4-.5-.6-.8-.9-.3-.2-.7-.4-1.1-.6-.4-.2-.8-.3-1.2-.4l-3.8-.9c-.5-.1-1-.3-1.5-.5-.5-.2-.9-.4-1.2-.8-.4-.3-.6-.7-.9-1.2-.2-.5-.3-1-.3-1.7s0-.9.2-1.5c.2-.6.5-1.1.9-1.6.4-.5,1-.9,1.8-1.3.8-.3,1.8-.5,3-.5s1.7.1,2.4.3c.8.2,1.4.6,2,1,.6.4,1,1,1.4,1.7.3.7.5,1.4.5,2.3h-1.6c0-.7-.2-1.2-.4-1.7-.3-.5-.6-.9-1-1.2-.4-.3-.9-.6-1.5-.7-.6-.2-1.1-.3-1.7-.3s-1.1,0-1.6.2c-.5.1-1,.3-1.4.6-.4.3-.7.6-.9,1-.2.4-.4,1-.4,1.6s0,.7.2,1c.1.3.3.5.6.8.2.2.5.4.8.5.3.1.6.2,1,.3l4.2,1c.6.2,1.2.4,1.7.6.5.2,1,.5,1.4.9.4.3.7.8,1,1.3.2.5.3,1.1.3,1.8s0,.4,0,.8c0,.3-.1.7-.3,1-.2.4-.4.7-.6,1.1-.3.4-.7.7-1.2,1-.5.3-1.1.5-1.8.7-.7.2-1.6.3-2.6.3s-1.9-.1-2.8-.3c-.9-.2-1.6-.6-2.2-1.1-.6-.5-1.1-1.1-1.4-1.8-.3-.8-.5-1.7-.4-2.7h1.6c0,.9.1,1.6.4,2.2h0ZM389.8,36.6v1.3h-2.5v8.4c0,.5,0,.9.2,1.2.1.3.5.4,1,.5.4,0,.9,0,1.3,0v1.3c-.2,0-.4,0-.7,0-.2,0-.4,0-.7,0-1,0-1.7-.2-2.1-.6-.4-.4-.6-1.1-.6-2.2v-8.5h-2.2v-1.3h2.2v-3.7h1.5v3.7h2.5ZM392.8,38.5c.3-.5.6-1,1-1.3s1-.6,1.5-.7c.6-.2,1.2-.2,2-.2s1.1,0,1.6.2c.5.1,1,.3,1.5.6.4.3.8.7,1.1,1.2.3.5.4,1.2.4,2v6.6c0,.6.3.9.9.9s.3,0,.5,0v1.3c-.2,0-.3,0-.5,0-.1,0-.3,0-.5,0-.4,0-.7,0-.9-.2-.2-.1-.4-.3-.5-.4-.1-.2-.2-.4-.3-.7,0-.3,0-.6,0-.9h0c-.3.4-.5.8-.8,1.1-.3.3-.6.6-.9.8-.3.2-.7.4-1.2.5-.4.1-1,.2-1.6.2s-1.1,0-1.6-.2-.9-.4-1.3-.6c-.4-.3-.7-.7-.9-1.1-.2-.5-.3-1-.3-1.6s.2-1.5.6-2,.9-.9,1.5-1.1c.6-.3,1.3-.4,2.1-.5.8-.1,1.6-.2,2.4-.3.3,0,.6,0,.8-.1.2,0,.4-.1.6-.3s.3-.3.4-.5c0-.2.1-.5.1-.8,0-.5,0-.9-.3-1.3-.2-.3-.4-.6-.7-.8-.3-.2-.6-.3-1-.4-.4,0-.8-.1-1.3-.1-1,0-1.7.2-2.4.7s-.9,1.2-1,2.2h-1.5c0-.7.2-1.3.5-1.9h0ZM400.3,42.2c0,.2-.3.3-.6.4-.3,0-.5.1-.7.2-.6.1-1.3.2-2,.3-.7,0-1.3.2-1.9.4-.6.2-1,.4-1.4.8-.4.3-.5.8-.5,1.4s0,.7.2,1c.2.3.4.6.6.8.3.2.6.4.9.5.3.1.7.2,1,.2.6,0,1.1,0,1.7-.3.5-.2,1-.4,1.4-.8.4-.3.7-.7.9-1.2.2-.5.3-1,.3-1.6v-2h0ZM406.9,36.6v2.1h0c.3-.8.8-1.4,1.5-1.8.7-.5,1.5-.7,2.4-.7s1.6.1,2.2.3c.6.2,1.1.5,1.4.9.4.4.6.9.7,1.5.1.6.2,1.3.2,2v8h-1.5v-7.7c0-.5,0-1-.1-1.5,0-.5-.3-.9-.5-1.2s-.6-.6-1-.8c-.4-.2-.9-.3-1.5-.3s-1.1.1-1.6.3c-.5.2-.9.5-1.2.9-.3.4-.6.8-.8,1.3-.2.5-.3,1.1-.3,1.7v7.2h-1.5v-12.4h1.5ZM428.3,49v-2.4h0c-.2.4-.4.8-.7,1.1-.3.3-.7.6-1.1.9-.4.2-.8.4-1.3.5-.5.1-.9.2-1.4.2-.9,0-1.8-.2-2.5-.5-.7-.3-1.3-.8-1.7-1.4-.5-.6-.8-1.3-1-2.1-.2-.8-.3-1.6-.3-2.5s.1-1.7.3-2.5c.2-.8.6-1.5,1-2.1s1-1.1,1.7-1.4c.7-.4,1.5-.5,2.5-.5s.9,0,1.4.2c.4.1.9.3,1.2.5.4.2.7.5,1,.9.3.3.5.7.7,1.2h0v-7.1h1.5v17.2h-1.4ZM420,44.7c.2.6.4,1.2.7,1.7.3.5.7.9,1.3,1.2.5.3,1.1.5,1.8.5s1.5-.2,2-.5,1-.7,1.3-1.2c.3-.5.6-1.1.7-1.7.2-.6.2-1.3.2-1.9s0-1.3-.2-1.9c-.2-.6-.4-1.2-.7-1.7-.3-.5-.8-.9-1.3-1.2s-1.2-.5-2-.5-1.3.2-1.8.5c-.5.3-.9.7-1.3,1.2-.3.5-.6,1.1-.7,1.7-.2.6-.2,1.3-.2,1.9s0,1.3.2,1.9h0ZM433.4,38.5c.3-.5.6-1,1-1.3.4-.3,1-.6,1.5-.7.6-.2,1.2-.2,2-.2s1.1,0,1.6.2c.5.1,1,.3,1.5.6.4.3.8.7,1.1,1.2.3.5.4,1.2.4,2v6.6c0,.6.3.9.9.9s.3,0,.5,0v1.3c-.2,0-.3,0-.5,0-.1,0-.3,0-.5,0-.4,0-.7,0-.9-.2-.2-.1-.4-.3-.5-.4-.1-.2-.2-.4-.3-.7,0-.3,0-.6,0-.9h0c-.3.4-.5.8-.8,1.1s-.6.6-.9.8-.7.4-1.2.5c-.4.1-1,.2-1.6.2s-1.1,0-1.6-.2c-.5-.1-.9-.4-1.3-.6-.4-.3-.7-.7-.9-1.1-.2-.5-.3-1-.3-1.6s.2-1.5.6-2,.9-.9,1.5-1.1c.6-.3,1.3-.4,2.1-.5.8-.1,1.6-.2,2.4-.3.3,0,.6,0,.8-.1.2,0,.4-.1.6-.3.2-.1.3-.3.4-.5,0-.2.1-.5.1-.8,0-.5,0-.9-.3-1.3-.2-.3-.4-.6-.7-.8s-.6-.3-1-.4c-.4,0-.8-.1-1.3-.1-1,0-1.7.2-2.4.7-.6.5-.9,1.2-1,2.2h-1.5c0-.7.2-1.3.5-1.9h0ZM440.9,42.2c0,.2-.3.3-.6.4s-.5.1-.7.2c-.6.1-1.3.2-2,.3-.7,0-1.3.2-1.9.4-.6.2-1,.4-1.4.8-.4.3-.5.8-.5,1.4s0,.7.2,1c.2.3.4.6.6.8.3.2.6.4.9.5.3.1.7.2,1,.2.6,0,1.1,0,1.7-.3.5-.2,1-.4,1.4-.8s.7-.7.9-1.2c.2-.5.3-1,.3-1.6v-2h0ZM447.4,36.6v2.9h0c.4-1,1-1.8,1.8-2.3.8-.5,1.8-.8,2.9-.7v1.5c-.7,0-1.3,0-1.9.3-.6.2-1,.5-1.5.9-.4.4-.7.9-.9,1.4-.2.6-.3,1.2-.3,1.8v6.6h-1.5v-12.4h1.4ZM463.1,49v-2.4h0c-.2.4-.4.8-.7,1.1-.3.3-.7.6-1.1.9-.4.2-.8.4-1.3.5-.5.1-.9.2-1.4.2-.9,0-1.8-.2-2.5-.5-.7-.3-1.3-.8-1.7-1.4-.5-.6-.8-1.3-1-2.1-.2-.8-.3-1.6-.3-2.5s.1-1.7.3-2.5c.2-.8.6-1.5,1-2.1.5-.6,1-1.1,1.7-1.4.7-.4,1.5-.5,2.5-.5s.9,0,1.4.2c.4.1.9.3,1.2.5.4.2.7.5,1,.9.3.3.5.7.7,1.2h0v-7.1h1.5v17.2h-1.4ZM454.8,44.7c.2.6.4,1.2.7,1.7.3.5.7.9,1.3,1.2s1.1.5,1.8.5,1.5-.2,2-.5,1-.7,1.3-1.2c.3-.5.6-1.1.7-1.7.2-.6.2-1.3.2-1.9s0-1.3-.2-1.9c-.2-.6-.4-1.2-.7-1.7s-.8-.9-1.3-1.2-1.2-.5-2-.5-1.3.2-1.8.5-.9.7-1.3,1.2-.6,1.1-.7,1.7c-.2.6-.2,1.3-.2,1.9s0,1.3.2,1.9h0ZM484.5,42.3l-3.3-8.8-3.4,8.8h6.8ZM482.2,31.9l6.7,17.2h-1.8l-2.1-5.3h-7.8l-2.1,5.3h-1.7l6.9-17.2h1.8ZM492.1,36.6v2.1h0c.3-.8.8-1.4,1.5-1.8.7-.5,1.5-.7,2.4-.7s1.6.1,2.2.3c.6.2,1,.5,1.4.9.3.4.6.9.7,1.5.1.6.2,1.3.2,2v8h-1.5v-7.7c0-.5,0-1-.1-1.5,0-.5-.3-.9-.5-1.2s-.6-.6-1-.8-.9-.3-1.5-.3-1.2.1-1.6.3c-.5.2-.9.5-1.2.9-.3.4-.6.8-.8,1.3-.2.5-.3,1.1-.3,1.7v7.2h-1.5v-12.4h1.5ZM505.5,36.6v2.1h0c.3-.8.8-1.4,1.5-1.8.7-.5,1.5-.7,2.4-.7s1.6.1,2.2.3c.6.2,1.1.5,1.4.9.4.4.6.9.7,1.5.1.6.2,1.3.2,2v8h-1.5v-7.7c0-.5,0-1-.1-1.5,0-.5-.3-.9-.5-1.2s-.6-.6-1-.8c-.4-.2-.9-.3-1.5-.3s-1.1.1-1.6.3c-.5.2-.9.5-1.2.9-.3.4-.6.8-.8,1.3-.2.5-.3,1.1-.3,1.7v7.2h-1.5v-12.4h1.5ZM526.1,49v-2.2h0c-.4.8-1,1.5-1.7,1.9-.8.4-1.6.7-2.5.7s-1.5-.1-2-.3c-.6-.2-1-.5-1.3-.9-.3-.4-.6-.9-.8-1.5-.2-.6-.2-1.2-.2-2v-8h1.5v8.1c0,1.1.3,2,.8,2.5.5.6,1.3.9,2.5.9s1.2-.1,1.7-.4c.5-.3.8-.7,1.2-1.1.3-.5.5-1,.7-1.6.1-.6.2-1.2.2-1.8v-6.5h1.5v12.4h-1.4ZM531.1,38.5c.3-.5.6-1,1-1.3.4-.3,1-.6,1.5-.7.6-.2,1.2-.2,2-.2s1.1,0,1.6.2c.5.1,1,.3,1.5.6s.8.7,1.1,1.2c.3.5.4,1.2.4,2v6.6c0,.6.3.9.9.9s.3,0,.5,0v1.3c-.2,0-.3,0-.5,0-.1,0-.3,0-.5,0-.4,0-.7,0-.9-.2-.2-.1-.4-.3-.5-.4-.1-.2-.2-.4-.3-.7,0-.3,0-.6,0-.9h0c-.3.4-.5.8-.8,1.1-.3.3-.6.6-.9.8-.3.2-.7.4-1.2.5-.4.1-1,.2-1.6.2s-1.1,0-1.6-.2-.9-.4-1.3-.6c-.4-.3-.7-.7-.9-1.1-.2-.5-.3-1-.3-1.6s.2-1.5.6-2c.4-.5.9-.9,1.5-1.1.6-.3,1.3-.4,2.1-.5s1.6-.2,2.4-.3c.3,0,.6,0,.8-.1.2,0,.4-.1.6-.3s.3-.3.4-.5.1-.5.1-.8c0-.5,0-.9-.3-1.3s-.4-.6-.7-.8c-.3-.2-.6-.3-1-.4-.4,0-.8-.1-1.3-.1-1,0-1.7.2-2.4.7-.6.5-.9,1.2-1,2.2h-1.5c0-.7.2-1.3.5-1.9h0ZM538.7,42.2c0,.2-.3.3-.6.4-.3,0-.5.1-.7.2-.6.1-1.3.2-2,.3-.7,0-1.3.2-1.9.4-.6.2-1,.4-1.4.8-.4.3-.5.8-.5,1.4s0,.7.2,1c.2.3.4.6.6.8.3.2.6.4.9.5.3.1.7.2,1,.2.6,0,1.1,0,1.7-.3.5-.2,1-.4,1.4-.8s.7-.7.9-1.2c.2-.5.3-1,.3-1.6v-2h0ZM545.3,31.9v17.2h-1.5v-17.2h1.5ZM563.8,40c.5,0,1,0,1.4-.2.4-.2.8-.4,1.2-.7.3-.3.6-.6.8-1,.2-.4.3-.9.3-1.4,0-1.1-.3-1.9-.9-2.5s-1.5-.9-2.8-.9h-6.1v6.8h6.1ZM564,31.9c.7,0,1.4,0,2,.3.6.2,1.2.4,1.7.8.5.4.8.8,1.1,1.4.3.6.4,1.2.4,2,0,1.1-.3,2-.8,2.8s-1.4,1.3-2.5,1.5h0c.6.1,1,.3,1.4.5.4.2.7.5.9.8.2.3.4.7.5,1.2.1.4.2.9.2,1.4,0,.3,0,.6,0,1.1s0,.8,0,1.3c0,.4.1.8.2,1.2s.2.7.4.9h-1.8c0-.2-.2-.4-.2-.6,0-.2,0-.5-.1-.7,0-.2,0-.5,0-.7s0-.4,0-.6c0-.6,0-1.2-.2-1.8,0-.6-.2-1.1-.5-1.6-.2-.5-.6-.9-1-1.1-.4-.3-1-.4-1.8-.4h-6.2v7.6h-1.6v-17.2h7.9ZM580.9,40.3c-.2-.5-.4-1-.8-1.4-.3-.4-.7-.7-1.2-1s-1-.4-1.6-.4-1.2.1-1.7.4c-.5.2-.9.6-1.2,1-.3.4-.6.9-.8,1.4-.2.5-.3,1.1-.4,1.6h8c0-.6-.1-1.1-.3-1.7h0ZM573.4,44.9c.2.6.4,1.1.7,1.6.3.5.8.8,1.3,1.2.5.3,1.1.5,1.8.5,1.1,0,2-.3,2.6-.9.6-.6,1.1-1.3,1.3-2.3h1.5c-.3,1.4-.9,2.5-1.8,3.3-.9.8-2.1,1.2-3.6,1.2s-1.8-.2-2.5-.5c-.7-.3-1.3-.8-1.7-1.4-.4-.6-.8-1.3-1-2.1-.2-.8-.3-1.6-.3-2.5s.1-1.6.3-2.4c.2-.8.5-1.5,1-2.1s1-1.1,1.7-1.5c.7-.4,1.6-.6,2.5-.6s1.8.2,2.5.6c.7.4,1.3.9,1.7,1.6.4.6.8,1.4.9,2.2s.3,1.7.2,2.6h-9.5c0,.5,0,1.1.2,1.7h0ZM586.7,36.6v2.4h0c.4-.9.9-1.5,1.7-2,.8-.5,1.7-.7,2.7-.7s1.8.2,2.5.5c.7.4,1.3.8,1.7,1.4s.8,1.3,1,2.1c.2.8.3,1.6.3,2.5s-.1,1.7-.3,2.5c-.2.8-.6,1.5-1,2.1-.5.6-1,1.1-1.7,1.4-.7.3-1.5.5-2.5.5s-.9,0-1.3-.2c-.4-.1-.9-.3-1.2-.5-.4-.2-.7-.5-1-.8-.3-.3-.5-.7-.7-1.2h0v6.9h-1.5v-17h1.4ZM595,40.9c-.2-.6-.4-1.2-.7-1.7s-.7-.9-1.3-1.2-1.1-.5-1.8-.5-1.5.1-2.1.4c-.6.3-1,.7-1.3,1.2-.3.5-.6,1-.7,1.7-.1.6-.2,1.3-.2,2s0,1.3.2,1.9c.2.6.4,1.2.7,1.7.3.5.8.9,1.3,1.2s1.2.5,2,.5,1.3-.2,1.8-.5.9-.7,1.3-1.2c.3-.5.6-1.1.7-1.7.2-.6.2-1.3.2-1.9s0-1.3-.2-1.9h0ZM602.9,38c-.5.3-1,.7-1.4,1.2-.4.5-.6,1.1-.8,1.7-.2.6-.3,1.3-.3,1.9s0,1.3.3,1.9c.2.6.5,1.2.8,1.7.4.5.8.9,1.4,1.2.5.3,1.2.5,1.9.5s1.4-.2,1.9-.5c.5-.3,1-.7,1.4-1.2s.6-1.1.8-1.7c.2-.6.3-1.3.3-1.9s0-1.3-.3-1.9c-.2-.6-.5-1.2-.8-1.7-.4-.5-.8-.9-1.4-1.2-.5-.3-1.2-.5-1.9-.5s-1.4.2-1.9.5h0ZM607.3,36.8c.7.4,1.3.8,1.8,1.4.5.6.9,1.3,1.1,2.1s.4,1.6.4,2.5-.1,1.7-.4,2.5-.6,1.5-1.1,2.1c-.5.6-1.1,1.1-1.8,1.4-.7.3-1.6.5-2.5.5s-1.8-.2-2.5-.5-1.3-.8-1.8-1.4c-.5-.6-.9-1.3-1.1-2.1s-.4-1.6-.4-2.5.1-1.7.4-2.5.6-1.5,1.1-2.1c.5-.6,1.1-1.1,1.8-1.4.7-.4,1.6-.5,2.5-.5s1.8.2,2.5.5h0ZM614.8,36.6v2.9h0c.4-1,1-1.8,1.8-2.3s1.8-.8,2.9-.7v1.5c-.7,0-1.3,0-1.9.3-.6.2-1,.5-1.5.9-.4.4-.7.9-.9,1.4-.2.6-.3,1.2-.3,1.8v6.6h-1.5v-12.4h1.4ZM626.4,36.6v1.3h-2.5v8.4c0,.5,0,.9.2,1.2.1.3.5.4,1,.5.4,0,.9,0,1.3,0v1.3c-.2,0-.4,0-.7,0-.2,0-.4,0-.7,0-1,0-1.7-.2-2.1-.6-.4-.4-.6-1.1-.6-2.2v-8.5h-2.2v-1.3h2.2v-3.7h1.5v3.7h2.5ZM638.3,31.9l10,14.5h0v-14.5h1.6v17.2h-1.8l-10-14.5h0v14.5h-1.6v-17.2h1.8ZM662.2,49v-2.2h0c-.4.8-1,1.5-1.7,1.9-.8.4-1.6.7-2.5.7s-1.5-.1-2-.3c-.6-.2-1-.5-1.3-.9-.3-.4-.6-.9-.8-1.5-.2-.6-.2-1.2-.2-2v-8h1.5v8.1c0,1.1.3,2,.8,2.5.5.6,1.3.9,2.5.9s1.2-.1,1.7-.4c.5-.3.8-.7,1.2-1.1.3-.5.5-1,.7-1.6.1-.6.2-1.2.2-1.8v-6.5h1.5v12.4h-1.4ZM668.3,36.6v2.1h0c.4-.8.9-1.4,1.6-1.8.6-.4,1.5-.6,2.5-.6s1.6.2,2.2.6c.7.4,1.1,1,1.3,1.8.4-.8.9-1.4,1.6-1.8.7-.4,1.5-.6,2.3-.6,2.7,0,4.1,1.4,4.1,4.3v8.4h-1.5v-8.3c0-1-.2-1.8-.6-2.3s-1.2-.8-2.3-.8-1.2.1-1.6.4c-.4.2-.8.6-1,1-.3.4-.4.9-.5,1.4-.1.5-.2,1.1-.2,1.7v7h-1.5v-8.4c0-.4,0-.8-.1-1.2,0-.4-.2-.7-.4-1-.2-.3-.5-.5-.8-.7-.3-.2-.7-.2-1.2-.2s-1.2.1-1.7.3-.9.6-1.2,1c-.3.4-.5.9-.7,1.4-.1.6-.2,1.2-.2,1.8v6.9h-1.5v-12.4h1.4ZM689,31.9v7.1h0c.2-.4.4-.8.7-1.2.3-.3.6-.6,1-.9s.8-.4,1.2-.5c.4-.1.9-.2,1.3-.2.9,0,1.8.2,2.5.5.7.4,1.3.8,1.7,1.4.5.6.8,1.3,1,2.1.2.8.3,1.6.3,2.5s-.1,1.7-.3,2.5c-.2.8-.6,1.5-1,2.1-.5.6-1,1.1-1.7,1.4-.7.3-1.5.5-2.5.5s-1.9-.2-2.7-.7-1.4-1.1-1.7-2h0v2.4h-1.4v-17.2h1.5ZM697.1,40.9c-.2-.6-.4-1.2-.7-1.7-.3-.5-.7-.9-1.3-1.2-.5-.3-1.1-.5-1.8-.5s-1.5.2-2,.5c-.6.3-1,.7-1.3,1.2-.3.5-.6,1.1-.7,1.7-.2.6-.2,1.3-.2,1.9s0,1.3.2,1.9c.2.6.4,1.2.7,1.7.3.5.8.9,1.3,1.2.6.3,1.2.5,2,.5s1.3-.2,1.8-.5c.5-.3.9-.7,1.3-1.2.3-.5.6-1.1.7-1.7.2-.6.2-1.3.2-1.9s0-1.3-.2-1.9h0ZM710.3,40.3c-.2-.5-.4-1-.8-1.4-.3-.4-.7-.7-1.2-1-.5-.2-1-.4-1.6-.4s-1.2.1-1.7.4-.9.6-1.2,1-.6.9-.8,1.4c-.2.5-.3,1.1-.4,1.6h8c0-.6-.1-1.1-.3-1.7h0ZM702.8,44.9c.2.6.4,1.1.7,1.6.3.5.8.8,1.3,1.2.5.3,1.1.5,1.8.5,1.1,0,2-.3,2.6-.9.6-.6,1.1-1.3,1.3-2.3h1.5c-.3,1.4-.9,2.5-1.8,3.3-.9.8-2.1,1.2-3.6,1.2s-1.8-.2-2.5-.5-1.3-.8-1.7-1.4c-.4-.6-.8-1.3-1-2.1-.2-.8-.3-1.6-.3-2.5s.1-1.6.3-2.4c.2-.8.5-1.5,1-2.1s1-1.1,1.7-1.5c.7-.4,1.6-.6,2.5-.6s1.8.2,2.5.6c.7.4,1.3.9,1.7,1.6.4.6.8,1.4.9,2.2.2.8.3,1.7.2,2.6h-9.5c0,.5,0,1.1.2,1.7h0ZM716.1,36.6v2.9h0c.4-1,1-1.8,1.8-2.3s1.8-.8,2.9-.7v1.5c-.7,0-1.3,0-1.9.3-.6.2-1,.5-1.5.9-.4.4-.7.9-.9,1.4s-.3,1.2-.3,1.8v6.6h-1.5v-12.4h1.4ZM730.2,33.9c-.3-.3-.7-.4-1.3-.4-.4,0-.7,0-1,.2-.3.1-.5.3-.7.5-.2.2-.3.5-.4.8,0,.3-.1.7-.1,1s0,.7.1,1c.1.3.2.6.4.8.2.2.4.4.7.5.3.1.6.2,1,.2s.9-.1,1.3-.4c.3-.3.5-.6.6-1.1h.7c0,.3-.1.6-.3.9-.1.3-.3.5-.6.7-.2.2-.5.3-.8.4-.3,0-.6.1-.9.1-.5,0-.9,0-1.3-.2-.4-.2-.7-.4-1-.7-.3-.3-.5-.6-.6-1-.1-.4-.2-.8-.2-1.3s0-.9.2-1.3c.1-.4.3-.7.6-1,.3-.3.6-.5,1-.7.4-.2.8-.2,1.3-.2s.6,0,.9.1c.3,0,.6.2.8.4.2.2.4.4.6.7.1.3.2.6.3.9h-.7c0-.4-.3-.8-.6-1h0ZM732.9,34.3c-.2-.5-.5-1-.9-1.4-.4-.4-.9-.7-1.4-1-.5-.2-1.1-.3-1.7-.3s-1.2.1-1.8.3c-.5.2-1,.6-1.4,1-.4.4-.7.9-.9,1.4-.2.5-.3,1.1-.3,1.7s.1,1.2.3,1.7c.2.5.5,1,.9,1.4.4.4.9.7,1.4.9.5.2,1.1.4,1.8.4s1.2-.1,1.7-.4c.5-.2,1-.5,1.4-.9.4-.4.7-.9.9-1.4.2-.5.3-1.1.3-1.7s-.1-1.2-.3-1.7h0ZM733.6,38.1c-.3.6-.6,1.2-1.1,1.6-.5.5-1,.8-1.7,1.1-.6.3-1.3.4-2.1.4s-1.4-.1-2.1-.4c-.6-.3-1.2-.6-1.7-1.1-.5-.5-.8-1-1.1-1.6-.3-.6-.4-1.3-.4-2.1s.1-1.4.4-2c.3-.6.6-1.2,1.1-1.7.5-.5,1-.8,1.7-1.1.6-.3,1.3-.4,2.1-.4s1.4.1,2.1.4c.6.3,1.2.6,1.7,1.1.5.5.8,1,1.1,1.7.3.6.4,1.3.4,2s-.1,1.4-.4,2.1h0Z"/>
        <path class="cls-1" d="M40.7,93.7l3.1,10.3h0l2.9-10.3h1.7l2.9,10.3h0l3.1-10.3h1.6l-3.9,12.1h-1.6l-3-10.1h0l-2.9,10.1h-1.6l-3.9-12.1h1.6ZM59.9,93.7l3.1,10.3h0l2.9-10.3h1.7l2.9,10.3h0l3.1-10.3h1.6l-3.9,12.1h-1.6l-3-10.1h0l-2.9,10.1h-1.6l-3.9-12.1h1.6ZM79.1,93.7l3.1,10.3h0l2.9-10.3h1.7l2.9,10.3h0l3.1-10.3h1.6l-3.9,12.1h-1.6l-3-10.1h0l-2.9,10.1h-1.6l-3.9-12.1h1.6ZM97.5,103.3h2v2.5h-2v-2.5h0ZM114.9,107.2c-.2.7-.5,1.3-.9,1.8-.4.5-1,.9-1.6,1.1-.7.3-1.5.4-2.5.4s-1.2,0-1.8-.2c-.6-.1-1.1-.4-1.6-.7-.5-.3-.8-.7-1.1-1.1-.3-.5-.5-1-.5-1.6h1.5c0,.5.2.8.5,1.1.2.3.5.5.8.7.3.2.7.3,1.1.4.4,0,.8.1,1.2.1,1.4,0,2.4-.4,3-1.2.6-.8.9-1.9.9-3.4v-1.6h0c-.3.7-.8,1.3-1.5,1.8-.7.5-1.4.7-2.3.7s-1.8-.2-2.5-.5c-.7-.3-1.2-.8-1.7-1.3-.4-.6-.8-1.2-1-2-.2-.8-.3-1.6-.3-2.4s.1-1.6.4-2.4c.2-.7.6-1.4,1.1-1.9.5-.6,1-1,1.7-1.3.7-.3,1.5-.5,2.3-.5s.9,0,1.3.2c.4.1.8.3,1.1.5.3.2.6.5.9.8.3.3.5.6.6.9h0v-2.1h1.5v11.1c0,.9,0,1.7-.3,2.4h0ZM111.6,104c.5-.3.9-.6,1.2-1.1.3-.4.6-1,.7-1.5.2-.6.2-1.2.2-1.8s0-1.2-.2-1.8c-.1-.6-.4-1.1-.7-1.6s-.7-.9-1.2-1.2c-.5-.3-1.1-.4-1.8-.4s-1.3.1-1.8.4c-.5.3-.9.7-1.2,1.1-.3.5-.6,1-.7,1.6s-.2,1.2-.2,1.8,0,1.2.2,1.8c.2.6.4,1.1.7,1.5.3.4.7.8,1.2,1.1.5.3,1.1.4,1.8.4s1.2-.1,1.7-.4h0ZM126.9,96.1c-.2-.3-.4-.6-.7-.8-.3-.2-.6-.4-1-.5-.4-.1-.8-.2-1.2-.2s-.7,0-1,.1c-.3,0-.6.2-.9.4-.3.2-.5.4-.7.6-.2.3-.3.6-.3,1s0,.6.2.8c.2.2.4.4.6.6.3.2.5.3.8.4.3.1.6.2.8.2l2,.4c.4,0,.8.2,1.2.3.4.2.8.4,1.1.6.3.3.6.6.8,1,.2.4.3.8.3,1.4s-.1,1.2-.4,1.7c-.3.5-.7.8-1.1,1.1-.5.3-1,.5-1.6.6s-1.1.2-1.7.2c-1.4,0-2.6-.3-3.4-1-.9-.7-1.4-1.7-1.5-3.2h1.5c0,1,.4,1.8,1.1,2.3.7.5,1.5.8,2.5.8s.7,0,1.1-.1c.4,0,.7-.2,1.1-.4.3-.2.6-.4.8-.7.2-.3.3-.6.3-1.1s0-.7-.2-.9c-.1-.2-.3-.4-.6-.6-.2-.2-.5-.3-.9-.4-.3-.1-.6-.2-1-.3l-1.9-.4c-.5-.1-.9-.3-1.3-.4-.4-.2-.8-.4-1.1-.6-.3-.2-.5-.5-.7-.9-.2-.3-.3-.8-.3-1.3s.1-1.1.4-1.6c.3-.4.6-.8,1.1-1.1.4-.3.9-.5,1.5-.6.5-.1,1.1-.2,1.6-.2s1.2,0,1.7.2c.5.2,1,.4,1.4.7.4.3.7.7.9,1.2.2.5.4,1.1.4,1.7h-1.5c0-.5-.1-.8-.3-1.2h0ZM133.3,95.6c.3-.5.6-.9,1-1.3.4-.3.9-.6,1.5-.7.6-.2,1.2-.2,1.9-.2s1.1,0,1.6.2c.5.1,1,.3,1.4.6.4.3.8.7,1,1.2.3.5.4,1.2.4,2v6.4c0,.6.3.9.9.9s.3,0,.5,0v1.2c-.2,0-.3,0-.5,0-.1,0-.3,0-.5,0-.4,0-.7,0-.9-.2-.2-.1-.4-.2-.5-.4-.1-.2-.2-.4-.2-.7,0-.3,0-.5,0-.9h0c-.3.4-.5.7-.8,1-.3.3-.6.6-.9.8-.3.2-.7.4-1.1.5s-.9.2-1.5.2-1.1,0-1.6-.2c-.5-.1-.9-.3-1.3-.6-.4-.3-.7-.7-.9-1.1-.2-.4-.3-1-.3-1.6s.2-1.5.6-2c.4-.5.9-.8,1.5-1.1.6-.2,1.3-.4,2.1-.5.8-.1,1.6-.2,2.4-.3.3,0,.6,0,.8-.1.2,0,.4-.1.6-.2.2-.1.3-.3.4-.5,0-.2.1-.5.1-.8,0-.5,0-.9-.2-1.2-.2-.3-.4-.6-.7-.8-.3-.2-.6-.3-1-.4-.4,0-.8-.1-1.2-.1-.9,0-1.7.2-2.3.7-.6.4-.9,1.2-.9,2.1h-1.5c0-.7.2-1.3.4-1.8h0ZM140.7,99.2c0,.2-.3.3-.5.4-.3,0-.5.1-.7.2-.6.1-1.3.2-1.9.3-.7,0-1.3.2-1.8.4-.5.2-1,.4-1.3.7-.3.3-.5.8-.5,1.4s0,.7.2,1c.1.3.3.5.6.7.3.2.5.4.9.5.3.1.7.2,1,.2.6,0,1.1,0,1.6-.3.5-.2,1-.4,1.3-.7.4-.3.7-.7.9-1.2.2-.5.3-1,.3-1.6v-1.9h0ZM148.4,93.7v2.8h0c.4-1,1-1.7,1.7-2.3.8-.5,1.7-.8,2.8-.7v1.5c-.7,0-1.3,0-1.8.3-.5.2-1,.5-1.4.9s-.7.9-.9,1.4c-.2.5-.3,1.1-.3,1.8v6.4h-1.5v-12.1h1.4ZM158.1,93.7v2.1h0c.3-.7.8-1.3,1.5-1.8.7-.4,1.5-.7,2.4-.7s1.5.1,2.1.3c.6.2,1,.5,1.4.9.3.4.6.9.7,1.5.1.6.2,1.2.2,1.9v7.8h-1.5v-7.5c0-.5,0-1-.1-1.4,0-.4-.3-.8-.5-1.2-.2-.3-.5-.6-.9-.8-.4-.2-.9-.3-1.5-.3s-1.1.1-1.6.3c-.5.2-.8.5-1.2.9-.3.4-.6.8-.7,1.3-.2.5-.3,1.1-.3,1.6v7h-1.5v-12.1h1.5ZM172,103.3h2v2.5h-2v-2.5h0ZM182.7,95c-.5.3-1,.7-1.3,1.2-.3.5-.6,1-.8,1.6-.2.6-.3,1.2-.3,1.9s0,1.3.3,1.9.4,1.2.8,1.6c.4.5.8.9,1.3,1.2.5.3,1.1.4,1.8.4s1.3-.1,1.8-.4c.5-.3,1-.7,1.3-1.2.3-.5.6-1,.8-1.6s.3-1.2.3-1.9,0-1.3-.3-1.9c-.2-.6-.4-1.2-.8-1.6-.4-.5-.8-.9-1.3-1.2-.5-.3-1.1-.4-1.8-.4s-1.3.1-1.8.4h0ZM187,93.9c.7.3,1.3.8,1.8,1.4.5.6.9,1.3,1.1,2,.2.8.4,1.6.4,2.5s-.1,1.7-.4,2.5c-.2.8-.6,1.4-1.1,2-.5.6-1.1,1-1.8,1.4-.7.3-1.5.5-2.4.5s-1.7-.2-2.4-.5c-.7-.3-1.3-.8-1.8-1.4-.5-.6-.9-1.2-1.1-2-.2-.8-.4-1.6-.4-2.5s.1-1.7.4-2.5c.2-.8.6-1.4,1.1-2,.5-.6,1.1-1,1.8-1.4.7-.3,1.5-.5,2.4-.5s1.7.2,2.4.5h0ZM195.7,93.7v2.8h0c.4-1,1-1.7,1.7-2.3.8-.5,1.7-.8,2.8-.7v1.5c-.7,0-1.3,0-1.8.3-.5.2-1,.5-1.4.9-.4.4-.7.9-.9,1.4-.2.5-.3,1.1-.3,1.8v6.4h-1.5v-12.1h1.4ZM213.5,107.2c-.2.7-.5,1.3-.9,1.8-.4.5-1,.9-1.6,1.1-.7.3-1.5.4-2.5.4s-1.2,0-1.8-.2c-.6-.1-1.1-.4-1.6-.7-.5-.3-.8-.7-1.1-1.1-.3-.5-.5-1-.5-1.6h1.5c0,.5.2.8.5,1.1.2.3.5.5.8.7.3.2.7.3,1.1.4.4,0,.8.1,1.2.1,1.4,0,2.4-.4,3-1.2.6-.8.9-1.9.9-3.4v-1.6h0c-.3.7-.8,1.3-1.5,1.8-.7.5-1.4.7-2.3.7s-1.8-.2-2.5-.5c-.7-.3-1.2-.8-1.7-1.3s-.8-1.2-1-2c-.2-.8-.3-1.6-.3-2.4s.1-1.6.4-2.4c.2-.7.6-1.4,1.1-1.9.5-.6,1-1,1.7-1.3.7-.3,1.5-.5,2.3-.5s.9,0,1.3.2c.4.1.8.3,1.1.5.3.2.6.5.9.8.3.3.5.6.6.9h0v-2.1h1.5v11.1c0,.9,0,1.7-.3,2.4h0ZM210.1,104c.5-.3.9-.6,1.2-1.1.3-.4.6-1,.7-1.5s.2-1.2.2-1.8,0-1.2-.2-1.8c-.1-.6-.4-1.1-.7-1.6-.3-.5-.7-.9-1.2-1.2-.5-.3-1.1-.4-1.8-.4s-1.3.1-1.8.4c-.5.3-.9.7-1.2,1.1-.3.5-.6,1-.7,1.6-.1.6-.2,1.2-.2,1.8s0,1.2.2,1.8c.2.6.4,1.1.7,1.5.3.4.7.8,1.2,1.1.5.3,1.1.4,1.8.4s1.2-.1,1.7-.4h0Z"/>
        <path class="cls-1" d="M46.3,52.5c0,2.2-.3,4.3-.6,6.3-.3,2-1,3.9-1.9,5.7-1,1.9-2.1,3.5-3.4,4.7-1.3,1.3-2.8,2.3-4.3,3.1-1.5.8-3.2,1.4-4.8,1.7-1.7.3-3.3.5-4.8.5-3.3,0-6.3-.6-8.9-1.9-2.6-1.3-4.8-3-6.6-5.2-1.8-2.2-3.2-4.7-4.1-7.6-.9-2.9-1.4-5.9-1.4-9.1s.4-7.8,1.2-11.2c.8-3.4,2.1-6.3,3.9-8.7,1.8-2.4,4-4.3,6.7-5.7,2.7-1.3,6-2,9.8-2s4.2.3,6.2.9c2,.6,3.8,1.5,5.4,2.6,1.6,1.1,3,2.6,4.1,4.3,1.1,1.7,2,3.6,2.4,5.8h5.6c-.6-3.1-1.7-5.8-3.1-8.1-1.4-2.3-3.2-4.2-5.3-5.7-2.1-1.5-4.5-2.7-7.1-3.4-2.6-.7-5.5-1.1-8.5-1.1-4.5,0-8.5.8-11.8,2.3-3.3,1.5-6.1,3.7-8.3,6.4-2.2,2.7-3.9,5.9-4.9,9.5-1.1,3.7-1.6,7.6-1.6,11.8s.6,9.6,1.9,13.5c1.3,3.8,3,7,5.3,9.6s4.9,4.4,8,5.7c3.1,1.3,6.5,1.9,10.1,1.9s5.4-.3,7.6-.8c2.2-.5,4.2-1.3,5.9-2.3,1.7-1,3.2-2.2,4.5-3.6,1.3-1.4,2.5-3,3.5-4.7v9.9h4.7v-29.8h-24.7v4.6h19.5ZM56,60.5c0,3.2.5,5.9,1.6,8.2,1,2.3,2.5,4.3,4.4,5.9,1.9,1.6,4.1,2.8,6.7,3.5,2.6.8,5.3,1.2,8.3,1.2,6.7,0,11.9-1.5,15.6-4.4,3.7-2.9,5.5-7.1,5.5-12.4s-.5-5.1-1.4-6.9c-.9-1.8-2.2-3.4-3.7-4.5-1.5-1.2-3.3-2.1-5.3-2.8-2-.7-4.1-1.3-6.2-1.8-2.1-.5-4.2-1-6.3-1.4-2.1-.5-3.9-1-5.7-1.8-1.7-.7-3.2-1.6-4.3-2.8-1.2-1.1-1.9-2.6-2.2-4.5-.3-1.5-.2-3,.2-4.5s1.2-2.9,2.3-4.1c1.1-1.2,2.6-2.2,4.5-3,1.9-.8,4.2-1.2,7-1.2s3.6.2,5.3.7c1.7.5,3.2,1.2,4.6,2.2s2.4,2.3,3.2,3.9c.8,1.6,1.2,3.5,1.2,5.7h5.2c0-2.4-.4-4.6-1.2-6.7-.8-2.1-2-3.9-3.6-5.5-1.6-1.6-3.6-2.8-6.1-3.7-2.4-.9-5.3-1.4-8.5-1.4s-6,.4-8.5,1.3c-2.5.9-4.5,2-6.1,3.4-1.6,1.4-2.9,3.1-3.7,5-.8,1.9-1.2,3.8-1.2,5.8,0,2.8.5,5.2,1.5,7,1,1.8,2.3,3.4,4,4.5,1.6,1.2,3.5,2.1,5.6,2.8,2.1.7,4.3,1.3,6.5,1.8,2.2.5,4.4,1,6.5,1.6,2.1.5,4,1.2,5.6,2.1,1.6.9,3,2,4,3.4,1,1.4,1.5,3.2,1.5,5.5s-.3,3.1-.8,4.6c-.6,1.4-1.4,2.7-2.6,3.8-1.2,1.1-2.7,2-4.6,2.6-1.9.6-4.1,1-6.7,1s-4.2-.3-6.2-.8c-1.9-.5-3.6-1.3-5.1-2.4-1.5-1.1-2.7-2.6-3.6-4.4-.9-1.8-1.5-4-1.7-6.5h-5.3ZM125.2,33.2l7.3,22.7h-14.8l7.5-22.7h0ZM97.9,77.7h12.6l3.9-11.9h21.3l3.8,11.9h13.1l-20.4-57.7h-13.6l-20.6,57.7h0ZM179.7,30c2.5,0,4.3.3,5.6,1,2.2,1.2,3.3,3.6,3.3,7s-1.1,5.4-3.4,6.5c-1.3.6-3.2.9-5.8.9h-13v-15.5h13.3ZM182.2,20h-27.6v57.7h11.8v-22.6h11.8c3.4,0,5.6.6,6.9,1.8,1.2,1.2,1.9,3.7,1.9,7.4v5.4c.1,1.7.3,3.4.6,5,.2.8.4,1.8.8,3.1h13.3v-1.4c-1.2-.7-1.9-1.8-2.2-3.3-.2-.9-.3-2.7-.3-5.4v-3.9c0-4-.6-7.1-1.7-9-1.1-2-3-3.5-5.7-4.6,3.2-1.1,5.5-3,6.9-5.6,1.4-2.7,2.1-5.3,2.1-8.1s-.4-4.3-1.1-6.1c-.7-1.8-1.7-3.4-2.9-4.9-1.5-1.8-3.3-3.1-5.4-4-2.1-.9-5.2-1.4-9.1-1.5h0ZM245.7,77.7h6.3V20h-5.5v50.4h-.2l-33.4-50.4h-6.2v57.7h5.5V27.3h.2l33.2,50.4h0Z"/>
        <path class="cls-1" d="M257.1,1.3c-1.6.9-2.9,2.1-3.8,3.7-.9,1.6-1.4,3.3-1.4,5.1s.4,3.4,1.3,5c.9,1.6,2.1,2.8,3.7,3.7,1.6.9,3.3,1.3,5,1.3s3.4-.4,5-1.3c1.6-.9,2.8-2.1,3.7-3.7.9-1.6,1.3-3.3,1.3-5s-.5-3.4-1.3-5.1c-.9-1.6-2.2-2.9-3.8-3.7-1.6-.9-3.3-1.3-5-1.3s-3.3.4-5,1.3h0ZM266.2,2.8c1.3.7,2.4,1.8,3.1,3.1s1.1,2.8,1.1,4.2-.4,2.8-1.1,4.2c-.7,1.3-1.8,2.4-3.1,3.1-1.3.7-2.7,1.1-4.2,1.1s-2.8-.4-4.2-1.1c-1.3-.7-2.4-1.8-3.1-3.1-.7-1.3-1.1-2.7-1.1-4.2s.4-2.9,1.1-4.2c.8-1.3,1.8-2.4,3.1-3.1,1.3-.7,2.7-1.1,4.1-1.1s2.8.4,4.1,1.1h0ZM264.1,13.6c-.6.5-1.3.7-2.1.7s-1.8-.3-2.4-1c-.6-.7-.9-1.7-.9-3.1s.3-2.4,1-3.1c.7-.7,1.5-1.1,2.5-1.1s1.3.2,1.8.5c.5.4.9.9,1.2,1.5l1.6-.4c-.3-1-.8-1.7-1.6-2.3-.8-.6-1.8-.8-2.9-.8s-2,.2-2.8.7c-.8.4-1.5,1.1-1.9,2-.4.9-.7,1.9-.7,3.1,0,1.8.5,3.2,1.5,4.2,1,1,2.3,1.5,3.8,1.5s2.3-.3,3.2-1c.9-.7,1.4-1.5,1.7-2.7l-1.6-.5c-.2.8-.6,1.4-1.2,1.9h0Z"/>
      </g>
    </g>
  </g>
</svg>