<?xml version="1.0" encoding="utf-8"?>
<!-- Generator: Adobe Illustrator 25.4.1, SVG Export Plug-In . SVG Version: 6.00 Build 0)  -->
<svg version="1.1" id="Layer_1" xmlns="http://www.w3.org/2000/svg" xmlns:xlink="http://www.w3.org/1999/xlink" x="0px" y="0px"
	 viewBox="0 0 720 266.5" style="enable-background:new 0 0 720 266.5;" xml:space="preserve">
<style type="text/css">
	.st0{fill:#DAAB28;}
	
	#ttl1 {
	transform: scale(0, 0);
	opacity: 0;
    animation-fill-mode: forwards;
    animation-iteration-count: 1;
    animation-name: zoomhm;
    animation-duration: 2s;
	transform-origin: 360.5px 77.4413px;
    animation-delay: 2s;
}

#ttl2 {
	transform: scale(0, 0);
	opacity: 0;
    animation-fill-mode: forwards;
    animation-iteration-count: 1;
    animation-name: zoomhm;
    animation-duration: 2s;
    transform-origin: 337.1174px 195.3915px;
    animation-delay: 3s;
}

@keyframes zoomhm {
    0% {
        transform: scale(0, 0);
        opacity: 0;
        filter: blur(7px);
    }

    100% {
        transform: scale(1, 1);
        opacity: 1;
        filter: none;
    }
}
	
	
	
	
</style>
<g id="ttl1">
	<path d="M59,110.8V44.2c0.8-0.2,3.5-0.5,8.3-0.8c4.7-0.3,8.4-0.5,10.9-0.5c17.2,0,25.8,7,25.8,21c0,9-3,15.5-9.2,19.6
		c-3.9,2.6-8.5,3.9-13.6,3.9c-1.1,0-2.6-0.1-4.5-0.3c-1.9-0.2-2.8-0.4-2.9-0.5v24.3H59z M73.8,74.4c1.8,0.8,3.9,1.2,6.3,1.2
		c2.5,0,4.4-1,5.9-3c1.5-2,2.3-4.6,2.3-7.8c0-6.7-2.8-10.1-8.3-10.1c-3.7,0-5.8,0.2-6.2,0.7V74.4z"/>
	<path d="M132.6,44.1h12.2l24.6,66.7h-15.1c-1.2-3.4-2.6-8-4.2-13.6h-23.1c-1.6,5-3.1,9.5-4.4,13.6H108L132.6,44.1z M138.8,63.7
		c-1.5,4.3-4,11.4-7.4,21.3H146C143,76.2,140.6,69.1,138.8,63.7"/>
	<path d="M177.7,110.8V44.2c0.8-0.2,3.5-0.5,8.3-0.8c4.7-0.3,8.4-0.5,10.9-0.5c17.2,0,25.8,7,25.8,21c0,7.6-2.9,14-8.7,19.2l13,27.8
		h-15L201,87c-0.9,0.2-1.9,0.3-2.8,0.3h-0.7c-2.2-0.1-3.9-0.4-4.8-0.7v24.2H177.7z M192.6,74.4c1.9,0.6,3.9,0.8,5.9,0.8h0.6
		c5.3-0.1,8-3.9,8-11.5c0-6-2.8-9.1-8.3-9.1c-3.7,0-5.8,0.2-6.2,0.7V74.4z"/>
	<polygon points="249.6,55.9 230.6,55.9 230.6,44.1 285.1,44.1 285.1,55.9 264.6,55.9 264.6,110.8 249.6,110.8 	"/>
	<path d="M294.4,110.8V44.1h12.2c7.6,9.5,18.7,24.4,33.4,44.7V44.1h14.9v66.7h-12.5c-7.2-8.5-18.4-22.9-33.4-43.2v43.2H294.4z"/>
	<polygon points="370.6,44.1 414.9,44.1 414.9,55.9 385.4,55.9 385.4,70.5 410,70.5 410,82.3 385.4,82.3 385.4,99 416.3,99 
		416.3,110.8 370.6,110.8 	"/>
	<path d="M428.7,110.8V44.2c0.8-0.2,3.5-0.5,8.3-0.8c4.7-0.3,8.4-0.5,10.9-0.5c17.2,0,25.8,7,25.8,21c0,7.6-2.9,14-8.7,19.2l13,27.8
		h-15L452,87c-0.9,0.2-1.9,0.3-2.8,0.3h-0.7c-2.2-0.1-3.9-0.4-4.8-0.7v24.2H428.7z M443.5,74.4c1.9,0.6,3.9,0.8,5.9,0.8h0.6
		c5.3-0.1,8-3.9,8-11.5c0-6-2.8-9.1-8.3-9.1c-3.7,0-5.8,0.2-6.2,0.7V74.4z"/>
	<path d="M484.2,103.8l6.6-9.2c3.9,2.7,9,4,15.5,4c6.9,0,10.3-2.6,10.3-7.9c0-3.2-4-6.2-11.9-9.1c-12.1-4.4-18.1-11.2-18.1-20.5
		c0-5.7,2.1-10.2,6.3-13.6c3.9-3.2,9.2-4.7,15.9-4.7c7.5,0,14.6,2.3,21.3,7c-1.3,1.9-3.4,4.9-6.3,9.2c-5.9-2.5-11-3.7-15.2-3.7
		c-5.3,0-8,2-8,6c0,1.7,0.7,3.1,2.2,4.3c1.4,1.2,4.3,2.6,8.5,4.3c7.3,2.8,12.6,5.9,15.9,9.4c3.3,3.4,4.9,7.5,4.9,12.2
		c0,7-2.6,12.4-7.8,16.1c-4.2,3-9.5,4.5-15.9,4.5C500.9,112,492.8,109.3,484.2,103.8"/>
	<rect x="570.8" y="44.1" width="14.5" height="66.7"/>
	<path d="M601.5,110.8V44.1h12.2c7.6,9.5,18.7,24.4,33.4,44.7V44.1H662v66.7h-12.5c-7.2-8.5-18.4-22.9-33.4-43.2v43.2H601.5z"/>
</g>
<g id="ttl2">
	<path class="st0" d="M59,228.7v-66.6c0.8-0.2,3.5-0.5,8.3-0.8c4.7-0.3,8.4-0.5,10.9-0.5c17.2,0,25.8,7,25.8,21c0,9-3,15.5-9.2,19.6
		c-3.9,2.6-8.5,3.9-13.6,3.9c-1.1,0-2.6-0.1-4.5-0.3c-1.9-0.2-2.8-0.4-2.9-0.5v24.3H59z M73.8,192.4c1.8,0.8,3.9,1.2,6.3,1.2
		c2.5,0,4.4-1,5.9-3c1.5-2,2.3-4.6,2.3-7.8c0-6.7-2.8-10.1-8.3-10.1c-3.7,0-5.8,0.2-6.2,0.7V192.4z"/>
	<path class="st0" d="M115.9,228.7v-66.6c0.8-0.2,3.5-0.5,8.3-0.8c4.7-0.3,8.4-0.5,10.9-0.5c17.2,0,25.8,7,25.8,21
		c0,7.6-2.9,14-8.7,19.2l13,27.8h-15l-11-23.8c-0.9,0.2-1.9,0.3-2.8,0.3h-0.7c-2.2-0.1-3.9-0.4-4.8-0.7v24.2H115.9z M130.7,192.4
		c1.9,0.6,3.9,0.8,5.9,0.8h0.6c5.3-0.1,8-3.9,8-11.5c0-6-2.8-9.1-8.3-9.1c-3.7,0-5.8,0.2-6.2,0.7V192.4z"/>
	<path class="st0" d="M201.9,160.8c10.3,0,18.3,4.1,23.9,12.3c4.4,6.4,6.5,14.1,6.5,23.2c0,10.4-2.9,18.7-8.6,25
		c-5.4,5.8-12.7,8.7-21.8,8.7c-10.5,0-18.5-3.8-24-11.3c-4.4-6-6.5-13.4-6.5-22.4c0-10.6,2.8-19.2,8.5-25.8
		C185.4,164,192.7,160.8,201.9,160.8 M201.9,217.6c10,0,15-7.1,15-21.3c0-7.5-1.4-13.3-4.3-17.4c-2.7-3.7-6.2-5.5-10.6-5.5
		c-4.8,0-8.6,2-11.2,6c-2.6,4-4,9.6-4,16.9C186.8,210.5,191.8,217.6,201.9,217.6"/>
	<path class="st0" d="M240.1,221.8l6.6-9.2c3.9,2.7,9,4,15.5,4c6.9,0,10.3-2.6,10.3-7.9c0-3.2-4-6.2-11.9-9.1
		c-12.1-4.4-18.1-11.2-18.1-20.5c0-5.7,2.1-10.2,6.3-13.6c3.9-3.2,9.2-4.7,15.9-4.7c7.5,0,14.6,2.3,21.3,7c-1.3,1.9-3.4,4.9-6.3,9.2
		c-5.9-2.5-11-3.7-15.2-3.7c-5.3,0-8,2-8,6c0,1.7,0.7,3.1,2.2,4.3c1.4,1.2,4.3,2.6,8.5,4.3c7.3,2.8,12.6,5.9,15.9,9.4
		c3.3,3.4,4.9,7.5,4.9,12.2c0,7-2.6,12.4-7.8,16.1c-4.2,3-9.5,4.5-15.9,4.5C256.7,230,248.7,227.3,240.1,221.8"/>
	<path class="st0" d="M300.6,228.7v-66.6c0.8-0.2,3.5-0.5,8.3-0.8c4.7-0.3,8.4-0.5,10.9-0.5c17.2,0,25.8,7,25.8,21
		c0,9-3,15.5-9.2,19.6c-3.9,2.6-8.5,3.9-13.6,3.9c-1.1,0-2.6-0.1-4.5-0.3c-1.9-0.2-2.8-0.4-2.9-0.5v24.3H300.6z M315.5,192.4
		c1.8,0.8,3.9,1.2,6.3,1.2c2.5,0,4.4-1,5.9-3c1.5-2,2.3-4.6,2.3-7.8c0-6.7-2.8-10.1-8.3-10.1c-3.7,0-5.8,0.2-6.2,0.7V192.4z"/>
	<polygon class="st0" points="357.1,162.1 401.4,162.1 401.4,173.9 371.9,173.9 371.9,188.5 396.5,188.5 396.5,200.3 371.9,200.3 
		371.9,216.9 402.8,216.9 402.8,228.7 357.1,228.7 	"/>
	<path class="st0" d="M415.2,228.7v-66.6c0.8-0.2,3.5-0.5,8.3-0.8c4.7-0.3,8.4-0.5,10.9-0.5c17.2,0,25.8,7,25.8,21
		c0,7.6-2.9,14-8.7,19.2l13,27.8h-15l-11-23.8c-0.9,0.2-1.9,0.3-2.8,0.3h-0.7c-2.2-0.1-3.9-0.4-4.8-0.7v24.2H415.2z M430.1,192.4
		c1.9,0.6,3.9,0.8,5.9,0.8h0.6c5.3-0.1,8-3.9,8-11.5c0-6-2.8-9.1-8.3-9.1c-3.7,0-5.8,0.2-6.2,0.7V192.4z"/>
	<rect x="474.9" y="162.1" class="st0" width="14.5" height="66.7"/>
	<polygon class="st0" points="517.9,173.9 498.8,173.9 498.8,162.1 553.4,162.1 553.4,173.9 532.9,173.9 532.9,228.7 517.9,228.7 	
		"/>
	<path class="st0" d="M554.8,162.1h16c4.7,9.8,9.5,19.6,14.4,29.3l14-29.3h16l-22.8,40.3v26.3h-14.7v-26.3
		C569.4,187.9,561.7,174.4,554.8,162.1"/>
</g>
</svg>
