<svg xmlns="http://www.w3.org/2000/svg" viewBox="0 0 28.53 27.89"><defs><style>.cls-1{fill:none;stroke:#3d3184;stroke-width:0.75px;}</style></defs><g id="Layer_2" data-name="Layer 2"><g id="Layer_1-2" data-name="Layer 1"><path class="cls-1" d="M7,20.2,2.8,15.43a2.24,2.24,0,0,1,3.21,0,13.41,13.41,0,0,1,1.78,2,4.61,4.61,0,0,1,4.77,4.38v5.68"/><path class="cls-1" d="M21.58,20.2l4.15-4.77a2.24,2.24,0,0,0-3.21,0,13.41,13.41,0,0,0-1.78,2A4.61,4.61,0,0,0,16,21.84v5.68"/><path class="cls-1" d="M3.72,13.06,3.28,9.34S2.93,6.49.38,6.72V17l.3,1,5.47,6.07s1,.92.52,3.77"/><path class="cls-1" d="M24.81,13.06l.44-3.72s.35-2.85,2.9-2.62V17l-.3,1-5.47,6.07s-1.05.92-.52,3.77"/><path class="cls-1" d="M12.68,4A1.51,1.51,0,0,1,11.35,5H7.43c-.55,0-.66.29-.23.64l3.09,2.56a1.63,1.63,0,0,1,.48,1.59L9.68,13.42c-.16.53.09.72.56.43l3.31-2a1.64,1.64,0,0,1,1.67.05L18.3,14c.45.31.71.13.58-.41l-.95-3.82a1.66,1.66,0,0,1,.56-1.58l3-2.3c.44-.34.34-.64-.21-.66L17.45,5A1.65,1.65,0,0,1,16.1,4L15.05,1.15c-.39-1-1-1-1.36,0Z"/></g></g></svg>