<svg width="19" height="24" viewBox="0 0 19 24" fill="none" xmlns="http://www.w3.org/2000/svg">
<path d="M13.1656 15.7921C13.1656 16.0414 13.0665 16.2806 12.8902 16.4569C12.7139 16.6332 12.4748 16.7323 12.2254 16.7323H10.3411V18.6166C10.3411 18.8665 10.2418 19.1061 10.0651 19.2828C9.88842 19.4595 9.64877 19.5588 9.39889 19.5588C9.14901 19.5588 8.90937 19.4595 8.73268 19.2828C8.55599 19.1061 8.45672 18.8665 8.45672 18.6166V16.7323H6.57238C6.3225 16.7323 6.08286 16.633 5.90617 16.4563C5.72947 16.2796 5.63021 16.04 5.63021 15.7901C5.63021 15.5402 5.72947 15.3006 5.90617 15.1239C6.08286 14.9472 6.3225 14.8479 6.57238 14.8479H8.45672V12.9636C8.45672 12.7137 8.55599 12.4741 8.73268 12.2974C8.90937 12.1207 9.14901 12.0214 9.39889 12.0214C9.64877 12.0214 9.88842 12.1207 10.0651 12.2974C10.2418 12.4741 10.3411 12.7137 10.3411 12.9636V14.8479H12.2254C12.3492 14.8479 12.4718 14.8724 12.5861 14.9199C12.7004 14.9674 12.8043 15.037 12.8916 15.1247C12.979 15.2124 13.0481 15.3166 13.0952 15.4311C13.1422 15.5456 13.1661 15.6683 13.1656 15.7921ZM18.8077 10.6052V18.6127C18.8061 19.8592 18.3102 21.0542 17.4288 21.9357C16.5474 22.8171 15.3523 23.313 14.1058 23.3146H4.70193C3.45555 23.313 2.26066 22.8173 1.37925 21.936C0.497838 21.0548 0.00183693 19.86 0 18.6136V5.44706C0.00157458 4.20052 0.49746 3.00548 1.3789 2.12404C2.26034 1.2426 3.45538 0.746711 4.70193 0.745137H8.94764C9.8125 0.743015 10.6692 0.912305 11.4682 1.24323C12.2673 1.57415 12.9928 2.06014 13.603 2.67311L16.8758 5.95187C17.4898 6.56104 17.9768 7.28602 18.3086 8.0848C18.6404 8.88357 18.8094 9.74025 18.8077 10.6052ZM12.274 4.00306C11.977 3.71602 11.6436 3.46927 11.2822 3.26916V7.32843C11.2822 7.57778 11.3813 7.81692 11.5576 7.99324C11.7339 8.16956 11.9731 8.26861 12.2224 8.26861H16.2847C16.0845 7.90707 15.8374 7.57359 15.5498 7.27686L12.274 4.00306ZM16.9283 10.6062C16.9283 10.4515 16.8986 10.3027 16.8837 10.15H12.2224C11.4741 10.15 10.7564 9.85271 10.2273 9.32357C9.69814 8.79442 9.40088 8.07675 9.40088 7.32843V2.66716C9.24814 2.65328 9.10335 2.62254 8.94467 2.62254H4.70193C3.95378 2.62359 3.23667 2.92173 2.7083 3.4514C2.17993 3.98108 1.88355 4.69891 1.88434 5.44706V18.6136C1.88434 19.362 2.18161 20.0796 2.71075 20.6088C3.2399 21.1379 3.95757 21.4352 4.70589 21.4352H14.1097C14.8581 21.4352 15.5757 21.1379 16.1049 20.6088C16.634 20.0796 16.9313 19.362 16.9313 18.6136L16.9283 10.6062Z" fill="#464646"/>
</svg>
