<svg width="19" height="23" viewBox="0 0 19 23" fill="none" xmlns="http://www.w3.org/2000/svg">
<path d="M17.0506 5.26291L13.736 1.94725C13.1197 1.32801 12.3867 0.837087 11.5795 0.502857C10.7723 0.168627 9.90689 -0.00227795 9.03323 2.29266e-05H4.75C3.49031 0.000314083 2.2823 0.500852 1.39156 1.39159C0.500829 2.28232 0.000291156 3.49033 0 4.75002V18.0478C0.000291156 19.3075 0.500829 20.5155 1.39156 21.4062C2.2823 22.297 3.49031 22.7975 4.75 22.7978H14.2489C15.5088 22.7978 16.7171 22.2974 17.608 21.4066C18.499 20.5159 18.9997 19.3077 19 18.0478V9.96458C19.0019 9.09095 18.8305 8.22562 18.4959 7.4186C18.1613 6.61159 17.6701 5.87891 17.0506 5.26291ZM15.7107 6.60279C16.0093 6.90025 16.2678 7.2355 16.4795 7.60002H12.3588C12.107 7.59944 11.8657 7.49916 11.6877 7.32113C11.5096 7.1431 11.4094 6.9018 11.4088 6.65002V2.52603C11.7748 2.73739 12.1116 2.99585 12.4104 3.29482L15.7206 6.61158L15.7107 6.60279ZM17.0978 18.0489C17.0963 18.8043 16.7956 19.5284 16.2614 20.0626C15.7273 20.5967 15.0032 20.8975 14.2478 20.8989H4.75C3.99439 20.8975 3.27015 20.5966 2.73596 20.0622C2.20176 19.5278 1.90116 18.8034 1.9 18.0478V4.75002C1.90145 3.9946 2.20218 3.27053 2.73635 2.73637C3.27051 2.20221 3.99458 1.90147 4.75 1.90002H9.03323C9.18869 1.89675 9.3442 1.90298 9.49889 1.91869V6.64892C9.50035 7.40434 9.80108 8.12841 10.3352 8.66257C10.8694 9.19673 11.5935 9.49747 12.3489 9.49892H17.0791C17.095 9.6536 17.1013 9.80912 17.0978 9.96458V18.0489ZM4.83237 12.3489H3.8C3.54822 12.3495 3.30692 12.4498 3.12889 12.6278C2.95085 12.8058 2.85058 13.0471 2.85 13.2989V17.5163C2.84956 17.5937 2.86449 17.6704 2.89392 17.742C2.92335 17.8137 2.96669 17.8787 3.02144 17.9335C3.07619 17.9882 3.14126 18.0316 3.21288 18.061C3.2845 18.0904 3.36124 18.1054 3.43867 18.1049C3.59453 18.1041 3.74375 18.0418 3.85396 17.9316C3.96417 17.8213 4.02647 17.6721 4.02734 17.5163V16.3576H4.82578C5.35736 16.3576 5.86717 16.1464 6.24305 15.7705C6.61894 15.3946 6.83011 14.8848 6.83011 14.3533C6.83011 13.8217 6.61894 13.3119 6.24305 12.936C5.86717 12.5601 5.35736 12.3489 4.82578 12.3489H4.83237ZM4.83237 15.1704H4.04711V13.5361H4.84555C5.06226 13.5361 5.27009 13.6222 5.42333 13.7755C5.57657 13.9287 5.66265 14.1365 5.66265 14.3533C5.66265 14.57 5.57657 14.7778 5.42333 14.931C5.27009 15.0843 5.06226 15.1704 4.84555 15.1704H4.83237ZM16.1643 12.9475C16.1647 13.0249 16.1498 13.1016 16.1203 13.1733C16.0909 13.2449 16.0476 13.3099 15.9928 13.3647C15.9381 13.4194 15.873 13.4628 15.8014 13.4922C15.7298 13.5217 15.653 13.5366 15.5756 13.5361H13.9732V14.619H15.1561C15.2335 14.6186 15.3102 14.6335 15.3818 14.663C15.4535 14.6924 15.5185 14.7357 15.5733 14.7905C15.628 14.8452 15.6714 14.9103 15.7008 14.9819C15.7302 15.0535 15.7452 15.1303 15.7447 15.2077C15.7439 15.3636 15.6816 15.5128 15.5714 15.623C15.4611 15.7332 15.3119 15.7955 15.1561 15.7964H13.9732V17.5064C13.9737 17.5838 13.9587 17.6605 13.9293 17.7322C13.8999 17.8038 13.8565 17.8688 13.8018 17.9236C13.747 17.9783 13.682 18.0217 13.6103 18.0511C13.5387 18.0805 13.462 18.0955 13.3846 18.095C13.2287 18.0942 13.0795 18.0319 12.9693 17.9217C12.859 17.8115 12.7968 17.6622 12.7959 17.5064V12.9376C12.7954 12.8602 12.8104 12.7834 12.8398 12.7118C12.8692 12.6402 12.9126 12.5751 12.9673 12.5204C13.0221 12.4656 13.0871 12.4223 13.1588 12.3928C13.2304 12.3634 13.3071 12.3485 13.3846 12.3489H15.5811C15.6585 12.3485 15.7353 12.3634 15.8069 12.3928C15.8785 12.4223 15.9436 12.4656 15.9983 12.5204C16.0531 12.5751 16.0964 12.6402 16.1258 12.7118C16.1553 12.7834 16.1702 12.8602 16.1698 12.9376L16.1643 12.9475ZM9.58126 12.3588H8.5489C8.29712 12.3594 8.05582 12.4597 7.87779 12.6377C7.69975 12.8157 7.59948 13.057 7.5989 13.3088V17.5261C7.59981 17.6006 7.61611 17.6741 7.64677 17.742C7.67743 17.8098 7.72179 17.8706 7.77707 17.9206C7.83235 17.9705 7.89735 18.0084 7.96799 18.032C8.03863 18.0556 8.11339 18.0644 8.18757 18.0577H9.57468C10.1097 18.0603 10.624 17.8509 11.005 17.4753C11.386 17.0996 11.6026 16.5884 11.6076 16.0534V14.362C11.6026 13.827 11.386 13.3158 11.005 12.9401C10.624 12.5645 10.1097 12.3551 9.57468 12.3577L9.58126 12.3588ZM10.4269 16.0545C10.4206 16.2741 10.3286 16.4826 10.1706 16.6353C10.0125 16.788 9.80102 16.8728 9.58126 16.8716H8.79271V13.546H9.59115C9.8109 13.5448 10.0224 13.6296 10.1805 13.7823C10.3385 13.935 10.4305 14.1435 10.4368 14.3631V16.0545H10.4269Z" fill="#464646"/>
</svg>
