<?xml version="1.0" encoding="utf-8"?>
<!-- Generator: Adobe Illustrator 27.3.1, SVG Export Plug-In . SVG Version: 6.00 Build 0)  -->
<svg version="1.1" id="Layer_1" xmlns="http://www.w3.org/2000/svg" xmlns:xlink="http://www.w3.org/1999/xlink" x="0px" y="0px"
	 viewBox="0 0 512 512" style="enable-background:new 0 0 512 512;" xml:space="preserve">
<style type="text/css">
	.st0{fill:#231F20;}
</style>
<path class="st0" d="M425.6,118.2l-74.5-74.5C323,15.6,285.4,0,245.5,0h-96.2C90.5,0,42.7,47.8,42.7,106.7v298.7
	c0,58.9,47.8,106.7,106.7,106.7h213.3c58.9,0,106.7-47.8,106.7-106.7V223.8C469.3,183.9,453.8,146.3,425.6,118.2z M395.5,148.3
	c6.8,6.8,12.6,14.3,17.3,22.4h-92.6c-11.7,0-21.3-9.6-21.3-21.3V56.7c8.1,4.7,15.6,10.5,22.4,17.3l74.5,74.5L395.5,148.3z
	 M426.7,405.3c0,35.2-28.8,64-64,64H149.3c-35.2,0-64-28.8-64-64V106.7c0-35.2,28.8-64,64-64h96.2c3.4,0,7,0,10.5,0.4v106.2
	c0,35.2,28.8,64,64,64h106.2c0.4,3.4,0.4,6.8,0.4,10.5V405.3z M151.3,277.3H128c-11.7,0-21.3,9.6-21.3,21.3v94.7
	c0,7.5,6,13.2,13.2,13.2s13.2-6,13.2-13.2v-26H151c25.2,0,45.7-20.3,45.7-45s-20.5-45-45.7-45L151.3,277.3z M151.3,340.7h-17.7V304
	h17.9c10.2,0,19,8.3,19,18.3c0,10-8.7,18.3-19,18.3L151.3,340.7z M405.8,290.8c0,7.5-6,13.2-13.2,13.2h-36.1v24.3h26.5
	c7.5,0,13.2,6,13.2,13.2c0,7.3-6,13.2-13.2,13.2h-26.5v38.4c0,7.5-6,13.2-13.2,13.2c-7.3,0-13.2-6-13.2-13.2V290.6
	c0-7.5,6-13.2,13.2-13.2h49.3c7.5,0,13.2,6,13.2,13.2L405.8,290.8z M257.9,277.5h-23.3c-11.7,0-21.3,9.6-21.3,21.3v94.7
	c0,7.5,6,11.9,13.2,11.9c7.3,0,31.1,0,31.1,0c25.2,0,45.7-20.3,45.7-45v-38c0-24.7-20.5-45-45.7-45H257.9z M276.9,360.5
	c0,10-8.7,18.3-19,18.3h-17.7v-74.7h17.9c10.2,0,19,8.3,19,18.3v38H276.9z"/>
</svg>
