<svg width="30" height="53" viewBox="0 0 30 53" fill="none" xmlns="http://www.w3.org/2000/svg">
<path d="M1.68741 25.0125L25.0172 1.68274C25.455 1.24531 26.0486 0.999723 26.6675 1C27.2864 1.00028 27.8798 1.2464 28.3173 1.68422C28.7547 2.12204 29.0003 2.71569 29 3.33458C28.9997 3.95348 28.7536 4.54691 28.3158 4.98434L6.63094 26.6692L28.3158 48.357C28.5324 48.5738 28.7042 48.8311 28.8213 49.1143C28.9385 49.3974 28.9987 49.7009 28.9985 50.0074C28.9984 50.3138 28.9379 50.6172 28.8205 50.9003C28.7031 51.1833 28.5311 51.4405 28.3143 51.6571C28.0975 51.8737 27.8402 52.0455 27.557 52.1626C27.2739 52.2798 26.9704 52.34 26.664 52.3398C26.3575 52.3397 26.0541 52.2792 25.771 52.1618C25.488 52.0444 25.2308 51.8724 25.0142 51.6556L1.68446 28.3259C1.46748 28.1092 1.29535 27.8519 1.1779 27.5686C1.06046 27.2854 1 26.9817 1 26.6751C1 26.3685 1.06046 26.0648 1.1779 25.7816C1.29535 25.4983 1.46748 25.241 1.68446 25.0243L1.68741 25.0125Z" fill="#181E47" stroke="#181E47" stroke-width="0.5"/>
</svg>
