<?xml version="1.0" encoding="utf-8"?>
<!-- Generator: Adobe Illustrator 25.4.1, SVG Export Plug-In . SVG Version: 6.00 Build 0)  -->
<svg version="1.1" id="Layer_1" xmlns="http://www.w3.org/2000/svg" xmlns:xlink="http://www.w3.org/1999/xlink" x="0px" y="0px"
	 viewBox="0 0 50 50" style="enable-background:new 0 0 50 50;" xml:space="preserve">
<g id="_1">
	<path d="M37.5,46.6H12.9c-3,0-5.4-2.4-5.4-5.4V8.8c0-3,2.4-5.4,5.4-5.4h16.1c0.4,0,0.8,0.2,1.1,0.5l12.2,12.2
		c0.3,0.3,0.5,0.7,0.5,1.1v24C42.9,44.2,40.5,46.6,37.5,46.6z M12.9,6.6c-1.2,0-2.2,1-2.2,2.2v32.4c0,1.2,1,2.2,2.2,2.2h24.6
		c1.2,0,2.2-1,2.2-2.2V17.9L28.4,6.6H12.9z"/>
	<path d="M41.3,18.9h-8.5c-3,0-5.4-2.4-5.4-5.4V5c0-0.9,0.7-1.6,1.6-1.6c0.9,0,1.6,0.7,1.6,1.6v8.5c0,1.2,1,2.2,2.2,2.2h8.5
		c0.9,0,1.6,0.7,1.6,1.6S42.2,18.9,41.3,18.9L41.3,18.9z"/>
	<path d="M13.7,27c0-0.4,0.3-0.7,0.8-0.7h2.9c1.9,0,3.4,0.9,3.4,3.3v0.1c0,2.4-1.5,3.3-3.5,3.3h-1.4V36c0,0.5-0.6,0.7-1.1,0.7
		c-0.6,0-1.1-0.2-1.1-0.7V27z M15.9,28.2v3h1.4c0.8,0,1.3-0.5,1.3-1.4v-0.2c0-1-0.5-1.4-1.3-1.4H15.9z"/>
	<path d="M25.3,26.3c2,0,3.5,0.9,3.5,3.4v3.7c0,2.4-1.5,3.4-3.5,3.4h-2.5c-0.6,0-1-0.3-1-0.7V27c0-0.4,0.4-0.7,1-0.7L25.3,26.3z
		 M24,28.2v6.5h1.3c0.8,0,1.3-0.5,1.3-1.4v-3.7c0-1-0.5-1.4-1.3-1.4H24z"/>
	<path d="M30.2,27c0-0.5,0.5-0.7,1-0.7h4.9c0.5,0,0.7,0.5,0.7,1c0,0.5-0.2,1-0.7,1h-3.7v2.4h2.1c0.4,0,0.7,0.4,0.7,0.9
		c0,0.4-0.2,0.8-0.7,0.8h-2.1V36c0,0.5-0.6,0.7-1.1,0.7s-1.1-0.2-1.1-0.7L30.2,27z"/>
</g>
</svg>
