<svg width="30" height="53" viewBox="0 0 30 53" fill="none" xmlns="http://www.w3.org/2000/svg">
<path d="M28.3126 25.0125L4.98285 1.68274C4.54503 1.24531 3.95137 0.999723 3.33248 1C2.71359 1.00028 2.12015 1.2464 1.68272 1.68422C1.24529 2.12204 0.999723 2.71569 1 3.33458C1.00028 3.95348 1.24639 4.54691 1.68421 4.98434L23.3691 26.6692L1.68421 48.357C1.46762 48.5738 1.29584 48.8311 1.17869 49.1143C1.06155 49.3974 1.00133 49.7009 1.00146 50.0074C1.0016 50.3138 1.0621 50.6172 1.1795 50.9003C1.2969 51.1833 1.46889 51.4405 1.68567 51.6571C1.90246 51.8737 2.1598 52.0455 2.44297 52.1626C2.72614 52.2798 3.0296 52.34 3.33604 52.3398C3.64249 52.3397 3.94591 52.2792 4.22897 52.1618C4.51204 52.0444 4.76921 51.8724 4.9858 51.6556L28.3155 28.3259C28.5325 28.1092 28.7047 27.8519 28.8221 27.5686C28.9395 27.2854 29 26.9817 29 26.6751C29 26.3685 28.9395 26.0648 28.8221 25.7816C28.7047 25.4983 28.5325 25.241 28.3155 25.0243L28.3126 25.0125Z" fill="#181E47" stroke="#181E47" stroke-width="0.5"/>
</svg>
