<svg xmlns="http://www.w3.org/2000/svg" xmlns:xlink="http://www.w3.org/1999/xlink" viewBox="0 0 399.52 150.34">
  <defs>
    <style>
      .cls-1 {
        fill: #6e609e;
      }

      .cls-2 {
        fill: #f3f4f4;
      }

      .cls-3 {
        fill: #695c97;
      }

      .cls-4 {
        fill: #221f1f;
      }

      .cls-5 {
        fill: #d6a828;
      }

      .cls-6 {
        fill: #005499;
      }

      .cls-7 {
        fill: #201e1e;
      }

      .cls-8 {
        fill: #cca126;
      }

      .cls-9 {
        fill: #005092;
      }

      .cls-10 {
        fill: url(#linear-gradient);
      }

      .cls-11 {
        fill: url(#linear-gradient-2);
      }

      .cls-12 {
        fill: url(#linear-gradient-3);
      }
    </style>
    <linearGradient id="linear-gradient" x1="-118.43" y1="-118.88" x2="-116.29" y2="-118.88" gradientTransform="matrix(0, -12.77, -12.77, 0, -1413.97, -1466.38)" gradientUnits="userSpaceOnUse">
      <stop offset="0" stop-color="#cca126"/>
      <stop offset="0.8" stop-color="#cca126"/>
      <stop offset="0.89" stop-color="#ba9227"/>
      <stop offset="1" stop-color="#a98528"/>
    </linearGradient>
    <linearGradient id="linear-gradient-2" x1="-149.91" y1="-127.31" x2="-147.76" y2="-127.31" gradientTransform="matrix(12.77, 0, 0, -12.77, 1985.6, -1593.43)" gradientUnits="userSpaceOnUse">
      <stop offset="0" stop-color="#005092"/>
      <stop offset="0.8" stop-color="#005092"/>
      <stop offset="0.87" stop-color="#084780"/>
      <stop offset="1" stop-color="#173862"/>
    </linearGradient>
    <linearGradient id="linear-gradient-3" x1="-141.47" y1="-158.79" x2="-139.33" y2="-158.79" gradientTransform="matrix(0, 12.77, 12.77, 0, 2112.64, 1806.12)" xlink:href="#linear-gradient"/>
  </defs>
  <g id="Layer_2" data-name="Layer 2">
    <g id="Layer_1-2" data-name="Layer 1">
      <g>
        <g>
          <path class="cls-1" d="M192.32,100.93l.19.5h0c-.35.16-8.92,3.8-8.95,25.66,0,.66,0,1.34,0,2a.53.53,0,0,1-.44.54.53.53,0,0,1-.6-.35,49,49,0,0,1-2.39-14.27,23.6,23.6,0,0,1,2-10.17,14.34,14.34,0,0,1,8-7.35l.19.5.09.53s-.21,0-.6.12A36.35,36.35,0,0,0,168,114.17a.54.54,0,0,1-1-.3,25.83,25.83,0,0,1,2.49-10c2.42-5,7.39-10.06,17-10a32.56,32.56,0,0,1,4.74.37l-.08.53-.45.29-.05-.07A17,17,0,0,0,177,87.86a19.46,19.46,0,0,0-4.86.64.54.54,0,0,1-.48-.93s5-4.27,10.82-4.29c3.38,0,7.05,1.54,9.89,6.15l-.46.29-.51-.16a15.9,15.9,0,0,1,2.23-4.27A9.71,9.71,0,0,1,201.52,81a11,11,0,0,1,2.52.31.54.54,0,0,1,.1,1l-.35.18c-1.64.86-8.36,4.89-10,12.4l-.52-.12-.24-.48A24.79,24.79,0,0,1,203,92a16.71,16.71,0,0,1,14.48,7.83.54.54,0,0,1,0,.65.54.54,0,0,1-.64.13s-.4-.2-1.12-.51a32.44,32.44,0,0,0-11.92-2.77A12,12,0,0,0,196,99.8l-.34-.42.13-.52a20.91,20.91,0,0,1,7.68,4.33c3.83,3.33,7.65,9.08,7.65,18.43,0,.57,0,1.16,0,1.76a.54.54,0,0,1-1.07,0v-.13c-.13-1.44-1.57-13.77-17.86-21.83l.24-.48.19.5-.19-.5.24-.48c17.81,8.8,18.47,22.78,18.46,22.88l-.53,0-.54,0c0-.58,0-1.14,0-1.7,0-9.06-3.64-14.44-7.27-17.62a21,21,0,0,0-5-3.25,16.37,16.37,0,0,0-1.64-.66l-.45-.15-.15,0a.56.56,0,0,1-.39-.4.53.53,0,0,1,.19-.53,13.11,13.11,0,0,1,8.51-2.69c6.78,0,13.48,3.39,13.52,3.4l-.24.48-.44.3A15.62,15.62,0,0,0,203,93.1a23,23,0,0,0-6.73,1.07,21.51,21.51,0,0,0-2,.73l-.55.24-.18.08-.57,0a.56.56,0,0,1-.2-.54c2-9.2,10.89-13.29,10.93-13.32l.23.48-.13.53a9.44,9.44,0,0,0-2.27-.28,8.62,8.62,0,0,0-7,3.89,14.54,14.54,0,0,0-1.58,2.72c-.17.38-.29.69-.37.9s-.11.32-.11.32a.55.55,0,0,1-.45.38.52.52,0,0,1-.52-.25c-2.71-4.35-5.92-5.63-9-5.65a15.3,15.3,0,0,0-7.06,2,22.9,22.9,0,0,0-2.25,1.4l-.61.45-.21.17L172,88l-.14-.52a20.71,20.71,0,0,1,5.13-.68A17.47,17.47,0,0,1,188,90.61a17,17,0,0,1,3.65,3.85V95a.52.52,0,0,1-.53.23,31.81,31.81,0,0,0-4.58-.35c-9.18,0-13.66,4.7-16,9.45a24.25,24.25,0,0,0-2.06,6.55c-.15.9-.23,1.64-.27,2.16s0,.8,0,.8h-.54l-.45-.29A37.15,37.15,0,0,1,190.3,97.5a.54.54,0,0,1,.28,1,13.2,13.2,0,0,0-7.44,6.82,22.28,22.28,0,0,0-1.91,9.7,44.64,44.64,0,0,0,1.16,9.69c.29,1.29.58,2.35.8,3.09s.36,1.14.36,1.14l-.51.18h-.53c0-.7,0-1.39,0-2.06,0-11.43,2.34-18.07,4.73-21.89s4.83-4.75,4.92-4.78l.43,0-.24.48"/>
          <path class="cls-1" d="M192.86,101.31V149a.54.54,0,0,1-1.08,0V101.31a.54.54,0,0,1,1.08,0"/>
          <path class="cls-1" d="M298.21,149.08V94.22a.8.8,0,0,1,.24-.57.82.82,0,0,1,.57-.24h39.06a.82.82,0,0,1,.57.24.79.79,0,0,1,.23.57v54.86a.81.81,0,1,1-1.61,0V95H299.82v54.06a.81.81,0,1,1-1.61,0"/>
          <path class="cls-1" d="M360.38,149.08v-54a.81.81,0,0,1,.23-.57.82.82,0,0,1,.57-.24h37.54a.82.82,0,0,1,.57.24.81.81,0,0,1,.23.57v54.11a.8.8,0,1,1-1.6,0V95.93H362v53.15a.8.8,0,1,1-1.6,0"/>
          <path class="cls-1" d="M283.17,149.24V129.32h.8l-.8,0v-.06a19.55,19.55,0,0,1,1.07-6.17,9.84,9.84,0,0,1,2.52-4,7.12,7.12,0,0,1,5-1.86l.18,0a10.31,10.31,0,0,1,3.39,1.66,10.49,10.49,0,0,1,4.22,7.06.8.8,0,1,1-1.59.25,8.87,8.87,0,0,0-3.58-6,9.19,9.19,0,0,0-2-1.11c-.26-.1-.47-.18-.62-.22l-.16,0h0l.18-.78v.8a5.55,5.55,0,0,0-3.88,1.43,10,10,0,0,0-2.64,5.26,18.71,18.71,0,0,0-.43,3.71v0h0v19.92a.8.8,0,0,1-1.6,0"/>
          <path class="cls-1" d="M306.88,149.24V117.38a29.53,29.53,0,0,1,2-7.22,15.34,15.34,0,0,1,3.33-5.07,8.29,8.29,0,0,1,5.83-2.41,9,9,0,0,1,5.88,2.18,16.83,16.83,0,0,1,4.64,7.52,22.17,22.17,0,0,1,1.22,6.15v30.55a.81.81,0,1,1-1.61,0V118.53a22.74,22.74,0,0,0-2.14-8.14,13,13,0,0,0-3.15-4.3,7.32,7.32,0,0,0-4.84-1.8,6.65,6.65,0,0,0-4.72,2,16.62,16.62,0,0,0-3.86,7,29.72,29.72,0,0,0-.76,3c-.07.39-.12.7-.16.92s0,.32,0,.32l-.8-.1h.8v31.77a.8.8,0,0,1-1.6,0"/>
          <path class="cls-1" d="M337.3,125.16a16.15,16.15,0,0,1,1.71-3.85,9.92,9.92,0,0,1,2.36-2.73,6,6,0,0,1,3.7-1.31,6.43,6.43,0,0,1,3.77,1.25,11,11,0,0,1,3.48,4.59,12.79,12.79,0,0,1,1.15,4.85v21.12a.81.81,0,1,1-1.61,0V128a12.09,12.09,0,0,0-1.8-5.72,8.14,8.14,0,0,0-2.16-2.41,4.72,4.72,0,0,0-2.83-1,4.43,4.43,0,0,0-2.72,1,9.8,9.8,0,0,0-2.66,3.55,15.86,15.86,0,0,0-.64,1.56c-.07.19-.12.35-.15.46l0,.15a.79.79,0,0,1-1,.57.81.81,0,0,1-.57-1"/>
          <path class="cls-1" d="M275.92,100.25h22.79a.81.81,0,1,1,0,1.61H275.92a.81.81,0,1,1,0-1.61"/>
          <path class="cls-1" d="M338.08,100.25h22.64a.81.81,0,1,1,0,1.61H338.08a.81.81,0,1,1,0-1.61"/>
          <path class="cls-1" d="M271.05,120.45H243.74a.81.81,0,1,1,0-1.61h27.31a.81.81,0,1,1,0,1.61"/>
          <path class="cls-1" d="M271.05,111.63H243a.81.81,0,1,1,0-1.61h28.07a.81.81,0,1,1,0,1.61"/>
          <path class="cls-1" d="M248.3,106.79V106h2.91v-3.47H249.1v4.28h-.8v0h-.8v-5.08a.79.79,0,0,1,.8-.8H252a.79.79,0,0,1,.8.8v5.08a.79.79,0,0,1-.8.8H248.3a.79.79,0,0,1-.8-.8h.8"/>
          <path class="cls-1" d="M371.41,106.79V106h2.9v-3.47h-2.1v4.28h-.8v0h-.81v-5.08a.82.82,0,0,1,.24-.57.79.79,0,0,1,.57-.23h3.71a.79.79,0,0,1,.8.8v5.08a.79.79,0,0,1-.8.8h-3.71a.79.79,0,0,1-.57-.23.82.82,0,0,1-.24-.57h.81"/>
          <path class="cls-1" d="M261.67,106.79V106h2.91v-3.47h-2.1v4.28h-.81v0h-.8v-5.08a.79.79,0,0,1,.8-.8h3.71a.79.79,0,0,1,.57.23.82.82,0,0,1,.24.57v5.08a.82.82,0,0,1-.24.57.79.79,0,0,1-.57.23h-3.71a.79.79,0,0,1-.8-.8h.8"/>
          <path class="cls-1" d="M384.78,106.79V106h2.91v-3.47h-2.1v4.28h-.81v0H384v-5.08a.79.79,0,0,1,.8-.8h3.71a.81.81,0,0,1,.57.23.82.82,0,0,1,.24.57v5.08a.82.82,0,0,1-.24.57.81.81,0,0,1-.57.23h-3.71a.79.79,0,0,1-.8-.8h.8"/>
          <path class="cls-1" d="M364.83,110.28h29.63a.81.81,0,1,1,0,1.61H364.83a.81.81,0,1,1,0-1.61"/>
          <path class="cls-1" d="M364.83,119.6h29.63a.81.81,0,1,1,0,1.61H364.83a.81.81,0,1,1,0-1.61"/>
          <path class="cls-1" d="M276.26,110h21.95a.81.81,0,1,1,0,1.61H276.26a.81.81,0,0,1,0-1.61"/>
          <path class="cls-1" d="M338.58,110h21.95a.81.81,0,0,1,0,1.61H338.58a.81.81,0,1,1,0-1.61"/>
          <path class="cls-1" d="M278.44,99v1.63a.81.81,0,1,1-1.61,0V99a.81.81,0,0,1,1.61,0"/>
          <path class="cls-1" d="M281,102.19v1.63a.81.81,0,1,1-1.61,0v-1.63a.81.81,0,0,1,1.61,0"/>
          <path class="cls-1" d="M342.18,99v1.63a.81.81,0,1,1-1.61,0V99a.81.81,0,0,1,1.61,0"/>
          <path class="cls-1" d="M344.33,102.19v1.63a.81.81,0,1,1-1.61,0v-1.63a.81.81,0,0,1,1.61,0"/>
          <path class="cls-1" d="M363.67,92.89v1.63a.81.81,0,1,1-1.61,0V92.89a.81.81,0,0,1,1.61,0"/>
          <path class="cls-1" d="M365.83,96.11v1.63a.81.81,0,0,1-.81.81.8.8,0,0,1-.8-.81V96.11a.8.8,0,0,1,.8-.8.81.81,0,0,1,.81.8"/>
          <path class="cls-1" d="M383.91,92.89v1.63a.8.8,0,1,1-1.6,0V92.89a.8.8,0,1,1,1.6,0"/>
          <path class="cls-1" d="M386.07,96.11v1.63a.81.81,0,1,1-1.61,0V96.11a.81.81,0,0,1,1.61,0"/>
          <path class="cls-1" d="M284,99v1.63a.81.81,0,1,1-1.61,0V99A.81.81,0,0,1,284,99"/>
          <path class="cls-1" d="M286.58,102.19v1.63a.81.81,0,1,1-1.61,0v-1.63a.81.81,0,0,1,1.61,0"/>
          <path class="cls-1" d="M347.23,99v1.63a.8.8,0,1,1-1.6,0V99a.8.8,0,0,1,1.6,0"/>
          <path class="cls-1" d="M349.39,102.19v1.63a.81.81,0,1,1-1.61,0v-1.63a.81.81,0,0,1,1.61,0"/>
          <path class="cls-1" d="M368.73,92.89v1.63a.81.81,0,1,1-1.61,0V92.89a.81.81,0,0,1,1.61,0"/>
          <path class="cls-1" d="M370.88,96.11v1.63a.8.8,0,1,1-1.6,0V96.11a.8.8,0,0,1,1.6,0"/>
          <path class="cls-1" d="M389,92.89v1.63a.81.81,0,1,1-1.61,0V92.89a.81.81,0,0,1,1.61,0"/>
          <path class="cls-1" d="M391.13,96.11v1.63a.81.81,0,1,1-1.61,0V96.11a.81.81,0,0,1,1.61,0"/>
          <path class="cls-1" d="M289.62,99v1.63a.81.81,0,1,1-1.61,0V99a.81.81,0,0,1,1.61,0"/>
          <path class="cls-1" d="M292.18,102.19v1.63a.81.81,0,1,1-1.61,0v-1.63a.81.81,0,0,1,1.61,0"/>
          <path class="cls-1" d="M352.29,99v1.63a.8.8,0,1,1-1.6,0V99a.8.8,0,0,1,1.6,0"/>
          <path class="cls-1" d="M354.45,102.19v1.63a.81.81,0,1,1-1.61,0v-1.63a.81.81,0,0,1,1.61,0"/>
          <path class="cls-1" d="M373.79,92.89v1.63a.81.81,0,1,1-1.61,0V92.89a.81.81,0,0,1,1.61,0"/>
          <path class="cls-1" d="M375.94,96.11v1.63a.81.81,0,1,1-1.61,0V96.11a.81.81,0,0,1,1.61,0"/>
          <path class="cls-1" d="M394,92.89v1.63a.81.81,0,1,1-1.61,0V92.89a.81.81,0,0,1,1.61,0"/>
          <path class="cls-1" d="M396.19,96.11v1.63a.81.81,0,1,1-1.61,0V96.11a.81.81,0,0,1,1.61,0"/>
          <path class="cls-1" d="M295.22,99v1.63a.81.81,0,0,1-.81.81.8.8,0,0,1-.8-.81V99a.8.8,0,0,1,.8-.8.81.81,0,0,1,.81.8"/>
          <path class="cls-1" d="M297.77,102.19v1.63a.81.81,0,1,1-1.61,0v-1.63a.81.81,0,0,1,1.61,0"/>
          <path class="cls-1" d="M357.35,99v1.63a.81.81,0,1,1-1.61,0V99a.81.81,0,0,1,1.61,0"/>
          <path class="cls-1" d="M359.51,102.19v1.63a.81.81,0,1,1-1.61,0v-1.63a.81.81,0,0,1,1.61,0"/>
          <path class="cls-1" d="M378.85,92.89v1.63a.81.81,0,1,1-1.61,0V92.89a.81.81,0,0,1,1.61,0"/>
          <path class="cls-1" d="M381,96.11v1.63a.81.81,0,1,1-1.61,0V96.11a.81.81,0,0,1,1.61,0"/>
          <path class="cls-1" d="M399.09,92.89v1.63a.81.81,0,1,1-1.61,0V92.89a.81.81,0,0,1,1.61,0"/>
          <path class="cls-1" d="M302.62,94.82v3.29a.81.81,0,0,1-1.61,0V94.82a.81.81,0,0,1,1.61,0"/>
          <path class="cls-1" d="M306.31,94.82v3.29a.81.81,0,0,1-1.61,0V94.82a.81.81,0,0,1,1.61,0"/>
          <path class="cls-1" d="M310,94.82v3.29a.81.81,0,0,1-1.61,0V94.82a.81.81,0,0,1,1.61,0"/>
          <path class="cls-1" d="M313.7,94.82v3.29a.81.81,0,0,1-1.61,0V94.82a.81.81,0,0,1,1.61,0"/>
          <path class="cls-1" d="M317.4,94.82v3.29a.81.81,0,0,1-1.61,0V94.82a.81.81,0,0,1,1.61,0"/>
          <path class="cls-1" d="M321.09,94.82v3.29a.81.81,0,0,1-1.61,0V94.82a.81.81,0,0,1,1.61,0"/>
          <path class="cls-1" d="M324.79,94.82v3.29a.81.81,0,0,1-1.61,0V94.82a.81.81,0,0,1,1.61,0"/>
          <path class="cls-1" d="M328.48,94.82v3.29a.81.81,0,0,1-1.61,0V94.82a.81.81,0,0,1,1.61,0"/>
          <path class="cls-1" d="M332.17,94.82v3.29a.8.8,0,1,1-1.6,0V94.82a.8.8,0,0,1,1.6,0"/>
          <path class="cls-1" d="M335.87,94.82v3.29a.81.81,0,0,1-1.61,0V94.82a.81.81,0,0,1,1.61,0"/>
          <path class="cls-1" d="M274.4,149.42V96.54H242.26v53a.8.8,0,1,1-1.6,0V95.74a.79.79,0,0,1,.23-.57.82.82,0,0,1,.57-.24H275.2a.82.82,0,0,1,.57.24.79.79,0,0,1,.23.57v53.68a.8.8,0,0,1-1.6,0"/>
          <path class="cls-2" d="M291.62,118.88a5.54,5.54,0,0,0-3.78,1.43,10,10,0,0,0-2.64,5.26,18.71,18.71,0,0,0-.43,3.71v0h0v19.45h13.44v-22a.78.78,0,0,1-.29-.5,8.87,8.87,0,0,0-3.58-6,9.19,9.19,0,0,0-2-1.11c-.26-.1-.47-.18-.62-.22l-.12,0"/>
          <path class="cls-2" d="M345.07,118.88a4.43,4.43,0,0,0-2.72,1,9.8,9.8,0,0,0-2.66,3.55,15.86,15.86,0,0,0-.64,1.56c-.07.19-.12.35-.15.46l0,.06v23.28h13V128a12.09,12.09,0,0,0-1.8-5.72,8.14,8.14,0,0,0-2.16-2.41,4.72,4.72,0,0,0-2.83-1"/>
          <path class="cls-2" d="M360.38,111.63h-21.5v9.88a1.37,1.37,0,0,1,.13-.2,9.92,9.92,0,0,1,2.36-2.73,6,6,0,0,1,3.69-1.31h0a6.38,6.38,0,0,1,3.76,1.25,11,11,0,0,1,3.48,4.59,12.79,12.79,0,0,1,1.15,4.85v20.81h6.91V111.63"/>
          <path class="cls-2" d="M276,111.59v37.18h7.17V129.28a19.55,19.55,0,0,1,1.07-6.17,9.84,9.84,0,0,1,2.52-4,7.11,7.11,0,0,1,4.94-1.86h0l.18,0a10.62,10.62,0,0,1,6.31,4.93V111.63H276.26a.78.78,0,0,1-.26,0"/>
          <path class="cls-2" d="M318,104.29a6.65,6.65,0,0,0-4.72,2,16.62,16.62,0,0,0-3.86,7,29.72,29.72,0,0,0-.76,3c-.07.39-.12.7-.16.92s0,.23,0,.27v31.25h19.67V118.53a22.74,22.74,0,0,0-2.14-8.14,13,13,0,0,0-3.15-4.3,7.32,7.32,0,0,0-4.84-1.8"/>
          <polyline class="cls-2" points="251.21 102.51 249.1 102.51 249.1 105.98 251.21 105.98 251.21 102.51"/>
          <polyline class="cls-2" points="264.58 102.51 262.48 102.51 262.48 105.98 264.58 105.98 264.58 102.51"/>
          <polyline class="cls-2" points="374.31 102.51 372.21 102.51 372.21 105.98 374.31 105.98 374.31 102.51"/>
          <polyline class="cls-2" points="387.69 102.51 385.58 102.51 385.58 105.98 387.69 105.98 387.69 102.51"/>
          <path class="cls-2" d="M298.21,101.86h-.51a.93.93,0,0,1,.07.33v1.63a.81.81,0,1,1-1.61,0v-1.63a.93.93,0,0,1,.07-.33H292.1a.76.76,0,0,1,.08.33v1.63a.81.81,0,1,1-1.61,0v-1.63a.75.75,0,0,1,.07-.33h-4.13a.75.75,0,0,1,.07.33v1.63a.81.81,0,1,1-1.61,0v-1.63a.76.76,0,0,1,.08-.33h-4.13a.93.93,0,0,1,.07.33v1.63a.81.81,0,1,1-1.61,0v-1.63a.93.93,0,0,1,.07-.33H276v8.21a.8.8,0,0,1,.26,0h21.95v-8.16"/>
          <path class="cls-2" d="M360.38,101.86h-.94a.93.93,0,0,1,.07.33v1.63a.81.81,0,1,1-1.61,0v-1.63a.93.93,0,0,1,.07-.33h-3.59a.93.93,0,0,1,.07.33v1.63a.81.81,0,1,1-1.61,0v-1.63a.93.93,0,0,1,.07-.33h-3.59a.93.93,0,0,1,.07.33v1.63a.81.81,0,1,1-1.61,0v-1.63a.93.93,0,0,1,.07-.33h-3.59a.75.75,0,0,1,.07.33v1.63a.81.81,0,1,1-1.61,0v-1.63a.76.76,0,0,1,.08-.33h-3.92V110h21.5v-8.16"/>
          <path class="cls-2" d="M243.74,120.45a.81.81,0,1,1,0-1.61h27.31a.81.81,0,1,1,0,1.61H243.74"/>
          <path class="cls-2" d="M247.5,106.79v-5.08a.79.79,0,0,1,.8-.8H252a.79.79,0,0,1,.8.8v5.08a.79.79,0,0,1-.8.8H248.3a.79.79,0,0,1-.8-.8h0"/>
          <path class="cls-2" d="M260.87,106.79v-5.08a.79.79,0,0,1,.8-.8h3.71a.79.79,0,0,1,.57.23.82.82,0,0,1,.24.57v5.08a.82.82,0,0,1-.24.57.79.79,0,0,1-.57.23h-3.71a.79.79,0,0,1-.8-.8h0"/>
          <path class="cls-2" d="M274.4,96.54H242.26v13.92A.82.82,0,0,1,243,110h28.07a.81.81,0,1,1,0,1.61H243a.83.83,0,0,1-.72-.43v37.57H274.4V96.54"/>
          <path class="cls-2" d="M364.83,121.21a.81.81,0,1,1,0-1.61h29.63a.81.81,0,1,1,0,1.61H364.83"/>
          <path class="cls-2" d="M364.83,111.89a.81.81,0,1,1,0-1.61h29.63a.81.81,0,1,1,0,1.61H364.83"/>
          <path class="cls-2" d="M370.6,106.79v-5.08a.82.82,0,0,1,.24-.57.79.79,0,0,1,.57-.23h3.71a.79.79,0,0,1,.8.8v5.08a.79.79,0,0,1-.8.8h-3.71a.79.79,0,0,1-.57-.23.82.82,0,0,1-.24-.57h0"/>
          <path class="cls-2" d="M384,106.79v-5.08a.79.79,0,0,1,.8-.8h3.71a.81.81,0,0,1,.57.23.82.82,0,0,1,.24.57v5.08a.82.82,0,0,1-.24.57.81.81,0,0,1-.57.23h-3.71a.79.79,0,0,1-.8-.8h0"/>
          <path class="cls-2" d="M397.92,95.93h-1.75a1.1,1.1,0,0,1,0,.18v1.63a.81.81,0,1,1-1.61,0V96.11a1.1,1.1,0,0,1,0-.18h-3.49a1.1,1.1,0,0,1,0,.18v1.63a.81.81,0,1,1-1.61,0V96.11a1.1,1.1,0,0,1,0-.18h-3.49a1.1,1.1,0,0,1,0,.18v1.63a.81.81,0,1,1-1.61,0V96.11a1.1,1.1,0,0,1,0-.18H381a1.1,1.1,0,0,1,0,.18v1.63a.81.81,0,1,1-1.61,0V96.11a1.1,1.1,0,0,1,0-.18h-3.49a.55.55,0,0,1,0,.18v1.63a.81.81,0,1,1-1.61,0V96.11a1.1,1.1,0,0,1,0-.18h-3.49a.55.55,0,0,1,0,.18v1.63a.8.8,0,1,1-1.6,0V96.11a.55.55,0,0,1,0-.18h-3.5a.57.57,0,0,1,0,.18v1.63a.81.81,0,0,1-.81.81.8.8,0,0,1-.8-.81V96.11a.55.55,0,0,1,0-.18H362v52.84h35.94V95.93"/>
          <path class="cls-2" d="M337.27,95h-1.4v3.09a.81.81,0,0,1-1.61,0V95h-2.09v3.09a.8.8,0,1,1-1.6,0V95h-2.09v3.09a.81.81,0,0,1-1.61,0V95h-2.08v3.09a.81.81,0,0,1-1.61,0V95h-2.09v3.09a.81.81,0,0,1-1.61,0V95H317.4v3.09a.81.81,0,0,1-1.61,0V95H313.7v3.09a.81.81,0,0,1-1.61,0V95H310v3.09a.81.81,0,0,1-1.61,0V95h-2.09v3.09a.81.81,0,0,1-1.61,0V95h-2.08v3.09a.81.81,0,0,1-1.61,0V95h-1.19v53.75h7.06V117.38a29.53,29.53,0,0,1,2-7.22,15.34,15.34,0,0,1,3.33-5.07,8.26,8.26,0,0,1,5.81-2.41h0a8.91,8.91,0,0,1,5.87,2.18,16.83,16.83,0,0,1,4.64,7.52,22.17,22.17,0,0,1,1.22,6.15v30.24h7.51V95"/>
          <path class="cls-3" d="M191.93,90.25H192a.55.55,0,0,0,.45-.38s0-.11.11-.32.2-.52.37-.9a14.54,14.54,0,0,1,1.58-2.72,8.62,8.62,0,0,1,7-3.89l.79,0c-2.57,1.57-8,5.6-9.55,12.56a.56.56,0,0,0,.2.54l.57,0,.18-.08.55-.24a21.51,21.51,0,0,1,2-.73A23,23,0,0,1,203,93.1a15.42,15.42,0,0,1,12.38,5.75,32.75,32.75,0,0,0-11.63-2.57A13.11,13.11,0,0,0,195.27,99a.53.53,0,0,0-.19.53.56.56,0,0,0,.39.4l.15,0,.45.15a16.37,16.37,0,0,1,1.64.66,21,21,0,0,1,5,3.25,21.31,21.31,0,0,1,7.08,14.15c-1.81-4.9-6.27-12.28-17.24-17.7h0l-.43,0c-.09,0-2.52,1-4.92,4.78-2.25,3.6-4.47,9.73-4.71,20,0-.16-.07-.32-.11-.49a44.64,44.64,0,0,1-1.16-9.69,22.28,22.28,0,0,1,1.91-9.7,13.2,13.2,0,0,1,7.44-6.82.54.54,0,0,0-.19-1h-.09a37.19,37.19,0,0,0-22,14.4c0-.3.09-.63.15-1a24.25,24.25,0,0,1,2.06-6.55c2.35-4.75,6.83-9.44,16-9.45a31.81,31.81,0,0,1,4.58.35h.08a.54.54,0,0,0,.45-.24v-.58A17,17,0,0,0,188,90.61,17.46,17.46,0,0,0,177,86.78h0a20,20,0,0,0-2.61.18c.31-.19.66-.39,1-.59a15.29,15.29,0,0,1,7.05-2h0c3.06,0,6.27,1.3,9,5.65a.53.53,0,0,0,.45.25M201.52,81a9.71,9.71,0,0,0-7.87,4.33,16.09,16.09,0,0,0-1.84,3.25c-2.74-3.91-6.12-5.26-9.27-5.26h0c-5.81,0-10.77,4.27-10.82,4.29a.54.54,0,0,0,.34,1l.14,0a19.46,19.46,0,0,1,4.86-.64h0A16.9,16.9,0,0,1,190,94.05a30.54,30.54,0,0,0-3.47-.21h-.06c-9.54,0-14.49,5.06-16.91,10a25.83,25.83,0,0,0-2.49,10,.54.54,0,0,0,.39.52.4.4,0,0,0,.15,0,.55.55,0,0,0,.45-.25,36.33,36.33,0,0,1,18.19-14.4,14.27,14.27,0,0,0-4.05,5.11,23.6,23.6,0,0,0-2,10.17,49,49,0,0,0,2.39,14.27.53.53,0,0,0,.5.36h.1a.53.53,0,0,0,.44-.54c0-.69,0-1.37,0-2,0-18.41,6.11-23.89,8.23-25.27v-.52a.54.54,0,0,1,1.08,0v.49c15.55,8.07,16.95,20,17.08,21.44v.13a.54.54,0,0,0,1.07,0c0-.6,0-1.19,0-1.76,0-9.35-3.82-15.1-7.65-18.43a21.73,21.73,0,0,0-6.66-4,12.61,12.61,0,0,1,7-1.84h0a32.46,32.46,0,0,1,11.9,2.77c.72.31,1.12.51,1.12.51a.69.69,0,0,0,.24,0,.52.52,0,0,0,.4-.18.54.54,0,0,0,0-.65A16.7,16.7,0,0,0,203.08,92H203a24.7,24.7,0,0,0-9,1.79c2-6.84,8.16-10.54,9.72-11.36l.35-.18a.54.54,0,0,0-.1-1,11,11,0,0,0-2.52-.31"/>
          <path class="cls-3" d="M192.32,100.78a.54.54,0,0,0-.54.53v47.46h1.08V101.31a.54.54,0,0,0-.54-.53"/>
          <path class="cls-3" d="M337.27,125.41v23.36h1.61V125.49l0,.09a.8.8,0,0,1-.77.6.76.76,0,0,1-.21,0,.81.81,0,0,1-.6-.74m0-24.32v24.25l0-.18a16.1,16.1,0,0,1,1.58-3.65v-9.88h-.3a.81.81,0,1,1,0-1.61h.3v-8.16h-.8a.81.81,0,0,1-.81-.77m.81-7.68H299a.82.82,0,0,0-.57.24.8.8,0,0,0-.24.57v6h.5a.81.81,0,1,1,0,1.61h-.5V110a.81.81,0,1,1,0,1.61v10.59a11.13,11.13,0,0,1,1.3,3.79.8.8,0,0,1-.67.92h-.13a.83.83,0,0,1-.5-.18v22h1.61V95H301v-.2a.81.81,0,0,1,1.61,0V95h2.08v-.2a.81.81,0,0,1,1.61,0V95h2.09v-.2a.81.81,0,0,1,1.61,0V95h2.08v-.2a.81.81,0,0,1,1.61,0V95h2.09v-.2a.81.81,0,0,1,1.61,0V95h2.08v-.2a.81.81,0,0,1,1.61,0V95h2.09v-.2a.81.81,0,0,1,1.61,0V95h2.08v-.2a.81.81,0,0,1,1.61,0V95h2.09v-.2a.8.8,0,0,1,1.6,0V95h2.09v-.2a.81.81,0,0,1,1.61,0V95h1.4v6a.81.81,0,0,1,.81-.77h.8v-6a.79.79,0,0,0-.23-.57.82.82,0,0,0-.57-.24"/>
          <path class="cls-3" d="M397.48,94.32H394v.2a.81.81,0,1,1-1.61,0v-.2H389v.2a.81.81,0,1,1-1.61,0v-.2h-3.45v.2a.8.8,0,1,1-1.6,0v-.2h-3.46v.2a.81.81,0,1,1-1.61,0v-.2h-3.45v.2a.81.81,0,1,1-1.61,0v-.2h-3.45v.2a.81.81,0,1,1-1.61,0v-.2h-3.45v.2a.81.81,0,1,1-1.61,0v-.2h-.88a.82.82,0,0,0-.57.24.81.81,0,0,0-.23.57v5.12h.34a.81.81,0,1,1,0,1.61h-.34V110h.15a.81.81,0,0,1,0,1.61h-.15v37.14H362V95.93h2.26a.8.8,0,0,1,1.56,0h3.5a.8.8,0,0,1,1.56,0h3.49a.82.82,0,0,1,.79-.62.8.8,0,0,1,.78.62h3.49a.82.82,0,0,1,.79-.62.8.8,0,0,1,.78.62h3.5a.81.81,0,0,1,1.57,0h3.49a.81.81,0,0,1,1.57,0h3.49a.8.8,0,0,1,.78-.62.82.82,0,0,1,.79.62h1.75v52.84h1.6V95.13a.81.81,0,0,0-.23-.57,1,1,0,0,0-.2-.15v.11a.81.81,0,1,1-1.61,0v-.2"/>
          <path class="cls-3" d="M291.7,117.27a7.11,7.11,0,0,0-4.94,1.86,9.84,9.84,0,0,0-2.52,4,19.55,19.55,0,0,0-1.07,6.17v19.49h1.6V129.32h0v0a18.71,18.71,0,0,1,.43-3.71,10,10,0,0,1,2.64-5.26,5.54,5.54,0,0,1,3.78-1.43l.12,0c.15,0,.36.12.62.22a9.19,9.19,0,0,1,2,1.11,8.87,8.87,0,0,1,3.58,6,.78.78,0,0,0,.29.5.83.83,0,0,0,.5.18h.13a.8.8,0,0,0,.67-.92,11.13,11.13,0,0,0-1.3-3.79,10.62,10.62,0,0,0-6.31-4.93l-.18,0h0"/>
          <path class="cls-3" d="M318,102.68a8.26,8.26,0,0,0-5.81,2.41,15.34,15.34,0,0,0-3.33,5.07,29.53,29.53,0,0,0-2,7.22v31.39h1.6V117.52s0-.14,0-.27.09-.53.16-.92a29.72,29.72,0,0,1,.76-3,16.62,16.62,0,0,1,3.86-7,6.65,6.65,0,0,1,4.72-2,7.32,7.32,0,0,1,4.84,1.8,13,13,0,0,1,3.15,4.3,22.74,22.74,0,0,1,2.14,8.14v30.24h1.61V118.53a22.17,22.17,0,0,0-1.22-6.15,16.83,16.83,0,0,0-4.64-7.52,8.91,8.91,0,0,0-5.87-2.18h0"/>
          <path class="cls-3" d="M345.06,117.27a6,6,0,0,0-3.69,1.31,9.92,9.92,0,0,0-2.36,2.73,1.37,1.37,0,0,0-.13.2,16.1,16.1,0,0,0-1.58,3.65l0,.18v.07a.81.81,0,0,0,.6.74.76.76,0,0,0,.21,0,.8.8,0,0,0,.77-.6l0-.09,0-.06c0-.11.08-.27.15-.46a15.86,15.86,0,0,1,.64-1.56,9.8,9.8,0,0,1,2.66-3.55,4.43,4.43,0,0,1,2.72-1,4.72,4.72,0,0,1,2.83,1,8.14,8.14,0,0,1,2.16,2.41,12.09,12.09,0,0,1,1.8,5.72v20.81h1.61V128a12.79,12.79,0,0,0-1.15-4.85,11,11,0,0,0-3.48-4.59,6.38,6.38,0,0,0-3.76-1.25h0"/>
          <path class="cls-3" d="M298.71,100.25h-3.49v.35a.81.81,0,0,1-.81.81.8.8,0,0,1-.8-.81v-.35h-4v.35a.81.81,0,1,1-1.61,0v-.35h-4v.35a.81.81,0,1,1-1.61,0v-.35h-4v.35a.81.81,0,1,1-1.61,0v-.35H276v1.61h3.45a.81.81,0,0,1,1.47,0h4.13a.78.78,0,0,1,.73-.47.81.81,0,0,1,.73.47h4.13a.81.81,0,0,1,.73-.47.78.78,0,0,1,.73.47h4.13a.81.81,0,0,1,1.47,0h1a.81.81,0,1,0,0-1.61"/>
          <path class="cls-3" d="M360.72,100.25h-3.37v.35a.81.81,0,1,1-1.61,0v-.35h-3.45v.35a.8.8,0,1,1-1.6,0v-.35h-3.46v.35a.8.8,0,1,1-1.6,0v-.35h-3.45v.35a.81.81,0,1,1-1.61,0v-.35h-2.49a.81.81,0,0,0-.81.77v.07a.81.81,0,0,0,.81.77h4.72a.78.78,0,0,1,.73-.47.81.81,0,0,1,.73.47h3.59a.81.81,0,0,1,1.47,0h3.59a.81.81,0,0,1,1.47,0H358a.81.81,0,0,1,1.47,0h1.28a.81.81,0,1,0,0-1.61"/>
          <path class="cls-3" d="M271.05,118.84H243.74a.81.81,0,1,0,0,1.61h27.31a.81.81,0,1,0,0-1.61"/>
          <path class="cls-3" d="M271.05,110H243a.82.82,0,0,0-.72.44v.74a.83.83,0,0,0,.72.43h28.07a.81.81,0,1,0,0-1.61"/>
          <path class="cls-3" d="M249.1,106v-3.47h2.11V106H249.1m2.91-5.07H248.3a.79.79,0,0,0-.8.8v5.08a.79.79,0,0,0,.8.8H252a.79.79,0,0,0,.8-.8v-5.08a.79.79,0,0,0-.8-.8"/>
          <path class="cls-3" d="M372.21,106v-3.47h2.1V106h-2.1m2.91-5.07h-3.71a.79.79,0,0,0-.57.23.82.82,0,0,0-.24.57v5.08a.82.82,0,0,0,.24.57.79.79,0,0,0,.57.23h3.71a.79.79,0,0,0,.8-.8v-5.08a.79.79,0,0,0-.8-.8"/>
          <path class="cls-3" d="M262.48,106v-3.47h2.1V106h-2.1m2.9-5.07h-3.71a.79.79,0,0,0-.8.8v5.08a.79.79,0,0,0,.8.8h3.71a.79.79,0,0,0,.57-.23.82.82,0,0,0,.24-.57v-5.08a.82.82,0,0,0-.24-.57.79.79,0,0,0-.57-.23"/>
          <path class="cls-3" d="M385.59,106v-3.47h2.1V106h-2.1m2.9-5.07h-3.71a.79.79,0,0,0-.8.8v5.08a.79.79,0,0,0,.8.8h3.71a.81.81,0,0,0,.57-.23.82.82,0,0,0,.24-.57v-5.08a.82.82,0,0,0-.24-.57.81.81,0,0,0-.57-.23"/>
          <path class="cls-3" d="M394.46,110.28H364.83a.81.81,0,1,0,0,1.61h29.63a.81.81,0,1,0,0-1.61"/>
          <path class="cls-3" d="M394.46,119.6H364.83a.81.81,0,1,0,0,1.61h29.63a.81.81,0,1,0,0-1.61"/>
          <path class="cls-3" d="M298.21,110H276.26a.8.8,0,0,0-.26,0v1.52a.78.78,0,0,0,.26,0h21.95a.81.81,0,1,0,0-1.61h0"/>
          <path class="cls-3" d="M360.53,110H338.58a.81.81,0,1,0,0,1.61h21.95a.81.81,0,0,0,0-1.61"/>
          <path class="cls-3" d="M277.63,98.17a.8.8,0,0,0-.8.8v1.63a.81.81,0,1,0,1.61,0V99a.8.8,0,0,0-.81-.8"/>
          <path class="cls-3" d="M280.19,101.39a.81.81,0,0,0-.74.47.93.93,0,0,0-.07.33v1.63a.81.81,0,1,0,1.61,0v-1.63a.93.93,0,0,0-.07-.33.81.81,0,0,0-.73-.47"/>
          <path class="cls-3" d="M341.37,98.17a.8.8,0,0,0-.8.8v1.63a.81.81,0,1,0,1.61,0V99a.8.8,0,0,0-.81-.8"/>
          <path class="cls-3" d="M343.53,101.39a.78.78,0,0,0-.73.47.76.76,0,0,0-.08.33v1.63a.81.81,0,1,0,1.61,0v-1.63a.75.75,0,0,0-.07-.33.81.81,0,0,0-.73-.47"/>
          <path class="cls-3" d="M362.87,92.09a.8.8,0,0,0-.81.8v1.63a.81.81,0,1,0,1.61,0V92.89a.8.8,0,0,0-.8-.8"/>
          <path class="cls-3" d="M365,95.31a.8.8,0,0,0-.78.62.55.55,0,0,0,0,.18v1.63a.8.8,0,0,0,.8.81.81.81,0,0,0,.81-.81V96.11a.57.57,0,0,0,0-.18.8.8,0,0,0-.78-.62"/>
          <path class="cls-3" d="M383.11,92.09a.8.8,0,0,0-.8.8v1.63a.8.8,0,1,0,1.6,0V92.89a.8.8,0,0,0-.8-.8"/>
          <path class="cls-3" d="M385.27,95.31a.81.81,0,0,0-.79.62,1.1,1.1,0,0,0,0,.18v1.63a.81.81,0,1,0,1.61,0V96.11a1.1,1.1,0,0,0,0-.18.8.8,0,0,0-.78-.62"/>
          <path class="cls-3" d="M283.22,98.17a.8.8,0,0,0-.8.8v1.63a.81.81,0,1,0,1.61,0V99a.8.8,0,0,0-.81-.8"/>
          <path class="cls-3" d="M285.78,101.39a.78.78,0,0,0-.73.47.76.76,0,0,0-.08.33v1.63a.81.81,0,1,0,1.61,0v-1.63a.75.75,0,0,0-.07-.33.81.81,0,0,0-.73-.47"/>
          <path class="cls-3" d="M346.43,98.17a.8.8,0,0,0-.8.8v1.63a.8.8,0,1,0,1.6,0V99a.8.8,0,0,0-.8-.8"/>
          <path class="cls-3" d="M348.59,101.39a.81.81,0,0,0-.74.47.93.93,0,0,0-.07.33v1.63a.81.81,0,1,0,1.61,0v-1.63a.93.93,0,0,0-.07-.33.81.81,0,0,0-.73-.47"/>
          <path class="cls-3" d="M367.92,92.09a.8.8,0,0,0-.8.8v1.63a.81.81,0,1,0,1.61,0V92.89a.8.8,0,0,0-.81-.8"/>
          <path class="cls-3" d="M370.08,95.31a.8.8,0,0,0-.78.62.55.55,0,0,0,0,.18v1.63a.8.8,0,1,0,1.6,0V96.11a.55.55,0,0,0,0-.18.8.8,0,0,0-.78-.62"/>
          <path class="cls-3" d="M388.17,92.09a.8.8,0,0,0-.81.8v1.63a.81.81,0,1,0,1.61,0V92.89a.8.8,0,0,0-.8-.8"/>
          <path class="cls-3" d="M390.32,95.31a.8.8,0,0,0-.78.62,1.1,1.1,0,0,0,0,.18v1.63a.81.81,0,1,0,1.61,0V96.11a1.1,1.1,0,0,0,0-.18.81.81,0,0,0-.79-.62"/>
          <path class="cls-3" d="M288.82,98.17a.8.8,0,0,0-.81.8v1.63a.81.81,0,1,0,1.61,0V99a.8.8,0,0,0-.8-.8"/>
          <path class="cls-3" d="M291.37,101.39a.81.81,0,0,0-.73.47.75.75,0,0,0-.07.33v1.63a.81.81,0,1,0,1.61,0v-1.63a.76.76,0,0,0-.08-.33.78.78,0,0,0-.73-.47"/>
          <path class="cls-3" d="M351.49,98.17a.8.8,0,0,0-.8.8v1.63a.8.8,0,1,0,1.6,0V99a.8.8,0,0,0-.8-.8"/>
          <path class="cls-3" d="M353.64,101.39a.81.81,0,0,0-.73.47.93.93,0,0,0-.07.33v1.63a.81.81,0,1,0,1.61,0v-1.63a.93.93,0,0,0-.07-.33.81.81,0,0,0-.74-.47"/>
          <path class="cls-3" d="M373,92.09a.8.8,0,0,0-.8.8v1.63a.81.81,0,1,0,1.61,0V92.89a.8.8,0,0,0-.81-.8"/>
          <path class="cls-3" d="M375.14,95.31a.82.82,0,0,0-.79.62,1.1,1.1,0,0,0,0,.18v1.63a.81.81,0,1,0,1.61,0V96.11a.55.55,0,0,0,0-.18.8.8,0,0,0-.78-.62"/>
          <path class="cls-3" d="M393.23,92.09a.8.8,0,0,0-.81.8v1.63a.81.81,0,1,0,1.61,0V92.89a.8.8,0,0,0-.8-.8"/>
          <path class="cls-3" d="M395.38,95.31a.8.8,0,0,0-.78.62,1.1,1.1,0,0,0,0,.18v1.63a.81.81,0,1,0,1.61,0V96.11a1.1,1.1,0,0,0,0-.18.82.82,0,0,0-.79-.62"/>
          <path class="cls-3" d="M294.41,98.17a.8.8,0,0,0-.8.8v1.63a.8.8,0,0,0,.8.81.81.81,0,0,0,.81-.81V99a.81.81,0,0,0-.81-.8"/>
          <path class="cls-3" d="M297,101.39a.81.81,0,0,0-.73.47.93.93,0,0,0-.07.33v1.63a.81.81,0,1,0,1.61,0v-1.63a.93.93,0,0,0-.07-.33.81.81,0,0,0-.74-.47"/>
          <path class="cls-3" d="M356.55,98.17a.8.8,0,0,0-.81.8v1.63a.81.81,0,1,0,1.61,0V99a.8.8,0,0,0-.8-.8"/>
          <path class="cls-3" d="M358.7,101.39a.81.81,0,0,0-.73.47.93.93,0,0,0-.07.33v1.63a.81.81,0,1,0,1.61,0v-1.63a.93.93,0,0,0-.07-.33.81.81,0,0,0-.74-.47"/>
          <path class="cls-3" d="M378,92.09a.8.8,0,0,0-.8.8v1.63a.81.81,0,1,0,1.61,0V92.89a.8.8,0,0,0-.81-.8"/>
          <path class="cls-3" d="M380.2,95.31a.82.82,0,0,0-.79.62,1.1,1.1,0,0,0,0,.18v1.63a.81.81,0,1,0,1.61,0V96.11a1.1,1.1,0,0,0,0-.18.8.8,0,0,0-.78-.62"/>
          <path class="cls-3" d="M398.29,92.09a.8.8,0,0,0-.81.8v1.63a.81.81,0,1,0,1.61,0V92.89a.8.8,0,0,0-.8-.8"/>
          <path class="cls-3" d="M301.81,94a.8.8,0,0,0-.8.8v3.29a.81.81,0,0,0,1.61,0V94.82a.8.8,0,0,0-.81-.8"/>
          <path class="cls-3" d="M305.51,94a.8.8,0,0,0-.81.8v3.29a.81.81,0,0,0,1.61,0V94.82a.8.8,0,0,0-.8-.8"/>
          <path class="cls-3" d="M309.2,94a.8.8,0,0,0-.8.8v3.29a.81.81,0,0,0,1.61,0V94.82a.8.8,0,0,0-.81-.8"/>
          <path class="cls-3" d="M312.9,94a.8.8,0,0,0-.81.8v3.29a.81.81,0,0,0,1.61,0V94.82a.8.8,0,0,0-.8-.8"/>
          <path class="cls-3" d="M316.59,94a.8.8,0,0,0-.8.8v3.29a.81.81,0,0,0,1.61,0V94.82a.8.8,0,0,0-.81-.8"/>
          <path class="cls-3" d="M320.29,94a.8.8,0,0,0-.81.8v3.29a.81.81,0,0,0,1.61,0V94.82a.8.8,0,0,0-.8-.8"/>
          <path class="cls-3" d="M324,94a.8.8,0,0,0-.8.8v3.29a.81.81,0,0,0,1.61,0V94.82A.8.8,0,0,0,324,94"/>
          <path class="cls-3" d="M327.68,94a.8.8,0,0,0-.81.8v3.29a.81.81,0,0,0,1.61,0V94.82a.8.8,0,0,0-.8-.8"/>
          <path class="cls-3" d="M331.37,94a.8.8,0,0,0-.8.8v3.29a.8.8,0,1,0,1.6,0V94.82a.8.8,0,0,0-.8-.8"/>
          <path class="cls-3" d="M335.06,94a.8.8,0,0,0-.8.8v3.29a.81.81,0,0,0,1.61,0V94.82a.8.8,0,0,0-.81-.8"/>
          <path class="cls-3" d="M275.2,94.93H241.46a.82.82,0,0,0-.57.24.79.79,0,0,0-.23.57v53h1.6V96.54H274.4v52.23H276v-53a.79.79,0,0,0-.23-.57.82.82,0,0,0-.57-.24"/>
        </g>
        <g>
          <path class="cls-4" d="M25.39,13.58h5.05c2.62,0,3.8.17,5,.72A5.16,5.16,0,0,1,37.3,16a7.57,7.57,0,0,1,1.23,4.43c0,2.84-1.15,5.14-3.07,6.13-1.18.59-2.24.76-4.79.76H25.39V13.58m5.13,11.09a7.3,7.3,0,0,0,3.29-.42,2.82,2.82,0,0,0,.95-.85,5,5,0,0,0,.79-3c0-2.05-.64-3.39-1.9-3.88a6,6,0,0,0-2.59-.33H28.33v8.5h2.19"/>
          <path class="cls-4" d="M60.31,27.27a6.64,6.64,0,0,1-6.9-6.83,6.89,6.89,0,0,1,13.78,0,6.62,6.62,0,0,1-6.88,6.83m0-11.14c-2.3,0-3.92,1.78-3.92,4.31s1.62,4.3,3.92,4.3,3.91-1.78,3.91-4.3-1.61-4.31-3.91-4.31"/>
          <path class="cls-4" d="M22,27.27a2.53,2.53,0,0,0,2.4-2.62H16.47V21.49H21A2.44,2.44,0,0,0,23.29,19H16.47V16.17h5.2A2.5,2.5,0,0,0,24,13.59H13.57V27.26H22"/>
          <path class="cls-4" d="M11.43,16.7A4.29,4.29,0,0,0,8.9,14.11,7.51,7.51,0,0,0,6,13.58c-.26,0-.52,0-.76,0C2.31,13.84.55,15.3.55,17.56c0,2.07,1.22,3.29,3.77,3.78l1.42.27c2.64.51,3.1.72,3.1,1.61s-1.07,1.54-2.72,1.54a3.41,3.41,0,0,1-2.55-.88l0,0L3.4,23.7h0a2.25,2.25,0,0,0-3.21,0h0a4.28,4.28,0,0,0,3.09,3.19A9.24,9.24,0,0,0,6,27.27c.28,0,.55,0,.82,0,3.15-.22,5-1.73,5-4.17a3.69,3.69,0,0,0-.91-2.55,4,4,0,0,0-1.35-.88,13.49,13.49,0,0,0-2.8-.72c-3-.59-3.32-.76-3.32-1.59S4.39,16,5.89,16a3.25,3.25,0,0,1,2.23.65l.07.06,0,0h0a2.26,2.26,0,0,0,3.22,0v0"/>
          <path class="cls-4" d="M49.17,23.77h0l-.23.22a3.54,3.54,0,0,1-2.33.74c-2.3,0-3.85-1.7-3.85-4.27s1.59-4.34,3.91-4.34a3.57,3.57,0,0,1,2.24.7h0a2.56,2.56,0,0,0,3.47-.2h0a5.08,5.08,0,0,0-2.1-2.16,7.21,7.21,0,0,0-3.59-.89,6.73,6.73,0,0,0-.91.06,6.56,6.56,0,0,0-6,6.85,6.45,6.45,0,0,0,6.84,6.78c2.79,0,4.91-1.21,5.89-3.28v0a2.47,2.47,0,0,0-3.33-.2"/>
          <path class="cls-4" d="M176.13,25.53a3.88,3.88,0,0,0,1.11,1.19,3.15,3.15,0,0,0,1.8.51,4.52,4.52,0,0,0,1.88-.44,3.1,3.1,0,0,0,1.35-1.31l.07,0,.07,0a4.05,4.05,0,0,0,1.11,1.21,3,3,0,0,0,1.87.54H189V19.09h0v-.84a3.29,3.29,0,0,0-3-2.95v1.33h0v7.55l-.08.08h-.42a2.39,2.39,0,0,1-2-.77,2.94,2.94,0,0,1-.55-1.84V19.37h0V18.28a3.33,3.33,0,0,0-3.07-3v8.89l0,0-.06,0h-.51a2.39,2.39,0,0,1-2-.76,2.94,2.94,0,0,1-.56-1.84V19.09h0v-.81a3.32,3.32,0,0,0-3.06-3v7.44a2.43,2.43,0,0,1-.2,1.07,1,1,0,0,1-.95.46h-1.4l-1,0a2.48,2.48,0,0,1-2-.81,2.67,2.67,0,0,1-.54-1.3c-.29-4.23-4.6-8.38-8.69-8.38a3.06,3.06,0,0,0-2.74,2.81h2.37a6.5,6.5,0,0,1,6,6v.2a2.25,2.25,0,0,1-.24,1.17,1.08,1.08,0,0,1-.94.37h-6a3.22,3.22,0,0,0-2.89,3h9.15a4.22,4.22,0,0,0,2-.52,3.16,3.16,0,0,0,1.34-1.27l.07,0h0l.07,0a3.8,3.8,0,0,0,1.16,1.21,3.33,3.33,0,0,0,1.74.56l.21,0h2.42a4.74,4.74,0,0,0,2.15-.44A3.05,3.05,0,0,0,176,25.53l.07,0,.07,0"/>
          <path class="cls-4" d="M132.94,24.18l-.08.08h-6.77a1.06,1.06,0,0,1-.91-.51,1.8,1.8,0,0,1-.25-1.07v-.21a6.45,6.45,0,0,1,5.78-5.91h.56a3.27,3.27,0,0,1,1.28.21,1.27,1.27,0,0,1,.38,1v6.39M151.69,27a3.69,3.69,0,0,0,1.7-1.27,3.73,3.73,0,0,0,.66-1.68l0-.19a7.35,7.35,0,0,0,.08-1.81l-.06-.38a3.52,3.52,0,0,0-.3-1,5.06,5.06,0,0,0-.72-1.13,6.74,6.74,0,0,0-2.14-1.71l-.47-.22a12.09,12.09,0,0,0-4.9-.83h-3.47l-.07-.05,0-.09,4.08-3.5a3.3,3.3,0,0,0,1.06-2.28,2.75,2.75,0,0,0-.59-2l-9.14,7.84v3h8.31a16,16,0,0,1,2.32.13,5.09,5.09,0,0,1,2.11.73,2.43,2.43,0,0,1,.71.72,2.28,2.28,0,0,1,.32,1.25,3.27,3.27,0,0,1-.09.7,1.33,1.33,0,0,1-.27.53l0,0a1.2,1.2,0,0,1-1,.51H136l-.08-.08V17.59a3.91,3.91,0,0,0-2.88-3.7,10.52,10.52,0,0,0-1.9-.28h-.51a8.69,8.69,0,0,0-6.53,3,8.56,8.56,0,0,0-1.43,2.61,8.33,8.33,0,0,0-.55,4.3,4.24,4.24,0,0,0,2,3.27,4.9,4.9,0,0,0,2.47.48h3.72l1.73,0a3.52,3.52,0,0,0,.64,0l0,.07h.09a2.63,2.63,0,0,1-.29.86,2.38,2.38,0,0,1-.91.9,3.52,3.52,0,0,1-1.28.43,9.25,9.25,0,0,1-1.34.1h-2.49a3.15,3.15,0,0,0-2.83,2.9h5.31a10.32,10.32,0,0,0,2.64-.34,6.59,6.59,0,0,0,2.24-1,5.21,5.21,0,0,0,1.5-1.81,6.34,6.34,0,0,0,.58-2l.08-.07h13.72a5.91,5.91,0,0,0,2-.27"/>
          <path class="cls-5" d="M90,18.25h9.12v9.13H90V18.25m0-9.12V8.66C90,4.33,85.46,0,80.9,0V27.38h-.47c-4.33,0-8.66,4.57-8.66,9.13H99.15V37c0,4.33,4.57,8.66,9.13,8.66V18.25h.46c4.34,0,8.67-4.56,8.67-9.12H90"/>
          <path class="cls-6" d="M127.88,41.43a2.83,2.83,0,0,1-1,2.23,3.11,3.11,0,0,1-2.12.74,2.94,2.94,0,0,1-2.39-1,3,3,0,0,1-.26-3.35l1.35-.3a2.91,2.91,0,0,0-.45,1.61,1.62,1.62,0,0,0,1.75,1.74,1.71,1.71,0,0,0,1.25-.44,1.57,1.57,0,0,0,.47-1.21V36.06l1.36-.72v6.09"/>
          <path class="cls-6" d="M176.65,37.51V40.3a1.89,1.89,0,0,1-2,2h-2.82a2,2,0,0,1-1.31-.43,2,2,0,0,1-1.31.43h-2.82a2,2,0,0,1-1.31-.43,2,2,0,0,1-1.31.43h-32a1.91,1.91,0,0,1-1.53-.63,2.07,2.07,0,0,1-.46-1.4V36.05l1.36-.72v4.9a.86.86,0,0,0,.18.61A.76.76,0,0,0,132,41h31.69a.8.8,0,0,0,.59-.17.91.91,0,0,0,.17-.61v-2l1.36-.72v2.72a.86.86,0,0,0,.18.61.8.8,0,0,0,.59.17h2.55a.8.8,0,0,0,.59-.17.91.91,0,0,0,.17-.61v-2l1.37-.72v2.72a.86.86,0,0,0,.17.61A.8.8,0,0,0,172,41h2.55a.8.8,0,0,0,.59-.17.91.91,0,0,0,.17-.61v-2l1.37-.72"/>
          <path class="cls-6" d="M165.87,35.32a.69.69,0,0,0-.52-.19.67.67,0,0,0-.51.2.65.65,0,0,0-.2.5.67.67,0,0,0,.71.73.64.64,0,0,0,.71-.73.73.73,0,0,0-.19-.51m-1.66,0a.69.69,0,0,0-.52-.19.64.64,0,0,0-.51.2.62.62,0,0,0-.2.5.67.67,0,0,0,.71.73.64.64,0,0,0,.71-.73.69.69,0,0,0-.19-.51"/>
          <path class="cls-6" d="M171.34,43.5a.71.71,0,0,0-.51-.19.63.63,0,0,0-.72.71.72.72,0,0,0,.2.53.69.69,0,0,0,.52.19.63.63,0,0,0,.7-.72.69.69,0,0,0-.19-.52m-1.67,0a.71.71,0,0,0-.51-.19.63.63,0,0,0-.72.71.72.72,0,0,0,.2.53.69.69,0,0,0,.52.19.63.63,0,0,0,.7-.72.69.69,0,0,0-.19-.52"/>
          <path class="cls-6" d="M176.36,43.5a.74.74,0,0,0-.52-.19.68.68,0,0,0-.51.2.69.69,0,0,0-.2.51.72.72,0,0,0,.2.53.67.67,0,0,0,.51.19.63.63,0,0,0,.71-.72.69.69,0,0,0-.19-.52"/>
          <path class="cls-6" d="M188.65,40.19v.14a2,2,0,0,1-.61,1.53,2,2,0,0,1-1.38.47h-6.07a1.87,1.87,0,0,1-1.52-.63,2,2,0,0,1-.47-1.4V36.05l1.36-.71v4.9a.83.83,0,0,0,.18.6.77.77,0,0,0,.58.18h5.8a.67.67,0,0,0,.76-.75V40.2a1.16,1.16,0,0,0-.45-1,1.77,1.77,0,0,0-1.18-.37,3.33,3.33,0,0,0-1.15.22V37.78l2.2-2.44h1.38l-2,2.21a2.87,2.87,0,0,1,1.43.48,2.45,2.45,0,0,1,1.11,2.16"/>
          <path class="cls-6" d="M5.2,41.92a2.82,2.82,0,0,1-2.06.87A2.85,2.85,0,0,1,.6,41.53,3.81,3.81,0,0,1,0,39.39a3.85,3.85,0,0,1,.83-2.57,2.77,2.77,0,0,1,2.26-1,3.19,3.19,0,0,1,2,.86l-.54.87A2.5,2.5,0,0,0,3.19,37a1.52,1.52,0,0,0-1.34.73,3,3,0,0,0-.41,1.63,2.44,2.44,0,0,0,.48,1.52,1.67,1.67,0,0,0,1.39.67,2.66,2.66,0,0,0,1.35-.5l.54.84"/>
          <path class="cls-6" d="M13.77,37.79c-.19.55-.47,1.33-.81,2.34h1.61c-.34-1-.6-1.75-.8-2.34M13.18,36h1.16l2.47,6.69H15.4c-.12-.36-.27-.82-.44-1.4h-2.4c-.1.32-.25.79-.46,1.4H10.72L13.18,36"/>
          <path class="cls-6" d="M24.13,37v2a1.92,1.92,0,0,0,.69.11.8.8,0,0,0,.66-.3,1.25,1.25,0,0,0,.25-.83c0-.71-.32-1.07-.94-1.07a1.69,1.69,0,0,0-.66.07m-1.38,5.64V36l.83-.09c.46,0,.81,0,1.05,0,1.7,0,2.56.7,2.56,2.09a2.16,2.16,0,0,1-.89,1.91,2.43,2.43,0,0,1-1.4.41,1.87,1.87,0,0,1-.77-.09v2.5H22.75"/>
          <polyline class="cls-6" points="33.5 42.67 34.86 42.67 34.86 35.98 33.5 35.98 33.5 42.67"/>
          <polyline class="cls-6" points="42.84 37.09 40.9 37.09 40.9 35.98 46.31 35.98 46.31 37.09 44.23 37.09 44.23 42.67 42.84 42.67 42.84 37.09"/>
          <path class="cls-6" d="M54,37.79c-.19.55-.47,1.33-.81,2.34h1.61c-.34-1-.6-1.75-.8-2.34M53.45,36h1.16l2.47,6.69H55.67c-.12-.36-.27-.82-.44-1.4h-2.4c-.1.32-.25.79-.46,1.4H51L53.45,36"/>
          <polyline class="cls-6" points="63.02 42.67 63.02 35.98 64.4 35.98 64.4 41.56 66.91 41.56 66.91 42.67 63.02 42.67"/>
          <path class="cls-7" d="M38.46,19.11h-3a8.34,8.34,0,0,1,.09,1.27,5,5,0,0,1-.79,3,2.82,2.82,0,0,1-.95.85,7.3,7.3,0,0,1-3.29.42H28.33V19.11H25.39v8.16h5.28c2.55,0,3.61-.17,4.79-.76,1.92-1,3.07-3.29,3.07-6.13a10.46,10.46,0,0,0-.07-1.27"/>
          <path class="cls-7" d="M67.08,19.11h-3a5.16,5.16,0,0,1,.16,1.33c0,2.52-1.61,4.3-3.91,4.3s-3.92-1.78-3.92-4.3a5.15,5.15,0,0,1,.17-1.33h-3a7.23,7.23,0,0,0-.12,1.33,6.89,6.89,0,0,0,13.78,0,8.23,8.23,0,0,0-.11-1.33"/>
          <path class="cls-7" d="M23.28,19.11H13.57v8.15H22a2.53,2.53,0,0,0,2.4-2.62H16.47V21.49H21a2.42,2.42,0,0,0,2.3-2.39"/>
          <path class="cls-7" d="M7.77,19.11H.85c.5,1.15,1.64,1.87,3.47,2.23l1.42.27c2.64.51,3.1.72,3.1,1.61s-1.07,1.54-2.72,1.54a3.41,3.41,0,0,1-2.55-.88l0,0L3.4,23.7h0A2.19,2.19,0,0,0,1.8,23a2.3,2.3,0,0,0-1.62.68h0a4.28,4.28,0,0,0,3.09,3.19A9.24,9.24,0,0,0,6,27.27c.28,0,.55,0,.82,0,3.15-.22,5-1.73,5-4.17a3.69,3.69,0,0,0-.91-2.55,4,4,0,0,0-1.35-.88,10.19,10.19,0,0,0-1.79-.52"/>
          <path class="cls-7" d="M42.91,19.11h-3a7.7,7.7,0,0,0-.12,1.38,6.45,6.45,0,0,0,6.84,6.78c2.79,0,4.91-1.21,5.89-3.28v0a2.53,2.53,0,0,0-1.79-.75,2.42,2.42,0,0,0-1.54.55h0l-.23.22a3.54,3.54,0,0,1-2.33.74c-2.3,0-3.85-1.7-3.85-4.27a5.89,5.89,0,0,1,.16-1.36"/>
          <path class="cls-7" d="M189,19.11h-3v5.08l-.08.08h-.42a2.39,2.39,0,0,1-2-.77,2.94,2.94,0,0,1-.55-1.84V19.37h0v-.25h-3.07v5.08l0,0-.06,0h-.51a2.39,2.39,0,0,1-2-.76,2.94,2.94,0,0,1-.56-1.84V19.11h-3.06v3.63a2.43,2.43,0,0,1-.2,1.07,1,1,0,0,1-.95.46h-1.4l-1,0a2.48,2.48,0,0,1-2-.81,2.67,2.67,0,0,1-.54-1.3,8,8,0,0,0-.86-3h-3.5a5.75,5.75,0,0,1,1.28,3.42v.2a2.25,2.25,0,0,1-.24,1.17,1.08,1.08,0,0,1-.94.37h-6a3.22,3.22,0,0,0-2.89,3h9.15a4.22,4.22,0,0,0,2-.52,3.16,3.16,0,0,0,1.34-1.27l.07,0h0l.07,0a3.8,3.8,0,0,0,1.16,1.21,3.33,3.33,0,0,0,1.74.56l.21,0h2.42a4.74,4.74,0,0,0,2.15-.44A3.05,3.05,0,0,0,176,25.53l.07,0,.07,0a3.88,3.88,0,0,0,1.11,1.19,3.15,3.15,0,0,0,1.8.51,4.52,4.52,0,0,0,1.88-.44,3.1,3.1,0,0,0,1.35-1.31l.07,0,.07,0a4.05,4.05,0,0,0,1.11,1.21,3,3,0,0,0,1.87.54H189V19.11"/>
          <path class="cls-7" d="M152.76,19.11H137.45v.55h8.31a16,16,0,0,1,2.32.13,5.09,5.09,0,0,1,2.11.73,2.43,2.43,0,0,1,.71.72,2.28,2.28,0,0,1,.32,1.25,3.27,3.27,0,0,1-.09.7,1.33,1.33,0,0,1-.27.53l0,0a1.2,1.2,0,0,1-1,.51H136l-.08-.08V19.11h-2.95v5.07l-.08.08h-6.77a1.06,1.06,0,0,1-.91-.51,1.8,1.8,0,0,1-.25-1.07v-.21a5.58,5.58,0,0,1,1.26-3.36h-3.53l0,.08a8.33,8.33,0,0,0-.55,4.3,4.24,4.24,0,0,0,2,3.27,4.9,4.9,0,0,0,2.47.48h3.72l1.73,0a3.52,3.52,0,0,0,.64,0l0,.07h.09a2.63,2.63,0,0,1-.29.86,2.38,2.38,0,0,1-.91.9,3.52,3.52,0,0,1-1.28.43,9.25,9.25,0,0,1-1.34.1h-2.49a3.15,3.15,0,0,0-2.83,2.9h5.31a10.32,10.32,0,0,0,2.64-.34,6.59,6.59,0,0,0,2.24-1,5.21,5.21,0,0,0,1.5-1.81,6.34,6.34,0,0,0,.58-2l.08-.07h13.72a5.91,5.91,0,0,0,2-.27,3.69,3.69,0,0,0,1.7-1.27,3.73,3.73,0,0,0,.66-1.68l0-.19a7.35,7.35,0,0,0,.08-1.81l-.06-.38a3.52,3.52,0,0,0-.3-1,5.06,5.06,0,0,0-.72-1.13l-.31-.36"/>
          <path class="cls-8" d="M99.15,36.51h0V37c0,4.33,4.57,8.66,9.13,8.66v-.07h-1C103.06,45,99.15,41,99.15,37v-.46M80.9,19.11h0v8.27h0V19.11m18.25,0h0v8.27h0V19.11"/>
          <path class="cls-9" d="M127.88,35.34l-1.36.72v5.37a1.57,1.57,0,0,1-.47,1.21,2,2,0,0,1-2.53,0,1.73,1.73,0,0,1-.47-1.27,2.91,2.91,0,0,1,.45-1.61l-1.35.3a3,3,0,0,0,.26,3.35,2.94,2.94,0,0,0,2.39,1,3.11,3.11,0,0,0,2.12-.74,2.83,2.83,0,0,0,1-2.23V35.34"/>
          <path class="cls-9" d="M131.19,35.33l-1.36.72V40.3a2.07,2.07,0,0,0,.46,1.4,1.91,1.91,0,0,0,1.53.63h32a2,2,0,0,0,1.31-.43,2,2,0,0,0,1.31.43h2.82a2,2,0,0,0,1.31-.43,2,2,0,0,0,1.31.43h2.82a1.89,1.89,0,0,0,2-2V37.51l-1.37.72v2a.91.91,0,0,1-.17.61.8.8,0,0,1-.59.17H172a.8.8,0,0,1-.59-.17.86.86,0,0,1-.17-.61V37.51l-1.37.72v2a.91.91,0,0,1-.17.61.8.8,0,0,1-.59.17h-2.55a.8.8,0,0,1-.59-.17.86.86,0,0,1-.18-.61V37.51l-1.36.72v2a.91.91,0,0,1-.17.61.8.8,0,0,1-.59.17H132a.76.76,0,0,1-.58-.17.86.86,0,0,1-.18-.61v-4.9"/>
          <path class="cls-9" d="M163.69,35.13a.64.64,0,0,0-.51.2.62.62,0,0,0-.2.5.67.67,0,0,0,.71.73.64.64,0,0,0,.71-.73.69.69,0,0,0-.19-.51.69.69,0,0,0-.52-.19m1.66,0a.67.67,0,0,0-.51.2.65.65,0,0,0-.2.5.67.67,0,0,0,.71.73.64.64,0,0,0,.71-.73.73.73,0,0,0-.19-.51.69.69,0,0,0-.52-.19"/>
          <path class="cls-9" d="M169.16,43.31a.63.63,0,0,0-.72.71.72.72,0,0,0,.2.53.69.69,0,0,0,.52.19.63.63,0,0,0,.7-.72.69.69,0,0,0-.19-.52.71.71,0,0,0-.51-.19m1.67,0a.63.63,0,0,0-.72.71.72.72,0,0,0,.2.53.69.69,0,0,0,.52.19.63.63,0,0,0,.7-.72.69.69,0,0,0-.19-.52.71.71,0,0,0-.51-.19"/>
          <path class="cls-9" d="M175.84,43.31a.68.68,0,0,0-.51.2.69.69,0,0,0-.2.51.72.72,0,0,0,.2.53.67.67,0,0,0,.51.19.63.63,0,0,0,.71-.72.69.69,0,0,0-.19-.52.74.74,0,0,0-.52-.19"/>
          <path class="cls-9" d="M188.08,35.34H186.7l-2.2,2.44V39.1a3.33,3.33,0,0,1,1.15-.22,1.77,1.77,0,0,1,1.18.37,1.16,1.16,0,0,1,.45,1v.07a.67.67,0,0,1-.76.75h-5.8a.77.77,0,0,1-.58-.18.83.83,0,0,1-.18-.6v-4.9l-1.36.71V40.3a2,2,0,0,0,.47,1.4,1.87,1.87,0,0,0,1.52.63h6.07a2,2,0,0,0,1.38-.47,2,2,0,0,0,.61-1.53v-.14A2.45,2.45,0,0,0,187.54,38a2.87,2.87,0,0,0-1.43-.48l2-2.21"/>
          <path class="cls-9" d="M3.09,35.85a2.77,2.77,0,0,0-2.26,1A3.85,3.85,0,0,0,0,39.39a3.81,3.81,0,0,0,.6,2.14,2.85,2.85,0,0,0,2.54,1.26,2.82,2.82,0,0,0,2.06-.87l-.54-.84a2.66,2.66,0,0,1-1.35.5,1.67,1.67,0,0,1-1.39-.67,2.44,2.44,0,0,1-.48-1.52,3,3,0,0,1,.41-1.63A1.52,1.52,0,0,1,3.19,37a2.5,2.5,0,0,1,1.39.55l.54-.87a3.19,3.19,0,0,0-2-.86"/>
          <path class="cls-9" d="M13,40.13c.34-1,.62-1.79.81-2.34.2.59.46,1.37.8,2.34H13M14.34,36H13.18l-2.46,6.69H12.1c.21-.61.36-1.08.46-1.4H15c.17.58.32,1,.44,1.4h1.41L14.34,36"/>
          <path class="cls-9" d="M24.82,39.16a1.92,1.92,0,0,1-.69-.11V37a1.69,1.69,0,0,1,.66-.07c.62,0,.94.36.94,1.07a1.25,1.25,0,0,1-.25.83.8.8,0,0,1-.66.3m-.19-3.31c-.24,0-.59,0-1.05,0l-.83.09v6.68h1.38v-2.5a1.87,1.87,0,0,0,.77.09,2.43,2.43,0,0,0,1.4-.41,2.16,2.16,0,0,0,.89-1.91c0-1.39-.86-2.09-2.56-2.09"/>
          <path class="cls-2" d="M54,37.79c-.19.55-.47,1.33-.81,2.34h1.61c-.34-1-.6-1.75-.8-2.34"/>
          <polyline class="cls-9" points="34.86 35.98 33.5 35.98 33.5 42.67 34.86 42.67 34.86 35.98"/>
          <polyline class="cls-9" points="46.31 35.98 40.9 35.98 40.9 37.09 42.84 37.09 42.84 42.67 44.23 42.67 44.23 37.09 46.31 37.09 46.31 35.98"/>
          <path class="cls-9" d="M53.23,40.13c.34-1,.62-1.79.81-2.34.2.59.46,1.37.8,2.34H53.23M54.61,36H53.45L51,42.67h1.38c.21-.61.36-1.08.46-1.4h2.4c.17.58.32,1,.44,1.4h1.41L54.61,36"/>
          <polyline class="cls-9" points="64.4 35.98 63.02 35.98 63.02 42.67 66.91 42.67 66.91 41.56 64.4 41.56 64.4 35.98"/>
          <path class="cls-10" d="M108.28,19.11H99.15V37c0,4,3.91,8,8.1,8.59h1V19.11"/>
          <path class="cls-11" d="M99.15,27.38H80.43c-4.33,0-8.66,4.56-8.66,9.13H99.15V27.38"/>
          <polyline class="cls-12" points="90.03 19.11 80.9 19.11 80.9 27.38 90.03 27.38 90.03 27.38 90.03 19.11"/>
        </g>
      </g>
    </g>
  </g>
</svg>
