<svg id="Layer_1" data-name="Layer 1" xmlns="http://www.w3.org/2000/svg" viewBox="0 0 850 631">
  <defs>
    <style>
      .cls-1 {
        fill: #979d9e;
      }

      .cls-2 {
        fill: #684b4d;
      }

      .cls-3 {
        fill: #671835;
      }

      .cls-4 {
        fill: #3f85a5;
      }

      .cls-5 {
        fill: #030f15;
      }
    </style>
  </defs>
  <g>
    <path class="cls-1" d="M105.76,402H104.4v-1.43h1.36Zm-2.25,0h-1.36v-1.43h1.36Zm2,6.39,0-2.73a2,2,0,0,0-1.73-1.14l-1.14.61a2.86,2.86,0,0,0-.52,1.84l.15.92.89.5Zm3.89,3.17h-1.86a1.75,1.75,0,0,1-2-2h-2.7c-1.4,0-2.1-.88-2.1-2.63a3.6,3.6,0,0,1,.9-2.65l1.75-.76a2.43,2.43,0,0,1,2,1.06h0v-.91h1.27v5.82l.78.92h1.86Z"/>
    <path class="cls-1" d="M118.74,403.33h-1.36v-1.42h1.36Zm2.55,7a7.85,7.85,0,0,0-.3-2.15c-.45-1.46-1.24-2.22-2.36-2.29-2.21-.13-4,1.27-5.31,4.23v.21Zm4.63,1.18H109.05v-1.18h3.12v-3.8h1.15v1.63a6.51,6.51,0,0,1,2.64-2.71,4.61,4.61,0,0,1,2.69-.68,3.78,3.78,0,0,1,3.09,1.93,9.15,9.15,0,0,1,.86,3.63h3.32Z"/>
    <path class="cls-1" d="M129,414.23h-1.36v-1.42H129Zm1.09-5.1a2.25,2.25,0,0,1-2.51,2.4h-2v-1.18h2a1.17,1.17,0,0,0,1.25-1.26c0,.18,0-1.25-.06-4.28H130c0,2.91.06,4.34.06,4.32"/>
    <polygon class="cls-1" points="136.06 411.53 134.48 411.53 133.17 410.99 132.55 409.36 132.49 399.62 133.76 399.62 133.81 409.19 134.68 410.35 136.06 410.35 136.06 411.53"/>
    <path class="cls-1" d="M142.39,402.09H141v-1.42h1.36Zm0,4.6-.46-1.57-1.38-.7-1.36.7-.47,1.57a3.24,3.24,0,0,0,.8,2.15l1.05.79,1.06-.79a3.36,3.36,0,0,0,.76-2.15m-2.3-4.6h-1.36v-1.42h1.36Zm5.17,8.26v1.18h-1.91a6.7,6.7,0,0,1-2.78-.63,6.6,6.6,0,0,1-2.78.63h-2.1v-1.18h2.15a9,9,0,0,0,1.57-.09l-1.55-1.79-.44-1.78a3.11,3.11,0,0,1,.94-2.4,3.17,3.17,0,0,1,2.19-.81,3.2,3.2,0,0,1,2.21.81,3,3,0,0,1,.95,2.4l-.44,1.78-1.55,1.79a9.13,9.13,0,0,0,1.57.09Z"/>
    <path class="cls-1" d="M148.74,409.13a2.24,2.24,0,0,1-2.5,2.4H145v-1.18h1.19a1.17,1.17,0,0,0,1.25-1.26c0-1.15,0-2.74,0-4.72,0-2.31,0-3.89,0-4.75h1.27c0,.85,0,2.43,0,4.76,0,2,0,3.58,0,4.75"/>
    <polygon class="cls-1" points="151.14 399.61 151.23 411.52 152.5 411.52 152.41 399.61 151.14 399.61"/>
    <path class="cls-1" d="M163.68,410.35v-3.07c0-1.09-.54-1.65-1.48-1.65l-1.25.63a2.83,2.83,0,0,0-.61,1.88c0,1.23.69,2.21,1.77,2.21Zm3.86,1.18h-2.8a5,5,0,0,1-4.59,4l-.53-1.14a3.84,3.84,0,0,0,2.42-.79,4.34,4.34,0,0,0,1.4-2.06h-1.66a2.54,2.54,0,0,1-2.06-1,3.51,3.51,0,0,1-.76-2.34,3.46,3.46,0,0,1,1.15-2.72l2-.74c1.91,0,2.87,1,2.87,2.91v2.67h2.6Z"/>
    <path class="cls-1" d="M176.54,411.53H167v-1.18h8.2a4.84,4.84,0,0,0-1.24-3.21,3.57,3.57,0,0,0-2.78-1.23,5,5,0,0,0-2.54.76l-.59-1.07.09,0,4.4-4.58.85.83-3.2,3.1,1.27-.1a4.37,4.37,0,0,1,4,2.06,8.55,8.55,0,0,1,1.1,4.66"/>
    <path class="cls-1" d="M188.49,411.53h-9.74l.38-1.18h5a6,6,0,0,0-.9-3.17c-.52-.82-1.07-1.23-1.68-1.23v-1.14a3,3,0,0,1,2.42,1.36,7.93,7.93,0,0,1,1.35,4.18h3.14Z"/>
    <path class="cls-1" d="M201.82,409.35a2.34,2.34,0,0,1-2.45,2.43l-1.48-.31-1-1.18a2.16,2.16,0,0,1-2.3,1.46l-1.45-.28-.8-.77v.83h-4.16v-1.18h2.93v-2.88c0-.57,0-1.28,0-2.13h1.27v3.22a1.9,1.9,0,0,0,2.17,2.05,1.16,1.16,0,0,0,1.25-1.26c0-.39,0-1.73-.05-4H197c0,.7,0,1.77,0,3.22l.66,1.55,1.58.5a1.21,1.21,0,0,0,1.31-1.26c0-.34,0-1.85-.05-4.54h1.27c0,2.9,0,4.41,0,4.54"/>
    <path class="cls-1" d="M214.74,404.8h-1.36v-1.41h1.36Zm-2.25,0h-1.36v-1.41h1.36Zm6.23,5.29a1.63,1.63,0,0,1-1.7,1.43h-5.63a3.59,3.59,0,0,1-3.22-1.7,7.3,7.3,0,0,1-1-3.71l-.05-1.31h1.08l.05,1.31a4.7,4.7,0,0,0,1.3,3.52l1.82.72h5.32l.74-1c0-.41,0-1.91-.08-4.52h1.3c0,.95.05,2.71.05,5.29"/>
    <polygon class="cls-1" points="224.68 411.53 223.09 411.53 221.79 410.99 221.16 409.36 221.11 399.62 222.38 399.62 222.43 409.19 223.29 410.35 224.68 410.35 224.68 411.53"/>
    <path class="cls-1" d="M233.88,411.53h-9.52v-1.18h8.2a4.84,4.84,0,0,0-1.24-3.21,3.57,3.57,0,0,0-2.77-1.23,5,5,0,0,0-2.55.76l-.59-1.07.09,0,4.4-4.58.85.83-3.2,3.1,1.27-.1a4.37,4.37,0,0,1,4,2.06,8.55,8.55,0,0,1,1.1,4.66"/>
    <path class="cls-1" d="M242.26,410.35l0,1.18H240.6a1.93,1.93,0,0,1-1.71-1.15,5.59,5.59,0,0,1-1.46,3.57,4.82,4.82,0,0,1-3.31,1.57l-.55-1.14a3.84,3.84,0,0,0,3-1.27,4.51,4.51,0,0,0,1.1-3.09l0-5.2h1.27l0,3.67.57,1.38,1,.48Z"/>
    <path class="cls-1" d="M251.94,403.31h-1.35V401.9h1.35Zm-1.12-2h-1.36v-1.43h1.36Zm-1.12,2h-1.39V401.9h1.39Zm5.85,6a2.33,2.33,0,0,1-2.44,2.43l-1.48-.31-1-1.18a2.16,2.16,0,0,1-2.31,1.46l-1.45-.28-.79-.77v.83h-4.16v-1.18h2.92v-2.88c0-.57,0-1.28,0-2.13h1.27v3.22a1.89,1.89,0,0,0,2.17,2.05,1.16,1.16,0,0,0,1.25-1.26c0-.39,0-1.73,0-4h1.27c0,.7,0,1.77,0,3.22l.67,1.55,1.58.5a1.21,1.21,0,0,0,1.31-1.26c0-.34,0-1.85-.06-4.54h1.28c0,2.9,0,4.41,0,4.54"/>
    <path class="cls-1" d="M270.7,410.35a5.15,5.15,0,0,1-1.43,3.66,4.64,4.64,0,0,1-6.89,0,5.13,5.13,0,0,1-1.43-3.68c0-.46-.05-1.2-.08-2.24h1.27c0,.38,0,1.13,0,2.26a3.9,3.9,0,0,0,1.07,2.76,3.47,3.47,0,0,0,2.58,1.14,3.35,3.35,0,0,0,2.57-1.16,3.86,3.86,0,0,0,1.07-2.77l0-1.06h-4.58c-.13-3.13.84-4.7,3-4.7a2.68,2.68,0,0,1,2.5,1.83l-1,.4-1.39-1.08-1.38.77-.37,1.61h4.51Z"/>
    <path class="cls-1" d="M282.65,411.53h-9.74l.38-1.18h5a6.08,6.08,0,0,0-.9-3.17c-.52-.82-1.07-1.23-1.68-1.23v-1.14a3,3,0,0,1,2.42,1.36,7.93,7.93,0,0,1,1.35,4.18h3.14Z"/>
    <path class="cls-1" d="M291.78,411.53h-9.56l0-1.18h8.15a5.18,5.18,0,0,0-1.12-3.37,3,3,0,0,0-2.39-1.21,5.21,5.21,0,0,0-2.54.71l-.52-1.09a7.27,7.27,0,0,1,3-.77,4.26,4.26,0,0,1,4,2.25,9.33,9.33,0,0,1,1,4.66"/>
    <polygon class="cls-1" points="294.17 399.61 294.26 411.52 295.53 411.52 295.44 399.61 294.17 399.61"/>
    <path class="cls-2" d="M159.55.15h-.1l-1.18.19-1,.21-.3.07h0a17.47,17.47,0,0,0-2.28.79l-.09,0-.39.22a17.48,17.48,0,0,0-3.77,2.49c-3.6,3.05-6.41,7.31-8.82,11.65l.64-.23,1.07-.37.1,0c6.16-1.78,13.93-.24,21.08,1.55A33,33,0,0,1,173,8.93a17.05,17.05,0,0,1,3.75-1.69l.38-.07.12,0,2.08-.38.08,0,.29,0,.87-.05,1.1,0h.11A22.22,22.22,0,0,1,188,8h0c-8.53-3.57-19.31-9-28.51-7.88m46.08,234.09,1.7.66-1.64-.75Zm48.32-6.5-1.23.4-.44.12-.67.12-.55.15-1.64.18c-5.12.42-11.66-.83-17.81-2.13-3,3.59-6.3,7-10.25,8.8l0,.05-1.45.56-.32.06a14.72,14.72,0,0,1-3.87.68h-1.3l-.4-.05-.69,0-.55-.07-1.52-.38a21.7,21.7,0,0,1-2.67-.84c7.67,3.07,17,7.65,24.5,8.23l1.72.14.64,0,.73-.05.44-.06,1.39-.16.05,0A16.33,16.33,0,0,0,242.1,242l.32-.11,1.44-.93.06,0c4.53-3.08,7.82-8.22,10.65-13.38l-.58.25Zm62.51-124.23a13.14,13.14,0,0,1,0,2.66l0,.41-.05.39c-.77,5.88-4.85,12.16-8.59,17.89,3.26,5.39,5.89,11,5,16.07a21.82,21.82,0,0,1-1.56,4.87,19,19,0,0,1-2,3.12c5.54-6.38,13.53-13.75,15.87-21.45l.13-.38.12-.46a21.72,21.72,0,0,0,.5-2.83v-1.89c.11-6.31-4.48-12.6-9.43-18.4M244.56,3.34a28.16,28.16,0,0,0-3.31-1.94,14.55,14.55,0,0,0-2.11-.72l-.23-.06-.22-.07L238,.37,236.5.15l-.26,0-1.05,0h-.93l-.95,0c-4.15.29-8.93,1.82-13.69,3.61a19.75,19.75,0,0,1,2.87,1.11c5.85,2.77,10.17,8.71,13.9,14.12a37.68,37.68,0,0,1,11.54-1.21l.85.11h.11l.42.05.36.09.92.21.25.06,1.29.4.59.29.21.07.19.11,1.79.95a30.19,30.19,0,0,1,2.67,2.25,20.36,20.36,0,0,1,2.76,3.46c-4.2-7.16-8.27-17.17-15.78-22.46M305,175.62l-.64,1,0,.07-.64.83a15.17,15.17,0,0,1-2.83,2.66c-4,3.11-9.76,5.4-15,7.49-.29,4.44-1,8.84-3,12.59a14.7,14.7,0,0,1-2.14,3.28h0l-.3.3-1.38,1.33-.92.73h-.06l-.89.58a14.41,14.41,0,0,1-3.44,1.54c-.77.24-1.53.44-2.33.65h0c7.27-1.93,17.48-3.35,24.36-7a15,15,0,0,0,3.45-2.3l.84-.73,0-.06.87-.94,1.25-1.71.24-.38a16.68,16.68,0,0,0,1.76-3.94c1.61-5,1.42-10.64.82-16.07h0M302.66,48.29l-.3-.37-.1-.17c-3.67-4.63-10.65-7.11-17.63-9,4.68,5.7,4.72,14.58,4.72,22.36,5.68,2.47,10.94,5.46,13.32,9.71l.06.15.25.39.52,1.09a17.37,17.37,0,0,1,1.2,7.93c.88-9.44,4.31-22.35-1.25-31l-.79-1.07M107.42,184a38.34,38.34,0,0,1-9.61-5.66,14.73,14.73,0,0,1-5.63-10,19.77,19.77,0,0,1-.24-4.16c-.59,8.05-3.1,18.95-.24,27.44a16.14,16.14,0,0,0,7.92,9.78c3.87,2.36,8.64,3.77,13.36,4.84a15.34,15.34,0,0,1-2.33-3.48c-2.86-5.38-3.11-12.45-3.23-18.79M92,163.3l0-.41h0l0,.41M178.4,240h0l-.5-.13-.72-.24-.66-.2-.94-.38,0,0c-6-2.59-10.83-8.29-15.05-13.57a33.71,33.71,0,0,1-12.3.65l-.27,0c-.76-.16-1.46-.33-2.15-.54l-.33-.14-.62-.19-.32-.15-.34-.17-1.6-.84-.07-.05,0,0-.42-.31-.6-.4-.5-.4-.73-.62,0,0a23.84,23.84,0,0,1-3.66-4.39c4.36,7.38,9,18.3,16.95,23.47l.06.05.9.52.65.37.7.35.54.27h.13l1.89.64.36.12.4.09.7.13.34,0a19.63,19.63,0,0,0,2.47.19h.19c5.23,0,10.71-1.8,15.95-4l-.23-.05ZM83.25,109l0-.2-.12-.77a13.78,13.78,0,0,1,0-5l.52-2.11a15.74,15.74,0,0,1,3-5.5c-6,7.24-15.42,16.1-16.4,24.66a17,17,0,0,0-.16,2.4,15.61,15.61,0,0,0,.92,5.37l.26.77.1.21c1.7,4.24,4.94,8.45,8.37,12.44l-.1-1.26c-.34-6.39,4.32-13.78,8.52-20.35-2.16-3.58-4.06-7.22-4.82-10.7M135.4,216l.15.24-.1-.16ZM123.93,35.65h-.06m-27,9.18-.59.46-.63.49-.4.4a16.42,16.42,0,0,0-2.71,3.22h0l-.07.14-.56,1-.62,1.24v.07C89,57.1,89.27,63.46,90,69.61l1.2-1.85.31-.4.5-.56.47-.5.34-.31c4-3.88,10.36-6.78,16.34-9.39.3-4.93,1.1-9.9,3.58-13.77l0,0,.74-1.06.64-.74.09-.15h0a15,15,0,0,1,2.9-2.49l.43-.27.63-.36.62-.32.37-.17a23.7,23.7,0,0,1,3-1.17c-8,2.19-18.53,4.06-25,8.53l-.39.23"/>
    <path class="cls-3" d="M143.43,15.15l-.11,0-1.07.37-.65.23c-3.64,6.71-6.43,13.58-9.92,16.43l-.88.63a27.71,27.71,0,0,1-6.87,2.79c9.34-2.36,21.8-1.52,27.39-3.94l.87-.4c3.88-2.22,7.57-8.8,12.31-14.6-7.15-1.79-14.92-3.33-21.07-1.55M160.5,225.43c4.22,5.28,9.07,11,15.05,13.57h0l1,.4.65.2.71.24.51.13,0,0h.1l.25.05c7.8-3.33,15-7.46,19.52-7.49a23,23,0,0,1,7.3,1.67l.09-.09c-9-4.14-19-12-24.56-12.91-4.43-.75-12.39,2.49-20.63,4.19m62-220.59-2.85-1.11c-8.4,3.14-16.76,7.19-21.56,7.19-2.15,0-4.94-.87-8.1-2.11,9.83,4.21,19.62,13.35,25.32,14.31,4.5.75,12.93-2.32,21.1-4.15-3.74-5.42-8-11.36-13.91-14.13m9.14,221.74c6.14,1.29,12.68,2.55,17.8,2.13l1.64-.18.54-.15.68-.12.44-.12,1.22-.4h0l.58-.25c3.57-6.54,6.36-13.17,9.78-15.86a21.85,21.85,0,0,1,7.13-2.93v0c-9.43,2.19-22.22.7-27.36,3.51-3.88,2.13-7.72,8.57-12.49,14.4m84.84-123.07c-4.88-5.74-10.1-11-11.42-15.2a17.94,17.94,0,0,1-.44-6.66c-1,9.66-7.13,20.07-6.36,25.91.59,4.42,5.56,10.7,9.56,17.3,3.74-5.73,7.81-12,8.58-17.89l.06-.39,0-.41a13.14,13.14,0,0,0,0-2.66m-8.71,47.23c-6.47,7.13-17.39,13-20.05,18.25-2,3.92-1.33,11.3-1.84,18.67,5.27-2.09,11-4.38,15-7.5a14.79,14.79,0,0,0,2.83-2.65l.65-.83v-.07l.68-1,0-.05c-.79-7.43-2.36-14.41-1-18.67a19.24,19.24,0,0,1,3.69-6.16M188.07,8h0l.62.24L188.07,8M107.41,184c.13,6.34.38,13.41,3.24,18.79a15.34,15.34,0,0,0,2.33,3.48c7.69,1.75,15.27,2.63,18.75,5.35A17.85,17.85,0,0,1,135.4,216h0c-4.79-8.45-6.61-19.58-10.45-23.79-2.92-3.2-10.43-5.15-17.56-8.19M289.34,61.13c0-7.78,0-16.66-4.71-22.36-7.68-2.1-15.46-3.5-19.06-6.32a20.74,20.74,0,0,1-4.5-5.45c4.91,8.64,5.61,20.67,9.63,25.11,3.05,3.34,11.19,5.76,18.64,9M109.15,56.6c-6,2.62-12.35,5.51-16.33,9.39l-.35.31-.47.5-.5.56-.31.39L90,69.61c.82,7,2.29,13.65,1.35,17.89L90.85,89a24,24,0,0,1-3.5,5.45c6-7,16.5-12.94,19.72-18.12l.62-1.26c1.65-4,1-11.27,1.46-18.43M88.08,119.65c-4.2,6.57-8.88,14-8.52,20.35l.07,1.26c5,5.84,10.4,11.27,11.85,15.54a17.64,17.64,0,0,1,.56,6.09h0c.91-9.64,6.77-20.07,5.85-25.82-.72-4.42-5.77-10.77-9.83-17.42"/>
    <path class="cls-3" d="M170.75,36.07h-.09l-.82.15-.49.1c-3.55,4.51-6.46,9.25-9.42,10.94l-.72.34a16.16,16.16,0,0,1-2,.69c7.35-1.28,18.28,2.53,23.37,1.68l.69-.17c3-.84,6.51-4.36,10.6-7.46-6.26-2.69-14.44-7.06-21.11-6.27m44.48,158c-3,.77-6.6,4.42-10.74,7.54,5.67,2.05,12.88,5.47,18.42,5.92l1.2.06.48,0,.49,0,.31,0,1-.14,0,0,.47-.1c3.45-4.4,6.33-9,9.23-10.53a9.24,9.24,0,0,1,2.72-.89h0l-1.66.25c-7.3.58-17.41-3.2-21.93-2m38.44-23.11c-2,2.31-2.77,7.16-4.2,12,5.14-1.49,12.57-2.41,17.6-5a13.25,13.25,0,0,0,2.41-1.63l.57-.53.06,0,.59-.68,0,0c.34-5.61,0-11,1.57-14l1.28-1.88c-5.29,5.46-16.63,7.92-19.91,11.8M169,189.56c-2.88-1.22-8.64-.42-14.44-.49,3.17,5.21,6.53,13.2,12.26,16.88l0,0,.64.4.47.24.48.26.37.17h0l.08,0,.15.07c6.2-1.49,12.09-3.66,15.41-3.15a14.14,14.14,0,0,1,4.07,1.52l0,0-.67-.35c-6.74-3.55-14.35-13.6-18.9-15.58m112.44-79.27,0-1.94c-.89,7.93-9.19,15.73-9.74,20.79-.32,3.05,1.79,7.93,3.41,13,3.83-4.82,10.66-10.6,12.48-16.6l.08-.28.05-.33.37-2c-2.91-4.84-6.15-9.34-6.62-12.66m-50.83-72.1-2-1.18c-6.62,1.29-13.3,3.28-16.87,2.68a11.11,11.11,0,0,1-2.43-.78h0c7.41,3.91,13.7,14.1,18.13,16,2.85,1.24,8.63.77,14.38.83-2.92-5.14-5.47-13.52-11.18-17.52m50.85,69.67v0ZM272.44,94c.49-6.53,3.82-16.34.05-22.94-5.42-2.49-11-4.49-13.34-7l-.89-1.17h-.05c3.68,7.24,1.16,17.79,3.57,22.2,1.47,2.69,6.21,5.61,10.66,8.93M126.66,67.66l-.41.34-.44.33-.27.27-1.14,1.21c-.23,5.3,0,10.4-1.22,13.45l-.51,1-.7,1h0c5-5.12,15.84-7.71,19.54-11.33l.66-.77c1.75-2.48,2.56-7.38,4-12.17-5.81,1.74-14.27,3.08-19.2,6.5l-.29.16m-2.73,83.4c-.47,5.77-2.79,13.85-.68,20a10.78,10.78,0,0,0,1.27,2.85c5.52,2.28,11,3.83,13.24,6.28l.92,1.23c-3.51-7.22-2.16-17.93-4.5-22.18-1.39-2.59-5.93-5.11-10.25-8.22m.57-35.58c.25-3.11-2.09-8.15-3.83-13.3-4.11,5.33-12,12-12.69,18.55l-.11.94c3,4.93,6.31,9.6,6.87,13l0,1.64c.92-8,9.32-15.77,9.72-20.79"/>
    <path class="cls-2" d="M200,37.85a15.33,15.33,0,0,1,6.62-.08l1.93.73c-6.29-3.18-15.41-11.18-23.94-11.56h-.1l-.89,0-.75.05-.21,0h-.06l-1.75.29-.08,0-.31.07a11.23,11.23,0,0,0-3.09,1.4,30.6,30.6,0,0,0-8,7.54l.5-.09.83-.15h0c6.7-.8,14.89,3.58,21.15,6.26A26.27,26.27,0,0,1,200,37.85m26.43,169.48-1,.14-.3,0-.49,0-.48,0-1.21-.07c-5.53-.44-12.74-3.85-18.41-5.91-2.84,2.14-5.92,4.07-9.25,4.71a12.63,12.63,0,0,1-6.62-.78l0,0c5.86,2.94,13.89,9.21,20.35,11l1.26.3.47,0,.56.08h.32l1,.05h0a11.56,11.56,0,0,0,3.22-.59l.27,0,1.15-.49h.07c3.71-1.76,6.79-5.16,9.52-8.64l-.46.11Zm43.72-31.66-.05,0-.57.53a12.83,12.83,0,0,1-2.42,1.63c-5,2.64-12.46,3.54-17.59,5a24.36,24.36,0,0,1-4.54,9.17,13,13,0,0,1-6.11,3.68h0c5.59-1.15,15.25-.5,21.77-2.67a10.36,10.36,0,0,0,2.91-1.19l.7-.42.05-.05.75-.6,1.14-1.09.25-.23a11.9,11.9,0,0,0,1.76-2.73c1.84-3.49,2.38-7.71,2.63-11.81l-.05,0-.6.67m11-71.77,0,.14.08.29.22.88a11.77,11.77,0,0,1,.08,2.66c.85-7,7.18-18.38,3.63-26.66l-.44-.86-.18-.34-.06-.08c-2.13-3.94-7-6.62-12-8.91,3.77,6.6.45,16.41-.05,22.94,3.94,3,7.65,6.2,8.66,9.94M168.87,207.05h0l-.37-.17-.47-.26-.48-.23-.64-.41,0,0c-5.73-3.69-9.08-11.68-12.25-16.88a26.13,26.13,0,0,1-9.86-1.66l-.18-.07-1.46-.78-.2-.12-.39-.22-.23-.18-.2-.19-1-.87-.07,0h0l-.25-.3-.35-.41-.27-.37-.46-.57v0l-.24-.35c2.85,5.81,4.69,16.43,10.75,22l.06.05.56.53.48.34.48.36.35.21v0l.08,0,1.31.69.28.15.26.09.51.15.26.12,1.8.45.22,0c3.79.65,8.07,0,12.22-1l-.11-.07-.09,0M251.6,57l.55.22.1,0,.27.06.24.13.6.32.13.06.92.56.38.28.1.1.11.1,1.13,1,1.38,1.82c-3.17-5.76-4.81-16.11-10.35-21.82L245,38l-1.46-.79-.2-.08-.13-.1-.47-.19-1.09-.35-.14,0-.84-.18-.32,0-.24-.07H240l-.75-.08a39,39,0,0,0-10.59,1l2,1.19c5.72,4,8.27,12.38,11.18,17.51A33.19,33.19,0,0,1,251.6,57M151.29,51.19l0,0,.71-.62.55-.43.13-.07h0a13.22,13.22,0,0,1,2.48-1.28l.37-.09.36-.11c-6.72,1.36-17.95,1.42-23,3.61l-.32.14-.49.28-.54.28-.35.24a10.88,10.88,0,0,0-2.4,2.06l0,0-.1.08-.51.63-.61.86v0c-2.33,3.65-2.93,8.39-3.15,13l1.14-1.2.28-.26.44-.33.4-.35.29-.16c4.94-3.42,13.39-4.77,19.2-6.5,1.09-3.69,2.56-7.35,5.14-9.81m107,11.64-.24-.3.19.3ZM209.34,38.91l-.25-.14.23.14ZM122,85.26l-.3.36.3-.32Zm2,65.8a29.52,29.52,0,0,1-6.88-6.33,10.65,10.65,0,0,1-2.34-7.27c-.81,6-5.37,15.31-4.12,23a12.19,12.19,0,0,0,4.63,8.23,34.83,34.83,0,0,0,9.3,5.22,11.24,11.24,0,0,1-1.26-2.85c-2.12-6.19.2-14.27.67-20M118.76,93l0-.15,0-.55a11.28,11.28,0,0,1,.84-3.53l.76-1.42,1-1.41c-4.73,5.31-16,12.35-17.94,18.86l-.44,1.75a12.31,12.31,0,0,0,0,4.11l.11.62,0,.16c.72,3.33,2.59,6.87,4.66,10.26l.1-.94c.7-6.56,8.58-13.22,12.69-18.55A29.11,29.11,0,0,1,118.76,93m171.79,34.45c-.76-1.51-1.57-3-2.45-4.46l-.36,2-.05.33-.1.28c-1.81,6-8.62,11.79-12.47,16.6,1.51,4.66,2.61,9.49,1,13.13a15.45,15.45,0,0,1-1.65,2.91c4.61-4.81,13.93-10.28,17.13-16.33l.12-.3.13-.33.74-2c.7-3.2-.26-8.22-2-11.75"/>
    <path class="cls-4" d="M168.5,189.15l-.06,0c-6-4.4-8.41-14.2-11.86-17.24-3.1-2.7-12.41-3.22-18.13-7.13a9.35,9.35,0,0,1-3.84-4.54c1.91,5.18.62,16.34,5.1,23.05v0l.45.56.27.38.35.4.25.31h0l.07,0,1,.87.21.19.22.18.4.22.19.12,1.47.78.17.08c7.81,3.36,19.76.17,24.32,2.13l.3.17-.33-.21-.52-.37m65.09-13c-3.73,2.58-6.77,12.56-12.9,16.34a12.77,12.77,0,0,1-3.5,1.24l-.79.08h-1.05l-1-.12c-6.54-.9-15.47-7.34-19.79-7.58s-13.33,5.36-20.68,4.9h-.2l-1.39-.19-.22-.05-.38-.09-.24-.07-.2-.08-1.08-.4h0l-.08,0,0,0c4.6,2.75,11.66,11.76,17.94,15.07,2.75,1.67,6.63,1.26,7.3,1.14,8.12-1.6,15-10.91,20-12.26,4.52-1.2,14.63,2.59,21.93,2a12.51,12.51,0,0,0,7.77-3.95c5.44-6.18,5.38-17.25,8.74-21.17l.54-.6-2,1.16c-5.78,2.67-15.3,2.38-18.62,4.7m38.12-47c.6-5.7,11.16-15,9.72-23.94l-.23-.87-.08-.29,0-.1c-2.18-8-16.54-13.83-19.32-18.91l-.23-.49c2.79,6.9-1.83,17-.68,21.61,1.26,5,11.76,12.8,11.27,20.06l-.09,1.07-.38,1.63-.06.25-.09.23c-2.3,6.34-11.65,11.84-13.24,16.16s1.73,13.69-.86,20.38a14.19,14.19,0,0,1-1.12,2.24l-.17.19-.78.94-.39.41c4.47-3.38,14.72-6,19.21-11.25a14,14,0,0,0,1.93-3.21c3.4-7.62-5-20.23-4.39-26.11m-147.31-13c1.61-6.21,10.38-12.24,12.47-16.61l.32-.84c1.29-4.54-2.32-14.42.85-20.78v0l.4-.71.33-.5.08-.11h0l1.68-1.78.25-.21.35-.28.37-.21.22-.17c5.56-3.37,16.1-3.27,20.09-5.51l.53-.35c3.46-2.56,5.88-11.82,11.41-16a11.75,11.75,0,0,1,2.24-1.3l.26-.11.06,0,1.28-.38h.08l.18,0,.53-.08.27,0c-5.67,0-15.26-3-21.8-1.75l-.3.07-.48.11-.52.17-.38.11A12.28,12.28,0,0,0,152.7,50h0l-.12.07-.55.43-.72.61v0c-5.92,5.65-6,17.59-9.13,22l-.66.77c-4.15,4.06-17.35,6.8-21.09,13.39l-.76,1.41a11,11,0,0,0-.84,3.53l0,.55,0,.1c-.15,7.47,6.16,17.54,5.74,22.56l-.1.67m10.65,22.67c-1.16-4.25-8.39-10.7-10.42-16.83l0-.08-.14-.5a8.89,8.89,0,0,1-.4-3.15l.21-1.36,0-.29c-1.38,5.1-8.92,12.54-9.54,20a10.87,10.87,0,0,0,2.28,8.07c4.62,6.46,14.85,10.4,17.13,14.55l.43.94-.43-1.36c-1.86-6.8,2.07-15.77.87-20M239.68,72.39c3.83,3.32,16.54,4.2,20.64,10l.1.13.15.2.42.66.46.93c-1.94-4.94.46-15.58-3.79-22.47l-1.53-2.05-1.12-1-.13-.1-.07-.07-.41-.31-.85-.53-.18-.09-.62-.32-.25-.13-.19-.06-.15-.05-.57-.21c-7.19-2.49-19.52-.07-24.14-2.06l-.64-.34,1.46,1c5.8,4.57,8,13.78,11.41,16.8m-17.8-19.06h.8l.31.06.61.07h.12l.9.18.34.13.14,0,.16,0,1.17.47.12.08c-4.9-3-11.88-14.34-20-16.63a15.34,15.34,0,0,0-6.62.08c-7.65,2.28-13.91,10.57-18.7,11.95l-.69.16-.45.07c7.61.16,16.68,7.45,21.15,7.69s14-4.25,20.61-4.39"/>
    <path class="cls-4" d="M298.24,107.57c-1.07-7.79,10.15-23.66,5.26-35.1l-.53-1.1-.24-.38-.07-.15C297.22,61,276.08,58,270.7,52.11c-4.87-5.34-4.87-21.61-13.11-29.77a31.11,31.11,0,0,0-2.68-2.25l-1.79-1-.2-.09L252.8,19l-.67-.31-1.3-.4-.25-.05-.92-.21-.36-.08-.3,0-.21,0-.86-.08c-7-.69-16.46,2.52-23.91,4.34,1.06-.19,2-.38,3-.46l.74,0h.2l.17,0,.46,0,.87,0,.22.06,1.24.21.52.09.2.07.19,0,1.74.61c.07,0,1.94,1,2.72,1.58,8.57,6.07,12.21,19.87,17.32,23.89,5.67,4.42,23.86,4.69,30.13,12.68l.12.12.25.31.66.91c6.07,9.47-.39,25.48,1.69,32.26,2.15,7,17,17.1,16.77,27.45l0,1.56a11.6,11.6,0,0,1-.42,2.34l-.09.34-.09.31c-2.81,9.2-14.94,18-16.86,24.23-1.55,5,1.42,14.68.71,23.36A15,15,0,0,1,287.7,169c3.26-6.45,18.83-13.71,23.52-23.2a22.45,22.45,0,0,0,1.57-4.86c2-11.22-13.45-25.34-14.55-33.36m-14.23,75-.18.29-1,1.41-.71.77-.06.05-.68.61a13.07,13.07,0,0,1-2.85,1.89c-8.05,4.24-20.87,5-25.4,8.53-3.9,3.05-7,11.94-12.07,18.55a13,13,0,0,1,3.07-2.51c5.6-3,20.18-1,29.7-4.15a15.9,15.9,0,0,0,3.44-1.55l.86-.57.09,0,.91-.73,1.36-1.33.32-.29h-.06a14.35,14.35,0,0,0,2.15-3.29c4-7.61,2.85-18.12,3.53-25.48a25.73,25.73,0,0,1-.94,4.57,14.34,14.34,0,0,1-1.45,3.25m-48.27,37.32-1.17.73-.3.08a13.23,13.23,0,0,1-3.35,1.21h0l-1.13.15-.36,0-.6.05-.53,0-1.42-.13c-9.4-.75-22.49-8.56-28.64-8.56s-18.58,9-29.1,8.95l-.25,0-2-.2-.29-.06-.56-.07-.35-.05-.31-.13-1.54-.49-.09-.06h0l-.43-.19-.59-.3-.53-.31-.74-.41-.06,0c-8.93-5.82-13.08-20.06-18.21-24.11-4.63-3.59-17.69-3.59-26.13-8.69a13.36,13.36,0,0,1-6.52-8.07c-3.16-9.51,1.46-22.8-.58-28.77S97.11,136.2,93.68,127.63l-.09-.18-.23-.62a14,14,0,0,1-.77-4.44l.2-2c1-9.32,14.13-19,16.88-25.64l.4-1.18c1.47-6.56-3.94-20.09.05-29.35V64.2l.51-1.05.46-.76,0-.07,0-.08a15.84,15.84,0,0,1,2.26-2.66l.34-.3.51-.44.47-.35.34-.22c7.66-5.27,22.14-6.16,27.6-9.67l.71-.51c4.74-3.9,7.9-16.79,15.45-23.12a14.9,14.9,0,0,1,3.07-2l.33-.15.11,0,1.83-.62,0,0,.26-.07.78-.15,1-.15.08,0c11.07-1.33,24.93,8.54,31.59,8.54,5.18,0,15.52-5.49,24.21-7.7a20.47,20.47,0,0,1-6.82.57C208,21.89,194.07,7.29,181.78,6.7h-.07l-1.14,0-.87.06h-.26l-.12,0-2.08.37h-.07l-.43.09A18.07,18.07,0,0,0,173,8.93c-9.41,5.5-14.9,19-20.81,22.36l-.87.41c-6.63,2.85-22.79,1.2-32.07,5.54l-.38.17-.62.32-.64.36-.42.28a13.56,13.56,0,0,0-2.91,2.49h0l-.08.15-.65.74-.74,1,0,0c-6,9.39-2.21,25.32-5,32.19l-.62,1.27C102.87,83,86.44,91,83.59,100.92L83.08,103a13.72,13.72,0,0,0,0,5l.12.77,0,.21c2.17,9.94,13.56,21.27,14.66,28.11s-7.46,20.35-5.74,31.3a14.71,14.71,0,0,0,5.64,10c8.25,7.09,22.82,9.09,27.16,13.86,4.89,5.33,6.51,22,15.2,30l0,0,.74.62.5.4.59.41.43.31,0,0,.06.05,1.59.85.35.15.32.15.62.2.32.13a14.83,14.83,0,0,0,2.16.54l.28,0c11.44,1.94,26.24-6,32.92-4.85s20,12.39,30.09,14.94l1.52.38.54.07.69.05.41,0h1.3a14.54,14.54,0,0,0,3.88-.68l.31-.06,1.44-.56,0,0c7.31-3.43,12.59-12,17.25-17.92a19.13,19.13,0,0,1-2.81,2.39l0,0"/>
    <path class="cls-5" d="M293.56,334.49h-5.27v-1a6.59,6.59,0,0,1,.22-2.1l1-.41a18.86,18.86,0,0,1,3.74.65l.42.07.77-.94v-.95l-.69-1.11a27.84,27.84,0,0,0-4.15-.52c-1,0-2.72.15-3.59,1.26-.73.87-1,1.66-1,4.23v.84h-.43c-.82,0-1.22.34-1.22,1.1v.9c0,.78.22,1.24,1.22,1.24h1.27l.14,0h1l.33,0h6.26c1.12,0,1.12-.81,1.12-1.24v-.9a1,1,0,0,0-1.12-1.1"/>
    <polygon class="cls-5" points="246.03 287.35 245 288.38 240.85 288.38 239.83 287.35 239.83 283.19 240.85 282.16 245 282.16 246.03 283.19 246.03 287.35"/>
    <polygon class="cls-5" points="237.32 287.35 236.26 288.38 232.13 288.38 231.13 287.35 231.13 283.19 232.13 282.16 236.26 282.16 237.32 283.19 237.32 287.35"/>
    <polygon class="cls-5" points="279.61 287.35 278.57 288.38 274.45 288.38 273.43 287.35 273.43 283.19 274.45 282.16 278.57 282.16 279.61 283.19 279.61 287.35"/>
    <path class="cls-5" d="M201.89,310.28h0c0,3.65-.57,6.74-2.45,9-1.3,1.53-3.9,2-5.62,2a7.69,7.69,0,0,1-5.7-2.11c-1.76-2-2.37-5.5-2.37-8.86v0c0-3.66.61-6.72,2.49-9,1.37-1.58,3.87-2,5.58-2a7.68,7.68,0,0,1,5.7,2.12c1.8,2,2.37,5.48,2.37,8.85Zm77.75-14.78c0-1.57-.27-2-1.45-2h-2.4c-2.11,0-2.38.17-2.38,2v11.13a19.37,19.37,0,0,1-1.08,6.36c-2,4.28-7.71,4.81-14.7,4.89-5.26-.06-9.8-.36-12.62-2.28a28.57,28.57,0,0,0,1.08-8.85l0-11.25c0-1.57-.26-2-1.5-2h-2.37c-2.09,0-2.37.17-2.37,2v11.13a19.92,19.92,0,0,1-1.06,6.36c-2,4.28-7.72,4.81-14.74,4.89-5.54-.06-11.45-.86-14.19-3.05a6,6,0,0,1-1.84-2.35l0,0c0-.69.05-1.39.05-2.15,0-6.11-.93-9.58-3.44-12.64s-6.1-4.12-10.78-4.12-8.41,1.2-10.85,4.12-3.4,6.53-3.4,12.64a29.63,29.63,0,0,0,.44,5.77c-2.85,1.45-7,1.68-11.65,1.74-7-.08-14.32-.61-16.36-4.89a20.8,20.8,0,0,1-1-6.36v-22.5c0-1.79-.28-2-2.39-2h-2.36c-1.22,0-1.49.43-1.49,2v22.6l0,0c0,11.79,4.4,17.45,22.25,18v0h2.83v0c5.75-.18,9.9-.89,13-2.16l.2.29c2.38,2.85,5.95,4.17,10.85,4.17s8.49-1.32,10.78-4.17l1.42-2c3.36,2.19,9.07,3.69,16.57,3.91v0h2.84v0c7.41-.22,12.28-1.35,15.4-3.43,3.07,2.08,7.91,3.21,15.35,3.43v0H259v0c17.86-.56,20.65-6.22,20.65-18Z"/>
    <path class="cls-5" d="M106.75,382.8h-2.84c-1.78,0-2.13-.29-2.13-2V339.25c0-1.68.78-1.76,2.13-1.76h2.84c1.5,0,1.71.62,1.71,1.76v41.57c0,1.55-.5,2-1.71,2"/>
    <path class="cls-5" d="M140.75,382.8h-2.37c-2.09,0-2.36-.13-2.36-2V362.59c0-3.46-.13-5.58-.64-6.24s-1.32-1-3.1-1c-3.66,0-6,1.79-9.5,4.54v21c0,1.55-.33,2-1.46,2h-2.38c-2.12,0-2.38-.13-2.38-2V353.09c0-1.63.32-1.83,1.76-1.83h3c1.05,0,1.46.81,1.46,1.83v1.09c2.32-1.71,5.15-4,10.33-4,7.45,0,9.17,4.66,9.17,8.73v21.91c0,1.55-.37,2-1.53,2"/>
    <path class="cls-5" d="M179.12,382.8h-2.64c-2.08,0-2.33-.13-2.33-2V353.09c0-1.63.33-1.83,1.78-1.83h3.19c1,0,1.47.81,1.47,1.83v27.73c0,1.55-.34,2-1.47,2"/>
    <path class="cls-5" d="M227.79,382.8h-2.4c-2.07,0-2.38-.13-2.38-2V362.59c0-3.46-.11-5.48-.6-6.24a2.09,2.09,0,0,0-1.9-1c-2.51,0-6.08,2.86-8.06,4.49v21c0,1.55-.32,2-1.49,2h-2.43c-2.11,0-2.3-.13-2.3-2V362.59c0-3.46-.17-5.48-.71-6.24a2,2,0,0,0-1.89-1c-2.52,0-6,2.86-8.08,4.49v21c0,1.55-.34,2-1.48,2h-2.38c-2.09,0-2.36-.13-2.36-2V353.09c0-1.63.35-1.83,1.76-1.83h3c1.09,0,1.48.81,1.48,1.83v1.17c2.1-1.6,5.63-4.08,10.32-4.08a5.79,5.79,0,0,1,6,4.47c2-1.41,5.78-4.47,10.85-4.47,4.6,0,6.6,3.45,6.6,8.73v21.91c0,1.55-.27,2-1.49,2"/>
    <path class="cls-5" d="M255.7,368.34c-1.61,0-3-.11-4.51-.11-7.56,0-8.92.79-8.92,5.32,0,3.74,1,5.31,3.4,5.31,2.66,0,7.25-2,10-4.34Zm4.77,14.46H258c-2,0-2.32-.13-2.32-2V379.4c-3.89,2.92-7.47,4.28-11,4.28-5.7,0-8.4-3.06-8.4-9.35,0-4.91,1.62-8.07,5-9.37q3.93-1.53,14.4-1.61a19.47,19.47,0,0,0-.67-6c-.39-1.12-2-1.86-3.8-1.86a46.83,46.83,0,0,0-10.38,1.28l-.82.13c-.53,0-.87-.42-.87-1.29v-2.35c0-1.23.2-1.63.94-1.78A68.82,68.82,0,0,1,251,350.14c2.69,0,6.79.49,8.68,2.83,1.61,2.07,2.3,3.91,2.3,10.84v17c0,1.55-.35,2-1.49,2"/>
    <path class="cls-5" d="M288.44,368.34c-1.63,0-3-.11-4.55-.11-7.5,0-8.86.79-8.86,5.32,0,3.74.91,5.31,3.37,5.31,2.65,0,7.27-2,10-4.34Zm4.75,14.46h-2.44c-2.07,0-2.31-.13-2.31-2V379.4c-3.93,2.92-7.46,4.28-11,4.28-5.74,0-8.4-3.06-8.4-9.35,0-4.91,1.61-8.07,4.93-9.37,2.62-1,7.45-1.56,14.43-1.61a19.75,19.75,0,0,0-.68-6c-.38-1.12-2-1.86-3.8-1.86a46.72,46.72,0,0,0-10.35,1.28l-.82.13c-.55,0-.89-.42-.89-1.29v-2.35c0-1.23.21-1.63.94-1.78a67.86,67.86,0,0,1,10.86-1.35c2.7,0,6.79.49,8.68,2.83,1.62,2.07,2.3,3.91,2.3,10.84v17c0,1.55-.34,2-1.49,2"/>
    <path class="cls-5" d="M157.18,372.72c0,3.74,1,4.9,3.37,4.86a27.78,27.78,0,0,0,4.82-.77c.59-.19,1.46-.14,2,2.42.4,2.23-.6,2.59-.95,2.81a26.67,26.67,0,0,1-6.38.95c-5,0-9-2.23-9-6.62l-.14-3.18v-17h-1.68c-1.55,0-1.77-.34-1.77-1.84v-1.56c0-1.14.8-1.56,1.77-1.56h1.68v-5.77c0-1.62.35-1.84,1.77-1.84h3c1.1,0,1.51.83,1.51,1.84v5.77h7.06c1.47,0,1.86.35,1.86,1.56v.95c0,2.18-.11,2.45-1.86,2.45H157.2Z"/>
    <polygon class="cls-5" points="180.64 342.66 179.57 343.69 175.42 343.69 174.43 342.66 174.43 338.53 175.42 337.5 179.57 337.5 180.64 338.53 180.64 342.66"/>
    <path class="cls-5" d="M134.87,318.38H117.52v-3.94c0-2,1.22-5,4.49-5a68.37,68.37,0,0,1,10.38.82l.84.12c.58,0,.85-.4.85-1.26v-2.51c0-1.22-.19-1.62-1-1.77a67.5,67.5,0,0,0-10.83-1.35c-6.26.15-11,4.58-11,11.48v3.44h-7.59c-1.56,0-2,.48-2,1.71v2.48c0,1.74.31,2.1,2,2.1h31.16c1.72,0,1.79-.76,1.79-2.1v-2.48c0-1.49-.62-1.71-1.79-1.71"/>
    <path class="cls-5" d="M293,282.19h-2.49c-1.35,0-2.11.08-2.11,1.76v38.73c0,1.7.36,2,2.11,2H293c1.24,0,1.68-.41,1.68-2V284c0-1.14-.17-1.76-1.68-1.76"/>
  </g>
</svg>
