<svg id="Layer_1" data-name="Layer 1" xmlns="http://www.w3.org/2000/svg" viewBox="0 0 850 482">
  <defs>
    <style>
      .cls-1 {
        fill: #ed6f31;
      }

      .cls-2 {
        fill: #1e7ab9;
      }

      .cls-3 {
        fill: #20a5de;
      }

      .cls-4 {
        fill: #f89833;
      }

      .cls-5 {
        fill: #7e3996;
      }

      .cls-6 {
        fill: #962a2a;
      }

      .cls-7 {
        fill: #ef383a;
      }

      .cls-8 {
        fill: #c3db63;
      }

      .cls-9 {
        fill: #72c057;
      }

      .cls-10 {
        fill: #3f878d;
      }

      .cls-11 {
        fill: #044651;
      }

      .cls-12 {
        fill: #f7fcfb;
      }
    </style>
  </defs>
  <g>
    <polygon class="cls-1" points="152.5 131.25 117.72 166.04 152.5 200.83 152.5 131.25"/>
    <polygon class="cls-2" points="117.71 96.46 82.93 131.25 117.71 166.04 117.71 96.46"/>
    <polygon class="cls-3" points="117.71 96.46 152.5 131.25 117.71 166.04 117.71 96.46"/>
    <polygon class="cls-4" points="152.5 131.25 187.29 166.04 152.5 200.83 152.5 131.25"/>
    <polygon class="cls-5" points="82.92 61.67 117.71 96.45 82.92 131.25 82.92 61.67"/>
    <polygon class="cls-6" points="117.71 26.88 82.93 61.66 117.71 96.46 117.71 26.88"/>
    <polygon class="cls-7" points="117.71 26.88 152.5 61.66 117.71 96.46 117.71 26.88"/>
    <polygon class="cls-8" points="187.29 26.88 152.51 61.66 117.71 26.88 187.29 26.88"/>
    <path class="cls-9" d="M187.29,26.88,167.94,7.63h0a22.18,22.18,0,0,0-30.78,0h-.07L117.71,26.88Z"/>
    <polygon class="cls-6" points="187.29 235.63 152.51 200.84 187.29 166.05 187.29 235.63"/>
    <polygon class="cls-7" points="187.29 235.63 222.08 200.84 187.29 166.05 187.29 235.63"/>
    <polygon class="cls-6" points="291.67 131.25 326.45 166.04 291.67 200.83 291.67 131.25"/>
    <polygon class="cls-1" points="326.46 96.46 361.24 131.25 326.46 166.04 326.46 96.46"/>
    <polygon class="cls-4" points="326.46 96.46 291.67 131.25 326.46 166.04 326.46 96.46"/>
    <polygon class="cls-7" points="291.67 131.25 256.88 166.04 291.67 200.83 291.67 131.25"/>
    <polygon class="cls-5" points="361.25 61.67 326.47 96.45 361.25 131.25 361.25 61.67"/>
    <polygon class="cls-2" points="326.46 26.88 361.24 61.66 326.46 96.46 326.46 26.88"/>
    <polygon class="cls-3" points="326.46 26.88 291.67 61.66 326.46 96.46 326.46 26.88"/>
    <polygon class="cls-8" points="256.88 26.88 291.66 61.66 326.46 26.88 256.88 26.88"/>
    <path class="cls-9" d="M256.88,26.88,276.23,7.63h0a22.18,22.18,0,0,1,30.78,0h.07l19.34,19.25Z"/>
    <polygon class="cls-2" points="256.88 235.63 291.66 200.84 256.88 166.05 256.88 235.63"/>
    <polygon class="cls-3" points="256.88 235.63 222.09 200.84 256.88 166.05 256.88 235.63"/>
    <polygon class="cls-8" points="256.88 235.63 222.09 200.84 187.3 235.63 256.88 235.63"/>
    <polygon class="cls-10" points="291.67 61.67 256.88 26.88 222.09 61.67 291.67 61.67"/>
    <path class="cls-9" d="M256.88,235.63l-19.36,19.24h0a22.15,22.15,0,0,1-30.78,0h-.07L187.3,235.63Z"/>
    <path class="cls-11" d="M372.1,184.47H360.86c-2.23,0-14.49.8-14.49,16.54v13.05l.49.48h14.23v3.55c0,3.82-.52,11.64-12,11.64s-11.86-7.82-11.86-11.64v-13.8l-.33-.44a13.75,13.75,0,0,0-5.18-1c-5.18,0-5.83,3.35-5.83,5.13v12.66c0,11.49,8.76,19.11,23.27,19.11s23.38-7.21,23.38-19.11V204.16l-.48-.51H356.91s0-1.65,0-2.9c0-2.08.37-5.69,4.26-5.69h11l.48-.49V185l-.48-.48"/>
    <path class="cls-11" d="M549.29,235.5H559.5L560,235V172.31l-.3-.46c-.35-.15-1-.35-1.83-.59a10.54,10.54,0,0,0-3.09-.44c-5.44,0-6,3.44-6,5.26V235l.49.51"/>
    <path class="cls-11" d="M454.3,214.33v11.58H444.21V214.33c0-3.83,4.5-3.83,5.05-3.83s5,0,5,3.83m82.59-42.88a11,11,0,0,0-3.14-.43c-5,0-5.66,3.36-5.66,5.09v37.32c0,9.26-4.43,12.48-11.66,12.48H505.87a16.63,16.63,0,0,0,1.34-3,26.84,26.84,0,0,0,1.37-8.79V189.73l-.24-.42a9.68,9.68,0,0,0-1.86-.73,10.92,10.92,0,0,0-3.13-.42,6.42,6.42,0,0,0-4.12,1.22,4.82,4.82,0,0,0-1.54,3.86v20.19c0,10.18-5.64,12.48-11.62,12.48h-6.52V204a21.06,21.06,0,0,0-1.82-9.06c-1.18-2.49-5.17-10.47-22.39-10.47-3,0-15.35,0-15.35,7.12a6.86,6.86,0,0,0,2.58,5.11h.64c.6-.48,4.24-3,12-3,12.55,0,13,6.24,13,8.66l0,23.59h-5.31v-13c0-9.24-10.27-9.65-13.62-9.65s-13.68.42-13.68,9.62v13H425.22v-7.74c0-3.51.27-19.56-24.2-19.56-3,0-15.35,0-15.35,7.12a7.16,7.16,0,0,0,2.61,5.15h.61c.62-.51,4.79-3,11.92-3,8.39,0,13,2.52,13,8.67v9.39H382.06l-.51.5V235l.51.49,134.79,0c14.68,0,22.15-8.51,22.15-21.4V172.58l-.26-.42a9.89,9.89,0,0,0-1.85-.71"/>
    <path class="cls-11" d="M508.34,176.33A5.33,5.33,0,1,1,503,171a5.32,5.32,0,0,1,5.31,5.31"/>
    <path class="cls-11" d="M365.84,249.28a5.32,5.32,0,1,1-5.31-5.31,5.3,5.3,0,0,1,5.31,5.31"/>
    <path class="cls-11" d="M343.34,249.28A5.32,5.32,0,1,1,338,244a5.3,5.3,0,0,1,5.31,5.31"/>
    <path class="cls-11" d="M404.89,298.73c-11.18,0-12.15-3.68-12.15-6.65,0-4.48,2.65-7.11,11.16-7.11a52.26,52.26,0,0,1,10.23.8V298a49.32,49.32,0,0,1-9.24.7m-3.86-40c-3,0-15.35-.09-15.35,7.12a6.9,6.9,0,0,0,2.59,5.12h.63c.63-.49,4.3-3,11.93-3,6.66,0,13.18,1.62,13.18,9.41a105,105,0,0,0-10.49-.55c-10.42,0-22,1.83-22,15.34,0,15.24,18.66,15,23.33,15a141,141,0,0,0,19.93-1.45l.42-.49V278.3c0-3.53.29-19.54-24.21-19.54"/>
    <path class="cls-11" d="M460.7,258.66c-9.29,0-13,4-14.18,5.12v-19.6l-.31-.49c-.31-.11-.9-.28-1.83-.57a10.66,10.66,0,0,0-3.08-.44c-5.38,0-6,3.51-6,5.25V305.4l.48.51H446l.49-.51V281.32c0-3.72,1.25-12.36,11.77-12.36,3.8,0,10.38.4,10.38,11.49V305.4l.54.51h10.18l.51-.51v-28c0-18.29-16.43-18.76-19.2-18.76"/>
    <path class="cls-11" d="M559.67,261a19.1,19.1,0,0,0-1.83-.57,10.3,10.3,0,0,0-3.12-.45c-5.42,0-5.92,3.4-5.92,5.23v40.19l.48.49h10.21l.51-.49V261.47l-.33-.46"/>
    <path class="cls-11" d="M349.26,258.75c-21.79,0-23.33,15.87-23.33,19.55v27.1l.51.51h10.21l.48-.51V280.88c0-12.52,9.68-11.92,12.13-11.92s12.14-.62,12.14,11.92V305.4l.49.51h10.2l.51-.51V278.3c0-7.8-4.49-19.55-23.34-19.55"/>
    <path class="cls-11" d="M559.71,249.28A5.32,5.32,0,1,1,554.4,244a5.3,5.3,0,0,1,5.31,5.31"/>
    <path class="cls-11" d="M527.74,282.93c0,7.74-5.12,14-13.29,14s-13.3-6.28-13.3-14,5.25-14.06,13.3-14.06,13.29,6.32,13.29,14.06m10.8-39.2c-.31-.11-.93-.33-1.83-.59a10.54,10.54,0,0,0-3.09-.42c-5.35,0-5.88,3.48-5.88,5.22v16.84a20.24,20.24,0,0,0-14.8-6c-11.9,0-23.37,8.87-23.37,24.21,0,13.67,10.34,24.21,24.72,24.21,4.19,0,24.58-1.26,24.58-26.37v-36.6l-.33-.46"/>
    <polygon class="cls-12" points="291.67 61.67 256.88 96.45 222.09 61.67 187.3 96.45 256.88 166.03 326.45 96.45 291.67 61.67"/>
    <polygon points="291.67 61.67 292.15 62.15 256.88 97.42 222.09 62.63 188.27 96.45 256.88 165.07 325.49 96.45 291.19 62.15 291.67 61.67 292.15 62.15 291.67 61.67 292.15 61.19 327.42 96.46 256.88 167 186.34 96.45 222.09 60.7 256.88 95.49 291.67 60.7 292.15 61.19 291.67 61.67"/>
  </g>
</svg>
