<svg xmlns="http://www.w3.org/2000/svg" viewBox="0 0 177.82 58.05">
  <defs>
    <style>
      .cls-1 {
        fill: #dbb027;
      }

      .cls-2 {
        fill: #6e609e;
      }

      .cls-3 {
        fill: #695c97;
      }

      .cls-4 {
        fill: #d1a825;
      }
    </style>
  </defs>
  <g id="Layer_2" data-name="Layer 2">
    <g id="Layer_1-2" data-name="Layer 1">
      <g>
        <path class="cls-1" d="M144.64,3.63a6.35,6.35,0,0,1-4.4-1.72,6.24,6.24,0,0,0-8.48,0,6.35,6.35,0,0,1-4.4,1.72A6.32,6.32,0,0,1,123,1.91a6.24,6.24,0,0,0-8.48,0,6.37,6.37,0,0,1-4.4,1.72,6.32,6.32,0,0,1-4.39-1.72,6.26,6.26,0,0,0-8.49,0,6.32,6.32,0,0,1-4.39,1.72,6.35,6.35,0,0,1-4.4-1.72A6.08,6.08,0,0,0,84.18.25V0a6.41,6.41,0,0,1,4.4,1.71,6.09,6.09,0,0,0,4.24,1.67,6.11,6.11,0,0,0,4.24-1.67,6.5,6.5,0,0,1,8.79,0,6.11,6.11,0,0,0,4.24,1.67,6.11,6.11,0,0,0,4.24-1.67,6.5,6.5,0,0,1,8.79,0,6.11,6.11,0,0,0,4.24,1.67,6.09,6.09,0,0,0,4.24-1.67,6.5,6.5,0,0,1,8.79,0,6.13,6.13,0,0,0,4.25,1.67v.25"/>
        <path class="cls-1" d="M177.82,9.3a6.35,6.35,0,0,1-4.4-1.72,6.24,6.24,0,0,0-8.48,0,6.48,6.48,0,0,1-8.79,0,6.24,6.24,0,0,0-8.48,0,6.48,6.48,0,0,1-8.79,0,6.26,6.26,0,0,0-8.49,0A6.32,6.32,0,0,1,126,9.3V9.05a6.11,6.11,0,0,0,4.24-1.67,6.5,6.5,0,0,1,8.79,0,6.22,6.22,0,0,0,8.48,0,6.5,6.5,0,0,1,8.79,0,6.23,6.23,0,0,0,8.49,0,6.5,6.5,0,0,1,8.79,0,6.09,6.09,0,0,0,4.24,1.67V9.3"/>
        <g>
          <path class="cls-2" d="M76.56,57.46V31.88a.38.38,0,0,1,.38-.38H95.15a.38.38,0,0,1,.38.38V57.46a.37.37,0,0,1-.38.37.36.36,0,0,1-.37-.37V32.25H77.31V57.46a.36.36,0,0,1-.37.37.37.37,0,0,1-.38-.37"/>
          <path class="cls-2" d="M105.55,57.46V32.3a.38.38,0,0,1,.37-.37h17.51a.38.38,0,0,1,.37.37V57.53a.38.38,0,0,1-.75,0V32.68H106.3V57.46a.38.38,0,0,1-.75,0"/>
          <path class="cls-2" d="M69.55,57.53V48.25h0v0a8.93,8.93,0,0,1,.5-2.87,4.65,4.65,0,0,1,1.17-1.86,3.3,3.3,0,0,1,2.32-.86h.08a4.59,4.59,0,0,1,1.58.77,4.93,4.93,0,0,1,2,3.29.38.38,0,0,1-.31.43.38.38,0,0,1-.43-.31A4.18,4.18,0,0,0,74.76,44a4.68,4.68,0,0,0-.92-.51l-.29-.11-.08,0h0l.09-.37v.38a2.56,2.56,0,0,0-1.81.66,4.62,4.62,0,0,0-1.23,2.45,8.87,8.87,0,0,0-.2,1.73v0h0v9.28a.38.38,0,0,1-.75,0"/>
          <path class="cls-2" d="M80.6,57.53V42.67a13.13,13.13,0,0,1,.92-3.36A7.16,7.16,0,0,1,83.08,37a3.83,3.83,0,0,1,2.72-1.13,4.17,4.17,0,0,1,2.74,1,7.91,7.91,0,0,1,2.17,3.51,10.4,10.4,0,0,1,.56,2.86V57.46a.36.36,0,0,1-.37.37.37.37,0,0,1-.38-.37V43.21a10.29,10.29,0,0,0-1-3.79,6,6,0,0,0-1.46-2,3.51,3.51,0,0,0-2.26-.84,3.12,3.12,0,0,0-2.2.92,7.58,7.58,0,0,0-1.8,3.28,14.08,14.08,0,0,0-.36,1.42c0,.18,0,.32-.07.42s0,.15,0,.15l-.37,0h.37V57.53a.38.38,0,0,1-.75,0"/>
          <path class="cls-2" d="M94.79,46.31a7.79,7.79,0,0,1,.79-1.8,4.58,4.58,0,0,1,1.11-1.27,2.76,2.76,0,0,1,1.72-.61,3,3,0,0,1,1.76.58,5.09,5.09,0,0,1,1.62,2.14,5.86,5.86,0,0,1,.54,2.26v9.85a.38.38,0,0,1-.75,0V47.61a5.71,5.71,0,0,0-.84-2.67,3.78,3.78,0,0,0-1-1.12,2.2,2.2,0,0,0-1.32-.44,2,2,0,0,0-1.27.45,4.73,4.73,0,0,0-1.24,1.66,7.19,7.19,0,0,0-.29.72c0,.1-.06.17-.08.22l0,.07a.38.38,0,0,1-.46.27.37.37,0,0,1-.26-.46"/>
          <path class="cls-2" d="M66.17,34.69H76.8a.38.38,0,0,1,0,.75H66.17a.38.38,0,1,1,0-.75"/>
          <path class="cls-2" d="M95.15,34.69h10.56a.38.38,0,0,1,0,.75H95.15a.38.38,0,0,1,0-.75"/>
          <path class="cls-2" d="M63.9,44.11H51.16a.38.38,0,0,1-.37-.38.37.37,0,0,1,.37-.37H63.9a.36.36,0,0,1,.37.37.37.37,0,0,1-.37.38"/>
          <path class="cls-2" d="M63.9,40H50.81a.38.38,0,0,1-.38-.38.37.37,0,0,1,.38-.37H63.9a.36.36,0,0,1,.37.37.37.37,0,0,1-.37.38"/>
          <path class="cls-2" d="M53.29,37.74v-.38h1.35V35.74h-1v2h-.37v0h-.38V35.37a.38.38,0,0,1,.38-.38H55a.36.36,0,0,1,.26.11.39.39,0,0,1,.11.27v2.37a.38.38,0,0,1-.37.37H53.29A.39.39,0,0,1,53,38a.36.36,0,0,1-.11-.26h.38"/>
          <path class="cls-2" d="M110.69,37.74v-.38h1.36V35.74h-1v2h-.38v0h-.37V35.37a.39.39,0,0,1,.11-.27.36.36,0,0,1,.26-.11h1.73a.38.38,0,0,1,.38.38v2.37a.36.36,0,0,1-.11.26.39.39,0,0,1-.27.11h-1.73a.38.38,0,0,1-.37-.37h.37"/>
          <path class="cls-2" d="M59.53,37.74v-.38h1.35V35.74h-1v2h-.37v0h-.38V35.37a.38.38,0,0,1,.38-.38h1.73a.36.36,0,0,1,.26.11.39.39,0,0,1,.11.27v2.37a.38.38,0,0,1-.37.37H59.53a.39.39,0,0,1-.27-.11.36.36,0,0,1-.11-.26h.38"/>
          <path class="cls-2" d="M116.93,37.74v-.38h1.35V35.74h-1v2h-.37v0h-.38V35.37a.38.38,0,0,1,.38-.38h1.73a.36.36,0,0,1,.26.11.39.39,0,0,1,.11.27v2.37a.38.38,0,0,1-.37.37h-1.73a.39.39,0,0,1-.27-.11.36.36,0,0,1-.11-.26h.38"/>
          <path class="cls-2" d="M107.62,39.37h13.82a.38.38,0,1,1,0,.75H107.62a.38.38,0,0,1,0-.75"/>
          <path class="cls-2" d="M107.62,43.71h13.82a.38.38,0,1,1,0,.75H107.62a.38.38,0,0,1,0-.75"/>
          <path class="cls-2" d="M66.33,39.25H76.56a.37.37,0,0,1,.38.37.38.38,0,0,1-.38.38H66.33a.38.38,0,0,1-.38-.38.37.37,0,0,1,.38-.37"/>
          <path class="cls-2" d="M95.38,39.25h10.24a.36.36,0,0,1,.37.37.37.37,0,0,1-.37.38H95.38a.38.38,0,0,1-.37-.38.37.37,0,0,1,.37-.37"/>
          <path class="cls-2" d="M67.34,34.09v.76a.38.38,0,1,1-.75,0v-.76a.38.38,0,0,1,.75,0"/>
          <path class="cls-2" d="M68.53,35.6v.75a.38.38,0,1,1-.75,0V35.6a.38.38,0,1,1,.75,0"/>
          <path class="cls-2" d="M97.06,34.09v.76a.38.38,0,1,1-.75,0v-.76a.38.38,0,0,1,.75,0"/>
          <path class="cls-2" d="M98.07,35.6v.75a.38.38,0,1,1-.75,0V35.6a.38.38,0,1,1,.75,0"/>
          <path class="cls-2" d="M107.08,31.26V32a.36.36,0,0,1-.37.37.37.37,0,0,1-.38-.37v-.76a.38.38,0,0,1,.38-.38.37.37,0,0,1,.37.38"/>
          <path class="cls-2" d="M108.09,32.76v.76a.38.38,0,1,1-.75,0v-.76a.38.38,0,0,1,.75,0"/>
          <path class="cls-2" d="M116.52,31.26V32a.36.36,0,0,1-.37.37.37.37,0,0,1-.38-.37v-.76a.38.38,0,0,1,.38-.38.37.37,0,0,1,.37.38"/>
          <path class="cls-2" d="M117.53,32.76v.76a.38.38,0,1,1-.75,0v-.76a.38.38,0,0,1,.75,0"/>
          <path class="cls-2" d="M70,34.09v.76a.38.38,0,1,1-.75,0v-.76a.38.38,0,0,1,.75,0"/>
          <path class="cls-2" d="M71.14,35.6v.75a.38.38,0,1,1-.75,0V35.6a.38.38,0,1,1,.75,0"/>
          <path class="cls-2" d="M99.42,34.09v.76a.38.38,0,1,1-.75,0v-.76a.38.38,0,0,1,.75,0"/>
          <path class="cls-2" d="M100.43,35.6v.75a.38.38,0,0,1-.38.38.37.37,0,0,1-.37-.38V35.6a.37.37,0,0,1,.37-.38.38.38,0,0,1,.38.38"/>
          <path class="cls-2" d="M109.44,31.26V32a.38.38,0,0,1-.75,0v-.76a.38.38,0,1,1,.75,0"/>
          <path class="cls-2" d="M110.45,32.76v.76a.38.38,0,1,1-.75,0v-.76a.38.38,0,0,1,.75,0"/>
          <path class="cls-2" d="M118.88,31.26V32a.38.38,0,0,1-.75,0v-.76a.38.38,0,1,1,.75,0"/>
          <path class="cls-2" d="M119.89,32.76v.76a.38.38,0,0,1-.38.38.37.37,0,0,1-.37-.38v-.76a.36.36,0,0,1,.37-.37.37.37,0,0,1,.38.37"/>
          <path class="cls-2" d="M72.56,34.09v.76a.38.38,0,1,1-.75,0v-.76a.38.38,0,0,1,.75,0"/>
          <path class="cls-2" d="M73.75,35.6v.75a.38.38,0,1,1-.75,0V35.6a.38.38,0,1,1,.75,0"/>
          <path class="cls-2" d="M101.78,34.09v.76a.38.38,0,1,1-.75,0v-.76a.38.38,0,0,1,.75,0"/>
          <path class="cls-2" d="M102.78,35.6v.75a.37.37,0,0,1-.37.38.38.38,0,0,1-.38-.38V35.6a.38.38,0,0,1,.38-.38.37.37,0,0,1,.37.38"/>
          <path class="cls-2" d="M111.8,31.26V32a.38.38,0,0,1-.75,0v-.76a.38.38,0,1,1,.75,0"/>
          <path class="cls-2" d="M112.81,32.76v.76a.38.38,0,0,1-.38.38.37.37,0,0,1-.37-.38v-.76a.36.36,0,0,1,.37-.37.37.37,0,0,1,.38.37"/>
          <path class="cls-2" d="M121.24,31.26V32a.38.38,0,0,1-.75,0v-.76a.38.38,0,1,1,.75,0"/>
          <path class="cls-2" d="M122.25,32.76v.76a.38.38,0,0,1-.38.38.37.37,0,0,1-.37-.38v-.76a.36.36,0,0,1,.37-.37.37.37,0,0,1,.38.37"/>
          <path class="cls-2" d="M75.17,34.09v.76a.38.38,0,0,1-.38.38.37.37,0,0,1-.37-.38v-.76a.37.37,0,0,1,.37-.37.38.38,0,0,1,.38.37"/>
          <path class="cls-2" d="M76.36,35.6v.75a.38.38,0,0,1-.38.38.37.37,0,0,1-.37-.38V35.6a.37.37,0,0,1,.37-.38.38.38,0,0,1,.38.38"/>
          <path class="cls-2" d="M104.14,34.09v.76a.38.38,0,1,1-.75,0v-.76a.38.38,0,0,1,.75,0"/>
          <path class="cls-2" d="M105.14,35.6v.75a.37.37,0,0,1-.37.38.38.38,0,0,1-.38-.38V35.6a.38.38,0,0,1,.38-.38.37.37,0,0,1,.37.38"/>
          <path class="cls-2" d="M114.16,31.26V32a.38.38,0,0,1-.75,0v-.76a.38.38,0,1,1,.75,0"/>
          <path class="cls-2" d="M115.16,32.76v.76a.37.37,0,0,1-.37.38.38.38,0,0,1-.38-.38v-.76a.37.37,0,0,1,.38-.37.36.36,0,0,1,.37.37"/>
          <path class="cls-2" d="M123.6,31.26V32a.38.38,0,0,1-.75,0v-.76a.38.38,0,1,1,.75,0"/>
          <path class="cls-2" d="M78.62,32.16v1.53a.38.38,0,1,1-.75,0V32.16a.38.38,0,1,1,.75,0"/>
          <path class="cls-2" d="M80.34,32.16v1.53a.38.38,0,1,1-.75,0V32.16a.38.38,0,1,1,.75,0"/>
          <path class="cls-2" d="M82.06,32.16v1.53a.38.38,0,1,1-.75,0V32.16a.38.38,0,1,1,.75,0"/>
          <path class="cls-2" d="M83.79,32.16v1.53a.38.38,0,0,1-.38.38.37.37,0,0,1-.37-.38V32.16a.37.37,0,0,1,.37-.38.38.38,0,0,1,.38.38"/>
          <path class="cls-2" d="M85.51,32.16v1.53a.38.38,0,1,1-.75,0V32.16a.38.38,0,1,1,.75,0"/>
          <path class="cls-2" d="M87.23,32.16v1.53a.38.38,0,1,1-.75,0V32.16a.38.38,0,1,1,.75,0"/>
          <path class="cls-2" d="M89,32.16v1.53a.37.37,0,0,1-.37.38.38.38,0,0,1-.38-.38V32.16a.38.38,0,0,1,.38-.38.37.37,0,0,1,.37.38"/>
          <path class="cls-2" d="M90.68,32.16v1.53a.38.38,0,0,1-.38.38.37.37,0,0,1-.37-.38V32.16a.37.37,0,0,1,.37-.38.38.38,0,0,1,.38.38"/>
          <path class="cls-2" d="M92.4,32.16v1.53a.38.38,0,1,1-.75,0V32.16a.38.38,0,1,1,.75,0"/>
          <path class="cls-2" d="M94.12,32.16v1.53a.38.38,0,1,1-.75,0V32.16a.38.38,0,1,1,.75,0"/>
          <path class="cls-2" d="M64.75,57.58V33h-15V57.67a.38.38,0,1,1-.75,0V32.58a.38.38,0,0,1,.11-.26.36.36,0,0,1,.26-.11H65.12a.39.39,0,0,1,.27.11.38.38,0,0,1,.11.26v25a.38.38,0,0,1-.75,0"/>
          <path class="cls-3" d="M94.78,46.42v11a.25.25,0,0,0,0,.12h.71a.5.5,0,0,0,0-.12v-11l0,0a.36.36,0,0,1-.36.28h-.1a.37.37,0,0,1-.27-.35m0-11.34v11.3a.17.17,0,0,1,0-.07,7.52,7.52,0,0,1,.74-1.71V40h-.15a.38.38,0,0,1-.37-.38.37.37,0,0,1,.37-.37h.15V35.44h-.38a.37.37,0,0,1-.37-.36m.37-3.58H76.94a.38.38,0,0,0-.38.38v2.81h.24a.38.38,0,0,1,0,.75h-.24v3.81a.37.37,0,0,1,.38.37.38.38,0,0,1-.38.38v4.93a5.2,5.2,0,0,1,.61,1.77.38.38,0,0,1-.31.43H76.8a.41.41,0,0,1-.24-.08V57.46a.5.5,0,0,0,0,.12h.71a.25.25,0,0,0,0-.12V32.25h.56v-.09a.38.38,0,1,1,.75,0v.09h1v-.09a.38.38,0,1,1,.75,0v.09h1v-.09a.38.38,0,1,1,.75,0v.09h1v-.09a.37.37,0,0,1,.37-.38.38.38,0,0,1,.38.38v.09h1v-.09a.38.38,0,1,1,.75,0v.09h1v-.09a.38.38,0,1,1,.75,0v.09h1v-.09a.38.38,0,0,1,.38-.38.37.37,0,0,1,.37.38v.09h1v-.09a.37.37,0,0,1,.37-.38.38.38,0,0,1,.38.38v.09h1v-.09a.38.38,0,1,1,.75,0v.09h1v-.09a.38.38,0,1,1,.75,0v.09h.66v2.8a.37.37,0,0,1,.37-.36h.38V31.88a.38.38,0,0,0-.38-.38"/>
          <path class="cls-3" d="M122.85,31.93h-1.61V32a.38.38,0,0,1-.75,0v-.09h-1.61V32a.38.38,0,0,1-.75,0v-.09h-1.61V32a.36.36,0,0,1-.37.37.37.37,0,0,1-.38-.37v-.09h-1.61V32a.38.38,0,0,1-.75,0v-.09H111.8V32a.38.38,0,0,1-.75,0v-.09h-1.61V32a.38.38,0,0,1-.75,0v-.09h-1.61V32a.36.36,0,0,1-.37.37.37.37,0,0,1-.38-.37v-.09h-.41a.38.38,0,0,0-.37.37v2.39h.16a.38.38,0,0,1,0,.75h-.16v3.81h.07a.36.36,0,0,1,.37.37.37.37,0,0,1-.37.38h-.07V57.46a.25.25,0,0,0,0,.12h.71a.5.5,0,0,0,0-.12V32.68h1a.37.37,0,0,1,.73,0h1.63a.36.36,0,0,1,.36-.29.38.38,0,0,1,.37.29h1.63a.36.36,0,0,1,.36-.29.38.38,0,0,1,.37.29h1.62a.38.38,0,0,1,.74,0h1.63a.37.37,0,0,1,.73,0h1.63a.36.36,0,0,1,.36-.29.38.38,0,0,1,.37.29h1.63a.36.36,0,0,1,.36-.29.38.38,0,0,1,.37.29h.81V57.53a.07.07,0,0,0,0,0h.74V32.3a.36.36,0,0,0-.11-.26L123.6,32V32a.38.38,0,0,1-.75,0v-.09"/>
          <path class="cls-3" d="M73.52,42.63a3.31,3.31,0,0,0-2.3.86,4.65,4.65,0,0,0-1.17,1.86,8.93,8.93,0,0,0-.5,2.87v9.36h.74a.07.07,0,0,0,0,0V48.25h0v0a8.87,8.87,0,0,1,.2-1.73A4.62,4.62,0,0,1,71.73,44a2.56,2.56,0,0,1,1.76-.66h.06l.29.11a4.68,4.68,0,0,1,.92.51,4.18,4.18,0,0,1,1.67,2.81.34.34,0,0,0,.13.23.41.41,0,0,0,.24.08h.06a.38.38,0,0,0,.31-.43,5.2,5.2,0,0,0-.61-1.77,4.93,4.93,0,0,0-2.94-2.29h-.1"/>
          <path class="cls-3" d="M85.79,35.82A3.87,3.87,0,0,0,83.08,37a7.16,7.16,0,0,0-1.55,2.36,13.13,13.13,0,0,0-.92,3.36V57.53a.07.07,0,0,0,0,0h.74V42.74a.7.7,0,0,0,0-.13c0-.1,0-.24.07-.42a14.08,14.08,0,0,1,.36-1.42,7.58,7.58,0,0,1,1.8-3.28,3.12,3.12,0,0,1,2.2-.92,3.51,3.51,0,0,1,2.26.84,6,6,0,0,1,1.46,2,10.29,10.29,0,0,1,1,3.79V57.46a.5.5,0,0,0,0,.12h.71a.25.25,0,0,0,0-.12V43.21a10.4,10.4,0,0,0-.56-2.86,7.91,7.91,0,0,0-2.17-3.51,4.17,4.17,0,0,0-2.74-1h0"/>
          <path class="cls-3" d="M98.41,42.63a2.76,2.76,0,0,0-1.72.61,4.58,4.58,0,0,0-1.11,1.27l0,.09a7.52,7.52,0,0,0-.74,1.71.17.17,0,0,0,0,.07v0a.37.37,0,0,0,.27.35h.1a.36.36,0,0,0,.36-.28l0,0v0s0-.12.08-.22a7.19,7.19,0,0,1,.29-.72,4.73,4.73,0,0,1,1.24-1.66,2,2,0,0,1,1.27-.45,2.2,2.2,0,0,1,1.32.44,3.78,3.78,0,0,1,1,1.12,5.71,5.71,0,0,1,.84,2.67v9.85a.5.5,0,0,0,0,.12h.71a.5.5,0,0,0,0-.12V47.61a5.86,5.86,0,0,0-.54-2.26,5.09,5.09,0,0,0-1.62-2.14,2.94,2.94,0,0,0-1.75-.58h0"/>
          <path class="cls-3" d="M76.8,34.69H75.17v.16a.38.38,0,0,1-.38.38.37.37,0,0,1-.37-.38v-.16H72.56v.16a.38.38,0,1,1-.75,0v-.16H70v.16a.38.38,0,1,1-.75,0v-.16H67.34v.16a.38.38,0,1,1-.75,0v-.16h-.42a.38.38,0,1,0,0,.75h1.65a.37.37,0,0,1,.68,0h1.92a.38.38,0,0,1,.69,0H73a.38.38,0,0,1,.34-.22.36.36,0,0,1,.34.22h1.93a.37.37,0,0,1,.68,0h.48a.38.38,0,0,0,0-.75"/>
          <path class="cls-3" d="M105.71,34.69h-1.57v.16a.38.38,0,1,1-.75,0v-.16h-1.61v.16a.38.38,0,1,1-.75,0v-.16H99.42v.16a.38.38,0,1,1-.75,0v-.16H97.06v.16a.38.38,0,1,1-.75,0v-.16H95.15a.37.37,0,0,0-.37.36v0h0a.37.37,0,0,0,.37.36h2.2a.37.37,0,0,1,.68,0h1.68a.37.37,0,0,1,.68,0h1.68a.37.37,0,0,1,.68,0h1.68a.37.37,0,0,1,.68,0h.6a.38.38,0,0,0,0-.75"/>
          <path class="cls-3" d="M63.9,43.36H51.16a.37.37,0,0,0-.37.37.38.38,0,0,0,.37.38H63.9a.37.37,0,0,0,.37-.38.36.36,0,0,0-.37-.37"/>
          <path class="cls-3" d="M63.9,39.25H50.81a.37.37,0,0,0-.38.37.38.38,0,0,0,.38.38H63.9a.37.37,0,0,0,.37-.38.36.36,0,0,0-.37-.37"/>
          <path class="cls-3" d="M53.66,37.36V35.74h1v1.62h-1M55,35H53.29a.38.38,0,0,0-.38.38v2.37A.36.36,0,0,0,53,38a.39.39,0,0,0,.27.11H55a.38.38,0,0,0,.37-.37V35.37a.39.39,0,0,0-.11-.27A.36.36,0,0,0,55,35"/>
          <path class="cls-3" d="M111.07,37.36V35.74h1v1.62h-1M112.42,35h-1.73a.36.36,0,0,0-.26.11.39.39,0,0,0-.11.27v2.37a.38.38,0,0,0,.37.37h1.73a.39.39,0,0,0,.27-.11.36.36,0,0,0,.11-.26V35.37a.38.38,0,0,0-.38-.38"/>
          <path class="cls-3" d="M59.9,37.36V35.74h1v1.62h-1M61.26,35H59.53a.38.38,0,0,0-.38.38v2.37a.36.36,0,0,0,.11.26.39.39,0,0,0,.27.11h1.73a.38.38,0,0,0,.37-.37V35.37a.39.39,0,0,0-.11-.27.36.36,0,0,0-.26-.11"/>
          <path class="cls-3" d="M117.3,37.36V35.74h1v1.62h-1M118.66,35h-1.73a.38.38,0,0,0-.38.38v2.37a.36.36,0,0,0,.11.26.39.39,0,0,0,.27.11h1.73a.38.38,0,0,0,.37-.37V35.37a.39.39,0,0,0-.11-.27.36.36,0,0,0-.26-.11"/>
          <path class="cls-3" d="M121.44,39.37H107.62a.38.38,0,0,0,0,.75h13.82a.38.38,0,1,0,0-.75"/>
          <path class="cls-3" d="M121.44,43.71H107.62a.38.38,0,0,0,0,.75h13.82a.38.38,0,1,0,0-.75"/>
          <path class="cls-3" d="M76.56,39.25H66.33a.37.37,0,0,0-.38.37.38.38,0,0,0,.38.38H76.56a.38.38,0,0,0,.38-.38.37.37,0,0,0-.38-.37h0"/>
          <path class="cls-3" d="M105.62,39.25H95.38a.37.37,0,0,0-.37.37.38.38,0,0,0,.37.38h10.24a.37.37,0,0,0,.37-.38.36.36,0,0,0-.37-.37"/>
          <path class="cls-3" d="M67,33.72a.38.38,0,0,0-.38.37v.76a.38.38,0,1,0,.75,0v-.76a.38.38,0,0,0-.37-.37"/>
          <path class="cls-3" d="M68.16,35.22a.38.38,0,0,0-.34.22.29.29,0,0,0,0,.16v.75a.38.38,0,1,0,.75,0V35.6a.41.41,0,0,0,0-.16.38.38,0,0,0-.34-.22"/>
          <path class="cls-3" d="M96.69,33.72a.38.38,0,0,0-.38.37v.76a.38.38,0,1,0,.75,0v-.76a.38.38,0,0,0-.37-.37"/>
          <path class="cls-3" d="M97.69,35.22a.38.38,0,0,0-.34.22.41.41,0,0,0,0,.16v.75a.38.38,0,1,0,.75,0V35.6a.42.42,0,0,0,0-.16.38.38,0,0,0-.34-.22"/>
          <path class="cls-3" d="M106.71,30.88a.38.38,0,0,0-.38.38V32a.37.37,0,0,0,.38.37.36.36,0,0,0,.37-.37v-.76a.37.37,0,0,0-.37-.38"/>
          <path class="cls-3" d="M107.71,32.39a.37.37,0,0,0-.36.29.19.19,0,0,0,0,.08v.76a.38.38,0,1,0,.75,0v-.76a.19.19,0,0,0,0-.08.38.38,0,0,0-.37-.29"/>
          <path class="cls-3" d="M116.15,30.88a.38.38,0,0,0-.38.38V32a.37.37,0,0,0,.38.37.36.36,0,0,0,.37-.37v-.76a.37.37,0,0,0-.37-.38"/>
          <path class="cls-3" d="M117.15,32.39a.37.37,0,0,0-.36.29.19.19,0,0,0,0,.08v.76a.38.38,0,1,0,.75,0v-.76s0-.06,0-.08a.38.38,0,0,0-.37-.29"/>
          <path class="cls-3" d="M69.57,33.72a.38.38,0,0,0-.37.37v.76a.38.38,0,1,0,.75,0v-.76a.38.38,0,0,0-.38-.37"/>
          <path class="cls-3" d="M70.77,35.22a.38.38,0,0,0-.35.22.41.41,0,0,0,0,.16v.75a.38.38,0,1,0,.75,0V35.6a.41.41,0,0,0,0-.16.38.38,0,0,0-.34-.22"/>
          <path class="cls-3" d="M99.05,33.72a.38.38,0,0,0-.38.37v.76a.38.38,0,1,0,.75,0v-.76a.38.38,0,0,0-.37-.37"/>
          <path class="cls-3" d="M100.05,35.22a.38.38,0,0,0-.34.22.41.41,0,0,0,0,.16v.75a.37.37,0,0,0,.37.38.38.38,0,0,0,.38-.38V35.6a.42.42,0,0,0,0-.16.38.38,0,0,0-.34-.22"/>
          <path class="cls-3" d="M109.07,30.88a.38.38,0,0,0-.38.38V32a.38.38,0,0,0,.75,0v-.76a.38.38,0,0,0-.37-.38"/>
          <path class="cls-3" d="M110.07,32.39a.36.36,0,0,0-.36.29.19.19,0,0,0,0,.08v.76a.38.38,0,1,0,.75,0v-.76s0-.06,0-.08a.38.38,0,0,0-.37-.29"/>
          <path class="cls-3" d="M118.51,30.88a.38.38,0,0,0-.38.38V32a.38.38,0,0,0,.75,0v-.76a.38.38,0,0,0-.37-.38"/>
          <path class="cls-3" d="M119.51,32.39a.36.36,0,0,0-.36.29.19.19,0,0,0,0,.08v.76a.37.37,0,0,0,.37.38.38.38,0,0,0,.38-.38v-.76s0-.06,0-.08a.38.38,0,0,0-.37-.29"/>
          <path class="cls-3" d="M72.18,33.72a.38.38,0,0,0-.37.37v.76a.38.38,0,1,0,.75,0v-.76a.38.38,0,0,0-.38-.37"/>
          <path class="cls-3" d="M73.37,35.22a.38.38,0,0,0-.34.22.41.41,0,0,0,0,.16v.75a.38.38,0,1,0,.75,0V35.6a.29.29,0,0,0,0-.16.36.36,0,0,0-.34-.22"/>
          <path class="cls-3" d="M101.4,33.72a.38.38,0,0,0-.37.37v.76a.38.38,0,1,0,.75,0v-.76a.38.38,0,0,0-.38-.37"/>
          <path class="cls-3" d="M102.41,35.22a.38.38,0,0,0-.34.22.42.42,0,0,0,0,.16v.75a.38.38,0,0,0,.38.38.37.37,0,0,0,.37-.38V35.6a.41.41,0,0,0,0-.16.38.38,0,0,0-.34-.22"/>
          <path class="cls-3" d="M111.43,30.88a.38.38,0,0,0-.38.38V32a.38.38,0,0,0,.75,0v-.76a.38.38,0,0,0-.37-.38"/>
          <path class="cls-3" d="M112.43,32.39a.36.36,0,0,0-.36.29.19.19,0,0,0,0,.08v.76a.37.37,0,0,0,.37.38.38.38,0,0,0,.38-.38v-.76s0-.06,0-.08a.38.38,0,0,0-.37-.29"/>
          <path class="cls-3" d="M120.87,30.88a.38.38,0,0,0-.38.38V32a.38.38,0,0,0,.75,0v-.76a.38.38,0,0,0-.37-.38"/>
          <path class="cls-3" d="M121.87,32.39a.36.36,0,0,0-.36.29.19.19,0,0,0,0,.08v.76a.37.37,0,0,0,.37.38.38.38,0,0,0,.38-.38v-.76s0-.06,0-.08a.38.38,0,0,0-.37-.29"/>
          <path class="cls-3" d="M74.79,33.72a.37.37,0,0,0-.37.37v.76a.37.37,0,0,0,.37.38.38.38,0,0,0,.38-.38v-.76a.38.38,0,0,0-.38-.37"/>
          <path class="cls-3" d="M76,35.22a.38.38,0,0,0-.34.22.41.41,0,0,0,0,.16v.75a.37.37,0,0,0,.37.38.38.38,0,0,0,.38-.38V35.6a.42.42,0,0,0,0-.16.38.38,0,0,0-.34-.22"/>
          <path class="cls-3" d="M103.76,33.72a.38.38,0,0,0-.37.37v.76a.38.38,0,1,0,.75,0v-.76a.38.38,0,0,0-.38-.37"/>
          <path class="cls-3" d="M104.77,35.22a.38.38,0,0,0-.34.22.42.42,0,0,0,0,.16v.75a.38.38,0,0,0,.38.38.37.37,0,0,0,.37-.38V35.6a.41.41,0,0,0,0-.16.38.38,0,0,0-.34-.22"/>
          <path class="cls-3" d="M113.78,30.88a.38.38,0,0,0-.37.38V32a.38.38,0,0,0,.75,0v-.76a.38.38,0,0,0-.38-.38"/>
          <path class="cls-3" d="M114.79,32.39a.38.38,0,0,0-.37.29s0,0,0,.08v.76a.38.38,0,0,0,.38.38.37.37,0,0,0,.37-.38v-.84a.38.38,0,0,0-.37-.29"/>
          <path class="cls-3" d="M123.22,30.88a.38.38,0,0,0-.37.38V32a.38.38,0,0,0,.75,0v-.76a.38.38,0,0,0-.38-.38"/>
          <path class="cls-3" d="M78.24,31.78a.38.38,0,0,0-.37.38v1.53a.38.38,0,1,0,.75,0V32.16a.38.38,0,0,0-.38-.38"/>
          <path class="cls-3" d="M80,31.78a.38.38,0,0,0-.38.38v1.53a.38.38,0,1,0,.75,0V32.16a.38.38,0,0,0-.37-.38"/>
          <path class="cls-3" d="M81.69,31.78a.38.38,0,0,0-.38.38v1.53a.38.38,0,1,0,.75,0V32.16a.38.38,0,0,0-.37-.38"/>
          <path class="cls-3" d="M83.41,31.78a.37.37,0,0,0-.37.38v1.53a.37.37,0,0,0,.37.38.38.38,0,0,0,.38-.38V32.16a.38.38,0,0,0-.38-.38"/>
          <path class="cls-3" d="M85.13,31.78a.38.38,0,0,0-.37.38v1.53a.38.38,0,1,0,.75,0V32.16a.38.38,0,0,0-.38-.38"/>
          <path class="cls-3" d="M86.86,31.78a.38.38,0,0,0-.38.38v1.53a.38.38,0,1,0,.75,0V32.16a.38.38,0,0,0-.37-.38"/>
          <path class="cls-3" d="M88.58,31.78a.38.38,0,0,0-.38.38v1.53a.38.38,0,0,0,.38.38.37.37,0,0,0,.37-.38V32.16a.37.37,0,0,0-.37-.38"/>
          <path class="cls-3" d="M90.3,31.78a.37.37,0,0,0-.37.38v1.53a.37.37,0,0,0,.37.38.38.38,0,0,0,.38-.38V32.16a.38.38,0,0,0-.38-.38"/>
          <path class="cls-3" d="M92,31.78a.38.38,0,0,0-.37.38v1.53a.38.38,0,1,0,.75,0V32.16a.38.38,0,0,0-.38-.38"/>
          <path class="cls-3" d="M93.75,31.78a.38.38,0,0,0-.38.38v1.53a.38.38,0,1,0,.75,0V32.16a.38.38,0,0,0-.37-.38"/>
          <path class="cls-3" d="M65.12,32.21H49.39a.36.36,0,0,0-.26.11.38.38,0,0,0-.11.26v25h.75V33h15V57.58h.75v-25a.38.38,0,0,0-.11-.26.39.39,0,0,0-.27-.11"/>
        </g>
        <path class="cls-4" d="M136,0h0a6.38,6.38,0,0,0-4.39,1.71,6.09,6.09,0,0,1-4.24,1.67,6.11,6.11,0,0,1-4.24-1.67A6.36,6.36,0,0,0,118.74,0h0a6.38,6.38,0,0,0-4.38,1.71,6.11,6.11,0,0,1-4.24,1.67,6.11,6.11,0,0,1-4.24-1.67A6.38,6.38,0,0,0,101.47,0h0a6.36,6.36,0,0,0-4.38,1.71,6.11,6.11,0,0,1-4.24,1.67,6.09,6.09,0,0,1-4.24-1.67A6.38,6.38,0,0,0,84.19,0h0V.25a6.08,6.08,0,0,1,4.24,1.66,6.39,6.39,0,0,0,4.39,1.72h0a6.34,6.34,0,0,0,4.38-1.72,6.26,6.26,0,0,1,8.49,0,6.34,6.34,0,0,0,4.38,1.72h0a6.39,6.39,0,0,0,4.39-1.72,6.24,6.24,0,0,1,8.48,0,6.36,6.36,0,0,0,4.38,1.72h0a6.38,6.38,0,0,0,4.38-1.72,6.24,6.24,0,0,1,8.48,0,6.36,6.36,0,0,0,4.38,1.72h0V3.38a6.13,6.13,0,0,1-4.25-1.67A6.34,6.34,0,0,0,136,0"/>
        <path class="cls-4" d="M169.19,5.67h0a6.34,6.34,0,0,0-4.38,1.71,6.23,6.23,0,0,1-8.49,0,6.34,6.34,0,0,0-4.38-1.71h0a6.38,6.38,0,0,0-4.39,1.71,6.22,6.22,0,0,1-8.48,0,6.36,6.36,0,0,0-4.38-1.71h0a6.38,6.38,0,0,0-4.38,1.71A6.11,6.11,0,0,1,126,9.05V9.3h0a6.34,6.34,0,0,0,4.38-1.72,6.26,6.26,0,0,1,8.49,0,6.34,6.34,0,0,0,4.38,1.72h0a6.39,6.39,0,0,0,4.39-1.72,6.24,6.24,0,0,1,8.48,0,6.36,6.36,0,0,0,4.38,1.72h0a6.36,6.36,0,0,0,4.38-1.72,6.24,6.24,0,0,1,8.48,0,6.39,6.39,0,0,0,4.39,1.72h0V9.05a6.09,6.09,0,0,1-4.24-1.67,6.38,6.38,0,0,0-4.39-1.71"/>
        <path class="cls-4" d="M43.19,13.67h0a6.34,6.34,0,0,0-4.38,1.71,6.23,6.23,0,0,1-8.49,0,6.34,6.34,0,0,0-4.38-1.71h0a6.38,6.38,0,0,0-4.39,1.71,6.22,6.22,0,0,1-8.48,0,6.36,6.36,0,0,0-4.38-1.71h0a6.38,6.38,0,0,0-4.38,1.71A6.11,6.11,0,0,1,0,17.05v.25H0a6.34,6.34,0,0,0,4.38-1.72,6.13,6.13,0,0,1,4.25-1.66,6.12,6.12,0,0,1,4.24,1.66,6.34,6.34,0,0,0,4.38,1.72h0a6.39,6.39,0,0,0,4.39-1.72,6.24,6.24,0,0,1,8.48,0,6.36,6.36,0,0,0,4.38,1.72h0a6.36,6.36,0,0,0,4.38-1.72,6.24,6.24,0,0,1,8.48,0,6.39,6.39,0,0,0,4.39,1.72h0v-.25a6.09,6.09,0,0,1-4.24-1.67,6.38,6.38,0,0,0-4.39-1.71"/>
      </g>
    </g>
  </g>
</svg>
