<svg xmlns="http://www.w3.org/2000/svg" viewBox="0 0 156.3 141.39">
  <defs>
    <style>
      .cls-1 {
        fill: #6e609e;
      }

      .cls-2 {
        fill: #dbb027;
      }

      .cls-3 {
        fill: #b48e2e;
      }

      .cls-4 {
        fill: #695c97;
      }

      .cls-5 {
        fill: #f3f4f4;
      }

      .cls-6 {
        fill: #d1a825;
      }

      .cls-7 {
        fill: #ac882c;
      }
    </style>
  </defs>
  <g id="Layer_2" data-name="Layer 2">
    <g id="Layer_1-2" data-name="Layer 1">
      <g>
        <path class="cls-1" d="M85.17,141.09s0-.81.09-2.25c.42-10.05,2.07-50.54,2.07-54.44,0-4.46-.61-8.14-1.83-10.71a.25.25,0,0,1,.12-.33.26.26,0,0,1,.34.11c1.26,2.68,1.87,6.42,1.87,10.93s-2.16,56.71-2.16,56.72a.25.25,0,0,1-.26.24.26.26,0,0,1-.24-.27"/>
        <path class="cls-1" d="M87.8,73.31A22.91,22.91,0,0,1,90,83.3c0,.36,0,.73,0,1.11-.16,3.16-.74,17.34-1.28,30.73-.27,6.69-.53,13.18-.72,18-.1,2.41-.18,4.4-.23,5.79s-.09,2.17-.09,2.18a.26.26,0,0,1-.26.24.25.25,0,0,1-.24-.26s2-50.38,2.32-56.71c0-.37,0-.74,0-1.09a23.68,23.68,0,0,0-1.08-7,21.06,21.06,0,0,0-.74-2c-.1-.24-.19-.42-.25-.54l-.09-.18a.24.24,0,0,1,.11-.33.24.24,0,0,1,.33.1"/>
        <path class="cls-1" d="M96.3,141s0-.86-.1-2.37C95.75,128,94,85.47,93.82,83.18c0-.12,0-.25,0-.38a26.09,26.09,0,0,1,.88-5.4c.23-.94.49-1.82.72-2.54A10.3,10.3,0,0,1,96,73.3a.25.25,0,0,1,.43.25A9.64,9.64,0,0,0,95.89,75a31.93,31.93,0,0,0-1.58,7.78c0,.12,0,.24,0,.35.16,2.63,2.48,57.79,2.48,57.79a.26.26,0,0,1-.24.26.24.24,0,0,1-.26-.24"/>
        <path class="cls-1" d="M98.62,73.39l-.09.18a23.41,23.41,0,0,0-2,9.44c0,2.76.58,17.3,1.16,31.12.29,6.92.58,13.66.79,18.67.11,2.5.2,4.58.27,6s.1,2.26.1,2.26a.27.27,0,0,1-.24.27.25.25,0,0,1-.26-.24S96,88.59,96,83a23.4,23.4,0,0,1,2.19-9.85.25.25,0,0,1,.34-.11.24.24,0,0,1,.1.34h0"/>
        <path class="cls-1" d="M85.42,84.3h2a.25.25,0,0,1,0,.5h-2a.25.25,0,0,1,0-.5"/>
        <path class="cls-1" d="M96.39,84.3h2a.25.25,0,0,1,0,.5h-2a.25.25,0,0,1,0-.5"/>
        <polyline class="cls-1" points="82.79 73.37 82.79 73.12 100.84 73.12 100.84 70.46 83.04 70.46 83.04 73.37 82.79 73.37 82.79 73.12 82.79 73.37 82.54 73.37 82.54 70.21 82.61 70.03 82.79 69.96 101.09 69.96 101.27 70.03 101.34 70.21 101.34 73.37 101.27 73.55 101.09 73.62 82.79 73.62 82.61 73.55 82.54 73.37 82.79 73.37"/>
        <path class="cls-1" d="M84.89,70.31V68.58a7.28,7.28,0,0,1,3.32-6,11.14,11.14,0,0,1,3.29-1.61H92a11.39,11.39,0,0,1,3.29,1.61,7.28,7.28,0,0,1,3.32,6v1.73a.25.25,0,0,1-.5,0V68.58A6.77,6.77,0,0,0,95,62.94a10.68,10.68,0,0,0-2.16-1.19l-.71-.27-.26-.08.06-.24v.25h-.4v-.25l.06.24-.26.08a11.11,11.11,0,0,0-3.46,1.91,6.59,6.59,0,0,0-2.52,5.19v1.73a.25.25,0,0,1-.5,0h0"/>
        <path class="cls-1" d="M90.42,61.28v-10a1.42,1.42,0,0,1,2.64-.5,1.86,1.86,0,0,1,.26.68v10a.25.25,0,0,1-.25.25.26.26,0,0,1-.25-.25V51.52h.25l-.24,0v0a1.55,1.55,0,0,0-.24-.55.89.89,0,0,0-.74-.38.89.89,0,0,0-.9.66l0,.09v0h0l-.25,0h.25v10a.25.25,0,0,1-.25.25.25.25,0,0,1-.25-.25"/>
        <path class="cls-1" d="M92.22,40v10.2a.25.25,0,0,1-.5,0V40a.25.25,0,0,1,.5,0"/>
        <path class="cls-1" d="M114,141.14V75.66a2.69,2.69,0,0,0-.34-1.14,1.67,1.67,0,0,0-1.57-.81h-3.27l-.18-.08-.07-.17V59.37l.07-.18.18-.07h3v.25l0-.25h.09a3,3,0,0,0,1.22-.46A1.89,1.89,0,0,0,114,57v-7.6a.25.25,0,1,1,.5,0V57a2.45,2.45,0,0,1-1.33,2.27,3.49,3.49,0,0,1-1.31.39H109.1V73.21h3a2.19,2.19,0,0,1,2.12,1.28,3.06,3.06,0,0,1,.29,1.25v65.4a.25.25,0,0,1-.25.25.26.26,0,0,1-.25-.25"/>
        <path class="cls-1" d="M150.37,141.14V75.74a3.06,3.06,0,0,1,.29-1.25,2.19,2.19,0,0,1,2.12-1.28h3V59.62h-2.73a3.49,3.49,0,0,1-1.31-.39A2.45,2.45,0,0,1,150.43,57v-7.6a.25.25,0,1,1,.5,0V57A1.91,1.91,0,0,0,152,58.77a3.26,3.26,0,0,0,.77.29l.25,0h.09l0,.25v-.25h3l.18.07.07.18V73.46l-.07.17-.18.08h-3.27a1.68,1.68,0,0,0-1.67,1,2.59,2.59,0,0,0-.21.72,1.2,1.2,0,0,0,0,.23v65.48a.26.26,0,0,1-.25.25.25.25,0,0,1-.25-.25"/>
        <path class="cls-1" d="M121.21,141.14V75.66a3.06,3.06,0,0,0-.3-1.16,1.4,1.4,0,0,0-1.32-.79h-2.84l-.17-.08-.08-.17V59.37l.08-.18.17-.07h2.57v.25l0-.25h.07a2.45,2.45,0,0,0,1-.45,2,2,0,0,0,.75-1.71v-7.6a.25.25,0,0,1,.25-.25.26.26,0,0,1,.25.25V57a2.53,2.53,0,0,1-1.16,2.26,2.9,2.9,0,0,1-1.16.4H117V73.21h2.59a1.92,1.92,0,0,1,1.24.41A2.42,2.42,0,0,1,121.6,75a3.43,3.43,0,0,1,.11.78v65.4a.25.25,0,0,1-.5,0"/>
        <path class="cls-1" d="M143.19,141.14V75.74a3.65,3.65,0,0,1,.25-1.23,2.24,2.24,0,0,1,.63-.89,1.94,1.94,0,0,1,1.24-.41h2.59V59.62h-2.34a2.83,2.83,0,0,1-1.15-.4A2.51,2.51,0,0,1,143.24,57v-7.6a.26.26,0,0,1,.25-.25.25.25,0,0,1,.25.25V57a2,2,0,0,0,.93,1.83,2.31,2.31,0,0,0,.65.28l.21,0h.07l0,.25v-.25h2.57l.18.07.07.18V73.46l-.07.17-.18.08h-2.84a1.39,1.39,0,0,0-.92.3,2,2,0,0,0-.61,1.07,4.31,4.31,0,0,0-.08.48v65.58a.25.25,0,0,1-.5,0"/>
        <path class="cls-1" d="M128.89,141.14V75.66a3.2,3.2,0,0,0-.29-1.16,1.3,1.3,0,0,0-1.25-.79h-2.72l-.18-.08-.07-.17V59.37l.07-.18.18-.07h2.46v.25l0-.25h.07a2.38,2.38,0,0,0,1-.44,2.07,2.07,0,0,0,.72-1.72v-7.6a.25.25,0,1,1,.5,0V57a2.5,2.5,0,0,1-1.11,2.25,2.64,2.64,0,0,1-1.11.41h-2.24V73.21h2.47a1.83,1.83,0,0,1,1.2.41,2.48,2.48,0,0,1,.74,1.34,3.76,3.76,0,0,1,.1.78v65.4a.25.25,0,0,1-.25.25.26.26,0,0,1-.25-.25"/>
        <path class="cls-1" d="M135.51,141.14V75.74a3.78,3.78,0,0,1,.24-1.23,2.23,2.23,0,0,1,.6-.89,1.83,1.83,0,0,1,1.2-.41H140V59.62h-2.23a2.62,2.62,0,0,1-1.12-.41A2.5,2.5,0,0,1,135.56,57v-7.6a.25.25,0,1,1,.5,0V57a2,2,0,0,0,.88,1.84,2.59,2.59,0,0,0,.62.27l.2,0h.07l0,.25v-.25h2.46l.18.07.07.18V73.46l-.07.17-.18.08h-2.72a1.27,1.27,0,0,0-.87.3,2,2,0,0,0-.59,1.07,3.47,3.47,0,0,0-.07.48v65.58a.25.25,0,0,1-.5,0"/>
        <path class="cls-1" d="M114.16,51.08h36.47a.25.25,0,0,1,0,.5H114.16a.25.25,0,0,1,0-.5"/>
        <path class="cls-1" d="M116.17,77.27h3.71a.25.25,0,0,1,0,.5h-3.71a.25.25,0,0,1,0-.5"/>
        <path class="cls-1" d="M116.17,80.4h3.71a.25.25,0,0,1,0,.5h-3.71a.25.25,0,1,1,0-.5"/>
        <path class="cls-1" d="M116.17,83.53h3.71a.25.25,0,0,1,.25.25.25.25,0,0,1-.25.25h-3.71a.25.25,0,0,1-.25-.25.25.25,0,0,1,.25-.25"/>
        <path class="cls-1" d="M116.17,86.66h3.71a.25.25,0,0,1,.25.25.25.25,0,0,1-.25.25h-3.71a.25.25,0,0,1-.25-.25.25.25,0,0,1,.25-.25"/>
        <path class="cls-1" d="M116.17,89.8h3.71a.25.25,0,0,1,.25.25.25.25,0,0,1-.25.25h-3.71a.25.25,0,0,1-.25-.25.25.25,0,0,1,.25-.25"/>
        <path class="cls-1" d="M116.17,92.93h3.71a.25.25,0,0,1,.25.25.25.25,0,0,1-.25.25h-3.71a.25.25,0,0,1-.25-.25.25.25,0,0,1,.25-.25"/>
        <path class="cls-1" d="M116.17,114.84h3.71a.25.25,0,0,1,0,.5h-3.71a.25.25,0,1,1,0-.5"/>
        <path class="cls-1" d="M116.17,96.06h3.71a.25.25,0,0,1,0,.5h-3.71a.25.25,0,0,1,0-.5"/>
        <path class="cls-1" d="M116.17,118h3.71a.25.25,0,0,1,.25.25.25.25,0,0,1-.25.25h-3.71a.25.25,0,0,1-.25-.25.25.25,0,0,1,.25-.25"/>
        <path class="cls-1" d="M116.17,99.19h3.71a.25.25,0,0,1,0,.5h-3.71a.25.25,0,0,1,0-.5"/>
        <path class="cls-1" d="M116.17,121.1h3.71a.25.25,0,0,1,.25.25.25.25,0,0,1-.25.25h-3.71a.25.25,0,0,1-.25-.25.25.25,0,0,1,.25-.25"/>
        <path class="cls-1" d="M116.17,102.32h3.71a.25.25,0,0,1,0,.5h-3.71a.25.25,0,0,1,0-.5"/>
        <path class="cls-1" d="M116.17,124.24h3.71a.25.25,0,0,1,.25.25.25.25,0,0,1-.25.25h-3.71a.25.25,0,0,1-.25-.25.25.25,0,0,1,.25-.25"/>
        <path class="cls-1" d="M116.17,105.45h3.71a.25.25,0,0,1,0,.5h-3.71a.25.25,0,0,1,0-.5"/>
        <path class="cls-1" d="M116.17,127.37h3.71a.25.25,0,0,1,.25.25.25.25,0,0,1-.25.25h-3.71a.25.25,0,0,1-.25-.25.25.25,0,0,1,.25-.25"/>
        <path class="cls-1" d="M116.17,108.58h3.71a.25.25,0,0,1,0,.5h-3.71a.25.25,0,0,1,0-.5"/>
        <path class="cls-1" d="M116.17,130.5h3.71a.25.25,0,0,1,0,.5h-3.71a.25.25,0,0,1,0-.5"/>
        <path class="cls-1" d="M116.17,111.71h3.71a.25.25,0,0,1,.25.25.25.25,0,0,1-.25.25h-3.71a.25.25,0,0,1-.25-.25.25.25,0,0,1,.25-.25"/>
        <path class="cls-1" d="M116.17,133.63h3.71a.25.25,0,0,1,0,.5h-3.71a.25.25,0,0,1,0-.5"/>
        <path class="cls-1" d="M116.17,136.72h3.71a.25.25,0,0,1,.25.25.25.25,0,0,1-.25.25h-3.71a.25.25,0,0,1-.25-.25.25.25,0,0,1,.25-.25"/>
        <path class="cls-1" d="M123.43,77.27h3.71a.25.25,0,0,1,0,.5h-3.71a.25.25,0,0,1,0-.5"/>
        <path class="cls-1" d="M123.43,80.4h3.71a.25.25,0,1,1,0,.5h-3.71a.25.25,0,0,1,0-.5"/>
        <path class="cls-1" d="M123.43,83.53h3.71a.25.25,0,0,1,.25.25.25.25,0,0,1-.25.25h-3.71a.25.25,0,0,1-.25-.25.25.25,0,0,1,.25-.25"/>
        <path class="cls-1" d="M123.43,86.66h3.71a.25.25,0,0,1,.25.25.25.25,0,0,1-.25.25h-3.71a.25.25,0,0,1-.25-.25.25.25,0,0,1,.25-.25"/>
        <path class="cls-1" d="M123.43,89.8h3.71a.25.25,0,0,1,.25.25.25.25,0,0,1-.25.25h-3.71a.25.25,0,0,1-.25-.25.25.25,0,0,1,.25-.25"/>
        <path class="cls-1" d="M123.43,92.93h3.71a.25.25,0,0,1,.25.25.25.25,0,0,1-.25.25h-3.71a.25.25,0,0,1-.25-.25.25.25,0,0,1,.25-.25"/>
        <path class="cls-1" d="M123.43,114.84h3.71a.25.25,0,1,1,0,.5h-3.71a.25.25,0,0,1,0-.5"/>
        <path class="cls-1" d="M123.43,96.06h3.71a.25.25,0,0,1,0,.5h-3.71a.25.25,0,0,1,0-.5"/>
        <path class="cls-1" d="M123.43,118h3.71a.25.25,0,0,1,.25.25.25.25,0,0,1-.25.25h-3.71a.25.25,0,0,1-.25-.25.25.25,0,0,1,.25-.25"/>
        <path class="cls-1" d="M123.43,99.19h3.71a.25.25,0,0,1,0,.5h-3.71a.25.25,0,0,1,0-.5"/>
        <path class="cls-1" d="M123.43,121.1h3.71a.25.25,0,0,1,.25.25.25.25,0,0,1-.25.25h-3.71a.25.25,0,0,1-.25-.25.25.25,0,0,1,.25-.25"/>
        <path class="cls-1" d="M123.43,102.32h3.71a.25.25,0,0,1,0,.5h-3.71a.25.25,0,0,1,0-.5"/>
        <path class="cls-1" d="M123.43,124.24h3.71a.25.25,0,0,1,.25.25.25.25,0,0,1-.25.25h-3.71a.25.25,0,0,1-.25-.25.25.25,0,0,1,.25-.25"/>
        <path class="cls-1" d="M123.43,105.45h3.71a.25.25,0,0,1,0,.5h-3.71a.25.25,0,0,1,0-.5"/>
        <path class="cls-1" d="M123.43,127.37h3.71a.25.25,0,0,1,.25.25.25.25,0,0,1-.25.25h-3.71a.25.25,0,0,1-.25-.25.25.25,0,0,1,.25-.25"/>
        <path class="cls-1" d="M123.43,108.58h3.71a.25.25,0,0,1,0,.5h-3.71a.25.25,0,0,1,0-.5"/>
        <path class="cls-1" d="M123.43,130.5h3.71a.25.25,0,0,1,0,.5h-3.71a.25.25,0,0,1,0-.5"/>
        <path class="cls-1" d="M123.43,111.71h3.71a.25.25,0,0,1,.25.25.25.25,0,0,1-.25.25h-3.71a.25.25,0,0,1-.25-.25.25.25,0,0,1,.25-.25"/>
        <path class="cls-1" d="M123.43,133.63h3.71a.25.25,0,0,1,0,.5h-3.71a.25.25,0,0,1,0-.5"/>
        <path class="cls-1" d="M123.43,136.72h3.71a.25.25,0,0,1,.25.25.25.25,0,0,1-.25.25h-3.71a.25.25,0,0,1-.25-.25.25.25,0,0,1,.25-.25"/>
        <path class="cls-1" d="M130.62,77.27h3.71a.25.25,0,0,1,0,.5h-3.71a.25.25,0,0,1,0-.5"/>
        <path class="cls-1" d="M130.62,80.4h3.71a.25.25,0,0,1,0,.5h-3.71a.25.25,0,0,1,0-.5"/>
        <path class="cls-1" d="M130.62,83.53h3.71a.26.26,0,0,1,.25.25.25.25,0,0,1-.25.25h-3.71a.25.25,0,0,1-.25-.25.25.25,0,0,1,.25-.25"/>
        <path class="cls-1" d="M130.62,86.66h3.71a.26.26,0,0,1,.25.25.25.25,0,0,1-.25.25h-3.71a.25.25,0,0,1-.25-.25.25.25,0,0,1,.25-.25"/>
        <path class="cls-1" d="M130.62,89.8h3.71a.25.25,0,0,1,.25.25.26.26,0,0,1-.25.25h-3.71a.25.25,0,0,1-.25-.25.25.25,0,0,1,.25-.25"/>
        <path class="cls-1" d="M130.62,92.93h3.71a.25.25,0,0,1,.25.25.26.26,0,0,1-.25.25h-3.71a.25.25,0,0,1-.25-.25.25.25,0,0,1,.25-.25"/>
        <path class="cls-1" d="M130.62,114.84h3.71a.25.25,0,0,1,0,.5h-3.71a.25.25,0,0,1,0-.5"/>
        <path class="cls-1" d="M130.62,96.06h3.71a.25.25,0,0,1,0,.5h-3.71a.25.25,0,0,1,0-.5"/>
        <path class="cls-1" d="M130.62,118h3.71a.26.26,0,0,1,.25.25.25.25,0,0,1-.25.25h-3.71a.25.25,0,0,1-.25-.25.25.25,0,0,1,.25-.25"/>
        <path class="cls-1" d="M130.62,99.19h3.71a.25.25,0,0,1,0,.5h-3.71a.25.25,0,0,1,0-.5"/>
        <path class="cls-1" d="M130.62,121.1h3.71a.26.26,0,0,1,.25.25.25.25,0,0,1-.25.25h-3.71a.25.25,0,0,1-.25-.25.25.25,0,0,1,.25-.25"/>
        <path class="cls-1" d="M130.62,102.32h3.71a.25.25,0,0,1,0,.5h-3.71a.25.25,0,0,1,0-.5"/>
        <path class="cls-1" d="M130.62,124.24h3.71a.25.25,0,0,1,.25.25.26.26,0,0,1-.25.25h-3.71a.25.25,0,0,1-.25-.25.25.25,0,0,1,.25-.25"/>
        <path class="cls-1" d="M130.62,105.45h3.71a.25.25,0,0,1,0,.5h-3.71a.25.25,0,0,1,0-.5"/>
        <path class="cls-1" d="M130.62,127.37h3.71a.25.25,0,0,1,.25.25.26.26,0,0,1-.25.25h-3.71a.25.25,0,0,1-.25-.25.25.25,0,0,1,.25-.25"/>
        <path class="cls-1" d="M130.62,108.58h3.71a.25.25,0,0,1,0,.5h-3.71a.25.25,0,0,1,0-.5"/>
        <path class="cls-1" d="M130.62,130.5h3.71a.25.25,0,1,1,0,.5h-3.71a.25.25,0,0,1,0-.5"/>
        <path class="cls-1" d="M130.62,111.71h3.71a.26.26,0,0,1,.25.25.25.25,0,0,1-.25.25h-3.71a.25.25,0,0,1-.25-.25.25.25,0,0,1,.25-.25"/>
        <path class="cls-1" d="M130.62,133.63h3.71a.25.25,0,1,1,0,.5h-3.71a.25.25,0,0,1,0-.5"/>
        <path class="cls-1" d="M130.62,136.72h3.71a.26.26,0,0,1,.25.25.25.25,0,0,1-.25.25h-3.71a.25.25,0,0,1-.25-.25.25.25,0,0,1,.25-.25"/>
        <path class="cls-1" d="M137.72,77.27h3.71a.25.25,0,0,1,0,.5h-3.71a.25.25,0,0,1,0-.5"/>
        <path class="cls-1" d="M137.72,80.4h3.71a.25.25,0,0,1,0,.5h-3.71a.25.25,0,0,1,0-.5"/>
        <path class="cls-1" d="M137.72,83.53h3.71a.25.25,0,0,1,.25.25.25.25,0,0,1-.25.25h-3.71a.25.25,0,0,1-.25-.25.26.26,0,0,1,.25-.25"/>
        <path class="cls-1" d="M137.72,86.66h3.71a.25.25,0,0,1,.25.25.25.25,0,0,1-.25.25h-3.71a.25.25,0,0,1-.25-.25.26.26,0,0,1,.25-.25"/>
        <path class="cls-1" d="M137.72,89.8h3.71a.25.25,0,0,1,.25.25.25.25,0,0,1-.25.25h-3.71a.26.26,0,0,1-.25-.25.25.25,0,0,1,.25-.25"/>
        <path class="cls-1" d="M137.72,92.93h3.71a.25.25,0,0,1,.25.25.25.25,0,0,1-.25.25h-3.71a.26.26,0,0,1-.25-.25.25.25,0,0,1,.25-.25"/>
        <path class="cls-1" d="M137.72,114.84h3.71a.25.25,0,0,1,0,.5h-3.71a.25.25,0,0,1,0-.5"/>
        <path class="cls-1" d="M137.72,96.06h3.71a.25.25,0,0,1,0,.5h-3.71a.25.25,0,0,1,0-.5"/>
        <path class="cls-1" d="M137.72,118h3.71a.25.25,0,0,1,.25.25.25.25,0,0,1-.25.25h-3.71a.25.25,0,0,1-.25-.25.26.26,0,0,1,.25-.25"/>
        <path class="cls-1" d="M137.72,99.19h3.71a.25.25,0,0,1,0,.5h-3.71a.25.25,0,0,1,0-.5"/>
        <path class="cls-1" d="M137.72,121.1h3.71a.25.25,0,0,1,.25.25.25.25,0,0,1-.25.25h-3.71a.25.25,0,0,1-.25-.25.26.26,0,0,1,.25-.25"/>
        <path class="cls-1" d="M137.72,102.32h3.71a.25.25,0,0,1,0,.5h-3.71a.25.25,0,0,1,0-.5"/>
        <path class="cls-1" d="M137.72,124.24h3.71a.25.25,0,0,1,.25.25.25.25,0,0,1-.25.25h-3.71a.26.26,0,0,1-.25-.25.25.25,0,0,1,.25-.25"/>
        <path class="cls-1" d="M137.72,105.45h3.71a.25.25,0,0,1,0,.5h-3.71a.25.25,0,0,1,0-.5"/>
        <path class="cls-1" d="M137.72,127.37h3.71a.25.25,0,0,1,.25.25.25.25,0,0,1-.25.25h-3.71a.26.26,0,0,1-.25-.25.25.25,0,0,1,.25-.25"/>
        <path class="cls-1" d="M137.72,108.58h3.71a.25.25,0,0,1,0,.5h-3.71a.25.25,0,0,1,0-.5"/>
        <path class="cls-1" d="M137.72,130.5h3.71a.25.25,0,0,1,0,.5h-3.71a.25.25,0,0,1,0-.5"/>
        <path class="cls-1" d="M137.72,111.71h3.71a.25.25,0,0,1,.25.25.25.25,0,0,1-.25.25h-3.71a.25.25,0,0,1-.25-.25.26.26,0,0,1,.25-.25"/>
        <path class="cls-1" d="M137.72,133.63h3.71a.25.25,0,0,1,0,.5h-3.71a.25.25,0,0,1,0-.5"/>
        <path class="cls-1" d="M137.72,136.72h3.71a.25.25,0,0,1,.25.25.25.25,0,0,1-.25.25h-3.71a.25.25,0,0,1-.25-.25.26.26,0,0,1,.25-.25"/>
        <path class="cls-1" d="M145.06,77.27h3.71a.25.25,0,0,1,0,.5h-3.71a.25.25,0,0,1,0-.5"/>
        <path class="cls-1" d="M145.06,80.4h3.71a.25.25,0,0,1,0,.5h-3.71a.25.25,0,0,1,0-.5"/>
        <path class="cls-1" d="M145.06,83.53h3.71a.25.25,0,0,1,.25.25.25.25,0,0,1-.25.25h-3.71a.25.25,0,0,1-.25-.25.26.26,0,0,1,.25-.25"/>
        <path class="cls-1" d="M145.06,86.66h3.71a.25.25,0,0,1,.25.25.25.25,0,0,1-.25.25h-3.71a.25.25,0,0,1-.25-.25.26.26,0,0,1,.25-.25"/>
        <path class="cls-1" d="M145.06,89.8h3.71a.25.25,0,0,1,.25.25.25.25,0,0,1-.25.25h-3.71a.26.26,0,0,1-.25-.25.25.25,0,0,1,.25-.25"/>
        <path class="cls-1" d="M145.06,92.93h3.71a.25.25,0,0,1,.25.25.25.25,0,0,1-.25.25h-3.71a.26.26,0,0,1-.25-.25.25.25,0,0,1,.25-.25"/>
        <path class="cls-1" d="M145.06,114.84h3.71a.25.25,0,0,1,0,.5h-3.71a.25.25,0,0,1,0-.5"/>
        <path class="cls-1" d="M145.06,96.06h3.71a.25.25,0,0,1,0,.5h-3.71a.25.25,0,0,1,0-.5"/>
        <path class="cls-1" d="M145.06,118h3.71a.25.25,0,0,1,.25.25.25.25,0,0,1-.25.25h-3.71a.25.25,0,0,1-.25-.25.26.26,0,0,1,.25-.25"/>
        <path class="cls-1" d="M145.06,99.19h3.71a.25.25,0,0,1,0,.5h-3.71a.25.25,0,0,1,0-.5"/>
        <path class="cls-1" d="M145.06,121.1h3.71a.25.25,0,0,1,.25.25.25.25,0,0,1-.25.25h-3.71a.25.25,0,0,1-.25-.25.26.26,0,0,1,.25-.25"/>
        <path class="cls-1" d="M145.06,102.32h3.71a.25.25,0,0,1,0,.5h-3.71a.25.25,0,0,1,0-.5"/>
        <path class="cls-1" d="M145.06,124.24h3.71a.25.25,0,0,1,.25.25.25.25,0,0,1-.25.25h-3.71a.26.26,0,0,1-.25-.25.25.25,0,0,1,.25-.25"/>
        <path class="cls-1" d="M145.06,105.45h3.71a.25.25,0,0,1,0,.5h-3.71a.25.25,0,0,1,0-.5"/>
        <path class="cls-1" d="M145.06,127.37h3.71a.25.25,0,0,1,.25.25.25.25,0,0,1-.25.25h-3.71a.26.26,0,0,1-.25-.25.25.25,0,0,1,.25-.25"/>
        <path class="cls-1" d="M145.06,108.58h3.71a.25.25,0,0,1,0,.5h-3.71a.25.25,0,0,1,0-.5"/>
        <path class="cls-1" d="M145.06,130.5h3.71a.25.25,0,0,1,0,.5h-3.71a.25.25,0,0,1,0-.5"/>
        <path class="cls-1" d="M145.06,111.71h3.71a.25.25,0,0,1,.25.25.25.25,0,0,1-.25.25h-3.71a.25.25,0,0,1-.25-.25.26.26,0,0,1,.25-.25"/>
        <path class="cls-1" d="M145.06,133.63h3.71a.25.25,0,0,1,0,.5h-3.71a.25.25,0,0,1,0-.5"/>
        <path class="cls-1" d="M145.06,136.72h3.71a.25.25,0,0,1,.25.25.25.25,0,0,1-.25.25h-3.71a.25.25,0,0,1-.25-.25.26.26,0,0,1,.25-.25"/>
        <path class="cls-1" d="M92.32,73.27v6.8a.25.25,0,0,1-.25.25.25.25,0,0,1-.25-.25v-6.8a.25.25,0,0,1,.25-.25.25.25,0,0,1,.25.25"/>
        <path class="cls-2" d="M101,27.68A6.37,6.37,0,0,1,96.59,26a6.26,6.26,0,0,0-8.49,0,6.46,6.46,0,0,1-8.78,0,6.26,6.26,0,0,0-8.49,0A6.48,6.48,0,0,1,62,26a6.24,6.24,0,0,0-8.48,0,6.48,6.48,0,0,1-8.79,0,6.1,6.1,0,0,0-4.24-1.66v-.25a6.36,6.36,0,0,1,4.39,1.71,6.23,6.23,0,0,0,8.49,0,6.5,6.5,0,0,1,8.79,0,6.22,6.22,0,0,0,8.48,0,6.5,6.5,0,0,1,8.79,0,6.22,6.22,0,0,0,8.48,0,6.5,6.5,0,0,1,8.79,0A6.11,6.11,0,0,0,101,27.43v.25"/>
        <path class="cls-2" d="M134.16,33.35a6.34,6.34,0,0,1-4.39-1.72,6.24,6.24,0,0,0-8.48,0,6.48,6.48,0,0,1-8.79,0,6.26,6.26,0,0,0-8.49,0,6.48,6.48,0,0,1-8.79,0,6.24,6.24,0,0,0-8.48,0,6.32,6.32,0,0,1-4.39,1.72V33.1a6.11,6.11,0,0,0,4.24-1.67,6.5,6.5,0,0,1,8.79,0,6.22,6.22,0,0,0,8.48,0,6.5,6.5,0,0,1,8.79,0,6.22,6.22,0,0,0,8.48,0,6.5,6.5,0,0,1,8.79,0,6.13,6.13,0,0,0,4.24,1.67v.25"/>
        <path class="cls-3" d="M15,11.49H6.48a22.89,22.89,0,0,1-3.15-.25,8,8,0,0,1-2.21-.61,2.54,2.54,0,0,1-.79-.55A1.24,1.24,0,0,1,0,9.25,2.81,2.81,0,0,1,1.24,7.34c.19-.15,3-2.57,6.24-2.58h.38v0L44.64,5l.06.16a1.33,1.33,0,0,1,.07.45,2.38,2.38,0,0,1-.61,1.51,6.92,6.92,0,0,1-2.79,1.84l-.1-.25.1.25L37,10.79h0a10.84,10.84,0,0,1-3.61.7c-.22,0-.45,0-.67,0l0-.26v.26l-4,0V11l4,0h0c.21,0,.41,0,.62,0a9.54,9.54,0,0,0,2.37-.33c.31-.08.58-.17.76-.23l.28-.1.1.25-.1-.25,4.35-1.85h0a6.47,6.47,0,0,0,2.58-1.68,1.83,1.83,0,0,0,.49-1.18.88.88,0,0,0,0-.2v0h0l.08,0-.08,0h0l.08,0-.08,0,.25-.09V5.5L7.84,5.3H7.48c-3,0-5.75,2.32-5.9,2.45C.79,8.41.52,8.93.53,9.25a.68.68,0,0,0,.2.48A3,3,0,0,0,2,10.42a13.82,13.82,0,0,0,2.89.47c.44,0,.83.06,1.11.06H15v.53"/>
        <path class="cls-3" d="M2.06,6.89s.37.05.87.09,1.15.1,1.69.1h.25l0,.53H4.62A24.57,24.57,0,0,1,2,7.41l.07-.52"/>
        <polyline class="cls-3" points="6.79 11.14 6.79 12.76 6.26 12.76 6.26 11.14 6.79 11.14"/>
        <polyline class="cls-3" points="30.97 11.14 30.97 12.76 30.44 12.76 30.44 11.14 30.97 11.14"/>
        <path class="cls-3" d="M30.35,6.09a.53.53,0,1,1-.53.53.53.53,0,0,1,.53-.53m-2.19,0a.53.53,0,1,1-.53.53.53.53,0,0,1,.53-.53M26,6.09a.53.53,0,1,1-.53.53A.53.53,0,0,1,26,6.09m-2.19,0a.53.53,0,1,1-.53.53.53.53,0,0,1,.53-.53m-2.19,0a.53.53,0,1,1-.53.53.53.53,0,0,1,.53-.53m-2.19,0a.53.53,0,1,1-.53.53.53.53,0,0,1,.53-.53m-2.19,0a.53.53,0,1,1-.53.53.53.53,0,0,1,.53-.53M15,6.09a.53.53,0,1,1-.53.53A.53.53,0,0,1,15,6.09m-2.19,0a.53.53,0,1,1-.53.53.53.53,0,0,1,.53-.53"/>
        <path class="cls-3" d="M32.54,6.09a.55.55,0,0,1,.38.16.53.53,0,0,1,0,.74.55.55,0,0,1-.38.16A.52.52,0,0,1,32.17,7a.51.51,0,0,1,0-.74.52.52,0,0,1,.37-.16m-21.9,0a.55.55,0,1,1-.37.16.51.51,0,0,1,.37-.16"/>
        <path class="cls-3" d="M35.81,4.87l-.12.23V4.84l.12,0-.12.23v0l-.07-.21h.07v.22l-.07-.21.15-.06c.65-.31,2.91-1.51,5-2.61l4-2.14.07,0L48.7.3l-4.21,5-.4-.34L47.63.75,44.88.53l0-.26L45,.5,40.49,2.92,37.33,4.59l-1.07.55-.32.15-.11,0,0,0h-.1l-.13,0,.25-.47"/>
        <path class="cls-3" d="M28.85,11.14l-.1.24s-.25-.11-.71-.27a24.16,24.16,0,0,0-7.59-1.47,8.52,8.52,0,0,0-5.6,1.7l-.17-.2.19-.19h0c.16.15,1.73,1.6,5.6,1.61a24.68,24.68,0,0,0,8.28-1.68l.09.25-.1.24.1-.24.09.25a25.09,25.09,0,0,1-8.46,1.71c-4.27,0-6-1.74-6-1.78l-.2-.21.22-.18a9.05,9.05,0,0,1,5.94-1.82A25.44,25.44,0,0,1,29,10.89l.62.26-.64.24-.09-.25"/>
        <polyline class="cls-3" points="43 9.78 91.13 9.78 91.13 10.04 43 10.04 43 9.78"/>
        <polyline class="cls-3" points="35.34 12.96 54.1 12.96 54.1 13.23 35.34 13.23 35.34 12.96"/>
        <path class="cls-4" d="M86,73.62h-.54s0,0,0,.07c1.21,2.55,1.83,6.2,1.83,10.61h.1a.25.25,0,0,1,0,.5h-.1c-.09,5.71-1.66,44.27-2.07,54,0,1.12-.07,1.87-.08,2.14h.5c.12-2.94,2.15-52.22,2.15-56.58S87.24,76.29,86,73.62"/>
        <path class="cls-4" d="M88,73.62H87.4l0,.1c.06.12.15.3.25.54a21.06,21.06,0,0,1,.74,2,23.68,23.68,0,0,1,1.08,7c0,.35,0,.72,0,1.09-.3,6.16-2.21,53.92-2.32,56.59h.5c0-.28,0-1,.09-2,0-1.39.13-3.38.23-5.79.19-4.83.45-11.32.72-18,.54-13.39,1.12-27.57,1.28-30.73,0-.38,0-.75,0-1.11A23.68,23.68,0,0,0,88,73.62"/>
        <path class="cls-4" d="M96.42,73.62h-.55c-.14.31-.29.73-.46,1.24-.23.72-.49,1.6-.72,2.54a26.09,26.09,0,0,0-.88,5.4c0,.13,0,.26,0,.38C94,85.47,95.75,128,96.2,138.59c.06,1.51.1,2.37.1,2.37v0h.49a.06.06,0,0,0,0,0s-2.32-55.16-2.48-57.79c0-.11,0-.23,0-.35A31.93,31.93,0,0,1,95.89,75a9.91,9.91,0,0,1,.53-1.4"/>
        <path class="cls-4" d="M98.51,73.62H98A24,24,0,0,0,96,83c0,5.41,2.18,55,2.31,58h.5c0-.27,0-1-.09-2.15-.07-1.45-.16-3.53-.27-6-.21-5-.5-11.75-.79-18.67-.5-11.91-1-24.34-1.13-29.33h-.13a.25.25,0,0,1,0-.5h.12c0-.56,0-1,0-1.29a23.38,23.38,0,0,1,2-9.39M98.4,73a.26.26,0,0,0-.2.1h.4a.27.27,0,0,0-.08-.07.27.27,0,0,0-.12,0"/>
        <path class="cls-4" d="M87.43,84.3h-2a.25.25,0,0,0,0,.5h2a.25.25,0,0,0,0-.5"/>
        <path class="cls-4" d="M98.4,84.3h-2a.25.25,0,0,0,0,.5h2a.25.25,0,0,0,0-.5"/>
        <path class="cls-4" d="M84.89,70h-2.1l-.18.07-.07.18v3.16l.07.18.18.07h9v-.35a.2.2,0,0,1,.05-.15H83V70.46h1.9a.3.3,0,0,1,0-.15h0V70m13.26,0H85.39v.35a.3.3,0,0,1,0,.15H98.2a.3.3,0,0,1,0-.15V70m2.95,0H98.65v.35a.3.3,0,0,1-.05.15h2.25v2.66H92.26a.2.2,0,0,1,.06.15v.35h8.78l.17-.07.08-.18V70.21l-.08-.18L101.1,70"/>
        <path class="cls-4" d="M92,60.91H91.5s-.22.06-.58.19v.17a.25.25,0,0,1-.25.25.24.24,0,0,1-.24-.23,11.61,11.61,0,0,0-2.22,1.23,7.28,7.28,0,0,0-3.32,6v1.73h0a.3.3,0,0,0,0,.15.25.25,0,0,0,.2.1.26.26,0,0,0,.2-.1.3.3,0,0,0,0-.15V68.58a6.59,6.59,0,0,1,2.52-5.19,11.11,11.11,0,0,1,3.46-1.91l.23-.07h.34l.23.07.71.27A10.68,10.68,0,0,1,95,62.94a6.77,6.77,0,0,1,3.11,5.64v1.73a.3.3,0,0,0,0,.15.25.25,0,0,0,.4,0,.3.3,0,0,0,.05-.15V68.58a7.28,7.28,0,0,0-3.32-6,11.4,11.4,0,0,0-2-1.13v.07a.25.25,0,0,1-.25.25.26.26,0,0,1-.25-.25v-.28a7.44,7.44,0,0,0-.79-.27H92"/>
        <path class="cls-4" d="M91.72,50.1a1.33,1.33,0,0,0-1.06.6,1.37,1.37,0,0,0-.23.6v10a.24.24,0,0,0,.24.23.25.25,0,0,0,.25-.25V51.35h0l0-.09a.89.89,0,0,1,.9-.66.89.89,0,0,1,.74.38,1.55,1.55,0,0,1,.24.55v9.95a.26.26,0,0,0,.25.25.25.25,0,0,0,.25-.25v-10a1.86,1.86,0,0,0-.26-.68,1.37,1.37,0,0,0-.85-.66v0a.25.25,0,0,1-.5,0V50.1"/>
        <path class="cls-4" d="M92,39.71a.25.25,0,0,0-.25.25v10.2a.25.25,0,0,0,.5,0V40a.25.25,0,0,0-.25-.25"/>
        <path class="cls-4" d="M114,51.5V57a1.89,1.89,0,0,1-.87,1.7,3,3,0,0,1-1.22.46h-3l-.18.07-.07.18V73.46l.07.17.18.08h3.27a1.67,1.67,0,0,1,1.57.81,2.69,2.69,0,0,1,.34,1.14V141h.5V75.74a3.06,3.06,0,0,0-.29-1.25,2.19,2.19,0,0,0-2.1-1.28h-3V59.62h2.73a3.49,3.49,0,0,0,1.31-.39A2.45,2.45,0,0,0,114.47,57V51.58h-.31a.27.27,0,0,1-.19-.08m.25-2.4a.25.25,0,0,0-.25.25v1.82a.25.25,0,0,1,.19-.09h.31V49.35a.25.25,0,0,0-.25-.25"/>
        <path class="cls-4" d="M150.68,49.1a.25.25,0,0,0-.25.25v1.73h.2a.25.25,0,0,1,0,.5h-.2V57a2.45,2.45,0,0,0,1.33,2.27,3.49,3.49,0,0,0,1.31.39h2.73V73.21h-3a2.2,2.2,0,0,0-2.1,1.28,3.06,3.06,0,0,0-.29,1.25V141h.5V75.66a1.2,1.2,0,0,1,0-.23,2.59,2.59,0,0,1,.21-.72,1.68,1.68,0,0,1,1.67-1h3.27l.18-.08.07-.17V59.37l-.07-.18-.18-.07h-3l-.25,0a3.26,3.26,0,0,1-.77-.29A1.91,1.91,0,0,1,150.93,57v-7.6a.25.25,0,0,0-.25-.25"/>
        <path class="cls-4" d="M121.66,51.58h-.5V57a2,2,0,0,1-.75,1.71,2.45,2.45,0,0,1-1,.45h-2.62l-.17.07-.08.18V73.46l.08.17.17.08h2.84a1.4,1.4,0,0,1,1.32.79,3.06,3.06,0,0,1,.3,1.16V141h.5V75.74a3.43,3.43,0,0,0-.11-.78,2.42,2.42,0,0,0-.77-1.34,1.92,1.92,0,0,0-1.24-.41H117V59.62h2.34a2.9,2.9,0,0,0,1.16-.4A2.53,2.53,0,0,0,121.66,57V51.58m-.25-2.48a.25.25,0,0,0-.25.25v1.73h.5V49.35a.26.26,0,0,0-.25-.25"/>
        <path class="cls-4" d="M143.74,51.58h-.5V57a2.51,2.51,0,0,0,1.17,2.26,2.83,2.83,0,0,0,1.15.4h2.34V73.21h-2.59a1.92,1.92,0,0,0-1.24.41,2.24,2.24,0,0,0-.63.89,3.65,3.65,0,0,0-.25,1.23V141h.5V75.56a4.31,4.31,0,0,1,.08-.48,2,2,0,0,1,.61-1.07,1.39,1.39,0,0,1,.92-.3h2.84l.18-.08.07-.17V59.37l-.07-.18-.18-.07h-2.62l-.21,0a2.31,2.31,0,0,1-.65-.28,2,2,0,0,1-.93-1.83V51.58m-.25-2.48a.26.26,0,0,0-.25.25v1.73h.5V49.35a.25.25,0,0,0-.25-.25"/>
        <path class="cls-4" d="M129.34,51.58h-.5V57a2.07,2.07,0,0,1-.72,1.72,2.38,2.38,0,0,1-1,.44h-2.51l-.18.07-.07.18V73.46l.07.17.18.08h2.72a1.3,1.3,0,0,1,1.25.79,3.2,3.2,0,0,1,.29,1.16V141h.5V75.74a3.76,3.76,0,0,0-.1-.78,2.48,2.48,0,0,0-.74-1.34,1.8,1.8,0,0,0-1.19-.41h-2.48V59.62h2.24a2.64,2.64,0,0,0,1.11-.41A2.5,2.5,0,0,0,129.34,57V51.58m-.25-2.48a.25.25,0,0,0-.25.25v1.73h.5V49.35a.25.25,0,0,0-.25-.25"/>
        <path class="cls-4" d="M136.06,51.58h-.5V57a2.5,2.5,0,0,0,1.11,2.25,2.62,2.62,0,0,0,1.12.41H140V73.21h-2.48a1.8,1.8,0,0,0-1.19.41,2.23,2.23,0,0,0-.6.89,3.78,3.78,0,0,0-.24,1.23V141h.5V75.56a3.47,3.47,0,0,1,.07-.48,2,2,0,0,1,.59-1.07,1.27,1.27,0,0,1,.87-.3h2.72l.18-.08.07-.17V59.37l-.07-.18-.18-.07h-2.51l-.2,0a2.59,2.59,0,0,1-.62-.27,2,2,0,0,1-.88-1.84V51.58m-.25-2.48a.25.25,0,0,0-.25.25v1.73h.5V49.35a.25.25,0,0,0-.25-.25"/>
        <path class="cls-4" d="M150.63,51.08H114.16a.25.25,0,0,0-.19.09.23.23,0,0,0-.06.16.24.24,0,0,0,.25.25h36.47a.25.25,0,0,0,0-.5"/>
        <path class="cls-4" d="M119.88,77.27h-3.71a.25.25,0,0,0,0,.5h3.71a.25.25,0,0,0,0-.5"/>
        <path class="cls-4" d="M119.88,80.4h-3.71a.25.25,0,1,0,0,.5h3.71a.25.25,0,0,0,0-.5"/>
        <path class="cls-4" d="M119.88,83.53h-3.71a.25.25,0,0,0-.25.25.25.25,0,0,0,.25.25h3.71a.25.25,0,0,0,.25-.25.25.25,0,0,0-.25-.25"/>
        <path class="cls-4" d="M119.88,86.66h-3.71a.25.25,0,0,0-.25.25.25.25,0,0,0,.25.25h3.71a.25.25,0,0,0,.25-.25.25.25,0,0,0-.25-.25"/>
        <path class="cls-4" d="M119.88,89.8h-3.71a.25.25,0,0,0-.25.25.25.25,0,0,0,.25.25h3.71a.25.25,0,0,0,.25-.25.25.25,0,0,0-.25-.25"/>
        <path class="cls-4" d="M119.88,92.93h-3.71a.25.25,0,0,0-.25.25.25.25,0,0,0,.25.25h3.71a.25.25,0,0,0,.25-.25.25.25,0,0,0-.25-.25"/>
        <path class="cls-4" d="M119.88,114.84h-3.71a.25.25,0,1,0,0,.5h3.71a.25.25,0,0,0,0-.5"/>
        <path class="cls-4" d="M119.88,96.06h-3.71a.25.25,0,0,0,0,.5h3.71a.25.25,0,0,0,0-.5"/>
        <path class="cls-4" d="M119.88,118h-3.71a.25.25,0,0,0-.25.25.25.25,0,0,0,.25.25h3.71a.25.25,0,0,0,.25-.25.25.25,0,0,0-.25-.25"/>
        <path class="cls-4" d="M119.88,99.19h-3.71a.25.25,0,0,0,0,.5h3.71a.25.25,0,0,0,0-.5"/>
        <path class="cls-4" d="M119.88,121.1h-3.71a.25.25,0,0,0-.25.25.25.25,0,0,0,.25.25h3.71a.25.25,0,0,0,.25-.25.25.25,0,0,0-.25-.25"/>
        <path class="cls-4" d="M119.88,102.32h-3.71a.25.25,0,0,0,0,.5h3.71a.25.25,0,0,0,0-.5"/>
        <path class="cls-4" d="M119.88,124.24h-3.71a.25.25,0,0,0-.25.25.25.25,0,0,0,.25.25h3.71a.25.25,0,0,0,.25-.25.25.25,0,0,0-.25-.25"/>
        <path class="cls-4" d="M119.88,105.45h-3.71a.25.25,0,0,0,0,.5h3.71a.25.25,0,0,0,0-.5"/>
        <path class="cls-4" d="M119.88,127.37h-3.71a.25.25,0,0,0-.25.25.25.25,0,0,0,.25.25h3.71a.25.25,0,0,0,.25-.25.25.25,0,0,0-.25-.25"/>
        <path class="cls-4" d="M119.88,108.58h-3.71a.25.25,0,0,0,0,.5h3.71a.25.25,0,0,0,0-.5"/>
        <path class="cls-4" d="M119.88,130.5h-3.71a.25.25,0,0,0,0,.5h3.71a.25.25,0,0,0,0-.5"/>
        <path class="cls-4" d="M119.88,111.71h-3.71a.25.25,0,0,0-.25.25.25.25,0,0,0,.25.25h3.71a.25.25,0,0,0,.25-.25.25.25,0,0,0-.25-.25"/>
        <path class="cls-4" d="M119.88,133.63h-3.71a.25.25,0,0,0,0,.5h3.71a.25.25,0,0,0,0-.5"/>
        <path class="cls-4" d="M119.88,136.72h-3.71a.25.25,0,0,0-.25.25.25.25,0,0,0,.25.25h3.71a.25.25,0,0,0,.25-.25.25.25,0,0,0-.25-.25"/>
        <path class="cls-4" d="M127.14,77.27h-3.71a.25.25,0,0,0,0,.5h3.71a.25.25,0,0,0,0-.5"/>
        <path class="cls-4" d="M127.14,80.4h-3.71a.25.25,0,0,0,0,.5h3.71a.25.25,0,1,0,0-.5"/>
        <path class="cls-4" d="M127.14,83.53h-3.71a.25.25,0,0,0-.25.25.25.25,0,0,0,.25.25h3.71a.25.25,0,0,0,.25-.25.25.25,0,0,0-.25-.25"/>
        <path class="cls-4" d="M127.14,86.66h-3.71a.25.25,0,0,0-.25.25.25.25,0,0,0,.25.25h3.71a.25.25,0,0,0,.25-.25.25.25,0,0,0-.25-.25"/>
        <path class="cls-4" d="M127.14,89.8h-3.71a.25.25,0,0,0-.25.25.25.25,0,0,0,.25.25h3.71a.25.25,0,0,0,.25-.25.25.25,0,0,0-.25-.25"/>
        <path class="cls-4" d="M127.14,92.93h-3.71a.25.25,0,0,0-.25.25.25.25,0,0,0,.25.25h3.71a.25.25,0,0,0,.25-.25.25.25,0,0,0-.25-.25"/>
        <path class="cls-4" d="M127.14,114.84h-3.71a.25.25,0,0,0,0,.5h3.71a.25.25,0,1,0,0-.5"/>
        <path class="cls-4" d="M127.14,96.06h-3.71a.25.25,0,0,0,0,.5h3.71a.25.25,0,0,0,0-.5"/>
        <path class="cls-4" d="M127.14,118h-3.71a.25.25,0,0,0-.25.25.25.25,0,0,0,.25.25h3.71a.25.25,0,0,0,.25-.25.25.25,0,0,0-.25-.25"/>
        <path class="cls-4" d="M127.14,99.19h-3.71a.25.25,0,0,0,0,.5h3.71a.25.25,0,0,0,0-.5"/>
        <path class="cls-4" d="M127.14,121.1h-3.71a.25.25,0,0,0-.25.25.25.25,0,0,0,.25.25h3.71a.25.25,0,0,0,.25-.25.25.25,0,0,0-.25-.25"/>
        <path class="cls-4" d="M127.14,102.32h-3.71a.25.25,0,0,0,0,.5h3.71a.25.25,0,0,0,0-.5"/>
        <path class="cls-4" d="M127.14,124.24h-3.71a.25.25,0,0,0-.25.25.25.25,0,0,0,.25.25h3.71a.25.25,0,0,0,.25-.25.25.25,0,0,0-.25-.25"/>
        <path class="cls-4" d="M127.14,105.45h-3.71a.25.25,0,0,0,0,.5h3.71a.25.25,0,0,0,0-.5"/>
        <path class="cls-4" d="M127.14,127.37h-3.71a.25.25,0,0,0-.25.25.25.25,0,0,0,.25.25h3.71a.25.25,0,0,0,.25-.25.25.25,0,0,0-.25-.25"/>
        <path class="cls-4" d="M127.14,108.58h-3.71a.25.25,0,0,0,0,.5h3.71a.25.25,0,0,0,0-.5"/>
        <path class="cls-4" d="M127.14,130.5h-3.71a.25.25,0,0,0,0,.5h3.71a.25.25,0,0,0,0-.5"/>
        <path class="cls-4" d="M127.14,111.71h-3.71a.25.25,0,0,0-.25.25.25.25,0,0,0,.25.25h3.71a.25.25,0,0,0,.25-.25.25.25,0,0,0-.25-.25"/>
        <path class="cls-4" d="M127.14,133.63h-3.71a.25.25,0,0,0,0,.5h3.71a.25.25,0,0,0,0-.5"/>
        <path class="cls-4" d="M127.14,136.72h-3.71a.25.25,0,0,0-.25.25.25.25,0,0,0,.25.25h3.71a.25.25,0,0,0,.25-.25.25.25,0,0,0-.25-.25"/>
        <path class="cls-4" d="M134.33,77.27h-3.71a.25.25,0,0,0,0,.5h3.71a.25.25,0,0,0,0-.5"/>
        <path class="cls-4" d="M134.33,80.4h-3.71a.25.25,0,0,0,0,.5h3.71a.25.25,0,0,0,0-.5"/>
        <path class="cls-4" d="M134.33,83.53h-3.71a.25.25,0,0,0-.25.25.25.25,0,0,0,.25.25h3.71a.25.25,0,0,0,.25-.25.26.26,0,0,0-.25-.25"/>
        <path class="cls-4" d="M134.33,86.66h-3.71a.25.25,0,0,0-.25.25.25.25,0,0,0,.25.25h3.71a.25.25,0,0,0,.25-.25.26.26,0,0,0-.25-.25"/>
        <path class="cls-4" d="M134.33,89.8h-3.71a.25.25,0,0,0-.25.25.25.25,0,0,0,.25.25h3.71a.26.26,0,0,0,.25-.25.25.25,0,0,0-.25-.25"/>
        <path class="cls-4" d="M134.33,92.93h-3.71a.25.25,0,0,0-.25.25.25.25,0,0,0,.25.25h3.71a.26.26,0,0,0,.25-.25.25.25,0,0,0-.25-.25"/>
        <path class="cls-4" d="M134.33,114.84h-3.71a.25.25,0,0,0,0,.5h3.71a.25.25,0,0,0,0-.5"/>
        <path class="cls-4" d="M134.33,96.06h-3.71a.25.25,0,0,0,0,.5h3.71a.25.25,0,0,0,0-.5"/>
        <path class="cls-4" d="M134.33,118h-3.71a.25.25,0,0,0-.25.25.25.25,0,0,0,.25.25h3.71a.25.25,0,0,0,.25-.25.26.26,0,0,0-.25-.25"/>
        <path class="cls-4" d="M134.33,99.19h-3.71a.25.25,0,0,0,0,.5h3.71a.25.25,0,0,0,0-.5"/>
        <path class="cls-4" d="M134.33,121.1h-3.71a.25.25,0,0,0-.25.25.25.25,0,0,0,.25.25h3.71a.25.25,0,0,0,.25-.25.26.26,0,0,0-.25-.25"/>
        <path class="cls-4" d="M134.33,102.32h-3.71a.25.25,0,0,0,0,.5h3.71a.25.25,0,0,0,0-.5"/>
        <path class="cls-4" d="M134.33,124.24h-3.71a.25.25,0,0,0-.25.25.25.25,0,0,0,.25.25h3.71a.26.26,0,0,0,.25-.25.25.25,0,0,0-.25-.25"/>
        <path class="cls-4" d="M134.33,105.45h-3.71a.25.25,0,0,0,0,.5h3.71a.25.25,0,0,0,0-.5"/>
        <path class="cls-4" d="M134.33,127.37h-3.71a.25.25,0,0,0-.25.25.25.25,0,0,0,.25.25h3.71a.26.26,0,0,0,.25-.25.25.25,0,0,0-.25-.25"/>
        <path class="cls-4" d="M134.33,108.58h-3.71a.25.25,0,0,0,0,.5h3.71a.25.25,0,0,0,0-.5"/>
        <path class="cls-4" d="M134.33,130.5h-3.71a.25.25,0,0,0,0,.5h3.71a.25.25,0,1,0,0-.5"/>
        <path class="cls-4" d="M134.33,111.71h-3.71a.25.25,0,0,0-.25.25.25.25,0,0,0,.25.25h3.71a.25.25,0,0,0,.25-.25.26.26,0,0,0-.25-.25"/>
        <path class="cls-4" d="M134.33,133.63h-3.71a.25.25,0,0,0,0,.5h3.71a.25.25,0,1,0,0-.5"/>
        <path class="cls-4" d="M134.33,136.72h-3.71a.25.25,0,0,0-.25.25.25.25,0,0,0,.25.25h3.71a.25.25,0,0,0,.25-.25.26.26,0,0,0-.25-.25"/>
        <path class="cls-4" d="M141.43,77.27h-3.71a.25.25,0,0,0,0,.5h3.71a.25.25,0,0,0,0-.5"/>
        <path class="cls-4" d="M141.43,80.4h-3.71a.25.25,0,0,0,0,.5h3.71a.25.25,0,0,0,0-.5"/>
        <path class="cls-4" d="M141.43,83.53h-3.71a.26.26,0,0,0-.25.25.25.25,0,0,0,.25.25h3.71a.25.25,0,0,0,.25-.25.25.25,0,0,0-.25-.25"/>
        <path class="cls-4" d="M141.43,86.66h-3.71a.26.26,0,0,0-.25.25.25.25,0,0,0,.25.25h3.71a.25.25,0,0,0,.25-.25.25.25,0,0,0-.25-.25"/>
        <path class="cls-4" d="M141.43,89.8h-3.71a.25.25,0,0,0-.25.25.26.26,0,0,0,.25.25h3.71a.25.25,0,0,0,.25-.25.25.25,0,0,0-.25-.25"/>
        <path class="cls-4" d="M141.43,92.93h-3.71a.25.25,0,0,0-.25.25.26.26,0,0,0,.25.25h3.71a.25.25,0,0,0,.25-.25.25.25,0,0,0-.25-.25"/>
        <path class="cls-4" d="M141.43,114.84h-3.71a.25.25,0,0,0,0,.5h3.71a.25.25,0,0,0,0-.5"/>
        <path class="cls-4" d="M141.43,96.06h-3.71a.25.25,0,0,0,0,.5h3.71a.25.25,0,0,0,0-.5"/>
        <path class="cls-4" d="M141.43,118h-3.71a.26.26,0,0,0-.25.25.25.25,0,0,0,.25.25h3.71a.25.25,0,0,0,.25-.25.25.25,0,0,0-.25-.25"/>
        <path class="cls-4" d="M141.43,99.19h-3.71a.25.25,0,0,0,0,.5h3.71a.25.25,0,0,0,0-.5"/>
        <path class="cls-4" d="M141.43,121.1h-3.71a.26.26,0,0,0-.25.25.25.25,0,0,0,.25.25h3.71a.25.25,0,0,0,.25-.25.25.25,0,0,0-.25-.25"/>
        <path class="cls-4" d="M141.43,102.32h-3.71a.25.25,0,0,0,0,.5h3.71a.25.25,0,0,0,0-.5"/>
        <path class="cls-4" d="M141.43,124.24h-3.71a.25.25,0,0,0-.25.25.26.26,0,0,0,.25.25h3.71a.25.25,0,0,0,.25-.25.25.25,0,0,0-.25-.25"/>
        <path class="cls-4" d="M141.43,105.45h-3.71a.25.25,0,0,0,0,.5h3.71a.25.25,0,0,0,0-.5"/>
        <path class="cls-4" d="M141.43,127.37h-3.71a.25.25,0,0,0-.25.25.26.26,0,0,0,.25.25h3.71a.25.25,0,0,0,.25-.25.25.25,0,0,0-.25-.25"/>
        <path class="cls-4" d="M141.43,108.58h-3.71a.25.25,0,0,0,0,.5h3.71a.25.25,0,0,0,0-.5"/>
        <path class="cls-4" d="M141.43,130.5h-3.71a.25.25,0,0,0,0,.5h3.71a.25.25,0,0,0,0-.5"/>
        <path class="cls-4" d="M141.43,111.71h-3.71a.26.26,0,0,0-.25.25.25.25,0,0,0,.25.25h3.71a.25.25,0,0,0,.25-.25.25.25,0,0,0-.25-.25"/>
        <path class="cls-4" d="M141.43,133.63h-3.71a.25.25,0,0,0,0,.5h3.71a.25.25,0,0,0,0-.5"/>
        <path class="cls-4" d="M141.43,136.72h-3.71a.26.26,0,0,0-.25.25.25.25,0,0,0,.25.25h3.71a.25.25,0,0,0,.25-.25.25.25,0,0,0-.25-.25"/>
        <path class="cls-4" d="M148.77,77.27h-3.71a.25.25,0,0,0,0,.5h3.71a.25.25,0,0,0,0-.5"/>
        <path class="cls-4" d="M148.77,80.4h-3.71a.25.25,0,0,0,0,.5h3.71a.25.25,0,0,0,0-.5"/>
        <path class="cls-4" d="M148.77,83.53h-3.71a.26.26,0,0,0-.25.25.25.25,0,0,0,.25.25h3.71a.25.25,0,0,0,.25-.25.25.25,0,0,0-.25-.25"/>
        <path class="cls-4" d="M148.77,86.66h-3.71a.26.26,0,0,0-.25.25.25.25,0,0,0,.25.25h3.71a.25.25,0,0,0,.25-.25.25.25,0,0,0-.25-.25"/>
        <path class="cls-4" d="M148.77,89.8h-3.71a.25.25,0,0,0-.25.25.26.26,0,0,0,.25.25h3.71a.25.25,0,0,0,.25-.25.25.25,0,0,0-.25-.25"/>
        <path class="cls-4" d="M148.77,92.93h-3.71a.25.25,0,0,0-.25.25.26.26,0,0,0,.25.25h3.71a.25.25,0,0,0,.25-.25.25.25,0,0,0-.25-.25"/>
        <path class="cls-4" d="M148.77,114.84h-3.71a.25.25,0,0,0,0,.5h3.71a.25.25,0,0,0,0-.5"/>
        <path class="cls-4" d="M148.77,96.06h-3.71a.25.25,0,0,0,0,.5h3.71a.25.25,0,0,0,0-.5"/>
        <path class="cls-4" d="M148.77,118h-3.71a.26.26,0,0,0-.25.25.25.25,0,0,0,.25.25h3.71a.25.25,0,0,0,.25-.25.25.25,0,0,0-.25-.25"/>
        <path class="cls-4" d="M148.77,99.19h-3.71a.25.25,0,0,0,0,.5h3.71a.25.25,0,0,0,0-.5"/>
        <path class="cls-4" d="M148.77,121.1h-3.71a.26.26,0,0,0-.25.25.25.25,0,0,0,.25.25h3.71a.25.25,0,0,0,.25-.25.25.25,0,0,0-.25-.25"/>
        <path class="cls-4" d="M148.77,102.32h-3.71a.25.25,0,0,0,0,.5h3.71a.25.25,0,0,0,0-.5"/>
        <path class="cls-4" d="M148.77,124.24h-3.71a.25.25,0,0,0-.25.25.26.26,0,0,0,.25.25h3.71a.25.25,0,0,0,.25-.25.25.25,0,0,0-.25-.25"/>
        <path class="cls-4" d="M148.77,105.45h-3.71a.25.25,0,0,0,0,.5h3.71a.25.25,0,0,0,0-.5"/>
        <path class="cls-4" d="M148.77,127.37h-3.71a.25.25,0,0,0-.25.25.26.26,0,0,0,.25.25h3.71a.25.25,0,0,0,.25-.25.25.25,0,0,0-.25-.25"/>
        <path class="cls-4" d="M148.77,108.58h-3.71a.25.25,0,0,0,0,.5h3.71a.25.25,0,0,0,0-.5"/>
        <path class="cls-4" d="M148.77,130.5h-3.71a.25.25,0,0,0,0,.5h3.71a.25.25,0,0,0,0-.5"/>
        <path class="cls-4" d="M148.77,111.71h-3.71a.26.26,0,0,0-.25.25.25.25,0,0,0,.25.25h3.71A.25.25,0,0,0,149,112a.25.25,0,0,0-.25-.25"/>
        <path class="cls-4" d="M148.77,133.63h-3.71a.25.25,0,0,0,0,.5h3.71a.25.25,0,0,0,0-.5"/>
        <path class="cls-4" d="M148.77,136.72h-3.71a.26.26,0,0,0-.25.25.25.25,0,0,0,.25.25h3.71A.25.25,0,0,0,149,137a.25.25,0,0,0-.25-.25"/>
        <path class="cls-4" d="M92.07,73a.23.23,0,0,0-.2.1.2.2,0,0,0-.05.15v6.8a.25.25,0,0,0,.25.25.25.25,0,0,0,.25-.25v-6.8a.2.2,0,0,0-.06-.15.23.23,0,0,0-.19-.1"/>
        <path class="cls-5" d="M10.64,7.15A.55.55,0,1,1,11,7a.51.51,0,0,1-.37.16m2.19,0a.53.53,0,1,1,.53-.53.53.53,0,0,1-.53.53m2.19,0a.53.53,0,1,1,.53-.53.53.53,0,0,1-.53.53m2.19,0a.53.53,0,1,1,.53-.53.53.53,0,0,1-.53.53m2.19,0a.53.53,0,1,1,.53-.53.53.53,0,0,1-.53.53m2.19,0a.53.53,0,1,1,.53-.53.53.53,0,0,1-.53.53m2.19,0a.53.53,0,1,1,.53-.53.53.53,0,0,1-.53.53m2.19,0a.53.53,0,1,1,.53-.53.53.53,0,0,1-.53.53m2.19,0a.53.53,0,1,1,.53-.53.53.53,0,0,1-.53.53m2.19,0a.53.53,0,1,1,.53-.53.53.53,0,0,1-.53.53m2.19,0A.52.52,0,0,1,32.17,7a.51.51,0,0,1,0-.74.52.52,0,0,1,.37-.16.55.55,0,0,1,.38.16.53.53,0,0,1,0,.74.55.55,0,0,1-.38.16M7.46,5.29A9.29,9.29,0,0,0,2.66,7l.27,0c.51,0,1.15.1,1.69.1h.25l0,.53H4.62A22.48,22.48,0,0,1,2,7.41c-.24.18-.38.31-.42.33C.79,8.41.52,8.93.53,9.25a.68.68,0,0,0,.2.48A3,3,0,0,0,2,10.42a13.82,13.82,0,0,0,2.89.47c.44,0,.83.06,1.11.06h8.43l0,0a9.05,9.05,0,0,1,5.94-1.82A25.44,25.44,0,0,1,29,10.89l.15.07,3.66,0h0c.21,0,.41,0,.62,0a9.54,9.54,0,0,0,2.37-.33c.31-.08.58-.17.76-.23l.28-.1h0l4.35-1.85h0a6.47,6.47,0,0,0,2.58-1.68,1.83,1.83,0,0,0,.49-1.18V5.5L7.84,5.3H7.46M45,.54,40.49,2.92,37.33,4.59l-.66.34,7.46,0,0,0L47.63.75,45,.54"/>
        <path class="cls-6" d="M92.36,24.05h0A6.38,6.38,0,0,0,88,25.76a6.22,6.22,0,0,1-8.48,0,6.38,6.38,0,0,0-4.38-1.71h0a6.36,6.36,0,0,0-4.38,1.71,6.22,6.22,0,0,1-8.48,0,6.38,6.38,0,0,0-4.39-1.71h0a6.34,6.34,0,0,0-4.38,1.71,6.23,6.23,0,0,1-8.49,0,6.34,6.34,0,0,0-4.38-1.71h0v.25A6.1,6.1,0,0,1,44.77,26a6.36,6.36,0,0,0,4.38,1.72h0A6.36,6.36,0,0,0,53.56,26,6.24,6.24,0,0,1,62,26a6.39,6.39,0,0,0,4.39,1.72h0A6.34,6.34,0,0,0,70.83,26a6.26,6.26,0,0,1,8.49,0,6.34,6.34,0,0,0,4.38,1.72h0A6.34,6.34,0,0,0,88.1,26a6.26,6.26,0,0,1,8.49,0A6.36,6.36,0,0,0,101,27.68h0v-.25a6.11,6.11,0,0,1-4.24-1.67,6.36,6.36,0,0,0-4.38-1.71"/>
        <path class="cls-6" d="M125.54,29.72h0a6.38,6.38,0,0,0-4.39,1.71,6.22,6.22,0,0,1-8.48,0,6.36,6.36,0,0,0-4.38-1.71h0a6.36,6.36,0,0,0-4.38,1.71,6.22,6.22,0,0,1-8.48,0A6.38,6.38,0,0,0,91,29.72h0a6.36,6.36,0,0,0-4.38,1.71,6.11,6.11,0,0,1-4.24,1.67v.25h0a6.36,6.36,0,0,0,4.38-1.72,6.24,6.24,0,0,1,8.48,0,6.39,6.39,0,0,0,4.39,1.72h0A6.34,6.34,0,0,0,104,31.63a6.26,6.26,0,0,1,8.49,0,6.34,6.34,0,0,0,4.38,1.72h0a6.39,6.39,0,0,0,4.39-1.72,6.24,6.24,0,0,1,8.48,0,6.36,6.36,0,0,0,4.38,1.72h0V33.1a6.13,6.13,0,0,1-4.24-1.67,6.34,6.34,0,0,0-4.38-1.71"/>
        <path class="cls-7" d="M7.48,4.76c-3.23,0-6.05,2.43-6.24,2.58A2.81,2.81,0,0,0,0,9.25a1.24,1.24,0,0,0,.33.83,2.54,2.54,0,0,0,.79.55,8,8,0,0,0,2.21.61,22.11,22.11,0,0,0,2.93.25v-.35h.53v.35h7.89l-.19-.17-.2-.21.18-.15H6c-.28,0-.67,0-1.11-.06A13.82,13.82,0,0,1,2,10.42,3,3,0,0,1,.73,9.73a.68.68,0,0,1-.2-.48c0-.32.26-.84,1.05-1.51,0,0,.18-.15.42-.33H2l.07-.52.6.07a9.29,9.29,0,0,1,4.8-1.67h.38l36.4.2v.09a1.83,1.83,0,0,1-.49,1.18,6.47,6.47,0,0,1-2.58,1.68h0L36.81,10.3h0l-.28.1c-.18.06-.45.15-.76.23A9.54,9.54,0,0,1,33.4,11c-.21,0-.41,0-.62,0h0l-3.66,0,.47.19-.64.24-.09-.25.09.25-.17.06v0h1.67v-.34H31v.33h1.78c.21,0,.43,0,.65,0a10.84,10.84,0,0,0,3.61-.7h0l4.36-1.85h0A6.92,6.92,0,0,0,44.16,7.1a2.38,2.38,0,0,0,.61-1.51,1.33,1.33,0,0,0-.07-.45l0-.07-.18.21L44.13,5l-7.46,0-.41.21-.32.15-.11,0,0,0h-.1l-.13,0,.13-.24v0l0-.13L7.85,4.77H7.48"/>
        <path class="cls-7" d="M2.06,6.89,2,7.41H2a22.48,22.48,0,0,0,2.62.2h.27l0-.53H4.62c-.54,0-1.18,0-1.69-.1L2.66,7l-.6-.07"/>
        <path class="cls-5" d="M20.45,9.64h0a8.84,8.84,0,0,0-5.36,1.5,8.79,8.79,0,0,0,5.39,1.43,23.79,23.79,0,0,0,7.6-1.45h0a24.1,24.1,0,0,0-7.59-1.47"/>
        <polyline class="cls-7" points="6.79 11.14 6.26 11.14 6.26 11.49 6.26 12.76 6.79 12.76 6.79 11.49 6.79 11.14"/>
        <polyline class="cls-7" points="30.97 11.14 30.44 11.14 30.44 11.48 30.44 12.76 30.97 12.76 30.97 11.47 30.97 11.14"/>
        <path class="cls-7" d="M12.83,6.09a.53.53,0,1,0,.53.53.53.53,0,0,0-.53-.53m2.19,0a.53.53,0,1,0,.53.53A.53.53,0,0,0,15,6.09m2.19,0a.53.53,0,1,0,.53.53.53.53,0,0,0-.53-.53m2.19,0a.53.53,0,1,0,.53.53.53.53,0,0,0-.53-.53m2.19,0a.53.53,0,1,0,.53.53.53.53,0,0,0-.53-.53m2.19,0a.53.53,0,1,0,.53.53.53.53,0,0,0-.53-.53m2.19,0a.53.53,0,1,0,.53.53A.53.53,0,0,0,26,6.09m2.19,0a.53.53,0,1,0,.53.53.53.53,0,0,0-.53-.53m2.19,0a.53.53,0,1,0,.53.53.53.53,0,0,0-.53-.53"/>
        <path class="cls-7" d="M10.64,6.09a.55.55,0,1,0,.37.16.51.51,0,0,0-.37-.16m21.9,0a.52.52,0,0,0-.37.16.51.51,0,0,0,0,.74.52.52,0,0,0,.37.16A.55.55,0,0,0,32.92,7a.53.53,0,0,0,0-.74.55.55,0,0,0-.38-.16"/>
        <path class="cls-7" d="M44.84,0l-.07,0-4,2.14c-2.09,1.1-4.35,2.3-5,2.61l-.15.06,0,.08,0,.13v0l-.13.24.13,0h.1l0,0,.11,0,.32-.15.41-.21.66-.34,3.16-1.67L45,.54l2.68.21L44.09,4.94l0,0,.36.31.18-.21L48.7.3,44.84,0"/>
        <path class="cls-7" d="M15.09,11.14a8.84,8.84,0,0,1,5.36-1.5h0A24.1,24.1,0,0,1,28,11.11h0a23.79,23.79,0,0,1-7.6,1.45,8.79,8.79,0,0,1-5.39-1.43m5.36-2a9.05,9.05,0,0,0-5.94,1.82l0,0-.18.15.2.21.19.17c.55.45,2.31,1.61,5.79,1.61h0a25,25,0,0,0,8.29-1.65l.17-.06-.09-.25.09.25.64-.24L29.11,11,29,10.89a25.44,25.44,0,0,0-8.51-1.78"/>
        <polyline class="cls-7" points="91.13 9.78 43 9.78 43 10.04 91.13 10.04 91.13 9.78"/>
        <polyline class="cls-7" points="54.1 12.96 35.34 12.96 35.34 13.23 54.1 13.23 54.1 12.96"/>
      </g>
    </g>
  </g>
</svg>
