<svg xmlns="http://www.w3.org/2000/svg" viewBox="0 0 153.41 83.32">
  <defs>
    <style>
      .cls-1 {
        fill: #6e609e;
      }
    </style>
  </defs>
  <g id="Layer_2" data-name="Layer 2">
    <g id="Layer_1-2" data-name="Layer 1">
      <g>
        <path class="cls-1" d="M7.74,83.07V76.76l.07-.18L8,76.51H26l.18.07.07.18v6.31a.25.25,0,0,1-.5,0V77H8.24v6.06a.25.25,0,0,1-.5,0Z"/>
        <path class="cls-1" d="M27.38,76H8a.25.25,0,1,1,0-.5H27.38a.25.25,0,0,1,0,.5"/>
        <path class="cls-1" d="M21.69,74.8v.25H8.26a.26.26,0,0,1-.25-.2s-.89-4.93-.89-17.31,2.66-35.43,7-47.06a.25.25,0,0,1,.3-.15l7.21,2.05a.25.25,0,0,1,.18.28s-.23,1.41-.57,3.71c-1,6.9-3.08,21.77-3.08,30.14,0,11.17,3,25.22,3.73,28.23l0,.22-.2.09V74.8l-.24.06c-.72-3-3.74-17.1-3.75-28.35s3.65-33.93,3.65-33.93l.25,0-.07.24-7.2-2,.06-.24.24.09c-4.34,11.5-7,34.55-7,46.88,0,6.18.22,10.49.44,13.25.11,1.38.22,2.37.31,3s.13,1,.13,1l-.24,0v-.25H21.69v.25l-.24.06Z"/>
        <path class="cls-1" d="M7.31,50.06a111.09,111.09,0,0,1-4.37-29.7C2.94,13,3,9.17,3.1,7.21c0-1,.08-1.51.12-1.8a2,2,0,0,1,0-.29l0-.1.06-.08.16-.05.15.05L3.75,5l-.21.14V4.89h4a.25.25,0,0,1,.25.25.25.25,0,0,1-.25.25h-4l-.2-.1.2-.14-.15.19-.05,0,.2-.14-.15.19.15-.19v.24l-.15,0,.15-.19v0l.14.19-.14,0V5.15l.14.19-.12-.16.19.08-.07.08-.12-.16.19.08h0a4.66,4.66,0,0,0-.08.61c-.1,1.24-.23,4.76-.23,14.49A107,107,0,0,0,5.61,41C6.15,43.74,6.7,46,7.11,47.5c.2.77.37,1.38.49,1.78l.18.63a.25.25,0,1,1-.47.15Z"/>
        <path class="cls-1" d="M14.87,10.59S15.44,8.41,16.13,6c.35-1.2.72-2.45,1.07-3.51A17.92,17.92,0,0,1,18.09.13l.22.12V.5h-10V.25l.24,0S8.4.87,8.25,1.9A131.31,131.31,0,0,0,6.91,19.73c0,5.06.42,10.44.84,14.55.21,2,.42,3.79.58,5s.26,1.93.26,1.94a.25.25,0,0,1-.49.07A172.57,172.57,0,0,1,6.41,19.73,131.27,131.27,0,0,1,8,.21.26.26,0,0,1,8.26,0h10l.21.12V.37a17.64,17.64,0,0,0-.86,2.3c-.51,1.57-1.09,3.59-1.54,5.21s-.78,2.84-.78,2.84a.25.25,0,0,1-.31.18.24.24,0,0,1-.17-.31Z"/>
        <path class="cls-1" d="M18.47,39.12s0,1,.19,2.63c.44,4.94,1.88,15.87,6.19,24a.27.27,0,0,1-.08.32l-4.18,3a.25.25,0,1,1-.29-.4l4.18-3,.15.21-.23.11C18.59,55,18,39.15,18,39.14a.25.25,0,1,1,.5,0Z"/>
        <path class="cls-1" d="M17.24,13H13.68a.25.25,0,0,1-.25-.25.25.25,0,0,1,.25-.25h3.56a.25.25,0,0,1,.25.25.25.25,0,0,1-.25.25"/>
        <path class="cls-1" d="M16.57,27.35H10.3a.25.25,0,0,1-.25-.25.25.25,0,0,1,.25-.25h6.27a.25.25,0,0,1,.25.25.26.26,0,0,1-.25.25"/>
        <path class="cls-1" d="M15.75,42H8.31a.25.25,0,0,1-.25-.25.25.25,0,0,1,.25-.25h7.44a.25.25,0,0,1,.25.25.25.25,0,0,1-.25.25"/>
        <path class="cls-1" d="M17.6,56.35H7.46a.25.25,0,0,1,0-.5H17.6a.25.25,0,0,1,0,.5"/>
        <path class="cls-1" d="M17.51,15.16H13a.25.25,0,0,1,0-.5h4.47a.25.25,0,0,1,0,.5"/>
        <path class="cls-1" d="M16.21,29.46H10a.25.25,0,0,1,0-.5h6.17a.25.25,0,0,1,0,.5"/>
        <path class="cls-1" d="M15.85,44.06H8.17a.25.25,0,0,1,0-.5h7.68a.25.25,0,1,1,0,.5"/>
        <path class="cls-1" d="M17.85,58.45H7.46a.25.25,0,0,1-.25-.25A.25.25,0,0,1,7.46,58H17.85a.25.25,0,0,1,.25.25.26.26,0,0,1-.25.25"/>
        <path class="cls-1" d="M17.56,17.12h-5a.25.25,0,0,1,0-.5h5a.25.25,0,0,1,0,.5"/>
        <path class="cls-1" d="M15.82,31.57H9.66a.25.25,0,0,1-.25-.25.25.25,0,0,1,.25-.25h6.16a.25.25,0,0,1,.25.25.25.25,0,0,1-.25.25"/>
        <path class="cls-1" d="M16,46.1H8a.25.25,0,0,1,0-.5h8a.25.25,0,0,1,0,.5"/>
        <path class="cls-1" d="M18.24,60.54H7.46a.25.25,0,0,1,0-.5H18.24a.25.25,0,1,1,0,.5"/>
        <path class="cls-1" d="M17.53,19.27H11.94a.25.25,0,0,1,0-.5h5.59a.25.25,0,0,1,0,.5"/>
        <path class="cls-1" d="M15.82,33.69H9.41a.25.25,0,1,1,0-.5h6.41a.25.25,0,0,1,0,.5"/>
        <path class="cls-1" d="M16.17,48.14H7.78a.25.25,0,0,1,0-.5h8.39a.25.25,0,0,1,0,.5"/>
        <path class="cls-1" d="M18.7,62.64H7.46a.25.25,0,1,1,0-.5H18.7a.25.25,0,1,1,0,.5"/>
        <path class="cls-1" d="M17.51,21.32h-6a.25.25,0,0,1,0-.5h6a.25.25,0,0,1,0,.5"/>
        <path class="cls-1" d="M15.57,35.8H9.06a.25.25,0,0,1,0-.5h6.51a.25.25,0,0,1,0,.5"/>
        <path class="cls-1" d="M16.49,50.18H7.63a.25.25,0,0,1,0-.5h8.86a.25.25,0,1,1,0,.5"/>
        <path class="cls-1" d="M19.59,64.74H7.49a.25.25,0,1,1,0-.5h12.1a.25.25,0,1,1,0,.5"/>
        <path class="cls-1" d="M17.28,23.38H11.09a.25.25,0,0,1,0-.5h6.19a.25.25,0,0,1,0,.5"/>
        <path class="cls-1" d="M15.55,37.92H8.74a.25.25,0,0,1-.25-.25.25.25,0,0,1,.25-.25h6.81a.25.25,0,0,1,.25.25.25.25,0,0,1-.25.25"/>
        <path class="cls-1" d="M16.71,52.22H7.6A.25.25,0,0,1,7.35,52a.25.25,0,0,1,.25-.25h9.11A.25.25,0,0,1,17,52a.25.25,0,0,1-.25.25"/>
        <path class="cls-1" d="M20,66.84H7.67a.25.25,0,0,1-.25-.25.25.25,0,0,1,.25-.25H20a.25.25,0,0,1,.25.25.26.26,0,0,1-.25.25"/>
        <path class="cls-1" d="M20.84,70.94h-13a.25.25,0,1,1,0-.5h13a.25.25,0,1,1,0,.5"/>
        <path class="cls-1" d="M16.89,25.5h-6.2a.25.25,0,1,1,0-.5h6.2a.25.25,0,0,1,0,.5"/>
        <path class="cls-1" d="M15.6,40h-7a.25.25,0,0,1,0-.5h7a.25.25,0,1,1,0,.5"/>
        <path class="cls-1" d="M17.06,54.25H7.49A.25.25,0,0,1,7.24,54a.25.25,0,0,1,.25-.25h9.57a.25.25,0,0,1,.25.25.25.25,0,0,1-.25.25"/>
        <path class="cls-1" d="M20.37,68.93H7.71a.25.25,0,0,1-.25-.25.25.25,0,0,1,.25-.25H20.37a.25.25,0,0,1,.25.25.25.25,0,0,1-.25.25"/>
        <path class="cls-1" d="M21.26,73H8a.25.25,0,0,1-.25-.25A.25.25,0,0,1,8,72.54H21.26a.25.25,0,0,1,.25.25.25.25,0,0,1-.25.25"/>
        <path class="cls-1" d="M3.47,6.73H7.28A.25.25,0,0,1,7.53,7a.25.25,0,0,1-.25.25H3.47A.25.25,0,0,1,3.22,7a.25.25,0,0,1,.25-.25"/>
        <path class="cls-1" d="M3.33,8.74H7.14a.25.25,0,0,1,0,.5H3.33a.25.25,0,0,1,0-.5"/>
        <path class="cls-1" d="M3.33,10.87H7a.25.25,0,0,1,0,.5H3.33a.25.25,0,0,1,0-.5"/>
        <path class="cls-1" d="M3.33,12.93H7a.25.25,0,1,1,0,.5H3.33a.25.25,0,1,1,0-.5"/>
        <path class="cls-1" d="M3.33,15H6.74a.25.25,0,0,1,.25.25.25.25,0,0,1-.25.25H3.33a.25.25,0,0,1-.25-.25A.25.25,0,0,1,3.33,15"/>
        <path class="cls-1" d="M3.33,17H6.74a.25.25,0,0,1,.25.25.25.25,0,0,1-.25.25H3.33a.25.25,0,0,1-.25-.25A.25.25,0,0,1,3.33,17"/>
        <path class="cls-1" d="M3.22,19.09H6.74a.25.25,0,0,1,0,.5H3.22a.25.25,0,1,1,0-.5"/>
        <path class="cls-1" d="M3.27,21.11h3.4a.25.25,0,0,1,.25.25.25.25,0,0,1-.25.25H3.27A.26.26,0,0,1,3,21.36a.25.25,0,0,1,.25-.25"/>
        <path class="cls-1" d="M3.27,23.33h3.4a.25.25,0,1,1,0,.5H3.27a.25.25,0,1,1,0-.5"/>
        <path class="cls-1" d="M3.27,25.32h3.4a.25.25,0,0,1,.25.25.25.25,0,0,1-.25.25H3.27A.26.26,0,0,1,3,25.57a.25.25,0,0,1,.25-.25"/>
        <path class="cls-1" d="M3.47,27.31h3.4a.25.25,0,1,1,0,.5H3.47a.25.25,0,1,1,0-.5"/>
        <path class="cls-1" d="M3.68,29.43h3.4a.25.25,0,0,1,.25.25.25.25,0,0,1-.25.25H3.68a.26.26,0,0,1-.25-.25.25.25,0,0,1,.25-.25"/>
        <path class="cls-1" d="M3.9,31.56H7.3a.25.25,0,0,1,0,.5H3.9a.25.25,0,0,1,0-.5"/>
        <path class="cls-1" d="M4.16,33.61h3.4a.25.25,0,1,1,0,.5H4.16a.25.25,0,1,1,0-.5"/>
        <path class="cls-1" d="M4.48,35.7H7.63a.25.25,0,0,1,.25.25.25.25,0,0,1-.25.25H4.48A.26.26,0,0,1,4.23,36a.25.25,0,0,1,.25-.25"/>
        <path class="cls-1" d="M4.79,37.66H7.94a.26.26,0,0,1,.25.25.25.25,0,0,1-.25.25H4.79a.25.25,0,0,1-.25-.25.25.25,0,0,1,.25-.25"/>
        <path class="cls-1" d="M5.14,39.73H8.2a.25.25,0,0,1,0,.5H5.14a.25.25,0,0,1,0-.5"/>
        <path class="cls-1" d="M5.59,41.86H8.27a.25.25,0,0,1,0,.5H5.59a.25.25,0,0,1,0-.5"/>
        <path class="cls-1" d="M6,43.82H8.08a.25.25,0,0,1,0,.5H6a.25.25,0,0,1,0-.5"/>
        <path class="cls-1" d="M6.5,46H7.92a.25.25,0,0,1,.25.25.25.25,0,0,1-.25.25H6.5a.25.25,0,0,1-.25-.25A.25.25,0,0,1,6.5,46"/>
        <path class="cls-1" d="M7.06,48h.66a.25.25,0,0,1,0,.5H7.06a.25.25,0,0,1,0-.5"/>
        <path class="cls-1" d="M30.87,83.07V36.15L33,23.61a.25.25,0,0,1,.25-.21H44.2a.25.25,0,0,1,.24.21l2.14,12.72V83.07a.25.25,0,0,1-.5,0V36.39L44,23.9H33.47l-2.1,12.31V83.07a.25.25,0,0,1-.5,0Z"/>
        <path class="cls-1" d="M64.05,83.07V36.53H31.12a.25.25,0,0,1,0-.5H64.3l.18.07.07.18V83.07a.25.25,0,0,1-.25.25.25.25,0,0,1-.25-.25Z"/>
        <path class="cls-1" d="M46.33,43.15H64.21a.25.25,0,0,1,0,.5H46.33a.25.25,0,0,1,0-.5"/>
        <path class="cls-1" d="M48.36,36l.85-1,.19-.09.19.08.89,1a.25.25,0,0,1,0,.35.26.26,0,0,1-.36,0l-.69-.81-.66.8a.24.24,0,0,1-.35,0,.25.25,0,0,1,0-.35Z"/>
        <path class="cls-1" d="M51.24,36l.85-1,.19-.09.19.08.89,1a.24.24,0,0,1,0,.35.25.25,0,0,1-.35,0l-.69-.81-.66.8a.25.25,0,0,1-.39-.32Z"/>
        <path class="cls-1" d="M54.27,36l.84-1,.19-.09.19.08.89,1a.25.25,0,0,1-.37.33l-.7-.81-.66.8a.25.25,0,1,1-.38-.32Z"/>
        <path class="cls-1" d="M57.38,36l.85-1,.19-.09.19.08.89,1a.24.24,0,0,1,0,.35.25.25,0,0,1-.35,0l-.7-.81-.65.8a.25.25,0,0,1-.36,0,.25.25,0,0,1,0-.35Z"/>
        <path class="cls-1" d="M60.27,36l.85-1,.19-.09.19.08.89,1a.24.24,0,0,1,0,.35.25.25,0,0,1-.35,0l-.69-.81-.66.8a.25.25,0,0,1-.39-.32Z"/>
        <path class="cls-1" d="M63.12,36,64,35l.19-.09.2.08.89,1,0,.26a.24.24,0,0,1-.22.15h-.66a.25.25,0,0,1,0-.5h.11l-.34-.39-.66.8a.24.24,0,0,1-.35,0,.25.25,0,0,1,0-.35Z"/>
        <path class="cls-1" d="M49.17,43.31V36.37a.25.25,0,1,1,.5,0v6.94a.25.25,0,0,1-.5,0"/>
        <path class="cls-1" d="M52.05,43.31V36.37a.25.25,0,1,1,.5,0v6.94a.25.25,0,0,1-.5,0"/>
        <path class="cls-1" d="M55.08,43.31V36.37a.25.25,0,0,1,.25-.25.25.25,0,0,1,.25.25v6.94a.25.25,0,0,1-.25.25.25.25,0,0,1-.25-.25"/>
        <path class="cls-1" d="M58.19,43.31V36.37a.25.25,0,0,1,.5,0v6.94a.25.25,0,0,1-.5,0"/>
        <path class="cls-1" d="M61.08,43.31V36.37a.25.25,0,1,1,.5,0v6.94a.25.25,0,0,1-.5,0"/>
        <path class="cls-1" d="M33,34.41v1.74a.26.26,0,0,1-.25.25.25.25,0,0,1-.25-.25V34.41a.25.25,0,0,1,.25-.25.25.25,0,0,1,.25.25"/>
        <path class="cls-1" d="M34.5,34.41v1.74a.25.25,0,1,1-.5,0V34.41a.25.25,0,0,1,.5,0"/>
        <path class="cls-1" d="M36,34.41v1.74a.25.25,0,0,1-.5,0V34.41a.25.25,0,0,1,.5,0"/>
        <path class="cls-1" d="M37.48,34.41v1.74a.25.25,0,0,1-.5,0V34.41a.25.25,0,0,1,.5,0"/>
        <path class="cls-1" d="M39,34.41v1.74a.25.25,0,0,1-.25.25.26.26,0,0,1-.25-.25V34.41a.25.25,0,0,1,.25-.25.25.25,0,0,1,.25.25"/>
        <path class="cls-1" d="M40.45,34.41v1.74a.25.25,0,0,1-.5,0V34.41a.25.25,0,0,1,.5,0"/>
        <path class="cls-1" d="M41.94,34.41v1.74a.25.25,0,1,1-.5,0V34.41a.25.25,0,0,1,.5,0"/>
        <path class="cls-1" d="M43.43,34.41v1.74a.26.26,0,0,1-.25.25.25.25,0,0,1-.25-.25V34.41a.25.25,0,0,1,.25-.25.25.25,0,0,1,.25.25"/>
        <path class="cls-1" d="M44.91,34.41v1.74a.25.25,0,0,1-.25.25.26.26,0,0,1-.25-.25V34.41a.25.25,0,0,1,.25-.25.25.25,0,0,1,.25.25"/>
        <path class="cls-1" d="M38.79,32.56v-.25a4.39,4.39,0,0,0,2.59-.77,2.28,2.28,0,0,0,1-1.8,2.25,2.25,0,0,0-1-1.79,4.69,4.69,0,0,0-5.18,0,2.25,2.25,0,0,0-1,1.79,2.28,2.28,0,0,0,1,1.8,4.42,4.42,0,0,0,2.59.77v.5a4.89,4.89,0,0,1-2.88-.87,2.74,2.74,0,0,1-1.24-2.2,2.77,2.77,0,0,1,1.24-2.2,5.22,5.22,0,0,1,5.77,0,2.79,2.79,0,0,1,1.23,2.2,2.76,2.76,0,0,1-1.23,2.2,4.9,4.9,0,0,1-2.89.87Z"/>
        <path class="cls-1" d="M34.52,36.43,31.37,39a.26.26,0,0,1-.36,0,.26.26,0,0,1,0-.35L34.21,36a.25.25,0,0,1,.31.39"/>
        <path class="cls-1" d="M39,36.52l-7.6,6a.26.26,0,0,1-.36,0,.26.26,0,0,1,0-.35l7.61-6a.25.25,0,1,1,.31.39"/>
        <path class="cls-1" d="M43.69,36.52,31.37,46.39a.26.26,0,0,1-.36,0,.28.28,0,0,1,0-.36l12.32-9.87a.26.26,0,0,1,.36,0,.26.26,0,0,1,0,.35"/>
        <path class="cls-1" d="M46.35,38.26,31.41,50a.25.25,0,0,1-.35-.05.24.24,0,0,1,0-.35l14.95-11.7a.25.25,0,1,1,.3.4"/>
        <path class="cls-1" d="M46.4,42.08l-15,11.61a.24.24,0,0,1-.35,0,.25.25,0,0,1,0-.35l15-11.61a.25.25,0,0,1,.31.39"/>
        <path class="cls-1" d="M46.44,45.64l-15,11.79a.26.26,0,0,1-.35,0,.26.26,0,0,1,0-.36l15-11.78a.25.25,0,0,1,.31.39"/>
        <path class="cls-1" d="M46.44,49.41l-15,11.79a.25.25,0,0,1-.35,0,.24.24,0,0,1,0-.35L46.13,49a.25.25,0,0,1,.31.39"/>
        <path class="cls-1" d="M46.44,53.1l-15,11.79a.25.25,0,0,1-.31-.39l15-11.79a.25.25,0,0,1,.31.39"/>
        <path class="cls-1" d="M46.44,56.84l-15,11.79a.25.25,0,0,1-.35,0,.24.24,0,0,1,0-.35l15-11.78a.25.25,0,0,1,.31.39"/>
        <path class="cls-1" d="M46.44,60.4l-15,11.79a.25.25,0,0,1-.35,0,.24.24,0,0,1,0-.35L46.13,60a.25.25,0,0,1,.35,0,.24.24,0,0,1,0,.35"/>
        <path class="cls-1" d="M46.44,64.09l-15,11.79a.26.26,0,0,1-.35,0,.26.26,0,0,1,0-.36l15-11.78a.25.25,0,0,1,.31.39"/>
        <path class="cls-1" d="M36.21,75.41l9.92-7.92a.25.25,0,1,1,.31.39L36.52,75.8a.25.25,0,1,1-.31-.39"/>
        <path class="cls-1" d="M31.21,75.35h15a.25.25,0,1,1,0,.5h-15a.25.25,0,0,1,0-.5"/>
        <path class="cls-1" d="M40.84,75.36l5.29-4.14a.25.25,0,0,1,.35,0,.24.24,0,0,1,0,.35l-5.29,4.13a.25.25,0,0,1-.31-.39"/>
        <path class="cls-1" d="M48.81,44.91v1.78a.25.25,0,0,1-.25.25.25.25,0,0,1-.25-.25V44.91a.25.25,0,0,1,.25-.25.25.25,0,0,1,.25.25"/>
        <path class="cls-1" d="M48.81,47.63v1.78a.26.26,0,0,1-.25.25.25.25,0,0,1-.25-.25V47.63a.25.25,0,0,1,.25-.25.25.25,0,0,1,.25.25"/>
        <path class="cls-1" d="M48.81,50.34v1.78a.25.25,0,0,1-.25.25.25.25,0,0,1-.25-.25V50.34a.25.25,0,0,1,.25-.25.25.25,0,0,1,.25.25"/>
        <path class="cls-1" d="M48.81,53.06v1.78a.25.25,0,0,1-.25.25.25.25,0,0,1-.25-.25V53.06a.25.25,0,0,1,.25-.25.25.25,0,0,1,.25.25"/>
        <path class="cls-1" d="M48.81,55.78v1.78a.26.26,0,0,1-.25.25.25.25,0,0,1-.25-.25V55.78a.25.25,0,0,1,.25-.25.25.25,0,0,1,.25.25"/>
        <path class="cls-1" d="M48.81,58.49v1.78a.25.25,0,0,1-.25.25.25.25,0,0,1-.25-.25V58.49a.25.25,0,0,1,.25-.25.26.26,0,0,1,.25.25"/>
        <path class="cls-1" d="M48.81,61.21V63a.25.25,0,0,1-.25.25.25.25,0,0,1-.25-.25V61.21a.25.25,0,0,1,.25-.25.25.25,0,0,1,.25.25"/>
        <path class="cls-1" d="M48.81,63.93v1.78a.26.26,0,0,1-.25.25.25.25,0,0,1-.25-.25V63.93a.25.25,0,0,1,.25-.25.25.25,0,0,1,.25.25"/>
        <path class="cls-1" d="M48.81,66.64v1.78a.25.25,0,0,1-.25.25.25.25,0,0,1-.25-.25V66.64a.25.25,0,0,1,.25-.25.26.26,0,0,1,.25.25"/>
        <path class="cls-1" d="M48.81,69.36v1.78a.25.25,0,0,1-.25.25.25.25,0,0,1-.25-.25V69.36a.25.25,0,0,1,.25-.25.25.25,0,0,1,.25.25"/>
        <path class="cls-1" d="M48.81,72.08v1.78a.26.26,0,0,1-.25.25.25.25,0,0,1-.25-.25V72.08a.25.25,0,0,1,.25-.25.25.25,0,0,1,.25.25"/>
        <path class="cls-1" d="M48.81,74.79v1.78a.25.25,0,0,1-.25.25.25.25,0,0,1-.25-.25V74.79a.25.25,0,0,1,.25-.25.26.26,0,0,1,.25.25"/>
        <path class="cls-1" d="M48.81,77.51v1.78a.25.25,0,0,1-.25.25.25.25,0,0,1-.25-.25V77.51a.25.25,0,0,1,.25-.25.25.25,0,0,1,.25.25"/>
        <path class="cls-1" d="M48.81,80.23V82a.26.26,0,0,1-.25.25.25.25,0,0,1-.25-.25V80.23a.25.25,0,0,1,.25-.25.25.25,0,0,1,.25.25"/>
        <path class="cls-1" d="M54.66,44.91v1.78a.25.25,0,0,1-.5,0V44.91a.25.25,0,0,1,.5,0"/>
        <path class="cls-1" d="M54.66,47.63v1.78a.25.25,0,0,1-.5,0V47.63a.25.25,0,1,1,.5,0"/>
        <path class="cls-1" d="M54.66,50.34v1.78a.25.25,0,1,1-.5,0V50.34a.25.25,0,0,1,.5,0"/>
        <path class="cls-1" d="M54.66,53.06v1.78a.25.25,0,0,1-.5,0V53.06a.25.25,0,0,1,.5,0"/>
        <path class="cls-1" d="M54.66,55.78v1.78a.25.25,0,0,1-.5,0V55.78a.25.25,0,0,1,.5,0"/>
        <path class="cls-1" d="M54.66,58.49v1.78a.25.25,0,1,1-.5,0V58.49a.25.25,0,0,1,.5,0"/>
        <path class="cls-1" d="M54.66,61.21V63a.25.25,0,1,1-.5,0V61.21a.25.25,0,0,1,.5,0"/>
        <path class="cls-1" d="M54.66,63.93v1.78a.25.25,0,0,1-.5,0V63.93a.25.25,0,0,1,.5,0"/>
        <path class="cls-1" d="M54.66,66.64v1.78a.25.25,0,0,1-.5,0V66.64a.25.25,0,0,1,.5,0"/>
        <path class="cls-1" d="M54.66,69.36v1.78a.25.25,0,0,1-.5,0V69.36a.25.25,0,0,1,.5,0"/>
        <path class="cls-1" d="M54.66,72.08v1.78a.25.25,0,0,1-.5,0V72.08a.25.25,0,0,1,.5,0"/>
        <path class="cls-1" d="M54.66,74.79v1.78a.25.25,0,0,1-.5,0V74.79a.25.25,0,1,1,.5,0"/>
        <path class="cls-1" d="M54.66,77.51v1.78a.25.25,0,0,1-.5,0V77.51a.25.25,0,0,1,.5,0"/>
        <path class="cls-1" d="M54.66,80.23V82a.25.25,0,1,1-.5,0V80.23a.25.25,0,1,1,.5,0"/>
        <path class="cls-1" d="M60.44,44.91v1.78a.25.25,0,0,1-.5,0V44.91a.25.25,0,0,1,.5,0"/>
        <path class="cls-1" d="M60.44,47.63v1.78a.25.25,0,0,1-.5,0V47.63a.25.25,0,1,1,.5,0"/>
        <path class="cls-1" d="M60.44,50.34v1.78a.25.25,0,1,1-.5,0V50.34a.25.25,0,0,1,.5,0"/>
        <path class="cls-1" d="M60.44,53.06v1.78a.25.25,0,0,1-.5,0V53.06a.25.25,0,0,1,.5,0"/>
        <path class="cls-1" d="M60.44,55.78v1.78a.25.25,0,0,1-.5,0V55.78a.25.25,0,0,1,.5,0"/>
        <path class="cls-1" d="M60.44,58.49v1.78a.25.25,0,1,1-.5,0V58.49a.25.25,0,0,1,.5,0"/>
        <path class="cls-1" d="M60.44,61.21V63a.25.25,0,1,1-.5,0V61.21a.25.25,0,0,1,.5,0"/>
        <path class="cls-1" d="M60.44,63.93v1.78a.25.25,0,0,1-.5,0V63.93a.25.25,0,0,1,.5,0"/>
        <path class="cls-1" d="M60.44,66.64v1.78a.25.25,0,1,1-.5,0V66.64a.25.25,0,0,1,.5,0"/>
        <path class="cls-1" d="M60.44,69.36v1.78a.25.25,0,0,1-.5,0V69.36a.25.25,0,0,1,.5,0"/>
        <path class="cls-1" d="M60.44,72.08v1.78a.25.25,0,1,1-.5,0V72.08a.25.25,0,1,1,.5,0"/>
        <path class="cls-1" d="M60.44,74.79v1.78a.25.25,0,0,1-.5,0V74.79a.25.25,0,0,1,.5,0"/>
        <path class="cls-1" d="M60.44,77.51v1.78a.25.25,0,1,1-.5,0V77.51a.25.25,0,1,1,.5,0"/>
        <path class="cls-1" d="M60.44,80.23V82a.25.25,0,0,1-.5,0V80.23a.25.25,0,0,1,.5,0"/>
        <path class="cls-1" d="M50.92,44.91v1.78a.25.25,0,0,1-.5,0V44.91a.25.25,0,0,1,.5,0"/>
        <path class="cls-1" d="M50.92,47.63v1.78a.25.25,0,0,1-.5,0V47.63a.25.25,0,0,1,.5,0"/>
        <path class="cls-1" d="M50.92,50.34v1.78a.25.25,0,0,1-.5,0V50.34a.25.25,0,0,1,.5,0"/>
        <path class="cls-1" d="M50.92,53.06v1.78a.25.25,0,0,1-.5,0V53.06a.25.25,0,0,1,.5,0"/>
        <path class="cls-1" d="M50.92,55.78v1.78a.25.25,0,0,1-.5,0V55.78a.25.25,0,0,1,.5,0"/>
        <path class="cls-1" d="M50.92,58.49v1.78a.25.25,0,0,1-.5,0V58.49a.25.25,0,1,1,.5,0"/>
        <path class="cls-1" d="M50.92,61.21V63a.25.25,0,0,1-.5,0V61.21a.25.25,0,1,1,.5,0"/>
        <path class="cls-1" d="M50.92,63.93v1.78a.25.25,0,0,1-.5,0V63.93a.25.25,0,1,1,.5,0"/>
        <path class="cls-1" d="M50.92,66.64v1.78a.25.25,0,0,1-.5,0V66.64a.25.25,0,0,1,.5,0"/>
        <path class="cls-1" d="M50.92,69.36v1.78a.25.25,0,0,1-.5,0V69.36a.25.25,0,0,1,.5,0"/>
        <path class="cls-1" d="M50.92,72.08v1.78a.25.25,0,0,1-.5,0V72.08a.25.25,0,0,1,.5,0"/>
        <path class="cls-1" d="M50.92,74.79v1.78a.25.25,0,0,1-.5,0V74.79a.25.25,0,0,1,.5,0"/>
        <path class="cls-1" d="M50.92,77.51v1.78a.25.25,0,0,1-.5,0V77.51a.25.25,0,0,1,.5,0"/>
        <path class="cls-1" d="M50.92,80.23V82a.25.25,0,0,1-.5,0V80.23a.25.25,0,0,1,.5,0"/>
        <path class="cls-1" d="M56.77,44.91v1.78a.25.25,0,0,1-.5,0V44.91a.25.25,0,0,1,.5,0"/>
        <path class="cls-1" d="M56.77,47.63v1.78a.25.25,0,0,1-.5,0V47.63a.25.25,0,0,1,.5,0"/>
        <path class="cls-1" d="M56.77,50.34v1.78a.25.25,0,0,1-.5,0V50.34a.25.25,0,0,1,.5,0"/>
        <path class="cls-1" d="M56.77,53.06v1.78a.25.25,0,0,1-.5,0V53.06a.25.25,0,0,1,.5,0"/>
        <path class="cls-1" d="M56.77,55.78v1.78a.25.25,0,0,1-.5,0V55.78a.25.25,0,0,1,.5,0"/>
        <path class="cls-1" d="M56.77,58.49v1.78a.25.25,0,0,1-.5,0V58.49a.25.25,0,0,1,.5,0"/>
        <path class="cls-1" d="M56.77,61.21V63a.25.25,0,0,1-.5,0V61.21a.25.25,0,0,1,.5,0"/>
        <path class="cls-1" d="M56.77,63.93v1.78a.25.25,0,0,1-.5,0V63.93a.25.25,0,0,1,.5,0"/>
        <path class="cls-1" d="M56.77,66.64v1.78a.25.25,0,0,1-.5,0V66.64a.25.25,0,0,1,.5,0"/>
        <path class="cls-1" d="M56.77,69.36v1.78a.25.25,0,0,1-.5,0V69.36a.25.25,0,0,1,.5,0"/>
        <path class="cls-1" d="M56.77,72.08v1.78a.25.25,0,0,1-.5,0V72.08a.25.25,0,0,1,.5,0"/>
        <path class="cls-1" d="M56.77,74.79v1.78a.25.25,0,0,1-.5,0V74.79a.25.25,0,0,1,.5,0"/>
        <path class="cls-1" d="M56.77,77.51v1.78a.25.25,0,0,1-.5,0V77.51a.25.25,0,0,1,.5,0"/>
        <path class="cls-1" d="M56.77,80.23V82a.25.25,0,0,1-.5,0V80.23a.25.25,0,0,1,.5,0"/>
        <path class="cls-1" d="M62.55,44.91v1.78a.25.25,0,0,1-.25.25.25.25,0,0,1-.25-.25V44.91a.25.25,0,0,1,.25-.25.25.25,0,0,1,.25.25"/>
        <path class="cls-1" d="M62.55,47.63v1.78a.25.25,0,0,1-.25.25.26.26,0,0,1-.25-.25V47.63a.25.25,0,0,1,.25-.25.25.25,0,0,1,.25.25"/>
        <path class="cls-1" d="M62.55,50.34v1.78a.25.25,0,0,1-.25.25.25.25,0,0,1-.25-.25V50.34a.25.25,0,0,1,.25-.25.25.25,0,0,1,.25.25"/>
        <path class="cls-1" d="M62.55,53.06v1.78a.25.25,0,0,1-.25.25.25.25,0,0,1-.25-.25V53.06a.25.25,0,0,1,.25-.25.25.25,0,0,1,.25.25"/>
        <path class="cls-1" d="M62.55,55.78v1.78a.25.25,0,0,1-.25.25.26.26,0,0,1-.25-.25V55.78a.25.25,0,0,1,.25-.25.25.25,0,0,1,.25.25"/>
        <path class="cls-1" d="M62.55,58.49v1.78a.25.25,0,0,1-.25.25.25.25,0,0,1-.25-.25V58.49a.26.26,0,0,1,.25-.25.25.25,0,0,1,.25.25"/>
        <path class="cls-1" d="M62.55,61.21V63a.25.25,0,0,1-.25.25.25.25,0,0,1-.25-.25V61.21A.25.25,0,0,1,62.3,61a.25.25,0,0,1,.25.25"/>
        <path class="cls-1" d="M62.55,63.93v1.78a.25.25,0,0,1-.25.25.26.26,0,0,1-.25-.25V63.93a.25.25,0,0,1,.25-.25.25.25,0,0,1,.25.25"/>
        <path class="cls-1" d="M62.55,66.64v1.78a.25.25,0,0,1-.25.25.25.25,0,0,1-.25-.25V66.64a.26.26,0,0,1,.25-.25.25.25,0,0,1,.25.25"/>
        <path class="cls-1" d="M62.55,69.36v1.78a.25.25,0,0,1-.25.25.25.25,0,0,1-.25-.25V69.36a.25.25,0,0,1,.25-.25.25.25,0,0,1,.25.25"/>
        <path class="cls-1" d="M62.55,72.08v1.78a.25.25,0,0,1-.25.25.26.26,0,0,1-.25-.25V72.08a.25.25,0,0,1,.25-.25.25.25,0,0,1,.25.25"/>
        <path class="cls-1" d="M62.55,74.79v1.78a.25.25,0,0,1-.25.25.25.25,0,0,1-.25-.25V74.79a.26.26,0,0,1,.25-.25.25.25,0,0,1,.25.25"/>
        <path class="cls-1" d="M62.55,77.51v1.78a.25.25,0,0,1-.25.25.25.25,0,0,1-.25-.25V77.51a.25.25,0,0,1,.25-.25.25.25,0,0,1,.25.25"/>
        <path class="cls-1" d="M62.55,80.23V82a.25.25,0,0,1-.25.25.26.26,0,0,1-.25-.25V80.23A.25.25,0,0,1,62.3,80a.25.25,0,0,1,.25.25"/>
        <path class="cls-1" d="M.5,11.55V14.4a.25.25,0,0,1-.25.25A.25.25,0,0,1,0,14.4V11.55a.25.25,0,0,1,.25-.25.25.25,0,0,1,.25.25"/>
        <path class="cls-1" d="M.77,25.06s0,.36,0,1a.25.25,0,1,1-.49,0c0-.66,0-1,0-1a.24.24,0,0,1,.24-.26.26.26,0,0,1,.26.24Z"/>
        <path class="cls-1" d="M.89,27.16a87.47,87.47,0,0,0,1.74,12,.25.25,0,1,1-.49.11A87.24,87.24,0,0,1,.39,27.19a.25.25,0,0,1,.23-.26.25.25,0,0,1,.27.23Z"/>
        <path class="cls-1" d="M106.42,82.64V57.06l.07-.18.18-.07h18.21l.18.07.07.18V82.64a.25.25,0,0,1-.5,0V57.31H106.92V82.64a.25.25,0,0,1-.5,0Z"/>
        <path class="cls-1" d="M135.4,82.64V57.48l.08-.17.17-.08h17.51l.17.08.08.17V82.71a.25.25,0,0,1-.25.25.25.25,0,0,1-.25-.25v-25h-17V82.64a.25.25,0,1,1-.5,0Z"/>
        <path class="cls-1" d="M99.4,82.71V73.43h0v0a9.16,9.16,0,0,1,.49-2.83A4.48,4.48,0,0,1,101,68.77a3.14,3.14,0,0,1,2.23-.83h0a4.79,4.79,0,0,1,3.45,4,.25.25,0,1,1-.49.08,4.23,4.23,0,0,0-1.72-2.88,4.3,4.3,0,0,0-1-.53,1.64,1.64,0,0,0-.3-.11l-.08,0h0l.06-.24v.25a2.68,2.68,0,0,0-1.9.7,4.9,4.9,0,0,0-1.27,2.51,9,9,0,0,0-.2,1.76v0h0v9.28a.25.25,0,1,1-.5,0Z"/>
        <path class="cls-1" d="M110.46,82.71V67.87a13.7,13.7,0,0,1,.91-3.33,7.1,7.1,0,0,1,1.53-2.32,3.7,3.7,0,0,1,2.63-1.09,4,4,0,0,1,2.66,1,7.68,7.68,0,0,1,2.13,3.45,10.65,10.65,0,0,1,.56,2.83V82.64a.25.25,0,0,1-.5,0V68.4a10.76,10.76,0,0,0-1-3.85,6.22,6.22,0,0,0-1.5-2,3.55,3.55,0,0,0-2.34-.87,3.26,3.26,0,0,0-2.29.95,7.88,7.88,0,0,0-1.83,3.33,12,12,0,0,0-.36,1.44c-.07.36-.09.58-.09.58l-.25,0H111V82.71a.25.25,0,0,1-.5,0Z"/>
        <path class="cls-1" d="M124.64,71.52a7.42,7.42,0,0,1,.78-1.76,4.33,4.33,0,0,1,1.07-1.24,2.59,2.59,0,0,1,1.65-.58A3.44,3.44,0,0,1,131,69.8a6.22,6.22,0,0,1,.93,3v9.85a.25.25,0,0,1-.25.25.25.25,0,0,1-.25-.25V72.79a5.79,5.79,0,0,0-.85-2.73,2.93,2.93,0,0,0-2.44-1.62,2.11,2.11,0,0,0-1.34.48,4.64,4.64,0,0,0-1.28,1.7,5.74,5.74,0,0,0-.3.74c0,.09-.06.17-.08.22l0,.07a.24.24,0,0,1-.3.18.25.25,0,0,1-.18-.31Z"/>
        <path class="cls-1" d="M95.9,60h10.63a.25.25,0,0,1,0,.5H95.9a.25.25,0,0,1,0-.5"/>
        <path class="cls-1" d="M124.88,60h10.56a.25.25,0,0,1,0,.5H124.88a.25.25,0,0,1,0-.5"/>
        <path class="cls-1" d="M93.63,69.17H80.89a.26.26,0,0,1-.25-.25.25.25,0,0,1,.25-.25H93.63a.25.25,0,0,1,.25.25.25.25,0,0,1-.25.25"/>
        <path class="cls-1" d="M93.63,65.05H80.54a.25.25,0,0,1-.25-.25.25.25,0,0,1,.25-.25H93.63a.25.25,0,0,1,.25.25.25.25,0,0,1-.25.25"/>
        <polygon class="cls-1" points="83.02 62.92 83.02 62.67 84.5 62.67 84.5 60.8 83.27 60.8 83.27 62.92 83.02 62.92 83.02 62.67 83.02 62.92 82.77 62.92 82.77 60.55 82.84 60.38 83.02 60.3 84.75 60.3 84.93 60.38 85 60.55 85 62.92 84.93 63.1 84.75 63.17 83.02 63.17 82.84 63.1 82.77 62.92 83.02 62.92"/>
        <polygon class="cls-1" points="140.42 62.92 140.42 62.67 141.9 62.67 141.9 60.8 140.67 60.8 140.67 62.92 140.42 62.92 140.42 62.67 140.42 62.92 140.17 62.92 140.17 60.55 140.25 60.38 140.42 60.3 142.15 60.3 142.33 60.38 142.4 60.55 142.4 62.92 142.33 63.1 142.15 63.17 140.42 63.17 140.25 63.1 140.17 62.92 140.42 62.92"/>
        <polygon class="cls-1" points="89.26 62.92 89.26 62.67 90.74 62.67 90.74 60.8 89.5 60.8 89.5 62.92 89.26 62.92 89.26 62.67 89.26 62.92 89.01 62.92 89.01 60.55 89.08 60.38 89.26 60.3 90.99 60.3 91.16 60.38 91.24 60.55 91.24 62.92 91.16 63.1 90.99 63.17 89.26 63.17 89.08 63.1 89.01 62.92 89.26 62.92"/>
        <polygon class="cls-1" points="146.66 62.92 146.66 62.67 148.14 62.67 148.14 60.8 146.91 60.8 146.91 62.92 146.66 62.92 146.66 62.67 146.66 62.92 146.41 62.92 146.41 60.55 146.48 60.38 146.66 60.3 148.39 60.3 148.56 60.38 148.64 60.55 148.64 62.92 148.56 63.1 148.39 63.17 146.66 63.17 146.48 63.1 146.41 62.92 146.66 62.92"/>
        <path class="cls-1" d="M137.35,64.68h13.82a.25.25,0,0,1,.25.25.25.25,0,0,1-.25.25H137.35a.26.26,0,0,1-.25-.25.25.25,0,0,1,.25-.25"/>
        <path class="cls-1" d="M137.35,69h13.82a.25.25,0,0,1,0,.5H137.35a.25.25,0,0,1,0-.5"/>
        <path class="cls-1" d="M96.06,64.55h10.23a.25.25,0,0,1,.25.25.25.25,0,0,1-.25.25H96.06a.25.25,0,0,1-.25-.25.25.25,0,0,1,.25-.25"/>
        <path class="cls-1" d="M125.11,64.55h10.24a.25.25,0,0,1,.25.25.25.25,0,0,1-.25.25H125.11a.25.25,0,0,1-.25-.25.26.26,0,0,1,.25-.25"/>
        <path class="cls-1" d="M97,59.28V60a.26.26,0,0,1-.25.25.25.25,0,0,1-.25-.25v-.76A.25.25,0,0,1,96.7,59a.25.25,0,0,1,.25.25"/>
        <path class="cls-1" d="M98.14,60.78v.76a.25.25,0,1,1-.5,0v-.76a.25.25,0,0,1,.5,0"/>
        <path class="cls-1" d="M126.67,59.28V60a.26.26,0,0,1-.25.25.25.25,0,0,1-.25-.25v-.76a.25.25,0,0,1,.25-.25.25.25,0,0,1,.25.25"/>
        <path class="cls-1" d="M127.67,60.78v.76a.25.25,0,1,1-.5,0v-.76a.25.25,0,1,1,.5,0"/>
        <path class="cls-1" d="M136.69,56.44v.76a.25.25,0,0,1-.5,0v-.76a.25.25,0,0,1,.5,0"/>
        <path class="cls-1" d="M137.69,58v.75a.25.25,0,0,1-.25.25.25.25,0,0,1-.25-.25V58a.25.25,0,0,1,.25-.25.25.25,0,0,1,.25.25"/>
        <path class="cls-1" d="M146.13,56.44v.76a.25.25,0,0,1-.5,0v-.76a.25.25,0,0,1,.5,0"/>
        <path class="cls-1" d="M147.13,58v.75a.25.25,0,0,1-.5,0V58a.25.25,0,1,1,.5,0"/>
        <path class="cls-1" d="M99.55,59.28V60a.25.25,0,0,1-.25.25.26.26,0,0,1-.25-.25v-.76A.25.25,0,0,1,99.3,59a.25.25,0,0,1,.25.25"/>
        <path class="cls-1" d="M100.75,60.78v.76a.25.25,0,0,1-.25.25.25.25,0,0,1-.25-.25v-.76a.25.25,0,0,1,.25-.25.25.25,0,0,1,.25.25"/>
        <path class="cls-1" d="M129,59.28V60a.26.26,0,0,1-.25.25.25.25,0,0,1-.25-.25v-.76a.25.25,0,0,1,.25-.25.25.25,0,0,1,.25.25"/>
        <path class="cls-1" d="M130,60.78v.76a.25.25,0,0,1-.5,0v-.76a.25.25,0,0,1,.5,0"/>
        <path class="cls-1" d="M139.05,56.44v.76a.25.25,0,0,1-.5,0v-.76a.25.25,0,0,1,.5,0"/>
        <path class="cls-1" d="M140.05,58v.75a.25.25,0,0,1-.5,0V58a.25.25,0,1,1,.5,0"/>
        <path class="cls-1" d="M148.49,56.44v.76a.25.25,0,0,1-.25.25.25.25,0,0,1-.25-.25v-.76a.25.25,0,0,1,.25-.25.25.25,0,0,1,.25.25"/>
        <path class="cls-1" d="M149.49,58v.75a.25.25,0,0,1-.5,0V58a.25.25,0,1,1,.5,0"/>
        <path class="cls-1" d="M102.16,59.28V60a.25.25,0,0,1-.5,0v-.76a.25.25,0,0,1,.5,0"/>
        <path class="cls-1" d="M103.35,60.78v.76a.25.25,0,0,1-.5,0v-.76a.25.25,0,0,1,.5,0"/>
        <path class="cls-1" d="M131.38,59.28V60a.25.25,0,0,1-.25.25.26.26,0,0,1-.25-.25v-.76a.25.25,0,0,1,.25-.25.25.25,0,0,1,.25.25"/>
        <path class="cls-1" d="M132.39,60.78v.76a.25.25,0,0,1-.5,0v-.76a.25.25,0,0,1,.5,0"/>
        <path class="cls-1" d="M141.41,56.44v.76a.25.25,0,0,1-.25.25.25.25,0,0,1-.25-.25v-.76a.25.25,0,0,1,.25-.25.25.25,0,0,1,.25.25"/>
        <path class="cls-1" d="M142.41,58v.75a.25.25,0,1,1-.5,0V58a.25.25,0,0,1,.5,0"/>
        <path class="cls-1" d="M150.85,56.44v.76a.25.25,0,0,1-.25.25.25.25,0,0,1-.25-.25v-.76a.25.25,0,0,1,.25-.25.25.25,0,0,1,.25.25"/>
        <path class="cls-1" d="M151.85,58v.75a.25.25,0,1,1-.5,0V58a.25.25,0,0,1,.5,0"/>
        <path class="cls-1" d="M104.77,59.28V60a.25.25,0,1,1-.5,0v-.76a.25.25,0,0,1,.5,0"/>
        <path class="cls-1" d="M106,60.78v.76a.25.25,0,1,1-.5,0v-.76a.25.25,0,0,1,.5,0"/>
        <path class="cls-1" d="M133.74,59.28V60a.25.25,0,0,1-.5,0v-.76a.25.25,0,0,1,.5,0"/>
        <path class="cls-1" d="M134.75,60.78v.76a.25.25,0,0,1-.5,0v-.76a.25.25,0,0,1,.5,0"/>
        <path class="cls-1" d="M143.76,56.44v.76a.25.25,0,0,1-.25.25.25.25,0,0,1-.25-.25v-.76a.25.25,0,0,1,.25-.25.25.25,0,0,1,.25.25"/>
        <path class="cls-1" d="M144.77,58v.75a.25.25,0,1,1-.5,0V58a.25.25,0,0,1,.5,0"/>
        <path class="cls-1" d="M153.2,56.44v.76a.25.25,0,0,1-.25.25.25.25,0,0,1-.25-.25v-.76a.25.25,0,0,1,.25-.25.25.25,0,0,1,.25.25"/>
        <path class="cls-1" d="M108.22,57.34v1.53a.25.25,0,1,1-.5,0V57.34a.25.25,0,0,1,.5,0"/>
        <path class="cls-1" d="M109.94,57.34v1.53a.25.25,0,0,1-.25.25.25.25,0,0,1-.25-.25V57.34a.26.26,0,0,1,.25-.25.25.25,0,0,1,.25.25"/>
        <path class="cls-1" d="M111.67,57.34v1.53a.25.25,0,0,1-.5,0V57.34a.25.25,0,1,1,.5,0"/>
        <path class="cls-1" d="M113.39,57.34v1.53a.25.25,0,0,1-.5,0V57.34a.25.25,0,0,1,.5,0"/>
        <path class="cls-1" d="M115.11,57.34v1.53a.25.25,0,0,1-.5,0V57.34a.25.25,0,1,1,.5,0"/>
        <path class="cls-1" d="M116.84,57.34v1.53a.25.25,0,0,1-.25.25.25.25,0,0,1-.25-.25V57.34a.25.25,0,0,1,.25-.25.26.26,0,0,1,.25.25"/>
        <path class="cls-1" d="M118.56,57.34v1.53a.25.25,0,1,1-.5,0V57.34a.25.25,0,0,1,.5,0"/>
        <path class="cls-1" d="M120.28,57.34v1.53a.25.25,0,1,1-.5,0V57.34a.25.25,0,0,1,.5,0"/>
        <path class="cls-1" d="M122,57.34v1.53a.25.25,0,0,1-.25.25.25.25,0,0,1-.25-.25V57.34a.26.26,0,0,1,.25-.25.25.25,0,0,1,.25.25"/>
        <path class="cls-1" d="M123.73,57.34v1.53a.25.25,0,0,1-.25.25.25.25,0,0,1-.25-.25V57.34a.25.25,0,0,1,.25-.25.26.26,0,0,1,.25.25"/>
        <path class="cls-1" d="M94.85,58H79.37V82.85a.25.25,0,0,1-.5,0V57.77l.08-.18.17-.07H94.85a.25.25,0,0,1,0,.5Z"/>
      </g>
    </g>
  </g>
</svg>
